<?xml version="1.0" encoding="UTF-8" standalone="no"?>
<!-- Created with Inkscape (http://www.inkscape.org/) -->

<svg
   xmlns:dc="http://purl.org/dc/elements/1.1/"
   xmlns:cc="http://creativecommons.org/ns#"
   xmlns:rdf="http://www.w3.org/1999/02/22-rdf-syntax-ns#"
   xmlns:svg="http://www.w3.org/2000/svg"
   xmlns="http://www.w3.org/2000/svg"
   xmlns:sodipodi="http://sodipodi.sourceforge.net/DTD/sodipodi-0.dtd"
   xmlns:inkscape="http://www.inkscape.org/namespaces/inkscape"
   width="210mm"
   height="297mm"
   viewBox="0 0 210 297"
   version="1.1"
   id="svg8"
   inkscape:version="0.92.1 r15371"
   sodipodi:docname="high_wing.svg">
  <defs
     id="defs2" />
  <sodipodi:namedview
     id="base"
     pagecolor="#ffffff"
     bordercolor="#666666"
     borderopacity="1.0"
     inkscape:pageopacity="0.0"
     inkscape:pageshadow="2"
     inkscape:zoom="26.673601"
     inkscape:cx="395.71217"
     inkscape:cy="437.59892"
     inkscape:document-units="mm"
     inkscape:current-layer="layer1"
     showgrid="false"
     inkscape:window-width="2560"
     inkscape:window-height="1017"
     inkscape:window-x="-8"
     inkscape:window-y="94"
     inkscape:window-maximized="1"
     inkscape:pagecheckerboard="true" />
  <metadata
     id="metadata5">
    <rdf:RDF>
      <cc:Work
         rdf:about="">
        <dc:format>image/svg+xml</dc:format>
        <dc:type
           rdf:resource="http://purl.org/dc/dcmitype/StillImage" />
        <dc:title></dc:title>
      </cc:Work>
    </rdf:RDF>
  </metadata>
  <g
     inkscape:label="Layer 1"
     inkscape:groupmode="layer"
     id="layer1">
    <path
       style="fill:#000000;stroke-width:0.26458332;fill-opacity:0;stroke:#000000;stroke-opacity:1"
       d="m 75.807775,258.02497 c -1.0067,-0.17619 -0.97151,0.007 -1.4461,-7.50884 l -0.172194,-4.32619 0.439534,-1.55835 c 0.758274,-1.03362 2.04029,-1.13389 17.48861,-3.28286 2.69214,-0.37449 5.34128,-0.79846 5.88698,-0.94215 0.98629,-0.25969 0.99219,-0.26945 0.99166,-1.64011 -10e-4,-3.21155 -5.71336,-37.91866 -6.37113,-38.71122 -0.14512,-0.17485 -1.00328,-0.45009 -1.90703,-0.61163 -0.90375,-0.16154 -14.02568,-1.42424 -29.159849,-2.80601 -30.551806,-2.7894 -40.825985,-3.77804 -42.192243,-4.05994 -1.226998,-0.25318 -1.26556,-0.49058 -1.467194,-9.03278 -0.245501,-10.40058 -0.220617,-10.45276 5.177474,-10.85622 1.810809,-0.13534 16.725685,-0.42696 33.144169,-0.64803 31.209503,-0.42024 34.927623,-0.53283 35.374353,-1.07111 0.15171,-0.18279 0.38271,-3.31899 0.52812,-7.17008 0.908801,-6.36143 -0.12478,-15.44589 3.156374,-20.75678 2.145618,-1.95721 3.544566,-2.35395 4.476316,-4.29333 0.853645,-1.7795 1.738535,-3.39019 1.966425,-3.57932 0.52872,-0.4388 0.91315,0.11487 2.20233,3.17191 1.04826,2.48573 2.74533,3.66579 2.74533,3.66579 1.77419,1.21197 2.53672,2.10427 3.57451,6.42252 1.21896,5.07205 2.01066,12.0359 2.31312,20.34633 0.0407,1.11799 0.1316,2.08787 0.20203,2.15529 0.0704,0.0674 16.4112,0.21035 36.31284,0.31762 l 36.18479,0.19504 1.1301,0.76093 c 0.61705,0.41548 0.54955,1.71523 0.64254,2.07903 0.21434,0.83852 -0.40438,16.4625 -0.66151,16.70448 -0.43264,0.40716 -6.49133,1.16417 -31.54425,3.94131 -14.47933,1.60505 -29.30261,3.27372 -32.94063,3.70817 -3.63802,0.43445 -7.23673,0.86358 -7.99713,0.95363 -0.94466,0.11188 -1.42282,0.29909 -1.50969,0.59109 -0.22977,0.77233 -0.90547,5.01055 -2.93652,18.41903 -2.3166,15.29354 -2.7702,18.59112 -2.7702,20.1389 -0.14043,1.2973 0.21633,1.16724 1.38906,1.40954 0.76399,0.15786 5.00998,0.8205 9.43553,1.47254 12.45364,1.83486 13.66446,2.29261 14.00378,5.29406 0.18862,1.66841 0.004,10.84221 -0.22212,11.06151 -18.14079,0.22624 -39.155921,0.23406 -55.468185,0.0462 z"
       id="path43"
       inkscape:connector-curvature="0"
       sodipodi:nodetypes="ccccccccsscscsccccccscccscsccssccsccscccc" />
  </g>
</svg>
