  0
SECTION
  2
BLOCKS
  0
ENDSEC
  0
SECTION
  2
ENTITIES
  0
LINE
  8
0
 10
20.7361
 20
-60.9168
 11
21.782
 21
-60.7421
  0
LINE
  8
0
 10
21.782
 20
-60.7421
 11
22.8016
 21
-60.4765
  0
LINE
  8
0
 10
22.8016
 20
-60.4765
 11
23.7886
 21
-60.1241
  0
LINE
  8
0
 10
23.7886
 20
-60.1241
 11
24.7367
 21
-59.6893
  0
LINE
  8
0
 10
24.7367
 20
-59.6893
 11
25.6394
 21
-59.1763
  0
LINE
  8
0
 10
25.6394
 20
-59.1763
 11
26.4903
 21
-58.5893
  0
LINE
  8
0
 10
26.4903
 20
-58.5893
 11
27.283
 21
-57.9324
  0
LINE
  8
0
 10
27.283
 20
-57.9324
 11
28.0112
 21
-57.21
  0
LINE
  8
0
 10
28.0112
 20
-57.21
 11
28.6684
 21
-56.4263
  0
LINE
  8
0
 10
28.6684
 20
-56.4263
 11
29.2483
 21
-55.5854
  0
LINE
  8
0
 10
29.2483
 20
-55.5854
 11
29.7445
 21
-54.6917
  0
LINE
  8
0
 10
29.7445
 20
-54.6917
 11
30.1506
 21
-53.7493
  0
LINE
  8
0
 10
30.1506
 20
-53.7493
 11
30.4602
 21
-52.7624
  0
LINE
  8
0
 10
30.4602
 20
-52.7624
 11
30.6668
 21
-51.7353
  0
LINE
  8
0
 10
30.6668
 20
-51.7353
 11
30.7642
 21
-50.6723
  0
LINE
  8
0
 10
30.7642
 20
-50.6723
 11
31.057
 21
-45.4619
  0
LINE
  8
0
 10
31.057
 20
-45.4619
 11
31.2723
 21
-40.246
  0
LINE
  8
0
 10
31.2723
 20
-40.246
 11
31.6013
 21
-29.8063
  0
LINE
  8
0
 10
31.6013
 20
-29.8063
 11
32.0119
 21
-19.3708
  0
LINE
  8
0
 10
32.0119
 20
-19.3708
 11
32.3295
 21
-14.1602
  0
LINE
  8
0
 10
32.3295
 20
-14.1602
 11
32.7653
 21
-8.95734
  0
LINE
  8
0
 10
32.7653
 20
-8.95734
 11
34.8419
 21
-8.91321
  0
LINE
  8
0
 10
34.8419
 20
-8.91321
 11
36.9601
 21
-8.96196
  0
LINE
  8
0
 10
36.9601
 20
-8.96196
 11
39.0936
 21
-9.02315
  0
LINE
  8
0
 10
39.0936
 20
-9.02315
 11
41.2164
 21
-9.01645
  0
LINE
  8
0
 10
41.2164
 20
-9.01645
 11
43.3025
 21
-8.86142
  0
LINE
  8
0
 10
43.3025
 20
-8.86142
 11
45.3258
 21
-8.47769
  0
LINE
  8
0
 10
45.3258
 20
-8.47769
 11
46.3058
 21
-8.17494
  0
LINE
  8
0
 10
46.3058
 20
-8.17494
 11
47.2603
 21
-7.78487
  0
LINE
  8
0
 10
47.2603
 20
-7.78487
 11
48.1861
 21
-7.29744
  0
LINE
  8
0
 10
48.1861
 20
-7.29744
 11
49.0799
 21
-6.70258
  0
LINE
  8
0
 10
49.0799
 20
-6.70258
 11
49.8679
 21
-5.86746
  0
LINE
  8
0
 10
49.8679
 20
-5.86746
 11
50.4566
 21
-4.9778
  0
LINE
  8
0
 10
50.4566
 20
-4.9778
 11
50.8564
 21
-4.04807
  0
LINE
  8
0
 10
50.8564
 20
-4.04807
 11
51.0778
 21
-3.0927
  0
LINE
  8
0
 10
51.0778
 20
-3.0927
 11
51.1312
 21
-2.12617
  0
LINE
  8
0
 10
51.1312
 20
-2.12617
 11
51.0272
 21
-1.16295
  0
LINE
  8
0
 10
51.0272
 20
-1.16295
 11
50.7762
 21
-0.217484
  0
LINE
  8
0
 10
50.7762
 20
-0.217484
 11
50.3887
 21
0.695755
  0
LINE
  8
0
 10
50.3887
 20
0.695755
 11
49.8752
 21
1.56232
  0
LINE
  8
0
 10
49.8752
 20
1.56232
 11
49.2461
 21
2.36774
  0
LINE
  8
0
 10
49.2461
 20
2.36774
 11
48.512
 21
3.09755
  0
LINE
  8
0
 10
48.512
 20
3.09755
 11
47.6833
 21
3.73729
  0
LINE
  8
0
 10
47.6833
 20
3.73729
 11
46.7704
 21
4.27251
  0
LINE
  8
0
 10
46.7704
 20
4.27251
 11
45.784
 21
4.68874
  0
LINE
  8
0
 10
45.784
 20
4.68874
 11
44.7344
 21
4.9715
  0
LINE
  8
0
 10
44.7344
 20
4.9715
 11
43.6321
 21
5.10637
  0
LINE
  8
0
 10
43.6321
 20
5.10637
 11
40.9406
 21
5.40787
  0
LINE
  8
0
 10
40.9406
 20
5.40787
 11
38.2381
 21
5.55901
  0
LINE
  8
0
 10
38.2381
 20
5.55901
 11
32.822
 21
5.60966
  0
LINE
  8
0
 10
32.822
 20
5.60966
 11
31.7905
 21
28.3237
  0
LINE
  8
0
 10
31.7905
 20
28.3237
 11
30.9018
 21
51.0413
  0
LINE
  8
0
 10
30.9018
 20
51.0413
 11
30.7808
 21
52.1071
  0
LINE
  8
0
 10
30.7808
 20
52.1071
 11
30.551
 21
53.1413
  0
LINE
  8
0
 10
30.551
 20
53.1413
 11
30.2187
 21
54.1379
  0
LINE
  8
0
 10
30.2187
 20
54.1379
 11
29.7904
 21
55.091
  0
LINE
  8
0
 10
29.7904
 20
55.091
 11
29.2727
 21
55.9946
  0
LINE
  8
0
 10
29.2727
 20
55.9946
 11
28.6718
 21
56.8427
  0
LINE
  8
0
 10
28.6718
 20
56.8427
 11
27.9944
 21
57.6294
  0
LINE
  8
0
 10
27.9944
 20
57.6294
 11
27.2468
 21
58.3488
  0
LINE
  8
0
 10
27.2468
 20
58.3488
 11
26.4354
 21
58.9947
  0
LINE
  8
0
 10
26.4354
 20
58.9947
 11
25.5669
 21
59.5614
  0
LINE
  8
0
 10
25.5669
 20
59.5614
 11
24.6474
 21
60.0428
  0
LINE
  8
0
 10
24.6474
 20
60.0428
 11
23.6837
 21
60.433
  0
LINE
  8
0
 10
23.6837
 20
60.433
 11
22.682
 21
60.7259
  0
LINE
  8
0
 10
22.682
 20
60.7259
 11
21.6489
 21
60.9157
  0
LINE
  8
0
 10
21.6489
 20
60.9157
 11
20.5907
 21
60.9964
  0
LINE
  8
0
 10
20.5907
 20
60.9964
 11
19.514
 21
60.962
  0
LINE
  8
0
 10
19.514
 20
60.962
 11
17.4705
 21
60.8888
  0
LINE
  8
0
 10
17.4705
 20
60.8888
 11
16.4562
 21
60.764
  0
LINE
  8
0
 10
16.4562
 20
60.764
 11
15.4562
 21
60.5548
  0
LINE
  8
0
 10
15.4562
 20
60.5548
 11
14.053
 21
60.105
  0
LINE
  8
0
 10
14.053
 20
60.105
 11
12.7626
 21
59.5075
  0
LINE
  8
0
 10
12.7626
 20
59.5075
 11
11.5818
 21
58.7746
  0
LINE
  8
0
 10
11.5818
 20
58.7746
 11
10.5075
 21
57.9187
  0
LINE
  8
0
 10
10.5075
 20
57.9187
 11
9.53676
 21
56.9522
  0
LINE
  8
0
 10
9.53676
 20
56.9522
 11
8.6664
 21
55.8875
  0
LINE
  8
0
 10
8.6664
 20
55.8875
 11
7.89336
 21
54.7368
  0
LINE
  8
0
 10
7.89336
 20
54.7368
 11
7.21457
 21
53.5126
  0
LINE
  8
0
 10
7.21457
 20
53.5126
 11
6.62697
 21
52.2273
  0
LINE
  8
0
 10
6.62697
 20
52.2273
 11
6.12749
 21
50.8931
  0
LINE
  8
0
 10
6.12749
 20
50.8931
 11
5.71303
 21
49.5225
  0
LINE
  8
0
 10
5.71303
 20
49.5225
 11
5.38054
 21
48.1278
  0
LINE
  8
0
 10
5.38054
 20
48.1278
 11
4.94913
 21
45.3157
  0
LINE
  8
0
 10
4.94913
 20
45.3157
 11
4.80869
 21
42.5557
  0
LINE
  8
0
 10
4.80869
 20
42.5557
 11
4.55695
 21
37.8989
  0
LINE
  8
0
 10
4.55695
 20
37.8989
 11
4.40294
 21
33.2385
  0
LINE
  8
0
 10
4.40294
 20
33.2385
 11
4.25616
 21
23.9117
  0
LINE
  8
0
 10
4.25616
 20
23.9117
 11
4.10454
 21
14.5859
  0
LINE
  8
0
 10
4.10454
 20
14.5859
 11
3.94446
 21
9.92664
  0
LINE
  8
0
 10
3.94446
 20
9.92664
 11
3.68422
 21
5.27156
  0
LINE
  8
0
 10
3.68422
 20
5.27156
 11
-5.44281
 21
4.77884
  0
LINE
  8
0
 10
-5.44281
 20
4.77884
 11
-14.5764
 21
4.41786
  0
LINE
  8
0
 10
-14.5764
 20
4.41786
 11
-23.7095
 21
4.05016
  0
LINE
  8
0
 10
-23.7095
 20
4.05016
 11
-32.8354
 21
3.53723
  0
LINE
  8
0
 10
-32.8354
 20
3.53723
 11
-32.9894
 21
8.17339
  0
LINE
  8
0
 10
-32.9894
 20
8.17339
 11
-33.1553
 21
12.8487
  0
LINE
  8
0
 10
-33.1553
 20
12.8487
 11
-33.3894
 21
15.1565
  0
LINE
  8
0
 10
-33.3894
 20
15.1565
 11
-33.8026
 21
17.4207
  0
LINE
  8
0
 10
-33.8026
 20
17.4207
 11
-34.4535
 21
19.6236
  0
LINE
  8
0
 10
-34.4535
 20
19.6236
 11
-34.8865
 21
20.6964
  0
LINE
  8
0
 10
-34.8865
 20
20.6964
 11
-35.401
 21
21.7472
  0
LINE
  8
0
 10
-35.401
 20
21.7472
 11
-36.1735
 21
22.6468
  0
LINE
  8
0
 10
-36.1735
 20
22.6468
 11
-37.0298
 21
23.328
  0
LINE
  8
0
 10
-37.0298
 20
23.328
 11
-37.9507
 21
23.8029
  0
LINE
  8
0
 10
-37.9507
 20
23.8029
 11
-38.9175
 21
24.0834
  0
LINE
  8
0
 10
-38.9175
 20
24.0834
 11
-39.9111
 21
24.1815
  0
LINE
  8
0
 10
-39.9111
 20
24.1815
 11
-40.9126
 21
24.1092
  0
LINE
  8
0
 10
-40.9126
 20
24.1092
 11
-41.9031
 21
23.8785
  0
LINE
  8
0
 10
-41.9031
 20
23.8785
 11
-42.8635
 21
23.5015
  0
LINE
  8
0
 10
-42.8635
 20
23.5015
 11
-43.775
 21
22.99
  0
LINE
  8
0
 10
-43.775
 20
22.99
 11
-44.6186
 21
22.3562
  0
LINE
  8
0
 10
-44.6186
 20
22.3562
 11
-45.3753
 21
21.6119
  0
LINE
  8
0
 10
-45.3753
 20
21.6119
 11
-46.0262
 21
20.7693
  0
LINE
  8
0
 10
-46.0262
 20
20.7693
 11
-46.5523
 21
19.8403
  0
LINE
  8
0
 10
-46.5523
 20
19.8403
 11
-46.9348
 21
18.8369
  0
LINE
  8
0
 10
-46.9348
 20
18.8369
 11
-47.1546
 21
17.7711
  0
LINE
  8
0
 10
-47.1546
 20
17.7711
 11
-47.1927
 21
16.655
  0
LINE
  8
0
 10
-47.1927
 20
16.655
 11
-47.2898
 21
14.7297
  0
LINE
  8
0
 10
-47.2898
 20
14.7297
 11
-47.3087
 21
10.3162
  0
LINE
  8
0
 10
-47.3087
 20
10.3162
 11
-47.4019
 21
8.04724
  0
LINE
  8
0
 10
-47.4019
 20
8.04724
 11
-47.665
 21
5.88295
  0
LINE
  8
0
 10
-47.665
 20
5.88295
 11
-47.8871
 21
4.8743
  0
LINE
  8
0
 10
-47.8871
 20
4.8743
 11
-48.1839
 21
3.93292
  0
LINE
  8
0
 10
-48.1839
 20
3.93292
 11
-48.5659
 21
3.07251
  0
LINE
  8
0
 10
-48.5659
 20
3.07251
 11
-49.0441
 21
2.30678
  0
LINE
  8
0
 10
-49.0441
 20
2.30678
 11
-49.6289
 21
1.6494
  0
LINE
  8
0
 10
-49.6289
 20
1.6494
 11
-50.3313
 21
1.11411
  0
LINE
  8
0
 10
-50.3313
 20
1.11411
 11
-50.8017
 21
0.227982
  0
LINE
  8
0
 10
-50.8017
 20
0.227982
 11
-51.0595
 21
-0.574051
  0
LINE
  8
0
 10
-51.0595
 20
-0.574051
 11
-51.1312
 21
-1.306
  0
LINE
  8
0
 10
-51.1312
 20
-1.306
 11
-51.0435
 21
-1.98177
  0
LINE
  8
0
 10
-51.0435
 20
-1.98177
 11
-50.823
 21
-2.61534
  0
LINE
  8
0
 10
-50.823
 20
-2.61534
 11
-50.4964
 21
-3.22066
  0
LINE
  8
0
 10
-50.4964
 20
-3.22066
 11
-49.6311
 21
-4.40227
  0
LINE
  8
0
 10
-49.6311
 20
-4.40227
 11
-48.6604
 21
-5.63821
  0
LINE
  8
0
 10
-48.6604
 20
-5.63821
 11
-47.7975
 21
-7.04008
  0
LINE
  8
0
 10
-47.7975
 20
-7.04008
 11
-47.473
 21
-7.83812
  0
LINE
  8
0
 10
-47.473
 20
-7.83812
 11
-47.2552
 21
-8.71948
  0
LINE
  8
0
 10
-47.2552
 20
-8.71948
 11
-47.1709
 21
-9.69812
  0
LINE
  8
0
 10
-47.1709
 20
-9.69812
 11
-47.2466
 21
-10.788
  0
LINE
  8
0
 10
-47.2466
 20
-10.788
 11
-47.2679
 21
-12.6865
  0
LINE
  8
0
 10
-47.2679
 20
-12.6865
 11
-47.3838
 21
-14.7115
  0
LINE
  8
0
 10
-47.3838
 20
-14.7115
 11
-47.4793
 21
-16.7873
  0
LINE
  8
0
 10
-47.4793
 20
-16.7873
 11
-47.4399
 21
-18.8384
  0
LINE
  8
0
 10
-47.4399
 20
-18.8384
 11
-47.3337
 21
-19.8312
  0
LINE
  8
0
 10
-47.3337
 20
-19.8312
 11
-47.1507
 21
-20.7894
  0
LINE
  8
0
 10
-47.1507
 20
-20.7894
 11
-46.8766
 21
-21.7038
  0
LINE
  8
0
 10
-46.8766
 20
-21.7038
 11
-46.4971
 21
-22.5647
  0
LINE
  8
0
 10
-46.4971
 20
-22.5647
 11
-45.9977
 21
-23.3629
  0
LINE
  8
0
 10
-45.9977
 20
-23.3629
 11
-45.3642
 21
-24.0888
  0
LINE
  8
0
 10
-45.3642
 20
-24.0888
 11
-44.5823
 21
-24.7331
  0
LINE
  8
0
 10
-44.5823
 20
-24.7331
 11
-43.6375
 21
-25.2862
  0
LINE
  8
0
 10
-43.6375
 20
-25.2862
 11
-42.6091
 21
-25.6934
  0
LINE
  8
0
 10
-42.6091
 20
-25.6934
 11
-41.6049
 21
-25.924
  0
LINE
  8
0
 10
-41.6049
 20
-25.924
 11
-40.6311
 21
-25.9899
  0
LINE
  8
0
 10
-40.6311
 20
-25.9899
 11
-39.6938
 21
-25.9027
  0
LINE
  8
0
 10
-39.6938
 20
-25.9027
 11
-38.7992
 21
-25.6743
  0
LINE
  8
0
 10
-38.7992
 20
-25.6743
 11
-37.9533
 21
-25.3166
  0
LINE
  8
0
 10
-37.9533
 20
-25.3166
 11
-37.1625
 21
-24.8412
  0
LINE
  8
0
 10
-37.1625
 20
-24.8412
 11
-36.4326
 21
-24.26
  0
LINE
  8
0
 10
-36.4326
 20
-24.26
 11
-35.77
 21
-23.5848
  0
LINE
  8
0
 10
-35.77
 20
-23.5848
 11
-35.1808
 21
-22.8273
  0
LINE
  8
0
 10
-35.1808
 20
-22.8273
 11
-34.671
 21
-21.9994
  0
LINE
  8
0
 10
-34.671
 20
-21.9994
 11
-34.2469
 21
-21.1129
  0
LINE
  8
0
 10
-34.2469
 20
-21.1129
 11
-33.9146
 21
-20.1796
  0
LINE
  8
0
 10
-33.9146
 20
-20.1796
 11
-33.6801
 21
-19.2112
  0
LINE
  8
0
 10
-33.6801
 20
-19.2112
 11
-33.5497
 21
-18.2196
  0
LINE
  8
0
 10
-33.5497
 20
-18.2196
 11
-33.5295
 21
-17.2165
  0
LINE
  8
0
 10
-33.5295
 20
-17.2165
 11
-33.202
 21
-14.1907
  0
LINE
  8
0
 10
-33.202
 20
-14.1907
 11
-33.0226
 21
-11.1534
  0
LINE
  8
0
 10
-33.0226
 20
-11.1534
 11
-32.8392
 21
-5.06819
  0
LINE
  8
0
 10
-32.8392
 20
-5.06819
 11
-28.286
 21
-5.4628
  0
LINE
  8
0
 10
-28.286
 20
-5.4628
 11
-23.7271
 21
-5.76918
  0
LINE
  8
0
 10
-23.7271
 20
-5.76918
 11
-14.5993
 21
-6.22783
  0
LINE
  8
0
 10
-14.5993
 20
-6.22783
 11
-5.47005
 21
-6.66528
  0
LINE
  8
0
 10
-5.47005
 20
-6.66528
 11
-0.909348
 21
-6.94519
  0
LINE
  8
0
 10
-0.909348
 20
-6.94519
 11
3.64633
 21
-7.30273
  0
LINE
  8
0
 10
3.64633
 20
-7.30273
 11
3.99852
 21
-12.5937
  0
LINE
  8
0
 10
3.99852
 20
-12.5937
 11
4.15164
 21
-17.9032
  0
LINE
  8
0
 10
4.15164
 20
-17.9032
 11
4.24464
 21
-28.5406
  0
LINE
  8
0
 10
4.24464
 20
-28.5406
 11
4.37646
 21
-33.8497
  0
LINE
  8
0
 10
4.37646
 20
-33.8497
 11
4.69318
 21
-39.1399
  0
LINE
  8
0
 10
4.69318
 20
-39.1399
 11
4.95084
 21
-41.7749
  0
LINE
  8
0
 10
4.95084
 20
-41.7749
 11
5.29073
 21
-44.4017
  0
LINE
  8
0
 10
5.29073
 20
-44.4017
 11
5.72481
 21
-47.0191
  0
LINE
  8
0
 10
5.72481
 20
-47.0191
 11
6.26511
 21
-49.6259
  0
LINE
  8
0
 10
6.26511
 20
-49.6259
 11
6.55925
 21
-50.7749
  0
LINE
  8
0
 10
6.55925
 20
-50.7749
 11
6.94278
 21
-51.896
  0
LINE
  8
0
 10
6.94278
 20
-51.896
 11
7.41208
 21
-52.9827
  0
LINE
  8
0
 10
7.41208
 20
-52.9827
 11
7.96352
 21
-54.0283
  0
LINE
  8
0
 10
7.96352
 20
-54.0283
 11
8.59348
 21
-55.0265
  0
LINE
  8
0
 10
8.59348
 20
-55.0265
 11
9.29836
 21
-55.9705
  0
LINE
  8
0
 10
9.29836
 20
-55.9705
 11
10.0745
 21
-56.8539
  0
LINE
  8
0
 10
10.0745
 20
-56.8539
 11
10.9184
 21
-57.6702
  0
LINE
  8
0
 10
10.9184
 20
-57.6702
 11
11.8262
 21
-58.4127
  0
LINE
  8
0
 10
11.8262
 20
-58.4127
 11
12.7945
 21
-59.075
  0
LINE
  8
0
 10
12.7945
 20
-59.075
 11
13.8196
 21
-59.6504
  0
LINE
  8
0
 10
13.8196
 20
-59.6504
 11
14.8979
 21
-60.1325
  0
LINE
  8
0
 10
14.8979
 20
-60.1325
 11
16.0258
 21
-60.5147
  0
LINE
  8
0
 10
16.0258
 20
-60.5147
 11
17.1996
 21
-60.7904
  0
LINE
  8
0
 10
17.1996
 20
-60.7904
 11
18.4157
 21
-60.9532
  0
LINE
  8
0
 10
18.4157
 20
-60.9532
 11
19.6705
 21
-60.9964
  0
LINE
  8
0
 10
19.6705
 20
-60.9964
 11
20.7361
 21
-60.9168
  0
ENDSEC
  0
SECTION
  2
OBJECTS
  0
DICTIONARY
  0
ENDSEC
  0
EOF
