  0
SECTION
  2
BLOCKS
  0
ENDSEC
  0
SECTION
  2
ENTITIES
  0
LINE
  8
0
 10
24.1603
 20
-51.4185
 11
24.3837
 21
-47.2402
  0
LINE
  8
0
 10
24.3837
 20
-47.2402
 11
24.3464
 21
-42.1514
  0
LINE
  8
0
 10
24.3464
 20
-42.1514
 11
23.8605
 21
-40.6138
  0
LINE
  8
0
 10
23.8605
 20
-40.6138
 11
23.2604
 21
-40.0484
  0
LINE
  8
0
 10
23.2604
 20
-40.0484
 11
22.2863
 21
-39.5673
  0
LINE
  8
0
 10
22.2863
 20
-39.5673
 11
18.8091
 21
-38.7041
  0
LINE
  8
0
 10
18.8091
 20
-38.7041
 11
12.6143
 21
-37.7162
  0
LINE
  8
0
 10
12.6143
 20
-37.7162
 11
4.70946
 21
-36.4825
  0
LINE
  8
0
 10
4.70946
 20
-36.4825
 11
3.71506
 21
-36.2235
  0
LINE
  8
0
 10
3.71506
 20
-36.2235
 11
3.54573
 21
-35.3016
  0
LINE
  8
0
 10
3.54573
 20
-35.3016
 11
3.97835
 21
-31.1841
  0
LINE
  8
0
 10
3.97835
 20
-31.1841
 11
5.86655
 21
-18.4297
  0
LINE
  8
0
 10
5.86655
 20
-18.4297
 11
8.32671
 21
-2.99864
  0
LINE
  8
0
 10
8.32671
 20
-2.99864
 11
8.68961
 21
-2.69444
  0
LINE
  8
0
 10
8.68961
 20
-2.69444
 11
9.59148
 21
-2.50343
  0
LINE
  8
0
 10
9.59148
 20
-2.50343
 11
16.2913
 21
-1.7045
  0
LINE
  8
0
 10
16.2913
 20
-1.7045
 11
43.8882
 21
1.4021
  0
LINE
  8
0
 10
43.8882
 20
1.4021
 11
64.8366
 21
3.79764
  0
LINE
  8
0
 10
64.8366
 20
3.79764
 11
70.3153
 21
4.70403
  0
LINE
  8
0
 10
70.3153
 20
4.70403
 11
70.7405
 21
11.5139
  0
LINE
  8
0
 10
70.7405
 20
11.5139
 11
70.8695
 21
18.6987
  0
LINE
  8
0
 10
70.8695
 20
18.6987
 11
70.765
 21
19.5533
  0
LINE
  8
0
 10
70.765
 20
19.5533
 11
70.3312
 21
20.4404
  0
LINE
  8
0
 10
70.3312
 20
20.4404
 11
69.3844
 21
21.0779
  0
LINE
  8
0
 10
69.3844
 20
21.0779
 11
39.0696
 21
21.2413
  0
LINE
  8
0
 10
39.0696
 20
21.2413
 11
8.64751
 21
21.5074
  0
LINE
  8
0
 10
8.64751
 20
21.5074
 11
8.47826
 21
23.3131
  0
LINE
  8
0
 10
8.47826
 20
23.3131
 11
7.79726
 21
32.8533
  0
LINE
  8
0
 10
7.79726
 20
32.8533
 11
6.54039
 21
40.3588
  0
LINE
  8
0
 10
6.54039
 20
40.3588
 11
5.9147
 21
42.583
  0
LINE
  8
0
 10
5.9147
 20
42.583
 11
5.27441
 21
44.025
  0
LINE
  8
0
 10
5.27441
 20
44.025
 11
4.51845
 21
44.9791
  0
LINE
  8
0
 10
4.51845
 20
44.9791
 11
3.54573
 21
45.7394
  0
LINE
  8
0
 10
3.54573
 20
45.7394
 11
2.72507
 21
46.4941
  0
LINE
  8
0
 10
2.72507
 20
46.4941
 11
1.97562
 21
47.4521
  0
LINE
  8
0
 10
1.97562
 20
47.4521
 11
1.24576
 21
48.8106
  0
LINE
  8
0
 10
1.24576
 20
48.8106
 11
0.0843048
 21
51.2375
  0
LINE
  8
0
 10
0.0843048
 20
51.2375
 11
-0.276001
 21
51.5679
  0
LINE
  8
0
 10
-0.276001
 20
51.5679
 11
-0.599274
 21
51.4679
  0
LINE
  8
0
 10
-0.599274
 20
51.4679
 11
-2.2467
 21
48.4692
  0
LINE
  8
0
 10
-2.2467
 20
48.4692
 11
-2.90919
 21
47.4524
  0
LINE
  8
0
 10
-2.90919
 20
47.4524
 11
-3.74042
 21
46.6764
  0
LINE
  8
0
 10
-3.74042
 20
46.6764
 11
-5.99686
 21
44.8724
  0
LINE
  8
0
 10
-5.99686
 20
44.8724
 11
-6.8685
 21
43.0663
  0
LINE
  8
0
 10
-6.8685
 20
43.0663
 11
-7.46265
 21
41.0276
  0
LINE
  8
0
 10
-7.46265
 20
41.0276
 11
-8.06435
 21
36.5076
  0
LINE
  8
0
 10
-8.06435
 20
36.5076
 11
-8.29337
 21
31.8226
  0
LINE
  8
0
 10
-8.29337
 20
31.8226
 11
-8.6412
 21
27.4828
  0
LINE
  8
0
 10
-8.6412
 20
27.4828
 11
-9.08365
 21
21.4759
  0
LINE
  8
0
 10
-9.08365
 20
21.4759
 11
-10.1953
 21
21.1949
  0
LINE
  8
0
 10
-10.1953
 20
21.1949
 11
-14.2369
 21
20.9901
  0
LINE
  8
0
 10
-14.2369
 20
20.9901
 11
-38.7195
 21
20.5785
  0
LINE
  8
0
 10
-38.7195
 20
20.5785
 11
-66.487
 21
20.0356
  0
LINE
  8
0
 10
-66.487
 20
20.0356
 11
-69.1015
 21
19.6972
  0
LINE
  8
0
 10
-69.1015
 20
19.6972
 11
-69.901
 21
19.3068
  0
LINE
  8
0
 10
-69.901
 20
19.3068
 11
-70.4288
 21
18.6288
  0
LINE
  8
0
 10
-70.4288
 20
18.6288
 11
-70.7349
 21
17.5583
  0
LINE
  8
0
 10
-70.7349
 20
17.5583
 11
-70.8695
 21
15.9901
  0
LINE
  8
0
 10
-70.8695
 20
15.9901
 11
-70.8245
 21
10.9405
  0
LINE
  8
0
 10
-70.8245
 20
10.9405
 11
-70.5321
 21
4.55266
  0
LINE
  8
0
 10
-70.5321
 20
4.55266
 11
-70.1973
 21
3.63857
  0
LINE
  8
0
 10
-70.1973
 20
3.63857
 11
-69.5953
 21
3.37305
  0
LINE
  8
0
 10
-69.5953
 20
3.37305
 11
-9.81813
 21
-2.37906
  0
LINE
  8
0
 10
-9.81813
 20
-2.37906
 11
-8.22047
 21
-2.89148
  0
LINE
  8
0
 10
-8.22047
 20
-2.89148
 11
-7.15411
 21
-7.86064
  0
LINE
  8
0
 10
-7.15411
 20
-7.86064
 11
-5.34534
 21
-18.3472
  0
LINE
  8
0
 10
-5.34534
 20
-18.3472
 11
-3.63974
 21
-29.2138
  0
LINE
  8
0
 10
-3.63974
 20
-29.2138
 11
-2.88287
 21
-35.3229
  0
LINE
  8
0
 10
-2.88287
 20
-35.3229
 11
-2.98824
 21
-36.3589
  0
LINE
  8
0
 10
-2.98824
 20
-36.3589
 11
-3.71367
 21
-36.6969
  0
LINE
  8
0
 10
-3.71367
 20
-36.6969
 11
-8.64565
 21
-37.4862
  0
LINE
  8
0
 10
-8.64565
 20
-37.4862
 11
-20.5866
 21
-39.2118
  0
LINE
  8
0
 10
-20.5866
 20
-39.2118
 11
-22.5599
 21
-39.6947
  0
LINE
  8
0
 10
-22.5599
 20
-39.6947
 11
-23.2972
 21
-40.2365
  0
LINE
  8
0
 10
-23.2972
 20
-40.2365
 11
-23.6655
 21
-41.5421
  0
LINE
  8
0
 10
-23.6655
 20
-41.5421
 11
-23.5212
 21
-45.1665
  0
LINE
  8
0
 10
-23.5212
 20
-45.1665
 11
-23.0826
 21
-50.6177
  0
LINE
  8
0
 10
-23.0826
 20
-50.6177
 11
-22.7989
 21
-51.2975
  0
LINE
  8
0
 10
-22.7989
 20
-51.2975
 11
-22.3097
 21
-51.4572
  0
LINE
  8
0
 10
-22.3097
 20
-51.4572
 11
0.35083
 21
-51.5679
  0
LINE
  8
0
 10
0.35083
 20
-51.5679
 11
24.1603
 21
-51.4185
  0
ENDSEC
  0
SECTION
  2
OBJECTS
  0
DICTIONARY
  0
ENDSEC
  0
EOF
