<?xml version="1.0" encoding="UTF-8" standalone="no"?>
<!-- Created with Inkscape (http://www.inkscape.org/) -->

<svg
   xmlns:osb="http://www.openswatchbook.org/uri/2009/osb"
   xmlns:dc="http://purl.org/dc/elements/1.1/"
   xmlns:cc="http://creativecommons.org/ns#"
   xmlns:rdf="http://www.w3.org/1999/02/22-rdf-syntax-ns#"
   xmlns:svg="http://www.w3.org/2000/svg"
   xmlns="http://www.w3.org/2000/svg"
   xmlns:xlink="http://www.w3.org/1999/xlink"
   xmlns:sodipodi="http://sodipodi.sourceforge.net/DTD/sodipodi-0.dtd"
   xmlns:inkscape="http://www.inkscape.org/namespaces/inkscape"
   version="1.1"
   id="svg3751"
   width="120.90022mm"
   height="122.6356mm"
   viewBox="0 0 456.94568 463.50459"
   sodipodi:docname="aircraft_board.svg"
   inkscape:version="0.92.1 r15371">
  <metadata
     id="metadata3757">
    <rdf:RDF>
      <cc:Work
         rdf:about="">
        <dc:format>image/svg+xml</dc:format>
        <dc:type
           rdf:resource="http://purl.org/dc/dcmitype/StillImage" />
        <dc:title />
      </cc:Work>
    </rdf:RDF>
  </metadata>
  <defs
     id="defs3755">
    <linearGradient
       id="linearGradient4494"
       osb:paint="solid">
      <stop
         style="stop-color:#332404;stop-opacity:0;"
         offset="0"
         id="stop4492" />
    </linearGradient>
    <linearGradient
       inkscape:collect="always"
       xlink:href="#linearGradient4494"
       id="linearGradient4496"
       x1="50.567902"
       y1="232.51538"
       x2="412.54196"
       y2="232.51538"
       gradientUnits="userSpaceOnUse" />
  </defs>
  <sodipodi:namedview
     pagecolor="#ffffff"
     bordercolor="#666666"
     borderopacity="1"
     objecttolerance="10"
     gridtolerance="10"
     guidetolerance="10"
     inkscape:pageopacity="0"
     inkscape:pageshadow="2"
     inkscape:window-width="1920"
     inkscape:window-height="1001"
     id="namedview3753"
     showgrid="false"
     inkscape:document-units="mm"
     units="mm"
     inkscape:zoom="1.8664367"
     inkscape:cx="231.55494"
     inkscape:cy="230.98923"
     inkscape:window-x="-9"
     inkscape:window-y="-9"
     inkscape:window-maximized="1"
     inkscape:current-layer="g3784"
     showguides="false"
     inkscape:pagecheckerboard="true" />
  <g
     id="g3784">
    <g
       id="g3787">
      <path
         style="color:#000000;font-style:normal;font-variant:normal;font-weight:normal;font-stretch:normal;font-size:medium;line-height:normal;font-family:sans-serif;font-variant-ligatures:normal;font-variant-position:normal;font-variant-caps:normal;font-variant-numeric:normal;font-variant-alternates:normal;font-feature-settings:normal;text-indent:0;text-align:start;text-decoration:none;text-decoration-line:none;text-decoration-style:solid;text-decoration-color:#000000;letter-spacing:normal;word-spacing:normal;text-transform:none;writing-mode:lr-tb;direction:ltr;text-orientation:mixed;dominant-baseline:auto;baseline-shift:baseline;text-anchor:start;white-space:normal;shape-padding:0;clip-rule:nonzero;display:inline;overflow:visible;visibility:visible;opacity:1;isolation:auto;mix-blend-mode:normal;color-interpolation:sRGB;color-interpolation-filters:linearRGB;solid-color:#000000;solid-opacity:1;vector-effect:none;fill:url(#linearGradient4496);fill-opacity:1;fill-rule:nonzero;stroke:#000000;stroke-width:0.72566926;stroke-linecap:butt;stroke-linejoin:round;stroke-miterlimit:4;stroke-dasharray:none;stroke-dashoffset:0;stroke-opacity:1;color-rendering:auto;image-rendering:auto;shape-rendering:auto;text-rendering:auto;enable-background:accumulate"
         d="m 285.94226,17.882127 c -27.60034,7.026693 -37.69729,38.25517 -37.72735,63.776456 -2.94418,43.979567 -0.94841,88.148217 -3.98429,132.109167 -43.09374,2.85723 -86.31398,3.16089 -129.40025,6.14527 -1.4394,-21.58644 1.44712,-44.88807 -9.09067,-64.52332 -13.688977,-19.14008 -44.881805,-4.50961 -41.781864,18.0432 -5.172767,16.2579 8.360194,44.0715 -9.929133,52.15322 -11.066789,17.62762 18.276435,24.67491 9.738475,45.08564 0.605604,17.10399 -6.694852,41.83933 12.787973,51.37151 19.625353,9.43825 36.513599,-9.6035 35.815709,-28.59338 2.00325,-14.25848 1.97103,-28.68235 2.44607,-43.04515 42.98978,4.23256 86.26267,4.0854 129.27942,7.91769 4.57051,49.87534 -2.01025,100.80944 9.27911,149.96396 4.69116,21.93597 23.44341,42.89391 47.49938,40.28922 20.81487,1.53994 38.54113,-16.17889 39.30854,-36.58156 3.23455,-49.19811 2.31094,-98.69159 7.09031,-147.80886 19.34424,-1.10886 41.23976,4.33044 57.80759,-7.98932 16.84215,-15.17509 1.95886,-42.76892 -19.30292,-41.84275 -12.68141,-1.8582 -25.51821,-1.82424 -38.30353,-1.78334 -2.4357,-53.65306 -5.04348,-107.30783 -6.80394,-160.978306 -1.21724,-20.401921 -19.86842,-36.927379 -40.3506,-35.15202 -4.81697,-0.01523 -9.69868,0.225835 -14.37803,1.442673 z"
         id="path3761"
         inkscape:connector-curvature="0" />
    </g>
  </g>
</svg>
