<?xml version="1.0" encoding="UTF-8" standalone="no"?>
<!-- Created with Inkscape (http://www.inkscape.org/) -->

<svg
   xmlns:dc="http://purl.org/dc/elements/1.1/"
   xmlns:cc="http://creativecommons.org/ns#"
   xmlns:rdf="http://www.w3.org/1999/02/22-rdf-syntax-ns#"
   xmlns:svg="http://www.w3.org/2000/svg"
   xmlns="http://www.w3.org/2000/svg"
   xmlns:sodipodi="http://sodipodi.sourceforge.net/DTD/sodipodi-0.dtd"
   xmlns:inkscape="http://www.inkscape.org/namespaces/inkscape"
   version="1.1"
   id="svg3751"
   width="120.90022mm"
   height="122.6356mm"
   viewBox="0 0 456.94568 463.50459"
   sodipodi:docname="aircraft_board.svg"
   inkscape:version="0.92.1 r15371">
  <metadata
     id="metadata3757">
    <rdf:RDF>
      <cc:Work
         rdf:about="">
        <dc:format>image/svg+xml</dc:format>
        <dc:type
           rdf:resource="http://purl.org/dc/dcmitype/StillImage" />
        <dc:title />
      </cc:Work>
    </rdf:RDF>
  </metadata>
  <defs
     id="defs3755" />
  <sodipodi:namedview
     pagecolor="#ffffff"
     bordercolor="#666666"
     borderopacity="1"
     objecttolerance="10"
     gridtolerance="10"
     guidetolerance="10"
     inkscape:pageopacity="0"
     inkscape:pageshadow="2"
     inkscape:window-width="2560"
     inkscape:window-height="1017"
     id="namedview3753"
     showgrid="false"
     inkscape:document-units="mm"
     units="mm"
     inkscape:zoom="2.0000001"
     inkscape:cx="434.26077"
     inkscape:cy="294.31358"
     inkscape:window-x="-8"
     inkscape:window-y="94"
     inkscape:window-maximized="1"
     inkscape:current-layer="g3787"
     showguides="false" />
  <g
     id="g3784">
    <g
       id="g3787">
      <path
         style="color:#000000;font-style:normal;font-variant:normal;font-weight:normal;font-stretch:normal;font-size:medium;line-height:normal;font-family:sans-serif;font-variant-ligatures:normal;font-variant-position:normal;font-variant-caps:normal;font-variant-numeric:normal;font-variant-alternates:normal;font-feature-settings:normal;text-indent:0;text-align:start;text-decoration:none;text-decoration-line:none;text-decoration-style:solid;text-decoration-color:#000000;letter-spacing:normal;word-spacing:normal;text-transform:none;writing-mode:lr-tb;direction:ltr;text-orientation:mixed;dominant-baseline:auto;baseline-shift:baseline;text-anchor:start;white-space:normal;shape-padding:0;clip-rule:nonzero;display:inline;overflow:visible;visibility:visible;opacity:1;isolation:auto;mix-blend-mode:normal;color-interpolation:sRGB;color-interpolation-filters:linearRGB;solid-color:#000000;solid-opacity:1;vector-effect:none;fill:#ffffff;fill-opacity:1;fill-rule:nonzero;stroke:#000000;stroke-width:0.72488272;stroke-linecap:butt;stroke-linejoin:miter;stroke-miterlimit:4;stroke-dasharray:none;stroke-dashoffset:0;stroke-opacity:1;color-rendering:auto;image-rendering:auto;shape-rendering:auto;text-rendering:auto;enable-background:accumulate"
         d="m 285.94226,17.882127 c -12.92505,3.528996 -22.81633,11.920174 -29.09559,24.653419 -2.04819,4.153373 -4.37083,9.95829 -5.18031,13.004441 -3.40324,12.806899 -4.887,39.282802 -5.48898,96.869063 -0.16813,16.08203 -0.49481,31.3524 -0.87232,42.67708 -0.18875,5.66234 -0.38884,10.34052 -0.59053,13.63522 -0.11501,1.70328 -0.19416,3.45098 -0.48391,5.0464 -43.59219,2.8677 -89.527,3.30605 -129.40025,6.14527 l -0.45635,-15.11145 c -0.48159,-16.02274 -1.42049,-27.30396 -3.16679,-35.49708 -1.7463,-8.19316 -4.31227,-13.31551 -8.06571,-16.93664 -3.531876,-3.4074 -7.247951,-4.97576 -13.031281,-5.51581 -9.783642,-0.91364 -17.086815,2.45883 -21.62039,10.01164 -2.130234,3.54894 -3.364289,6.46084 -4.079828,11.93085 -0.715533,5.46995 -0.945176,13.52174 -1.113896,27.47168 -0.269048,8.09354 -0.05652,15.94411 -0.711358,23.78111 -0.516564,3.5089 -4.106882,2.72194 -6.56267,4.12039 -1.458754,0.84352 -2.747538,1.92342 -3.328279,3.04647 -1.32087,2.5543 -1.875549,5.75479 -1.744661,8.69647 0.130914,2.94168 0.940871,5.63584 2.509623,7.15309 1.057991,1.02331 3.546929,2.26197 5.717129,2.9257 7.606249,5.28928 3.344386,42.54232 3.878245,53.96372 0.213262,4.29641 0.631722,5.84312 1.409152,8.17307 2.08057,6.2355 6.65053,11.51208 12.091845,13.91704 3.137463,1.3867 5.263329,1.72707 10.87059,1.7581 6.027776,0.0312 7.505378,-0.22123 10.682703,-1.85205 5.480776,-2.8127 9.311936,-8.04399 11.877116,-16.90979 2.56519,-8.86579 3.89347,-21.38921 4.3885,-38.94622 l 0.44287,-15.68857 c 46.52017,4.43318 89.23125,4.22238 129.27942,7.91769 0.76989,6.40851 0.93229,13.40446 1.12808,18.81565 0.4031,11.24796 0.75489,26.24484 0.93943,41.6303 0.56007,46.69517 1.73379,64.45597 5.44872,82.26752 5.58787,26.7915 18.47611,42.83236 37.21499,46.71672 6.73918,1.34382 17.23618,1.0931 24.45209,-0.72685 12.3727,-3.35154 20.49572,-11.50744 24.81447,-24.8547 2.34525,-7.24809 3.26873,-17.94413 3.73089,-42.865 0.31591,-17.03174 1.27552,-43.26758 2.32174,-66.27034 0.52309,-11.5014 1.07644,-22.19776 1.57019,-30.53157 0.47365,-6.11293 0.60888,-12.26011 1.55674,-18.31897 l 18.34578,0.0536 c 20.37342,0.0625 26.52225,-0.70657 34.16854,-4.3214 2.31119,-1.0926 4.83824,-3.11585 6.93838,-5.34133 6.80819,-7.08541 6.68457,-20.02739 2.6841,-27.16306 -3.25241,-5.56677 -9.11637,-9.65768 -17.24529,-11.81019 -6.94448,-1.83888 -20.73238,-3.03303 -34.6651,-3.03303 h -10.02527 l -0.48315,-11.7966 c -1.60656,-40.51277 -4.41828,-81.86359 -5.19372,-121.951864 -0.10968,-6.082829 -0.2915,-12.180648 -0.49659,-17.111124 -0.20467,-4.930111 -0.42168,-8.670599 -0.63048,-10.118718 C 338.13495,34.00396 329.42028,22.929078 314.36675,18.201349 307.30126,15.982323 293.44987,15.829391 285.94218,17.87914 Z"
         id="path3761"
         inkscape:connector-curvature="0"
         sodipodi:nodetypes="sssccccccsscssccccsscccssccsccccssccscscccccccsccsscss" />
    </g>
  </g>
</svg>
