<?xml version="1.0" encoding="UTF-8" standalone="no"?>
<!-- Created with Inkscape (http://www.inkscape.org/) -->

<svg
   xmlns:dc="http://purl.org/dc/elements/1.1/"
   xmlns:cc="http://creativecommons.org/ns#"
   xmlns:rdf="http://www.w3.org/1999/02/22-rdf-syntax-ns#"
   xmlns:svg="http://www.w3.org/2000/svg"
   xmlns="http://www.w3.org/2000/svg"
   xmlns:sodipodi="http://sodipodi.sourceforge.net/DTD/sodipodi-0.dtd"
   xmlns:inkscape="http://www.inkscape.org/namespaces/inkscape"
   version="1.1"
   id="svg3751"
   width="120.90022mm"
   height="122.6356mm"
   viewBox="0 0 456.94568 463.50459"
   sodipodi:docname="aircraft_board.svg"
   inkscape:version="0.92.1 r15371">
  <metadata
     id="metadata3757">
    <rdf:RDF>
      <cc:Work
         rdf:about="">
        <dc:format>image/svg+xml</dc:format>
        <dc:type
           rdf:resource="http://purl.org/dc/dcmitype/StillImage" />
        <dc:title></dc:title>
      </cc:Work>
    </rdf:RDF>
  </metadata>
  <defs
     id="defs3755" />
  <sodipodi:namedview
     pagecolor="#ffffff"
     bordercolor="#666666"
     borderopacity="1"
     objecttolerance="10"
     gridtolerance="10"
     guidetolerance="10"
     inkscape:pageopacity="0"
     inkscape:pageshadow="2"
     inkscape:window-width="1392"
     inkscape:window-height="981"
     id="namedview3753"
     showgrid="false"
     inkscape:document-units="mm"
     units="mm"
     inkscape:zoom="1.6871461"
     inkscape:cx="228.47286"
     inkscape:cy="279.16966"
     inkscape:window-x="574"
     inkscape:window-y="158"
     inkscape:window-maximized="0"
     inkscape:current-layer="svg3751"
     showguides="false" />
  <g
     id="g3784">
    <g
       id="g3787">
      <path
         style="color:#000000;font-style:normal;font-variant:normal;font-weight:normal;font-stretch:normal;font-size:medium;line-height:normal;font-family:sans-serif;font-variant-ligatures:normal;font-variant-position:normal;font-variant-caps:normal;font-variant-numeric:normal;font-variant-alternates:normal;font-feature-settings:normal;text-indent:0;text-align:start;text-decoration:none;text-decoration-line:none;text-decoration-style:solid;text-decoration-color:#000000;letter-spacing:normal;word-spacing:normal;text-transform:none;writing-mode:lr-tb;direction:ltr;text-orientation:mixed;dominant-baseline:auto;baseline-shift:baseline;text-anchor:start;white-space:normal;shape-padding:0;clip-rule:nonzero;display:inline;overflow:visible;visibility:visible;opacity:1;isolation:auto;mix-blend-mode:normal;color-interpolation:sRGB;color-interpolation-filters:linearRGB;solid-color:#000000;solid-opacity:1;vector-effect:none;fill-opacity:1;fill-rule:nonzero;stroke:none;stroke-width:0.72488272;stroke-linecap:butt;stroke-linejoin:miter;stroke-miterlimit:4;stroke-dasharray:none;stroke-dashoffset:0;stroke-opacity:1;color-rendering:auto;image-rendering:auto;shape-rendering:auto;text-rendering:auto;enable-background:accumulate"
         d="m 285.94226,17.882127 c -12.92505,3.528996 -22.81633,11.920174 -29.09559,24.653419 -2.04819,4.153373 -4.37083,9.95829 -5.18031,13.004441 -3.40324,12.806899 -4.887,39.282802 -5.48898,96.869063 -0.16813,16.08203 -0.49481,31.3524 -0.87232,42.67708 -0.18875,5.66234 -0.38884,10.34052 -0.59053,13.63522 -0.10077,1.64733 -0.19697,2.94965 -0.29524,3.85168 -0.0489,0.45078 -0.10229,0.79735 -0.14757,1.03336 -0.0146,0.075 -0.0271,0.11191 -0.0411,0.16136 -0.098,0.005 -0.22097,0.0156 -0.38921,0.026 -0.39419,0.0208 -0.97459,0.0578 -1.71781,0.0937 -1.48645,0.0729 -3.62857,0.17803 -6.26736,0.29514 -5.27761,0.23476 -12.53312,0.54417 -20.50649,0.87236 -36.90269,1.51892 -87.38773,3.87396 -95.04382,4.44217 l -5.47556,0.4159 -0.45635,-15.11145 c -0.48159,-16.02274 -1.42049,-27.30396 -3.16679,-35.49708 -1.7463,-8.19316 -4.31227,-13.31551 -8.06571,-16.93664 -3.531876,-3.4074 -7.247951,-4.97576 -13.031281,-5.51581 -9.783642,-0.91364 -17.086815,2.45883 -21.62039,10.01164 -2.130234,3.54894 -3.364289,6.46084 -4.079828,11.93085 -0.715533,5.46995 -0.945176,13.52174 -1.113896,27.47168 -0.09427,7.79454 -0.236113,14.12108 -0.416113,18.57397 -0.09,2.22642 -0.190827,3.97921 -0.295245,5.20714 -0.05211,0.61397 -0.107854,1.09999 -0.161001,1.43599 -0.02655,0.16813 -0.04372,0.30295 -0.0671,0.38936 -0.02342,0.0864 -0.06163,0.13898 -0.01353,0.0807 -0.29129,0.35448 -1.242759,0.76497 -1.905703,0.76497 -1.33342,0 -2.956583,0.6059 -4.415336,1.44937 -1.458754,0.84352 -2.747538,1.92342 -3.328279,3.04647 -1.32087,2.5543 -1.875549,5.75479 -1.744661,8.69647 0.130914,2.94168 0.940871,5.63584 2.509623,7.15309 1.057991,1.02331 3.546929,2.26197 5.717129,2.9257 l 3.596686,1.10045 0.02655,27.91461 c 0.01405,13.56901 0.04216,20.65224 0.255009,24.94866 0.213262,4.29641 0.631722,5.84312 1.409152,8.17307 2.08057,6.2355 6.65053,11.51208 12.091845,13.91704 3.137463,1.3867 5.263329,1.72707 10.87059,1.7581 6.027776,0.0312 7.505378,-0.22123 10.682703,-1.85205 5.480776,-2.8127 9.311936,-8.04399 11.877116,-16.90979 2.56519,-8.86579 3.89347,-21.38921 4.3885,-38.94622 l 0.44287,-15.68857 2.93909,0.28161 c 2.91381,0.28733 18.04392,1.26427 36.67816,2.38888 18.63425,1.12461 40.74965,2.39923 57.52017,3.30142 8.8344,0.47524 16.89362,0.92951 22.76112,1.28836 2.93375,0.17959 5.31924,0.33835 6.97865,0.45651 0.82971,0.0588 1.477,0.10827 1.91913,0.14731 0.21514,0.0208 0.37182,0.0416 0.4831,0.0536 0.0151,0.0567 0.0229,0.10879 0.0411,0.20144 0.0463,0.24725 0.0971,0.61256 0.14757,1.07365 0.10108,0.92217 0.20332,2.2438 0.30862,3.90534 0.21066,3.32307 0.42923,8.01124 0.63079,13.63522 0.4031,11.24796 0.75489,26.24484 0.93943,41.6303 0.56007,46.69517 1.73379,64.45597 5.44872,82.26752 5.58787,26.7915 18.47611,42.83236 37.21499,46.71672 l -0.36234,0.1343 1.35547,0.24153 c 0.039,0.005 0.13425,-0.0208 0.17443,-0.0156 5.35726,0.92176 17.96184,0.355 23.28453,-1.08708 12.3727,-3.35154 20.49572,-11.50744 24.81447,-24.8547 2.34525,-7.24809 3.26873,-17.94413 3.73089,-42.865 0.31591,-17.03174 1.27552,-43.26758 2.32174,-66.27034 0.52309,-11.5014 1.07644,-22.19776 1.57019,-30.53157 0.49377,-8.33387 0.9334,-14.33664 1.24811,-16.34615 l 0.30863,-1.97282 18.34578,0.0536 c 20.37342,0.0625 26.52225,-0.70657 34.16854,-4.3214 2.31119,-1.0926 4.83824,-3.11585 6.93838,-5.34133 2.10014,-2.22554 3.76337,-4.64132 4.3214,-6.6297 2.23057,-7.94842 1.61512,-14.96674 -1.6373,-20.53336 -3.25241,-5.56677 -9.11637,-9.65768 -17.24529,-11.81019 -6.94448,-1.83888 -20.73238,-3.03303 -34.6651,-3.03303 h -10.02527 l -0.48315,-11.7966 c -0.26875,-6.6804 -0.80671,-18.33796 -1.19442,-25.91493 -2.46267,-48.13152 -3.65018,-76.668471 -3.9993,-96.036934 -0.10968,-6.082829 -0.2915,-12.180648 -0.49659,-17.111124 -0.20467,-4.930111 -0.42168,-8.670599 -0.63048,-10.118718 C 338.13495,34.00396 329.42028,22.929078 314.36675,18.201349 307.30126,15.982323 293.44987,15.829391 285.94218,17.87914 Z m 0.18791,0.697877 c 7.276,-1.986557 21.21083,-1.830449 28.02196,0.308675 14.82261,4.655219 23.28533,15.413566 25.79417,32.813064 0.19353,1.342711 0.4261,5.115108 0.63078,10.038504 0.20473,4.923448 0.38702,11.020591 0.49659,17.097694 0.34938,19.385278 1.54992,47.929559 4.01273,96.063799 0.38754,7.57311 0.91241,19.23942 1.181,25.91492 l 0.50997,12.48105 h 10.72297 c 13.89078,0 27.68821,1.2219 34.4772,3.01961 7.99313,2.11658 13.66322,6.08824 16.80245,11.46111 3.1392,5.37288 3.76135,12.17518 1.57019,19.98305 -0.49539,1.76528 -2.10986,4.14817 -4.16035,6.32108 -2.0505,2.17291 -4.52797,4.14864 -6.71024,5.18028 -7.54765,3.56819 -13.50502,4.31672 -33.85986,4.2543 l -18.96314,-0.0536 -0.40257,2.59016 c -0.3321,2.1206 -0.76747,8.07423 -1.26152,16.41325 -0.49404,8.33902 -1.04698,19.0412 -1.5702,30.545 -1.04645,23.00755 -2.00564,49.23849 -2.32176,66.28372 -0.46192,24.90681 -1.39284,35.56235 -3.69062,42.66371 -4.26377,13.17736 -12.15246,21.06279 -24.3179,24.35817 -5.12351,1.38784 -18.12639,2.00514 -23.15033,1.10045 -18.99345,-3.42015 -31.9572,-19.38954 -37.61759,-46.52875 -3.70151,-17.74722 -4.87531,-35.43473 -5.4353,-82.1199 -0.18458,-15.39093 -0.53595,-30.40139 -0.93944,-41.65716 -0.20175,-5.62794 -0.41928,-10.31355 -0.63078,-13.64865 -0.10577,-1.66752 -0.20535,-3.00284 -0.30862,-3.94563 -0.0515,-0.4716 -0.10838,-0.84748 -0.16111,-1.12732 -0.026,-0.14002 -0.0494,-0.24881 -0.0806,-0.34875 -0.0312,-0.10047 -0.038,-0.18583 -0.1611,-0.30868 -5.4e-4,-5.2e-4 -0.0796,-0.0526 -0.0806,-0.0536 -9.8e-4,-5.8e-4 -0.039,-0.026 -0.0406,-0.026 -0.003,-0.001 -0.0401,-0.0104 -0.0538,-0.0156 -0.0271,-0.005 -0.0442,-0.0104 -0.0673,-0.0156 -0.0442,-0.0104 -0.098,-0.0208 -0.1611,-0.026 -0.12607,-0.0156 -0.29827,-0.0312 -0.52342,-0.0536 -0.45026,-0.0416 -1.10064,-0.0885 -1.93255,-0.14731 -1.66381,-0.11816 -4.05699,-0.27693 -6.99207,-0.45651 -5.87016,-0.35917 -13.92526,-0.81302 -22.76112,-1.28837 -16.76794,-0.90203 -38.87392,-2.17686 -57.50675,-3.30142 -18.63283,-1.1245 -33.82476,-2.09654 -36.65133,-2.37539 l -3.71746,-0.37582 -0.46973,16.46691 c -0.49429,17.53015 -1.81527,30.01734 -4.34824,38.77174 -2.53253,8.75472 -6.24809,13.75771 -11.527759,16.46723 -3.128093,1.60532 -4.32517,1.80458 -10.33377,1.77147 -5.579995,-0.0312 -7.519116,-0.33418 -10.588753,-1.69094 -5.218512,-2.30658 -9.684356,-7.43913 -11.702514,-13.4876 -0.772281,-2.31455 -1.157423,-3.71249 -1.368884,-7.97179 -0.21144,-4.2593 -0.24085,-11.35336 -0.255008,-24.9218 l -0.02655,-28.45143 -4.106661,-1.24808 c -2.067719,-0.63239 -4.594004,-1.95095 -5.435293,-2.76464 -1.343315,-1.2992 -2.155776,-3.8447 -2.281479,-6.66999 -0.125657,-2.82524 0.419028,-5.92631 1.664139,-8.33408 0.460775,-0.89094 1.665629,-1.95277 3.046453,-2.75121 1.380809,-0.79845 2.944897,-1.34204 4.052974,-1.34204 0.913007,0 1.927773,-0.39092 2.455951,-1.03341 0.106345,-0.12909 0.12727,-0.22279 0.161053,-0.34876 0.03331,-0.12597 0.06496,-0.27276 0.0939,-0.4565 0.05773,-0.36646 0.10801,-0.86586 0.161052,-1.48966 0.106085,-1.24756 0.205038,-3.01497 0.295246,-5.24738 0.180468,-4.46486 0.335118,-10.80196 0.429438,-18.60083 0.168705,-13.94551 0.380925,-21.97955 1.087058,-27.37772 0.706142,-5.39823 1.88156,-8.14325 3.985877,-11.64898 4.407086,-7.34215 11.347396,-10.55815 20.935953,-9.66278 5.685017,0.53094 9.157239,2.0043 12.588407,5.31452 3.62706,3.49922 6.13542,8.44901 7.8644,16.56087 1.72897,8.11186 2.6723,19.35815 3.15381,35.36299 l 0.46973,15.87642 6.24053,-0.46952 c 3.31977,-0.24621 14.9078,-0.83904 29.98584,-1.55493 19.29928,-0.91634 44.31621,-2.03465 65.03113,-2.88728 7.97404,-0.32794 15.24109,-0.63734 20.51991,-0.87231 2.63941,-0.11764 4.77889,-0.22227 6.26736,-0.29514 0.74425,-0.0364 1.3198,-0.0713 1.71783,-0.0937 0.199,-0.0104 0.3624,-0.0208 0.46973,-0.026 0.0538,-0.004 0.0868,-0.0104 0.12081,-0.0156 0.0172,-0.002 0.0354,0.003 0.0538,0 0.01,-0.001 0.0375,-0.0104 0.0406,-0.0156 0.001,-2.6e-4 0.0401,2.1e-4 0.0411,0 6.5e-4,-2.6e-4 0.10712,-0.0666 0.10738,-0.0671 0.006,-0.005 0.0611,-0.0666 0.0805,-0.0937 0.0198,-0.026 0.0416,-0.0416 0.0538,-0.0671 0.025,-0.0468 0.0375,-0.0989 0.0538,-0.14731 0.0318,-0.0979 0.0543,-0.21342 0.0805,-0.34876 0.0521,-0.27119 0.0973,-0.62536 0.14757,-1.08707 0.10062,-0.92343 0.20748,-2.23845 0.30862,-3.89191 0.20239,-3.30699 0.40164,-7.98241 0.59052,-13.64866 0.3777,-11.33249 0.70416,-26.61691 0.87233,-42.70394 0.60183,-57.575951 2.10939,-84.064295 5.46214,-96.681148 0.77969,-2.93408 3.1016,-8.763826 5.12663,-12.870196 6.20175,-12.576096 15.90456,-20.800651 28.63929,-24.277646 z"
         id="path3761"
         inkscape:connector-curvature="0"
         sodipodi:nodetypes="csscccccccccccccsscssscccscsccssccccssccscccscccccccscssccccsscscccccscccscccsscsscccsccccscsccccccssssscscsscccccccccccccsccccscssscccssssscccccssssssccccsccccccccccccccccsssccc" />
    </g>
  </g>
</svg>
