G04 #@! TF.GenerationSoftware,KiCad,Pcbnew,7.0.7*
G04 #@! TF.CreationDate,2023-12-10T18:27:17-06:00*
G04 #@! TF.ProjectId,airplane-keychain,61697270-6c61-46e6-952d-6b6579636861,1*
G04 #@! TF.SameCoordinates,Original*
G04 #@! TF.FileFunction,Legend,Top*
G04 #@! TF.FilePolarity,Positive*
%FSLAX46Y46*%
G04 Gerber Fmt 4.6, Leading zero omitted, Abs format (unit mm)*
G04 Created by KiCad (PCBNEW 7.0.7) date 2023-12-10 18:27:17*
%MOMM*%
%LPD*%
G01*
G04 APERTURE LIST*
G04 Aperture macros list*
%AMRoundRect*
0 Rectangle with rounded corners*
0 $1 Rounding radius*
0 $2 $3 $4 $5 $6 $7 $8 $9 X,Y pos of 4 corners*
0 Add a 4 corners polygon primitive as box body*
4,1,4,$2,$3,$4,$5,$6,$7,$8,$9,$2,$3,0*
0 Add four circle primitives for the rounded corners*
1,1,$1+$1,$2,$3*
1,1,$1+$1,$4,$5*
1,1,$1+$1,$6,$7*
1,1,$1+$1,$8,$9*
0 Add four rect primitives between the rounded corners*
20,1,$1+$1,$2,$3,$4,$5,0*
20,1,$1+$1,$4,$5,$6,$7,0*
20,1,$1+$1,$6,$7,$8,$9,0*
20,1,$1+$1,$8,$9,$2,$3,0*%
G04 Aperture macros list end*
%ADD10C,0.300000*%
%ADD11C,0.150000*%
%ADD12C,0.120000*%
%ADD13R,1.800000X1.800000*%
%ADD14C,1.800000*%
%ADD15RoundRect,0.250001X0.624999X-0.462499X0.624999X0.462499X-0.624999X0.462499X-0.624999X-0.462499X0*%
%ADD16RoundRect,0.250001X0.462499X0.624999X-0.462499X0.624999X-0.462499X-0.624999X0.462499X-0.624999X0*%
%ADD17C,1.600000*%
%ADD18O,1.600000X1.600000*%
%ADD19C,2.000000*%
%ADD20R,1.600000X1.600000*%
%ADD21R,1.700000X1.700000*%
%ADD22O,1.700000X1.700000*%
G04 APERTURE END LIST*
D10*
X83990328Y-86692856D02*
X82490328Y-86692856D01*
X82490328Y-86692856D02*
X83990328Y-85835713D01*
X83990328Y-85835713D02*
X82490328Y-85835713D01*
X83133185Y-84907141D02*
X83061757Y-85049998D01*
X83061757Y-85049998D02*
X82990328Y-85121427D01*
X82990328Y-85121427D02*
X82847471Y-85192855D01*
X82847471Y-85192855D02*
X82776042Y-85192855D01*
X82776042Y-85192855D02*
X82633185Y-85121427D01*
X82633185Y-85121427D02*
X82561757Y-85049998D01*
X82561757Y-85049998D02*
X82490328Y-84907141D01*
X82490328Y-84907141D02*
X82490328Y-84621427D01*
X82490328Y-84621427D02*
X82561757Y-84478570D01*
X82561757Y-84478570D02*
X82633185Y-84407141D01*
X82633185Y-84407141D02*
X82776042Y-84335712D01*
X82776042Y-84335712D02*
X82847471Y-84335712D01*
X82847471Y-84335712D02*
X82990328Y-84407141D01*
X82990328Y-84407141D02*
X83061757Y-84478570D01*
X83061757Y-84478570D02*
X83133185Y-84621427D01*
X83133185Y-84621427D02*
X83133185Y-84907141D01*
X83133185Y-84907141D02*
X83204614Y-85049998D01*
X83204614Y-85049998D02*
X83276042Y-85121427D01*
X83276042Y-85121427D02*
X83418900Y-85192855D01*
X83418900Y-85192855D02*
X83704614Y-85192855D01*
X83704614Y-85192855D02*
X83847471Y-85121427D01*
X83847471Y-85121427D02*
X83918900Y-85049998D01*
X83918900Y-85049998D02*
X83990328Y-84907141D01*
X83990328Y-84907141D02*
X83990328Y-84621427D01*
X83990328Y-84621427D02*
X83918900Y-84478570D01*
X83918900Y-84478570D02*
X83847471Y-84407141D01*
X83847471Y-84407141D02*
X83704614Y-84335712D01*
X83704614Y-84335712D02*
X83418900Y-84335712D01*
X83418900Y-84335712D02*
X83276042Y-84407141D01*
X83276042Y-84407141D02*
X83204614Y-84478570D01*
X83204614Y-84478570D02*
X83133185Y-84621427D01*
X82490328Y-83407141D02*
X82490328Y-83264284D01*
X82490328Y-83264284D02*
X82561757Y-83121427D01*
X82561757Y-83121427D02*
X82633185Y-83049999D01*
X82633185Y-83049999D02*
X82776042Y-82978570D01*
X82776042Y-82978570D02*
X83061757Y-82907141D01*
X83061757Y-82907141D02*
X83418900Y-82907141D01*
X83418900Y-82907141D02*
X83704614Y-82978570D01*
X83704614Y-82978570D02*
X83847471Y-83049999D01*
X83847471Y-83049999D02*
X83918900Y-83121427D01*
X83918900Y-83121427D02*
X83990328Y-83264284D01*
X83990328Y-83264284D02*
X83990328Y-83407141D01*
X83990328Y-83407141D02*
X83918900Y-83549999D01*
X83918900Y-83549999D02*
X83847471Y-83621427D01*
X83847471Y-83621427D02*
X83704614Y-83692856D01*
X83704614Y-83692856D02*
X83418900Y-83764284D01*
X83418900Y-83764284D02*
X83061757Y-83764284D01*
X83061757Y-83764284D02*
X82776042Y-83692856D01*
X82776042Y-83692856D02*
X82633185Y-83621427D01*
X82633185Y-83621427D02*
X82561757Y-83549999D01*
X82561757Y-83549999D02*
X82490328Y-83407141D01*
X82990328Y-81621428D02*
X83990328Y-81621428D01*
X82418900Y-81978570D02*
X83490328Y-82335713D01*
X83490328Y-82335713D02*
X83490328Y-81407142D01*
X82490328Y-80121428D02*
X82490328Y-80835714D01*
X82490328Y-80835714D02*
X83204614Y-80907142D01*
X83204614Y-80907142D02*
X83133185Y-80835714D01*
X83133185Y-80835714D02*
X83061757Y-80692857D01*
X83061757Y-80692857D02*
X83061757Y-80335714D01*
X83061757Y-80335714D02*
X83133185Y-80192857D01*
X83133185Y-80192857D02*
X83204614Y-80121428D01*
X83204614Y-80121428D02*
X83347471Y-80049999D01*
X83347471Y-80049999D02*
X83704614Y-80049999D01*
X83704614Y-80049999D02*
X83847471Y-80121428D01*
X83847471Y-80121428D02*
X83918900Y-80192857D01*
X83918900Y-80192857D02*
X83990328Y-80335714D01*
X83990328Y-80335714D02*
X83990328Y-80692857D01*
X83990328Y-80692857D02*
X83918900Y-80835714D01*
X83918900Y-80835714D02*
X83847471Y-80907142D01*
X82490328Y-79550000D02*
X83990328Y-79192857D01*
X83990328Y-79192857D02*
X82918900Y-78907143D01*
X82918900Y-78907143D02*
X83990328Y-78621428D01*
X83990328Y-78621428D02*
X82490328Y-78264286D01*
X83990328Y-114632856D02*
X82490328Y-114632856D01*
X82490328Y-114632856D02*
X83990328Y-113775713D01*
X83990328Y-113775713D02*
X82490328Y-113775713D01*
X83133185Y-112847141D02*
X83061757Y-112989998D01*
X83061757Y-112989998D02*
X82990328Y-113061427D01*
X82990328Y-113061427D02*
X82847471Y-113132855D01*
X82847471Y-113132855D02*
X82776042Y-113132855D01*
X82776042Y-113132855D02*
X82633185Y-113061427D01*
X82633185Y-113061427D02*
X82561757Y-112989998D01*
X82561757Y-112989998D02*
X82490328Y-112847141D01*
X82490328Y-112847141D02*
X82490328Y-112561427D01*
X82490328Y-112561427D02*
X82561757Y-112418570D01*
X82561757Y-112418570D02*
X82633185Y-112347141D01*
X82633185Y-112347141D02*
X82776042Y-112275712D01*
X82776042Y-112275712D02*
X82847471Y-112275712D01*
X82847471Y-112275712D02*
X82990328Y-112347141D01*
X82990328Y-112347141D02*
X83061757Y-112418570D01*
X83061757Y-112418570D02*
X83133185Y-112561427D01*
X83133185Y-112561427D02*
X83133185Y-112847141D01*
X83133185Y-112847141D02*
X83204614Y-112989998D01*
X83204614Y-112989998D02*
X83276042Y-113061427D01*
X83276042Y-113061427D02*
X83418900Y-113132855D01*
X83418900Y-113132855D02*
X83704614Y-113132855D01*
X83704614Y-113132855D02*
X83847471Y-113061427D01*
X83847471Y-113061427D02*
X83918900Y-112989998D01*
X83918900Y-112989998D02*
X83990328Y-112847141D01*
X83990328Y-112847141D02*
X83990328Y-112561427D01*
X83990328Y-112561427D02*
X83918900Y-112418570D01*
X83918900Y-112418570D02*
X83847471Y-112347141D01*
X83847471Y-112347141D02*
X83704614Y-112275712D01*
X83704614Y-112275712D02*
X83418900Y-112275712D01*
X83418900Y-112275712D02*
X83276042Y-112347141D01*
X83276042Y-112347141D02*
X83204614Y-112418570D01*
X83204614Y-112418570D02*
X83133185Y-112561427D01*
X82490328Y-111347141D02*
X82490328Y-111204284D01*
X82490328Y-111204284D02*
X82561757Y-111061427D01*
X82561757Y-111061427D02*
X82633185Y-110989999D01*
X82633185Y-110989999D02*
X82776042Y-110918570D01*
X82776042Y-110918570D02*
X83061757Y-110847141D01*
X83061757Y-110847141D02*
X83418900Y-110847141D01*
X83418900Y-110847141D02*
X83704614Y-110918570D01*
X83704614Y-110918570D02*
X83847471Y-110989999D01*
X83847471Y-110989999D02*
X83918900Y-111061427D01*
X83918900Y-111061427D02*
X83990328Y-111204284D01*
X83990328Y-111204284D02*
X83990328Y-111347141D01*
X83990328Y-111347141D02*
X83918900Y-111489999D01*
X83918900Y-111489999D02*
X83847471Y-111561427D01*
X83847471Y-111561427D02*
X83704614Y-111632856D01*
X83704614Y-111632856D02*
X83418900Y-111704284D01*
X83418900Y-111704284D02*
X83061757Y-111704284D01*
X83061757Y-111704284D02*
X82776042Y-111632856D01*
X82776042Y-111632856D02*
X82633185Y-111561427D01*
X82633185Y-111561427D02*
X82561757Y-111489999D01*
X82561757Y-111489999D02*
X82490328Y-111347141D01*
X82990328Y-109561428D02*
X83990328Y-109561428D01*
X82418900Y-109918570D02*
X83490328Y-110275713D01*
X83490328Y-110275713D02*
X83490328Y-109347142D01*
X82490328Y-108061428D02*
X82490328Y-108775714D01*
X82490328Y-108775714D02*
X83204614Y-108847142D01*
X83204614Y-108847142D02*
X83133185Y-108775714D01*
X83133185Y-108775714D02*
X83061757Y-108632857D01*
X83061757Y-108632857D02*
X83061757Y-108275714D01*
X83061757Y-108275714D02*
X83133185Y-108132857D01*
X83133185Y-108132857D02*
X83204614Y-108061428D01*
X83204614Y-108061428D02*
X83347471Y-107989999D01*
X83347471Y-107989999D02*
X83704614Y-107989999D01*
X83704614Y-107989999D02*
X83847471Y-108061428D01*
X83847471Y-108061428D02*
X83918900Y-108132857D01*
X83918900Y-108132857D02*
X83990328Y-108275714D01*
X83990328Y-108275714D02*
X83990328Y-108632857D01*
X83990328Y-108632857D02*
X83918900Y-108775714D01*
X83918900Y-108775714D02*
X83847471Y-108847142D01*
X82490328Y-107490000D02*
X83990328Y-107132857D01*
X83990328Y-107132857D02*
X82918900Y-106847143D01*
X82918900Y-106847143D02*
X83990328Y-106561428D01*
X83990328Y-106561428D02*
X82490328Y-106204286D01*
D11*
X85344819Y-97004094D02*
X84344819Y-97004094D01*
X84344819Y-97004094D02*
X84344819Y-96765999D01*
X84344819Y-96765999D02*
X84392438Y-96623142D01*
X84392438Y-96623142D02*
X84487676Y-96527904D01*
X84487676Y-96527904D02*
X84582914Y-96480285D01*
X84582914Y-96480285D02*
X84773390Y-96432666D01*
X84773390Y-96432666D02*
X84916247Y-96432666D01*
X84916247Y-96432666D02*
X85106723Y-96480285D01*
X85106723Y-96480285D02*
X85201961Y-96527904D01*
X85201961Y-96527904D02*
X85297200Y-96623142D01*
X85297200Y-96623142D02*
X85344819Y-96765999D01*
X85344819Y-96765999D02*
X85344819Y-97004094D01*
X85344819Y-95480285D02*
X85344819Y-96051713D01*
X85344819Y-95765999D02*
X84344819Y-95765999D01*
X84344819Y-95765999D02*
X84487676Y-95861237D01*
X84487676Y-95861237D02*
X84582914Y-95956475D01*
X84582914Y-95956475D02*
X84630533Y-96051713D01*
X81438819Y-96750094D02*
X80438819Y-96750094D01*
X80438819Y-96750094D02*
X80438819Y-96511999D01*
X80438819Y-96511999D02*
X80486438Y-96369142D01*
X80486438Y-96369142D02*
X80581676Y-96273904D01*
X80581676Y-96273904D02*
X80676914Y-96226285D01*
X80676914Y-96226285D02*
X80867390Y-96178666D01*
X80867390Y-96178666D02*
X81010247Y-96178666D01*
X81010247Y-96178666D02*
X81200723Y-96226285D01*
X81200723Y-96226285D02*
X81295961Y-96273904D01*
X81295961Y-96273904D02*
X81391200Y-96369142D01*
X81391200Y-96369142D02*
X81438819Y-96511999D01*
X81438819Y-96511999D02*
X81438819Y-96750094D01*
X80534057Y-95797713D02*
X80486438Y-95750094D01*
X80486438Y-95750094D02*
X80438819Y-95654856D01*
X80438819Y-95654856D02*
X80438819Y-95416761D01*
X80438819Y-95416761D02*
X80486438Y-95321523D01*
X80486438Y-95321523D02*
X80534057Y-95273904D01*
X80534057Y-95273904D02*
X80629295Y-95226285D01*
X80629295Y-95226285D02*
X80724533Y-95226285D01*
X80724533Y-95226285D02*
X80867390Y-95273904D01*
X80867390Y-95273904D02*
X81438819Y-95845332D01*
X81438819Y-95845332D02*
X81438819Y-95226285D01*
X140739905Y-166358819D02*
X140739905Y-165358819D01*
X140739905Y-165358819D02*
X140978000Y-165358819D01*
X140978000Y-165358819D02*
X141120857Y-165406438D01*
X141120857Y-165406438D02*
X141216095Y-165501676D01*
X141216095Y-165501676D02*
X141263714Y-165596914D01*
X141263714Y-165596914D02*
X141311333Y-165787390D01*
X141311333Y-165787390D02*
X141311333Y-165930247D01*
X141311333Y-165930247D02*
X141263714Y-166120723D01*
X141263714Y-166120723D02*
X141216095Y-166215961D01*
X141216095Y-166215961D02*
X141120857Y-166311200D01*
X141120857Y-166311200D02*
X140978000Y-166358819D01*
X140978000Y-166358819D02*
X140739905Y-166358819D01*
X142216095Y-165358819D02*
X141739905Y-165358819D01*
X141739905Y-165358819D02*
X141692286Y-165835009D01*
X141692286Y-165835009D02*
X141739905Y-165787390D01*
X141739905Y-165787390D02*
X141835143Y-165739771D01*
X141835143Y-165739771D02*
X142073238Y-165739771D01*
X142073238Y-165739771D02*
X142168476Y-165787390D01*
X142168476Y-165787390D02*
X142216095Y-165835009D01*
X142216095Y-165835009D02*
X142263714Y-165930247D01*
X142263714Y-165930247D02*
X142263714Y-166168342D01*
X142263714Y-166168342D02*
X142216095Y-166263580D01*
X142216095Y-166263580D02*
X142168476Y-166311200D01*
X142168476Y-166311200D02*
X142073238Y-166358819D01*
X142073238Y-166358819D02*
X141835143Y-166358819D01*
X141835143Y-166358819D02*
X141739905Y-166311200D01*
X141739905Y-166311200D02*
X141692286Y-166263580D01*
X139977905Y-29452819D02*
X139977905Y-28452819D01*
X139977905Y-28452819D02*
X140216000Y-28452819D01*
X140216000Y-28452819D02*
X140358857Y-28500438D01*
X140358857Y-28500438D02*
X140454095Y-28595676D01*
X140454095Y-28595676D02*
X140501714Y-28690914D01*
X140501714Y-28690914D02*
X140549333Y-28881390D01*
X140549333Y-28881390D02*
X140549333Y-29024247D01*
X140549333Y-29024247D02*
X140501714Y-29214723D01*
X140501714Y-29214723D02*
X140454095Y-29309961D01*
X140454095Y-29309961D02*
X140358857Y-29405200D01*
X140358857Y-29405200D02*
X140216000Y-29452819D01*
X140216000Y-29452819D02*
X139977905Y-29452819D01*
X141406476Y-28452819D02*
X141216000Y-28452819D01*
X141216000Y-28452819D02*
X141120762Y-28500438D01*
X141120762Y-28500438D02*
X141073143Y-28548057D01*
X141073143Y-28548057D02*
X140977905Y-28690914D01*
X140977905Y-28690914D02*
X140930286Y-28881390D01*
X140930286Y-28881390D02*
X140930286Y-29262342D01*
X140930286Y-29262342D02*
X140977905Y-29357580D01*
X140977905Y-29357580D02*
X141025524Y-29405200D01*
X141025524Y-29405200D02*
X141120762Y-29452819D01*
X141120762Y-29452819D02*
X141311238Y-29452819D01*
X141311238Y-29452819D02*
X141406476Y-29405200D01*
X141406476Y-29405200D02*
X141454095Y-29357580D01*
X141454095Y-29357580D02*
X141501714Y-29262342D01*
X141501714Y-29262342D02*
X141501714Y-29024247D01*
X141501714Y-29024247D02*
X141454095Y-28929009D01*
X141454095Y-28929009D02*
X141406476Y-28881390D01*
X141406476Y-28881390D02*
X141311238Y-28833771D01*
X141311238Y-28833771D02*
X141120762Y-28833771D01*
X141120762Y-28833771D02*
X141025524Y-28881390D01*
X141025524Y-28881390D02*
X140977905Y-28929009D01*
X140977905Y-28929009D02*
X140930286Y-29024247D01*
X129034819Y-95916666D02*
X128558628Y-96249999D01*
X129034819Y-96488094D02*
X128034819Y-96488094D01*
X128034819Y-96488094D02*
X128034819Y-96107142D01*
X128034819Y-96107142D02*
X128082438Y-96011904D01*
X128082438Y-96011904D02*
X128130057Y-95964285D01*
X128130057Y-95964285D02*
X128225295Y-95916666D01*
X128225295Y-95916666D02*
X128368152Y-95916666D01*
X128368152Y-95916666D02*
X128463390Y-95964285D01*
X128463390Y-95964285D02*
X128511009Y-96011904D01*
X128511009Y-96011904D02*
X128558628Y-96107142D01*
X128558628Y-96107142D02*
X128558628Y-96488094D01*
X129034819Y-94964285D02*
X129034819Y-95535713D01*
X129034819Y-95249999D02*
X128034819Y-95249999D01*
X128034819Y-95249999D02*
X128177676Y-95345237D01*
X128177676Y-95345237D02*
X128272914Y-95440475D01*
X128272914Y-95440475D02*
X128320533Y-95535713D01*
X115483333Y-98874819D02*
X115150000Y-98398628D01*
X114911905Y-98874819D02*
X114911905Y-97874819D01*
X114911905Y-97874819D02*
X115292857Y-97874819D01*
X115292857Y-97874819D02*
X115388095Y-97922438D01*
X115388095Y-97922438D02*
X115435714Y-97970057D01*
X115435714Y-97970057D02*
X115483333Y-98065295D01*
X115483333Y-98065295D02*
X115483333Y-98208152D01*
X115483333Y-98208152D02*
X115435714Y-98303390D01*
X115435714Y-98303390D02*
X115388095Y-98351009D01*
X115388095Y-98351009D02*
X115292857Y-98398628D01*
X115292857Y-98398628D02*
X114911905Y-98398628D01*
X115864286Y-97970057D02*
X115911905Y-97922438D01*
X115911905Y-97922438D02*
X116007143Y-97874819D01*
X116007143Y-97874819D02*
X116245238Y-97874819D01*
X116245238Y-97874819D02*
X116340476Y-97922438D01*
X116340476Y-97922438D02*
X116388095Y-97970057D01*
X116388095Y-97970057D02*
X116435714Y-98065295D01*
X116435714Y-98065295D02*
X116435714Y-98160533D01*
X116435714Y-98160533D02*
X116388095Y-98303390D01*
X116388095Y-98303390D02*
X115816667Y-98874819D01*
X115816667Y-98874819D02*
X116435714Y-98874819D01*
X144083333Y-144834819D02*
X143750000Y-144358628D01*
X143511905Y-144834819D02*
X143511905Y-143834819D01*
X143511905Y-143834819D02*
X143892857Y-143834819D01*
X143892857Y-143834819D02*
X143988095Y-143882438D01*
X143988095Y-143882438D02*
X144035714Y-143930057D01*
X144035714Y-143930057D02*
X144083333Y-144025295D01*
X144083333Y-144025295D02*
X144083333Y-144168152D01*
X144083333Y-144168152D02*
X144035714Y-144263390D01*
X144035714Y-144263390D02*
X143988095Y-144311009D01*
X143988095Y-144311009D02*
X143892857Y-144358628D01*
X143892857Y-144358628D02*
X143511905Y-144358628D01*
X144416667Y-143834819D02*
X145035714Y-143834819D01*
X145035714Y-143834819D02*
X144702381Y-144215771D01*
X144702381Y-144215771D02*
X144845238Y-144215771D01*
X144845238Y-144215771D02*
X144940476Y-144263390D01*
X144940476Y-144263390D02*
X144988095Y-144311009D01*
X144988095Y-144311009D02*
X145035714Y-144406247D01*
X145035714Y-144406247D02*
X145035714Y-144644342D01*
X145035714Y-144644342D02*
X144988095Y-144739580D01*
X144988095Y-144739580D02*
X144940476Y-144787200D01*
X144940476Y-144787200D02*
X144845238Y-144834819D01*
X144845238Y-144834819D02*
X144559524Y-144834819D01*
X144559524Y-144834819D02*
X144464286Y-144787200D01*
X144464286Y-144787200D02*
X144416667Y-144739580D01*
X143851333Y-38882819D02*
X143518000Y-38406628D01*
X143279905Y-38882819D02*
X143279905Y-37882819D01*
X143279905Y-37882819D02*
X143660857Y-37882819D01*
X143660857Y-37882819D02*
X143756095Y-37930438D01*
X143756095Y-37930438D02*
X143803714Y-37978057D01*
X143803714Y-37978057D02*
X143851333Y-38073295D01*
X143851333Y-38073295D02*
X143851333Y-38216152D01*
X143851333Y-38216152D02*
X143803714Y-38311390D01*
X143803714Y-38311390D02*
X143756095Y-38359009D01*
X143756095Y-38359009D02*
X143660857Y-38406628D01*
X143660857Y-38406628D02*
X143279905Y-38406628D01*
X144708476Y-38216152D02*
X144708476Y-38882819D01*
X144470381Y-37835200D02*
X144232286Y-38549485D01*
X144232286Y-38549485D02*
X144851333Y-38549485D01*
X143883333Y-144474819D02*
X143550000Y-143998628D01*
X143311905Y-144474819D02*
X143311905Y-143474819D01*
X143311905Y-143474819D02*
X143692857Y-143474819D01*
X143692857Y-143474819D02*
X143788095Y-143522438D01*
X143788095Y-143522438D02*
X143835714Y-143570057D01*
X143835714Y-143570057D02*
X143883333Y-143665295D01*
X143883333Y-143665295D02*
X143883333Y-143808152D01*
X143883333Y-143808152D02*
X143835714Y-143903390D01*
X143835714Y-143903390D02*
X143788095Y-143951009D01*
X143788095Y-143951009D02*
X143692857Y-143998628D01*
X143692857Y-143998628D02*
X143311905Y-143998628D01*
X144788095Y-143474819D02*
X144311905Y-143474819D01*
X144311905Y-143474819D02*
X144264286Y-143951009D01*
X144264286Y-143951009D02*
X144311905Y-143903390D01*
X144311905Y-143903390D02*
X144407143Y-143855771D01*
X144407143Y-143855771D02*
X144645238Y-143855771D01*
X144645238Y-143855771D02*
X144740476Y-143903390D01*
X144740476Y-143903390D02*
X144788095Y-143951009D01*
X144788095Y-143951009D02*
X144835714Y-144046247D01*
X144835714Y-144046247D02*
X144835714Y-144284342D01*
X144835714Y-144284342D02*
X144788095Y-144379580D01*
X144788095Y-144379580D02*
X144740476Y-144427200D01*
X144740476Y-144427200D02*
X144645238Y-144474819D01*
X144645238Y-144474819D02*
X144407143Y-144474819D01*
X144407143Y-144474819D02*
X144311905Y-144427200D01*
X144311905Y-144427200D02*
X144264286Y-144379580D01*
X143851333Y-52196819D02*
X143518000Y-51720628D01*
X143279905Y-52196819D02*
X143279905Y-51196819D01*
X143279905Y-51196819D02*
X143660857Y-51196819D01*
X143660857Y-51196819D02*
X143756095Y-51244438D01*
X143756095Y-51244438D02*
X143803714Y-51292057D01*
X143803714Y-51292057D02*
X143851333Y-51387295D01*
X143851333Y-51387295D02*
X143851333Y-51530152D01*
X143851333Y-51530152D02*
X143803714Y-51625390D01*
X143803714Y-51625390D02*
X143756095Y-51673009D01*
X143756095Y-51673009D02*
X143660857Y-51720628D01*
X143660857Y-51720628D02*
X143279905Y-51720628D01*
X144708476Y-51196819D02*
X144518000Y-51196819D01*
X144518000Y-51196819D02*
X144422762Y-51244438D01*
X144422762Y-51244438D02*
X144375143Y-51292057D01*
X144375143Y-51292057D02*
X144279905Y-51434914D01*
X144279905Y-51434914D02*
X144232286Y-51625390D01*
X144232286Y-51625390D02*
X144232286Y-52006342D01*
X144232286Y-52006342D02*
X144279905Y-52101580D01*
X144279905Y-52101580D02*
X144327524Y-52149200D01*
X144327524Y-52149200D02*
X144422762Y-52196819D01*
X144422762Y-52196819D02*
X144613238Y-52196819D01*
X144613238Y-52196819D02*
X144708476Y-52149200D01*
X144708476Y-52149200D02*
X144756095Y-52101580D01*
X144756095Y-52101580D02*
X144803714Y-52006342D01*
X144803714Y-52006342D02*
X144803714Y-51768247D01*
X144803714Y-51768247D02*
X144756095Y-51673009D01*
X144756095Y-51673009D02*
X144708476Y-51625390D01*
X144708476Y-51625390D02*
X144613238Y-51577771D01*
X144613238Y-51577771D02*
X144422762Y-51577771D01*
X144422762Y-51577771D02*
X144327524Y-51625390D01*
X144327524Y-51625390D02*
X144279905Y-51673009D01*
X144279905Y-51673009D02*
X144232286Y-51768247D01*
X161516667Y-91207200D02*
X161659524Y-91254819D01*
X161659524Y-91254819D02*
X161897619Y-91254819D01*
X161897619Y-91254819D02*
X161992857Y-91207200D01*
X161992857Y-91207200D02*
X162040476Y-91159580D01*
X162040476Y-91159580D02*
X162088095Y-91064342D01*
X162088095Y-91064342D02*
X162088095Y-90969104D01*
X162088095Y-90969104D02*
X162040476Y-90873866D01*
X162040476Y-90873866D02*
X161992857Y-90826247D01*
X161992857Y-90826247D02*
X161897619Y-90778628D01*
X161897619Y-90778628D02*
X161707143Y-90731009D01*
X161707143Y-90731009D02*
X161611905Y-90683390D01*
X161611905Y-90683390D02*
X161564286Y-90635771D01*
X161564286Y-90635771D02*
X161516667Y-90540533D01*
X161516667Y-90540533D02*
X161516667Y-90445295D01*
X161516667Y-90445295D02*
X161564286Y-90350057D01*
X161564286Y-90350057D02*
X161611905Y-90302438D01*
X161611905Y-90302438D02*
X161707143Y-90254819D01*
X161707143Y-90254819D02*
X161945238Y-90254819D01*
X161945238Y-90254819D02*
X162088095Y-90302438D01*
X162421429Y-90254819D02*
X162659524Y-91254819D01*
X162659524Y-91254819D02*
X162850000Y-90540533D01*
X162850000Y-90540533D02*
X163040476Y-91254819D01*
X163040476Y-91254819D02*
X163278572Y-90254819D01*
X164183333Y-91254819D02*
X163611905Y-91254819D01*
X163897619Y-91254819D02*
X163897619Y-90254819D01*
X163897619Y-90254819D02*
X163802381Y-90397676D01*
X163802381Y-90397676D02*
X163707143Y-90492914D01*
X163707143Y-90492914D02*
X163611905Y-90540533D01*
X135597200Y-97023332D02*
X135644819Y-96880475D01*
X135644819Y-96880475D02*
X135644819Y-96642380D01*
X135644819Y-96642380D02*
X135597200Y-96547142D01*
X135597200Y-96547142D02*
X135549580Y-96499523D01*
X135549580Y-96499523D02*
X135454342Y-96451904D01*
X135454342Y-96451904D02*
X135359104Y-96451904D01*
X135359104Y-96451904D02*
X135263866Y-96499523D01*
X135263866Y-96499523D02*
X135216247Y-96547142D01*
X135216247Y-96547142D02*
X135168628Y-96642380D01*
X135168628Y-96642380D02*
X135121009Y-96832856D01*
X135121009Y-96832856D02*
X135073390Y-96928094D01*
X135073390Y-96928094D02*
X135025771Y-96975713D01*
X135025771Y-96975713D02*
X134930533Y-97023332D01*
X134930533Y-97023332D02*
X134835295Y-97023332D01*
X134835295Y-97023332D02*
X134740057Y-96975713D01*
X134740057Y-96975713D02*
X134692438Y-96928094D01*
X134692438Y-96928094D02*
X134644819Y-96832856D01*
X134644819Y-96832856D02*
X134644819Y-96594761D01*
X134644819Y-96594761D02*
X134692438Y-96451904D01*
X134644819Y-96118570D02*
X135644819Y-95880475D01*
X135644819Y-95880475D02*
X134930533Y-95689999D01*
X134930533Y-95689999D02*
X135644819Y-95499523D01*
X135644819Y-95499523D02*
X134644819Y-95261428D01*
X134740057Y-94928094D02*
X134692438Y-94880475D01*
X134692438Y-94880475D02*
X134644819Y-94785237D01*
X134644819Y-94785237D02*
X134644819Y-94547142D01*
X134644819Y-94547142D02*
X134692438Y-94451904D01*
X134692438Y-94451904D02*
X134740057Y-94404285D01*
X134740057Y-94404285D02*
X134835295Y-94356666D01*
X134835295Y-94356666D02*
X134930533Y-94356666D01*
X134930533Y-94356666D02*
X135073390Y-94404285D01*
X135073390Y-94404285D02*
X135644819Y-94975713D01*
X135644819Y-94975713D02*
X135644819Y-94356666D01*
X148867905Y-160800819D02*
X148867905Y-159800819D01*
X148867905Y-159800819D02*
X149106000Y-159800819D01*
X149106000Y-159800819D02*
X149248857Y-159848438D01*
X149248857Y-159848438D02*
X149344095Y-159943676D01*
X149344095Y-159943676D02*
X149391714Y-160038914D01*
X149391714Y-160038914D02*
X149439333Y-160229390D01*
X149439333Y-160229390D02*
X149439333Y-160372247D01*
X149439333Y-160372247D02*
X149391714Y-160562723D01*
X149391714Y-160562723D02*
X149344095Y-160657961D01*
X149344095Y-160657961D02*
X149248857Y-160753200D01*
X149248857Y-160753200D02*
X149106000Y-160800819D01*
X149106000Y-160800819D02*
X148867905Y-160800819D01*
X149772667Y-159800819D02*
X150391714Y-159800819D01*
X150391714Y-159800819D02*
X150058381Y-160181771D01*
X150058381Y-160181771D02*
X150201238Y-160181771D01*
X150201238Y-160181771D02*
X150296476Y-160229390D01*
X150296476Y-160229390D02*
X150344095Y-160277009D01*
X150344095Y-160277009D02*
X150391714Y-160372247D01*
X150391714Y-160372247D02*
X150391714Y-160610342D01*
X150391714Y-160610342D02*
X150344095Y-160705580D01*
X150344095Y-160705580D02*
X150296476Y-160753200D01*
X150296476Y-160753200D02*
X150201238Y-160800819D01*
X150201238Y-160800819D02*
X149915524Y-160800819D01*
X149915524Y-160800819D02*
X149820286Y-160753200D01*
X149820286Y-160753200D02*
X149772667Y-160705580D01*
X147851905Y-31116819D02*
X147851905Y-30116819D01*
X147851905Y-30116819D02*
X148090000Y-30116819D01*
X148090000Y-30116819D02*
X148232857Y-30164438D01*
X148232857Y-30164438D02*
X148328095Y-30259676D01*
X148328095Y-30259676D02*
X148375714Y-30354914D01*
X148375714Y-30354914D02*
X148423333Y-30545390D01*
X148423333Y-30545390D02*
X148423333Y-30688247D01*
X148423333Y-30688247D02*
X148375714Y-30878723D01*
X148375714Y-30878723D02*
X148328095Y-30973961D01*
X148328095Y-30973961D02*
X148232857Y-31069200D01*
X148232857Y-31069200D02*
X148090000Y-31116819D01*
X148090000Y-31116819D02*
X147851905Y-31116819D01*
X149280476Y-30450152D02*
X149280476Y-31116819D01*
X149042381Y-30069200D02*
X148804286Y-30783485D01*
X148804286Y-30783485D02*
X149423333Y-30783485D01*
X169436819Y-95988094D02*
X168436819Y-95988094D01*
X168436819Y-95988094D02*
X168436819Y-95749999D01*
X168436819Y-95749999D02*
X168484438Y-95607142D01*
X168484438Y-95607142D02*
X168579676Y-95511904D01*
X168579676Y-95511904D02*
X168674914Y-95464285D01*
X168674914Y-95464285D02*
X168865390Y-95416666D01*
X168865390Y-95416666D02*
X169008247Y-95416666D01*
X169008247Y-95416666D02*
X169198723Y-95464285D01*
X169198723Y-95464285D02*
X169293961Y-95511904D01*
X169293961Y-95511904D02*
X169389200Y-95607142D01*
X169389200Y-95607142D02*
X169436819Y-95749999D01*
X169436819Y-95749999D02*
X169436819Y-95988094D01*
X168436819Y-95083332D02*
X168436819Y-94416666D01*
X168436819Y-94416666D02*
X169436819Y-94845237D01*
X103184819Y-96233333D02*
X103899104Y-96233333D01*
X103899104Y-96233333D02*
X104041961Y-96280952D01*
X104041961Y-96280952D02*
X104137200Y-96376190D01*
X104137200Y-96376190D02*
X104184819Y-96519047D01*
X104184819Y-96519047D02*
X104184819Y-96614285D01*
X104184819Y-95233333D02*
X104184819Y-95804761D01*
X104184819Y-95519047D02*
X103184819Y-95519047D01*
X103184819Y-95519047D02*
X103327676Y-95614285D01*
X103327676Y-95614285D02*
X103422914Y-95709523D01*
X103422914Y-95709523D02*
X103470533Y-95804761D01*
X154484819Y-95751904D02*
X155294342Y-95751904D01*
X155294342Y-95751904D02*
X155389580Y-95704285D01*
X155389580Y-95704285D02*
X155437200Y-95656666D01*
X155437200Y-95656666D02*
X155484819Y-95561428D01*
X155484819Y-95561428D02*
X155484819Y-95370952D01*
X155484819Y-95370952D02*
X155437200Y-95275714D01*
X155437200Y-95275714D02*
X155389580Y-95228095D01*
X155389580Y-95228095D02*
X155294342Y-95180476D01*
X155294342Y-95180476D02*
X154484819Y-95180476D01*
X155484819Y-94180476D02*
X155484819Y-94751904D01*
X155484819Y-94466190D02*
X154484819Y-94466190D01*
X154484819Y-94466190D02*
X154627676Y-94561428D01*
X154627676Y-94561428D02*
X154722914Y-94656666D01*
X154722914Y-94656666D02*
X154770533Y-94751904D01*
D12*
X87260000Y-98826000D02*
X90540000Y-98826000D01*
X88901958Y-93226002D02*
G75*
G03*
X87260489Y-98825999I-1958J-3039998D01*
G01*
X90539511Y-98825999D02*
G75*
G03*
X88898042Y-93226002I-1639511J2559999D01*
G01*
X91400000Y-96266000D02*
G75*
G03*
X91400000Y-96266000I-2500000J0D01*
G01*
X81669000Y-98472000D02*
X83939000Y-98472000D01*
X83939000Y-98472000D02*
X83939000Y-94412000D01*
X81669000Y-94412000D02*
X81669000Y-98472000D01*
X143938000Y-165219000D02*
X143938000Y-162949000D01*
X143938000Y-162949000D02*
X139878000Y-162949000D01*
X139878000Y-165219000D02*
X143938000Y-165219000D01*
X143176000Y-28313000D02*
X143176000Y-26043000D01*
X143176000Y-26043000D02*
X139116000Y-26043000D01*
X139116000Y-28313000D02*
X143176000Y-28313000D01*
X131300000Y-101060000D02*
X131300000Y-100370000D01*
X129580000Y-100370000D02*
X133020000Y-100370000D01*
X133020000Y-100370000D02*
X133020000Y-91130000D01*
X129580000Y-91130000D02*
X129580000Y-100370000D01*
X133020000Y-91130000D02*
X129580000Y-91130000D01*
X131300000Y-90440000D02*
X131300000Y-91130000D01*
X120960000Y-95700000D02*
X120270000Y-95700000D01*
X120270000Y-97420000D02*
X120270000Y-93980000D01*
X120270000Y-93980000D02*
X111030000Y-93980000D01*
X111030000Y-97420000D02*
X120270000Y-97420000D01*
X111030000Y-93980000D02*
X111030000Y-97420000D01*
X110340000Y-95700000D02*
X111030000Y-95700000D01*
X138940000Y-147100000D02*
X139630000Y-147100000D01*
X139630000Y-145380000D02*
X139630000Y-148820000D01*
X139630000Y-148820000D02*
X148870000Y-148820000D01*
X148870000Y-145380000D02*
X139630000Y-145380000D01*
X148870000Y-148820000D02*
X148870000Y-145380000D01*
X149560000Y-147100000D02*
X148870000Y-147100000D01*
X138708000Y-41148000D02*
X139398000Y-41148000D01*
X139398000Y-39428000D02*
X139398000Y-42868000D01*
X139398000Y-42868000D02*
X148638000Y-42868000D01*
X148638000Y-39428000D02*
X139398000Y-39428000D01*
X148638000Y-42868000D02*
X148638000Y-39428000D01*
X149328000Y-41148000D02*
X148638000Y-41148000D01*
X149360000Y-141300000D02*
X148670000Y-141300000D01*
X148670000Y-143020000D02*
X148670000Y-139580000D01*
X148670000Y-139580000D02*
X139430000Y-139580000D01*
X139430000Y-143020000D02*
X148670000Y-143020000D01*
X139430000Y-139580000D02*
X139430000Y-143020000D01*
X138740000Y-141300000D02*
X139430000Y-141300000D01*
X149328000Y-49022000D02*
X148638000Y-49022000D01*
X148638000Y-50742000D02*
X148638000Y-47302000D01*
X148638000Y-47302000D02*
X139398000Y-47302000D01*
X139398000Y-50742000D02*
X148638000Y-50742000D01*
X139398000Y-47302000D02*
X139398000Y-50742000D01*
X138708000Y-49022000D02*
X139398000Y-49022000D01*
X159350000Y-94300000D02*
X159350000Y-95800000D01*
X160600000Y-98300000D02*
X165100000Y-98300000D01*
X165100000Y-91800000D02*
X160600000Y-91800000D01*
X166350000Y-95800000D02*
X166350000Y-94300000D01*
X135950000Y-99340000D02*
X137260000Y-99340000D01*
X135950000Y-99340000D02*
X135950000Y-97957000D01*
X136190000Y-99100000D02*
X137260000Y-99100000D01*
X136190000Y-99100000D02*
X136190000Y-92279000D01*
X139340000Y-99100000D02*
X140410000Y-99100000D01*
X140410000Y-99100000D02*
X140410000Y-92279000D01*
X137665000Y-97500000D02*
X138935000Y-97500000D01*
X137785000Y-97500000D02*
X137785000Y-96293333D01*
X137905000Y-97500000D02*
X137905000Y-96293333D01*
X138025000Y-97500000D02*
X138025000Y-96293333D01*
X138145000Y-97500000D02*
X138145000Y-96293333D01*
X138265000Y-97500000D02*
X138265000Y-96293333D01*
X138385000Y-97500000D02*
X138385000Y-96293333D01*
X138505000Y-97500000D02*
X138505000Y-96293333D01*
X138625000Y-97500000D02*
X138625000Y-96293333D01*
X138745000Y-97500000D02*
X138745000Y-96293333D01*
X138865000Y-97500000D02*
X138865000Y-96293333D01*
X138935000Y-97500000D02*
X138935000Y-93880000D01*
X137665000Y-96293333D02*
X138935000Y-96293333D01*
X137665000Y-93880000D02*
X137665000Y-97500000D01*
X138935000Y-93880000D02*
X137665000Y-93880000D01*
X136190000Y-92279000D02*
X137310000Y-92279000D01*
X139290000Y-92279000D02*
X140410000Y-92279000D01*
X148046000Y-163516000D02*
X148046000Y-167376000D01*
X148046000Y-163516000D02*
X151166000Y-163516000D01*
X148336000Y-163386000D02*
X148336000Y-163386000D01*
X148336000Y-163386000D02*
X148336000Y-163516000D01*
X148336000Y-163516000D02*
X148336000Y-163386000D01*
X148336000Y-163516000D02*
X148336000Y-163516000D01*
X150876000Y-163386000D02*
X150876000Y-163386000D01*
X150876000Y-163386000D02*
X150876000Y-163516000D01*
X150876000Y-163516000D02*
X150876000Y-163386000D01*
X150876000Y-163516000D02*
X150876000Y-163516000D01*
X151166000Y-163516000D02*
X151166000Y-167376000D01*
X151166000Y-163516000D02*
X151566000Y-163516000D01*
X151166000Y-164636000D02*
X151166000Y-163516000D01*
X151566000Y-163516000D02*
X151566000Y-164636000D01*
X151566000Y-164636000D02*
X151166000Y-164636000D01*
X148046000Y-167376000D02*
G75*
G03*
X151166000Y-167376000I1560000J0D01*
G01*
X150150000Y-27492000D02*
X150150000Y-23632000D01*
X150150000Y-27492000D02*
X147030000Y-27492000D01*
X149860000Y-27622000D02*
X149860000Y-27622000D01*
X149860000Y-27622000D02*
X149860000Y-27492000D01*
X149860000Y-27492000D02*
X149860000Y-27622000D01*
X149860000Y-27492000D02*
X149860000Y-27492000D01*
X147320000Y-27622000D02*
X147320000Y-27622000D01*
X147320000Y-27622000D02*
X147320000Y-27492000D01*
X147320000Y-27492000D02*
X147320000Y-27622000D01*
X147320000Y-27492000D02*
X147320000Y-27492000D01*
X147030000Y-27492000D02*
X147030000Y-23632000D01*
X147030000Y-27492000D02*
X146630000Y-27492000D01*
X147030000Y-26372000D02*
X147030000Y-27492000D01*
X146630000Y-27492000D02*
X146630000Y-26372000D01*
X146630000Y-26372000D02*
X147030000Y-26372000D01*
X150150000Y-23632000D02*
G75*
G03*
X147030000Y-23632000I-1560000J0D01*
G01*
X172152000Y-97810000D02*
X178312000Y-97810000D01*
X172152000Y-97810000D02*
X172152000Y-92690000D01*
X172022000Y-96520000D02*
X172022000Y-96520000D01*
X172022000Y-96520000D02*
X172152000Y-96520000D01*
X172152000Y-96520000D02*
X172022000Y-96520000D01*
X172152000Y-96520000D02*
X172152000Y-96520000D01*
X172022000Y-93980000D02*
X172022000Y-93980000D01*
X172022000Y-93980000D02*
X172152000Y-93980000D01*
X172152000Y-93980000D02*
X172022000Y-93980000D01*
X172152000Y-93980000D02*
X172152000Y-93980000D01*
X172152000Y-92690000D02*
X178312000Y-92690000D01*
X172152000Y-92690000D02*
X172152000Y-92290000D01*
X173272000Y-92690000D02*
X172152000Y-92690000D01*
X172152000Y-92290000D02*
X173272000Y-92290000D01*
X173272000Y-92290000D02*
X173272000Y-92690000D01*
X178312000Y-97810000D02*
G75*
G03*
X178312000Y-92690000I0J2560000D01*
G01*
X102730000Y-94570000D02*
X102730000Y-95900000D01*
X101400000Y-94570000D02*
X102730000Y-94570000D01*
X100130000Y-94570000D02*
X94990000Y-94570000D01*
X100130000Y-94570000D02*
X100130000Y-97230000D01*
X94990000Y-94570000D02*
X94990000Y-97230000D01*
X100130000Y-97230000D02*
X94990000Y-97230000D01*
X154030000Y-92340000D02*
X143750000Y-92340000D01*
X143750000Y-92340000D02*
X143750000Y-97640000D01*
X154030000Y-93990000D02*
X154030000Y-92340000D01*
X154030000Y-97640000D02*
X154030000Y-95990000D01*
X143750000Y-97640000D02*
X154030000Y-97640000D01*
X154030000Y-93990000D02*
G75*
G03*
X154030000Y-95990000I0J-1000000D01*
G01*
%LPC*%
D13*
X88900000Y-97536000D03*
D14*
X88900000Y-94996000D03*
D15*
X82804000Y-97499500D03*
X82804000Y-94524500D03*
D16*
X142965500Y-164084000D03*
X139990500Y-164084000D03*
X142203500Y-27178000D03*
X139228500Y-27178000D03*
D17*
X131300000Y-102100000D03*
D18*
X131300000Y-89400000D03*
D17*
X122000000Y-95700000D03*
D18*
X109300000Y-95700000D03*
D17*
X137900000Y-147100000D03*
D18*
X150600000Y-147100000D03*
D17*
X137668000Y-41148000D03*
D18*
X150368000Y-41148000D03*
D17*
X150400000Y-141300000D03*
D18*
X137700000Y-141300000D03*
D17*
X150368000Y-49022000D03*
D18*
X137668000Y-49022000D03*
D19*
X159600000Y-92800000D03*
X166100000Y-92800000D03*
X159600000Y-97300000D03*
X166100000Y-97300000D03*
D20*
X138300000Y-99500000D03*
D18*
X138300000Y-91880000D03*
D13*
X148336000Y-162306000D03*
D14*
X150876000Y-162306000D03*
D13*
X149860000Y-28702000D03*
D14*
X147320000Y-28702000D03*
D13*
X170942000Y-96520000D03*
D14*
X170942000Y-93980000D03*
D21*
X101400000Y-95900000D03*
D22*
X98860000Y-95900000D03*
X96320000Y-95900000D03*
D20*
X152700000Y-91180000D03*
D18*
X150160000Y-91180000D03*
X147620000Y-91180000D03*
X145080000Y-91180000D03*
X145080000Y-98800000D03*
X147620000Y-98800000D03*
X150160000Y-98800000D03*
X152700000Y-98800000D03*
%LPD*%
M02*
