%TF.GenerationSoftware,KiCad,Pcbnew,10.0.1*%
%TF.CreationDate,2026-04-23T14:45:30-05:00*%
%TF.ProjectId,airplane-keychain,61697270-6c61-46e6-952d-6b6579636861,1.5*%
%TF.SameCoordinates,Original*%
%TF.FileFunction,Copper,L2,Bot*%
%TF.FilePolarity,Positive*%
%FSLAX46Y46*%
G04 Gerber Fmt 4.6, Leading zero omitted, Abs format (unit mm)*
G04 Created by KiCad (PCBNEW 10.0.1) date 2026-04-23 14:45:30*
%MOMM*%
%LPD*%
G01*
G04 APERTURE LIST*
G04 Aperture macros list*
%AMRoundRect*
0 Rectangle with rounded corners*
0 $1 Rounding radius*
0 $2 $3 $4 $5 $6 $7 $8 $9 X,Y pos of 4 corners*
0 Add a 4 corners polygon primitive as box body*
4,1,4,$2,$3,$4,$5,$6,$7,$8,$9,$2,$3,0*
0 Add four circle primitives for the rounded corners*
1,1,$1+$1,$2,$3*
1,1,$1+$1,$4,$5*
1,1,$1+$1,$6,$7*
1,1,$1+$1,$8,$9*
0 Add four rect primitives between the rounded corners*
20,1,$1+$1,$2,$3,$4,$5,0*
20,1,$1+$1,$4,$5,$6,$7,0*
20,1,$1+$1,$6,$7,$8,$9,0*
20,1,$1+$1,$8,$9,$2,$3,0*%
G04 Aperture macros list end*
%TA.AperFunction,ComponentPad*%
%ADD10RoundRect,0.250000X0.550000X0.550000X-0.550000X0.550000X-0.550000X-0.550000X0.550000X-0.550000X0*%
%TD*%
%TA.AperFunction,ComponentPad*%
%ADD11C,1.600000*%
%TD*%
%TA.AperFunction,SMDPad,CuDef*%
%ADD12R,2.540000X3.510000*%
%TD*%
%TA.AperFunction,ViaPad*%
%ADD13C,0.600000*%
%TD*%
%TA.AperFunction,Conductor*%
%ADD14C,0.250000*%
%TD*%
G04 APERTURE END LIST*
D10*
%TO.P,SW2,1,1*%
%TO.N,Net-(U1-VCC)*%
X154520000Y-65700000D03*
D11*
%TO.P,SW2,2,2*%
%TO.N,Net-(BT1-+)*%
X146900000Y-65700000D03*
%TD*%
D10*
%TO.P,U1,1,~{RESET}/PB5*%
%TO.N,Net-(U1-~{RESET}{slash}PB5)*%
X139500000Y-71500000D03*
D11*
%TO.P,U1,2,XTAL1/PB3*%
%TO.N,Net-(U1-XTAL1{slash}PB3)*%
X139500000Y-68960000D03*
%TO.P,U1,3,XTAL2/PB4*%
%TO.N,Net-(U1-XTAL2{slash}PB4)*%
X139500000Y-66420000D03*
%TO.P,U1,4,GND*%
%TO.N,GND*%
X139500000Y-63880000D03*
%TO.P,U1,5,AREF/PB0*%
%TO.N,Net-(U1-AREF{slash}PB0)*%
X131880000Y-63880000D03*
%TO.P,U1,6,PB1*%
%TO.N,Net-(U1-PB1)*%
X131880000Y-66420000D03*
%TO.P,U1,7,PB2*%
%TO.N,Net-(U1-PB2)*%
X131880000Y-68960000D03*
%TO.P,U1,8,VCC*%
%TO.N,Net-(U1-VCC)*%
X131880000Y-71500000D03*
%TD*%
D12*
%TO.P,BT1,1,+*%
%TO.N,Net-(BT1-+)*%
X136140000Y-80400000D03*
%TO.P,BT1,2,-*%
%TO.N,GND*%
X165500000Y-80400000D03*
%TD*%
D13*
%TO.N,GND*%
X146700000Y-86600000D03*
X167900000Y-77700000D03*
X146800000Y-98700000D03*
X165100000Y-86400000D03*
%TO.N,Net-(BT1-+)*%
X143900000Y-65700000D03*
%TO.N,Net-(D3-A)*%
X148800000Y-77500000D03*
X144200000Y-88900000D03*
%TD*%
%TO.N,Net-(BT1-+)*%
D14*
X143900000Y-72640000D02*
X136140000Y-80400000D01*
X143900000Y-65700000D02*
X143900000Y-72640000D01*
%TO.N,Net-(D3-A)*%
X148800000Y-85385298D02*
X148800000Y-77500000D01*
X144200000Y-88900000D02*
X145285298Y-88900000D01*
X145285298Y-88900000D02*
X148800000Y-85385298D01*
%TD*%
%TA.AperFunction,Conductor*%
%TO.N,GND*%
G36*
X150436616Y-51955182D02*
G01*
X151500661Y-51993185D01*
X151505074Y-51993421D01*
X152567115Y-52069380D01*
X152571421Y-52069765D01*
X153630131Y-52183589D01*
X153634487Y-52184136D01*
X154688385Y-52335664D01*
X154692737Y-52336369D01*
X155740568Y-52525418D01*
X155744879Y-52526276D01*
X156785283Y-52752602D01*
X156789566Y-52753614D01*
X157821244Y-53016935D01*
X157825461Y-53018092D01*
X158783851Y-53299500D01*
X158847088Y-53318068D01*
X158851314Y-53319391D01*
X159861549Y-53655630D01*
X159865651Y-53657076D01*
X160863341Y-54029196D01*
X160867383Y-54030786D01*
X161851116Y-54438261D01*
X161855119Y-54440003D01*
X162823633Y-54882310D01*
X162827626Y-54884220D01*
X163779741Y-55360815D01*
X163783663Y-55362867D01*
X164718137Y-55873127D01*
X164721950Y-55875298D01*
X165105247Y-56102719D01*
X165637677Y-56418625D01*
X165641442Y-56420952D01*
X166537102Y-56996558D01*
X166540783Y-56999017D01*
X166673680Y-57091289D01*
X167415398Y-57606272D01*
X167418950Y-57608834D01*
X168075739Y-58100500D01*
X168271301Y-58246896D01*
X168274797Y-58249611D01*
X169103843Y-58917699D01*
X169107240Y-58920538D01*
X169911899Y-59617779D01*
X169915192Y-59620737D01*
X170694462Y-60346263D01*
X170697647Y-60349337D01*
X171450495Y-61102185D01*
X171453569Y-61105370D01*
X172179095Y-61884640D01*
X172182053Y-61887933D01*
X172879294Y-62692592D01*
X172882133Y-62695989D01*
X173550221Y-63525035D01*
X173552936Y-63528531D01*
X174189612Y-64379031D01*
X174190984Y-64380863D01*
X174193567Y-64384445D01*
X174244557Y-64457884D01*
X174800815Y-65259049D01*
X174803274Y-65262730D01*
X175378880Y-66158390D01*
X175381207Y-66162155D01*
X175924524Y-67077865D01*
X175926714Y-67081712D01*
X176436965Y-68016169D01*
X176439017Y-68020091D01*
X176915612Y-68972206D01*
X176917522Y-68976199D01*
X177359816Y-69944685D01*
X177361582Y-69948743D01*
X177755382Y-70899462D01*
X177769030Y-70932410D01*
X177770647Y-70936520D01*
X178130382Y-71901004D01*
X178142743Y-71934145D01*
X178144215Y-71938320D01*
X178480441Y-72948520D01*
X178481764Y-72952744D01*
X178781733Y-73974345D01*
X178782904Y-73978614D01*
X179046215Y-75010254D01*
X179047233Y-75014562D01*
X179273552Y-76054933D01*
X179274416Y-76059275D01*
X179463462Y-77107092D01*
X179464170Y-77111461D01*
X179615693Y-78165327D01*
X179616245Y-78169719D01*
X179730062Y-79228360D01*
X179730456Y-79232769D01*
X179806410Y-80294754D01*
X179806647Y-80299174D01*
X179844650Y-81363216D01*
X179844729Y-81367642D01*
X179844729Y-82432357D01*
X179844650Y-82436783D01*
X179806647Y-83500825D01*
X179806410Y-83505245D01*
X179730456Y-84567230D01*
X179730062Y-84571639D01*
X179616245Y-85630280D01*
X179615693Y-85634672D01*
X179464170Y-86688538D01*
X179463462Y-86692907D01*
X179274416Y-87740724D01*
X179273552Y-87745066D01*
X179047233Y-88785437D01*
X179046215Y-88789745D01*
X178782904Y-89821385D01*
X178781733Y-89825654D01*
X178481764Y-90847255D01*
X178480441Y-90851479D01*
X178144215Y-91861679D01*
X178142743Y-91865854D01*
X177770651Y-92863470D01*
X177769030Y-92867589D01*
X177361583Y-93851255D01*
X177359816Y-93855314D01*
X176917522Y-94823800D01*
X176915612Y-94827793D01*
X176439017Y-95779908D01*
X176436965Y-95783830D01*
X175926714Y-96718287D01*
X175924524Y-96722134D01*
X175381207Y-97637844D01*
X175378880Y-97641609D01*
X174803274Y-98537269D01*
X174800815Y-98540950D01*
X174193573Y-99415546D01*
X174190984Y-99419136D01*
X173552936Y-100271468D01*
X173550221Y-100274964D01*
X172882133Y-101104010D01*
X172879294Y-101107407D01*
X172182053Y-101912066D01*
X172179095Y-101915359D01*
X171453569Y-102694629D01*
X171450495Y-102697814D01*
X170697647Y-103450662D01*
X170694462Y-103453736D01*
X169915192Y-104179262D01*
X169911899Y-104182220D01*
X169107240Y-104879461D01*
X169103843Y-104882300D01*
X168274797Y-105550388D01*
X168271301Y-105553103D01*
X167418969Y-106191151D01*
X167415379Y-106193740D01*
X166540783Y-106800982D01*
X166537102Y-106803441D01*
X165641442Y-107379047D01*
X165637677Y-107381374D01*
X164721967Y-107924691D01*
X164718120Y-107926881D01*
X163783663Y-108437132D01*
X163779741Y-108439184D01*
X162827626Y-108915779D01*
X162823633Y-108917689D01*
X161855147Y-109359983D01*
X161851088Y-109361750D01*
X160867422Y-109769197D01*
X160863303Y-109770818D01*
X159865687Y-110142910D01*
X159861512Y-110144382D01*
X158851312Y-110480608D01*
X158847088Y-110481931D01*
X157825487Y-110781900D01*
X157821218Y-110783071D01*
X156789578Y-111046382D01*
X156785270Y-111047400D01*
X155744899Y-111273719D01*
X155740557Y-111274583D01*
X154692740Y-111463629D01*
X154688371Y-111464337D01*
X153634505Y-111615860D01*
X153630113Y-111616412D01*
X152571472Y-111730229D01*
X152567063Y-111730623D01*
X151505078Y-111806577D01*
X151500658Y-111806814D01*
X150436617Y-111844817D01*
X150432191Y-111844896D01*
X149367475Y-111844896D01*
X149363049Y-111844817D01*
X148299007Y-111806814D01*
X148294587Y-111806577D01*
X147232602Y-111730623D01*
X147228193Y-111730229D01*
X146169552Y-111616412D01*
X146165160Y-111615860D01*
X145111294Y-111464337D01*
X145106925Y-111463629D01*
X144059108Y-111274583D01*
X144054766Y-111273719D01*
X143014395Y-111047400D01*
X143010087Y-111046382D01*
X141978447Y-110783071D01*
X141974178Y-110781900D01*
X140952577Y-110481931D01*
X140948353Y-110480608D01*
X139938153Y-110144382D01*
X139933978Y-110142910D01*
X138936353Y-109770814D01*
X138932243Y-109769197D01*
X137948577Y-109361750D01*
X137944518Y-109359983D01*
X136976032Y-108917689D01*
X136972039Y-108915779D01*
X136019924Y-108439184D01*
X136016002Y-108437132D01*
X135081545Y-107926881D01*
X135077698Y-107924691D01*
X134161988Y-107381374D01*
X134158223Y-107379047D01*
X133262563Y-106803441D01*
X133258882Y-106800982D01*
X132384286Y-106193740D01*
X132380696Y-106191151D01*
X131528364Y-105553103D01*
X131524868Y-105550388D01*
X130695822Y-104882300D01*
X130692425Y-104879461D01*
X129887766Y-104182220D01*
X129884473Y-104179262D01*
X129105203Y-103453736D01*
X129102018Y-103450662D01*
X128349170Y-102697814D01*
X128346096Y-102694629D01*
X127620570Y-101915359D01*
X127617612Y-101912066D01*
X126920371Y-101107407D01*
X126917532Y-101104010D01*
X126249444Y-100274964D01*
X126246729Y-100271468D01*
X125608681Y-99419136D01*
X125606105Y-99415565D01*
X124998850Y-98540950D01*
X124996391Y-98537269D01*
X124420785Y-97641609D01*
X124418458Y-97637844D01*
X123875141Y-96722134D01*
X123872951Y-96718287D01*
X123362700Y-95783830D01*
X123360648Y-95779908D01*
X122884053Y-94827793D01*
X122882143Y-94823800D01*
X122439836Y-93855286D01*
X122438094Y-93851283D01*
X122030619Y-92867550D01*
X122029029Y-92863508D01*
X121656909Y-91865818D01*
X121655463Y-91861716D01*
X121319224Y-90851479D01*
X121317901Y-90847255D01*
X121017932Y-89825654D01*
X121016761Y-89821385D01*
X120980018Y-89677429D01*
X120761265Y-88820365D01*
X143391500Y-88820365D01*
X143391500Y-88979634D01*
X143422568Y-89135823D01*
X143422570Y-89135831D01*
X143483517Y-89282969D01*
X143571995Y-89415387D01*
X143572001Y-89415394D01*
X143684605Y-89527998D01*
X143684612Y-89528004D01*
X143817030Y-89616482D01*
X143817031Y-89616482D01*
X143817032Y-89616483D01*
X143964169Y-89677430D01*
X144120365Y-89708499D01*
X144120369Y-89708500D01*
X144120370Y-89708500D01*
X144279631Y-89708500D01*
X144279632Y-89708499D01*
X144435831Y-89677430D01*
X144582968Y-89616483D01*
X144675887Y-89554396D01*
X144742564Y-89533520D01*
X144744777Y-89533500D01*
X145347693Y-89533500D01*
X145347694Y-89533499D01*
X145470083Y-89509155D01*
X145585373Y-89461400D01*
X145689131Y-89392071D01*
X149292071Y-85789131D01*
X149361400Y-85685373D01*
X149409155Y-85570083D01*
X149433500Y-85447692D01*
X149433500Y-85322904D01*
X149433500Y-82202844D01*
X163730000Y-82202844D01*
X163736401Y-82262372D01*
X163736403Y-82262379D01*
X163786645Y-82397086D01*
X163786649Y-82397093D01*
X163872809Y-82512187D01*
X163872812Y-82512190D01*
X163987906Y-82598350D01*
X163987913Y-82598354D01*
X164122620Y-82648596D01*
X164122627Y-82648598D01*
X164182155Y-82654999D01*
X164182172Y-82655000D01*
X165250000Y-82655000D01*
X165750000Y-82655000D01*
X166817828Y-82655000D01*
X166817844Y-82654999D01*
X166877372Y-82648598D01*
X166877379Y-82648596D01*
X167012086Y-82598354D01*
X167012093Y-82598350D01*
X167127187Y-82512190D01*
X167127190Y-82512187D01*
X167213350Y-82397093D01*
X167213354Y-82397086D01*
X167263596Y-82262379D01*
X167263598Y-82262372D01*
X167269999Y-82202844D01*
X167270000Y-82202827D01*
X167270000Y-80650000D01*
X165750000Y-80650000D01*
X165750000Y-82655000D01*
X165250000Y-82655000D01*
X165250000Y-80650000D01*
X163730000Y-80650000D01*
X163730000Y-82202844D01*
X149433500Y-82202844D01*
X149433500Y-78597155D01*
X163730000Y-78597155D01*
X163730000Y-80150000D01*
X165250000Y-80150000D01*
X165750000Y-80150000D01*
X167270000Y-80150000D01*
X167270000Y-78597172D01*
X167269999Y-78597155D01*
X167263598Y-78537627D01*
X167263596Y-78537620D01*
X167213354Y-78402913D01*
X167213350Y-78402906D01*
X167127190Y-78287812D01*
X167127187Y-78287809D01*
X167012093Y-78201649D01*
X167012086Y-78201645D01*
X166877379Y-78151403D01*
X166877372Y-78151401D01*
X166817844Y-78145000D01*
X165750000Y-78145000D01*
X165750000Y-80150000D01*
X165250000Y-80150000D01*
X165250000Y-78145000D01*
X164182155Y-78145000D01*
X164122627Y-78151401D01*
X164122620Y-78151403D01*
X163987913Y-78201645D01*
X163987906Y-78201649D01*
X163872812Y-78287809D01*
X163872809Y-78287812D01*
X163786649Y-78402906D01*
X163786645Y-78402913D01*
X163736403Y-78537620D01*
X163736401Y-78537627D01*
X163730000Y-78597155D01*
X149433500Y-78597155D01*
X149433500Y-78044777D01*
X149453185Y-77977738D01*
X149454397Y-77975887D01*
X149516484Y-77882966D01*
X149525408Y-77861419D01*
X149577430Y-77735831D01*
X149608500Y-77579630D01*
X149608500Y-77420370D01*
X149577430Y-77264169D01*
X149516483Y-77117032D01*
X149509841Y-77107092D01*
X149428004Y-76984612D01*
X149427998Y-76984605D01*
X149315394Y-76872001D01*
X149315387Y-76871995D01*
X149182969Y-76783517D01*
X149035831Y-76722570D01*
X149035823Y-76722568D01*
X148879634Y-76691500D01*
X148879630Y-76691500D01*
X148720370Y-76691500D01*
X148720365Y-76691500D01*
X148564176Y-76722568D01*
X148564168Y-76722570D01*
X148417030Y-76783517D01*
X148284612Y-76871995D01*
X148284605Y-76872001D01*
X148172001Y-76984605D01*
X148171995Y-76984612D01*
X148083517Y-77117030D01*
X148022570Y-77264168D01*
X148022568Y-77264176D01*
X147991500Y-77420365D01*
X147991500Y-77579634D01*
X148022568Y-77735823D01*
X148022570Y-77735831D01*
X148083515Y-77882966D01*
X148145603Y-77975887D01*
X148166480Y-78042564D01*
X148166500Y-78044777D01*
X148166500Y-85071532D01*
X148146815Y-85138571D01*
X148130181Y-85159213D01*
X145059213Y-88230181D01*
X145032285Y-88244884D01*
X145006467Y-88261477D01*
X145000266Y-88262368D01*
X144997890Y-88263666D01*
X144971532Y-88266500D01*
X144744777Y-88266500D01*
X144677738Y-88246815D01*
X144675887Y-88245603D01*
X144582966Y-88183515D01*
X144435831Y-88122570D01*
X144435823Y-88122568D01*
X144279634Y-88091500D01*
X144279630Y-88091500D01*
X144120370Y-88091500D01*
X144120365Y-88091500D01*
X143964176Y-88122568D01*
X143964168Y-88122570D01*
X143817030Y-88183517D01*
X143684612Y-88271995D01*
X143684605Y-88272001D01*
X143572001Y-88384605D01*
X143571995Y-88384612D01*
X143483517Y-88517030D01*
X143422570Y-88664168D01*
X143422568Y-88664176D01*
X143391500Y-88820365D01*
X120761265Y-88820365D01*
X120753447Y-88789733D01*
X120752432Y-88785437D01*
X120526109Y-87745046D01*
X120525249Y-87740724D01*
X120336203Y-86692907D01*
X120335495Y-86688538D01*
X120183969Y-85634654D01*
X120183420Y-85630280D01*
X120176948Y-85570083D01*
X120069598Y-84571588D01*
X120069213Y-84567282D01*
X119993254Y-83505241D01*
X119993018Y-83500825D01*
X119955016Y-82436783D01*
X119954937Y-82432357D01*
X119954937Y-81367642D01*
X119955016Y-81363216D01*
X119993018Y-80299174D01*
X119993255Y-80294754D01*
X120003608Y-80150000D01*
X120069213Y-79232713D01*
X120069604Y-79228360D01*
X120137553Y-78596345D01*
X134361500Y-78596345D01*
X134361500Y-82203654D01*
X134368011Y-82264202D01*
X134368011Y-82264204D01*
X134417575Y-82397086D01*
X134419111Y-82401204D01*
X134506739Y-82518261D01*
X134623796Y-82605889D01*
X134738297Y-82648596D01*
X134755463Y-82654999D01*
X134760799Y-82656989D01*
X134788050Y-82659918D01*
X134821345Y-82663499D01*
X134821362Y-82663500D01*
X137458638Y-82663500D01*
X137458654Y-82663499D01*
X137485692Y-82660591D01*
X137519201Y-82656989D01*
X137524537Y-82654999D01*
X137541703Y-82648596D01*
X137656204Y-82605889D01*
X137773261Y-82518261D01*
X137860889Y-82401204D01*
X137911989Y-82264201D01*
X137915591Y-82230692D01*
X137918499Y-82203654D01*
X137918500Y-82203637D01*
X137918500Y-79568766D01*
X137938185Y-79501727D01*
X137954819Y-79481085D01*
X144392068Y-73043836D01*
X144392071Y-73043833D01*
X144461400Y-72940075D01*
X144509155Y-72824785D01*
X144533500Y-72702394D01*
X144533500Y-72577606D01*
X144533500Y-66244777D01*
X144553185Y-66177738D01*
X144554397Y-66175887D01*
X144563572Y-66162155D01*
X144616483Y-66082968D01*
X144677430Y-65935831D01*
X144708500Y-65779630D01*
X144708500Y-65620370D01*
X144707697Y-65616332D01*
X144707697Y-65616329D01*
X144703856Y-65597019D01*
X145591500Y-65597019D01*
X145591500Y-65802980D01*
X145623719Y-66006408D01*
X145687367Y-66202294D01*
X145780873Y-66385806D01*
X145901926Y-66552423D01*
X145901930Y-66552428D01*
X146047571Y-66698069D01*
X146047576Y-66698073D01*
X146192908Y-66803661D01*
X146214197Y-66819129D01*
X146331128Y-66878709D01*
X146397705Y-66912632D01*
X146397707Y-66912632D01*
X146397710Y-66912634D01*
X146488437Y-66942113D01*
X146593591Y-66976280D01*
X146695305Y-66992390D01*
X146797019Y-67008500D01*
X146797020Y-67008500D01*
X147002980Y-67008500D01*
X147002981Y-67008500D01*
X147206408Y-66976280D01*
X147402290Y-66912634D01*
X147585803Y-66819129D01*
X147752430Y-66698068D01*
X147898068Y-66552430D01*
X148019129Y-66385803D01*
X148112634Y-66202290D01*
X148176280Y-66006408D01*
X148208500Y-65802981D01*
X148208500Y-65597019D01*
X148187460Y-65464176D01*
X148176280Y-65393591D01*
X148151403Y-65317030D01*
X148112634Y-65197710D01*
X148088324Y-65150000D01*
X148062566Y-65099447D01*
X153211500Y-65099447D01*
X153211500Y-66300537D01*
X153211501Y-66300553D01*
X153220211Y-66385806D01*
X153222113Y-66404426D01*
X153277885Y-66572738D01*
X153370970Y-66723652D01*
X153496348Y-66849030D01*
X153647262Y-66942115D01*
X153815574Y-66997887D01*
X153919455Y-67008500D01*
X155120544Y-67008499D01*
X155224426Y-66997887D01*
X155392738Y-66942115D01*
X155543652Y-66849030D01*
X155669030Y-66723652D01*
X155762115Y-66572738D01*
X155817887Y-66404426D01*
X155828500Y-66300545D01*
X155828499Y-65099456D01*
X155817887Y-64995574D01*
X155762115Y-64827262D01*
X155669030Y-64676348D01*
X155543652Y-64550970D01*
X155392738Y-64457885D01*
X155289630Y-64423719D01*
X155224427Y-64402113D01*
X155120545Y-64391500D01*
X153919462Y-64391500D01*
X153919446Y-64391501D01*
X153815572Y-64402113D01*
X153647264Y-64457884D01*
X153647259Y-64457886D01*
X153496346Y-64550971D01*
X153370971Y-64676346D01*
X153277886Y-64827259D01*
X153277884Y-64827264D01*
X153222113Y-64995572D01*
X153211500Y-65099447D01*
X148062566Y-65099447D01*
X148054043Y-65082719D01*
X148019129Y-65014197D01*
X147979371Y-64959474D01*
X147898073Y-64847576D01*
X147898069Y-64847571D01*
X147752428Y-64701930D01*
X147752423Y-64701926D01*
X147585806Y-64580873D01*
X147585805Y-64580872D01*
X147585803Y-64580871D01*
X147527119Y-64550970D01*
X147402294Y-64487367D01*
X147206408Y-64423719D01*
X147030794Y-64395905D01*
X147002981Y-64391500D01*
X146797019Y-64391500D01*
X146772550Y-64395375D01*
X146593591Y-64423719D01*
X146397705Y-64487367D01*
X146214193Y-64580873D01*
X146047576Y-64701926D01*
X146047571Y-64701930D01*
X145901930Y-64847571D01*
X145901926Y-64847576D01*
X145780873Y-65014193D01*
X145687367Y-65197705D01*
X145623719Y-65393591D01*
X145591500Y-65597019D01*
X144703856Y-65597019D01*
X144677431Y-65464176D01*
X144677430Y-65464169D01*
X144616483Y-65317032D01*
X144578948Y-65260857D01*
X144528004Y-65184612D01*
X144527998Y-65184605D01*
X144415394Y-65072001D01*
X144415387Y-65071995D01*
X144282969Y-64983517D01*
X144135831Y-64922570D01*
X144135823Y-64922568D01*
X143979634Y-64891500D01*
X143979630Y-64891500D01*
X143820370Y-64891500D01*
X143820365Y-64891500D01*
X143664176Y-64922568D01*
X143664168Y-64922570D01*
X143517030Y-64983517D01*
X143384612Y-65071995D01*
X143384605Y-65072001D01*
X143272001Y-65184605D01*
X143271995Y-65184612D01*
X143183517Y-65317030D01*
X143122570Y-65464168D01*
X143122568Y-65464176D01*
X143091500Y-65620365D01*
X143091500Y-65779634D01*
X143122568Y-65935823D01*
X143122570Y-65935831D01*
X143183515Y-66082966D01*
X143245603Y-66175887D01*
X143266480Y-66242564D01*
X143266500Y-66244777D01*
X143266500Y-72326233D01*
X143246815Y-72393272D01*
X143230181Y-72413914D01*
X137543914Y-78100181D01*
X137482591Y-78133666D01*
X137456233Y-78136500D01*
X134821345Y-78136500D01*
X134760797Y-78143011D01*
X134760795Y-78143011D01*
X134623795Y-78194111D01*
X134506739Y-78281739D01*
X134419111Y-78398795D01*
X134368011Y-78535795D01*
X134368011Y-78535797D01*
X134361500Y-78596345D01*
X120137553Y-78596345D01*
X120139333Y-78579789D01*
X120139333Y-78579786D01*
X120143866Y-78537627D01*
X120183423Y-78169694D01*
X120183972Y-78165327D01*
X120185552Y-78154344D01*
X120335498Y-77111438D01*
X120336203Y-77107092D01*
X120405578Y-76722570D01*
X120525253Y-76059253D01*
X120526106Y-76054964D01*
X120752437Y-75014537D01*
X120753450Y-75010254D01*
X120759112Y-74988071D01*
X121016771Y-73978574D01*
X121017920Y-73974385D01*
X121317905Y-72952729D01*
X121319224Y-72948520D01*
X121365827Y-72808500D01*
X121655468Y-71938266D01*
X121656902Y-71934199D01*
X122029036Y-70936472D01*
X122030612Y-70932468D01*
X122438102Y-69948696D01*
X122439827Y-69944734D01*
X122882155Y-68976172D01*
X122884039Y-68972233D01*
X123360656Y-68020073D01*
X123362700Y-68016169D01*
X123872974Y-67081671D01*
X123875117Y-67077905D01*
X124418466Y-66162141D01*
X124420785Y-66158390D01*
X124563821Y-65935823D01*
X124996398Y-65262718D01*
X124998850Y-65259049D01*
X125001166Y-65255714D01*
X125606124Y-64384407D01*
X125608648Y-64380908D01*
X126060713Y-63777019D01*
X130571500Y-63777019D01*
X130571500Y-63982980D01*
X130603719Y-64186408D01*
X130667367Y-64382294D01*
X130731671Y-64508496D01*
X130758602Y-64561350D01*
X130760873Y-64565806D01*
X130881926Y-64732423D01*
X130881930Y-64732428D01*
X131027571Y-64878069D01*
X131027576Y-64878073D01*
X131194195Y-64999128D01*
X131273459Y-65039516D01*
X131324254Y-65087490D01*
X131341049Y-65155311D01*
X131318511Y-65221446D01*
X131273459Y-65260484D01*
X131194195Y-65300871D01*
X131027576Y-65421926D01*
X131027571Y-65421930D01*
X130881930Y-65567571D01*
X130881926Y-65567576D01*
X130760873Y-65734193D01*
X130667367Y-65917705D01*
X130603719Y-66113591D01*
X130571500Y-66317019D01*
X130571500Y-66522980D01*
X130603719Y-66726408D01*
X130667367Y-66922294D01*
X130711291Y-67008498D01*
X130747599Y-67079756D01*
X130760873Y-67105806D01*
X130881926Y-67272423D01*
X130881930Y-67272428D01*
X131027571Y-67418069D01*
X131027576Y-67418073D01*
X131194195Y-67539128D01*
X131273459Y-67579516D01*
X131324254Y-67627490D01*
X131341049Y-67695311D01*
X131318511Y-67761446D01*
X131273459Y-67800484D01*
X131194195Y-67840871D01*
X131027576Y-67961926D01*
X131027571Y-67961930D01*
X130881930Y-68107571D01*
X130881926Y-68107576D01*
X130760873Y-68274193D01*
X130667367Y-68457705D01*
X130603719Y-68653591D01*
X130571500Y-68857019D01*
X130571500Y-69062980D01*
X130603719Y-69266408D01*
X130667367Y-69462294D01*
X130760873Y-69645806D01*
X130881926Y-69812423D01*
X130881930Y-69812428D01*
X131027571Y-69958069D01*
X131027576Y-69958073D01*
X131194195Y-70079128D01*
X131273459Y-70119516D01*
X131324254Y-70167490D01*
X131341049Y-70235311D01*
X131318511Y-70301446D01*
X131273459Y-70340484D01*
X131194195Y-70380871D01*
X131027576Y-70501926D01*
X131027571Y-70501930D01*
X130881930Y-70647571D01*
X130881926Y-70647576D01*
X130760873Y-70814193D01*
X130667367Y-70997705D01*
X130603719Y-71193591D01*
X130571500Y-71397019D01*
X130571500Y-71602980D01*
X130603719Y-71806408D01*
X130667367Y-72002294D01*
X130760873Y-72185806D01*
X130881926Y-72352423D01*
X130881930Y-72352428D01*
X131027571Y-72498069D01*
X131027576Y-72498073D01*
X131137045Y-72577606D01*
X131194197Y-72619129D01*
X131311128Y-72678709D01*
X131377705Y-72712632D01*
X131377707Y-72712632D01*
X131377710Y-72712634D01*
X131468437Y-72742113D01*
X131573591Y-72776280D01*
X131675305Y-72792390D01*
X131777019Y-72808500D01*
X131777020Y-72808500D01*
X131982980Y-72808500D01*
X131982981Y-72808500D01*
X132186408Y-72776280D01*
X132382290Y-72712634D01*
X132565803Y-72619129D01*
X132732430Y-72498068D01*
X132878068Y-72352430D01*
X132999129Y-72185803D01*
X133092634Y-72002290D01*
X133156280Y-71806408D01*
X133188500Y-71602981D01*
X133188500Y-71397019D01*
X133156280Y-71193592D01*
X133092634Y-70997710D01*
X133092632Y-70997707D01*
X133092632Y-70997705D01*
X133042566Y-70899447D01*
X132999129Y-70814197D01*
X132983661Y-70792908D01*
X132878073Y-70647576D01*
X132878069Y-70647571D01*
X132732428Y-70501930D01*
X132732423Y-70501926D01*
X132565806Y-70380873D01*
X132565805Y-70380872D01*
X132565803Y-70380871D01*
X132486540Y-70340484D01*
X132435745Y-70292510D01*
X132418950Y-70224689D01*
X132441487Y-70158554D01*
X132486541Y-70119515D01*
X132565803Y-70079129D01*
X132732430Y-69958068D01*
X132878068Y-69812430D01*
X132999129Y-69645803D01*
X133092634Y-69462290D01*
X133156280Y-69266408D01*
X133188500Y-69062981D01*
X133188500Y-68857019D01*
X133156280Y-68653592D01*
X133092634Y-68457710D01*
X133092632Y-68457707D01*
X133092632Y-68457705D01*
X133058709Y-68391128D01*
X132999129Y-68274197D01*
X132983661Y-68252908D01*
X132878073Y-68107576D01*
X132878069Y-68107571D01*
X132732428Y-67961930D01*
X132732423Y-67961926D01*
X132565806Y-67840873D01*
X132565805Y-67840872D01*
X132565803Y-67840871D01*
X132486540Y-67800484D01*
X132435745Y-67752510D01*
X132418950Y-67684689D01*
X132441487Y-67618554D01*
X132486541Y-67579515D01*
X132565803Y-67539129D01*
X132732430Y-67418068D01*
X132878068Y-67272430D01*
X132999129Y-67105803D01*
X133092634Y-66922290D01*
X133156280Y-66726408D01*
X133188500Y-66522981D01*
X133188500Y-66317019D01*
X138191500Y-66317019D01*
X138191500Y-66522980D01*
X138223719Y-66726408D01*
X138287367Y-66922294D01*
X138331291Y-67008498D01*
X138367599Y-67079756D01*
X138380873Y-67105806D01*
X138501926Y-67272423D01*
X138501930Y-67272428D01*
X138647571Y-67418069D01*
X138647576Y-67418073D01*
X138814195Y-67539128D01*
X138893459Y-67579516D01*
X138944254Y-67627490D01*
X138961049Y-67695311D01*
X138938511Y-67761446D01*
X138893459Y-67800484D01*
X138814195Y-67840871D01*
X138647576Y-67961926D01*
X138647571Y-67961930D01*
X138501930Y-68107571D01*
X138501926Y-68107576D01*
X138380873Y-68274193D01*
X138287367Y-68457705D01*
X138223719Y-68653591D01*
X138191500Y-68857019D01*
X138191500Y-69062980D01*
X138223719Y-69266408D01*
X138287367Y-69462294D01*
X138380873Y-69645806D01*
X138501926Y-69812423D01*
X138501930Y-69812428D01*
X138501932Y-69812430D01*
X138647570Y-69958068D01*
X138729138Y-70017330D01*
X138771803Y-70072659D01*
X138777782Y-70142272D01*
X138745177Y-70204068D01*
X138695257Y-70235354D01*
X138627262Y-70257885D01*
X138627259Y-70257886D01*
X138476346Y-70350971D01*
X138350971Y-70476346D01*
X138257886Y-70627259D01*
X138257884Y-70627264D01*
X138202113Y-70795572D01*
X138191500Y-70899447D01*
X138191500Y-72100537D01*
X138191501Y-72100553D01*
X138202113Y-72204427D01*
X138257884Y-72372735D01*
X138257886Y-72372740D01*
X138283283Y-72413914D01*
X138350970Y-72523652D01*
X138476348Y-72649030D01*
X138627262Y-72742115D01*
X138795574Y-72797887D01*
X138899455Y-72808500D01*
X140100544Y-72808499D01*
X140204426Y-72797887D01*
X140372738Y-72742115D01*
X140523652Y-72649030D01*
X140649030Y-72523652D01*
X140742115Y-72372738D01*
X140797887Y-72204426D01*
X140808500Y-72100545D01*
X140808499Y-70899456D01*
X140797887Y-70795574D01*
X140742115Y-70627262D01*
X140649030Y-70476348D01*
X140523652Y-70350970D01*
X140372738Y-70257885D01*
X140304743Y-70235354D01*
X140247298Y-70195581D01*
X140220475Y-70131065D01*
X140232790Y-70062290D01*
X140270861Y-70017330D01*
X140352430Y-69958068D01*
X140498068Y-69812430D01*
X140619129Y-69645803D01*
X140712634Y-69462290D01*
X140776280Y-69266408D01*
X140808500Y-69062981D01*
X140808500Y-68857019D01*
X140776280Y-68653592D01*
X140712634Y-68457710D01*
X140712632Y-68457707D01*
X140712632Y-68457705D01*
X140678709Y-68391128D01*
X140619129Y-68274197D01*
X140603661Y-68252908D01*
X140498073Y-68107576D01*
X140498069Y-68107571D01*
X140352428Y-67961930D01*
X140352423Y-67961926D01*
X140185806Y-67840873D01*
X140185805Y-67840872D01*
X140185803Y-67840871D01*
X140106540Y-67800484D01*
X140055745Y-67752510D01*
X140038950Y-67684689D01*
X140061487Y-67618554D01*
X140106541Y-67579515D01*
X140185803Y-67539129D01*
X140352430Y-67418068D01*
X140498068Y-67272430D01*
X140619129Y-67105803D01*
X140712634Y-66922290D01*
X140776280Y-66726408D01*
X140808500Y-66522981D01*
X140808500Y-66317019D01*
X140783972Y-66162155D01*
X140776280Y-66113591D01*
X140712632Y-65917705D01*
X140654176Y-65802981D01*
X140619129Y-65734197D01*
X140603661Y-65712908D01*
X140498073Y-65567576D01*
X140498069Y-65567571D01*
X140352428Y-65421930D01*
X140352423Y-65421926D01*
X140185806Y-65300873D01*
X140185805Y-65300872D01*
X140185803Y-65300871D01*
X140110947Y-65262730D01*
X140097180Y-65255715D01*
X140046384Y-65207740D01*
X140029589Y-65139919D01*
X140052127Y-65073784D01*
X140097181Y-65034745D01*
X140181346Y-64991861D01*
X140181347Y-64991861D01*
X140225921Y-64959474D01*
X139546447Y-64280000D01*
X139552661Y-64280000D01*
X139654394Y-64252741D01*
X139745606Y-64200080D01*
X139820080Y-64125606D01*
X139872741Y-64034394D01*
X139900000Y-63932661D01*
X139900000Y-63926447D01*
X140579474Y-64605921D01*
X140611859Y-64561349D01*
X140704755Y-64379031D01*
X140767990Y-64184417D01*
X140800000Y-63982317D01*
X140800000Y-63777682D01*
X140767990Y-63575582D01*
X140704755Y-63380968D01*
X140611859Y-63198650D01*
X140579474Y-63154077D01*
X140579474Y-63154076D01*
X139900000Y-63833551D01*
X139900000Y-63827339D01*
X139872741Y-63725606D01*
X139820080Y-63634394D01*
X139745606Y-63559920D01*
X139654394Y-63507259D01*
X139552661Y-63480000D01*
X139546446Y-63480000D01*
X140225922Y-62800524D01*
X140225921Y-62800523D01*
X140181359Y-62768147D01*
X140181350Y-62768141D01*
X139999031Y-62675244D01*
X139804417Y-62612009D01*
X139602317Y-62580000D01*
X139397683Y-62580000D01*
X139195582Y-62612009D01*
X139000968Y-62675244D01*
X138818644Y-62768143D01*
X138774077Y-62800523D01*
X138774077Y-62800524D01*
X139453554Y-63480000D01*
X139447339Y-63480000D01*
X139345606Y-63507259D01*
X139254394Y-63559920D01*
X139179920Y-63634394D01*
X139127259Y-63725606D01*
X139100000Y-63827339D01*
X139100000Y-63833553D01*
X138420524Y-63154077D01*
X138420523Y-63154077D01*
X138388143Y-63198644D01*
X138295244Y-63380968D01*
X138232009Y-63575582D01*
X138200000Y-63777682D01*
X138200000Y-63982317D01*
X138232009Y-64184417D01*
X138295244Y-64379031D01*
X138388141Y-64561350D01*
X138388147Y-64561359D01*
X138420523Y-64605921D01*
X138420524Y-64605922D01*
X139100000Y-63926446D01*
X139100000Y-63932661D01*
X139127259Y-64034394D01*
X139179920Y-64125606D01*
X139254394Y-64200080D01*
X139345606Y-64252741D01*
X139447339Y-64280000D01*
X139453553Y-64280000D01*
X138774076Y-64959474D01*
X138818652Y-64991861D01*
X138902818Y-65034745D01*
X138953614Y-65082719D01*
X138970410Y-65150540D01*
X138947873Y-65216675D01*
X138902820Y-65255714D01*
X138814195Y-65300871D01*
X138647576Y-65421926D01*
X138647571Y-65421930D01*
X138501930Y-65567571D01*
X138501926Y-65567576D01*
X138380873Y-65734193D01*
X138287367Y-65917705D01*
X138223719Y-66113591D01*
X138191500Y-66317019D01*
X133188500Y-66317019D01*
X133163972Y-66162155D01*
X133156280Y-66113591D01*
X133092632Y-65917705D01*
X133034176Y-65802981D01*
X132999129Y-65734197D01*
X132983661Y-65712908D01*
X132878073Y-65567576D01*
X132878069Y-65567571D01*
X132732428Y-65421930D01*
X132732423Y-65421926D01*
X132565806Y-65300873D01*
X132565805Y-65300872D01*
X132565803Y-65300871D01*
X132486540Y-65260484D01*
X132435745Y-65212510D01*
X132418950Y-65144689D01*
X132441487Y-65078554D01*
X132486541Y-65039515D01*
X132565803Y-64999129D01*
X132732430Y-64878068D01*
X132878068Y-64732430D01*
X132999129Y-64565803D01*
X133092634Y-64382290D01*
X133156280Y-64186408D01*
X133188500Y-63982981D01*
X133188500Y-63777019D01*
X133156280Y-63573592D01*
X133092634Y-63377710D01*
X133092632Y-63377707D01*
X133092632Y-63377705D01*
X133058709Y-63311128D01*
X132999129Y-63194197D01*
X132969980Y-63154076D01*
X132878073Y-63027576D01*
X132878069Y-63027571D01*
X132732428Y-62881930D01*
X132732423Y-62881926D01*
X132565806Y-62760873D01*
X132565805Y-62760872D01*
X132565803Y-62760871D01*
X132508496Y-62731671D01*
X132382294Y-62667367D01*
X132186408Y-62603719D01*
X132010794Y-62575905D01*
X131982981Y-62571500D01*
X131777019Y-62571500D01*
X131752550Y-62575375D01*
X131573591Y-62603719D01*
X131377705Y-62667367D01*
X131194193Y-62760873D01*
X131027576Y-62881926D01*
X131027571Y-62881930D01*
X130881930Y-63027571D01*
X130881926Y-63027576D01*
X130760873Y-63194193D01*
X130667367Y-63377705D01*
X130603719Y-63573591D01*
X130571500Y-63777019D01*
X126060713Y-63777019D01*
X126246750Y-63528503D01*
X126249422Y-63525062D01*
X126917546Y-62695971D01*
X126920356Y-62692609D01*
X127617617Y-61887926D01*
X127620570Y-61884640D01*
X128346123Y-61105341D01*
X128349142Y-61102213D01*
X129102046Y-60349309D01*
X129105174Y-60346290D01*
X129884479Y-59620731D01*
X129887766Y-59617779D01*
X130692442Y-58920523D01*
X130695804Y-58917713D01*
X131524895Y-58249589D01*
X131528336Y-58246917D01*
X132380741Y-57608815D01*
X132384240Y-57606291D01*
X133258894Y-56999008D01*
X133262563Y-56996558D01*
X133848371Y-56620082D01*
X134158236Y-56420943D01*
X134161974Y-56418633D01*
X135077738Y-55875284D01*
X135081504Y-55873141D01*
X135645482Y-55565186D01*
X147599500Y-55565186D01*
X147599500Y-55834813D01*
X147629686Y-56102719D01*
X147629688Y-56102731D01*
X147689684Y-56365594D01*
X147689687Y-56365602D01*
X147778734Y-56620082D01*
X147895714Y-56862994D01*
X147895716Y-56862997D01*
X148039162Y-57091289D01*
X148207266Y-57302085D01*
X148397915Y-57492734D01*
X148608711Y-57660838D01*
X148837003Y-57804284D01*
X149079921Y-57921267D01*
X149271049Y-57988145D01*
X149334397Y-58010312D01*
X149334405Y-58010315D01*
X149334408Y-58010315D01*
X149334409Y-58010316D01*
X149597268Y-58070312D01*
X149865187Y-58100499D01*
X149865188Y-58100500D01*
X149865191Y-58100500D01*
X150134812Y-58100500D01*
X150134812Y-58100499D01*
X150402732Y-58070312D01*
X150665591Y-58010316D01*
X150920079Y-57921267D01*
X151162997Y-57804284D01*
X151391289Y-57660838D01*
X151602085Y-57492734D01*
X151792734Y-57302085D01*
X151960838Y-57091289D01*
X152104284Y-56862997D01*
X152221267Y-56620079D01*
X152310316Y-56365591D01*
X152370312Y-56102732D01*
X152400500Y-55834809D01*
X152400500Y-55565191D01*
X152370312Y-55297268D01*
X152310316Y-55034409D01*
X152221267Y-54779921D01*
X152104284Y-54537003D01*
X151960838Y-54308711D01*
X151792734Y-54097915D01*
X151602085Y-53907266D01*
X151391289Y-53739162D01*
X151162997Y-53595716D01*
X151162994Y-53595714D01*
X150920082Y-53478734D01*
X150665602Y-53389687D01*
X150665594Y-53389684D01*
X150468446Y-53344687D01*
X150402732Y-53329688D01*
X150402728Y-53329687D01*
X150402719Y-53329686D01*
X150134813Y-53299500D01*
X150134809Y-53299500D01*
X149865191Y-53299500D01*
X149865186Y-53299500D01*
X149597280Y-53329686D01*
X149597268Y-53329688D01*
X149334405Y-53389684D01*
X149334397Y-53389687D01*
X149079917Y-53478734D01*
X148837005Y-53595714D01*
X148608712Y-53739161D01*
X148397915Y-53907265D01*
X148207265Y-54097915D01*
X148039161Y-54308712D01*
X147895714Y-54537005D01*
X147778734Y-54779917D01*
X147689687Y-55034397D01*
X147689684Y-55034405D01*
X147629688Y-55297268D01*
X147629686Y-55297280D01*
X147599500Y-55565186D01*
X135645482Y-55565186D01*
X136016020Y-55362857D01*
X136019906Y-55360823D01*
X136972066Y-54884206D01*
X136976005Y-54882322D01*
X137944567Y-54439994D01*
X137948529Y-54438269D01*
X138932301Y-54030779D01*
X138936305Y-54029203D01*
X139934032Y-53657069D01*
X139938099Y-53655635D01*
X140948367Y-53319386D01*
X140952562Y-53318072D01*
X141974218Y-53018087D01*
X141978407Y-53016938D01*
X143010112Y-52753611D01*
X143014370Y-52752604D01*
X144054797Y-52526273D01*
X144059086Y-52525420D01*
X145106937Y-52336367D01*
X145111271Y-52335665D01*
X146165185Y-52184135D01*
X146169527Y-52183590D01*
X147228249Y-52069764D01*
X147232545Y-52069381D01*
X148294594Y-51993421D01*
X148299001Y-51993185D01*
X149363049Y-51955182D01*
X149367475Y-51955104D01*
X150432191Y-51955104D01*
X150436616Y-51955182D01*
G37*
%TD.AperFunction*%
%TD*%
M02*
