G04 #@! TF.GenerationSoftware,KiCad,Pcbnew,7.0.7*
G04 #@! TF.CreationDate,2023-12-08T11:24:34-06:00*
G04 #@! TF.ProjectId,airplane-keychain,61697270-6c61-46e6-952d-6b6579636861,1*
G04 #@! TF.SameCoordinates,Original*
G04 #@! TF.FileFunction,Copper,L1,Top*
G04 #@! TF.FilePolarity,Positive*
%FSLAX46Y46*%
G04 Gerber Fmt 4.6, Leading zero omitted, Abs format (unit mm)*
G04 Created by KiCad (PCBNEW 7.0.7) date 2023-12-08 11:24:34*
%MOMM*%
%LPD*%
G01*
G04 APERTURE LIST*
G04 Aperture macros list*
%AMHorizOval*
0 Thick line with rounded ends*
0 $1 width*
0 $2 $3 position (X,Y) of the first rounded end (center of the circle)*
0 $4 $5 position (X,Y) of the second rounded end (center of the circle)*
0 Add line between two ends*
20,1,$1,$2,$3,$4,$5,0*
0 Add two circle primitives to create the rounded ends*
1,1,$1,$2,$3*
1,1,$1,$4,$5*%
G04 Aperture macros list end*
G04 #@! TA.AperFunction,ComponentPad*
%ADD10R,1.800000X1.800000*%
G04 #@! TD*
G04 #@! TA.AperFunction,ComponentPad*
%ADD11C,1.800000*%
G04 #@! TD*
G04 #@! TA.AperFunction,ComponentPad*
%ADD12C,1.600000*%
G04 #@! TD*
G04 #@! TA.AperFunction,ComponentPad*
%ADD13HorizOval,1.600000X0.000000X0.000000X0.000000X0.000000X0*%
G04 #@! TD*
G04 #@! TA.AperFunction,ComponentPad*
%ADD14HorizOval,1.600000X0.000000X0.000000X0.000000X0.000000X0*%
G04 #@! TD*
G04 #@! TA.AperFunction,ComponentPad*
%ADD15O,1.600000X1.600000*%
G04 #@! TD*
G04 #@! TA.AperFunction,ComponentPad*
%ADD16HorizOval,1.600000X0.000000X0.000000X0.000000X0.000000X0*%
G04 #@! TD*
G04 #@! TA.AperFunction,ComponentPad*
%ADD17C,2.000000*%
G04 #@! TD*
G04 #@! TA.AperFunction,ComponentPad*
%ADD18R,1.600000X1.600000*%
G04 #@! TD*
G04 #@! TA.AperFunction,ComponentPad*
%ADD19HorizOval,1.600000X0.000000X0.000000X0.000000X0.000000X0*%
G04 #@! TD*
G04 #@! TA.AperFunction,Conductor*
%ADD20C,0.250000*%
G04 #@! TD*
G04 APERTURE END LIST*
D10*
X167800000Y-115000000D03*
D11*
X167800000Y-112460000D03*
D10*
X112550000Y-72200000D03*
D11*
X110010000Y-72200000D03*
D10*
X115200000Y-78200000D03*
D11*
X112660000Y-78200000D03*
D10*
X105800000Y-76100000D03*
D11*
X103260000Y-76100000D03*
D12*
X155401477Y-66950000D03*
D13*
X166400000Y-73300000D03*
D12*
X108299261Y-66225000D03*
D14*
X97300738Y-72575000D03*
D12*
X128500000Y-54200000D03*
D14*
X117501477Y-60550000D03*
D12*
X167000000Y-82300000D03*
D15*
X167000000Y-95000000D03*
D12*
X153100000Y-125500000D03*
D16*
X164098523Y-119150000D03*
D12*
X133401477Y-54250000D03*
D13*
X144400000Y-60600000D03*
D17*
X100300000Y-103800000D03*
X93800000Y-103800000D03*
X100300000Y-99300000D03*
X93800000Y-99300000D03*
D18*
X95600000Y-82180000D03*
D15*
X95600000Y-89800000D03*
D10*
X116800000Y-70300000D03*
D11*
X119340000Y-70300000D03*
D10*
X162500000Y-107600000D03*
D11*
X159960000Y-107600000D03*
D10*
X157000000Y-115840000D03*
D11*
X157000000Y-113300000D03*
D10*
X166160000Y-104300000D03*
D11*
X168700000Y-104300000D03*
D12*
X106498523Y-124050000D03*
D19*
X95500000Y-117700000D03*
D12*
X117201477Y-130450000D03*
D13*
X128200000Y-136800000D03*
D12*
X133800739Y-136675000D03*
D16*
X144799262Y-130325000D03*
D18*
X140580000Y-74200000D03*
D15*
X143120000Y-74200000D03*
X145660000Y-74200000D03*
X148200000Y-74200000D03*
X148200000Y-66580000D03*
X145660000Y-66580000D03*
X143120000Y-66580000D03*
X140580000Y-66580000D03*
D20*
X95600000Y-89800000D02*
X95600000Y-97500000D01*
X95600000Y-97500000D02*
X93800000Y-99300000D01*
X100300000Y-103800000D02*
X93800000Y-103800000D01*
X100300000Y-103800000D02*
X100300000Y-119442468D01*
X112432532Y-131575000D02*
X128700739Y-131575000D01*
X100300000Y-119442468D02*
X112432532Y-131575000D01*
X128700739Y-131575000D02*
X133800739Y-136675000D01*
X141925000Y-136675000D02*
X153100000Y-125500000D01*
X108299261Y-66225000D02*
X121849261Y-52675000D01*
X121849261Y-52675000D02*
X138075000Y-52675000D01*
X145660000Y-60260000D02*
X145660000Y-66580000D01*
X138075000Y-52675000D02*
X145660000Y-60260000D01*
X155401477Y-66950000D02*
X148570000Y-66950000D01*
X148570000Y-66950000D02*
X148200000Y-66580000D01*
X133800739Y-136675000D02*
X141925000Y-136675000D01*
X144799262Y-130325000D02*
X144799262Y-123768326D01*
X144799262Y-123768326D02*
X159742588Y-108825000D01*
X159742588Y-108825000D02*
X164175000Y-108825000D01*
X164175000Y-108825000D02*
X168700000Y-104300000D01*
X128500000Y-54200000D02*
X129575000Y-53125000D01*
X129575000Y-53125000D02*
X133925000Y-53125000D01*
X133925000Y-53125000D02*
X143120000Y-62320000D01*
X143120000Y-62320000D02*
X143120000Y-66580000D01*
X144400000Y-60600000D02*
X144400000Y-67200000D01*
X144400000Y-67200000D02*
X140580000Y-71020000D01*
X140580000Y-71020000D02*
X140580000Y-74200000D01*
X167000000Y-82300000D02*
X157775000Y-73075000D01*
X144245000Y-73075000D02*
X143120000Y-74200000D01*
X157775000Y-73075000D02*
X144245000Y-73075000D01*
X166400000Y-73300000D02*
X169925000Y-76825000D01*
X169925000Y-76825000D02*
X169925000Y-110335000D01*
X169925000Y-110335000D02*
X167800000Y-112460000D01*
X145660000Y-74200000D02*
X145660000Y-89191477D01*
X145660000Y-89191477D02*
X110801477Y-124050000D01*
X128200000Y-136800000D02*
X113009009Y-136800000D01*
X113009009Y-136800000D02*
X91975000Y-115765991D01*
X91975000Y-82918604D02*
X98793604Y-76100000D01*
X91975000Y-115765991D02*
X91975000Y-82918604D01*
X98793604Y-76100000D02*
X103260000Y-76100000D01*
X95500000Y-117700000D02*
X92425000Y-114625000D01*
X92425000Y-114625000D02*
X92425000Y-83105000D01*
X92425000Y-83105000D02*
X97330000Y-78200000D01*
X97330000Y-78200000D02*
X112660000Y-78200000D01*
X164098523Y-119150000D02*
X162850000Y-119150000D01*
X162850000Y-119150000D02*
X157000000Y-113300000D01*
X159960000Y-107600000D02*
X159960000Y-102040000D01*
X159960000Y-102040000D02*
X167000000Y-95000000D01*
X133401477Y-54250000D02*
X133401477Y-59401477D01*
X133401477Y-59401477D02*
X140580000Y-66580000D01*
X95600000Y-82180000D02*
X124980000Y-82180000D01*
X124980000Y-82180000D02*
X140580000Y-66580000D01*
X97300738Y-72575000D02*
X109635000Y-72575000D01*
X109635000Y-72575000D02*
X110010000Y-72200000D01*
X117501477Y-60550000D02*
X117501477Y-68461477D01*
X117501477Y-68461477D02*
X119340000Y-70300000D01*
X106498523Y-124050000D02*
X110801477Y-124050000D01*
X110801477Y-124050000D02*
X117201477Y-130450000D01*
M02*
