G04 #@! TF.GenerationSoftware,KiCad,Pcbnew,7.0.10*
G04 #@! TF.CreationDate,2024-02-18T13:34:34-06:00*
G04 #@! TF.ProjectId,airplane-keychain,61697270-6c61-46e6-952d-6b6579636861,1*
G04 #@! TF.SameCoordinates,Original*
G04 #@! TF.FileFunction,Soldermask,Top*
G04 #@! TF.FilePolarity,Negative*
%FSLAX46Y46*%
G04 Gerber Fmt 4.6, Leading zero omitted, Abs format (unit mm)*
G04 Created by KiCad (PCBNEW 7.0.10) date 2024-02-18 13:34:34*
%MOMM*%
%LPD*%
G01*
G04 APERTURE LIST*
G04 Aperture macros list*
%AMHorizOval*
0 Thick line with rounded ends*
0 $1 width*
0 $2 $3 position (X,Y) of the first rounded end (center of the circle)*
0 $4 $5 position (X,Y) of the second rounded end (center of the circle)*
0 Add line between two ends*
20,1,$1,$2,$3,$4,$5,0*
0 Add two circle primitives to create the rounded ends*
1,1,$1,$2,$3*
1,1,$1,$4,$5*%
G04 Aperture macros list end*
%ADD10R,1.800000X1.800000*%
%ADD11C,1.800000*%
%ADD12C,1.600000*%
%ADD13HorizOval,1.600000X0.000000X0.000000X0.000000X0.000000X0*%
%ADD14HorizOval,1.600000X0.000000X0.000000X0.000000X0.000000X0*%
%ADD15O,1.600000X1.600000*%
%ADD16HorizOval,1.600000X0.000000X0.000000X0.000000X0.000000X0*%
%ADD17C,2.000000*%
%ADD18R,1.600000X1.600000*%
%ADD19HorizOval,1.600000X0.000000X0.000000X0.000000X0.000000X0*%
%ADD20C,4.300000*%
G04 APERTURE END LIST*
D10*
X167800000Y-115000000D03*
D11*
X167800000Y-112460000D03*
D10*
X112550000Y-72200000D03*
D11*
X110010000Y-72200000D03*
D10*
X115140000Y-78100000D03*
D11*
X112600000Y-78100000D03*
D10*
X105800000Y-76100000D03*
D11*
X103260000Y-76100000D03*
D12*
X155401477Y-66950000D03*
D13*
X166400000Y-73300000D03*
D12*
X108299261Y-66225000D03*
D14*
X97300738Y-72575000D03*
D12*
X128500000Y-54200000D03*
D14*
X117501477Y-60550000D03*
D12*
X167000000Y-82300000D03*
D15*
X167000000Y-95000000D03*
D12*
X149440739Y-127635000D03*
D16*
X160439262Y-121285000D03*
D12*
X133401477Y-54250000D03*
D13*
X144400000Y-60600000D03*
D17*
X101300000Y-110700000D03*
X94800000Y-110700000D03*
X101300000Y-106200000D03*
X94800000Y-106200000D03*
D18*
X95600000Y-82180000D03*
D15*
X95600000Y-89800000D03*
D10*
X116800000Y-70300000D03*
D11*
X119340000Y-70300000D03*
D10*
X162500000Y-107600000D03*
D11*
X159960000Y-107600000D03*
D10*
X156400000Y-112225000D03*
D11*
X156400000Y-114765000D03*
D10*
X166160000Y-104300000D03*
D11*
X168700000Y-104300000D03*
D12*
X101300000Y-101300000D03*
D15*
X101300000Y-88600000D03*
D12*
X106498523Y-124050000D03*
D19*
X95500000Y-117700000D03*
D20*
X130800000Y-46600000D03*
D10*
X120625000Y-74800000D03*
D11*
X123165000Y-74800000D03*
D12*
X117201477Y-130450000D03*
D13*
X128200000Y-136800000D03*
D12*
X133800739Y-136675000D03*
D16*
X144799262Y-130325000D03*
D18*
X140580000Y-74200000D03*
D15*
X143120000Y-74200000D03*
X145660000Y-74200000D03*
X148200000Y-74200000D03*
X148200000Y-66580000D03*
X145660000Y-66580000D03*
X143120000Y-66580000D03*
X140580000Y-66580000D03*
M02*
