%TF.GenerationSoftware,KiCad,Pcbnew,10.0.1*%
%TF.CreationDate,2026-04-23T14:45:30-05:00*%
%TF.ProjectId,airplane-keychain,61697270-6c61-46e6-952d-6b6579636861,1.5*%
%TF.SameCoordinates,Original*%
%TF.FileFunction,Legend,Top*%
%TF.FilePolarity,Positive*%
%FSLAX46Y46*%
G04 Gerber Fmt 4.6, Leading zero omitted, Abs format (unit mm)*
G04 Created by KiCad (PCBNEW 10.0.1) date 2026-04-23 14:45:30*
%MOMM*%
%LPD*%
G01*
G04 APERTURE LIST*
%ADD10C,0.150000*%
%ADD11C,0.120000*%
%ADD12C,0.000000*%
G04 APERTURE END LIST*
D10*
G36*
X131427233Y-101582732D02*
G01*
X131427233Y-101782400D01*
X130987840Y-101782400D01*
X130987840Y-103360453D01*
X131427233Y-103360453D01*
X131427233Y-103560000D01*
X130295778Y-103560000D01*
X130295778Y-103360453D01*
X130735170Y-103360453D01*
X130735170Y-101782400D01*
X130295778Y-101782400D01*
X130295778Y-101582732D01*
X131427233Y-101582732D01*
G37*
G36*
X132009996Y-103560000D02*
G01*
X132009996Y-102048014D01*
X132215404Y-102048014D01*
X132234089Y-102257697D01*
X132300334Y-102186192D01*
X132376556Y-102126801D01*
X132463799Y-102078911D01*
X132602499Y-102031490D01*
X132733688Y-102016385D01*
X132845428Y-102025038D01*
X132933712Y-102048759D01*
X133003241Y-102085333D01*
X133057554Y-102134232D01*
X133111650Y-102218279D01*
X133146228Y-102325263D01*
X133158792Y-102461517D01*
X133158792Y-103560000D01*
X132917480Y-103560000D01*
X132917480Y-102639570D01*
X132912633Y-102491982D01*
X132900261Y-102389710D01*
X132872055Y-102304765D01*
X132827721Y-102250491D01*
X132763166Y-102218495D01*
X132659071Y-102205917D01*
X132572541Y-102215670D01*
X132491765Y-102244752D01*
X132417503Y-102288549D01*
X132352424Y-102341716D01*
X132295590Y-102401288D01*
X132251308Y-102458709D01*
X132251308Y-103560000D01*
X132009996Y-103560000D01*
G37*
G36*
X133731420Y-103560000D02*
G01*
X133731420Y-102048014D01*
X133936828Y-102048014D01*
X133955512Y-102257697D01*
X134021758Y-102186192D01*
X134097980Y-102126801D01*
X134185223Y-102078911D01*
X134323923Y-102031490D01*
X134455111Y-102016385D01*
X134566852Y-102025038D01*
X134655135Y-102048759D01*
X134724664Y-102085333D01*
X134778977Y-102134232D01*
X134833074Y-102218279D01*
X134867651Y-102325263D01*
X134880216Y-102461517D01*
X134880216Y-103560000D01*
X134638904Y-103560000D01*
X134638904Y-102639570D01*
X134634057Y-102491982D01*
X134621685Y-102389710D01*
X134593478Y-102304765D01*
X134549145Y-102250491D01*
X134484590Y-102218495D01*
X134380495Y-102205917D01*
X134293965Y-102215670D01*
X134213189Y-102244752D01*
X134138926Y-102288549D01*
X134073848Y-102341716D01*
X134017014Y-102401288D01*
X133972732Y-102458709D01*
X133972732Y-103560000D01*
X133731420Y-103560000D01*
G37*
G36*
X136156665Y-102025889D02*
G01*
X136266338Y-102052848D01*
X136360734Y-102095822D01*
X136442259Y-102154628D01*
X136512491Y-102230341D01*
X136581133Y-102340335D01*
X136632215Y-102469971D01*
X136664703Y-102622851D01*
X136676256Y-102803335D01*
X136667418Y-102956040D01*
X136642082Y-103091685D01*
X136601517Y-103212564D01*
X136542805Y-103324495D01*
X136469774Y-103416804D01*
X136381821Y-103491856D01*
X136280777Y-103546837D01*
X136163374Y-103580975D01*
X136025837Y-103592972D01*
X135897941Y-103583439D01*
X135788129Y-103556369D01*
X135693377Y-103513162D01*
X135611318Y-103453967D01*
X135540404Y-103377672D01*
X135471004Y-103266843D01*
X135419519Y-103137058D01*
X135386874Y-102984882D01*
X135375296Y-102806144D01*
X135633827Y-102806144D01*
X135641450Y-102961180D01*
X135662081Y-103083111D01*
X135692939Y-103177859D01*
X135732135Y-103250544D01*
X135786975Y-103313318D01*
X135852574Y-103357712D01*
X135931045Y-103385178D01*
X136025837Y-103394891D01*
X136120586Y-103385145D01*
X136199020Y-103357579D01*
X136264595Y-103313004D01*
X136319417Y-103249933D01*
X136358652Y-103176905D01*
X136389550Y-103081693D01*
X136410212Y-102959152D01*
X136417847Y-102803335D01*
X136410250Y-102647347D01*
X136389711Y-102524923D01*
X136359039Y-102430036D01*
X136320150Y-102357470D01*
X136265706Y-102294644D01*
X136200591Y-102250262D01*
X136122716Y-102222823D01*
X136028646Y-102213122D01*
X135933911Y-102222852D01*
X135855194Y-102250412D01*
X135789113Y-102295032D01*
X135733600Y-102358203D01*
X135693834Y-102431247D01*
X135662519Y-102526635D01*
X135641572Y-102649585D01*
X135633827Y-102806144D01*
X135375296Y-102806144D01*
X135384130Y-102652442D01*
X135409436Y-102516117D01*
X135449912Y-102394839D01*
X135508834Y-102282556D01*
X135582109Y-102190533D01*
X135670341Y-102116280D01*
X135771865Y-102062020D01*
X135890036Y-102028262D01*
X136028646Y-102016385D01*
X136156665Y-102025889D01*
G37*
G36*
X138435048Y-102048014D02*
G01*
X137885136Y-103560000D01*
X137605111Y-103560000D01*
X137059473Y-102048014D01*
X137315073Y-102048014D01*
X137753000Y-103340303D01*
X138185188Y-102048014D01*
X138435048Y-102048014D01*
G37*
G36*
X139554780Y-102026062D02*
G01*
X139669617Y-102052747D01*
X139762117Y-102093918D01*
X139836270Y-102148520D01*
X139897544Y-102219001D01*
X139941539Y-102300290D01*
X139968836Y-102394510D01*
X139978419Y-102504626D01*
X139978419Y-103229783D01*
X139987176Y-103314177D01*
X140008583Y-103363262D01*
X140045514Y-103398200D01*
X140101884Y-103423590D01*
X140043021Y-103592972D01*
X139950294Y-103570543D01*
X139872051Y-103530568D01*
X139810166Y-103469969D01*
X139765928Y-103380481D01*
X139706698Y-103444807D01*
X139638782Y-103497507D01*
X139561252Y-103539239D01*
X139434061Y-103579245D01*
X139292096Y-103592972D01*
X139179443Y-103584143D01*
X139084229Y-103559211D01*
X139003371Y-103519557D01*
X138934525Y-103465233D01*
X138878238Y-103397481D01*
X138837762Y-103319818D01*
X138812655Y-103230319D01*
X138803855Y-103126346D01*
X138804154Y-103123538D01*
X139062264Y-103123538D01*
X139075197Y-103231196D01*
X139109933Y-103307846D01*
X139164575Y-103361731D01*
X139242965Y-103396261D01*
X139353768Y-103409180D01*
X139462603Y-103395136D01*
X139566992Y-103352515D01*
X139659353Y-103285279D01*
X139735764Y-103195223D01*
X139735764Y-102806144D01*
X139517533Y-102806144D01*
X139351964Y-102818081D01*
X139239190Y-102848656D01*
X139164968Y-102892362D01*
X139108215Y-102955843D01*
X139074162Y-103031611D01*
X139062264Y-103123538D01*
X138804154Y-103123538D01*
X138815865Y-103013425D01*
X138850140Y-102918248D01*
X138906154Y-102837002D01*
X138986182Y-102767431D01*
X139078466Y-102716648D01*
X139193754Y-102677509D01*
X139336802Y-102651842D01*
X139513136Y-102642501D01*
X139735764Y-102642501D01*
X139735764Y-102516106D01*
X139723639Y-102411614D01*
X139691116Y-102336970D01*
X139640265Y-102284319D01*
X139573168Y-102248242D01*
X139486583Y-102224699D01*
X139375383Y-102216053D01*
X139297795Y-102220180D01*
X139200139Y-102234005D01*
X139098224Y-102257064D01*
X138981908Y-102293478D01*
X138918649Y-102111151D01*
X139055565Y-102066244D01*
X139179256Y-102038000D01*
X139300825Y-102021623D01*
X139412630Y-102016385D01*
X139554780Y-102026062D01*
G37*
G36*
X141817568Y-103483918D02*
G01*
X141734188Y-103528787D01*
X141629378Y-103564274D01*
X141518978Y-103585923D01*
X141412613Y-103592972D01*
X141290554Y-103583917D01*
X141189522Y-103558615D01*
X141105762Y-103518903D01*
X141036357Y-103465233D01*
X140978967Y-103397315D01*
X140938128Y-103321077D01*
X140913057Y-103234864D01*
X140904344Y-103136360D01*
X140904344Y-102234616D01*
X140556908Y-102234616D01*
X140556908Y-102048014D01*
X140904344Y-102048014D01*
X140904344Y-101704853D01*
X141145533Y-101676154D01*
X141145533Y-102048014D01*
X141668213Y-102048014D01*
X141639515Y-102234616D01*
X141145533Y-102234616D01*
X141145533Y-103133551D01*
X141153841Y-103215198D01*
X141176602Y-103277891D01*
X141212334Y-103326015D01*
X141261375Y-103360146D01*
X141332713Y-103383163D01*
X141434228Y-103391960D01*
X141516887Y-103386794D01*
X141590666Y-103371933D01*
X141724267Y-103320153D01*
X141817568Y-103483918D01*
G37*
G36*
X143075360Y-102029595D02*
G01*
X143194356Y-102067302D01*
X143296989Y-102128473D01*
X143385973Y-102214588D01*
X143454908Y-102317087D01*
X143506169Y-102439071D01*
X143538824Y-102584272D01*
X143550471Y-102757295D01*
X143548272Y-102830568D01*
X143544731Y-102889431D01*
X142528070Y-102889431D01*
X142542382Y-103022053D01*
X142571597Y-103126689D01*
X142613329Y-103208662D01*
X142666678Y-103272159D01*
X142758063Y-103339014D01*
X142858249Y-103378521D01*
X142970394Y-103391960D01*
X143082953Y-103383012D01*
X143179954Y-103357522D01*
X143272694Y-103316096D01*
X143373883Y-103255551D01*
X143487334Y-103414919D01*
X143375658Y-103488632D01*
X143246022Y-103545589D01*
X143107913Y-103581171D01*
X142967463Y-103592972D01*
X142822955Y-103581197D01*
X142699047Y-103547698D01*
X142592062Y-103493932D01*
X142497907Y-103419808D01*
X142419684Y-103328409D01*
X142356489Y-103217571D01*
X142312486Y-103096814D01*
X142285002Y-102960535D01*
X142275401Y-102806144D01*
X142281902Y-102702829D01*
X142529535Y-102702829D01*
X143317829Y-102702829D01*
X143302134Y-102543811D01*
X143265450Y-102425024D01*
X143211584Y-102337320D01*
X143136339Y-102269391D01*
X143046904Y-102228755D01*
X142938764Y-102214588D01*
X142831831Y-102228091D01*
X142739195Y-102267428D01*
X142657274Y-102333778D01*
X142610136Y-102395915D01*
X142572303Y-102475477D01*
X142544757Y-102576240D01*
X142529535Y-102702829D01*
X142281902Y-102702829D01*
X142284929Y-102654728D01*
X142312345Y-102519577D01*
X142356489Y-102398381D01*
X142419246Y-102286480D01*
X142495650Y-102193865D01*
X142586322Y-102118356D01*
X142689578Y-102062382D01*
X142805138Y-102028208D01*
X142935956Y-102016385D01*
X143075360Y-102029595D01*
G37*
G36*
X144632955Y-103087634D02*
G01*
X144696164Y-103095334D01*
X144750749Y-103117689D01*
X144798796Y-103155167D01*
X144836083Y-103203449D01*
X144858093Y-103256897D01*
X144865596Y-103317344D01*
X144853384Y-103422124D01*
X144809542Y-103542780D01*
X144576901Y-104075474D01*
X144358670Y-104075474D01*
X144496545Y-103508342D01*
X144444796Y-103457316D01*
X144413938Y-103394886D01*
X144403122Y-103317344D01*
X144410556Y-103256848D01*
X144432342Y-103203397D01*
X144469190Y-103155167D01*
X144516757Y-103117644D01*
X144570660Y-103095314D01*
X144632955Y-103087634D01*
G37*
G36*
X148106483Y-101588677D02*
G01*
X148232240Y-101606423D01*
X148352397Y-101638866D01*
X148457676Y-101686901D01*
X148548142Y-101753637D01*
X148617777Y-101839797D01*
X148649839Y-101906442D01*
X148670141Y-101985912D01*
X148677372Y-102080987D01*
X148663535Y-102201957D01*
X148624982Y-102297142D01*
X148564415Y-102376922D01*
X148488572Y-102438558D01*
X148401621Y-102483876D01*
X148309787Y-102513175D01*
X148417171Y-102539420D01*
X148523011Y-102581441D01*
X148617736Y-102643010D01*
X148695324Y-102730062D01*
X148731629Y-102799343D01*
X148755070Y-102886414D01*
X148763590Y-102995676D01*
X148755812Y-103102298D01*
X148733987Y-103191538D01*
X148699598Y-103266420D01*
X148624887Y-103363877D01*
X148528750Y-103439344D01*
X148416716Y-103494408D01*
X148290369Y-103532034D01*
X148158064Y-103552981D01*
X148022679Y-103560000D01*
X147491329Y-103560000D01*
X147491329Y-103354713D01*
X147739724Y-103354713D01*
X148065666Y-103354713D01*
X148163322Y-103348187D01*
X148263869Y-103328213D01*
X148356527Y-103289262D01*
X148432519Y-103226242D01*
X148468642Y-103171885D01*
X148492115Y-103099695D01*
X148500785Y-103004347D01*
X148493328Y-102906122D01*
X148473195Y-102830959D01*
X148442655Y-102773904D01*
X148375133Y-102705216D01*
X148288293Y-102661186D01*
X148189053Y-102637710D01*
X148077267Y-102629556D01*
X147739724Y-102629556D01*
X147739724Y-103354713D01*
X147491329Y-103354713D01*
X147491329Y-102424148D01*
X147739724Y-102424148D01*
X148058583Y-102424148D01*
X148172936Y-102414254D01*
X148260693Y-102387366D01*
X148327739Y-102345990D01*
X148377643Y-102287208D01*
X148409808Y-102205754D01*
X148421772Y-102093932D01*
X148408752Y-101987178D01*
X148373526Y-101910042D01*
X148317725Y-101854818D01*
X148244934Y-101817188D01*
X148152103Y-101792700D01*
X148034159Y-101783743D01*
X147739724Y-101783743D01*
X147739724Y-102424148D01*
X147491329Y-102424148D01*
X147491329Y-101582732D01*
X147978105Y-101582732D01*
X148106483Y-101588677D01*
G37*
G36*
X149465544Y-102048014D02*
G01*
X149465544Y-103119141D01*
X149473762Y-103217084D01*
X149495303Y-103286451D01*
X149527215Y-103334563D01*
X149572777Y-103369521D01*
X149635110Y-103392200D01*
X149719678Y-103400631D01*
X149800949Y-103392831D01*
X149879242Y-103369422D01*
X149955861Y-103329556D01*
X150056169Y-103250436D01*
X150128907Y-103160785D01*
X150128907Y-102048014D01*
X150370097Y-102048014D01*
X150370097Y-103560000D01*
X150164811Y-103560000D01*
X150144661Y-103356057D01*
X150080425Y-103426849D01*
X150007243Y-103485263D01*
X149924232Y-103532034D01*
X149791176Y-103578083D01*
X149660816Y-103592972D01*
X149550831Y-103584533D01*
X149462009Y-103561185D01*
X149390314Y-103524854D01*
X149332676Y-103475980D01*
X149274542Y-103391793D01*
X149237620Y-103284594D01*
X149224232Y-103147840D01*
X149224232Y-102048014D01*
X149465544Y-102048014D01*
G37*
G36*
X151518649Y-101340076D02*
G01*
X151592267Y-101352798D01*
X151647121Y-101388925D01*
X151683128Y-101442951D01*
X151695237Y-101508115D01*
X151683025Y-101575930D01*
X151647121Y-101630969D01*
X151592215Y-101667569D01*
X151518649Y-101680429D01*
X151448647Y-101667773D01*
X151393719Y-101630969D01*
X151357245Y-101575872D01*
X151344870Y-101508115D01*
X151357140Y-101443008D01*
X151393719Y-101388925D01*
X151448597Y-101352595D01*
X151518649Y-101340076D01*
G37*
G36*
X151710990Y-102048014D02*
G01*
X151710990Y-103369002D01*
X152137438Y-103369002D01*
X152137438Y-103560000D01*
X151003175Y-103560000D01*
X151003175Y-103369002D01*
X151469801Y-103369002D01*
X151469801Y-102239012D01*
X151017463Y-102239012D01*
X151017463Y-102048014D01*
X151710990Y-102048014D01*
G37*
G36*
X153255826Y-101439239D02*
G01*
X153255826Y-103186674D01*
X153264548Y-103257768D01*
X153288113Y-103308905D01*
X153325436Y-103345310D01*
X153402182Y-103379456D01*
X153505687Y-103391960D01*
X153635624Y-103377672D01*
X153759822Y-103338838D01*
X153824424Y-103515547D01*
X153758563Y-103542870D01*
X153671528Y-103569281D01*
X153577025Y-103586744D01*
X153465509Y-103592972D01*
X153335698Y-103579693D01*
X153228659Y-103542208D01*
X153139567Y-103481720D01*
X153085867Y-103422098D01*
X153047214Y-103352368D01*
X153023132Y-103270521D01*
X153014637Y-103173729D01*
X153014637Y-101630115D01*
X152550819Y-101630115D01*
X152550819Y-101439239D01*
X153255826Y-101439239D01*
G37*
G36*
X155534368Y-101439239D02*
G01*
X155534368Y-103560000D01*
X155323342Y-103560000D01*
X155300383Y-103360453D01*
X155239104Y-103435742D01*
X155174340Y-103493920D01*
X155105722Y-103537041D01*
X154992347Y-103578942D01*
X154871004Y-103592972D01*
X154743178Y-103581130D01*
X154636368Y-103547659D01*
X154546406Y-103493932D01*
X154470128Y-103421038D01*
X154406974Y-103329918D01*
X154356873Y-103217571D01*
X154323622Y-103097818D01*
X154302596Y-102961455D01*
X154295202Y-102806144D01*
X154558007Y-102806144D01*
X154568684Y-102991578D01*
X154597069Y-103130481D01*
X154638833Y-103232576D01*
X154691452Y-103305895D01*
X154754532Y-103356307D01*
X154829899Y-103386933D01*
X154921318Y-103397700D01*
X155003949Y-103389346D01*
X155076422Y-103365168D01*
X155140893Y-103325282D01*
X155225429Y-103247022D01*
X155293178Y-103159441D01*
X155293178Y-102404120D01*
X155224119Y-102321635D01*
X155143824Y-102261238D01*
X155052343Y-102223155D01*
X154951360Y-102210314D01*
X154859906Y-102220040D01*
X154782667Y-102247822D01*
X154716587Y-102293258D01*
X154659856Y-102358203D01*
X154619018Y-102432832D01*
X154587070Y-102529000D01*
X154565825Y-102651561D01*
X154558007Y-102806144D01*
X154295202Y-102806144D01*
X154303480Y-102656141D01*
X154327299Y-102521612D01*
X154365544Y-102400579D01*
X154420912Y-102287286D01*
X154488596Y-102194333D01*
X154568754Y-102119089D01*
X154661924Y-102062660D01*
X154767353Y-102028297D01*
X154888224Y-102016385D01*
X155010577Y-102028069D01*
X155116889Y-102061678D01*
X155210370Y-102116624D01*
X155293178Y-102194438D01*
X155293178Y-101409075D01*
X155534368Y-101439239D01*
G37*
G36*
X156682920Y-103087634D02*
G01*
X156746129Y-103095334D01*
X156800714Y-103117689D01*
X156848761Y-103155167D01*
X156886048Y-103203449D01*
X156908058Y-103256897D01*
X156915561Y-103317344D01*
X156903349Y-103422124D01*
X156859508Y-103542780D01*
X156626866Y-104075474D01*
X156408635Y-104075474D01*
X156546510Y-103508342D01*
X156494761Y-103457316D01*
X156463903Y-103394886D01*
X156453087Y-103317344D01*
X156460521Y-103256848D01*
X156482307Y-103203397D01*
X156519155Y-103155167D01*
X156566722Y-103117644D01*
X156620625Y-103095314D01*
X156682920Y-103087634D01*
G37*
G36*
X159653279Y-103560000D02*
G01*
X159653279Y-101582732D01*
X159903140Y-101582732D01*
X159903140Y-103337494D01*
X160804884Y-103337494D01*
X160776186Y-103560000D01*
X159653279Y-103560000D01*
G37*
G36*
X161933286Y-102026062D02*
G01*
X162048123Y-102052747D01*
X162140624Y-102093918D01*
X162214776Y-102148520D01*
X162276051Y-102219001D01*
X162320045Y-102300290D01*
X162347342Y-102394510D01*
X162356926Y-102504626D01*
X162356926Y-103229783D01*
X162365683Y-103314177D01*
X162387090Y-103363262D01*
X162424021Y-103398200D01*
X162480390Y-103423590D01*
X162421528Y-103592972D01*
X162328801Y-103570543D01*
X162250558Y-103530568D01*
X162188673Y-103469969D01*
X162144434Y-103380481D01*
X162085205Y-103444807D01*
X162017289Y-103497507D01*
X161939759Y-103539239D01*
X161812567Y-103579245D01*
X161670603Y-103592972D01*
X161557949Y-103584143D01*
X161462735Y-103559211D01*
X161381877Y-103519557D01*
X161313032Y-103465233D01*
X161256744Y-103397481D01*
X161216268Y-103319818D01*
X161191162Y-103230319D01*
X161182362Y-103126346D01*
X161182661Y-103123538D01*
X161440771Y-103123538D01*
X161453703Y-103231196D01*
X161488439Y-103307846D01*
X161543081Y-103361731D01*
X161621471Y-103396261D01*
X161732274Y-103409180D01*
X161841109Y-103395136D01*
X161945498Y-103352515D01*
X162037860Y-103285279D01*
X162114270Y-103195223D01*
X162114270Y-102806144D01*
X161896039Y-102806144D01*
X161730471Y-102818081D01*
X161617697Y-102848656D01*
X161543475Y-102892362D01*
X161486722Y-102955843D01*
X161452669Y-103031611D01*
X161440771Y-103123538D01*
X161182661Y-103123538D01*
X161194372Y-103013425D01*
X161228647Y-102918248D01*
X161284661Y-102837002D01*
X161364689Y-102767431D01*
X161456972Y-102716648D01*
X161572261Y-102677509D01*
X161715309Y-102651842D01*
X161891643Y-102642501D01*
X162114270Y-102642501D01*
X162114270Y-102516106D01*
X162102146Y-102411614D01*
X162069622Y-102336970D01*
X162018771Y-102284319D01*
X161951674Y-102248242D01*
X161865090Y-102224699D01*
X161753890Y-102216053D01*
X161676301Y-102220180D01*
X161578646Y-102234005D01*
X161476730Y-102257064D01*
X161360415Y-102293478D01*
X161297156Y-102111151D01*
X161434071Y-102066244D01*
X161557763Y-102038000D01*
X161679332Y-102021623D01*
X161791137Y-102016385D01*
X161933286Y-102026062D01*
G37*
G36*
X163236933Y-102048014D02*
G01*
X163236933Y-103119141D01*
X163245151Y-103217084D01*
X163266692Y-103286451D01*
X163298604Y-103334563D01*
X163344166Y-103369521D01*
X163406498Y-103392200D01*
X163491067Y-103400631D01*
X163572338Y-103392831D01*
X163650631Y-103369422D01*
X163727250Y-103329556D01*
X163827558Y-103250436D01*
X163900296Y-103160785D01*
X163900296Y-102048014D01*
X164141486Y-102048014D01*
X164141486Y-103560000D01*
X163936200Y-103560000D01*
X163916050Y-103356057D01*
X163851814Y-103426849D01*
X163778632Y-103485263D01*
X163695621Y-103532034D01*
X163562565Y-103578083D01*
X163432205Y-103592972D01*
X163322220Y-103584533D01*
X163233398Y-103561185D01*
X163161702Y-103524854D01*
X163104064Y-103475980D01*
X163045931Y-103391793D01*
X163009009Y-103284594D01*
X162995621Y-103147840D01*
X162995621Y-102048014D01*
X163236933Y-102048014D01*
G37*
G36*
X164717044Y-103560000D02*
G01*
X164717044Y-102048014D01*
X164922452Y-102048014D01*
X164941137Y-102257697D01*
X165007382Y-102186192D01*
X165083604Y-102126801D01*
X165170847Y-102078911D01*
X165309547Y-102031490D01*
X165440736Y-102016385D01*
X165552476Y-102025038D01*
X165640760Y-102048759D01*
X165710289Y-102085333D01*
X165764602Y-102134232D01*
X165818699Y-102218279D01*
X165853276Y-102325263D01*
X165865840Y-102461517D01*
X165865840Y-103560000D01*
X165624528Y-103560000D01*
X165624528Y-102639570D01*
X165619682Y-102491982D01*
X165607309Y-102389710D01*
X165579103Y-102304765D01*
X165534769Y-102250491D01*
X165470215Y-102218495D01*
X165366120Y-102205917D01*
X165279589Y-102215670D01*
X165198813Y-102244752D01*
X165124551Y-102288549D01*
X165059473Y-102341716D01*
X165002638Y-102401288D01*
X164958356Y-102458709D01*
X164958356Y-103560000D01*
X164717044Y-103560000D01*
G37*
G36*
X167121981Y-103384877D02*
G01*
X167232655Y-103375543D01*
X167333740Y-103348241D01*
X167428704Y-103305880D01*
X167515457Y-103252742D01*
X167633182Y-103410645D01*
X167525898Y-103485391D01*
X167394801Y-103544246D01*
X167255333Y-103581084D01*
X167121981Y-103592972D01*
X166974344Y-103581439D01*
X166847522Y-103548647D01*
X166737909Y-103496130D01*
X166640923Y-103423089D01*
X166560650Y-103332836D01*
X166495987Y-103223311D01*
X166450875Y-103103280D01*
X166422609Y-102966606D01*
X166412700Y-102810418D01*
X166422408Y-102661076D01*
X166450488Y-102526352D01*
X166495987Y-102404120D01*
X166560636Y-102291875D01*
X166641173Y-102197994D01*
X166738642Y-102120554D01*
X166849203Y-102063910D01*
X166976714Y-102028726D01*
X167124912Y-102016385D01*
X167266562Y-102027639D01*
X167396639Y-102060580D01*
X167517308Y-102114919D01*
X167630251Y-102191629D01*
X167512526Y-102352463D01*
X167376651Y-102275129D01*
X167247381Y-102231464D01*
X167121981Y-102217397D01*
X167027497Y-102226842D01*
X166943799Y-102254275D01*
X166868576Y-102299658D01*
X166800314Y-102364675D01*
X166748763Y-102440649D01*
X166709329Y-102537047D01*
X166683481Y-102658450D01*
X166674040Y-102810418D01*
X166683717Y-102965358D01*
X166709898Y-103085854D01*
X166749326Y-103178637D01*
X166800314Y-103249200D01*
X166867860Y-103308590D01*
X166942847Y-103350500D01*
X167026814Y-103376044D01*
X167121981Y-103384877D01*
G37*
G36*
X168401203Y-101416158D02*
G01*
X168401203Y-102254766D01*
X168465581Y-102182199D01*
X168538299Y-102123165D01*
X168620167Y-102076713D01*
X168752129Y-102031207D01*
X168883583Y-102016385D01*
X168994488Y-102025004D01*
X169082457Y-102048674D01*
X169152056Y-102085247D01*
X169206716Y-102134232D01*
X169261232Y-102218335D01*
X169296044Y-102325320D01*
X169308688Y-102461517D01*
X169308688Y-103560000D01*
X169067376Y-103560000D01*
X169067376Y-102467257D01*
X169059155Y-102378451D01*
X169037311Y-102314235D01*
X169004239Y-102268443D01*
X168958083Y-102235636D01*
X168893977Y-102214024D01*
X168806036Y-102205917D01*
X168722150Y-102215608D01*
X168642393Y-102244752D01*
X168568564Y-102288318D01*
X168503053Y-102340983D01*
X168445784Y-102400237D01*
X168401203Y-102458709D01*
X168401203Y-103560000D01*
X168159891Y-103560000D01*
X168159891Y-101442048D01*
X168401203Y-101416158D01*
G37*
X163724819Y-76638094D02*
X162724819Y-76638094D01*
X162724819Y-76638094D02*
X162724819Y-76399999D01*
X162724819Y-76399999D02*
X162772438Y-76257142D01*
X162772438Y-76257142D02*
X162867676Y-76161904D01*
X162867676Y-76161904D02*
X162962914Y-76114285D01*
X162962914Y-76114285D02*
X163153390Y-76066666D01*
X163153390Y-76066666D02*
X163296247Y-76066666D01*
X163296247Y-76066666D02*
X163486723Y-76114285D01*
X163486723Y-76114285D02*
X163581961Y-76161904D01*
X163581961Y-76161904D02*
X163677200Y-76257142D01*
X163677200Y-76257142D02*
X163724819Y-76399999D01*
X163724819Y-76399999D02*
X163724819Y-76638094D01*
X162724819Y-75161904D02*
X162724819Y-75638094D01*
X162724819Y-75638094D02*
X163201009Y-75685713D01*
X163201009Y-75685713D02*
X163153390Y-75638094D01*
X163153390Y-75638094D02*
X163105771Y-75542856D01*
X163105771Y-75542856D02*
X163105771Y-75304761D01*
X163105771Y-75304761D02*
X163153390Y-75209523D01*
X163153390Y-75209523D02*
X163201009Y-75161904D01*
X163201009Y-75161904D02*
X163296247Y-75114285D01*
X163296247Y-75114285D02*
X163534342Y-75114285D01*
X163534342Y-75114285D02*
X163629580Y-75161904D01*
X163629580Y-75161904D02*
X163677200Y-75209523D01*
X163677200Y-75209523D02*
X163724819Y-75304761D01*
X163724819Y-75304761D02*
X163724819Y-75542856D01*
X163724819Y-75542856D02*
X163677200Y-75638094D01*
X163677200Y-75638094D02*
X163629580Y-75685713D01*
X149376667Y-69527200D02*
X149519524Y-69574819D01*
X149519524Y-69574819D02*
X149757619Y-69574819D01*
X149757619Y-69574819D02*
X149852857Y-69527200D01*
X149852857Y-69527200D02*
X149900476Y-69479580D01*
X149900476Y-69479580D02*
X149948095Y-69384342D01*
X149948095Y-69384342D02*
X149948095Y-69289104D01*
X149948095Y-69289104D02*
X149900476Y-69193866D01*
X149900476Y-69193866D02*
X149852857Y-69146247D01*
X149852857Y-69146247D02*
X149757619Y-69098628D01*
X149757619Y-69098628D02*
X149567143Y-69051009D01*
X149567143Y-69051009D02*
X149471905Y-69003390D01*
X149471905Y-69003390D02*
X149424286Y-68955771D01*
X149424286Y-68955771D02*
X149376667Y-68860533D01*
X149376667Y-68860533D02*
X149376667Y-68765295D01*
X149376667Y-68765295D02*
X149424286Y-68670057D01*
X149424286Y-68670057D02*
X149471905Y-68622438D01*
X149471905Y-68622438D02*
X149567143Y-68574819D01*
X149567143Y-68574819D02*
X149805238Y-68574819D01*
X149805238Y-68574819D02*
X149948095Y-68622438D01*
X150281429Y-68574819D02*
X150519524Y-69574819D01*
X150519524Y-69574819D02*
X150710000Y-68860533D01*
X150710000Y-68860533D02*
X150900476Y-69574819D01*
X150900476Y-69574819D02*
X151138572Y-68574819D01*
X151471905Y-68670057D02*
X151519524Y-68622438D01*
X151519524Y-68622438D02*
X151614762Y-68574819D01*
X151614762Y-68574819D02*
X151852857Y-68574819D01*
X151852857Y-68574819D02*
X151948095Y-68622438D01*
X151948095Y-68622438D02*
X151995714Y-68670057D01*
X151995714Y-68670057D02*
X152043333Y-68765295D01*
X152043333Y-68765295D02*
X152043333Y-68860533D01*
X152043333Y-68860533D02*
X151995714Y-69003390D01*
X151995714Y-69003390D02*
X151424286Y-69574819D01*
X151424286Y-69574819D02*
X152043333Y-69574819D01*
X145324819Y-84338094D02*
X144324819Y-84338094D01*
X144324819Y-84338094D02*
X144324819Y-84099999D01*
X144324819Y-84099999D02*
X144372438Y-83957142D01*
X144372438Y-83957142D02*
X144467676Y-83861904D01*
X144467676Y-83861904D02*
X144562914Y-83814285D01*
X144562914Y-83814285D02*
X144753390Y-83766666D01*
X144753390Y-83766666D02*
X144896247Y-83766666D01*
X144896247Y-83766666D02*
X145086723Y-83814285D01*
X145086723Y-83814285D02*
X145181961Y-83861904D01*
X145181961Y-83861904D02*
X145277200Y-83957142D01*
X145277200Y-83957142D02*
X145324819Y-84099999D01*
X145324819Y-84099999D02*
X145324819Y-84338094D01*
X144658152Y-82909523D02*
X145324819Y-82909523D01*
X144277200Y-83147618D02*
X144991485Y-83385713D01*
X144991485Y-83385713D02*
X144991485Y-82766666D01*
X136070833Y-97324819D02*
X135737500Y-96848628D01*
X135499405Y-97324819D02*
X135499405Y-96324819D01*
X135499405Y-96324819D02*
X135880357Y-96324819D01*
X135880357Y-96324819D02*
X135975595Y-96372438D01*
X135975595Y-96372438D02*
X136023214Y-96420057D01*
X136023214Y-96420057D02*
X136070833Y-96515295D01*
X136070833Y-96515295D02*
X136070833Y-96658152D01*
X136070833Y-96658152D02*
X136023214Y-96753390D01*
X136023214Y-96753390D02*
X135975595Y-96801009D01*
X135975595Y-96801009D02*
X135880357Y-96848628D01*
X135880357Y-96848628D02*
X135499405Y-96848628D01*
X136451786Y-96420057D02*
X136499405Y-96372438D01*
X136499405Y-96372438D02*
X136594643Y-96324819D01*
X136594643Y-96324819D02*
X136832738Y-96324819D01*
X136832738Y-96324819D02*
X136927976Y-96372438D01*
X136927976Y-96372438D02*
X136975595Y-96420057D01*
X136975595Y-96420057D02*
X137023214Y-96515295D01*
X137023214Y-96515295D02*
X137023214Y-96610533D01*
X137023214Y-96610533D02*
X136975595Y-96753390D01*
X136975595Y-96753390D02*
X136404167Y-97324819D01*
X136404167Y-97324819D02*
X137023214Y-97324819D01*
X134928095Y-73284819D02*
X134928095Y-74094342D01*
X134928095Y-74094342D02*
X134975714Y-74189580D01*
X134975714Y-74189580D02*
X135023333Y-74237200D01*
X135023333Y-74237200D02*
X135118571Y-74284819D01*
X135118571Y-74284819D02*
X135309047Y-74284819D01*
X135309047Y-74284819D02*
X135404285Y-74237200D01*
X135404285Y-74237200D02*
X135451904Y-74189580D01*
X135451904Y-74189580D02*
X135499523Y-74094342D01*
X135499523Y-74094342D02*
X135499523Y-73284819D01*
X136499523Y-74284819D02*
X135928095Y-74284819D01*
X136213809Y-74284819D02*
X136213809Y-73284819D01*
X136213809Y-73284819D02*
X136118571Y-73427676D01*
X136118571Y-73427676D02*
X136023333Y-73522914D01*
X136023333Y-73522914D02*
X135928095Y-73570533D01*
X129870833Y-97324819D02*
X129537500Y-96848628D01*
X129299405Y-97324819D02*
X129299405Y-96324819D01*
X129299405Y-96324819D02*
X129680357Y-96324819D01*
X129680357Y-96324819D02*
X129775595Y-96372438D01*
X129775595Y-96372438D02*
X129823214Y-96420057D01*
X129823214Y-96420057D02*
X129870833Y-96515295D01*
X129870833Y-96515295D02*
X129870833Y-96658152D01*
X129870833Y-96658152D02*
X129823214Y-96753390D01*
X129823214Y-96753390D02*
X129775595Y-96801009D01*
X129775595Y-96801009D02*
X129680357Y-96848628D01*
X129680357Y-96848628D02*
X129299405Y-96848628D01*
X130823214Y-97324819D02*
X130251786Y-97324819D01*
X130537500Y-97324819D02*
X130537500Y-96324819D01*
X130537500Y-96324819D02*
X130442262Y-96467676D01*
X130442262Y-96467676D02*
X130347024Y-96562914D01*
X130347024Y-96562914D02*
X130251786Y-96610533D01*
X142895833Y-63584819D02*
X142562500Y-63108628D01*
X142324405Y-63584819D02*
X142324405Y-62584819D01*
X142324405Y-62584819D02*
X142705357Y-62584819D01*
X142705357Y-62584819D02*
X142800595Y-62632438D01*
X142800595Y-62632438D02*
X142848214Y-62680057D01*
X142848214Y-62680057D02*
X142895833Y-62775295D01*
X142895833Y-62775295D02*
X142895833Y-62918152D01*
X142895833Y-62918152D02*
X142848214Y-63013390D01*
X142848214Y-63013390D02*
X142800595Y-63061009D01*
X142800595Y-63061009D02*
X142705357Y-63108628D01*
X142705357Y-63108628D02*
X142324405Y-63108628D01*
X143752976Y-62584819D02*
X143562500Y-62584819D01*
X143562500Y-62584819D02*
X143467262Y-62632438D01*
X143467262Y-62632438D02*
X143419643Y-62680057D01*
X143419643Y-62680057D02*
X143324405Y-62822914D01*
X143324405Y-62822914D02*
X143276786Y-63013390D01*
X143276786Y-63013390D02*
X143276786Y-63394342D01*
X143276786Y-63394342D02*
X143324405Y-63489580D01*
X143324405Y-63489580D02*
X143372024Y-63537200D01*
X143372024Y-63537200D02*
X143467262Y-63584819D01*
X143467262Y-63584819D02*
X143657738Y-63584819D01*
X143657738Y-63584819D02*
X143752976Y-63537200D01*
X143752976Y-63537200D02*
X143800595Y-63489580D01*
X143800595Y-63489580D02*
X143848214Y-63394342D01*
X143848214Y-63394342D02*
X143848214Y-63156247D01*
X143848214Y-63156247D02*
X143800595Y-63061009D01*
X143800595Y-63061009D02*
X143752976Y-63013390D01*
X143752976Y-63013390D02*
X143657738Y-62965771D01*
X143657738Y-62965771D02*
X143467262Y-62965771D01*
X143467262Y-62965771D02*
X143372024Y-63013390D01*
X143372024Y-63013390D02*
X143324405Y-63061009D01*
X143324405Y-63061009D02*
X143276786Y-63156247D01*
X169495833Y-97324819D02*
X169162500Y-96848628D01*
X168924405Y-97324819D02*
X168924405Y-96324819D01*
X168924405Y-96324819D02*
X169305357Y-96324819D01*
X169305357Y-96324819D02*
X169400595Y-96372438D01*
X169400595Y-96372438D02*
X169448214Y-96420057D01*
X169448214Y-96420057D02*
X169495833Y-96515295D01*
X169495833Y-96515295D02*
X169495833Y-96658152D01*
X169495833Y-96658152D02*
X169448214Y-96753390D01*
X169448214Y-96753390D02*
X169400595Y-96801009D01*
X169400595Y-96801009D02*
X169305357Y-96848628D01*
X169305357Y-96848628D02*
X168924405Y-96848628D01*
X170067262Y-96753390D02*
X169972024Y-96705771D01*
X169972024Y-96705771D02*
X169924405Y-96658152D01*
X169924405Y-96658152D02*
X169876786Y-96562914D01*
X169876786Y-96562914D02*
X169876786Y-96515295D01*
X169876786Y-96515295D02*
X169924405Y-96420057D01*
X169924405Y-96420057D02*
X169972024Y-96372438D01*
X169972024Y-96372438D02*
X170067262Y-96324819D01*
X170067262Y-96324819D02*
X170257738Y-96324819D01*
X170257738Y-96324819D02*
X170352976Y-96372438D01*
X170352976Y-96372438D02*
X170400595Y-96420057D01*
X170400595Y-96420057D02*
X170448214Y-96515295D01*
X170448214Y-96515295D02*
X170448214Y-96562914D01*
X170448214Y-96562914D02*
X170400595Y-96658152D01*
X170400595Y-96658152D02*
X170352976Y-96705771D01*
X170352976Y-96705771D02*
X170257738Y-96753390D01*
X170257738Y-96753390D02*
X170067262Y-96753390D01*
X170067262Y-96753390D02*
X169972024Y-96801009D01*
X169972024Y-96801009D02*
X169924405Y-96848628D01*
X169924405Y-96848628D02*
X169876786Y-96943866D01*
X169876786Y-96943866D02*
X169876786Y-97134342D01*
X169876786Y-97134342D02*
X169924405Y-97229580D01*
X169924405Y-97229580D02*
X169972024Y-97277200D01*
X169972024Y-97277200D02*
X170067262Y-97324819D01*
X170067262Y-97324819D02*
X170257738Y-97324819D01*
X170257738Y-97324819D02*
X170352976Y-97277200D01*
X170352976Y-97277200D02*
X170400595Y-97229580D01*
X170400595Y-97229580D02*
X170448214Y-97134342D01*
X170448214Y-97134342D02*
X170448214Y-96943866D01*
X170448214Y-96943866D02*
X170400595Y-96848628D01*
X170400595Y-96848628D02*
X170352976Y-96801009D01*
X170352976Y-96801009D02*
X170257738Y-96753390D01*
X162995833Y-97224819D02*
X162662500Y-96748628D01*
X162424405Y-97224819D02*
X162424405Y-96224819D01*
X162424405Y-96224819D02*
X162805357Y-96224819D01*
X162805357Y-96224819D02*
X162900595Y-96272438D01*
X162900595Y-96272438D02*
X162948214Y-96320057D01*
X162948214Y-96320057D02*
X162995833Y-96415295D01*
X162995833Y-96415295D02*
X162995833Y-96558152D01*
X162995833Y-96558152D02*
X162948214Y-96653390D01*
X162948214Y-96653390D02*
X162900595Y-96701009D01*
X162900595Y-96701009D02*
X162805357Y-96748628D01*
X162805357Y-96748628D02*
X162424405Y-96748628D01*
X163329167Y-96224819D02*
X163995833Y-96224819D01*
X163995833Y-96224819D02*
X163567262Y-97224819D01*
X149238095Y-50854819D02*
X149238095Y-49854819D01*
X149238095Y-50331009D02*
X149809523Y-50331009D01*
X149809523Y-50854819D02*
X149809523Y-49854819D01*
X150809523Y-50854819D02*
X150238095Y-50854819D01*
X150523809Y-50854819D02*
X150523809Y-49854819D01*
X150523809Y-49854819D02*
X150428571Y-49997676D01*
X150428571Y-49997676D02*
X150333333Y-50092914D01*
X150333333Y-50092914D02*
X150238095Y-50140533D01*
X156670833Y-97324819D02*
X156337500Y-96848628D01*
X156099405Y-97324819D02*
X156099405Y-96324819D01*
X156099405Y-96324819D02*
X156480357Y-96324819D01*
X156480357Y-96324819D02*
X156575595Y-96372438D01*
X156575595Y-96372438D02*
X156623214Y-96420057D01*
X156623214Y-96420057D02*
X156670833Y-96515295D01*
X156670833Y-96515295D02*
X156670833Y-96658152D01*
X156670833Y-96658152D02*
X156623214Y-96753390D01*
X156623214Y-96753390D02*
X156575595Y-96801009D01*
X156575595Y-96801009D02*
X156480357Y-96848628D01*
X156480357Y-96848628D02*
X156099405Y-96848628D01*
X157527976Y-96658152D02*
X157527976Y-97324819D01*
X157289881Y-96277200D02*
X157051786Y-96991485D01*
X157051786Y-96991485D02*
X157670833Y-96991485D01*
X148969819Y-76808094D02*
X147969819Y-76808094D01*
X147969819Y-76808094D02*
X147969819Y-76569999D01*
X147969819Y-76569999D02*
X148017438Y-76427142D01*
X148017438Y-76427142D02*
X148112676Y-76331904D01*
X148112676Y-76331904D02*
X148207914Y-76284285D01*
X148207914Y-76284285D02*
X148398390Y-76236666D01*
X148398390Y-76236666D02*
X148541247Y-76236666D01*
X148541247Y-76236666D02*
X148731723Y-76284285D01*
X148731723Y-76284285D02*
X148826961Y-76331904D01*
X148826961Y-76331904D02*
X148922200Y-76427142D01*
X148922200Y-76427142D02*
X148969819Y-76569999D01*
X148969819Y-76569999D02*
X148969819Y-76808094D01*
X147969819Y-75903332D02*
X147969819Y-75284285D01*
X147969819Y-75284285D02*
X148350771Y-75617618D01*
X148350771Y-75617618D02*
X148350771Y-75474761D01*
X148350771Y-75474761D02*
X148398390Y-75379523D01*
X148398390Y-75379523D02*
X148446009Y-75331904D01*
X148446009Y-75331904D02*
X148541247Y-75284285D01*
X148541247Y-75284285D02*
X148779342Y-75284285D01*
X148779342Y-75284285D02*
X148874580Y-75331904D01*
X148874580Y-75331904D02*
X148922200Y-75379523D01*
X148922200Y-75379523D02*
X148969819Y-75474761D01*
X148969819Y-75474761D02*
X148969819Y-75760475D01*
X148969819Y-75760475D02*
X148922200Y-75855713D01*
X148922200Y-75855713D02*
X148874580Y-75903332D01*
X148961905Y-97324819D02*
X148961905Y-96324819D01*
X148961905Y-96324819D02*
X149200000Y-96324819D01*
X149200000Y-96324819D02*
X149342857Y-96372438D01*
X149342857Y-96372438D02*
X149438095Y-96467676D01*
X149438095Y-96467676D02*
X149485714Y-96562914D01*
X149485714Y-96562914D02*
X149533333Y-96753390D01*
X149533333Y-96753390D02*
X149533333Y-96896247D01*
X149533333Y-96896247D02*
X149485714Y-97086723D01*
X149485714Y-97086723D02*
X149438095Y-97181961D01*
X149438095Y-97181961D02*
X149342857Y-97277200D01*
X149342857Y-97277200D02*
X149200000Y-97324819D01*
X149200000Y-97324819D02*
X148961905Y-97324819D01*
X149914286Y-96420057D02*
X149961905Y-96372438D01*
X149961905Y-96372438D02*
X150057143Y-96324819D01*
X150057143Y-96324819D02*
X150295238Y-96324819D01*
X150295238Y-96324819D02*
X150390476Y-96372438D01*
X150390476Y-96372438D02*
X150438095Y-96420057D01*
X150438095Y-96420057D02*
X150485714Y-96515295D01*
X150485714Y-96515295D02*
X150485714Y-96610533D01*
X150485714Y-96610533D02*
X150438095Y-96753390D01*
X150438095Y-96753390D02*
X149866667Y-97324819D01*
X149866667Y-97324819D02*
X150485714Y-97324819D01*
X163724819Y-84338094D02*
X162724819Y-84338094D01*
X162724819Y-84338094D02*
X162724819Y-84099999D01*
X162724819Y-84099999D02*
X162772438Y-83957142D01*
X162772438Y-83957142D02*
X162867676Y-83861904D01*
X162867676Y-83861904D02*
X162962914Y-83814285D01*
X162962914Y-83814285D02*
X163153390Y-83766666D01*
X163153390Y-83766666D02*
X163296247Y-83766666D01*
X163296247Y-83766666D02*
X163486723Y-83814285D01*
X163486723Y-83814285D02*
X163581961Y-83861904D01*
X163581961Y-83861904D02*
X163677200Y-83957142D01*
X163677200Y-83957142D02*
X163724819Y-84099999D01*
X163724819Y-84099999D02*
X163724819Y-84338094D01*
X162724819Y-82909523D02*
X162724819Y-83099999D01*
X162724819Y-83099999D02*
X162772438Y-83195237D01*
X162772438Y-83195237D02*
X162820057Y-83242856D01*
X162820057Y-83242856D02*
X162962914Y-83338094D01*
X162962914Y-83338094D02*
X163153390Y-83385713D01*
X163153390Y-83385713D02*
X163534342Y-83385713D01*
X163534342Y-83385713D02*
X163629580Y-83338094D01*
X163629580Y-83338094D02*
X163677200Y-83290475D01*
X163677200Y-83290475D02*
X163724819Y-83195237D01*
X163724819Y-83195237D02*
X163724819Y-83004761D01*
X163724819Y-83004761D02*
X163677200Y-82909523D01*
X163677200Y-82909523D02*
X163629580Y-82861904D01*
X163629580Y-82861904D02*
X163534342Y-82814285D01*
X163534342Y-82814285D02*
X163296247Y-82814285D01*
X163296247Y-82814285D02*
X163201009Y-82861904D01*
X163201009Y-82861904D02*
X163153390Y-82909523D01*
X163153390Y-82909523D02*
X163105771Y-83004761D01*
X163105771Y-83004761D02*
X163105771Y-83195237D01*
X163105771Y-83195237D02*
X163153390Y-83290475D01*
X163153390Y-83290475D02*
X163201009Y-83338094D01*
X163201009Y-83338094D02*
X163296247Y-83385713D01*
X142570833Y-97324819D02*
X142237500Y-96848628D01*
X141999405Y-97324819D02*
X141999405Y-96324819D01*
X141999405Y-96324819D02*
X142380357Y-96324819D01*
X142380357Y-96324819D02*
X142475595Y-96372438D01*
X142475595Y-96372438D02*
X142523214Y-96420057D01*
X142523214Y-96420057D02*
X142570833Y-96515295D01*
X142570833Y-96515295D02*
X142570833Y-96658152D01*
X142570833Y-96658152D02*
X142523214Y-96753390D01*
X142523214Y-96753390D02*
X142475595Y-96801009D01*
X142475595Y-96801009D02*
X142380357Y-96848628D01*
X142380357Y-96848628D02*
X141999405Y-96848628D01*
X142904167Y-96324819D02*
X143523214Y-96324819D01*
X143523214Y-96324819D02*
X143189881Y-96705771D01*
X143189881Y-96705771D02*
X143332738Y-96705771D01*
X143332738Y-96705771D02*
X143427976Y-96753390D01*
X143427976Y-96753390D02*
X143475595Y-96801009D01*
X143475595Y-96801009D02*
X143523214Y-96896247D01*
X143523214Y-96896247D02*
X143523214Y-97134342D01*
X143523214Y-97134342D02*
X143475595Y-97229580D01*
X143475595Y-97229580D02*
X143427976Y-97277200D01*
X143427976Y-97277200D02*
X143332738Y-97324819D01*
X143332738Y-97324819D02*
X143047024Y-97324819D01*
X143047024Y-97324819D02*
X142951786Y-97277200D01*
X142951786Y-97277200D02*
X142904167Y-97229580D01*
X169861905Y-66224819D02*
X169861905Y-65224819D01*
X169861905Y-65224819D02*
X170100000Y-65224819D01*
X170100000Y-65224819D02*
X170242857Y-65272438D01*
X170242857Y-65272438D02*
X170338095Y-65367676D01*
X170338095Y-65367676D02*
X170385714Y-65462914D01*
X170385714Y-65462914D02*
X170433333Y-65653390D01*
X170433333Y-65653390D02*
X170433333Y-65796247D01*
X170433333Y-65796247D02*
X170385714Y-65986723D01*
X170385714Y-65986723D02*
X170338095Y-66081961D01*
X170338095Y-66081961D02*
X170242857Y-66177200D01*
X170242857Y-66177200D02*
X170100000Y-66224819D01*
X170100000Y-66224819D02*
X169861905Y-66224819D01*
X171385714Y-66224819D02*
X170814286Y-66224819D01*
X171100000Y-66224819D02*
X171100000Y-65224819D01*
X171100000Y-65224819D02*
X171004762Y-65367676D01*
X171004762Y-65367676D02*
X170909524Y-65462914D01*
X170909524Y-65462914D02*
X170814286Y-65510533D01*
%TO.C,D5*%
D11*
X163965000Y-74300000D02*
X163965000Y-78185000D01*
X163965000Y-78185000D02*
X166235000Y-78185000D01*
X166235000Y-78185000D02*
X166235000Y-74300000D01*
%TO.C,SW2*%
X145760000Y-68120000D02*
X145760000Y-63280000D01*
X151386667Y-66335000D02*
X151386667Y-65065000D01*
X155660000Y-63280000D02*
X145760000Y-63280000D01*
X155660000Y-68120000D02*
X145760000Y-68120000D01*
X155660000Y-68120000D02*
X155660000Y-63280000D01*
X155900000Y-68360000D02*
X154517000Y-68360000D01*
X155900000Y-68360000D02*
X155900000Y-66977000D01*
X148680000Y-65065000D02*
X152740000Y-65065000D01*
X152740000Y-66335000D01*
X148680000Y-66335000D01*
X148680000Y-65065000D01*
X151386667Y-65065000D02*
X152740000Y-65065000D01*
X152740000Y-66335000D01*
X151386667Y-66335000D01*
X151386667Y-65065000D01*
G36*
X151386667Y-65065000D02*
G01*
X152740000Y-65065000D01*
X152740000Y-66335000D01*
X151386667Y-66335000D01*
X151386667Y-65065000D01*
G37*
%TO.C,D4*%
X145565000Y-82000000D02*
X145565000Y-85885000D01*
X145565000Y-85885000D02*
X147835000Y-85885000D01*
X147835000Y-85885000D02*
X147835000Y-82000000D01*
%TO.C,R2*%
X135510436Y-97790000D02*
X136964564Y-97790000D01*
X135510436Y-99610000D02*
X136964564Y-99610000D01*
D12*
%TO.C,G\u002A\u002A\u002A*%
G36*
X144040353Y-93039545D02*
G01*
X144115062Y-93068008D01*
X144117737Y-93069714D01*
X144179039Y-93132349D01*
X144224972Y-93220827D01*
X144245488Y-93315032D01*
X144245765Y-93326083D01*
X144245765Y-93384658D01*
X143921462Y-93384658D01*
X143597160Y-93384658D01*
X143612414Y-93321042D01*
X143661680Y-93192691D01*
X143738122Y-93099805D01*
X143839270Y-93044549D01*
X143946342Y-93028766D01*
X144040353Y-93039545D01*
G37*
G36*
X145423639Y-93057496D02*
G01*
X145504190Y-93110686D01*
X145524300Y-93133477D01*
X145558506Y-93197433D01*
X145584210Y-93276020D01*
X145587019Y-93289624D01*
X145604398Y-93384658D01*
X145274535Y-93384658D01*
X144944673Y-93384658D01*
X144968855Y-93289389D01*
X145011602Y-93192912D01*
X145081668Y-93108256D01*
X145166495Y-93048280D01*
X145223503Y-93028639D01*
X145323983Y-93028023D01*
X145423639Y-93057496D01*
G37*
G36*
X132082687Y-93615988D02*
G01*
X132056125Y-93755193D01*
X131998966Y-93865867D01*
X131915601Y-93944172D01*
X131810419Y-93986270D01*
X131687811Y-93988325D01*
X131661986Y-93983678D01*
X131573518Y-93945230D01*
X131518805Y-93875604D01*
X131499513Y-93776953D01*
X131499499Y-93773835D01*
X131510699Y-93677609D01*
X131547315Y-93606716D01*
X131613869Y-93558165D01*
X131714884Y-93528964D01*
X131854884Y-93516123D01*
X131890591Y-93515209D01*
X132089390Y-93511889D01*
X132082687Y-93615988D01*
G37*
G36*
X154947692Y-93628007D02*
G01*
X154913694Y-93772040D01*
X154850839Y-93881836D01*
X154761237Y-93955541D01*
X154646996Y-93991303D01*
X154534983Y-93990841D01*
X154468136Y-93962557D01*
X154407434Y-93903997D01*
X154365804Y-93830651D01*
X154354872Y-93774995D01*
X154372734Y-93678984D01*
X154420520Y-93598095D01*
X154482313Y-93550702D01*
X154532956Y-93536409D01*
X154615131Y-93522396D01*
X154714152Y-93510987D01*
X154753700Y-93507778D01*
X154963574Y-93492881D01*
X154947692Y-93628007D01*
G37*
G36*
X168390103Y-93642662D02*
G01*
X168360189Y-93776195D01*
X168300425Y-93881919D01*
X168216047Y-93955615D01*
X168112294Y-93993069D01*
X167994403Y-93990064D01*
X167966742Y-93983458D01*
X167879679Y-93941688D01*
X167828510Y-93872689D01*
X167810622Y-93772805D01*
X167810549Y-93764652D01*
X167827959Y-93668466D01*
X167881222Y-93594805D01*
X167971887Y-93542811D01*
X168101504Y-93511624D01*
X168271621Y-93500386D01*
X168287289Y-93500323D01*
X168403010Y-93500323D01*
X168390103Y-93642662D01*
G37*
G36*
X157515332Y-93049304D02*
G01*
X157602375Y-93107430D01*
X157664861Y-93204644D01*
X157697051Y-93309476D01*
X157712828Y-93384658D01*
X157387129Y-93384658D01*
X157257614Y-93384131D01*
X157167436Y-93381996D01*
X157109671Y-93377426D01*
X157077396Y-93369593D01*
X157063689Y-93357668D01*
X157061429Y-93345696D01*
X157071118Y-93302414D01*
X157095624Y-93237861D01*
X157110064Y-93206267D01*
X157178438Y-93109724D01*
X157272358Y-93051344D01*
X157393391Y-93030185D01*
X157403526Y-93030072D01*
X157515332Y-93049304D01*
G37*
G36*
X160157495Y-93043693D02*
G01*
X160243005Y-93094174D01*
X160304094Y-93181844D01*
X160341520Y-93307826D01*
X160356040Y-93473244D01*
X160356239Y-93488757D01*
X160350947Y-93643734D01*
X160330746Y-93762826D01*
X160293301Y-93854668D01*
X160237934Y-93926252D01*
X160159637Y-93974361D01*
X160063829Y-93989711D01*
X159965725Y-93972246D01*
X159886970Y-93927526D01*
X159826144Y-93858458D01*
X159785889Y-93767154D01*
X159763819Y-93645944D01*
X159757560Y-93511889D01*
X159768723Y-93337189D01*
X159804595Y-93201540D01*
X159865159Y-93104970D01*
X159950400Y-93047504D01*
X160046808Y-93029275D01*
X160157495Y-93043693D01*
G37*
G36*
X137314559Y-93037948D02*
G01*
X137407996Y-93087281D01*
X137478206Y-93171518D01*
X137511243Y-93255781D01*
X137526768Y-93320013D01*
X137536045Y-93363367D01*
X137537204Y-93371769D01*
X137515451Y-93376401D01*
X137455711Y-93380295D01*
X137366261Y-93383121D01*
X137255376Y-93384549D01*
X137213342Y-93384658D01*
X137085233Y-93384334D01*
X136996271Y-93382671D01*
X136939339Y-93378633D01*
X136907317Y-93371180D01*
X136893089Y-93359278D01*
X136889537Y-93341888D01*
X136889481Y-93337471D01*
X136909872Y-93246122D01*
X136963923Y-93156667D01*
X137040950Y-93084193D01*
X137087521Y-93057790D01*
X137205273Y-93026968D01*
X137314559Y-93037948D01*
G37*
G36*
X150739227Y-93063678D02*
G01*
X150815320Y-93132718D01*
X150849335Y-93188028D01*
X150874512Y-93268055D01*
X150890822Y-93378247D01*
X150897424Y-93503203D01*
X150893476Y-93627523D01*
X150879048Y-93731653D01*
X150836872Y-93838143D01*
X150766863Y-93916253D01*
X150676971Y-93960499D01*
X150575151Y-93965401D01*
X150548224Y-93959693D01*
X150458165Y-93912634D01*
X150387856Y-93828176D01*
X150356073Y-93757117D01*
X150340757Y-93681072D01*
X150332371Y-93576168D01*
X150331006Y-93459305D01*
X150336754Y-93347382D01*
X150349707Y-93257299D01*
X150353296Y-93242933D01*
X150401044Y-93140494D01*
X150472561Y-93070347D01*
X150558797Y-93033494D01*
X150650703Y-93030937D01*
X150739227Y-93063678D01*
G37*
G36*
X165563978Y-93060508D02*
G01*
X165644438Y-93134836D01*
X165684243Y-93198713D01*
X165711029Y-93261044D01*
X165726903Y-93326821D01*
X165734315Y-93410887D01*
X165735784Y-93511008D01*
X165725853Y-93680306D01*
X165695874Y-93809722D01*
X165644182Y-93901829D01*
X165569114Y-93959201D01*
X165469006Y-93984412D01*
X165428637Y-93986115D01*
X165349973Y-93980453D01*
X165294852Y-93958088D01*
X165250902Y-93920677D01*
X165193785Y-93843504D01*
X165157156Y-93743008D01*
X165138929Y-93611551D01*
X165135980Y-93500323D01*
X165147187Y-93334524D01*
X165180018Y-93207109D01*
X165236144Y-93114724D01*
X165317234Y-93054010D01*
X165367672Y-93034479D01*
X165469654Y-93025982D01*
X165563978Y-93060508D01*
G37*
G36*
X170955367Y-93042998D02*
G01*
X171020945Y-93073920D01*
X171068393Y-93124654D01*
X171097358Y-93175580D01*
X171128274Y-93247308D01*
X171146923Y-93310675D01*
X171149407Y-93331727D01*
X171148085Y-93352644D01*
X171139361Y-93367165D01*
X171116094Y-93376458D01*
X171071148Y-93381690D01*
X170997383Y-93384028D01*
X170887660Y-93384637D01*
X170825546Y-93384658D01*
X170689261Y-93383577D01*
X170594077Y-93380028D01*
X170534871Y-93373554D01*
X170506521Y-93363696D01*
X170502192Y-93355742D01*
X170516657Y-93297012D01*
X170551798Y-93221824D01*
X170597576Y-93148320D01*
X170643955Y-93094642D01*
X170648941Y-93090507D01*
X170750815Y-93038494D01*
X170867461Y-93025975D01*
X170955367Y-93042998D01*
G37*
G36*
X139898450Y-93031308D02*
G01*
X139988752Y-93066734D01*
X140058001Y-93126874D01*
X140063924Y-93135333D01*
X140096375Y-93208855D01*
X140122207Y-93311968D01*
X140138764Y-93428163D01*
X140143391Y-93540936D01*
X140139056Y-93602253D01*
X140120618Y-93694892D01*
X140092007Y-93787433D01*
X140058437Y-93866297D01*
X140025124Y-93917901D01*
X140014299Y-93927129D01*
X139929478Y-93959525D01*
X139835042Y-93966960D01*
X139795428Y-93960476D01*
X139705033Y-93918381D01*
X139638890Y-93846281D01*
X139595445Y-93740830D01*
X139573143Y-93598683D01*
X139569291Y-93473821D01*
X139583341Y-93307185D01*
X139622968Y-93178557D01*
X139688032Y-93088193D01*
X139778397Y-93036350D01*
X139807275Y-93028959D01*
X139898450Y-93031308D01*
G37*
G36*
X155900231Y-87445045D02*
G01*
X159357160Y-87451052D01*
X159464258Y-87568541D01*
X159530537Y-87636190D01*
X159596123Y-87694959D01*
X159640755Y-87728067D01*
X159701040Y-87773756D01*
X159763740Y-87834488D01*
X159777156Y-87849756D01*
X159840266Y-87912677D01*
X159917467Y-87974155D01*
X159942636Y-87990959D01*
X160006113Y-88035930D01*
X160081355Y-88097104D01*
X160160122Y-88166715D01*
X160234175Y-88236997D01*
X160295275Y-88300183D01*
X160335181Y-88348508D01*
X160346311Y-88371433D01*
X160328650Y-88404988D01*
X160278556Y-88462351D01*
X160200358Y-88539242D01*
X160098386Y-88631382D01*
X159989260Y-88724311D01*
X159922011Y-88782471D01*
X159832023Y-88863535D01*
X159729619Y-88958048D01*
X159625123Y-89056552D01*
X159592935Y-89087365D01*
X159333898Y-89336389D01*
X155890150Y-89335510D01*
X152446402Y-89334632D01*
X151949043Y-88859912D01*
X151823191Y-88739049D01*
X151708600Y-88627583D01*
X151609484Y-88529727D01*
X151530060Y-88449695D01*
X151474541Y-88391699D01*
X151447144Y-88359953D01*
X151445022Y-88356109D01*
X151459067Y-88330823D01*
X151502222Y-88282514D01*
X151568059Y-88217788D01*
X151650152Y-88143251D01*
X151663121Y-88131936D01*
X151765618Y-88042413D01*
X151888534Y-87934201D01*
X152017941Y-87819605D01*
X152139910Y-87710935D01*
X152165592Y-87687942D01*
X152443302Y-87439039D01*
X155900231Y-87445045D01*
G37*
G36*
X172213524Y-75654890D02*
G01*
X172213551Y-76220404D01*
X172213641Y-76741445D01*
X172213807Y-77219805D01*
X172214062Y-77657277D01*
X172214417Y-78055655D01*
X172214885Y-78416731D01*
X172215480Y-78742297D01*
X172216213Y-79034147D01*
X172217098Y-79294073D01*
X172218147Y-79523868D01*
X172219372Y-79725324D01*
X172220787Y-79900236D01*
X172222403Y-80050394D01*
X172224234Y-80177593D01*
X172226292Y-80283624D01*
X172228589Y-80370281D01*
X172231139Y-80439356D01*
X172233954Y-80492643D01*
X172237047Y-80531933D01*
X172240429Y-80559020D01*
X172244115Y-80575696D01*
X172248116Y-80583755D01*
X172248223Y-80583865D01*
X172276587Y-80621682D01*
X172282923Y-80640771D01*
X172264475Y-80667453D01*
X172248223Y-80676293D01*
X172243960Y-80681744D01*
X172240055Y-80695954D01*
X172236492Y-80720828D01*
X172233257Y-80758271D01*
X172230335Y-80810187D01*
X172227709Y-80878483D01*
X172225364Y-80965062D01*
X172223286Y-81071830D01*
X172221459Y-81200693D01*
X172219868Y-81353554D01*
X172218497Y-81532319D01*
X172217330Y-81738894D01*
X172216353Y-81975182D01*
X172215551Y-82243090D01*
X172214907Y-82544521D01*
X172214408Y-82881382D01*
X172214036Y-83255577D01*
X172213778Y-83669011D01*
X172213617Y-84123589D01*
X172213538Y-84621217D01*
X172213524Y-84989865D01*
X172213524Y-89290123D01*
X170351320Y-89290123D01*
X168489116Y-89290123D01*
X168489116Y-80025369D01*
X168489116Y-70760615D01*
X170351320Y-70760615D01*
X172213524Y-70760615D01*
X172213524Y-75654890D01*
G37*
G36*
X160664956Y-71970230D02*
G01*
X160713176Y-72006991D01*
X160786408Y-72067856D01*
X160875880Y-72145320D01*
X160972822Y-72231876D01*
X161005600Y-72261745D01*
X161110925Y-72357309D01*
X161219130Y-72453882D01*
X161318712Y-72541294D01*
X161398168Y-72609378D01*
X161410427Y-72619610D01*
X161518194Y-72711482D01*
X161593028Y-72781864D01*
X161639746Y-72836023D01*
X161663160Y-72879223D01*
X161667954Y-72901266D01*
X161668454Y-72929639D01*
X161668881Y-73001487D01*
X161669235Y-73114018D01*
X161669514Y-73264441D01*
X161669720Y-73449964D01*
X161669850Y-73667797D01*
X161669905Y-73915147D01*
X161669884Y-74189224D01*
X161669786Y-74487237D01*
X161669611Y-74806393D01*
X161669358Y-75143901D01*
X161669026Y-75496971D01*
X161668616Y-75862811D01*
X161668555Y-75912511D01*
X161664890Y-78878342D01*
X161142343Y-79347757D01*
X161010345Y-79465375D01*
X160888073Y-79572502D01*
X160780082Y-79665289D01*
X160690930Y-79739886D01*
X160625172Y-79792445D01*
X160587366Y-79819115D01*
X160581369Y-79821652D01*
X160554827Y-79808035D01*
X160498453Y-79767344D01*
X160416902Y-79703343D01*
X160314832Y-79619797D01*
X160196901Y-79520469D01*
X160067764Y-79409125D01*
X160028232Y-79374554D01*
X159513524Y-78922977D01*
X159514775Y-75865430D01*
X159516026Y-72807883D01*
X159966388Y-72426189D01*
X160093805Y-72318291D01*
X160213805Y-72216844D01*
X160320528Y-72126790D01*
X160408110Y-72053072D01*
X160470693Y-72000629D01*
X160497762Y-71978180D01*
X160578775Y-71911866D01*
X160664956Y-71970230D01*
G37*
G36*
X147003474Y-82707112D02*
G01*
X147184115Y-82776187D01*
X147349963Y-82882835D01*
X147495933Y-83025567D01*
X147616941Y-83202890D01*
X147640852Y-83248705D01*
X147683877Y-83341518D01*
X147710475Y-83419139D01*
X147725485Y-83501039D01*
X147733747Y-83606692D01*
X147734738Y-83626511D01*
X147725776Y-83857419D01*
X147676578Y-84067028D01*
X147588233Y-84253470D01*
X147461830Y-84414878D01*
X147298458Y-84549383D01*
X147147336Y-84633828D01*
X147011922Y-84679052D01*
X146853194Y-84703974D01*
X146688534Y-84707786D01*
X146535326Y-84689684D01*
X146451004Y-84666111D01*
X146262652Y-84572765D01*
X146099305Y-84443315D01*
X145965123Y-84282961D01*
X145864264Y-84096903D01*
X145800887Y-83890340D01*
X145792388Y-83842668D01*
X145782981Y-83641139D01*
X145784456Y-83631731D01*
X145822391Y-83631731D01*
X145829126Y-83828878D01*
X145873343Y-84020030D01*
X145956054Y-84197386D01*
X145981673Y-84236929D01*
X146117303Y-84396970D01*
X146275501Y-84519880D01*
X146450857Y-84604175D01*
X146637962Y-84648365D01*
X146831408Y-84650964D01*
X147025783Y-84610484D01*
X147152922Y-84558972D01*
X147324189Y-84451298D01*
X147463353Y-84315360D01*
X147569565Y-84157008D01*
X147641973Y-83982094D01*
X147679728Y-83796469D01*
X147681978Y-83605985D01*
X147647873Y-83416492D01*
X147576562Y-83233842D01*
X147467195Y-83063886D01*
X147383745Y-82971217D01*
X147227806Y-82848356D01*
X147053908Y-82764923D01*
X146868568Y-82721088D01*
X146678306Y-82717019D01*
X146489641Y-82752887D01*
X146309092Y-82828861D01*
X146150025Y-82939193D01*
X146016954Y-83082320D01*
X145917316Y-83250652D01*
X145852125Y-83436389D01*
X145822391Y-83631731D01*
X145784456Y-83631731D01*
X145814427Y-83440573D01*
X145883146Y-83249117D01*
X145985557Y-83074920D01*
X146118078Y-82926127D01*
X146234663Y-82836370D01*
X146423633Y-82740240D01*
X146618148Y-82687647D01*
X146813123Y-82677102D01*
X147003474Y-82707112D01*
G37*
G36*
X165275854Y-82693266D02*
G01*
X165455596Y-82748331D01*
X165621879Y-82838134D01*
X165769838Y-82959890D01*
X165894611Y-83110813D01*
X165991333Y-83288119D01*
X166055142Y-83489025D01*
X166065545Y-83543603D01*
X166076907Y-83749690D01*
X166045011Y-83954138D01*
X165972471Y-84149306D01*
X165861905Y-84327549D01*
X165757429Y-84443787D01*
X165621070Y-84558444D01*
X165486323Y-84635791D01*
X165339354Y-84681581D01*
X165166332Y-84701568D01*
X165134835Y-84702770D01*
X164996653Y-84702220D01*
X164884951Y-84692391D01*
X164822540Y-84678637D01*
X164622622Y-84590620D01*
X164454121Y-84468816D01*
X164315811Y-84312139D01*
X164216958Y-84142159D01*
X164145383Y-83941104D01*
X164116756Y-83737402D01*
X164147372Y-83737402D01*
X164170455Y-83888085D01*
X164223987Y-84061498D01*
X164294345Y-84204493D01*
X164389513Y-84332064D01*
X164430156Y-84375841D01*
X164588516Y-84507248D01*
X164765625Y-84597909D01*
X164956361Y-84646710D01*
X165155601Y-84652538D01*
X165358220Y-84614277D01*
X165424217Y-84592061D01*
X165532010Y-84536561D01*
X165647916Y-84452215D01*
X165758192Y-84350958D01*
X165849098Y-84244723D01*
X165882802Y-84193795D01*
X165961623Y-84021301D01*
X166003273Y-83832951D01*
X166009525Y-83621106D01*
X166001719Y-83510748D01*
X165987268Y-83426134D01*
X165960967Y-83346763D01*
X165917611Y-83252134D01*
X165913963Y-83244735D01*
X165804364Y-83069510D01*
X165668895Y-82928045D01*
X165513179Y-82821267D01*
X165342840Y-82750103D01*
X165163500Y-82715480D01*
X164980782Y-82718324D01*
X164800309Y-82759563D01*
X164627703Y-82840123D01*
X164468588Y-82960931D01*
X164429219Y-82999994D01*
X164299528Y-83165887D01*
X164208033Y-83348513D01*
X164156670Y-83541232D01*
X164147372Y-83737402D01*
X164116756Y-83737402D01*
X164116595Y-83736255D01*
X164128529Y-83533446D01*
X164179119Y-83338513D01*
X164266301Y-83157292D01*
X164388011Y-82995617D01*
X164542183Y-82859323D01*
X164704506Y-82764339D01*
X164895445Y-82698485D01*
X165087516Y-82675722D01*
X165275854Y-82693266D01*
G37*
G36*
X157804870Y-79148639D02*
G01*
X158077073Y-79148995D01*
X158316220Y-79149567D01*
X158524514Y-79150377D01*
X158704156Y-79151449D01*
X158857348Y-79152805D01*
X158986292Y-79154469D01*
X159093190Y-79156463D01*
X159180242Y-79158810D01*
X159249652Y-79161533D01*
X159303621Y-79164656D01*
X159344350Y-79168200D01*
X159374041Y-79172189D01*
X159394897Y-79176647D01*
X159409118Y-79181595D01*
X159417678Y-79186232D01*
X159462076Y-79221350D01*
X159526155Y-79279491D01*
X159598095Y-79349796D01*
X159619113Y-79371296D01*
X159699673Y-79450173D01*
X159784728Y-79526345D01*
X159857944Y-79585299D01*
X159868415Y-79592828D01*
X159924858Y-79637387D01*
X159958835Y-79674167D01*
X159963740Y-79691359D01*
X159972765Y-79715336D01*
X160012393Y-79746680D01*
X160024772Y-79753772D01*
X160096446Y-79799746D01*
X160174061Y-79860637D01*
X160244066Y-79924673D01*
X160292912Y-79980085D01*
X160302288Y-79994861D01*
X160311979Y-80019795D01*
X160310234Y-80045722D01*
X160292847Y-80077846D01*
X160255612Y-80121370D01*
X160194323Y-80181498D01*
X160104775Y-80263433D01*
X160034016Y-80326756D01*
X159922188Y-80427522D01*
X159793690Y-80545015D01*
X159665207Y-80663898D01*
X159563620Y-80759170D01*
X159324554Y-80985387D01*
X155862345Y-80983992D01*
X152400136Y-80982596D01*
X151904166Y-80525501D01*
X151777520Y-80408242D01*
X151662277Y-80300510D01*
X151562770Y-80206435D01*
X151483327Y-80130148D01*
X151428280Y-80075781D01*
X151401959Y-80047463D01*
X151400371Y-80044928D01*
X151413024Y-80019961D01*
X151453553Y-79974105D01*
X151514143Y-79915909D01*
X151536375Y-79896179D01*
X151605212Y-79836258D01*
X151698768Y-79754866D01*
X151806839Y-79660880D01*
X151919221Y-79563174D01*
X151970771Y-79518367D01*
X152073059Y-79429295D01*
X152167533Y-79346712D01*
X152246703Y-79277191D01*
X152303076Y-79227303D01*
X152323369Y-79209046D01*
X152385399Y-79152264D01*
X155870965Y-79149290D01*
X156341471Y-79148912D01*
X156767912Y-79148635D01*
X157152492Y-79148482D01*
X157497410Y-79148476D01*
X157804870Y-79148639D01*
G37*
G36*
X155939480Y-70738940D02*
G01*
X156423220Y-70739240D01*
X156862391Y-70739721D01*
X157258688Y-70740396D01*
X157613809Y-70741282D01*
X157929450Y-70742392D01*
X158207306Y-70743741D01*
X158449075Y-70745343D01*
X158656453Y-70747214D01*
X158831135Y-70749368D01*
X158974819Y-70751820D01*
X159089200Y-70754583D01*
X159175975Y-70757674D01*
X159236840Y-70761106D01*
X159273492Y-70764894D01*
X159285781Y-70767824D01*
X159319469Y-70790078D01*
X159382533Y-70838509D01*
X159469610Y-70908733D01*
X159575338Y-70996368D01*
X159694357Y-71097031D01*
X159806772Y-71193727D01*
X159932200Y-71302243D01*
X160047946Y-71401966D01*
X160148861Y-71488493D01*
X160229796Y-71557420D01*
X160285600Y-71604344D01*
X160310067Y-71624111D01*
X160335146Y-71646075D01*
X160337489Y-71669018D01*
X160314743Y-71706752D01*
X160290489Y-71739074D01*
X160239615Y-71797259D01*
X160168418Y-71868343D01*
X160096494Y-71933280D01*
X160036913Y-71985750D01*
X159952239Y-72062716D01*
X159850701Y-72156576D01*
X159740528Y-72259732D01*
X159644181Y-72351007D01*
X159322563Y-72657518D01*
X155883972Y-72657518D01*
X152445380Y-72657518D01*
X152249261Y-72458658D01*
X152148358Y-72359233D01*
X152035196Y-72252265D01*
X151926535Y-72153414D01*
X151868078Y-72102476D01*
X151717128Y-71972242D01*
X151601254Y-71867806D01*
X151518511Y-71787220D01*
X151466952Y-71728536D01*
X151444632Y-71689806D01*
X151443744Y-71677676D01*
X151462482Y-71653392D01*
X151511456Y-71602782D01*
X151586190Y-71530112D01*
X151682211Y-71439647D01*
X151795044Y-71335651D01*
X151920214Y-71222388D01*
X151940254Y-71204436D01*
X152083773Y-71076340D01*
X152197630Y-70975805D01*
X152286465Y-70899345D01*
X152354918Y-70843474D01*
X152407628Y-70804706D01*
X152449235Y-70779552D01*
X152484378Y-70764529D01*
X152517696Y-70756148D01*
X152541711Y-70752460D01*
X152577895Y-70750711D01*
X152657626Y-70749040D01*
X152778184Y-70747457D01*
X152936850Y-70745973D01*
X153130904Y-70744600D01*
X153357626Y-70743348D01*
X153614299Y-70742227D01*
X153898201Y-70741249D01*
X154206614Y-70740424D01*
X154536818Y-70739763D01*
X154886095Y-70739278D01*
X155251723Y-70738978D01*
X155630985Y-70738875D01*
X155939480Y-70738940D01*
G37*
G36*
X146871429Y-75006512D02*
G01*
X146954616Y-75010985D01*
X147018952Y-75021423D01*
X147078140Y-75040246D01*
X147145880Y-75069874D01*
X147161615Y-75077288D01*
X147349563Y-75189687D01*
X147501815Y-75330838D01*
X147617182Y-75498673D01*
X147694475Y-75691125D01*
X147732504Y-75906127D01*
X147734896Y-76073919D01*
X147726152Y-76191045D01*
X147709898Y-76282256D01*
X147681476Y-76367813D01*
X147651819Y-76435246D01*
X147543050Y-76619048D01*
X147406111Y-76771794D01*
X147246374Y-76891031D01*
X147069206Y-76974307D01*
X146879978Y-77019169D01*
X146684059Y-77023163D01*
X146486819Y-76983838D01*
X146465908Y-76976979D01*
X146271628Y-76887448D01*
X146105344Y-76762497D01*
X145969880Y-76605523D01*
X145868057Y-76419924D01*
X145802698Y-76209097D01*
X145795185Y-76169661D01*
X145782290Y-75964947D01*
X145784061Y-75952951D01*
X145822932Y-75952951D01*
X145824619Y-76034932D01*
X145856824Y-76254500D01*
X145927367Y-76450835D01*
X146034302Y-76621199D01*
X146175683Y-76762853D01*
X146349563Y-76873057D01*
X146451004Y-76916593D01*
X146533474Y-76940873D01*
X146624432Y-76953234D01*
X146740192Y-76955573D01*
X146778825Y-76954702D01*
X146891424Y-76949000D01*
X146976298Y-76936923D01*
X147051923Y-76914486D01*
X147136778Y-76877706D01*
X147137452Y-76877386D01*
X147311053Y-76772012D01*
X147451671Y-76639775D01*
X147559290Y-76486275D01*
X147633892Y-76317111D01*
X147675463Y-76137881D01*
X147683986Y-75954184D01*
X147659444Y-75771620D01*
X147601821Y-75595786D01*
X147511102Y-75432281D01*
X147387269Y-75286706D01*
X147230307Y-75164658D01*
X147142564Y-75115764D01*
X147053685Y-75073512D01*
X146984907Y-75047758D01*
X146918434Y-75034520D01*
X146836471Y-75029817D01*
X146756900Y-75029485D01*
X146571699Y-75042624D01*
X146415172Y-75083111D01*
X146276023Y-75154990D01*
X146165967Y-75241089D01*
X146015606Y-75400289D01*
X145909437Y-75569385D01*
X145845775Y-75752299D01*
X145822932Y-75952951D01*
X145784061Y-75952951D01*
X145812098Y-75762996D01*
X145881200Y-75570343D01*
X145986188Y-75393524D01*
X146123652Y-75239076D01*
X146290184Y-75113533D01*
X146368269Y-75070853D01*
X146432036Y-75041563D01*
X146488563Y-75022606D01*
X146550989Y-75011766D01*
X146632455Y-75006832D01*
X146746099Y-75005589D01*
X146755692Y-75005583D01*
X146871429Y-75006512D01*
G37*
G36*
X165217754Y-75006663D02*
G01*
X165302460Y-75011541D01*
X165367579Y-75022302D01*
X165426437Y-75041095D01*
X165488335Y-75068181D01*
X165662041Y-75174064D01*
X165810491Y-75313505D01*
X165929911Y-75479363D01*
X166016525Y-75664496D01*
X166066559Y-75861762D01*
X166076237Y-76064020D01*
X166065545Y-76160140D01*
X166021656Y-76330656D01*
X165950339Y-76499361D01*
X165859931Y-76647983D01*
X165820279Y-76697728D01*
X165674888Y-76830916D01*
X165503108Y-76932111D01*
X165314079Y-76998346D01*
X165116943Y-77026656D01*
X164920843Y-77014075D01*
X164874495Y-77004535D01*
X164721032Y-76948990D01*
X164566815Y-76859048D01*
X164424683Y-76744533D01*
X164307478Y-76615272D01*
X164250072Y-76526758D01*
X164164068Y-76322111D01*
X164121457Y-76109896D01*
X164121704Y-76056326D01*
X164149763Y-76056326D01*
X164180011Y-76246374D01*
X164248702Y-76429514D01*
X164356987Y-76599809D01*
X164409516Y-76660731D01*
X164550800Y-76791107D01*
X164696627Y-76880766D01*
X164856625Y-76933649D01*
X165040424Y-76953696D01*
X165124564Y-76953350D01*
X165238871Y-76947296D01*
X165324074Y-76935019D01*
X165397259Y-76912989D01*
X165464438Y-76883148D01*
X165645145Y-76770603D01*
X165792741Y-76625775D01*
X165907861Y-76448033D01*
X165913963Y-76435875D01*
X165958650Y-76339490D01*
X165985932Y-76259737D01*
X166001015Y-76176116D01*
X166009104Y-76068127D01*
X166009525Y-76059505D01*
X166003896Y-75847520D01*
X165963307Y-75661639D01*
X165884831Y-75494582D01*
X165765541Y-75339069D01*
X165689213Y-75262937D01*
X165556210Y-75155785D01*
X165422353Y-75084553D01*
X165274602Y-75044273D01*
X165099916Y-75029979D01*
X165077003Y-75029776D01*
X164969899Y-75031279D01*
X164891211Y-75038852D01*
X164823155Y-75056084D01*
X164747948Y-75086562D01*
X164711154Y-75103609D01*
X164534904Y-75210368D01*
X164390194Y-75345858D01*
X164278174Y-75504137D01*
X164199995Y-75679268D01*
X164156808Y-75865311D01*
X164149763Y-76056326D01*
X164121704Y-76056326D01*
X164122444Y-75896043D01*
X164167231Y-75686484D01*
X164216958Y-75561584D01*
X164329852Y-75373358D01*
X164473044Y-75219743D01*
X164645727Y-75101563D01*
X164689740Y-75079381D01*
X164762492Y-75046436D01*
X164822924Y-75025065D01*
X164884842Y-75012783D01*
X164962049Y-75007107D01*
X165068351Y-75005551D01*
X165100136Y-75005515D01*
X165217754Y-75006663D01*
G37*
G36*
X151196866Y-80262600D02*
G01*
X151250038Y-80302116D01*
X151326683Y-80363456D01*
X151421438Y-80441954D01*
X151528941Y-80532939D01*
X151643829Y-80631744D01*
X151760740Y-80733701D01*
X151874311Y-80834142D01*
X151979178Y-80928398D01*
X152069980Y-81011801D01*
X152141354Y-81079683D01*
X152187937Y-81127375D01*
X152203229Y-81146801D01*
X152205963Y-81174687D01*
X152208485Y-81245509D01*
X152210795Y-81355941D01*
X152212894Y-81502653D01*
X152214782Y-81682318D01*
X152216461Y-81891607D01*
X152217930Y-82127193D01*
X152219191Y-82385747D01*
X152220244Y-82663941D01*
X152221089Y-82958446D01*
X152221728Y-83265934D01*
X152222160Y-83583078D01*
X152222387Y-83906549D01*
X152222409Y-84233019D01*
X152222226Y-84559160D01*
X152221839Y-84881643D01*
X152221250Y-85197141D01*
X152220457Y-85502324D01*
X152219463Y-85793866D01*
X152218267Y-86068437D01*
X152216871Y-86322709D01*
X152215275Y-86553355D01*
X152213478Y-86757046D01*
X152211483Y-86930454D01*
X152209290Y-87070251D01*
X152206899Y-87173108D01*
X152204311Y-87235697D01*
X152202118Y-87254501D01*
X152181662Y-87276762D01*
X152131739Y-87324506D01*
X152057697Y-87392984D01*
X151964883Y-87477446D01*
X151858645Y-87573145D01*
X151744329Y-87675329D01*
X151627283Y-87779252D01*
X151512855Y-87880162D01*
X151406392Y-87973312D01*
X151313241Y-88053951D01*
X151238750Y-88117332D01*
X151188265Y-88158705D01*
X151167653Y-88173237D01*
X151146936Y-88159605D01*
X151096367Y-88118589D01*
X151020302Y-88053953D01*
X150923098Y-87969460D01*
X150809113Y-87868875D01*
X150682704Y-87755962D01*
X150636247Y-87714150D01*
X150121538Y-87249999D01*
X150121538Y-85450018D01*
X150121397Y-85133146D01*
X150120987Y-84805582D01*
X150120333Y-84473950D01*
X150119458Y-84144870D01*
X150118387Y-83824965D01*
X150117141Y-83520855D01*
X150115746Y-83239163D01*
X150114225Y-82986511D01*
X150112602Y-82769519D01*
X150111585Y-82658924D01*
X150109746Y-82437443D01*
X150108666Y-82220517D01*
X150108326Y-82014682D01*
X150108710Y-81826474D01*
X150109797Y-81662432D01*
X150111570Y-81529091D01*
X150114011Y-81432988D01*
X150115110Y-81407571D01*
X150128589Y-81147332D01*
X150634283Y-80702015D01*
X150764444Y-80588110D01*
X150884421Y-80484482D01*
X150989563Y-80395038D01*
X151075218Y-80323689D01*
X151136737Y-80274343D01*
X151169469Y-80250911D01*
X151172530Y-80249576D01*
X151196866Y-80262600D01*
G37*
G36*
X141942453Y-70368610D02*
G01*
X141995423Y-70393707D01*
X142075942Y-70437882D01*
X142154801Y-70482856D01*
X142251058Y-70538296D01*
X142331750Y-70585166D01*
X142388937Y-70618825D01*
X142414678Y-70634633D01*
X142415214Y-70635051D01*
X142409023Y-70657397D01*
X142384881Y-70709512D01*
X142347700Y-70780945D01*
X142340032Y-70794993D01*
X142299841Y-70869370D01*
X142270197Y-70926627D01*
X142256637Y-70956015D01*
X142256329Y-70957447D01*
X142274613Y-70973740D01*
X142319335Y-71000154D01*
X142326369Y-71003842D01*
X142386430Y-71024406D01*
X142470989Y-71033793D01*
X142586615Y-71033353D01*
X142776821Y-71026644D01*
X142783708Y-70882063D01*
X142790595Y-70737482D01*
X143075165Y-70737482D01*
X143359734Y-70737482D01*
X143374670Y-70963028D01*
X143381731Y-71094885D01*
X143387024Y-71241702D01*
X143389612Y-71376085D01*
X143389725Y-71402265D01*
X143389845Y-71615954D01*
X143481917Y-71674077D01*
X143538167Y-71708359D01*
X143576168Y-71729234D01*
X143584024Y-71732200D01*
X143599281Y-71713549D01*
X143630399Y-71664262D01*
X143671122Y-71594338D01*
X143678148Y-71581835D01*
X143720161Y-71509477D01*
X143754054Y-71456183D01*
X143773392Y-71431976D01*
X143774696Y-71431471D01*
X143800676Y-71442300D01*
X143856409Y-71471050D01*
X143931812Y-71512113D01*
X144016800Y-71559881D01*
X144101290Y-71608746D01*
X144175198Y-71653101D01*
X144191728Y-71663386D01*
X144288055Y-71723934D01*
X144160909Y-71965180D01*
X144115920Y-72050256D01*
X144053417Y-72168042D01*
X143977705Y-72310448D01*
X143893087Y-72469386D01*
X143803867Y-72636766D01*
X143714349Y-72804500D01*
X143711804Y-72809266D01*
X143389845Y-73412107D01*
X143389845Y-81081454D01*
X143389800Y-81677398D01*
X143389667Y-82262885D01*
X143389451Y-82836131D01*
X143389153Y-83395351D01*
X143388778Y-83938761D01*
X143388328Y-84464578D01*
X143387808Y-84971017D01*
X143387220Y-85456294D01*
X143386569Y-85918625D01*
X143385856Y-86356225D01*
X143385086Y-86767311D01*
X143384262Y-87150098D01*
X143383387Y-87502802D01*
X143382465Y-87823639D01*
X143381499Y-88110825D01*
X143380493Y-88362575D01*
X143379449Y-88577106D01*
X143378371Y-88752633D01*
X143377263Y-88887373D01*
X143376128Y-88979540D01*
X143374969Y-89027351D01*
X143374886Y-89029000D01*
X143359928Y-89307199D01*
X143218739Y-89320254D01*
X143111147Y-89325353D01*
X142992878Y-89323916D01*
X142933886Y-89320152D01*
X142790221Y-89306996D01*
X142783521Y-89130845D01*
X142776821Y-88954695D01*
X142007650Y-88948599D01*
X141238479Y-88942504D01*
X141238479Y-89124667D01*
X141238479Y-89306830D01*
X141094823Y-89319856D01*
X140989781Y-89324835D01*
X140870469Y-89323938D01*
X140794144Y-89319718D01*
X140637119Y-89306554D01*
X140634690Y-87072593D01*
X141398676Y-87072593D01*
X141420826Y-87232100D01*
X141479154Y-87379973D01*
X141571148Y-87509263D01*
X141694296Y-87613016D01*
X141806900Y-87670405D01*
X141959581Y-87710063D01*
X142110118Y-87706358D01*
X142238862Y-87671036D01*
X142385388Y-87592759D01*
X142503305Y-87481127D01*
X142588816Y-87341831D01*
X142638127Y-87180564D01*
X142649082Y-87055703D01*
X142629296Y-86882374D01*
X142571831Y-86728527D01*
X142481210Y-86598898D01*
X142361957Y-86498227D01*
X142218596Y-86431252D01*
X142055650Y-86402711D01*
X142025000Y-86402021D01*
X141856004Y-86423044D01*
X141707737Y-86484992D01*
X141582891Y-86586186D01*
X141484158Y-86724945D01*
X141472963Y-86746490D01*
X141415218Y-86908406D01*
X141398676Y-87072593D01*
X140634690Y-87072593D01*
X140631287Y-83943736D01*
X140630852Y-83543668D01*
X141400918Y-83543668D01*
X141420703Y-83716996D01*
X141478169Y-83870844D01*
X141568790Y-84000473D01*
X141688043Y-84101144D01*
X141831404Y-84168119D01*
X141994349Y-84196660D01*
X142025000Y-84197350D01*
X142112665Y-84192268D01*
X142193664Y-84179327D01*
X142225888Y-84170193D01*
X142376069Y-84091494D01*
X142497167Y-83979686D01*
X142585369Y-83840419D01*
X142636857Y-83679342D01*
X142649082Y-83543668D01*
X142633643Y-83381111D01*
X142585060Y-83242839D01*
X142498275Y-83116371D01*
X142458262Y-83072916D01*
X142347183Y-82985035D01*
X142214816Y-82920100D01*
X142078532Y-82885756D01*
X142025000Y-82882291D01*
X141892184Y-82901717D01*
X141756086Y-82954901D01*
X141634077Y-83034200D01*
X141591738Y-83072916D01*
X141490498Y-83198206D01*
X141429218Y-83330962D01*
X141402840Y-83483669D01*
X141400918Y-83543668D01*
X140630852Y-83543668D01*
X140627058Y-80054583D01*
X141399456Y-80054583D01*
X141419235Y-80205071D01*
X141471576Y-80347789D01*
X141556865Y-80475606D01*
X141675489Y-80581393D01*
X141712020Y-80604515D01*
X141864496Y-80670725D01*
X142020816Y-80691804D01*
X142184021Y-80667897D01*
X142286117Y-80632188D01*
X142416750Y-80554022D01*
X142519503Y-80445671D01*
X142593238Y-80314706D01*
X142636819Y-80168696D01*
X142649107Y-80015213D01*
X142628965Y-79861824D01*
X142575256Y-79716101D01*
X142486843Y-79585614D01*
X142449240Y-79546600D01*
X142321726Y-79456049D01*
X142173421Y-79401464D01*
X142014624Y-79384549D01*
X141855633Y-79407006D01*
X141775449Y-79435178D01*
X141638221Y-79517553D01*
X141531622Y-79627811D01*
X141456036Y-79758823D01*
X141411852Y-79903457D01*
X141399456Y-80054583D01*
X140627058Y-80054583D01*
X140625455Y-78580920D01*
X138826867Y-81944170D01*
X138630431Y-82311650D01*
X138439990Y-82668221D01*
X138256684Y-83011738D01*
X138081652Y-83340050D01*
X137916034Y-83651012D01*
X137760969Y-83942475D01*
X137617599Y-84212290D01*
X137487061Y-84458311D01*
X137370497Y-84678389D01*
X137269045Y-84870376D01*
X137183846Y-85032124D01*
X137116039Y-85161485D01*
X137066764Y-85256313D01*
X137037161Y-85314457D01*
X137028278Y-85333677D01*
X137038516Y-85359815D01*
X137067589Y-85422068D01*
X137113041Y-85515476D01*
X137172416Y-85635079D01*
X137243255Y-85775916D01*
X137323101Y-85933028D01*
X137386547Y-86056863D01*
X137471063Y-86221686D01*
X137548156Y-86372838D01*
X137615429Y-86505556D01*
X137670486Y-86615079D01*
X137710931Y-86696645D01*
X137734366Y-86745492D01*
X137739325Y-86757804D01*
X137709495Y-86776172D01*
X137650212Y-86810469D01*
X137572623Y-86854445D01*
X137487877Y-86901852D01*
X137407124Y-86946438D01*
X137341512Y-86981953D01*
X137312156Y-86997269D01*
X137214340Y-87046656D01*
X137153226Y-86924992D01*
X137119724Y-86858968D01*
X137095447Y-86812373D01*
X137086922Y-86797284D01*
X137066209Y-86806536D01*
X137010126Y-86835636D01*
X136923693Y-86881871D01*
X136811933Y-86942528D01*
X136679865Y-87014891D01*
X136532511Y-87096247D01*
X136482465Y-87124006D01*
X136308745Y-87220809D01*
X136171001Y-87298624D01*
X136064543Y-87360522D01*
X135984678Y-87409573D01*
X135926714Y-87448850D01*
X135885962Y-87481424D01*
X135857728Y-87510366D01*
X135837322Y-87538748D01*
X135830002Y-87551161D01*
X135798645Y-87610894D01*
X135789407Y-87650682D01*
X135800582Y-87690239D01*
X135815370Y-87720121D01*
X135832719Y-87755528D01*
X135838764Y-87783251D01*
X135828211Y-87808745D01*
X135795767Y-87837466D01*
X135736137Y-87874868D01*
X135644028Y-87926405D01*
X135582468Y-87960092D01*
X135477782Y-88017316D01*
X135405857Y-88053622D01*
X135358267Y-88069175D01*
X135326589Y-88064137D01*
X135302399Y-88038673D01*
X135277273Y-87992946D01*
X135263666Y-87966287D01*
X135230356Y-87901912D01*
X135181331Y-87807409D01*
X135122252Y-87693679D01*
X135058781Y-87571626D01*
X135033042Y-87522170D01*
X134865346Y-87200027D01*
X134368977Y-86915451D01*
X133872608Y-86630874D01*
X133805103Y-86756679D01*
X133737598Y-86882483D01*
X133668720Y-86846865D01*
X133618485Y-86819420D01*
X133541518Y-86775687D01*
X133450816Y-86723093D01*
X133405043Y-86696188D01*
X133210244Y-86581129D01*
X133312888Y-86391500D01*
X133423347Y-86186740D01*
X133526643Y-85993915D01*
X133620725Y-85816946D01*
X133703540Y-85659756D01*
X133773039Y-85526266D01*
X133827170Y-85420397D01*
X133863882Y-85346072D01*
X133881124Y-85307213D01*
X133882195Y-85302964D01*
X133871808Y-85280157D01*
X133841395Y-85218394D01*
X133792072Y-85119869D01*
X133724958Y-84986777D01*
X133641171Y-84821312D01*
X133541829Y-84625669D01*
X133428050Y-84402042D01*
X133300952Y-84152627D01*
X133161654Y-83879617D01*
X133011273Y-83585207D01*
X132850928Y-83271593D01*
X132681736Y-82940968D01*
X132504816Y-82595527D01*
X132335405Y-82265011D01*
X133272730Y-82265011D01*
X133276744Y-82420289D01*
X133315772Y-82570302D01*
X133388755Y-82707800D01*
X133494632Y-82825533D01*
X133632343Y-82916253D01*
X133639298Y-82919597D01*
X133760280Y-82958783D01*
X133897178Y-82974786D01*
X134030874Y-82966790D01*
X134127874Y-82940451D01*
X134270764Y-82856522D01*
X134390661Y-82736726D01*
X134450133Y-82646879D01*
X134484735Y-82579008D01*
X134505255Y-82518914D01*
X134515249Y-82449937D01*
X134518269Y-82355420D01*
X134518351Y-82327099D01*
X134516481Y-82224019D01*
X134508456Y-82150286D01*
X134490658Y-82089054D01*
X134459467Y-82023474D01*
X134448952Y-82004060D01*
X134347589Y-81866138D01*
X134214586Y-81759860D01*
X134055995Y-81690042D01*
X134053303Y-81689253D01*
X133893778Y-81664510D01*
X133741438Y-81685303D01*
X133595789Y-81751762D01*
X133481385Y-81840074D01*
X133373991Y-81967654D01*
X133304793Y-82111716D01*
X133272730Y-82265011D01*
X132335405Y-82265011D01*
X132321286Y-82237464D01*
X132187705Y-81977025D01*
X130737006Y-79149418D01*
X131689837Y-79149418D01*
X131690285Y-79309647D01*
X131725362Y-79465585D01*
X131795595Y-79607932D01*
X131838190Y-79664351D01*
X131964025Y-79778965D01*
X132107243Y-79851726D01*
X132263694Y-79881731D01*
X132429225Y-79868076D01*
X132569205Y-79823504D01*
X132703662Y-79742277D01*
X132811708Y-79627418D01*
X132888993Y-79485966D01*
X132931166Y-79324960D01*
X132937825Y-79227282D01*
X132917904Y-79058161D01*
X132862051Y-78909811D01*
X132776130Y-78784984D01*
X132666007Y-78686432D01*
X132537545Y-78616908D01*
X132396610Y-78579164D01*
X132249065Y-78575951D01*
X132100777Y-78610023D01*
X131957608Y-78684130D01*
X131890972Y-78736006D01*
X131790709Y-78853296D01*
X131723488Y-78994201D01*
X131689837Y-79149418D01*
X130737006Y-79149418D01*
X130493215Y-78674237D01*
X130487382Y-83990583D01*
X130481550Y-89306929D01*
X130331235Y-89318995D01*
X130219557Y-89323691D01*
X130096969Y-89322598D01*
X130030555Y-89318991D01*
X129880191Y-89306921D01*
X129880191Y-89125025D01*
X129880191Y-88943128D01*
X129116803Y-88943128D01*
X128353415Y-88943128D01*
X128353415Y-89128192D01*
X128353415Y-89313256D01*
X128278233Y-89313457D01*
X128208441Y-89315331D01*
X128121273Y-89319811D01*
X128087386Y-89322085D01*
X127990122Y-89325169D01*
X127888621Y-89322573D01*
X127861839Y-89320617D01*
X127751958Y-89310721D01*
X127751958Y-86996118D01*
X128499922Y-86996118D01*
X128503152Y-87141917D01*
X128542299Y-87289751D01*
X128611573Y-87427198D01*
X128705187Y-87541838D01*
X128782223Y-87601940D01*
X128929564Y-87676859D01*
X129069206Y-87711251D01*
X129212357Y-87706815D01*
X129316028Y-87682902D01*
X129460484Y-87617836D01*
X129578623Y-87520638D01*
X129668609Y-87398435D01*
X129728605Y-87258353D01*
X129756776Y-87107518D01*
X129751286Y-86953058D01*
X129710297Y-86802099D01*
X129631975Y-86661767D01*
X129591830Y-86612475D01*
X129467589Y-86500002D01*
X129333593Y-86431042D01*
X129183526Y-86402967D01*
X129090488Y-86404099D01*
X128923971Y-86437436D01*
X128778934Y-86509592D01*
X128659392Y-86616541D01*
X128569359Y-86754258D01*
X128512850Y-86918719D01*
X128499922Y-86996118D01*
X127751958Y-86996118D01*
X127751958Y-83573133D01*
X128501661Y-83573133D01*
X128528424Y-83733765D01*
X128561649Y-83824648D01*
X128647300Y-83966396D01*
X128761288Y-84077458D01*
X128896378Y-84155004D01*
X129045337Y-84196205D01*
X129200931Y-84198233D01*
X129355927Y-84158258D01*
X129383714Y-84146146D01*
X129521963Y-84059376D01*
X129627928Y-83947380D01*
X129702032Y-83816746D01*
X129744700Y-83674064D01*
X129756355Y-83525924D01*
X129737422Y-83378915D01*
X129688324Y-83239627D01*
X129609485Y-83114650D01*
X129501329Y-83010573D01*
X129364280Y-82933985D01*
X129304408Y-82913371D01*
X129143647Y-82887884D01*
X128991910Y-82903349D01*
X128853317Y-82954713D01*
X128731985Y-83036921D01*
X128632035Y-83144920D01*
X128557585Y-83273658D01*
X128512754Y-83418080D01*
X128501661Y-83573133D01*
X127751958Y-83573133D01*
X127751958Y-81317473D01*
X127751958Y-80036936D01*
X128507296Y-80036936D01*
X128510062Y-80140954D01*
X128522484Y-80218837D01*
X128548618Y-80290374D01*
X128566859Y-80327566D01*
X128665767Y-80474759D01*
X128788664Y-80585786D01*
X128930090Y-80658576D01*
X129084582Y-80691064D01*
X129246679Y-80681180D01*
X129386449Y-80637881D01*
X129500299Y-80567956D01*
X129604655Y-80465375D01*
X129687114Y-80343660D01*
X129717254Y-80277212D01*
X129756560Y-80113938D01*
X129755498Y-79953130D01*
X129717976Y-79800860D01*
X129647902Y-79663201D01*
X129549184Y-79546227D01*
X129425730Y-79456009D01*
X129281448Y-79398620D01*
X129139936Y-79380091D01*
X128976985Y-79398050D01*
X128832972Y-79457630D01*
X128704380Y-79560343D01*
X128692293Y-79572981D01*
X128601005Y-79683455D01*
X128544156Y-79789225D01*
X128515121Y-79906904D01*
X128507296Y-80036936D01*
X127751958Y-80036936D01*
X127751958Y-76508190D01*
X128499572Y-76508190D01*
X128511862Y-76667513D01*
X128514632Y-76679678D01*
X128573372Y-76836720D01*
X128664204Y-76968069D01*
X128780569Y-77070635D01*
X128915907Y-77141329D01*
X129063661Y-77177060D01*
X129217270Y-77174740D01*
X129370178Y-77131279D01*
X129420880Y-77106560D01*
X129482734Y-77073429D01*
X129530127Y-77045431D01*
X129562400Y-77017215D01*
X129578896Y-76983429D01*
X129578956Y-76938721D01*
X129561923Y-76877741D01*
X129527140Y-76795135D01*
X129473948Y-76685554D01*
X129401690Y-76543644D01*
X129335930Y-76415399D01*
X129244569Y-76239374D01*
X129190018Y-76138017D01*
X130481648Y-76138017D01*
X130481648Y-76751172D01*
X130545264Y-76765203D01*
X130600317Y-76778656D01*
X130632012Y-76788264D01*
X130683609Y-76793880D01*
X130762684Y-76787169D01*
X130852933Y-76770756D01*
X130938051Y-76747270D01*
X130975269Y-76732958D01*
X131096656Y-76658104D01*
X131206256Y-76551552D01*
X131289637Y-76427797D01*
X131299692Y-76407127D01*
X131339426Y-76274217D01*
X131350456Y-76123673D01*
X131333213Y-75973601D01*
X131288126Y-75842107D01*
X131286173Y-75838302D01*
X131187194Y-75691579D01*
X131063591Y-75581385D01*
X130919363Y-75510300D01*
X130758509Y-75480908D01*
X130731834Y-75480249D01*
X130647097Y-75483933D01*
X130572649Y-75493926D01*
X130540987Y-75502301D01*
X130481648Y-75524861D01*
X130481648Y-76138017D01*
X129190018Y-76138017D01*
X129166935Y-76095127D01*
X129104370Y-75984989D01*
X129058216Y-75911289D01*
X129029812Y-75876361D01*
X129024271Y-75873726D01*
X128966983Y-75886803D01*
X128888660Y-75921329D01*
X128803914Y-75969256D01*
X128727356Y-76022537D01*
X128684245Y-76061015D01*
X128589247Y-76192235D01*
X128526528Y-76345529D01*
X128499572Y-76508190D01*
X127751958Y-76508190D01*
X127751958Y-75524861D01*
X127751958Y-73324226D01*
X127569693Y-72973522D01*
X127418752Y-72682451D01*
X127287268Y-72427554D01*
X127175575Y-72209493D01*
X127084007Y-72028931D01*
X127012896Y-71886528D01*
X126962575Y-71782946D01*
X126933378Y-71718846D01*
X126925638Y-71694891D01*
X126925667Y-71694860D01*
X126948894Y-71680073D01*
X127002647Y-71648836D01*
X127077448Y-71606411D01*
X127163820Y-71558063D01*
X127252287Y-71509056D01*
X127333370Y-71464656D01*
X127397594Y-71430125D01*
X127435480Y-71410729D01*
X127441478Y-71408338D01*
X127455512Y-71427374D01*
X127483857Y-71477441D01*
X127520557Y-71547982D01*
X127523037Y-71552919D01*
X127560112Y-71625921D01*
X127588879Y-71680784D01*
X127603362Y-71706121D01*
X127603593Y-71706397D01*
X127628043Y-71704617D01*
X127676701Y-71688328D01*
X127681817Y-71686241D01*
X127751958Y-71657188D01*
X127751958Y-71197335D01*
X127751958Y-70737482D01*
X128052686Y-70737482D01*
X128353415Y-70737482D01*
X128353415Y-70887846D01*
X128353415Y-71038211D01*
X128595223Y-71038211D01*
X128741788Y-71033623D01*
X128852582Y-71020294D01*
X128924447Y-70998869D01*
X128954223Y-70969998D01*
X128954872Y-70964439D01*
X128945107Y-70934909D01*
X128919538Y-70877031D01*
X128884676Y-70805302D01*
X128850991Y-70732091D01*
X128830469Y-70674456D01*
X128827519Y-70645147D01*
X128851293Y-70627152D01*
X128905876Y-70593215D01*
X128981295Y-70548926D01*
X129067573Y-70499873D01*
X129154738Y-70451645D01*
X129232815Y-70409830D01*
X129291829Y-70380016D01*
X129321806Y-70367793D01*
X129322630Y-70367742D01*
X129337394Y-70387352D01*
X129369308Y-70441337D01*
X129414537Y-70522838D01*
X129469250Y-70624996D01*
X129510063Y-70703053D01*
X129683561Y-71037977D01*
X129781876Y-71038094D01*
X129880191Y-71038211D01*
X129880191Y-70887846D01*
X129880191Y-70737482D01*
X130180920Y-70737482D01*
X130481648Y-70737482D01*
X130481648Y-71667301D01*
X130481648Y-72597120D01*
X132958123Y-77424694D01*
X133185582Y-77868023D01*
X133407640Y-78300682D01*
X133623361Y-78720852D01*
X133831809Y-79126716D01*
X134032049Y-79516454D01*
X134223144Y-79888251D01*
X134404158Y-80240286D01*
X134574155Y-80570743D01*
X134732201Y-80877804D01*
X134877357Y-81159650D01*
X135008689Y-81414463D01*
X135125261Y-81640426D01*
X135226137Y-81835721D01*
X135310381Y-81998529D01*
X135377056Y-82127033D01*
X135425228Y-82219414D01*
X135453959Y-82273855D01*
X135462267Y-82288804D01*
X135468203Y-82287488D01*
X135480151Y-82274203D01*
X135498869Y-82247555D01*
X135525117Y-82206150D01*
X135527039Y-82202947D01*
X136504223Y-82202947D01*
X136515241Y-82351769D01*
X136552797Y-82487790D01*
X136570925Y-82526919D01*
X136655848Y-82650751D01*
X136766925Y-82757122D01*
X136890250Y-82833364D01*
X136921528Y-82846293D01*
X137056016Y-82874177D01*
X137204623Y-82868691D01*
X137351113Y-82831384D01*
X137423871Y-82798417D01*
X137556445Y-82703474D01*
X137655281Y-82584620D01*
X137720942Y-82448655D01*
X137753995Y-82302381D01*
X137755005Y-82152596D01*
X137724537Y-82006102D01*
X137663157Y-81869699D01*
X137571430Y-81750188D01*
X137449921Y-81654369D01*
X137323967Y-81596737D01*
X137161369Y-81565316D01*
X137003248Y-81577732D01*
X136855069Y-81631562D01*
X136722296Y-81724388D01*
X136610394Y-81853789D01*
X136562730Y-81933839D01*
X136519976Y-82058059D01*
X136504223Y-82202947D01*
X135527039Y-82202947D01*
X135559654Y-82148592D01*
X135603240Y-82073489D01*
X135656632Y-81979445D01*
X135720590Y-81865066D01*
X135795873Y-81728958D01*
X135883241Y-81569727D01*
X135983452Y-81385977D01*
X136097266Y-81176315D01*
X136225441Y-80939347D01*
X136368737Y-80673677D01*
X136527912Y-80377912D01*
X136703726Y-80050658D01*
X136896938Y-79690519D01*
X137108307Y-79296102D01*
X137148556Y-79220931D01*
X138145695Y-79220931D01*
X138177371Y-79375751D01*
X138183839Y-79393777D01*
X138238435Y-79497182D01*
X138319063Y-79600107D01*
X138413788Y-79690368D01*
X138510677Y-79755779D01*
X138558218Y-79776014D01*
X138695201Y-79801602D01*
X138842657Y-79799232D01*
X138980187Y-79770012D01*
X139029280Y-79750380D01*
X139174548Y-79657794D01*
X139285351Y-79535708D01*
X139359420Y-79387853D01*
X139394483Y-79217955D01*
X139397093Y-79146316D01*
X139375712Y-78975651D01*
X139318389Y-78826695D01*
X139230958Y-78702185D01*
X139119253Y-78604855D01*
X138989107Y-78537443D01*
X138846354Y-78502682D01*
X138696828Y-78503310D01*
X138546362Y-78542060D01*
X138400791Y-78621669D01*
X138354665Y-78657505D01*
X138257129Y-78768186D01*
X138188103Y-78906250D01*
X138150115Y-79060798D01*
X138145695Y-79220931D01*
X137148556Y-79220931D01*
X137338592Y-78866012D01*
X137588552Y-78398855D01*
X137858946Y-77893237D01*
X138063479Y-77510637D01*
X138376605Y-76924827D01*
X141510762Y-76924827D01*
X141619678Y-77023434D01*
X141758285Y-77122033D01*
X141906587Y-77175402D01*
X142065079Y-77183655D01*
X142203617Y-77156652D01*
X142328669Y-77098994D01*
X142447227Y-77007622D01*
X142545998Y-76894585D01*
X142602459Y-76795203D01*
X142643600Y-76647101D01*
X142649143Y-76488174D01*
X142621477Y-76329908D01*
X142562993Y-76183791D01*
X142476079Y-76061311D01*
X142443181Y-76029449D01*
X142363726Y-75970657D01*
X142274369Y-75921180D01*
X142189330Y-75887604D01*
X142122826Y-75876513D01*
X142114653Y-75877296D01*
X142093233Y-75890638D01*
X142062358Y-75927635D01*
X142019878Y-75991770D01*
X141963641Y-76086526D01*
X141891498Y-76215387D01*
X141801298Y-76381835D01*
X141789053Y-76404697D01*
X141510762Y-76924827D01*
X138376605Y-76924827D01*
X138792441Y-76146861D01*
X139782665Y-76146861D01*
X139789925Y-76219965D01*
X139811607Y-76290687D01*
X139837365Y-76350431D01*
X139913131Y-76487248D01*
X140001649Y-76587988D01*
X140111816Y-76662680D01*
X140116530Y-76665130D01*
X140249799Y-76723241D01*
X140366966Y-76748539D01*
X140482331Y-76743086D01*
X140550273Y-76727705D01*
X140637022Y-76703613D01*
X140637022Y-76081159D01*
X140637022Y-75458704D01*
X140554984Y-75443314D01*
X140440112Y-75434392D01*
X140313335Y-75444030D01*
X140196985Y-75469725D01*
X140147078Y-75489048D01*
X140007038Y-75580470D01*
X139898551Y-75703703D01*
X139824530Y-75854221D01*
X139787888Y-76027499D01*
X139786135Y-76049702D01*
X139782665Y-76146861D01*
X138792441Y-76146861D01*
X140637022Y-72695933D01*
X140637022Y-71716708D01*
X140637022Y-70737482D01*
X140937750Y-70737482D01*
X141238479Y-70737482D01*
X141238479Y-70888950D01*
X141238479Y-71040418D01*
X141383060Y-71033531D01*
X141527641Y-71026644D01*
X141689800Y-70725915D01*
X141749211Y-70615987D01*
X141802492Y-70517867D01*
X141844990Y-70440089D01*
X141872052Y-70391185D01*
X141877434Y-70381755D01*
X141890601Y-70365237D01*
X141909893Y-70359988D01*
X141942453Y-70368610D01*
G37*
G36*
X172239814Y-91019312D02*
G01*
X172240624Y-91048252D01*
X172241356Y-91119748D01*
X172242009Y-91230093D01*
X172242586Y-91375577D01*
X172243087Y-91552492D01*
X172243512Y-91757129D01*
X172243863Y-91985779D01*
X172244140Y-92234732D01*
X172244344Y-92500281D01*
X172244476Y-92778717D01*
X172244536Y-93066330D01*
X172244525Y-93359413D01*
X172244444Y-93654255D01*
X172244294Y-93947149D01*
X172244076Y-94234385D01*
X172243790Y-94512254D01*
X172243437Y-94777049D01*
X172243017Y-95025059D01*
X172242533Y-95252577D01*
X172241983Y-95455892D01*
X172241370Y-95631298D01*
X172240694Y-95775084D01*
X172239955Y-95883542D01*
X172239155Y-95952963D01*
X172238795Y-95969767D01*
X172236657Y-96044950D01*
X150005874Y-96044950D01*
X127775091Y-96044950D01*
X127775091Y-93500323D01*
X127775091Y-93459244D01*
X128666147Y-93459244D01*
X128669122Y-93613776D01*
X128692772Y-93755922D01*
X128720151Y-93835463D01*
X128803649Y-93977690D01*
X128909492Y-94080132D01*
X129040532Y-94144965D01*
X129159564Y-94170526D01*
X129286022Y-94179312D01*
X129391228Y-94168694D01*
X129497120Y-94135860D01*
X129527413Y-94123362D01*
X129587566Y-94094715D01*
X129616255Y-94065476D01*
X129625105Y-94018204D01*
X129625728Y-93975850D01*
X129623272Y-93913296D01*
X129617049Y-93875522D01*
X129613225Y-93870451D01*
X129588205Y-93882910D01*
X129542425Y-93913660D01*
X129531762Y-93921435D01*
X129465852Y-93956016D01*
X129375732Y-93975991D01*
X129308675Y-93982234D01*
X129180940Y-93980879D01*
X129085283Y-93954716D01*
X129011942Y-93898688D01*
X128951155Y-93807734D01*
X128943653Y-93793054D01*
X128901908Y-93674204D01*
X128884074Y-93542346D01*
X128888719Y-93408358D01*
X128914415Y-93283117D01*
X128959730Y-93177501D01*
X129023234Y-93102389D01*
X129035643Y-93093496D01*
X129157494Y-93039858D01*
X129291194Y-93025044D01*
X129423626Y-93048926D01*
X129523482Y-93098246D01*
X129576125Y-93132251D01*
X129611024Y-93151619D01*
X129616457Y-93153328D01*
X129622005Y-93132640D01*
X129622881Y-93079999D01*
X129621213Y-93043536D01*
X129613341Y-92974289D01*
X129594384Y-92933971D01*
X129554086Y-92905251D01*
X129533196Y-92894807D01*
X129380442Y-92844735D01*
X129225135Y-92835891D01*
X129075036Y-92865522D01*
X128937905Y-92930877D01*
X128821502Y-93029204D01*
X128733589Y-93157752D01*
X128722024Y-93182438D01*
X128683798Y-93309680D01*
X128666147Y-93459244D01*
X127775091Y-93459244D01*
X127775091Y-92528738D01*
X129972723Y-92528738D01*
X130133680Y-92528738D01*
X130294638Y-92528738D01*
X130301394Y-93221077D01*
X130303461Y-93418808D01*
X130305628Y-93575636D01*
X130308286Y-93696922D01*
X130311824Y-93788026D01*
X130316634Y-93854310D01*
X130323105Y-93901136D01*
X130331627Y-93933864D01*
X130342592Y-93957855D01*
X130356389Y-93978472D01*
X130356544Y-93978681D01*
X130427462Y-94059004D01*
X130505215Y-94110555D01*
X130601778Y-94138476D01*
X130729129Y-94147908D01*
X130751098Y-94148046D01*
X130944308Y-94148046D01*
X130944308Y-94055514D01*
X130944308Y-93962982D01*
X130795835Y-93962982D01*
X130721413Y-93962771D01*
X130660892Y-93959248D01*
X130612836Y-93948080D01*
X130575810Y-93924936D01*
X130548376Y-93885482D01*
X130529099Y-93825386D01*
X130522495Y-93780646D01*
X131283591Y-93780646D01*
X131302906Y-93919575D01*
X131358826Y-94033717D01*
X131448313Y-94118945D01*
X131568328Y-94171135D01*
X131571739Y-94171992D01*
X131657704Y-94181855D01*
X131758859Y-94177663D01*
X131852978Y-94161355D01*
X131904326Y-94142987D01*
X131950024Y-94112371D01*
X132007849Y-94064659D01*
X132025774Y-94048201D01*
X132100956Y-93977040D01*
X132100956Y-94062543D01*
X132100956Y-94148046D01*
X132205054Y-94148046D01*
X132309153Y-94148046D01*
X132309153Y-94100488D01*
X132702413Y-94100488D01*
X132823861Y-94134729D01*
X133008167Y-94174524D01*
X133171395Y-94181992D01*
X133325315Y-94157389D01*
X133363371Y-94146367D01*
X133447396Y-94100488D01*
X134044125Y-94100488D01*
X134165574Y-94134729D01*
X134366806Y-94175572D01*
X134547229Y-94179345D01*
X134703682Y-94146036D01*
X134726548Y-94137152D01*
X134829271Y-94072630D01*
X134904472Y-93981901D01*
X134949872Y-93874672D01*
X134963192Y-93760653D01*
X134942153Y-93649552D01*
X134898536Y-93575082D01*
X136659732Y-93575082D01*
X136669828Y-93699414D01*
X136691241Y-93796486D01*
X136691520Y-93797280D01*
X136764342Y-93941022D01*
X136867759Y-94052393D01*
X136997973Y-94129967D01*
X137151186Y-94172319D01*
X137323599Y-94178023D01*
X137511413Y-94145653D01*
X137571903Y-94127750D01*
X137639252Y-94104145D01*
X137674342Y-94080635D01*
X137688939Y-94043085D01*
X137694619Y-93980332D01*
X137696135Y-93916358D01*
X137692088Y-93876743D01*
X137687914Y-93870451D01*
X137660876Y-93880147D01*
X137607960Y-93904739D01*
X137576765Y-93920373D01*
X137473123Y-93958023D01*
X137350756Y-93979386D01*
X137226521Y-93983425D01*
X137117271Y-93969101D01*
X137066975Y-93951762D01*
X136974452Y-93883036D01*
X136908515Y-93780253D01*
X136875985Y-93666969D01*
X136860434Y-93569722D01*
X137306256Y-93569722D01*
X137752078Y-93569722D01*
X137739283Y-93400530D01*
X137709973Y-93218059D01*
X137652186Y-93071797D01*
X137565587Y-92961231D01*
X137449842Y-92885848D01*
X137422289Y-92875733D01*
X138069262Y-92875733D01*
X138069262Y-93511889D01*
X138069262Y-94148046D01*
X138171232Y-94148046D01*
X138273201Y-94148046D01*
X138281492Y-93702736D01*
X138285165Y-93540612D01*
X138289754Y-93417870D01*
X138295898Y-93327628D01*
X138304239Y-93263003D01*
X138315416Y-93217112D01*
X138329755Y-93183649D01*
X138397017Y-93095184D01*
X138482735Y-93047907D01*
X138561722Y-93037664D01*
X138634339Y-93041729D01*
X138691401Y-93057165D01*
X138734734Y-93088830D01*
X138766168Y-93141583D01*
X138787532Y-93220285D01*
X138800653Y-93329792D01*
X138807360Y-93474966D01*
X138809481Y-93660665D01*
X138809517Y-93696210D01*
X138809517Y-94148046D01*
X138913615Y-94148046D01*
X139017714Y-94148046D01*
X139017714Y-93666375D01*
X139016777Y-93532128D01*
X139340877Y-93532128D01*
X139360078Y-93698941D01*
X139402505Y-93849874D01*
X139466657Y-93972532D01*
X139472725Y-93980808D01*
X139570021Y-94077560D01*
X139683256Y-94137412D01*
X139804042Y-94159358D01*
X139923992Y-94142391D01*
X140034721Y-94085507D01*
X140073056Y-94052808D01*
X140151229Y-93977040D01*
X140151229Y-94049838D01*
X140141805Y-94162253D01*
X140116493Y-94270015D01*
X140079735Y-94358135D01*
X140046568Y-94403037D01*
X139958764Y-94454013D01*
X139842409Y-94469475D01*
X139698575Y-94449447D01*
X139528332Y-94393956D01*
X139519465Y-94390381D01*
X139494802Y-94385081D01*
X139483749Y-94402144D01*
X139482818Y-94451216D01*
X139484766Y-94486249D01*
X139491940Y-94599139D01*
X139619171Y-94625825D01*
X139757034Y-94648735D01*
X139871066Y-94651988D01*
X139979398Y-94635417D01*
X140029189Y-94622022D01*
X140152486Y-94562766D01*
X140247782Y-94466917D01*
X140314348Y-94335256D01*
X140323734Y-94306104D01*
X140334828Y-94259629D01*
X140343494Y-94199945D01*
X140349989Y-94121448D01*
X140352410Y-94067081D01*
X140752686Y-94067081D01*
X140752686Y-94148046D01*
X141250045Y-94148046D01*
X141747404Y-94148046D01*
X141747404Y-94067081D01*
X141747404Y-93986115D01*
X141550774Y-93986115D01*
X141354144Y-93986115D01*
X141354144Y-93430924D01*
X141354144Y-92875733D01*
X142094399Y-92875733D01*
X142094399Y-93511889D01*
X142094399Y-94148046D01*
X142210063Y-94148046D01*
X142325728Y-94148046D01*
X142325728Y-93710026D01*
X142326911Y-93568282D01*
X142330198Y-93439063D01*
X142335200Y-93330848D01*
X142341528Y-93252120D01*
X142348626Y-93211781D01*
X142406685Y-93117267D01*
X142492816Y-93058223D01*
X142600919Y-93038399D01*
X142669742Y-93042094D01*
X142723653Y-93055439D01*
X142764446Y-93083418D01*
X142793920Y-93131016D01*
X142813869Y-93203218D01*
X142826092Y-93305008D01*
X142832384Y-93441370D01*
X142834542Y-93617290D01*
X142834654Y-93686893D01*
X142834654Y-94148046D01*
X142952619Y-94148046D01*
X143070585Y-94148046D01*
X143059874Y-93656471D01*
X143055596Y-93511889D01*
X143379657Y-93511889D01*
X143392270Y-93691175D01*
X143431772Y-93838667D01*
X143500657Y-93961886D01*
X143547233Y-94017097D01*
X143663492Y-94106811D01*
X143806117Y-94162270D01*
X143969505Y-94182662D01*
X144148054Y-94167177D01*
X144303597Y-94126548D01*
X144370894Y-94101952D01*
X144406010Y-94077851D01*
X144420666Y-94040144D01*
X144426313Y-93978926D01*
X144429097Y-93915424D01*
X144428219Y-93876430D01*
X144426313Y-93870558D01*
X144403006Y-93878727D01*
X144348975Y-93899975D01*
X144280464Y-93927841D01*
X144139193Y-93971060D01*
X143998630Y-93987206D01*
X143870806Y-93976084D01*
X143767752Y-93937496D01*
X143765755Y-93936275D01*
X143693402Y-93869474D01*
X143635396Y-93775833D01*
X143602396Y-93674629D01*
X143598550Y-93633848D01*
X143598042Y-93570743D01*
X143800595Y-93567804D01*
X144718654Y-93567804D01*
X144729588Y-93661146D01*
X144776491Y-93830386D01*
X144855745Y-93968323D01*
X144964243Y-94073376D01*
X145098879Y-94143961D01*
X145256544Y-94178493D01*
X145434132Y-94175390D01*
X145628534Y-94133069D01*
X145645309Y-94127750D01*
X145712658Y-94104145D01*
X145747748Y-94080635D01*
X145762346Y-94043085D01*
X145768025Y-93980332D01*
X145770803Y-93916353D01*
X145769965Y-93876794D01*
X145768025Y-93870558D01*
X145744718Y-93878727D01*
X145690687Y-93899975D01*
X145622176Y-93927841D01*
X145484350Y-93969444D01*
X145343910Y-93985327D01*
X145215304Y-93974864D01*
X145134462Y-93948953D01*
X145047128Y-93882916D01*
X144983060Y-93782637D01*
X144949391Y-93666969D01*
X144933841Y-93569722D01*
X145379679Y-93569722D01*
X145825517Y-93569722D01*
X145811863Y-93406856D01*
X145780004Y-93229346D01*
X145718498Y-93081133D01*
X145630367Y-92965101D01*
X145518631Y-92884135D01*
X145492786Y-92875733D01*
X146327732Y-92875733D01*
X146327732Y-93511889D01*
X146327732Y-94148046D01*
X146429957Y-94148046D01*
X146532182Y-94148046D01*
X146533691Y-94067081D01*
X147461247Y-94067081D01*
X147461247Y-94148046D01*
X147970173Y-94148046D01*
X148479098Y-94148046D01*
X148479098Y-94067081D01*
X148479098Y-93986115D01*
X148282468Y-93986115D01*
X148085838Y-93986115D01*
X148085838Y-93430924D01*
X148085838Y-92875733D01*
X148826093Y-92875733D01*
X148826093Y-93511889D01*
X148826093Y-94148046D01*
X148927738Y-94148046D01*
X149029382Y-94148046D01*
X149038479Y-93702736D01*
X149042463Y-93540317D01*
X149047314Y-93417273D01*
X149053685Y-93326717D01*
X149062226Y-93261759D01*
X149073589Y-93215510D01*
X149087680Y-93182463D01*
X149150543Y-93097427D01*
X149230979Y-93051956D01*
X149337411Y-93041509D01*
X149348039Y-93042098D01*
X149424311Y-93052898D01*
X149473904Y-93078648D01*
X149506187Y-93114471D01*
X149522536Y-93139287D01*
X149534922Y-93168357D01*
X149544021Y-93208353D01*
X149550510Y-93265947D01*
X149555063Y-93347810D01*
X149558358Y-93460615D01*
X149561071Y-93611034D01*
X149561863Y-93663879D01*
X149568945Y-94148046D01*
X149671744Y-94148046D01*
X149774544Y-94148046D01*
X149774415Y-93668037D01*
X149773114Y-93505722D01*
X149771148Y-93425659D01*
X150104534Y-93425659D01*
X150106318Y-93619940D01*
X150137617Y-93789201D01*
X150196351Y-93930204D01*
X150280438Y-94039712D01*
X150387796Y-94114487D01*
X150516344Y-94151291D01*
X150573219Y-94154656D01*
X150691085Y-94143023D01*
X150781660Y-94104276D01*
X150855895Y-94035985D01*
X150907830Y-93974549D01*
X150907393Y-94067081D01*
X150892685Y-94221235D01*
X150850429Y-94339054D01*
X150780983Y-94420052D01*
X150684708Y-94463743D01*
X150607214Y-94471908D01*
X150515620Y-94462920D01*
X150414342Y-94440125D01*
X150370466Y-94425653D01*
X150302986Y-94400440D01*
X150255822Y-94383635D01*
X150241719Y-94379387D01*
X150238941Y-94400085D01*
X150239779Y-94452763D01*
X150241719Y-94489257D01*
X150248770Y-94599139D01*
X150376001Y-94625825D01*
X150513864Y-94648735D01*
X150627896Y-94651988D01*
X150736228Y-94635417D01*
X150786019Y-94622022D01*
X150909316Y-94562766D01*
X151004612Y-94466917D01*
X151071179Y-94335256D01*
X151080564Y-94306104D01*
X151091658Y-94259629D01*
X151100324Y-94199945D01*
X151104618Y-94148046D01*
X151833378Y-94148046D01*
X151983742Y-94148046D01*
X152134107Y-94148046D01*
X152734994Y-94148046D01*
X152850944Y-94148046D01*
X152966894Y-94148046D01*
X152968969Y-93436707D01*
X152971044Y-92725369D01*
X153105220Y-93130195D01*
X153239397Y-93535022D01*
X153329288Y-93541882D01*
X153419179Y-93548742D01*
X153562568Y-93113922D01*
X153705956Y-92679103D01*
X153706552Y-93413574D01*
X153707149Y-94148046D01*
X153811247Y-94148046D01*
X153915345Y-94148046D01*
X153915345Y-93780573D01*
X154146675Y-93780573D01*
X154166735Y-93912832D01*
X154222696Y-94022740D01*
X154308226Y-94106844D01*
X154416994Y-94161688D01*
X154542671Y-94183820D01*
X154678924Y-94169786D01*
X154789244Y-94131152D01*
X154855797Y-94089523D01*
X154910239Y-94038466D01*
X154910692Y-94037894D01*
X154956329Y-93979876D01*
X154956329Y-94063961D01*
X154956329Y-94148046D01*
X155060427Y-94148046D01*
X155164526Y-94148046D01*
X155604052Y-94148046D01*
X155708150Y-94148046D01*
X155812249Y-94148046D01*
X155812249Y-93898121D01*
X155812249Y-93648197D01*
X155888662Y-93574135D01*
X155965074Y-93500072D01*
X156182267Y-93814924D01*
X156256548Y-93920911D01*
X156323296Y-94012988D01*
X156377535Y-94084536D01*
X156414292Y-94128939D01*
X156426872Y-94140295D01*
X156465268Y-94145187D01*
X156530019Y-94145223D01*
X156560702Y-94143647D01*
X156667120Y-94136480D01*
X156390222Y-93743441D01*
X156228811Y-93514330D01*
X156830099Y-93514330D01*
X156844544Y-93702303D01*
X156888770Y-93856660D01*
X156964114Y-93980273D01*
X157071913Y-94076013D01*
X157099524Y-94093273D01*
X157255980Y-94158696D01*
X157429542Y-94181563D01*
X157619009Y-94161809D01*
X157743852Y-94128157D01*
X157811180Y-94104312D01*
X157846275Y-94080659D01*
X157860885Y-94043043D01*
X157866567Y-93980332D01*
X157868083Y-93916358D01*
X157864036Y-93876743D01*
X157859862Y-93870451D01*
X157832976Y-93880394D01*
X157780343Y-93905632D01*
X157748713Y-93921992D01*
X157687271Y-93949222D01*
X157620375Y-93965220D01*
X157533040Y-93972600D01*
X157450250Y-93974042D01*
X157352611Y-93973511D01*
X157288413Y-93968976D01*
X157244835Y-93956918D01*
X157209055Y-93933821D01*
X157168992Y-93896885D01*
X157106773Y-93814077D01*
X157060039Y-93710071D01*
X157038696Y-93607806D01*
X157038296Y-93594178D01*
X157061209Y-93584266D01*
X157130008Y-93576919D01*
X157244784Y-93572132D01*
X157405631Y-93569901D01*
X157477823Y-93569722D01*
X157917349Y-93569722D01*
X157917349Y-93446689D01*
X157899651Y-93271871D01*
X157848970Y-93121258D01*
X157768919Y-92998573D01*
X157663115Y-92907538D01*
X157535175Y-92851873D01*
X157388713Y-92835301D01*
X157328045Y-92840146D01*
X157191815Y-92876802D01*
X157065782Y-92945032D01*
X156966317Y-93035735D01*
X156958568Y-93045551D01*
X156890510Y-93159525D01*
X156848940Y-93292424D01*
X156831187Y-93453992D01*
X156830099Y-93514330D01*
X156228811Y-93514330D01*
X156113323Y-93350402D01*
X156349850Y-93113068D01*
X156586377Y-92875733D01*
X156459921Y-92875733D01*
X156333465Y-92875733D01*
X156072857Y-93135601D01*
X155812249Y-93395470D01*
X155812249Y-92881139D01*
X155812249Y-92540305D01*
X158079280Y-92540305D01*
X158079280Y-92644403D01*
X158333742Y-92644403D01*
X158588205Y-92644403D01*
X158588205Y-93396225D01*
X158588205Y-94148046D01*
X158715436Y-94148046D01*
X158842668Y-94148046D01*
X158842668Y-93448499D01*
X159535879Y-93448499D01*
X159537508Y-93608117D01*
X159556271Y-93756645D01*
X159582867Y-93853424D01*
X159654168Y-93987807D01*
X159753233Y-94089547D01*
X159875191Y-94153912D01*
X159899656Y-94161286D01*
X159978844Y-94181644D01*
X160034126Y-94190364D01*
X160086229Y-94187997D01*
X160155878Y-94175094D01*
X160185065Y-94168871D01*
X160317316Y-94117689D01*
X160429379Y-94028472D01*
X160509554Y-93914144D01*
X160554500Y-93788159D01*
X160579517Y-93635572D01*
X160584606Y-93471537D01*
X160569767Y-93311205D01*
X160535000Y-93169728D01*
X160509539Y-93109606D01*
X160451783Y-93023701D01*
X160374414Y-92944008D01*
X160291725Y-92883615D01*
X160236005Y-92859176D01*
X160153898Y-92846402D01*
X160049812Y-92842589D01*
X159947154Y-92847720D01*
X159877285Y-92859429D01*
X159789880Y-92902837D01*
X159703312Y-92979337D01*
X159628964Y-93076973D01*
X159583912Y-93167561D01*
X159551356Y-93295683D01*
X159535879Y-93448499D01*
X158842668Y-93448499D01*
X158842668Y-93396225D01*
X158842668Y-92644403D01*
X159097130Y-92644403D01*
X159351593Y-92644403D01*
X159351593Y-92576896D01*
X159351770Y-92540305D01*
X160947768Y-92540305D01*
X160947768Y-92644403D01*
X161121265Y-92644403D01*
X161294762Y-92644403D01*
X161294762Y-93292126D01*
X161294762Y-93939849D01*
X161121265Y-93939849D01*
X160947768Y-93939849D01*
X160947768Y-94043948D01*
X160947768Y-94148046D01*
X161411757Y-94148046D01*
X161875747Y-94148046D01*
X161868634Y-94049731D01*
X161861520Y-93951416D01*
X161693806Y-93944619D01*
X161526092Y-93937823D01*
X161526092Y-93291113D01*
X161526092Y-92875733D01*
X162289480Y-92875733D01*
X162289480Y-93511889D01*
X162289480Y-94148046D01*
X162393578Y-94148046D01*
X162497677Y-94148046D01*
X162497677Y-93720554D01*
X162498563Y-93555972D01*
X162501557Y-93430550D01*
X162507156Y-93337210D01*
X162515862Y-93268873D01*
X162528174Y-93218461D01*
X162534338Y-93201438D01*
X162590069Y-93108297D01*
X162668831Y-93054601D01*
X162772567Y-93037664D01*
X162841863Y-93040047D01*
X162895979Y-93050571D01*
X162936782Y-93074301D01*
X162966136Y-93116299D01*
X162985909Y-93181629D01*
X162997966Y-93275356D01*
X163004174Y-93402542D01*
X163006400Y-93568250D01*
X163006602Y-93672671D01*
X163006602Y-94148046D01*
X163122267Y-94148046D01*
X163237932Y-94148046D01*
X163237570Y-93714303D01*
X163235570Y-93511070D01*
X163229222Y-93348121D01*
X163217437Y-93219588D01*
X163199132Y-93119605D01*
X163173218Y-93042305D01*
X163138611Y-92981820D01*
X163094222Y-92932284D01*
X163092473Y-92930672D01*
X163005657Y-92875733D01*
X163631192Y-92875733D01*
X163631192Y-93511889D01*
X163631192Y-94148046D01*
X163735291Y-94148046D01*
X163839389Y-94148046D01*
X163839389Y-93720554D01*
X163841022Y-93536768D01*
X163846715Y-93393153D01*
X163857660Y-93283702D01*
X163875049Y-93202410D01*
X163900075Y-93143272D01*
X163933929Y-93100279D01*
X163967768Y-93073738D01*
X164032961Y-93049234D01*
X164119658Y-93038109D01*
X164204557Y-93042201D01*
X164243180Y-93052033D01*
X164279056Y-93081205D01*
X164316345Y-93133052D01*
X164319515Y-93138782D01*
X164333449Y-93172384D01*
X164344208Y-93219062D01*
X164352370Y-93285371D01*
X164358515Y-93377866D01*
X164363223Y-93503099D01*
X164367071Y-93667626D01*
X164367301Y-93679604D01*
X164376197Y-94148046D01*
X164479876Y-94148046D01*
X164583555Y-94148046D01*
X164575816Y-93644904D01*
X164573547Y-93511889D01*
X164915072Y-93511889D01*
X164916090Y-93628137D01*
X164920630Y-93711298D01*
X164930925Y-93774534D01*
X164949206Y-93831007D01*
X164977704Y-93893879D01*
X164980966Y-93900546D01*
X165065674Y-94025065D01*
X165176691Y-94115525D01*
X165306818Y-94169764D01*
X165448851Y-94185622D01*
X165595589Y-94160938D01*
X165700698Y-94116531D01*
X165805446Y-94034249D01*
X165885736Y-93915761D01*
X165939724Y-93765222D01*
X165965564Y-93586790D01*
X165967622Y-93514992D01*
X165952264Y-93318211D01*
X165906888Y-93152643D01*
X165832543Y-93020017D01*
X165730281Y-92922066D01*
X165663421Y-92890200D01*
X166222085Y-92890200D01*
X166229289Y-92914994D01*
X166249641Y-92977880D01*
X166281248Y-93073197D01*
X166322219Y-93195284D01*
X166370662Y-93338479D01*
X166424684Y-93497122D01*
X166435011Y-93527338D01*
X166647937Y-94150008D01*
X166784882Y-94143244D01*
X166921827Y-94136480D01*
X167058823Y-93736483D01*
X167595273Y-93736483D01*
X167603094Y-93869974D01*
X167649153Y-93989269D01*
X167727987Y-94086322D01*
X167834135Y-94153088D01*
X167890499Y-94171382D01*
X167976527Y-94180782D01*
X168077925Y-94176369D01*
X168172290Y-94160104D01*
X168223087Y-94142263D01*
X168271431Y-94110837D01*
X168327542Y-94064919D01*
X168332968Y-94059926D01*
X168396584Y-94000592D01*
X168396584Y-94074319D01*
X168398700Y-94117606D01*
X168412923Y-94139412D01*
X168451066Y-94147104D01*
X168514833Y-94148046D01*
X168633081Y-94148046D01*
X168624539Y-93656471D01*
X168621555Y-93493505D01*
X168618468Y-93369715D01*
X168614428Y-93278013D01*
X168608590Y-93211313D01*
X168600106Y-93162531D01*
X168588127Y-93124581D01*
X168571808Y-93090377D01*
X168552883Y-93057235D01*
X168473760Y-92956698D01*
X168928642Y-92956698D01*
X168928642Y-93037664D01*
X169090573Y-93037664D01*
X169252504Y-93037664D01*
X169253511Y-93402008D01*
X169255612Y-93583742D01*
X169261381Y-93725857D01*
X169271713Y-93834917D01*
X169287498Y-93917487D01*
X169309630Y-93980130D01*
X169338771Y-94029100D01*
X169395695Y-94083171D01*
X169476721Y-94119417D01*
X169588831Y-94139924D01*
X169732513Y-94146740D01*
X169923360Y-94148046D01*
X169923360Y-94055514D01*
X169923360Y-93962982D01*
X169749863Y-93962982D01*
X169663220Y-93962154D01*
X169597784Y-93955872D01*
X169550580Y-93938443D01*
X169518630Y-93904171D01*
X169498957Y-93847362D01*
X169488584Y-93762320D01*
X169484536Y-93643353D01*
X169483834Y-93484764D01*
X169483833Y-93454057D01*
X169483833Y-93433988D01*
X170274333Y-93433988D01*
X170276377Y-93568980D01*
X170298163Y-93732457D01*
X170340876Y-93862957D01*
X170408236Y-93970448D01*
X170439241Y-94005439D01*
X170553927Y-94100201D01*
X170683794Y-94158662D01*
X170833195Y-94181568D01*
X171006484Y-94169665D01*
X171178323Y-94132051D01*
X171311338Y-94095683D01*
X171311338Y-93985649D01*
X171311338Y-93875615D01*
X171178323Y-93930316D01*
X171042790Y-93971513D01*
X170905924Y-93987546D01*
X170780204Y-93978336D01*
X170678109Y-93943804D01*
X170661253Y-93933605D01*
X170578536Y-93854401D01*
X170522237Y-93752084D01*
X170501720Y-93644904D01*
X170501684Y-93569722D01*
X170929644Y-93569722D01*
X171357604Y-93569722D01*
X171357604Y-93422266D01*
X171340333Y-93245801D01*
X171289242Y-93097541D01*
X171205415Y-92979705D01*
X171103528Y-92901863D01*
X170961056Y-92846638D01*
X170813767Y-92834707D01*
X170669261Y-92864793D01*
X170535141Y-92935621D01*
X170448725Y-93011714D01*
X170355634Y-93135649D01*
X170298331Y-93273732D01*
X170274333Y-93433988D01*
X169483833Y-93433988D01*
X169483833Y-93037664D01*
X169703597Y-93037664D01*
X169923360Y-93037664D01*
X169923360Y-92956698D01*
X169923360Y-92875733D01*
X169703597Y-92875733D01*
X169483833Y-92875733D01*
X169483518Y-92742718D01*
X169480970Y-92635260D01*
X169471324Y-92565892D01*
X169450655Y-92526546D01*
X169415038Y-92509155D01*
X169368169Y-92505605D01*
X169316137Y-92510341D01*
X169282509Y-92529927D01*
X169263361Y-92572430D01*
X169254768Y-92645917D01*
X169252820Y-92742718D01*
X169252504Y-92875733D01*
X169090573Y-92875733D01*
X168928642Y-92875733D01*
X168928642Y-92956698D01*
X168473760Y-92956698D01*
X168473556Y-92956439D01*
X168370664Y-92888664D01*
X168324871Y-92875733D01*
X168239136Y-92851523D01*
X168095855Y-92842285D01*
X167971667Y-92850188D01*
X167854453Y-92869793D01*
X167800910Y-92884627D01*
X167679462Y-92925717D01*
X167679462Y-93027956D01*
X167681230Y-93089418D01*
X167685693Y-93125872D01*
X167688203Y-93130195D01*
X167713031Y-93122124D01*
X167764233Y-93101996D01*
X167782774Y-93094334D01*
X167930130Y-93046253D01*
X168066554Y-93027187D01*
X168186502Y-93035660D01*
X168284434Y-93070194D01*
X168354806Y-93129311D01*
X168392077Y-93211533D01*
X168396584Y-93257987D01*
X168396584Y-93333274D01*
X168147905Y-93342086D01*
X168029265Y-93347768D01*
X167944457Y-93356476D01*
X167881052Y-93370547D01*
X167826621Y-93392323D01*
X167796309Y-93408260D01*
X167695985Y-93484103D01*
X167631305Y-93582951D01*
X167598051Y-93711687D01*
X167595273Y-93736483D01*
X167058823Y-93736483D01*
X167137726Y-93506106D01*
X167353625Y-92875733D01*
X167244369Y-92875733D01*
X167135112Y-92875733D01*
X166961977Y-93383352D01*
X166912430Y-93526227D01*
X166867180Y-93652178D01*
X166828463Y-93755350D01*
X166798512Y-93829885D01*
X166779564Y-93869927D01*
X166774377Y-93874928D01*
X166762222Y-93848126D01*
X166738982Y-93785829D01*
X166707709Y-93696597D01*
X166671460Y-93588987D01*
X166661303Y-93558155D01*
X166617389Y-93425645D01*
X166571116Y-93288370D01*
X166528046Y-93162703D01*
X166494300Y-93066580D01*
X166425906Y-92875733D01*
X166323995Y-92875733D01*
X166262657Y-92878666D01*
X166226339Y-92886071D01*
X166222085Y-92890200D01*
X165663421Y-92890200D01*
X165601149Y-92860520D01*
X165565075Y-92851088D01*
X165404704Y-92835468D01*
X165259561Y-92861916D01*
X165133706Y-92928527D01*
X165031198Y-93033393D01*
X164975893Y-93127721D01*
X164948283Y-93191577D01*
X164930489Y-93250285D01*
X164920419Y-93317058D01*
X164915980Y-93405111D01*
X164915072Y-93511889D01*
X164573547Y-93511889D01*
X164572969Y-93478016D01*
X164569763Y-93350316D01*
X164565492Y-93254727D01*
X164559448Y-93184171D01*
X164550922Y-93131571D01*
X164539206Y-93089852D01*
X164523594Y-93051934D01*
X164514638Y-93033271D01*
X164441920Y-92932221D01*
X164345643Y-92865585D01*
X164234475Y-92834579D01*
X164117082Y-92840418D01*
X164002130Y-92884320D01*
X163916071Y-92949283D01*
X163839389Y-93023606D01*
X163839389Y-92949670D01*
X163836725Y-92904227D01*
X163820347Y-92882706D01*
X163777679Y-92876174D01*
X163735291Y-92875733D01*
X163631192Y-92875733D01*
X163005657Y-92875733D01*
X162989236Y-92865341D01*
X162871122Y-92837743D01*
X162749508Y-92847512D01*
X162635769Y-92894283D01*
X162568291Y-92947476D01*
X162497677Y-93018090D01*
X162497677Y-92946911D01*
X162494805Y-92903152D01*
X162477814Y-92882428D01*
X162434136Y-92876145D01*
X162393578Y-92875733D01*
X162289480Y-92875733D01*
X161526092Y-92875733D01*
X161526092Y-92644403D01*
X161699589Y-92644403D01*
X161873087Y-92644403D01*
X161873087Y-92576896D01*
X161872754Y-92529732D01*
X161867838Y-92494488D01*
X161852463Y-92469429D01*
X161820750Y-92452821D01*
X161766824Y-92442929D01*
X161684806Y-92438019D01*
X161568821Y-92436355D01*
X161412991Y-92436205D01*
X161396386Y-92436206D01*
X160947768Y-92436206D01*
X160947768Y-92540305D01*
X159351770Y-92540305D01*
X159351792Y-92535707D01*
X159349040Y-92503442D01*
X159338315Y-92479013D01*
X159314594Y-92461335D01*
X159272855Y-92449321D01*
X159208075Y-92441883D01*
X159115233Y-92437935D01*
X158989305Y-92436391D01*
X158856206Y-92436206D01*
X158825270Y-92436163D01*
X158701395Y-92436206D01*
X158079280Y-92436206D01*
X158079280Y-92540305D01*
X155812249Y-92540305D01*
X155812249Y-92436206D01*
X155812249Y-92366808D01*
X155708150Y-92366808D01*
X155604052Y-92366808D01*
X155604052Y-93257427D01*
X155604052Y-94148046D01*
X155164526Y-94148046D01*
X155164397Y-93679604D01*
X155163211Y-93531174D01*
X155159983Y-93393400D01*
X155155081Y-93274919D01*
X155153882Y-93257427D01*
X155148874Y-93184366D01*
X155141730Y-93130379D01*
X155140805Y-93126690D01*
X155088601Y-93020898D01*
X155000529Y-92936362D01*
X154883203Y-92876017D01*
X154743239Y-92842797D01*
X154587252Y-92839636D01*
X154514115Y-92848714D01*
X154397865Y-92869793D01*
X154319911Y-92889763D01*
X154272673Y-92913499D01*
X154248571Y-92945877D01*
X154240024Y-92991772D01*
X154239207Y-93025525D01*
X154240351Y-93087831D01*
X154243246Y-93125297D01*
X154244990Y-93130184D01*
X154267815Y-93122490D01*
X154321111Y-93102547D01*
X154378005Y-93080622D01*
X154482604Y-93050380D01*
X154597678Y-93033629D01*
X154708080Y-93031142D01*
X154798662Y-93043690D01*
X154834641Y-93057332D01*
X154892363Y-93109825D01*
X154936596Y-93188123D01*
X154956160Y-93271823D01*
X154956329Y-93279411D01*
X154954743Y-93307558D01*
X154943987Y-93324929D01*
X154915068Y-93334124D01*
X154858990Y-93337745D01*
X154766758Y-93338391D01*
X154752331Y-93338392D01*
X154560034Y-93349464D01*
X154406750Y-93383580D01*
X154290626Y-93442094D01*
X154209808Y-93526358D01*
X154162444Y-93637725D01*
X154146681Y-93777549D01*
X154146675Y-93780573D01*
X153915345Y-93780573D01*
X153915345Y-93292126D01*
X153915345Y-92436206D01*
X153767802Y-92436206D01*
X153620258Y-92436206D01*
X153572995Y-92569221D01*
X153545637Y-92647556D01*
X153509107Y-92753977D01*
X153468813Y-92872664D01*
X153440552Y-92956698D01*
X153405427Y-93060109D01*
X153374427Y-93148593D01*
X153351113Y-93212158D01*
X153339618Y-93239854D01*
X153327937Y-93228129D01*
X153304729Y-93178476D01*
X153272435Y-93097075D01*
X153233494Y-92990107D01*
X153190346Y-92863751D01*
X153186275Y-92851442D01*
X153048685Y-92434337D01*
X152897908Y-92441055D01*
X152747130Y-92447773D01*
X152741062Y-93297910D01*
X152734994Y-94148046D01*
X152134107Y-94148046D01*
X152134107Y-93974549D01*
X152134107Y-93801052D01*
X151983742Y-93801052D01*
X151833378Y-93801052D01*
X151833378Y-93974549D01*
X151833378Y-94148046D01*
X151104618Y-94148046D01*
X151106819Y-94121448D01*
X151111401Y-94018535D01*
X151112370Y-93974549D01*
X151114329Y-93885602D01*
X151115860Y-93717045D01*
X151116256Y-93530824D01*
X151116256Y-93180683D01*
X151834834Y-93180683D01*
X151841216Y-93242520D01*
X151863713Y-93275824D01*
X151908926Y-93289416D01*
X151983454Y-93292115D01*
X151995556Y-93292126D01*
X152136053Y-93292126D01*
X152129297Y-93112846D01*
X152122540Y-92933565D01*
X151983742Y-92933565D01*
X151844945Y-92933565D01*
X151837971Y-93081493D01*
X151834834Y-93180683D01*
X151116256Y-93180683D01*
X151116256Y-92875733D01*
X151012158Y-92875733D01*
X150948180Y-92877610D01*
X150917882Y-92889247D01*
X150908684Y-92919652D01*
X150908059Y-92950279D01*
X150908059Y-93024825D01*
X150870295Y-92970909D01*
X150813891Y-92918571D01*
X150730428Y-92871821D01*
X150638985Y-92839660D01*
X150572631Y-92830483D01*
X150473567Y-92848518D01*
X150368972Y-92896281D01*
X150277819Y-92964255D01*
X150252740Y-92990899D01*
X150185790Y-93086475D01*
X150141155Y-93192699D01*
X150114412Y-93322552D01*
X150104534Y-93425659D01*
X149771148Y-93425659D01*
X149769528Y-93359669D01*
X149763995Y-93237473D01*
X149756856Y-93146728D01*
X149748897Y-93096582D01*
X149696945Y-92985598D01*
X149615962Y-92904074D01*
X149514076Y-92853907D01*
X149399419Y-92836996D01*
X149280120Y-92855241D01*
X149164309Y-92910541D01*
X149114951Y-92948502D01*
X149034289Y-93019323D01*
X149034289Y-92947528D01*
X149031466Y-92903393D01*
X149014618Y-92882491D01*
X148971174Y-92876152D01*
X148930191Y-92875733D01*
X148826093Y-92875733D01*
X148085838Y-92875733D01*
X147819808Y-92875733D01*
X147553779Y-92875733D01*
X147553779Y-92956698D01*
X147553779Y-93037664D01*
X147715710Y-93037664D01*
X147877641Y-93037664D01*
X147877641Y-93511889D01*
X147877641Y-93986115D01*
X147669444Y-93986115D01*
X147461247Y-93986115D01*
X147461247Y-94067081D01*
X146533691Y-94067081D01*
X146535201Y-93986115D01*
X146539839Y-93737436D01*
X146543286Y-93584752D01*
X146547683Y-93470464D01*
X146553876Y-93386706D01*
X146562710Y-93325608D01*
X146575032Y-93279301D01*
X146591687Y-93239918D01*
X146593761Y-93235787D01*
X146668762Y-93129676D01*
X146764727Y-93064635D01*
X146881129Y-93040761D01*
X147017445Y-93058152D01*
X147173149Y-93116903D01*
X147190800Y-93125575D01*
X147200220Y-93110615D01*
X147203679Y-93062062D01*
X147202366Y-93022879D01*
X147194031Y-92951538D01*
X147175434Y-92910510D01*
X147138628Y-92883900D01*
X147130997Y-92880146D01*
X146995168Y-92838876D01*
X146859776Y-92841513D01*
X146732616Y-92886654D01*
X146622677Y-92971642D01*
X146535929Y-93062745D01*
X146535929Y-92969239D01*
X146535929Y-92875733D01*
X146431830Y-92875733D01*
X146327732Y-92875733D01*
X145492786Y-92875733D01*
X145386310Y-92841118D01*
X145236425Y-92838935D01*
X145219537Y-92841231D01*
X145065360Y-92885629D01*
X144936121Y-92966298D01*
X144834324Y-93079043D01*
X144762477Y-93219672D01*
X144723085Y-93383990D01*
X144718654Y-93567804D01*
X143800595Y-93567804D01*
X144031785Y-93564449D01*
X144465528Y-93558155D01*
X144460274Y-93399460D01*
X144436933Y-93225132D01*
X144380387Y-93079801D01*
X144292174Y-92965702D01*
X144173829Y-92885069D01*
X144084073Y-92852348D01*
X143931090Y-92833879D01*
X143784775Y-92858634D01*
X143651022Y-92923576D01*
X143535729Y-93025670D01*
X143444789Y-93161879D01*
X143432257Y-93188028D01*
X143404405Y-93260110D01*
X143388133Y-93335289D01*
X143380831Y-93429632D01*
X143379657Y-93511889D01*
X143055596Y-93511889D01*
X143053838Y-93452444D01*
X143045563Y-93289133D01*
X143035169Y-93168203D01*
X143022774Y-93091321D01*
X143018567Y-93076762D01*
X142959980Y-92971532D01*
X142873008Y-92895260D01*
X142766850Y-92849923D01*
X142650705Y-92837499D01*
X142533774Y-92859966D01*
X142425257Y-92919302D01*
X142397223Y-92943174D01*
X142325728Y-93009960D01*
X142325728Y-92942846D01*
X142323008Y-92903108D01*
X142306898Y-92883290D01*
X142265471Y-92876475D01*
X142210063Y-92875733D01*
X142094399Y-92875733D01*
X141354144Y-92875733D01*
X141088114Y-92875733D01*
X140822085Y-92875733D01*
X140822085Y-92956698D01*
X140822085Y-93037664D01*
X140984016Y-93037664D01*
X141145947Y-93037664D01*
X141145947Y-93511889D01*
X141145947Y-93986115D01*
X140949317Y-93986115D01*
X140752686Y-93986115D01*
X140752686Y-94067081D01*
X140352410Y-94067081D01*
X140354571Y-94018535D01*
X140355285Y-93986115D01*
X140357499Y-93885602D01*
X140359029Y-93717045D01*
X140359426Y-93530824D01*
X140359426Y-92875733D01*
X140255328Y-92875733D01*
X140191298Y-92877795D01*
X140160969Y-92889414D01*
X140151800Y-92918738D01*
X140151229Y-92943352D01*
X140151229Y-93010972D01*
X140085697Y-92945439D01*
X139983762Y-92872346D01*
X139870453Y-92839034D01*
X139752967Y-92842908D01*
X139638502Y-92881376D01*
X139534253Y-92951843D01*
X139447419Y-93051715D01*
X139385197Y-93178398D01*
X139378165Y-93200446D01*
X139346405Y-93361831D01*
X139340877Y-93532128D01*
X139016777Y-93532128D01*
X139016348Y-93470542D01*
X139011500Y-93314900D01*
X139002046Y-93193435D01*
X138986862Y-93100131D01*
X138964824Y-93028976D01*
X138934807Y-92973953D01*
X138895688Y-92929048D01*
X138876740Y-92912151D01*
X138774851Y-92854929D01*
X138657240Y-92835269D01*
X138534130Y-92852430D01*
X138415744Y-92905667D01*
X138356440Y-92949977D01*
X138277459Y-93019323D01*
X138277459Y-92947528D01*
X138274636Y-92903393D01*
X138257787Y-92882491D01*
X138214344Y-92876152D01*
X138173360Y-92875733D01*
X138069262Y-92875733D01*
X137422289Y-92875733D01*
X137389055Y-92863532D01*
X137296852Y-92839460D01*
X137223425Y-92831774D01*
X137148214Y-92840657D01*
X137050656Y-92866290D01*
X137049827Y-92866535D01*
X136921327Y-92927071D01*
X136809560Y-93023099D01*
X136725131Y-93144252D01*
X136696010Y-93212390D01*
X136672957Y-93314183D01*
X136660820Y-93440876D01*
X136659732Y-93575082D01*
X134898536Y-93575082D01*
X134884477Y-93551078D01*
X134868212Y-93533620D01*
X134820478Y-93494320D01*
X134759475Y-93462558D01*
X134673605Y-93433310D01*
X134578529Y-93408181D01*
X134449969Y-93372241D01*
X134361485Y-93335829D01*
X134307034Y-93294803D01*
X134280572Y-93245021D01*
X134275455Y-93200496D01*
X134295563Y-93124803D01*
X134350820Y-93068402D01*
X134433624Y-93032897D01*
X134536375Y-93019887D01*
X134651470Y-93030975D01*
X134771310Y-93067762D01*
X134813297Y-93087172D01*
X134900045Y-93131136D01*
X134900045Y-93018007D01*
X134900045Y-92904879D01*
X134790164Y-92873060D01*
X134666575Y-92848899D01*
X134532671Y-92841598D01*
X134404352Y-92850651D01*
X134297515Y-92875553D01*
X134264466Y-92889782D01*
X134172935Y-92948721D01*
X134115692Y-93018093D01*
X134086437Y-93109190D01*
X134078825Y-93222560D01*
X134081158Y-93312014D01*
X134090798Y-93370403D01*
X134111708Y-93412808D01*
X134136657Y-93442647D01*
X134197803Y-93495242D01*
X134276045Y-93536114D01*
X134382713Y-93570377D01*
X134460935Y-93588988D01*
X134548849Y-93613707D01*
X134630893Y-93645648D01*
X134664656Y-93663167D01*
X134713477Y-93698195D01*
X134733361Y-93735880D01*
X134734232Y-93796624D01*
X134733639Y-93804978D01*
X134717987Y-93882246D01*
X134678820Y-93935143D01*
X134663972Y-93947061D01*
X134585693Y-93980693D01*
X134479070Y-93992455D01*
X134356458Y-93982478D01*
X134230213Y-93950894D01*
X134206056Y-93942164D01*
X134134843Y-93916032D01*
X134081548Y-93898399D01*
X134061475Y-93893595D01*
X134051099Y-93914266D01*
X134044899Y-93966543D01*
X134044125Y-93997036D01*
X134044125Y-94100488D01*
X133447396Y-94100488D01*
X133457982Y-94094708D01*
X133537020Y-94010980D01*
X133544613Y-93997036D01*
X133593172Y-93907854D01*
X133619124Y-93797997D01*
X133613189Y-93713621D01*
X133573462Y-93603271D01*
X133516427Y-93519105D01*
X133481487Y-93489329D01*
X133435020Y-93467926D01*
X133357701Y-93441324D01*
X133263854Y-93414304D01*
X133233289Y-93406503D01*
X133109273Y-93373352D01*
X133024150Y-93342903D01*
X132971107Y-93310699D01*
X132943327Y-93272283D01*
X132933997Y-93223200D01*
X132933743Y-93210628D01*
X132953111Y-93125290D01*
X133007936Y-93064198D01*
X133093295Y-93029012D01*
X133204268Y-93021391D01*
X133335934Y-93042992D01*
X133386635Y-93057973D01*
X133463289Y-93082641D01*
X133520943Y-93100267D01*
X133547202Y-93107062D01*
X133547252Y-93107063D01*
X133554158Y-93086501D01*
X133558031Y-93035069D01*
X133558333Y-93013350D01*
X133554156Y-92951014D01*
X133533203Y-92915404D01*
X133482841Y-92887480D01*
X133471584Y-92882614D01*
X133375077Y-92855907D01*
X133254955Y-92843162D01*
X133128187Y-92844233D01*
X133011742Y-92858975D01*
X132922591Y-92887245D01*
X132922482Y-92887299D01*
X132818648Y-92961285D01*
X132753550Y-93060192D01*
X132726472Y-93185217D01*
X132725546Y-93216796D01*
X132736072Y-93331290D01*
X132771184Y-93419517D01*
X132836181Y-93486864D01*
X132936363Y-93538718D01*
X133077032Y-93580467D01*
X133085244Y-93582390D01*
X133175835Y-93606096D01*
X133257198Y-93632001D01*
X133307390Y-93652507D01*
X133366299Y-93705685D01*
X133393000Y-93778386D01*
X133387077Y-93856523D01*
X133348113Y-93926007D01*
X133316267Y-93952999D01*
X133243312Y-93979569D01*
X133141788Y-93988842D01*
X133025882Y-93981190D01*
X132909785Y-93956985D01*
X132862028Y-93941084D01*
X132791442Y-93915317D01*
X132738850Y-93898070D01*
X132719763Y-93893595D01*
X132709387Y-93914266D01*
X132703187Y-93966543D01*
X132702413Y-93997036D01*
X132702413Y-94100488D01*
X132309153Y-94100488D01*
X132309153Y-93997036D01*
X132309153Y-93701152D01*
X132306941Y-93491900D01*
X132298871Y-93323469D01*
X132282793Y-93190560D01*
X132256558Y-93087878D01*
X132218015Y-93010125D01*
X132165014Y-92952004D01*
X132095406Y-92908218D01*
X132007041Y-92873471D01*
X131968405Y-92861625D01*
X131834157Y-92837273D01*
X131689620Y-92841831D01*
X131523683Y-92875896D01*
X131482149Y-92887721D01*
X131360701Y-92923791D01*
X131360701Y-93026993D01*
X131364745Y-93088771D01*
X131374969Y-93125635D01*
X131380893Y-93130195D01*
X131412021Y-93121469D01*
X131469903Y-93099103D01*
X131513324Y-93080547D01*
X131619586Y-93046775D01*
X131737377Y-93030171D01*
X131851710Y-93031072D01*
X131947598Y-93049815D01*
X131990172Y-93069850D01*
X132029248Y-93099345D01*
X132054246Y-93133235D01*
X132072410Y-93185625D01*
X132089501Y-93263210D01*
X132104632Y-93338392D01*
X131898796Y-93338392D01*
X131703804Y-93350161D01*
X131547529Y-93386088D01*
X131428673Y-93447107D01*
X131345939Y-93534149D01*
X131298031Y-93648147D01*
X131283591Y-93780646D01*
X130522495Y-93780646D01*
X130516541Y-93740316D01*
X130509267Y-93625937D01*
X130505839Y-93477919D01*
X130504823Y-93291928D01*
X130504781Y-93085078D01*
X130504781Y-92644403D01*
X141145947Y-92644403D01*
X141250045Y-92644403D01*
X141354144Y-92644403D01*
X147877641Y-92644403D01*
X147981739Y-92644403D01*
X148085838Y-92644403D01*
X148085838Y-92505605D01*
X148085838Y-92366808D01*
X147981739Y-92366808D01*
X147877641Y-92366808D01*
X147877641Y-92505605D01*
X147877641Y-92644403D01*
X141354144Y-92644403D01*
X141354144Y-92505605D01*
X141354144Y-92366808D01*
X141250045Y-92366808D01*
X141145947Y-92366808D01*
X141145947Y-92505605D01*
X141145947Y-92644403D01*
X130504781Y-92644403D01*
X130504781Y-92505605D01*
X130504781Y-92366808D01*
X130238752Y-92366808D01*
X129972723Y-92366808D01*
X129972723Y-92447773D01*
X129972723Y-92528738D01*
X127775091Y-92528738D01*
X127775091Y-92447773D01*
X127775091Y-90955696D01*
X150003248Y-90955696D01*
X172231406Y-90955696D01*
X172239814Y-91019312D01*
G37*
%TO.C,U1*%
D11*
X133040000Y-62550000D02*
X133040000Y-72830000D01*
X133040000Y-72830000D02*
X134690000Y-72830000D01*
X136690000Y-72830000D02*
X138340000Y-72830000D01*
X138340000Y-62550000D02*
X133040000Y-62550000D01*
X138340000Y-72830000D02*
X138340000Y-62550000D01*
X134690000Y-72830000D02*
G75*
G02*
X136690000Y-72830000I1000000J0D01*
G01*
%TO.C,R1*%
X129310436Y-97790000D02*
X130764564Y-97790000D01*
X129310436Y-99610000D02*
X130764564Y-99610000D01*
%TO.C,R6*%
X143789564Y-60390000D02*
X142335436Y-60390000D01*
X143789564Y-62210000D02*
X142335436Y-62210000D01*
%TO.C,R8*%
X168935436Y-97790000D02*
X170389564Y-97790000D01*
X168935436Y-99610000D02*
X170389564Y-99610000D01*
%TO.C,R7*%
X162435436Y-97690000D02*
X163889564Y-97690000D01*
X162435436Y-99510000D02*
X163889564Y-99510000D01*
%TO.C,R4*%
X156110436Y-97790000D02*
X157564564Y-97790000D01*
X156110436Y-99610000D02*
X157564564Y-99610000D01*
%TO.C,D3*%
X145550000Y-73785000D02*
X145550000Y-77670000D01*
X147820000Y-73785000D02*
X145550000Y-73785000D01*
X147820000Y-77670000D02*
X147820000Y-73785000D01*
%TO.C,D2*%
X147415000Y-97565000D02*
X147415000Y-99835000D01*
X147415000Y-99835000D02*
X151300000Y-99835000D01*
X151300000Y-97565000D02*
X147415000Y-97565000D01*
%TO.C,D6*%
X163965000Y-82000000D02*
X163965000Y-85885000D01*
X163965000Y-85885000D02*
X166235000Y-85885000D01*
X166235000Y-85885000D02*
X166235000Y-82000000D01*
%TO.C,R3*%
X142010436Y-97790000D02*
X143464564Y-97790000D01*
X142010436Y-99610000D02*
X143464564Y-99610000D01*
%TO.C,D1*%
X168315000Y-66465000D02*
X168315000Y-68735000D01*
X168315000Y-68735000D02*
X172200000Y-68735000D01*
X172200000Y-66465000D02*
X168315000Y-66465000D01*
%TD*%
M02*
