G04 #@! TF.GenerationSoftware,KiCad,Pcbnew,9.0.0*
G04 #@! TF.CreationDate,2025-03-26T23:34:00-05:00*
G04 #@! TF.ProjectId,airplane-keychain,61697270-6c61-46e6-952d-6b6579636861,B*
G04 #@! TF.SameCoordinates,Original*
G04 #@! TF.FileFunction,Copper,L2,Bot*
G04 #@! TF.FilePolarity,Positive*
%FSLAX46Y46*%
G04 Gerber Fmt 4.6, Leading zero omitted, Abs format (unit mm)*
G04 Created by KiCad (PCBNEW 9.0.0) date 2025-03-26 23:34:00*
%MOMM*%
%LPD*%
G01*
G04 APERTURE LIST*
G04 Aperture macros list*
%AMHorizOval*
0 Thick line with rounded ends*
0 $1 width*
0 $2 $3 position (X,Y) of the first rounded end (center of the circle)*
0 $4 $5 position (X,Y) of the second rounded end (center of the circle)*
0 Add line between two ends*
20,1,$1,$2,$3,$4,$5,0*
0 Add two circle primitives to create the rounded ends*
1,1,$1,$2,$3*
1,1,$1,$4,$5*%
G04 Aperture macros list end*
%ADD10C,0.300000*%
G04 #@! TA.AperFunction,NonConductor*
%ADD11C,0.300000*%
G04 #@! TD*
G04 #@! TA.AperFunction,ComponentPad*
%ADD12R,1.800000X1.800000*%
G04 #@! TD*
G04 #@! TA.AperFunction,ComponentPad*
%ADD13C,1.800000*%
G04 #@! TD*
G04 #@! TA.AperFunction,ComponentPad*
%ADD14C,1.600000*%
G04 #@! TD*
G04 #@! TA.AperFunction,ComponentPad*
%ADD15HorizOval,1.600000X0.000000X0.000000X0.000000X0.000000X0*%
G04 #@! TD*
G04 #@! TA.AperFunction,ComponentPad*
%ADD16HorizOval,1.600000X0.000000X0.000000X0.000000X0.000000X0*%
G04 #@! TD*
G04 #@! TA.AperFunction,ComponentPad*
%ADD17O,1.600000X1.600000*%
G04 #@! TD*
G04 #@! TA.AperFunction,ComponentPad*
%ADD18HorizOval,1.600000X0.000000X0.000000X0.000000X0.000000X0*%
G04 #@! TD*
G04 #@! TA.AperFunction,ComponentPad*
%ADD19R,1.600000X1.600000*%
G04 #@! TD*
G04 #@! TA.AperFunction,ComponentPad*
%ADD20HorizOval,1.600000X0.000000X0.000000X0.000000X0.000000X0*%
G04 #@! TD*
G04 #@! TA.AperFunction,SMDPad,CuDef*
%ADD21R,2.540000X3.510000*%
G04 #@! TD*
G04 #@! TA.AperFunction,Conductor*
%ADD22C,0.250000*%
G04 #@! TD*
G04 APERTURE END LIST*
D10*
D11*
X81845489Y-152300828D02*
X81845489Y-150800828D01*
X81845489Y-150800828D02*
X81274060Y-150800828D01*
X81274060Y-150800828D02*
X81131203Y-150872257D01*
X81131203Y-150872257D02*
X81059774Y-150943685D01*
X81059774Y-150943685D02*
X80988346Y-151086542D01*
X80988346Y-151086542D02*
X80988346Y-151300828D01*
X80988346Y-151300828D02*
X81059774Y-151443685D01*
X81059774Y-151443685D02*
X81131203Y-151515114D01*
X81131203Y-151515114D02*
X81274060Y-151586542D01*
X81274060Y-151586542D02*
X81845489Y-151586542D01*
X79488346Y-152157971D02*
X79559774Y-152229400D01*
X79559774Y-152229400D02*
X79774060Y-152300828D01*
X79774060Y-152300828D02*
X79916917Y-152300828D01*
X79916917Y-152300828D02*
X80131203Y-152229400D01*
X80131203Y-152229400D02*
X80274060Y-152086542D01*
X80274060Y-152086542D02*
X80345489Y-151943685D01*
X80345489Y-151943685D02*
X80416917Y-151657971D01*
X80416917Y-151657971D02*
X80416917Y-151443685D01*
X80416917Y-151443685D02*
X80345489Y-151157971D01*
X80345489Y-151157971D02*
X80274060Y-151015114D01*
X80274060Y-151015114D02*
X80131203Y-150872257D01*
X80131203Y-150872257D02*
X79916917Y-150800828D01*
X79916917Y-150800828D02*
X79774060Y-150800828D01*
X79774060Y-150800828D02*
X79559774Y-150872257D01*
X79559774Y-150872257D02*
X79488346Y-150943685D01*
X78345489Y-151515114D02*
X78131203Y-151586542D01*
X78131203Y-151586542D02*
X78059774Y-151657971D01*
X78059774Y-151657971D02*
X77988346Y-151800828D01*
X77988346Y-151800828D02*
X77988346Y-152015114D01*
X77988346Y-152015114D02*
X78059774Y-152157971D01*
X78059774Y-152157971D02*
X78131203Y-152229400D01*
X78131203Y-152229400D02*
X78274060Y-152300828D01*
X78274060Y-152300828D02*
X78845489Y-152300828D01*
X78845489Y-152300828D02*
X78845489Y-150800828D01*
X78845489Y-150800828D02*
X78345489Y-150800828D01*
X78345489Y-150800828D02*
X78202632Y-150872257D01*
X78202632Y-150872257D02*
X78131203Y-150943685D01*
X78131203Y-150943685D02*
X78059774Y-151086542D01*
X78059774Y-151086542D02*
X78059774Y-151229400D01*
X78059774Y-151229400D02*
X78131203Y-151372257D01*
X78131203Y-151372257D02*
X78202632Y-151443685D01*
X78202632Y-151443685D02*
X78345489Y-151515114D01*
X78345489Y-151515114D02*
X78845489Y-151515114D01*
X77488346Y-150800828D02*
X76559774Y-150800828D01*
X76559774Y-150800828D02*
X77059774Y-151372257D01*
X77059774Y-151372257D02*
X76845489Y-151372257D01*
X76845489Y-151372257D02*
X76702632Y-151443685D01*
X76702632Y-151443685D02*
X76631203Y-151515114D01*
X76631203Y-151515114D02*
X76559774Y-151657971D01*
X76559774Y-151657971D02*
X76559774Y-152015114D01*
X76559774Y-152015114D02*
X76631203Y-152157971D01*
X76631203Y-152157971D02*
X76702632Y-152229400D01*
X76702632Y-152229400D02*
X76845489Y-152300828D01*
X76845489Y-152300828D02*
X77274060Y-152300828D01*
X77274060Y-152300828D02*
X77416917Y-152229400D01*
X77416917Y-152229400D02*
X77488346Y-152157971D01*
X75916918Y-152300828D02*
X75916918Y-150800828D01*
X75916918Y-150800828D02*
X75559775Y-150800828D01*
X75559775Y-150800828D02*
X75345489Y-150872257D01*
X75345489Y-150872257D02*
X75202632Y-151015114D01*
X75202632Y-151015114D02*
X75131203Y-151157971D01*
X75131203Y-151157971D02*
X75059775Y-151443685D01*
X75059775Y-151443685D02*
X75059775Y-151657971D01*
X75059775Y-151657971D02*
X75131203Y-151943685D01*
X75131203Y-151943685D02*
X75202632Y-152086542D01*
X75202632Y-152086542D02*
X75345489Y-152229400D01*
X75345489Y-152229400D02*
X75559775Y-152300828D01*
X75559775Y-152300828D02*
X75916918Y-152300828D01*
X74774061Y-152443685D02*
X73631203Y-152443685D01*
X72774061Y-151515114D02*
X72559775Y-151586542D01*
X72559775Y-151586542D02*
X72488346Y-151657971D01*
X72488346Y-151657971D02*
X72416918Y-151800828D01*
X72416918Y-151800828D02*
X72416918Y-152015114D01*
X72416918Y-152015114D02*
X72488346Y-152157971D01*
X72488346Y-152157971D02*
X72559775Y-152229400D01*
X72559775Y-152229400D02*
X72702632Y-152300828D01*
X72702632Y-152300828D02*
X73274061Y-152300828D01*
X73274061Y-152300828D02*
X73274061Y-150800828D01*
X73274061Y-150800828D02*
X72774061Y-150800828D01*
X72774061Y-150800828D02*
X72631204Y-150872257D01*
X72631204Y-150872257D02*
X72559775Y-150943685D01*
X72559775Y-150943685D02*
X72488346Y-151086542D01*
X72488346Y-151086542D02*
X72488346Y-151229400D01*
X72488346Y-151229400D02*
X72559775Y-151372257D01*
X72559775Y-151372257D02*
X72631204Y-151443685D01*
X72631204Y-151443685D02*
X72774061Y-151515114D01*
X72774061Y-151515114D02*
X73274061Y-151515114D01*
X70916918Y-152300828D02*
X71416918Y-151586542D01*
X71774061Y-152300828D02*
X71774061Y-150800828D01*
X71774061Y-150800828D02*
X71202632Y-150800828D01*
X71202632Y-150800828D02*
X71059775Y-150872257D01*
X71059775Y-150872257D02*
X70988346Y-150943685D01*
X70988346Y-150943685D02*
X70916918Y-151086542D01*
X70916918Y-151086542D02*
X70916918Y-151300828D01*
X70916918Y-151300828D02*
X70988346Y-151443685D01*
X70988346Y-151443685D02*
X71059775Y-151515114D01*
X71059775Y-151515114D02*
X71202632Y-151586542D01*
X71202632Y-151586542D02*
X71774061Y-151586542D01*
X70631204Y-152443685D02*
X69488346Y-152443685D01*
X69131204Y-152300828D02*
X69131204Y-150800828D01*
X68488346Y-152229400D02*
X68274061Y-152300828D01*
X68274061Y-152300828D02*
X67916918Y-152300828D01*
X67916918Y-152300828D02*
X67774061Y-152229400D01*
X67774061Y-152229400D02*
X67702632Y-152157971D01*
X67702632Y-152157971D02*
X67631203Y-152015114D01*
X67631203Y-152015114D02*
X67631203Y-151872257D01*
X67631203Y-151872257D02*
X67702632Y-151729400D01*
X67702632Y-151729400D02*
X67774061Y-151657971D01*
X67774061Y-151657971D02*
X67916918Y-151586542D01*
X67916918Y-151586542D02*
X68202632Y-151515114D01*
X68202632Y-151515114D02*
X68345489Y-151443685D01*
X68345489Y-151443685D02*
X68416918Y-151372257D01*
X68416918Y-151372257D02*
X68488346Y-151229400D01*
X68488346Y-151229400D02*
X68488346Y-151086542D01*
X68488346Y-151086542D02*
X68416918Y-150943685D01*
X68416918Y-150943685D02*
X68345489Y-150872257D01*
X68345489Y-150872257D02*
X68202632Y-150800828D01*
X68202632Y-150800828D02*
X67845489Y-150800828D01*
X67845489Y-150800828D02*
X67631203Y-150872257D01*
X66202632Y-150872257D02*
X66345490Y-150800828D01*
X66345490Y-150800828D02*
X66559775Y-150800828D01*
X66559775Y-150800828D02*
X66774061Y-150872257D01*
X66774061Y-150872257D02*
X66916918Y-151015114D01*
X66916918Y-151015114D02*
X66988347Y-151157971D01*
X66988347Y-151157971D02*
X67059775Y-151443685D01*
X67059775Y-151443685D02*
X67059775Y-151657971D01*
X67059775Y-151657971D02*
X66988347Y-151943685D01*
X66988347Y-151943685D02*
X66916918Y-152086542D01*
X66916918Y-152086542D02*
X66774061Y-152229400D01*
X66774061Y-152229400D02*
X66559775Y-152300828D01*
X66559775Y-152300828D02*
X66416918Y-152300828D01*
X66416918Y-152300828D02*
X66202632Y-152229400D01*
X66202632Y-152229400D02*
X66131204Y-152157971D01*
X66131204Y-152157971D02*
X66131204Y-151657971D01*
X66131204Y-151657971D02*
X66416918Y-151657971D01*
X64631204Y-152157971D02*
X64702632Y-152229400D01*
X64702632Y-152229400D02*
X64916918Y-152300828D01*
X64916918Y-152300828D02*
X65059775Y-152300828D01*
X65059775Y-152300828D02*
X65274061Y-152229400D01*
X65274061Y-152229400D02*
X65416918Y-152086542D01*
X65416918Y-152086542D02*
X65488347Y-151943685D01*
X65488347Y-151943685D02*
X65559775Y-151657971D01*
X65559775Y-151657971D02*
X65559775Y-151443685D01*
X65559775Y-151443685D02*
X65488347Y-151157971D01*
X65488347Y-151157971D02*
X65416918Y-151015114D01*
X65416918Y-151015114D02*
X65274061Y-150872257D01*
X65274061Y-150872257D02*
X65059775Y-150800828D01*
X65059775Y-150800828D02*
X64916918Y-150800828D01*
X64916918Y-150800828D02*
X64702632Y-150872257D01*
X64702632Y-150872257D02*
X64631204Y-150943685D01*
X63274061Y-152300828D02*
X63988347Y-152300828D01*
X63988347Y-152300828D02*
X63988347Y-150800828D01*
X62488346Y-150800828D02*
X62202632Y-150800828D01*
X62202632Y-150800828D02*
X62059775Y-150872257D01*
X62059775Y-150872257D02*
X61916918Y-151015114D01*
X61916918Y-151015114D02*
X61845489Y-151300828D01*
X61845489Y-151300828D02*
X61845489Y-151800828D01*
X61845489Y-151800828D02*
X61916918Y-152086542D01*
X61916918Y-152086542D02*
X62059775Y-152229400D01*
X62059775Y-152229400D02*
X62202632Y-152300828D01*
X62202632Y-152300828D02*
X62488346Y-152300828D01*
X62488346Y-152300828D02*
X62631204Y-152229400D01*
X62631204Y-152229400D02*
X62774061Y-152086542D01*
X62774061Y-152086542D02*
X62845489Y-151800828D01*
X62845489Y-151800828D02*
X62845489Y-151300828D01*
X62845489Y-151300828D02*
X62774061Y-151015114D01*
X62774061Y-151015114D02*
X62631204Y-150872257D01*
X62631204Y-150872257D02*
X62488346Y-150800828D01*
X60416917Y-150872257D02*
X60559775Y-150800828D01*
X60559775Y-150800828D02*
X60774060Y-150800828D01*
X60774060Y-150800828D02*
X60988346Y-150872257D01*
X60988346Y-150872257D02*
X61131203Y-151015114D01*
X61131203Y-151015114D02*
X61202632Y-151157971D01*
X61202632Y-151157971D02*
X61274060Y-151443685D01*
X61274060Y-151443685D02*
X61274060Y-151657971D01*
X61274060Y-151657971D02*
X61202632Y-151943685D01*
X61202632Y-151943685D02*
X61131203Y-152086542D01*
X61131203Y-152086542D02*
X60988346Y-152229400D01*
X60988346Y-152229400D02*
X60774060Y-152300828D01*
X60774060Y-152300828D02*
X60631203Y-152300828D01*
X60631203Y-152300828D02*
X60416917Y-152229400D01*
X60416917Y-152229400D02*
X60345489Y-152157971D01*
X60345489Y-152157971D02*
X60345489Y-151657971D01*
X60345489Y-151657971D02*
X60631203Y-151657971D01*
X59416917Y-150800828D02*
X59131203Y-150800828D01*
X59131203Y-150800828D02*
X58988346Y-150872257D01*
X58988346Y-150872257D02*
X58845489Y-151015114D01*
X58845489Y-151015114D02*
X58774060Y-151300828D01*
X58774060Y-151300828D02*
X58774060Y-151800828D01*
X58774060Y-151800828D02*
X58845489Y-152086542D01*
X58845489Y-152086542D02*
X58988346Y-152229400D01*
X58988346Y-152229400D02*
X59131203Y-152300828D01*
X59131203Y-152300828D02*
X59416917Y-152300828D01*
X59416917Y-152300828D02*
X59559775Y-152229400D01*
X59559775Y-152229400D02*
X59702632Y-152086542D01*
X59702632Y-152086542D02*
X59774060Y-151800828D01*
X59774060Y-151800828D02*
X59774060Y-151300828D01*
X59774060Y-151300828D02*
X59702632Y-151015114D01*
X59702632Y-151015114D02*
X59559775Y-150872257D01*
X59559775Y-150872257D02*
X59416917Y-150800828D01*
D12*
X167800000Y-115000000D03*
D13*
X167800000Y-112460000D03*
D12*
X112550000Y-72200000D03*
D13*
X110010000Y-72200000D03*
D12*
X115140000Y-78100000D03*
D13*
X112600000Y-78100000D03*
D12*
X105800000Y-76100000D03*
D13*
X103260000Y-76100000D03*
D14*
X155401477Y-66950000D03*
D15*
X166400000Y-73300000D03*
D14*
X108299261Y-66225000D03*
D16*
X97300738Y-72575000D03*
D14*
X128500000Y-54200000D03*
D16*
X117501477Y-60550000D03*
D14*
X167000000Y-82300000D03*
D17*
X167000000Y-95000000D03*
D14*
X149440739Y-127635000D03*
D18*
X160439262Y-121285000D03*
D14*
X133401477Y-54250000D03*
D15*
X144400000Y-60600000D03*
D19*
X95600000Y-82180000D03*
D17*
X95600000Y-89800000D03*
D12*
X116800000Y-70300000D03*
D13*
X119340000Y-70300000D03*
D12*
X162500000Y-107600000D03*
D13*
X159960000Y-107600000D03*
D12*
X156400000Y-112225000D03*
D13*
X156400000Y-114765000D03*
D12*
X166160000Y-104300000D03*
D13*
X168700000Y-104300000D03*
D14*
X101300000Y-101300000D03*
D17*
X101300000Y-88600000D03*
D14*
X106498523Y-124050000D03*
D20*
X95500000Y-117700000D03*
D12*
X120625000Y-74800000D03*
D13*
X123165000Y-74800000D03*
D14*
X117201477Y-130450000D03*
D15*
X128200000Y-136800000D03*
D14*
X133800739Y-136675000D03*
D18*
X144799262Y-130325000D03*
D19*
X140580000Y-74200000D03*
D17*
X143120000Y-74200000D03*
X145660000Y-74200000D03*
X148200000Y-74200000D03*
X148200000Y-66580000D03*
X145660000Y-66580000D03*
X143120000Y-66580000D03*
X140580000Y-66580000D03*
D21*
X145100000Y-85800000D03*
X115740000Y-85800000D03*
D22*
X101300000Y-88600000D02*
X109365000Y-88600000D01*
X109365000Y-88600000D02*
X123165000Y-74800000D01*
X145500000Y-86200000D02*
X145100000Y-85800000D01*
X95600000Y-89800000D02*
X141100000Y-89800000D01*
X141100000Y-89800000D02*
X145100000Y-85800000D01*
X148200000Y-66580000D02*
X149326000Y-67706000D01*
X149326000Y-121149739D02*
X133800739Y-136675000D01*
X149326000Y-67706000D02*
X149326000Y-121149739D01*
X149777000Y-66564595D02*
X149777000Y-127298739D01*
X145660000Y-66580000D02*
X146786000Y-65454000D01*
X146786000Y-65454000D02*
X148666405Y-65454000D01*
X148666405Y-65454000D02*
X149777000Y-66564595D01*
X149777000Y-127298739D02*
X149440739Y-127635000D01*
X146696000Y-87881000D02*
X133277000Y-101300000D01*
X136126000Y-73574000D02*
X146271000Y-83719000D01*
X146696000Y-83719000D02*
X146696000Y-87881000D01*
X133277000Y-101300000D02*
X101300000Y-101300000D01*
X143120000Y-66580000D02*
X136126000Y-73574000D01*
X146271000Y-83719000D02*
X146696000Y-83719000D01*
G04 #@! TA.AperFunction,Conductor*
G36*
X130962421Y-41295065D02*
G01*
X177588331Y-68593140D01*
X177636238Y-68643999D01*
X177649680Y-68699924D01*
X177749317Y-123599468D01*
X177729754Y-123666543D01*
X177687626Y-123706901D01*
X131062376Y-150805336D01*
X130994524Y-150822004D01*
X130937686Y-150805295D01*
X106876129Y-136799314D01*
X106700391Y-136697019D01*
X126891500Y-136697019D01*
X126891500Y-136902980D01*
X126923719Y-137106408D01*
X126987367Y-137302294D01*
X127080873Y-137485806D01*
X127201926Y-137652423D01*
X127201930Y-137652428D01*
X127347571Y-137798069D01*
X127347576Y-137798073D01*
X127470845Y-137887632D01*
X127514197Y-137919129D01*
X127577297Y-137951280D01*
X127697705Y-138012632D01*
X127697707Y-138012632D01*
X127697710Y-138012634D01*
X127802707Y-138046749D01*
X127893591Y-138076280D01*
X127995305Y-138092390D01*
X128097019Y-138108500D01*
X128097020Y-138108500D01*
X128302980Y-138108500D01*
X128302981Y-138108500D01*
X128506408Y-138076280D01*
X128702290Y-138012634D01*
X128885803Y-137919129D01*
X129052430Y-137798068D01*
X129198068Y-137652430D01*
X129319129Y-137485803D01*
X129412634Y-137302290D01*
X129476280Y-137106408D01*
X129508500Y-136902981D01*
X129508500Y-136697019D01*
X129476280Y-136493592D01*
X129412634Y-136297710D01*
X129412632Y-136297707D01*
X129412632Y-136297705D01*
X129348940Y-136172705D01*
X129319129Y-136114197D01*
X129228309Y-135989193D01*
X129198073Y-135947576D01*
X129198069Y-135947571D01*
X129052428Y-135801930D01*
X129052423Y-135801926D01*
X128885806Y-135680873D01*
X128885805Y-135680872D01*
X128885803Y-135680871D01*
X128828496Y-135651671D01*
X128702294Y-135587367D01*
X128506408Y-135523719D01*
X128330794Y-135495905D01*
X128302981Y-135491500D01*
X128097019Y-135491500D01*
X128072550Y-135495375D01*
X127893591Y-135523719D01*
X127697705Y-135587367D01*
X127514193Y-135680873D01*
X127347576Y-135801926D01*
X127347571Y-135801930D01*
X127201930Y-135947571D01*
X127201926Y-135947576D01*
X127080873Y-136114193D01*
X126987367Y-136297705D01*
X126923719Y-136493591D01*
X126891500Y-136697019D01*
X106700391Y-136697019D01*
X95967155Y-130449314D01*
X95791417Y-130347019D01*
X115892977Y-130347019D01*
X115892977Y-130552980D01*
X115925196Y-130756408D01*
X115988844Y-130952294D01*
X116082350Y-131135806D01*
X116203403Y-131302423D01*
X116203407Y-131302428D01*
X116349048Y-131448069D01*
X116349053Y-131448073D01*
X116472322Y-131537632D01*
X116515674Y-131569129D01*
X116578774Y-131601280D01*
X116699182Y-131662632D01*
X116699184Y-131662632D01*
X116699187Y-131662634D01*
X116804184Y-131696749D01*
X116895068Y-131726280D01*
X116996782Y-131742390D01*
X117098496Y-131758500D01*
X117098497Y-131758500D01*
X117304457Y-131758500D01*
X117304458Y-131758500D01*
X117507885Y-131726280D01*
X117703767Y-131662634D01*
X117887280Y-131569129D01*
X118053907Y-131448068D01*
X118199545Y-131302430D01*
X118320606Y-131135803D01*
X118414111Y-130952290D01*
X118477757Y-130756408D01*
X118509977Y-130552981D01*
X118509977Y-130347019D01*
X118477757Y-130143592D01*
X118414111Y-129947710D01*
X118414109Y-129947707D01*
X118414109Y-129947705D01*
X118350417Y-129822705D01*
X118320606Y-129764197D01*
X118229786Y-129639193D01*
X118199550Y-129597576D01*
X118199546Y-129597571D01*
X118053905Y-129451930D01*
X118053900Y-129451926D01*
X117887283Y-129330873D01*
X117887282Y-129330872D01*
X117887280Y-129330871D01*
X117829973Y-129301671D01*
X117703771Y-129237367D01*
X117507885Y-129173719D01*
X117332271Y-129145905D01*
X117304458Y-129141500D01*
X117098496Y-129141500D01*
X117074027Y-129145375D01*
X116895068Y-129173719D01*
X116699182Y-129237367D01*
X116515670Y-129330873D01*
X116349053Y-129451926D01*
X116349048Y-129451930D01*
X116203407Y-129597571D01*
X116203403Y-129597576D01*
X116082350Y-129764193D01*
X115988844Y-129947705D01*
X115925196Y-130143591D01*
X115892977Y-130347019D01*
X95791417Y-130347019D01*
X84972283Y-124049314D01*
X84796545Y-123947019D01*
X105190023Y-123947019D01*
X105190023Y-124152980D01*
X105222242Y-124356408D01*
X105285890Y-124552294D01*
X105379396Y-124735806D01*
X105500449Y-124902423D01*
X105500453Y-124902428D01*
X105646094Y-125048069D01*
X105646099Y-125048073D01*
X105791431Y-125153661D01*
X105812720Y-125169129D01*
X105929651Y-125228709D01*
X105996228Y-125262632D01*
X105996230Y-125262632D01*
X105996233Y-125262634D01*
X106101230Y-125296749D01*
X106192114Y-125326280D01*
X106293828Y-125342390D01*
X106395542Y-125358500D01*
X106395543Y-125358500D01*
X106601503Y-125358500D01*
X106601504Y-125358500D01*
X106804931Y-125326280D01*
X107000813Y-125262634D01*
X107184326Y-125169129D01*
X107350953Y-125048068D01*
X107496591Y-124902430D01*
X107617652Y-124735803D01*
X107711157Y-124552290D01*
X107774803Y-124356408D01*
X107807023Y-124152981D01*
X107807023Y-123947019D01*
X107774803Y-123743592D01*
X107762881Y-123706901D01*
X107711155Y-123547705D01*
X107677232Y-123481128D01*
X107617652Y-123364197D01*
X107602184Y-123342908D01*
X107496596Y-123197576D01*
X107496592Y-123197571D01*
X107350951Y-123051930D01*
X107350946Y-123051926D01*
X107184329Y-122930873D01*
X107184328Y-122930872D01*
X107184326Y-122930871D01*
X107127019Y-122901671D01*
X107000817Y-122837367D01*
X106804931Y-122773719D01*
X106629317Y-122745905D01*
X106601504Y-122741500D01*
X106395542Y-122741500D01*
X106371073Y-122745375D01*
X106192114Y-122773719D01*
X105996228Y-122837367D01*
X105812716Y-122930873D01*
X105646099Y-123051926D01*
X105646094Y-123051930D01*
X105500453Y-123197571D01*
X105500449Y-123197576D01*
X105379396Y-123364193D01*
X105285890Y-123547705D01*
X105222242Y-123743591D01*
X105190023Y-123947019D01*
X84796545Y-123947019D01*
X84458893Y-123750475D01*
X84212299Y-123606935D01*
X84164265Y-123556198D01*
X84150681Y-123499544D01*
X84161374Y-117597019D01*
X94191500Y-117597019D01*
X94191500Y-117802980D01*
X94223719Y-118006408D01*
X94287367Y-118202294D01*
X94380873Y-118385806D01*
X94501926Y-118552423D01*
X94501930Y-118552428D01*
X94647571Y-118698069D01*
X94647576Y-118698073D01*
X94792908Y-118803661D01*
X94814197Y-118819129D01*
X94931128Y-118878709D01*
X94997705Y-118912632D01*
X94997707Y-118912632D01*
X94997710Y-118912634D01*
X95102707Y-118946749D01*
X95193591Y-118976280D01*
X95295305Y-118992390D01*
X95397019Y-119008500D01*
X95397020Y-119008500D01*
X95602980Y-119008500D01*
X95602981Y-119008500D01*
X95806408Y-118976280D01*
X96002290Y-118912634D01*
X96185803Y-118819129D01*
X96352430Y-118698068D01*
X96498068Y-118552430D01*
X96619129Y-118385803D01*
X96712634Y-118202290D01*
X96776280Y-118006408D01*
X96808500Y-117802981D01*
X96808500Y-117597019D01*
X96776280Y-117393592D01*
X96712634Y-117197710D01*
X96712632Y-117197707D01*
X96712632Y-117197705D01*
X96678709Y-117131128D01*
X96619129Y-117014197D01*
X96603661Y-116992908D01*
X96498073Y-116847576D01*
X96498069Y-116847571D01*
X96352428Y-116701930D01*
X96352423Y-116701926D01*
X96185806Y-116580873D01*
X96185805Y-116580872D01*
X96185803Y-116580871D01*
X96128496Y-116551671D01*
X96002294Y-116487367D01*
X95806408Y-116423719D01*
X95616214Y-116393596D01*
X95602981Y-116391500D01*
X95397019Y-116391500D01*
X95383786Y-116393596D01*
X95193591Y-116423719D01*
X94997705Y-116487367D01*
X94814193Y-116580873D01*
X94647576Y-116701926D01*
X94647571Y-116701930D01*
X94501930Y-116847571D01*
X94501926Y-116847576D01*
X94380873Y-117014193D01*
X94287367Y-117197705D01*
X94223719Y-117393591D01*
X94191500Y-117597019D01*
X84161374Y-117597019D01*
X84211918Y-89697019D01*
X94291500Y-89697019D01*
X94291500Y-89902980D01*
X94323719Y-90106408D01*
X94387367Y-90302294D01*
X94480873Y-90485806D01*
X94601926Y-90652423D01*
X94601930Y-90652428D01*
X94747571Y-90798069D01*
X94747576Y-90798073D01*
X94892908Y-90903661D01*
X94914197Y-90919129D01*
X95031128Y-90978709D01*
X95097705Y-91012632D01*
X95097707Y-91012632D01*
X95097710Y-91012634D01*
X95202707Y-91046749D01*
X95293591Y-91076280D01*
X95395305Y-91092390D01*
X95497019Y-91108500D01*
X95497020Y-91108500D01*
X95702980Y-91108500D01*
X95702981Y-91108500D01*
X95906408Y-91076280D01*
X96102290Y-91012634D01*
X96285803Y-90919129D01*
X96452430Y-90798068D01*
X96598068Y-90652430D01*
X96608994Y-90637391D01*
X96719993Y-90484615D01*
X96775323Y-90441949D01*
X96820311Y-90433500D01*
X141162395Y-90433500D01*
X141162396Y-90433499D01*
X141284785Y-90409155D01*
X141400075Y-90361400D01*
X141503833Y-90292071D01*
X143696084Y-88099818D01*
X143757407Y-88066334D01*
X143783765Y-88063500D01*
X145318233Y-88063500D01*
X145385272Y-88083185D01*
X145431027Y-88135989D01*
X145440971Y-88205147D01*
X145411946Y-88268703D01*
X145405914Y-88275181D01*
X133050915Y-100630181D01*
X132989592Y-100663666D01*
X132963234Y-100666500D01*
X102520311Y-100666500D01*
X102453272Y-100646815D01*
X102419993Y-100615385D01*
X102298073Y-100447576D01*
X102298069Y-100447571D01*
X102152428Y-100301930D01*
X102152423Y-100301926D01*
X101985806Y-100180873D01*
X101985805Y-100180872D01*
X101985803Y-100180871D01*
X101928496Y-100151671D01*
X101802294Y-100087367D01*
X101606408Y-100023719D01*
X101430794Y-99995905D01*
X101402981Y-99991500D01*
X101197019Y-99991500D01*
X101172550Y-99995375D01*
X100993591Y-100023719D01*
X100797705Y-100087367D01*
X100614193Y-100180873D01*
X100447576Y-100301926D01*
X100447571Y-100301930D01*
X100301930Y-100447571D01*
X100301926Y-100447576D01*
X100180873Y-100614193D01*
X100087367Y-100797705D01*
X100023719Y-100993591D01*
X99991500Y-101197019D01*
X99991500Y-101402980D01*
X100023719Y-101606408D01*
X100087367Y-101802294D01*
X100180873Y-101985806D01*
X100301926Y-102152423D01*
X100301930Y-102152428D01*
X100447571Y-102298069D01*
X100447576Y-102298073D01*
X100592908Y-102403661D01*
X100614197Y-102419129D01*
X100731128Y-102478709D01*
X100797705Y-102512632D01*
X100797707Y-102512632D01*
X100797710Y-102512634D01*
X100902707Y-102546749D01*
X100993591Y-102576280D01*
X101095305Y-102592390D01*
X101197019Y-102608500D01*
X101197020Y-102608500D01*
X101402980Y-102608500D01*
X101402981Y-102608500D01*
X101606408Y-102576280D01*
X101802290Y-102512634D01*
X101985803Y-102419129D01*
X102152430Y-102298068D01*
X102298068Y-102152430D01*
X102308994Y-102137391D01*
X102419993Y-101984615D01*
X102475323Y-101941949D01*
X102520311Y-101933500D01*
X133339395Y-101933500D01*
X133339396Y-101933499D01*
X133461785Y-101909155D01*
X133577075Y-101861400D01*
X133680833Y-101792071D01*
X147188072Y-88284833D01*
X147257401Y-88181075D01*
X147305155Y-88065785D01*
X147307301Y-88055000D01*
X147325468Y-87963666D01*
X147329500Y-87943394D01*
X147329500Y-87818606D01*
X147329500Y-83656606D01*
X147305155Y-83534215D01*
X147257400Y-83418925D01*
X147257399Y-83418924D01*
X147257396Y-83418918D01*
X147188071Y-83315167D01*
X147188068Y-83315163D01*
X147099836Y-83226931D01*
X147099832Y-83226928D01*
X146996081Y-83157603D01*
X146996072Y-83157598D01*
X146880785Y-83109845D01*
X146880777Y-83109843D01*
X146758398Y-83085500D01*
X146758394Y-83085500D01*
X146584767Y-83085500D01*
X146517728Y-83065815D01*
X146497086Y-83049181D01*
X137109585Y-73661680D01*
X137076100Y-73600357D01*
X137081084Y-73530665D01*
X137109583Y-73486320D01*
X142705063Y-67890840D01*
X142766384Y-67857357D01*
X142812140Y-67856050D01*
X142813591Y-67856279D01*
X142813592Y-67856280D01*
X143017019Y-67888500D01*
X143017020Y-67888500D01*
X143222980Y-67888500D01*
X143222981Y-67888500D01*
X143426408Y-67856280D01*
X143622290Y-67792634D01*
X143805803Y-67699129D01*
X143972430Y-67578068D01*
X144118068Y-67432430D01*
X144239129Y-67265803D01*
X144279515Y-67186540D01*
X144327490Y-67135745D01*
X144395311Y-67118950D01*
X144461446Y-67141487D01*
X144500484Y-67186540D01*
X144519096Y-67223068D01*
X144540873Y-67265806D01*
X144661926Y-67432423D01*
X144661930Y-67432428D01*
X144807571Y-67578069D01*
X144807576Y-67578073D01*
X144887040Y-67635806D01*
X144974197Y-67699129D01*
X145091128Y-67758709D01*
X145157705Y-67792632D01*
X145157707Y-67792632D01*
X145157710Y-67792634D01*
X145262628Y-67826724D01*
X145353591Y-67856280D01*
X145438265Y-67869691D01*
X145557019Y-67888500D01*
X145557020Y-67888500D01*
X145762980Y-67888500D01*
X145762981Y-67888500D01*
X145966408Y-67856280D01*
X146162290Y-67792634D01*
X146345803Y-67699129D01*
X146512430Y-67578068D01*
X146658068Y-67432430D01*
X146779129Y-67265803D01*
X146819515Y-67186540D01*
X146867490Y-67135745D01*
X146935311Y-67118950D01*
X147001446Y-67141487D01*
X147040484Y-67186540D01*
X147059096Y-67223068D01*
X147080873Y-67265806D01*
X147201926Y-67432423D01*
X147201930Y-67432428D01*
X147347571Y-67578069D01*
X147347576Y-67578073D01*
X147427040Y-67635806D01*
X147514197Y-67699129D01*
X147631128Y-67758709D01*
X147697705Y-67792632D01*
X147697707Y-67792632D01*
X147697710Y-67792634D01*
X147802628Y-67826724D01*
X147893591Y-67856280D01*
X147978265Y-67869691D01*
X148097019Y-67888500D01*
X148097020Y-67888500D01*
X148302980Y-67888500D01*
X148302981Y-67888500D01*
X148506408Y-67856280D01*
X148506409Y-67856279D01*
X148507859Y-67856050D01*
X148513284Y-67856751D01*
X148518411Y-67854839D01*
X148547561Y-67861180D01*
X148577152Y-67865004D01*
X148582757Y-67868836D01*
X148586684Y-67869691D01*
X148614938Y-67890842D01*
X148656181Y-67932085D01*
X148689666Y-67993408D01*
X148692500Y-68019766D01*
X148692500Y-72822450D01*
X148672815Y-72889489D01*
X148620011Y-72935244D01*
X148550853Y-72945188D01*
X148530185Y-72940382D01*
X148504414Y-72932009D01*
X148450000Y-72923390D01*
X148450000Y-73884314D01*
X148445606Y-73879920D01*
X148354394Y-73827259D01*
X148252661Y-73800000D01*
X148147339Y-73800000D01*
X148045606Y-73827259D01*
X147954394Y-73879920D01*
X147950000Y-73884314D01*
X147950000Y-72923390D01*
X147895586Y-72932009D01*
X147700970Y-72995244D01*
X147518650Y-73088140D01*
X147353105Y-73208417D01*
X147353104Y-73208417D01*
X147208417Y-73353104D01*
X147208417Y-73353105D01*
X147088140Y-73518650D01*
X147045254Y-73602819D01*
X146997279Y-73653615D01*
X146929458Y-73670410D01*
X146863323Y-73647872D01*
X146824284Y-73602819D01*
X146822848Y-73600000D01*
X146779129Y-73514197D01*
X146737315Y-73456645D01*
X146658073Y-73347576D01*
X146658069Y-73347571D01*
X146512428Y-73201930D01*
X146512423Y-73201926D01*
X146345806Y-73080873D01*
X146345805Y-73080872D01*
X146345803Y-73080871D01*
X146288496Y-73051671D01*
X146162294Y-72987367D01*
X145966408Y-72923719D01*
X145790794Y-72895905D01*
X145762981Y-72891500D01*
X145557019Y-72891500D01*
X145532550Y-72895375D01*
X145353591Y-72923719D01*
X145157705Y-72987367D01*
X144974193Y-73080873D01*
X144807576Y-73201926D01*
X144807571Y-73201930D01*
X144661930Y-73347571D01*
X144661926Y-73347576D01*
X144540871Y-73514195D01*
X144500484Y-73593459D01*
X144452510Y-73644254D01*
X144384689Y-73661049D01*
X144318554Y-73638511D01*
X144279516Y-73593459D01*
X144239128Y-73514195D01*
X144118073Y-73347576D01*
X144118069Y-73347571D01*
X143972428Y-73201930D01*
X143972423Y-73201926D01*
X143805806Y-73080873D01*
X143805805Y-73080872D01*
X143805803Y-73080871D01*
X143748496Y-73051671D01*
X143622294Y-72987367D01*
X143426408Y-72923719D01*
X143250794Y-72895905D01*
X143222981Y-72891500D01*
X143017019Y-72891500D01*
X142992550Y-72895375D01*
X142813591Y-72923719D01*
X142617705Y-72987367D01*
X142434193Y-73080873D01*
X142267576Y-73201926D01*
X142267571Y-73201930D01*
X142121930Y-73347571D01*
X142107434Y-73367524D01*
X142052103Y-73410189D01*
X141982490Y-73416168D01*
X141920695Y-73383562D01*
X141886338Y-73322723D01*
X141883827Y-73307893D01*
X141881989Y-73290798D01*
X141881988Y-73290795D01*
X141851262Y-73208417D01*
X141830889Y-73153796D01*
X141743261Y-73036739D01*
X141626204Y-72949111D01*
X141589026Y-72935244D01*
X141489203Y-72898011D01*
X141428654Y-72891500D01*
X141428638Y-72891500D01*
X139731362Y-72891500D01*
X139731345Y-72891500D01*
X139670797Y-72898011D01*
X139670795Y-72898011D01*
X139533795Y-72949111D01*
X139416739Y-73036739D01*
X139329111Y-73153795D01*
X139278011Y-73290795D01*
X139278011Y-73290797D01*
X139271500Y-73351345D01*
X139271500Y-75048654D01*
X139278011Y-75109202D01*
X139278011Y-75109204D01*
X139327392Y-75241596D01*
X139329111Y-75246204D01*
X139416739Y-75363261D01*
X139533796Y-75450889D01*
X139670799Y-75501989D01*
X139698050Y-75504918D01*
X139731345Y-75508499D01*
X139731362Y-75508500D01*
X141428638Y-75508500D01*
X141428654Y-75508499D01*
X141455692Y-75505591D01*
X141489201Y-75501989D01*
X141626204Y-75450889D01*
X141743261Y-75363261D01*
X141830889Y-75246204D01*
X141881989Y-75109201D01*
X141883827Y-75092103D01*
X141910564Y-75027555D01*
X141967957Y-74987707D01*
X142037782Y-74985213D01*
X142097871Y-75020865D01*
X142107435Y-75032477D01*
X142121928Y-75052426D01*
X142267571Y-75198069D01*
X142267576Y-75198073D01*
X142412908Y-75303661D01*
X142434197Y-75319129D01*
X142517912Y-75361784D01*
X142617705Y-75412632D01*
X142617707Y-75412632D01*
X142617710Y-75412634D01*
X142722707Y-75446749D01*
X142813591Y-75476280D01*
X142915305Y-75492390D01*
X143017019Y-75508500D01*
X143017020Y-75508500D01*
X143222980Y-75508500D01*
X143222981Y-75508500D01*
X143426408Y-75476280D01*
X143622290Y-75412634D01*
X143805803Y-75319129D01*
X143972430Y-75198068D01*
X144118068Y-75052430D01*
X144239129Y-74885803D01*
X144279515Y-74806540D01*
X144327490Y-74755745D01*
X144395311Y-74738950D01*
X144461446Y-74761487D01*
X144500484Y-74806540D01*
X144527338Y-74859244D01*
X144540873Y-74885806D01*
X144661926Y-75052423D01*
X144661930Y-75052428D01*
X144807571Y-75198069D01*
X144807576Y-75198073D01*
X144952908Y-75303661D01*
X144974197Y-75319129D01*
X145057912Y-75361784D01*
X145157705Y-75412632D01*
X145157707Y-75412632D01*
X145157710Y-75412634D01*
X145262707Y-75446749D01*
X145353591Y-75476280D01*
X145455305Y-75492390D01*
X145557019Y-75508500D01*
X145557020Y-75508500D01*
X145762980Y-75508500D01*
X145762981Y-75508500D01*
X145966408Y-75476280D01*
X146162290Y-75412634D01*
X146345803Y-75319129D01*
X146512430Y-75198068D01*
X146658068Y-75052430D01*
X146779129Y-74885803D01*
X146824284Y-74797180D01*
X146872258Y-74746384D01*
X146940079Y-74729589D01*
X147006214Y-74752126D01*
X147045254Y-74797180D01*
X147088140Y-74881349D01*
X147208417Y-75046894D01*
X147208417Y-75046895D01*
X147353104Y-75191582D01*
X147518650Y-75311859D01*
X147700968Y-75404754D01*
X147895578Y-75467988D01*
X147950000Y-75476607D01*
X147950000Y-74515686D01*
X147954394Y-74520080D01*
X148045606Y-74572741D01*
X148147339Y-74600000D01*
X148252661Y-74600000D01*
X148354394Y-74572741D01*
X148445606Y-74520080D01*
X148450000Y-74515686D01*
X148450000Y-75476606D01*
X148504422Y-75467988D01*
X148530178Y-75459619D01*
X148600019Y-75457622D01*
X148659853Y-75493700D01*
X148690683Y-75556400D01*
X148692500Y-75577549D01*
X148692500Y-120835972D01*
X148672815Y-120903011D01*
X148656181Y-120923653D01*
X134215676Y-135364157D01*
X134154353Y-135397642D01*
X134108597Y-135398949D01*
X133943380Y-135372781D01*
X133903720Y-135366500D01*
X133697758Y-135366500D01*
X133673289Y-135370375D01*
X133494330Y-135398719D01*
X133298444Y-135462367D01*
X133114932Y-135555873D01*
X132948315Y-135676926D01*
X132948310Y-135676930D01*
X132802669Y-135822571D01*
X132802665Y-135822576D01*
X132681612Y-135989193D01*
X132588106Y-136172705D01*
X132524458Y-136368591D01*
X132492239Y-136572019D01*
X132492239Y-136777980D01*
X132524458Y-136981408D01*
X132588106Y-137177294D01*
X132681612Y-137360806D01*
X132802665Y-137527423D01*
X132802669Y-137527428D01*
X132948310Y-137673069D01*
X132948315Y-137673073D01*
X133093647Y-137778661D01*
X133114936Y-137794129D01*
X133231867Y-137853709D01*
X133298444Y-137887632D01*
X133298446Y-137887632D01*
X133298449Y-137887634D01*
X133395371Y-137919126D01*
X133494330Y-137951280D01*
X133596044Y-137967390D01*
X133697758Y-137983500D01*
X133697759Y-137983500D01*
X133903719Y-137983500D01*
X133903720Y-137983500D01*
X134107147Y-137951280D01*
X134303029Y-137887634D01*
X134486542Y-137794129D01*
X134653169Y-137673068D01*
X134798807Y-137527430D01*
X134919868Y-137360803D01*
X135013373Y-137177290D01*
X135077019Y-136981408D01*
X135109239Y-136777981D01*
X135109239Y-136572019D01*
X135077019Y-136368592D01*
X135077019Y-136368591D01*
X135076789Y-136367139D01*
X135085744Y-136297845D01*
X135111578Y-136260063D01*
X141149622Y-130222019D01*
X143490762Y-130222019D01*
X143490762Y-130427980D01*
X143522981Y-130631408D01*
X143586629Y-130827294D01*
X143680135Y-131010806D01*
X143801188Y-131177423D01*
X143801192Y-131177428D01*
X143946833Y-131323069D01*
X143946838Y-131323073D01*
X144092170Y-131428661D01*
X144113459Y-131444129D01*
X144230390Y-131503709D01*
X144296967Y-131537632D01*
X144296969Y-131537632D01*
X144296972Y-131537634D01*
X144393894Y-131569126D01*
X144492853Y-131601280D01*
X144594567Y-131617390D01*
X144696281Y-131633500D01*
X144696282Y-131633500D01*
X144902242Y-131633500D01*
X144902243Y-131633500D01*
X145105670Y-131601280D01*
X145301552Y-131537634D01*
X145485065Y-131444129D01*
X145651692Y-131323068D01*
X145797330Y-131177430D01*
X145918391Y-131010803D01*
X146011896Y-130827290D01*
X146075542Y-130631408D01*
X146107762Y-130427981D01*
X146107762Y-130222019D01*
X146075542Y-130018592D01*
X146011896Y-129822710D01*
X146011894Y-129822707D01*
X146011894Y-129822705D01*
X145977971Y-129756128D01*
X145918391Y-129639197D01*
X145888147Y-129597570D01*
X145797335Y-129472576D01*
X145797331Y-129472571D01*
X145651690Y-129326930D01*
X145651685Y-129326926D01*
X145485068Y-129205873D01*
X145485067Y-129205872D01*
X145485065Y-129205871D01*
X145427758Y-129176671D01*
X145301556Y-129112367D01*
X145105670Y-129048719D01*
X144930056Y-129020905D01*
X144902243Y-129016500D01*
X144696281Y-129016500D01*
X144671812Y-129020375D01*
X144492853Y-129048719D01*
X144296967Y-129112367D01*
X144113455Y-129205873D01*
X143946838Y-129326926D01*
X143946833Y-129326930D01*
X143801192Y-129472571D01*
X143801188Y-129472576D01*
X143680135Y-129639193D01*
X143586629Y-129822705D01*
X143522981Y-130018591D01*
X143490762Y-130222019D01*
X141149622Y-130222019D01*
X148931821Y-122439821D01*
X148993142Y-122406338D01*
X149062834Y-122411322D01*
X149118767Y-122453194D01*
X149143184Y-122518658D01*
X149143500Y-122527504D01*
X149143500Y-126265649D01*
X149123815Y-126332688D01*
X149071011Y-126378443D01*
X149057819Y-126383580D01*
X148938444Y-126422367D01*
X148754932Y-126515873D01*
X148588315Y-126636926D01*
X148588310Y-126636930D01*
X148442669Y-126782571D01*
X148442665Y-126782576D01*
X148321612Y-126949193D01*
X148228106Y-127132705D01*
X148164458Y-127328591D01*
X148132239Y-127532019D01*
X148132239Y-127737980D01*
X148164458Y-127941408D01*
X148228106Y-128137294D01*
X148321612Y-128320806D01*
X148442665Y-128487423D01*
X148442669Y-128487428D01*
X148588310Y-128633069D01*
X148588315Y-128633073D01*
X148733647Y-128738661D01*
X148754936Y-128754129D01*
X148871867Y-128813709D01*
X148938444Y-128847632D01*
X148938446Y-128847632D01*
X148938449Y-128847634D01*
X149043446Y-128881749D01*
X149134330Y-128911280D01*
X149236044Y-128927390D01*
X149337758Y-128943500D01*
X149337759Y-128943500D01*
X149543719Y-128943500D01*
X149543720Y-128943500D01*
X149747147Y-128911280D01*
X149943029Y-128847634D01*
X150126542Y-128754129D01*
X150293169Y-128633068D01*
X150438807Y-128487430D01*
X150559868Y-128320803D01*
X150653373Y-128137290D01*
X150717019Y-127941408D01*
X150749239Y-127737981D01*
X150749239Y-127532019D01*
X150717019Y-127328592D01*
X150653373Y-127132710D01*
X150653371Y-127132707D01*
X150653371Y-127132705D01*
X150619448Y-127066128D01*
X150559868Y-126949197D01*
X150549390Y-126934775D01*
X150435944Y-126778628D01*
X150437274Y-126777661D01*
X150411639Y-126720451D01*
X150410500Y-126703680D01*
X150410500Y-121182019D01*
X159130762Y-121182019D01*
X159130762Y-121387980D01*
X159162981Y-121591408D01*
X159226629Y-121787294D01*
X159320135Y-121970806D01*
X159441188Y-122137423D01*
X159441192Y-122137428D01*
X159586833Y-122283069D01*
X159586838Y-122283073D01*
X159732170Y-122388661D01*
X159753459Y-122404129D01*
X159849754Y-122453194D01*
X159936967Y-122497632D01*
X159936969Y-122497632D01*
X159936972Y-122497634D01*
X160028902Y-122527504D01*
X160132853Y-122561280D01*
X160234567Y-122577390D01*
X160336281Y-122593500D01*
X160336282Y-122593500D01*
X160542242Y-122593500D01*
X160542243Y-122593500D01*
X160745670Y-122561280D01*
X160941552Y-122497634D01*
X161125065Y-122404129D01*
X161291692Y-122283068D01*
X161437330Y-122137430D01*
X161558391Y-121970803D01*
X161651896Y-121787290D01*
X161715542Y-121591408D01*
X161747762Y-121387981D01*
X161747762Y-121182019D01*
X161715542Y-120978592D01*
X161651896Y-120782710D01*
X161651894Y-120782707D01*
X161651894Y-120782705D01*
X161617971Y-120716128D01*
X161558391Y-120599197D01*
X161542923Y-120577908D01*
X161437335Y-120432576D01*
X161437331Y-120432571D01*
X161291690Y-120286930D01*
X161291685Y-120286926D01*
X161125068Y-120165873D01*
X161125067Y-120165872D01*
X161125065Y-120165871D01*
X161067758Y-120136671D01*
X160941556Y-120072367D01*
X160745670Y-120008719D01*
X160570056Y-119980905D01*
X160542243Y-119976500D01*
X160336281Y-119976500D01*
X160311812Y-119980375D01*
X160132853Y-120008719D01*
X159936967Y-120072367D01*
X159753455Y-120165873D01*
X159586838Y-120286926D01*
X159586833Y-120286930D01*
X159441192Y-120432571D01*
X159441188Y-120432576D01*
X159320135Y-120599193D01*
X159226629Y-120782705D01*
X159162981Y-120978591D01*
X159130762Y-121182019D01*
X150410500Y-121182019D01*
X150410500Y-114654149D01*
X154991500Y-114654149D01*
X154991500Y-114875850D01*
X155026182Y-115094824D01*
X155094693Y-115305680D01*
X155195343Y-115503215D01*
X155325657Y-115682576D01*
X155482424Y-115839343D01*
X155661785Y-115969657D01*
X155735805Y-116007372D01*
X155859319Y-116070306D01*
X155859321Y-116070306D01*
X155859324Y-116070308D01*
X156070176Y-116138818D01*
X156289149Y-116173500D01*
X156289150Y-116173500D01*
X156510850Y-116173500D01*
X156510851Y-116173500D01*
X156729824Y-116138818D01*
X156940676Y-116070308D01*
X157138215Y-115969657D01*
X157317576Y-115839343D01*
X157474343Y-115682576D01*
X157604657Y-115503215D01*
X157705308Y-115305676D01*
X157773818Y-115094824D01*
X157808500Y-114875851D01*
X157808500Y-114654149D01*
X157773818Y-114435176D01*
X157705308Y-114224324D01*
X157705306Y-114224321D01*
X157705306Y-114224319D01*
X157617592Y-114052172D01*
X157604657Y-114026785D01*
X157474343Y-113847424D01*
X157425921Y-113799002D01*
X157392437Y-113737680D01*
X157397421Y-113667988D01*
X157439293Y-113612055D01*
X157470270Y-113595140D01*
X157542086Y-113568354D01*
X157542093Y-113568350D01*
X157657187Y-113482190D01*
X157657190Y-113482187D01*
X157743350Y-113367093D01*
X157743354Y-113367086D01*
X157793596Y-113232379D01*
X157793598Y-113232372D01*
X157799999Y-113172844D01*
X157800000Y-113172827D01*
X157800000Y-112475000D01*
X156775278Y-112475000D01*
X156819333Y-112398694D01*
X156832609Y-112349149D01*
X166391500Y-112349149D01*
X166391500Y-112570851D01*
X166407996Y-112675000D01*
X166426182Y-112789824D01*
X166494693Y-113000680D01*
X166582407Y-113172827D01*
X166595343Y-113198215D01*
X166725657Y-113377576D01*
X166725659Y-113377578D01*
X166774077Y-113425996D01*
X166807562Y-113487319D01*
X166802578Y-113557011D01*
X166760706Y-113612944D01*
X166729731Y-113629858D01*
X166657915Y-113656644D01*
X166657906Y-113656649D01*
X166542812Y-113742809D01*
X166542809Y-113742812D01*
X166456649Y-113857906D01*
X166456645Y-113857913D01*
X166406403Y-113992620D01*
X166406401Y-113992627D01*
X166400000Y-114052155D01*
X166400000Y-114750000D01*
X167424722Y-114750000D01*
X167380667Y-114826306D01*
X167350000Y-114940756D01*
X167350000Y-115059244D01*
X167380667Y-115173694D01*
X167424722Y-115250000D01*
X166400000Y-115250000D01*
X166400000Y-115947844D01*
X166406401Y-116007372D01*
X166406403Y-116007379D01*
X166456645Y-116142086D01*
X166456649Y-116142093D01*
X166542809Y-116257187D01*
X166542812Y-116257190D01*
X166657906Y-116343350D01*
X166657913Y-116343354D01*
X166792620Y-116393596D01*
X166792627Y-116393598D01*
X166852155Y-116399999D01*
X166852172Y-116400000D01*
X167550000Y-116400000D01*
X167550000Y-115375277D01*
X167626306Y-115419333D01*
X167740756Y-115450000D01*
X167859244Y-115450000D01*
X167973694Y-115419333D01*
X168050000Y-115375277D01*
X168050000Y-116400000D01*
X168747828Y-116400000D01*
X168747844Y-116399999D01*
X168807372Y-116393598D01*
X168807379Y-116393596D01*
X168942086Y-116343354D01*
X168942093Y-116343350D01*
X169057187Y-116257190D01*
X169057190Y-116257187D01*
X169143350Y-116142093D01*
X169143354Y-116142086D01*
X169193596Y-116007379D01*
X169193598Y-116007372D01*
X169199999Y-115947844D01*
X169200000Y-115947827D01*
X169200000Y-115250000D01*
X168175278Y-115250000D01*
X168219333Y-115173694D01*
X168250000Y-115059244D01*
X168250000Y-114940756D01*
X168219333Y-114826306D01*
X168175278Y-114750000D01*
X169200000Y-114750000D01*
X169200000Y-114052172D01*
X169199999Y-114052155D01*
X169193598Y-113992627D01*
X169193596Y-113992620D01*
X169143354Y-113857913D01*
X169143350Y-113857906D01*
X169057190Y-113742812D01*
X169057187Y-113742809D01*
X168942093Y-113656649D01*
X168942087Y-113656646D01*
X168870269Y-113629859D01*
X168814336Y-113587987D01*
X168789919Y-113522522D01*
X168804771Y-113454250D01*
X168825920Y-113425998D01*
X168874343Y-113377576D01*
X169004657Y-113198215D01*
X169105308Y-113000676D01*
X169173818Y-112789824D01*
X169208500Y-112570851D01*
X169208500Y-112349149D01*
X169173818Y-112130176D01*
X169105308Y-111919324D01*
X169105306Y-111919321D01*
X169105306Y-111919319D01*
X169004656Y-111721784D01*
X168874343Y-111542424D01*
X168717576Y-111385657D01*
X168538215Y-111255343D01*
X168340680Y-111154693D01*
X168129824Y-111086182D01*
X168109140Y-111082906D01*
X167910851Y-111051500D01*
X167689149Y-111051500D01*
X167579662Y-111068841D01*
X167470175Y-111086182D01*
X167259319Y-111154693D01*
X167061784Y-111255343D01*
X166959452Y-111329692D01*
X166882424Y-111385657D01*
X166882422Y-111385659D01*
X166882421Y-111385659D01*
X166725659Y-111542421D01*
X166725659Y-111542422D01*
X166725657Y-111542424D01*
X166669692Y-111619452D01*
X166595343Y-111721784D01*
X166494693Y-111919319D01*
X166451808Y-112051306D01*
X166426182Y-112130176D01*
X166391500Y-112349149D01*
X156832609Y-112349149D01*
X156850000Y-112284244D01*
X156850000Y-112165756D01*
X156819333Y-112051306D01*
X156775278Y-111975000D01*
X157800000Y-111975000D01*
X157800000Y-111277172D01*
X157799999Y-111277155D01*
X157793598Y-111217627D01*
X157793596Y-111217620D01*
X157743354Y-111082913D01*
X157743350Y-111082906D01*
X157657190Y-110967812D01*
X157657187Y-110967809D01*
X157542093Y-110881649D01*
X157542086Y-110881645D01*
X157407379Y-110831403D01*
X157407372Y-110831401D01*
X157347844Y-110825000D01*
X156650000Y-110825000D01*
X156650000Y-111849722D01*
X156573694Y-111805667D01*
X156459244Y-111775000D01*
X156340756Y-111775000D01*
X156226306Y-111805667D01*
X156150000Y-111849722D01*
X156150000Y-110825000D01*
X155452155Y-110825000D01*
X155392627Y-110831401D01*
X155392620Y-110831403D01*
X155257913Y-110881645D01*
X155257906Y-110881649D01*
X155142812Y-110967809D01*
X155142809Y-110967812D01*
X155056649Y-111082906D01*
X155056645Y-111082913D01*
X155006403Y-111217620D01*
X155006401Y-111217627D01*
X155000000Y-111277155D01*
X155000000Y-111975000D01*
X156024722Y-111975000D01*
X155980667Y-112051306D01*
X155950000Y-112165756D01*
X155950000Y-112284244D01*
X155980667Y-112398694D01*
X156024722Y-112475000D01*
X155000000Y-112475000D01*
X155000000Y-113172844D01*
X155006401Y-113232372D01*
X155006403Y-113232379D01*
X155056645Y-113367086D01*
X155056649Y-113367093D01*
X155142809Y-113482187D01*
X155142812Y-113482190D01*
X155257906Y-113568350D01*
X155257913Y-113568354D01*
X155329729Y-113595140D01*
X155385663Y-113637011D01*
X155410080Y-113702476D01*
X155395228Y-113770749D01*
X155374078Y-113799002D01*
X155325660Y-113847420D01*
X155325659Y-113847422D01*
X155325657Y-113847424D01*
X155269692Y-113924452D01*
X155195343Y-114026784D01*
X155094693Y-114224319D01*
X155026182Y-114435175D01*
X154991500Y-114654149D01*
X150410500Y-114654149D01*
X150410500Y-107489149D01*
X158551500Y-107489149D01*
X158551500Y-107710850D01*
X158586182Y-107929824D01*
X158654693Y-108140680D01*
X158755343Y-108338215D01*
X158885657Y-108517576D01*
X159042424Y-108674343D01*
X159221785Y-108804657D01*
X159315114Y-108852210D01*
X159419319Y-108905306D01*
X159419321Y-108905306D01*
X159419324Y-108905308D01*
X159630176Y-108973818D01*
X159849149Y-109008500D01*
X159849150Y-109008500D01*
X160070850Y-109008500D01*
X160070851Y-109008500D01*
X160289824Y-108973818D01*
X160500676Y-108905308D01*
X160698215Y-108804657D01*
X160877576Y-108674343D01*
X160925997Y-108625921D01*
X160987318Y-108592437D01*
X161057009Y-108597421D01*
X161112943Y-108639292D01*
X161129859Y-108670269D01*
X161156646Y-108742087D01*
X161156649Y-108742093D01*
X161242809Y-108857187D01*
X161242812Y-108857190D01*
X161357906Y-108943350D01*
X161357913Y-108943354D01*
X161492620Y-108993596D01*
X161492627Y-108993598D01*
X161552155Y-108999999D01*
X161552172Y-109000000D01*
X162250000Y-109000000D01*
X162250000Y-107975277D01*
X162326306Y-108019333D01*
X162440756Y-108050000D01*
X162559244Y-108050000D01*
X162673694Y-108019333D01*
X162750000Y-107975277D01*
X162750000Y-109000000D01*
X163447828Y-109000000D01*
X163447844Y-108999999D01*
X163507372Y-108993598D01*
X163507379Y-108993596D01*
X163642086Y-108943354D01*
X163642093Y-108943350D01*
X163757187Y-108857190D01*
X163757190Y-108857187D01*
X163843350Y-108742093D01*
X163843354Y-108742086D01*
X163893596Y-108607379D01*
X163893598Y-108607372D01*
X163899999Y-108547844D01*
X163900000Y-108547827D01*
X163900000Y-107850000D01*
X162875278Y-107850000D01*
X162919333Y-107773694D01*
X162950000Y-107659244D01*
X162950000Y-107540756D01*
X162919333Y-107426306D01*
X162875278Y-107350000D01*
X163900000Y-107350000D01*
X163900000Y-106652172D01*
X163899999Y-106652155D01*
X163893598Y-106592627D01*
X163893596Y-106592620D01*
X163843354Y-106457913D01*
X163843350Y-106457906D01*
X163757190Y-106342812D01*
X163757187Y-106342809D01*
X163642093Y-106256649D01*
X163642086Y-106256645D01*
X163507379Y-106206403D01*
X163507372Y-106206401D01*
X163447844Y-106200000D01*
X162750000Y-106200000D01*
X162750000Y-107224722D01*
X162673694Y-107180667D01*
X162559244Y-107150000D01*
X162440756Y-107150000D01*
X162326306Y-107180667D01*
X162250000Y-107224722D01*
X162250000Y-106200000D01*
X161552155Y-106200000D01*
X161492627Y-106206401D01*
X161492620Y-106206403D01*
X161357913Y-106256645D01*
X161357906Y-106256649D01*
X161242812Y-106342809D01*
X161242809Y-106342812D01*
X161156649Y-106457906D01*
X161156644Y-106457915D01*
X161129858Y-106529731D01*
X161087987Y-106585664D01*
X161022522Y-106610080D01*
X160954249Y-106595228D01*
X160925996Y-106574077D01*
X160877578Y-106525659D01*
X160877576Y-106525657D01*
X160698215Y-106395343D01*
X160500680Y-106294693D01*
X160289824Y-106226182D01*
X160070851Y-106191500D01*
X159849149Y-106191500D01*
X159739662Y-106208841D01*
X159630175Y-106226182D01*
X159419319Y-106294693D01*
X159221784Y-106395343D01*
X159135675Y-106457906D01*
X159042424Y-106525657D01*
X159042422Y-106525659D01*
X159042421Y-106525659D01*
X158885659Y-106682421D01*
X158885659Y-106682422D01*
X158885657Y-106682424D01*
X158829692Y-106759452D01*
X158755343Y-106861784D01*
X158654693Y-107059319D01*
X158586182Y-107270175D01*
X158551500Y-107489149D01*
X150410500Y-107489149D01*
X150410500Y-103352155D01*
X164760000Y-103352155D01*
X164760000Y-104050000D01*
X165784722Y-104050000D01*
X165740667Y-104126306D01*
X165710000Y-104240756D01*
X165710000Y-104359244D01*
X165740667Y-104473694D01*
X165784722Y-104550000D01*
X164760000Y-104550000D01*
X164760000Y-105247844D01*
X164766401Y-105307372D01*
X164766403Y-105307379D01*
X164816645Y-105442086D01*
X164816649Y-105442093D01*
X164902809Y-105557187D01*
X164902812Y-105557190D01*
X165017906Y-105643350D01*
X165017913Y-105643354D01*
X165152620Y-105693596D01*
X165152627Y-105693598D01*
X165212155Y-105699999D01*
X165212172Y-105700000D01*
X165910000Y-105700000D01*
X165910000Y-104675277D01*
X165986306Y-104719333D01*
X166100756Y-104750000D01*
X166219244Y-104750000D01*
X166333694Y-104719333D01*
X166410000Y-104675277D01*
X166410000Y-105700000D01*
X167107828Y-105700000D01*
X167107844Y-105699999D01*
X167167372Y-105693598D01*
X167167379Y-105693596D01*
X167302086Y-105643354D01*
X167302093Y-105643350D01*
X167417187Y-105557190D01*
X167417190Y-105557187D01*
X167503350Y-105442093D01*
X167503354Y-105442086D01*
X167530140Y-105370270D01*
X167572011Y-105314336D01*
X167637475Y-105289919D01*
X167705748Y-105304770D01*
X167734003Y-105325922D01*
X167782424Y-105374343D01*
X167961785Y-105504657D01*
X168055114Y-105552210D01*
X168159319Y-105605306D01*
X168159321Y-105605306D01*
X168159324Y-105605308D01*
X168370176Y-105673818D01*
X168589149Y-105708500D01*
X168589150Y-105708500D01*
X168810850Y-105708500D01*
X168810851Y-105708500D01*
X169029824Y-105673818D01*
X169240676Y-105605308D01*
X169438215Y-105504657D01*
X169617576Y-105374343D01*
X169774343Y-105217576D01*
X169904657Y-105038215D01*
X170005308Y-104840676D01*
X170073818Y-104629824D01*
X170108500Y-104410851D01*
X170108500Y-104189149D01*
X170073818Y-103970176D01*
X170005308Y-103759324D01*
X170005306Y-103759321D01*
X170005306Y-103759319D01*
X169904656Y-103561784D01*
X169774343Y-103382424D01*
X169617576Y-103225657D01*
X169438215Y-103095343D01*
X169240680Y-102994693D01*
X169029824Y-102926182D01*
X168810851Y-102891500D01*
X168589149Y-102891500D01*
X168479662Y-102908841D01*
X168370175Y-102926182D01*
X168159319Y-102994693D01*
X167961784Y-103095343D01*
X167875675Y-103157906D01*
X167782424Y-103225657D01*
X167782422Y-103225659D01*
X167782420Y-103225660D01*
X167734002Y-103274078D01*
X167672679Y-103307562D01*
X167602987Y-103302577D01*
X167547054Y-103260705D01*
X167530140Y-103229729D01*
X167503354Y-103157913D01*
X167503350Y-103157906D01*
X167417190Y-103042812D01*
X167417187Y-103042809D01*
X167302093Y-102956649D01*
X167302086Y-102956645D01*
X167167379Y-102906403D01*
X167167372Y-102906401D01*
X167107844Y-102900000D01*
X166410000Y-102900000D01*
X166410000Y-103924722D01*
X166333694Y-103880667D01*
X166219244Y-103850000D01*
X166100756Y-103850000D01*
X165986306Y-103880667D01*
X165910000Y-103924722D01*
X165910000Y-102900000D01*
X165212155Y-102900000D01*
X165152627Y-102906401D01*
X165152620Y-102906403D01*
X165017913Y-102956645D01*
X165017906Y-102956649D01*
X164902812Y-103042809D01*
X164902809Y-103042812D01*
X164816649Y-103157906D01*
X164816645Y-103157913D01*
X164766403Y-103292620D01*
X164766401Y-103292627D01*
X164760000Y-103352155D01*
X150410500Y-103352155D01*
X150410500Y-94897019D01*
X165691500Y-94897019D01*
X165691500Y-95102980D01*
X165723719Y-95306408D01*
X165787367Y-95502294D01*
X165880873Y-95685806D01*
X166001926Y-95852423D01*
X166001930Y-95852428D01*
X166147571Y-95998069D01*
X166147576Y-95998073D01*
X166292908Y-96103661D01*
X166314197Y-96119129D01*
X166431128Y-96178709D01*
X166497705Y-96212632D01*
X166497707Y-96212632D01*
X166497710Y-96212634D01*
X166602707Y-96246749D01*
X166693591Y-96276280D01*
X166795305Y-96292390D01*
X166897019Y-96308500D01*
X166897020Y-96308500D01*
X167102980Y-96308500D01*
X167102981Y-96308500D01*
X167306408Y-96276280D01*
X167502290Y-96212634D01*
X167685803Y-96119129D01*
X167852430Y-95998068D01*
X167998068Y-95852430D01*
X168119129Y-95685803D01*
X168212634Y-95502290D01*
X168276280Y-95306408D01*
X168308500Y-95102981D01*
X168308500Y-94897019D01*
X168276280Y-94693592D01*
X168212634Y-94497710D01*
X168212632Y-94497707D01*
X168212632Y-94497705D01*
X168178709Y-94431128D01*
X168119129Y-94314197D01*
X168103661Y-94292908D01*
X167998073Y-94147576D01*
X167998069Y-94147571D01*
X167852428Y-94001930D01*
X167852423Y-94001926D01*
X167685806Y-93880873D01*
X167685805Y-93880872D01*
X167685803Y-93880871D01*
X167628496Y-93851671D01*
X167502294Y-93787367D01*
X167306408Y-93723719D01*
X167130794Y-93695905D01*
X167102981Y-93691500D01*
X166897019Y-93691500D01*
X166872550Y-93695375D01*
X166693591Y-93723719D01*
X166497705Y-93787367D01*
X166314193Y-93880873D01*
X166147576Y-94001926D01*
X166147571Y-94001930D01*
X166001930Y-94147571D01*
X166001926Y-94147576D01*
X165880873Y-94314193D01*
X165787367Y-94497705D01*
X165723719Y-94693591D01*
X165691500Y-94897019D01*
X150410500Y-94897019D01*
X150410500Y-82197019D01*
X165691500Y-82197019D01*
X165691500Y-82402980D01*
X165723719Y-82606408D01*
X165787367Y-82802294D01*
X165880873Y-82985806D01*
X166001926Y-83152423D01*
X166001930Y-83152428D01*
X166147571Y-83298069D01*
X166147576Y-83298073D01*
X166209773Y-83343261D01*
X166314197Y-83419129D01*
X166431128Y-83478709D01*
X166497705Y-83512632D01*
X166497707Y-83512632D01*
X166497710Y-83512634D01*
X166571162Y-83536500D01*
X166693591Y-83576280D01*
X166795305Y-83592390D01*
X166897019Y-83608500D01*
X166897020Y-83608500D01*
X167102980Y-83608500D01*
X167102981Y-83608500D01*
X167306408Y-83576280D01*
X167502290Y-83512634D01*
X167685803Y-83419129D01*
X167852430Y-83298068D01*
X167998068Y-83152430D01*
X168119129Y-82985803D01*
X168212634Y-82802290D01*
X168276280Y-82606408D01*
X168308500Y-82402981D01*
X168308500Y-82197019D01*
X168276280Y-81993592D01*
X168212634Y-81797710D01*
X168212632Y-81797707D01*
X168212632Y-81797705D01*
X168178709Y-81731128D01*
X168119129Y-81614197D01*
X168103661Y-81592908D01*
X167998073Y-81447576D01*
X167998069Y-81447571D01*
X167852428Y-81301930D01*
X167852423Y-81301926D01*
X167685806Y-81180873D01*
X167685805Y-81180872D01*
X167685803Y-81180871D01*
X167593412Y-81133795D01*
X167502294Y-81087367D01*
X167306408Y-81023719D01*
X167130794Y-80995905D01*
X167102981Y-80991500D01*
X166897019Y-80991500D01*
X166872550Y-80995375D01*
X166693591Y-81023719D01*
X166497705Y-81087367D01*
X166314193Y-81180873D01*
X166147576Y-81301926D01*
X166147571Y-81301930D01*
X166001930Y-81447571D01*
X166001926Y-81447576D01*
X165880873Y-81614193D01*
X165787367Y-81797705D01*
X165723719Y-81993591D01*
X165691500Y-82197019D01*
X150410500Y-82197019D01*
X150410500Y-73197019D01*
X165091500Y-73197019D01*
X165091500Y-73402981D01*
X165092042Y-73406401D01*
X165123719Y-73606408D01*
X165187367Y-73802294D01*
X165280873Y-73985806D01*
X165401926Y-74152423D01*
X165401930Y-74152428D01*
X165547571Y-74298069D01*
X165547576Y-74298073D01*
X165625096Y-74354394D01*
X165714197Y-74419129D01*
X165814380Y-74470175D01*
X165897705Y-74512632D01*
X165897707Y-74512632D01*
X165897710Y-74512634D01*
X165938031Y-74525735D01*
X166093591Y-74576280D01*
X166195305Y-74592390D01*
X166297019Y-74608500D01*
X166297020Y-74608500D01*
X166502980Y-74608500D01*
X166502981Y-74608500D01*
X166706408Y-74576280D01*
X166902290Y-74512634D01*
X167085803Y-74419129D01*
X167252430Y-74298068D01*
X167398068Y-74152430D01*
X167519129Y-73985803D01*
X167612634Y-73802290D01*
X167676280Y-73606408D01*
X167708500Y-73402981D01*
X167708500Y-73197019D01*
X167695918Y-73117578D01*
X167676280Y-72993591D01*
X167639829Y-72881408D01*
X167612634Y-72797710D01*
X167612632Y-72797707D01*
X167612632Y-72797705D01*
X167578709Y-72731128D01*
X167519129Y-72614197D01*
X167418946Y-72476306D01*
X167398073Y-72447576D01*
X167398069Y-72447571D01*
X167252428Y-72301930D01*
X167252423Y-72301926D01*
X167085806Y-72180873D01*
X167085805Y-72180872D01*
X167085803Y-72180871D01*
X167028496Y-72151671D01*
X166902294Y-72087367D01*
X166706408Y-72023719D01*
X166530794Y-71995905D01*
X166502981Y-71991500D01*
X166297019Y-71991500D01*
X166272550Y-71995375D01*
X166093591Y-72023719D01*
X165897705Y-72087367D01*
X165714193Y-72180873D01*
X165547576Y-72301926D01*
X165547571Y-72301930D01*
X165401930Y-72447571D01*
X165401926Y-72447576D01*
X165280873Y-72614193D01*
X165187367Y-72797705D01*
X165123719Y-72993591D01*
X165098346Y-73153795D01*
X165091500Y-73197019D01*
X150410500Y-73197019D01*
X150410500Y-66847019D01*
X154092977Y-66847019D01*
X154092977Y-67052980D01*
X154125196Y-67256408D01*
X154188844Y-67452294D01*
X154282350Y-67635806D01*
X154403403Y-67802423D01*
X154403407Y-67802428D01*
X154549048Y-67948069D01*
X154549053Y-67948073D01*
X154694385Y-68053661D01*
X154715674Y-68069129D01*
X154832605Y-68128709D01*
X154899182Y-68162632D01*
X154899184Y-68162632D01*
X154899187Y-68162634D01*
X155004184Y-68196749D01*
X155095068Y-68226280D01*
X155196782Y-68242390D01*
X155298496Y-68258500D01*
X155298497Y-68258500D01*
X155504457Y-68258500D01*
X155504458Y-68258500D01*
X155707885Y-68226280D01*
X155903767Y-68162634D01*
X156087280Y-68069129D01*
X156253907Y-67948068D01*
X156399545Y-67802430D01*
X156520606Y-67635803D01*
X156614111Y-67452290D01*
X156677757Y-67256408D01*
X156709977Y-67052981D01*
X156709977Y-66847019D01*
X156677757Y-66643592D01*
X156614111Y-66447710D01*
X156614109Y-66447707D01*
X156614109Y-66447705D01*
X156579514Y-66379810D01*
X156520606Y-66264197D01*
X156461342Y-66182627D01*
X156399550Y-66097576D01*
X156399546Y-66097571D01*
X156253905Y-65951930D01*
X156253900Y-65951926D01*
X156087283Y-65830873D01*
X156087282Y-65830872D01*
X156087280Y-65830871D01*
X156029973Y-65801671D01*
X155903771Y-65737367D01*
X155707885Y-65673719D01*
X155532271Y-65645905D01*
X155504458Y-65641500D01*
X155298496Y-65641500D01*
X155274027Y-65645375D01*
X155095068Y-65673719D01*
X154899182Y-65737367D01*
X154715670Y-65830873D01*
X154549053Y-65951926D01*
X154549048Y-65951930D01*
X154403407Y-66097571D01*
X154403403Y-66097576D01*
X154282350Y-66264193D01*
X154188844Y-66447705D01*
X154125196Y-66643591D01*
X154092977Y-66847019D01*
X150410500Y-66847019D01*
X150410500Y-66502200D01*
X150410499Y-66502196D01*
X150386156Y-66379817D01*
X150386155Y-66379810D01*
X150364687Y-66327981D01*
X150359094Y-66314478D01*
X150338404Y-66264527D01*
X150338403Y-66264526D01*
X150338401Y-66264520D01*
X150283682Y-66182627D01*
X150269072Y-66160761D01*
X150269069Y-66160758D01*
X149070241Y-64961931D01*
X149070237Y-64961928D01*
X148966486Y-64892603D01*
X148966477Y-64892598D01*
X148851190Y-64844845D01*
X148851182Y-64844843D01*
X148728803Y-64820500D01*
X148728799Y-64820500D01*
X146723606Y-64820500D01*
X146723601Y-64820500D01*
X146601222Y-64844843D01*
X146601214Y-64844845D01*
X146485927Y-64892598D01*
X146485918Y-64892603D01*
X146382167Y-64961928D01*
X146382163Y-64961931D01*
X146074937Y-65269157D01*
X146013614Y-65302642D01*
X145967858Y-65303949D01*
X145802641Y-65277781D01*
X145762981Y-65271500D01*
X145557019Y-65271500D01*
X145532550Y-65275375D01*
X145353591Y-65303719D01*
X145157705Y-65367367D01*
X144974193Y-65460873D01*
X144807576Y-65581926D01*
X144807571Y-65581930D01*
X144661930Y-65727571D01*
X144661926Y-65727576D01*
X144540871Y-65894195D01*
X144500484Y-65973459D01*
X144452510Y-66024254D01*
X144384689Y-66041049D01*
X144318554Y-66018511D01*
X144279516Y-65973459D01*
X144239128Y-65894195D01*
X144118073Y-65727576D01*
X144118069Y-65727571D01*
X143972428Y-65581930D01*
X143972423Y-65581926D01*
X143805806Y-65460873D01*
X143805805Y-65460872D01*
X143805803Y-65460871D01*
X143748496Y-65431671D01*
X143622294Y-65367367D01*
X143426408Y-65303719D01*
X143250794Y-65275905D01*
X143222981Y-65271500D01*
X143017019Y-65271500D01*
X142992550Y-65275375D01*
X142813591Y-65303719D01*
X142617705Y-65367367D01*
X142434193Y-65460873D01*
X142267576Y-65581926D01*
X142267571Y-65581930D01*
X142121930Y-65727571D01*
X142121926Y-65727576D01*
X142000871Y-65894195D01*
X141960484Y-65973459D01*
X141912510Y-66024254D01*
X141844689Y-66041049D01*
X141778554Y-66018511D01*
X141739516Y-65973459D01*
X141699128Y-65894195D01*
X141578073Y-65727576D01*
X141578069Y-65727571D01*
X141432428Y-65581930D01*
X141432423Y-65581926D01*
X141265806Y-65460873D01*
X141265805Y-65460872D01*
X141265803Y-65460871D01*
X141208496Y-65431671D01*
X141082294Y-65367367D01*
X140886408Y-65303719D01*
X140710794Y-65275905D01*
X140682981Y-65271500D01*
X140477019Y-65271500D01*
X140452550Y-65275375D01*
X140273591Y-65303719D01*
X140077705Y-65367367D01*
X139894193Y-65460873D01*
X139727576Y-65581926D01*
X139727571Y-65581930D01*
X139581930Y-65727571D01*
X139581926Y-65727576D01*
X139460873Y-65894193D01*
X139367367Y-66077705D01*
X139303719Y-66273591D01*
X139271500Y-66477019D01*
X139271500Y-66682980D01*
X139303719Y-66886408D01*
X139367367Y-67082294D01*
X139460873Y-67265806D01*
X139581926Y-67432423D01*
X139581930Y-67432428D01*
X139727571Y-67578069D01*
X139727576Y-67578073D01*
X139807040Y-67635806D01*
X139894197Y-67699129D01*
X140011128Y-67758709D01*
X140077705Y-67792632D01*
X140077707Y-67792632D01*
X140077710Y-67792634D01*
X140182628Y-67826724D01*
X140273591Y-67856280D01*
X140358265Y-67869691D01*
X140477019Y-67888500D01*
X140477020Y-67888500D01*
X140616232Y-67888500D01*
X140683271Y-67908185D01*
X140729026Y-67960989D01*
X140738970Y-68030147D01*
X140709945Y-68093703D01*
X140703913Y-68100181D01*
X136964186Y-71839910D01*
X135722167Y-73081929D01*
X135686520Y-73117576D01*
X135633927Y-73170168D01*
X135564603Y-73273918D01*
X135564598Y-73273927D01*
X135516845Y-73389214D01*
X135516843Y-73389222D01*
X135492500Y-73511601D01*
X135492500Y-73636398D01*
X135516843Y-73758777D01*
X135516845Y-73758785D01*
X135564598Y-73874072D01*
X135564603Y-73874081D01*
X135633928Y-73977832D01*
X135633931Y-73977836D01*
X144980914Y-83324819D01*
X145014399Y-83386142D01*
X145009415Y-83455834D01*
X144967543Y-83511767D01*
X144902079Y-83536184D01*
X144893233Y-83536500D01*
X143781345Y-83536500D01*
X143720797Y-83543011D01*
X143720795Y-83543011D01*
X143583795Y-83594111D01*
X143466739Y-83681739D01*
X143379111Y-83798795D01*
X143328011Y-83935795D01*
X143328011Y-83935797D01*
X143321500Y-83996345D01*
X143321500Y-86631234D01*
X143301815Y-86698273D01*
X143285181Y-86718915D01*
X140873915Y-89130181D01*
X140812592Y-89163666D01*
X140786234Y-89166500D01*
X109993767Y-89166500D01*
X109926728Y-89146815D01*
X109880973Y-89094011D01*
X109871029Y-89024853D01*
X109900054Y-88961297D01*
X109906086Y-88954819D01*
X111258060Y-87602844D01*
X113970000Y-87602844D01*
X113976401Y-87662372D01*
X113976403Y-87662379D01*
X114026645Y-87797086D01*
X114026649Y-87797093D01*
X114112809Y-87912187D01*
X114112812Y-87912190D01*
X114227906Y-87998350D01*
X114227913Y-87998354D01*
X114362620Y-88048596D01*
X114362627Y-88048598D01*
X114422155Y-88054999D01*
X114422172Y-88055000D01*
X115490000Y-88055000D01*
X115990000Y-88055000D01*
X117057828Y-88055000D01*
X117057844Y-88054999D01*
X117117372Y-88048598D01*
X117117379Y-88048596D01*
X117252086Y-87998354D01*
X117252093Y-87998350D01*
X117367187Y-87912190D01*
X117367190Y-87912187D01*
X117453350Y-87797093D01*
X117453354Y-87797086D01*
X117503596Y-87662379D01*
X117503598Y-87662372D01*
X117509999Y-87602844D01*
X117510000Y-87602827D01*
X117510000Y-86050000D01*
X115990000Y-86050000D01*
X115990000Y-88055000D01*
X115490000Y-88055000D01*
X115490000Y-86050000D01*
X113970000Y-86050000D01*
X113970000Y-87602844D01*
X111258060Y-87602844D01*
X112178308Y-86682596D01*
X113758320Y-85102583D01*
X113819642Y-85069099D01*
X113889334Y-85074083D01*
X113945267Y-85115955D01*
X113969684Y-85181419D01*
X113970000Y-85190265D01*
X113970000Y-85550000D01*
X115490000Y-85550000D01*
X115990000Y-85550000D01*
X117510000Y-85550000D01*
X117510000Y-83997172D01*
X117509999Y-83997155D01*
X117503598Y-83937627D01*
X117503596Y-83937620D01*
X117453354Y-83802913D01*
X117453350Y-83802906D01*
X117367190Y-83687812D01*
X117367187Y-83687809D01*
X117252093Y-83601649D01*
X117252086Y-83601645D01*
X117117379Y-83551403D01*
X117117372Y-83551401D01*
X117057844Y-83545000D01*
X115990000Y-83545000D01*
X115990000Y-85550000D01*
X115490000Y-85550000D01*
X115490000Y-83544474D01*
X115457147Y-83484309D01*
X115462131Y-83414617D01*
X115490629Y-83370274D01*
X122669673Y-76191229D01*
X122730994Y-76157746D01*
X122795668Y-76160980D01*
X122835176Y-76173818D01*
X123054149Y-76208500D01*
X123054150Y-76208500D01*
X123275850Y-76208500D01*
X123275851Y-76208500D01*
X123494824Y-76173818D01*
X123705676Y-76105308D01*
X123903215Y-76004657D01*
X124082576Y-75874343D01*
X124239343Y-75717576D01*
X124369657Y-75538215D01*
X124470308Y-75340676D01*
X124538818Y-75129824D01*
X124573500Y-74910851D01*
X124573500Y-74689149D01*
X124538818Y-74470176D01*
X124470308Y-74259324D01*
X124470306Y-74259321D01*
X124470306Y-74259319D01*
X124413249Y-74147339D01*
X124369657Y-74061785D01*
X124239343Y-73882424D01*
X124082576Y-73725657D01*
X123903215Y-73595343D01*
X123859498Y-73573068D01*
X123705680Y-73494693D01*
X123494824Y-73426182D01*
X123393848Y-73410189D01*
X123275851Y-73391500D01*
X123054149Y-73391500D01*
X122944662Y-73408841D01*
X122835175Y-73426182D01*
X122624319Y-73494693D01*
X122426784Y-73595343D01*
X122359465Y-73644254D01*
X122247424Y-73725657D01*
X122247422Y-73725659D01*
X122247420Y-73725660D01*
X122199002Y-73774078D01*
X122137679Y-73807562D01*
X122067987Y-73802577D01*
X122012054Y-73760705D01*
X121995140Y-73729729D01*
X121968354Y-73657913D01*
X121968350Y-73657906D01*
X121882190Y-73542812D01*
X121882187Y-73542809D01*
X121767093Y-73456649D01*
X121767086Y-73456645D01*
X121632379Y-73406403D01*
X121632372Y-73406401D01*
X121572844Y-73400000D01*
X120875000Y-73400000D01*
X120875000Y-74424722D01*
X120798694Y-74380667D01*
X120684244Y-74350000D01*
X120565756Y-74350000D01*
X120451306Y-74380667D01*
X120375000Y-74424722D01*
X120375000Y-73400000D01*
X119677155Y-73400000D01*
X119617627Y-73406401D01*
X119617620Y-73406403D01*
X119482913Y-73456645D01*
X119482906Y-73456649D01*
X119367812Y-73542809D01*
X119367809Y-73542812D01*
X119281649Y-73657906D01*
X119281645Y-73657913D01*
X119231403Y-73792620D01*
X119231401Y-73792627D01*
X119225000Y-73852155D01*
X119225000Y-74550000D01*
X120249722Y-74550000D01*
X120205667Y-74626306D01*
X120175000Y-74740756D01*
X120175000Y-74859244D01*
X120205667Y-74973694D01*
X120249722Y-75050000D01*
X119225000Y-75050000D01*
X119225000Y-75747844D01*
X119231401Y-75807372D01*
X119231403Y-75807379D01*
X119281645Y-75942086D01*
X119281649Y-75942093D01*
X119367809Y-76057187D01*
X119367812Y-76057190D01*
X119482906Y-76143350D01*
X119482913Y-76143354D01*
X119617620Y-76193596D01*
X119617627Y-76193598D01*
X119677155Y-76199999D01*
X119677172Y-76200000D01*
X120375000Y-76200000D01*
X120375000Y-75175277D01*
X120451306Y-75219333D01*
X120565756Y-75250000D01*
X120684244Y-75250000D01*
X120798694Y-75219333D01*
X120875000Y-75175277D01*
X120875000Y-76142733D01*
X120855315Y-76209772D01*
X120838681Y-76230414D01*
X109138915Y-87930181D01*
X109077592Y-87963666D01*
X109051234Y-87966500D01*
X102520311Y-87966500D01*
X102453272Y-87946815D01*
X102419993Y-87915385D01*
X102298073Y-87747576D01*
X102298069Y-87747571D01*
X102152428Y-87601930D01*
X102152423Y-87601926D01*
X101985806Y-87480873D01*
X101985805Y-87480872D01*
X101985803Y-87480871D01*
X101928496Y-87451671D01*
X101802294Y-87387367D01*
X101606408Y-87323719D01*
X101430794Y-87295905D01*
X101402981Y-87291500D01*
X101197019Y-87291500D01*
X101172550Y-87295375D01*
X100993591Y-87323719D01*
X100797705Y-87387367D01*
X100614193Y-87480873D01*
X100447576Y-87601926D01*
X100447571Y-87601930D01*
X100301930Y-87747571D01*
X100301926Y-87747576D01*
X100180873Y-87914193D01*
X100087367Y-88097705D01*
X100023719Y-88293591D01*
X99991500Y-88497019D01*
X99991500Y-88702980D01*
X100023719Y-88906408D01*
X100043743Y-88968033D01*
X100055489Y-89004182D01*
X100057484Y-89074022D01*
X100021404Y-89133855D01*
X99958704Y-89164684D01*
X99937558Y-89166500D01*
X96820311Y-89166500D01*
X96753272Y-89146815D01*
X96719993Y-89115385D01*
X96598073Y-88947576D01*
X96598069Y-88947571D01*
X96452428Y-88801930D01*
X96452423Y-88801926D01*
X96285806Y-88680873D01*
X96285805Y-88680872D01*
X96285803Y-88680871D01*
X96228496Y-88651671D01*
X96102294Y-88587367D01*
X95906408Y-88523719D01*
X95730794Y-88495905D01*
X95702981Y-88491500D01*
X95497019Y-88491500D01*
X95472550Y-88495375D01*
X95293591Y-88523719D01*
X95097705Y-88587367D01*
X94914193Y-88680873D01*
X94747576Y-88801926D01*
X94747571Y-88801930D01*
X94601930Y-88947571D01*
X94601926Y-88947576D01*
X94480873Y-89114193D01*
X94387367Y-89297705D01*
X94323719Y-89493591D01*
X94291500Y-89697019D01*
X84211918Y-89697019D01*
X84227073Y-81331345D01*
X94291500Y-81331345D01*
X94291500Y-83028654D01*
X94298011Y-83089202D01*
X94298011Y-83089204D01*
X94349111Y-83226204D01*
X94436739Y-83343261D01*
X94553796Y-83430889D01*
X94690799Y-83481989D01*
X94718050Y-83484918D01*
X94751345Y-83488499D01*
X94751362Y-83488500D01*
X96448638Y-83488500D01*
X96448654Y-83488499D01*
X96475692Y-83485591D01*
X96509201Y-83481989D01*
X96646204Y-83430889D01*
X96763261Y-83343261D01*
X96850889Y-83226204D01*
X96901989Y-83089201D01*
X96905591Y-83055692D01*
X96908499Y-83028654D01*
X96908500Y-83028637D01*
X96908500Y-81331362D01*
X96908499Y-81331345D01*
X96905157Y-81300270D01*
X96901989Y-81270799D01*
X96850889Y-81133796D01*
X96763261Y-81016739D01*
X96646204Y-80929111D01*
X96509203Y-80878011D01*
X96448654Y-80871500D01*
X96448638Y-80871500D01*
X94751362Y-80871500D01*
X94751345Y-80871500D01*
X94690797Y-80878011D01*
X94690795Y-80878011D01*
X94553795Y-80929111D01*
X94436739Y-81016739D01*
X94349111Y-81133795D01*
X94298011Y-81270795D01*
X94298011Y-81270797D01*
X94291500Y-81331345D01*
X84227073Y-81331345D01*
X84233128Y-77989149D01*
X111191500Y-77989149D01*
X111191500Y-78210850D01*
X111226182Y-78429824D01*
X111294693Y-78640680D01*
X111395343Y-78838215D01*
X111525657Y-79017576D01*
X111682424Y-79174343D01*
X111861785Y-79304657D01*
X111955114Y-79352210D01*
X112059319Y-79405306D01*
X112059321Y-79405306D01*
X112059324Y-79405308D01*
X112270176Y-79473818D01*
X112489149Y-79508500D01*
X112489150Y-79508500D01*
X112710850Y-79508500D01*
X112710851Y-79508500D01*
X112929824Y-79473818D01*
X113140676Y-79405308D01*
X113338215Y-79304657D01*
X113517576Y-79174343D01*
X113565997Y-79125921D01*
X113627318Y-79092437D01*
X113697009Y-79097421D01*
X113752943Y-79139292D01*
X113769859Y-79170269D01*
X113796646Y-79242087D01*
X113796649Y-79242093D01*
X113882809Y-79357187D01*
X113882812Y-79357190D01*
X113997906Y-79443350D01*
X113997913Y-79443354D01*
X114132620Y-79493596D01*
X114132627Y-79493598D01*
X114192155Y-79499999D01*
X114192172Y-79500000D01*
X114890000Y-79500000D01*
X114890000Y-78475277D01*
X114966306Y-78519333D01*
X115080756Y-78550000D01*
X115199244Y-78550000D01*
X115313694Y-78519333D01*
X115390000Y-78475277D01*
X115390000Y-79500000D01*
X116087828Y-79500000D01*
X116087844Y-79499999D01*
X116147372Y-79493598D01*
X116147379Y-79493596D01*
X116282086Y-79443354D01*
X116282093Y-79443350D01*
X116397187Y-79357190D01*
X116397190Y-79357187D01*
X116483350Y-79242093D01*
X116483354Y-79242086D01*
X116533596Y-79107379D01*
X116533598Y-79107372D01*
X116539999Y-79047844D01*
X116540000Y-79047827D01*
X116540000Y-78350000D01*
X115515278Y-78350000D01*
X115559333Y-78273694D01*
X115590000Y-78159244D01*
X115590000Y-78040756D01*
X115559333Y-77926306D01*
X115515278Y-77850000D01*
X116540000Y-77850000D01*
X116540000Y-77152172D01*
X116539999Y-77152155D01*
X116533598Y-77092627D01*
X116533596Y-77092620D01*
X116483354Y-76957913D01*
X116483350Y-76957906D01*
X116397190Y-76842812D01*
X116397187Y-76842809D01*
X116282093Y-76756649D01*
X116282086Y-76756645D01*
X116147379Y-76706403D01*
X116147372Y-76706401D01*
X116087844Y-76700000D01*
X115390000Y-76700000D01*
X115390000Y-77724722D01*
X115313694Y-77680667D01*
X115199244Y-77650000D01*
X115080756Y-77650000D01*
X114966306Y-77680667D01*
X114890000Y-77724722D01*
X114890000Y-76700000D01*
X114192155Y-76700000D01*
X114132627Y-76706401D01*
X114132620Y-76706403D01*
X113997913Y-76756645D01*
X113997906Y-76756649D01*
X113882812Y-76842809D01*
X113882809Y-76842812D01*
X113796649Y-76957906D01*
X113796644Y-76957915D01*
X113769858Y-77029731D01*
X113727987Y-77085664D01*
X113662522Y-77110080D01*
X113594249Y-77095228D01*
X113565996Y-77074077D01*
X113517578Y-77025659D01*
X113517576Y-77025657D01*
X113338215Y-76895343D01*
X113140680Y-76794693D01*
X112929824Y-76726182D01*
X112710851Y-76691500D01*
X112489149Y-76691500D01*
X112379662Y-76708841D01*
X112270175Y-76726182D01*
X112059319Y-76794693D01*
X111861784Y-76895343D01*
X111775675Y-76957906D01*
X111682424Y-77025657D01*
X111682422Y-77025659D01*
X111682421Y-77025659D01*
X111525659Y-77182421D01*
X111525659Y-77182422D01*
X111525657Y-77182424D01*
X111482310Y-77242086D01*
X111395343Y-77361784D01*
X111294693Y-77559319D01*
X111226182Y-77770175D01*
X111191500Y-77989149D01*
X84233128Y-77989149D01*
X84236751Y-75989149D01*
X101851500Y-75989149D01*
X101851500Y-76210851D01*
X101861453Y-76273694D01*
X101886182Y-76429824D01*
X101954693Y-76640680D01*
X101998259Y-76726182D01*
X102055343Y-76838215D01*
X102185657Y-77017576D01*
X102342424Y-77174343D01*
X102521785Y-77304657D01*
X102615114Y-77352210D01*
X102719319Y-77405306D01*
X102719321Y-77405306D01*
X102719324Y-77405308D01*
X102930176Y-77473818D01*
X103149149Y-77508500D01*
X103149150Y-77508500D01*
X103370850Y-77508500D01*
X103370851Y-77508500D01*
X103589824Y-77473818D01*
X103800676Y-77405308D01*
X103998215Y-77304657D01*
X104177576Y-77174343D01*
X104225997Y-77125921D01*
X104287318Y-77092437D01*
X104357009Y-77097421D01*
X104412943Y-77139292D01*
X104429859Y-77170269D01*
X104456646Y-77242087D01*
X104456649Y-77242093D01*
X104542809Y-77357187D01*
X104542812Y-77357190D01*
X104657906Y-77443350D01*
X104657913Y-77443354D01*
X104792620Y-77493596D01*
X104792627Y-77493598D01*
X104852155Y-77499999D01*
X104852172Y-77500000D01*
X105550000Y-77500000D01*
X105550000Y-76475277D01*
X105626306Y-76519333D01*
X105740756Y-76550000D01*
X105859244Y-76550000D01*
X105973694Y-76519333D01*
X106050000Y-76475277D01*
X106050000Y-77500000D01*
X106747828Y-77500000D01*
X106747844Y-77499999D01*
X106807372Y-77493598D01*
X106807379Y-77493596D01*
X106942086Y-77443354D01*
X106942093Y-77443350D01*
X107057187Y-77357190D01*
X107057190Y-77357187D01*
X107143350Y-77242093D01*
X107143354Y-77242086D01*
X107193596Y-77107379D01*
X107193598Y-77107372D01*
X107199999Y-77047844D01*
X107200000Y-77047827D01*
X107200000Y-76350000D01*
X106175278Y-76350000D01*
X106219333Y-76273694D01*
X106250000Y-76159244D01*
X106250000Y-76040756D01*
X106219333Y-75926306D01*
X106175278Y-75850000D01*
X107200000Y-75850000D01*
X107200000Y-75152172D01*
X107199999Y-75152155D01*
X107193598Y-75092627D01*
X107193596Y-75092619D01*
X107174706Y-75041971D01*
X107143354Y-74957913D01*
X107143350Y-74957906D01*
X107057190Y-74842812D01*
X107057187Y-74842809D01*
X106942093Y-74756649D01*
X106942086Y-74756645D01*
X106807379Y-74706403D01*
X106807372Y-74706401D01*
X106747844Y-74700000D01*
X106050000Y-74700000D01*
X106050000Y-75724722D01*
X105973694Y-75680667D01*
X105859244Y-75650000D01*
X105740756Y-75650000D01*
X105626306Y-75680667D01*
X105550000Y-75724722D01*
X105550000Y-74700000D01*
X104852155Y-74700000D01*
X104792627Y-74706401D01*
X104792620Y-74706403D01*
X104657913Y-74756645D01*
X104657906Y-74756649D01*
X104542812Y-74842809D01*
X104542809Y-74842812D01*
X104456649Y-74957906D01*
X104456644Y-74957915D01*
X104429858Y-75029731D01*
X104387987Y-75085664D01*
X104322522Y-75110080D01*
X104254249Y-75095228D01*
X104225996Y-75074077D01*
X104177578Y-75025659D01*
X104177576Y-75025657D01*
X103998215Y-74895343D01*
X103927367Y-74859244D01*
X103800680Y-74794693D01*
X103589824Y-74726182D01*
X103370851Y-74691500D01*
X103149149Y-74691500D01*
X103039662Y-74708841D01*
X102930175Y-74726182D01*
X102719319Y-74794693D01*
X102521784Y-74895343D01*
X102435675Y-74957906D01*
X102342424Y-75025657D01*
X102342422Y-75025659D01*
X102342421Y-75025659D01*
X102185659Y-75182421D01*
X102185659Y-75182422D01*
X102185657Y-75182424D01*
X102158841Y-75219333D01*
X102055343Y-75361784D01*
X101954693Y-75559319D01*
X101886182Y-75770175D01*
X101861453Y-75926306D01*
X101851500Y-75989149D01*
X84236751Y-75989149D01*
X84243123Y-72472019D01*
X95992238Y-72472019D01*
X95992238Y-72677980D01*
X96024457Y-72881408D01*
X96088105Y-73077294D01*
X96181611Y-73260806D01*
X96302664Y-73427423D01*
X96302668Y-73427428D01*
X96448309Y-73573069D01*
X96448314Y-73573073D01*
X96582288Y-73670410D01*
X96614935Y-73694129D01*
X96684804Y-73729729D01*
X96798443Y-73787632D01*
X96798445Y-73787632D01*
X96798448Y-73787634D01*
X96843567Y-73802294D01*
X96994329Y-73851280D01*
X96999854Y-73852155D01*
X97197757Y-73883500D01*
X97197758Y-73883500D01*
X97403718Y-73883500D01*
X97403719Y-73883500D01*
X97607146Y-73851280D01*
X97803028Y-73787634D01*
X97986541Y-73694129D01*
X98153168Y-73573068D01*
X98298806Y-73427430D01*
X98419867Y-73260803D01*
X98513372Y-73077290D01*
X98577018Y-72881408D01*
X98609238Y-72677981D01*
X98609238Y-72472019D01*
X98577018Y-72268592D01*
X98577017Y-72268588D01*
X98577017Y-72268587D01*
X98529581Y-72122595D01*
X98518713Y-72089149D01*
X108601500Y-72089149D01*
X108601500Y-72310850D01*
X108636182Y-72529824D01*
X108704693Y-72740680D01*
X108784858Y-72898011D01*
X108805343Y-72938215D01*
X108935657Y-73117576D01*
X109092424Y-73274343D01*
X109271785Y-73404657D01*
X109316466Y-73427423D01*
X109469319Y-73505306D01*
X109469321Y-73505306D01*
X109469324Y-73505308D01*
X109680176Y-73573818D01*
X109899149Y-73608500D01*
X109899150Y-73608500D01*
X110120850Y-73608500D01*
X110120851Y-73608500D01*
X110339824Y-73573818D01*
X110550676Y-73505308D01*
X110748215Y-73404657D01*
X110927576Y-73274343D01*
X110975997Y-73225921D01*
X111037318Y-73192437D01*
X111107009Y-73197421D01*
X111162943Y-73239292D01*
X111179859Y-73270269D01*
X111206646Y-73342087D01*
X111206649Y-73342093D01*
X111292809Y-73457187D01*
X111292812Y-73457190D01*
X111407906Y-73543350D01*
X111407913Y-73543354D01*
X111542620Y-73593596D01*
X111542627Y-73593598D01*
X111602155Y-73599999D01*
X111602172Y-73600000D01*
X112300000Y-73600000D01*
X112300000Y-72575277D01*
X112376306Y-72619333D01*
X112490756Y-72650000D01*
X112609244Y-72650000D01*
X112723694Y-72619333D01*
X112800000Y-72575277D01*
X112800000Y-73600000D01*
X113497828Y-73600000D01*
X113497844Y-73599999D01*
X113557372Y-73593598D01*
X113557379Y-73593596D01*
X113692086Y-73543354D01*
X113692093Y-73543350D01*
X113807187Y-73457190D01*
X113807190Y-73457187D01*
X113893350Y-73342093D01*
X113893354Y-73342086D01*
X113943596Y-73207379D01*
X113943598Y-73207372D01*
X113949999Y-73147844D01*
X113950000Y-73147827D01*
X113950000Y-72450000D01*
X112925278Y-72450000D01*
X112969333Y-72373694D01*
X113000000Y-72259244D01*
X113000000Y-72140756D01*
X112969333Y-72026306D01*
X112925278Y-71950000D01*
X113950000Y-71950000D01*
X113950000Y-71252172D01*
X113949999Y-71252155D01*
X113943598Y-71192627D01*
X113943596Y-71192620D01*
X113893354Y-71057913D01*
X113893350Y-71057906D01*
X113807190Y-70942812D01*
X113807187Y-70942809D01*
X113692093Y-70856649D01*
X113692086Y-70856645D01*
X113557379Y-70806403D01*
X113557372Y-70806401D01*
X113497844Y-70800000D01*
X112800000Y-70800000D01*
X112800000Y-71824722D01*
X112723694Y-71780667D01*
X112609244Y-71750000D01*
X112490756Y-71750000D01*
X112376306Y-71780667D01*
X112300000Y-71824722D01*
X112300000Y-70800000D01*
X111602155Y-70800000D01*
X111542627Y-70806401D01*
X111542620Y-70806403D01*
X111407913Y-70856645D01*
X111407906Y-70856649D01*
X111292812Y-70942809D01*
X111292809Y-70942812D01*
X111206649Y-71057906D01*
X111206644Y-71057915D01*
X111179858Y-71129731D01*
X111137987Y-71185664D01*
X111072522Y-71210080D01*
X111004249Y-71195228D01*
X110975996Y-71174077D01*
X110927578Y-71125659D01*
X110927576Y-71125657D01*
X110748215Y-70995343D01*
X110550680Y-70894693D01*
X110339824Y-70826182D01*
X110120851Y-70791500D01*
X109899149Y-70791500D01*
X109789662Y-70808841D01*
X109680175Y-70826182D01*
X109469319Y-70894693D01*
X109271784Y-70995343D01*
X109212777Y-71038215D01*
X109092424Y-71125657D01*
X109092422Y-71125659D01*
X109092421Y-71125659D01*
X108935659Y-71282421D01*
X108935659Y-71282422D01*
X108935657Y-71282424D01*
X108904054Y-71325922D01*
X108805343Y-71461784D01*
X108704693Y-71659319D01*
X108636182Y-71870175D01*
X108601500Y-72089149D01*
X98518713Y-72089149D01*
X98518134Y-72087366D01*
X98513372Y-72072710D01*
X98419867Y-71889197D01*
X98318735Y-71750000D01*
X98298811Y-71722576D01*
X98298807Y-71722571D01*
X98153166Y-71576930D01*
X98153161Y-71576926D01*
X97986544Y-71455873D01*
X97986543Y-71455872D01*
X97986541Y-71455871D01*
X97929234Y-71426671D01*
X97803032Y-71362367D01*
X97607146Y-71298719D01*
X97431532Y-71270905D01*
X97403719Y-71266500D01*
X97197757Y-71266500D01*
X97173288Y-71270375D01*
X96994329Y-71298719D01*
X96798443Y-71362367D01*
X96614931Y-71455873D01*
X96448314Y-71576926D01*
X96448309Y-71576930D01*
X96302668Y-71722571D01*
X96302664Y-71722576D01*
X96181611Y-71889193D01*
X96088105Y-72072705D01*
X96024457Y-72268591D01*
X95992238Y-72472019D01*
X84243123Y-72472019D01*
X84248775Y-69352155D01*
X115400000Y-69352155D01*
X115400000Y-70050000D01*
X116424722Y-70050000D01*
X116380667Y-70126306D01*
X116350000Y-70240756D01*
X116350000Y-70359244D01*
X116380667Y-70473694D01*
X116424722Y-70550000D01*
X115400000Y-70550000D01*
X115400000Y-71247844D01*
X115406401Y-71307372D01*
X115406403Y-71307379D01*
X115456645Y-71442086D01*
X115456649Y-71442093D01*
X115542809Y-71557187D01*
X115542812Y-71557190D01*
X115657906Y-71643350D01*
X115657913Y-71643354D01*
X115792620Y-71693596D01*
X115792627Y-71693598D01*
X115852155Y-71699999D01*
X115852172Y-71700000D01*
X116550000Y-71700000D01*
X116550000Y-70675277D01*
X116626306Y-70719333D01*
X116740756Y-70750000D01*
X116859244Y-70750000D01*
X116973694Y-70719333D01*
X117050000Y-70675277D01*
X117050000Y-71700000D01*
X117747828Y-71700000D01*
X117747844Y-71699999D01*
X117807372Y-71693598D01*
X117807379Y-71693596D01*
X117942086Y-71643354D01*
X117942093Y-71643350D01*
X118057187Y-71557190D01*
X118057190Y-71557187D01*
X118143350Y-71442093D01*
X118143354Y-71442086D01*
X118170140Y-71370270D01*
X118212011Y-71314336D01*
X118277475Y-71289919D01*
X118345748Y-71304770D01*
X118374003Y-71325922D01*
X118422424Y-71374343D01*
X118601785Y-71504657D01*
X118695114Y-71552210D01*
X118799319Y-71605306D01*
X118799321Y-71605306D01*
X118799324Y-71605308D01*
X119010176Y-71673818D01*
X119229149Y-71708500D01*
X119229150Y-71708500D01*
X119450850Y-71708500D01*
X119450851Y-71708500D01*
X119669824Y-71673818D01*
X119880676Y-71605308D01*
X120078215Y-71504657D01*
X120257576Y-71374343D01*
X120414343Y-71217576D01*
X120544657Y-71038215D01*
X120645308Y-70840676D01*
X120713818Y-70629824D01*
X120748500Y-70410851D01*
X120748500Y-70189149D01*
X120713818Y-69970176D01*
X120645308Y-69759324D01*
X120645306Y-69759321D01*
X120645306Y-69759319D01*
X120544656Y-69561784D01*
X120414343Y-69382424D01*
X120257576Y-69225657D01*
X120078215Y-69095343D01*
X119880680Y-68994693D01*
X119669824Y-68926182D01*
X119450851Y-68891500D01*
X119229149Y-68891500D01*
X119119662Y-68908841D01*
X119010175Y-68926182D01*
X118799319Y-68994693D01*
X118601784Y-69095343D01*
X118515675Y-69157906D01*
X118422424Y-69225657D01*
X118422422Y-69225659D01*
X118422420Y-69225660D01*
X118374002Y-69274078D01*
X118312679Y-69307562D01*
X118242987Y-69302577D01*
X118187054Y-69260705D01*
X118170140Y-69229729D01*
X118143354Y-69157913D01*
X118143350Y-69157906D01*
X118057190Y-69042812D01*
X118057187Y-69042809D01*
X117942093Y-68956649D01*
X117942086Y-68956645D01*
X117807379Y-68906403D01*
X117807372Y-68906401D01*
X117747844Y-68900000D01*
X117050000Y-68900000D01*
X117050000Y-69924722D01*
X116973694Y-69880667D01*
X116859244Y-69850000D01*
X116740756Y-69850000D01*
X116626306Y-69880667D01*
X116550000Y-69924722D01*
X116550000Y-68900000D01*
X115852155Y-68900000D01*
X115792627Y-68906401D01*
X115792620Y-68906403D01*
X115657913Y-68956645D01*
X115657906Y-68956649D01*
X115542812Y-69042809D01*
X115542809Y-69042812D01*
X115456649Y-69157906D01*
X115456645Y-69157913D01*
X115406403Y-69292620D01*
X115406401Y-69292627D01*
X115400000Y-69352155D01*
X84248775Y-69352155D01*
X84250318Y-68500183D01*
X84270124Y-68433181D01*
X84311906Y-68393261D01*
X88211428Y-66122019D01*
X106990761Y-66122019D01*
X106990761Y-66327980D01*
X107022980Y-66531408D01*
X107086628Y-66727294D01*
X107180134Y-66910806D01*
X107301187Y-67077423D01*
X107301191Y-67077428D01*
X107446832Y-67223069D01*
X107446837Y-67223073D01*
X107505655Y-67265806D01*
X107613458Y-67344129D01*
X107730389Y-67403709D01*
X107796966Y-67437632D01*
X107796968Y-67437632D01*
X107796971Y-67437634D01*
X107842090Y-67452294D01*
X107992852Y-67501280D01*
X108094566Y-67517390D01*
X108196280Y-67533500D01*
X108196281Y-67533500D01*
X108402241Y-67533500D01*
X108402242Y-67533500D01*
X108605669Y-67501280D01*
X108801551Y-67437634D01*
X108985064Y-67344129D01*
X109151691Y-67223068D01*
X109297329Y-67077430D01*
X109418390Y-66910803D01*
X109511895Y-66727290D01*
X109575541Y-66531408D01*
X109607761Y-66327981D01*
X109607761Y-66122019D01*
X109600742Y-66077705D01*
X109575541Y-65918591D01*
X109511893Y-65722705D01*
X109470516Y-65641500D01*
X109418390Y-65539197D01*
X109361483Y-65460871D01*
X109297334Y-65372576D01*
X109297330Y-65372571D01*
X109151689Y-65226930D01*
X109151684Y-65226926D01*
X108985067Y-65105873D01*
X108985066Y-65105872D01*
X108985064Y-65105871D01*
X108927757Y-65076671D01*
X108801555Y-65012367D01*
X108605669Y-64948719D01*
X108430055Y-64920905D01*
X108402242Y-64916500D01*
X108196280Y-64916500D01*
X108171811Y-64920375D01*
X107992852Y-64948719D01*
X107796966Y-65012367D01*
X107613454Y-65105873D01*
X107446837Y-65226926D01*
X107446832Y-65226930D01*
X107301191Y-65372571D01*
X107301187Y-65372576D01*
X107180134Y-65539193D01*
X107086628Y-65722705D01*
X107022980Y-65918591D01*
X106990761Y-66122019D01*
X88211428Y-66122019D01*
X97954902Y-60447019D01*
X116192977Y-60447019D01*
X116192977Y-60652980D01*
X116225196Y-60856408D01*
X116288844Y-61052294D01*
X116382350Y-61235806D01*
X116503403Y-61402423D01*
X116503407Y-61402428D01*
X116649048Y-61548069D01*
X116649053Y-61548073D01*
X116717873Y-61598073D01*
X116815674Y-61669129D01*
X116913798Y-61719126D01*
X116999182Y-61762632D01*
X116999184Y-61762632D01*
X116999187Y-61762634D01*
X117104184Y-61796749D01*
X117195068Y-61826280D01*
X117296782Y-61842390D01*
X117398496Y-61858500D01*
X117398497Y-61858500D01*
X117604457Y-61858500D01*
X117604458Y-61858500D01*
X117807885Y-61826280D01*
X118003767Y-61762634D01*
X118187280Y-61669129D01*
X118353907Y-61548068D01*
X118499545Y-61402430D01*
X118620606Y-61235803D01*
X118714111Y-61052290D01*
X118777757Y-60856408D01*
X118809977Y-60652981D01*
X118809977Y-60497019D01*
X143091500Y-60497019D01*
X143091500Y-60702980D01*
X143123719Y-60906408D01*
X143187367Y-61102294D01*
X143280873Y-61285806D01*
X143401926Y-61452423D01*
X143401930Y-61452428D01*
X143547571Y-61598069D01*
X143547576Y-61598073D01*
X143692908Y-61703661D01*
X143714197Y-61719129D01*
X143799580Y-61762634D01*
X143897705Y-61812632D01*
X143897707Y-61812632D01*
X143897710Y-61812634D01*
X144002707Y-61846749D01*
X144093591Y-61876280D01*
X144195305Y-61892390D01*
X144297019Y-61908500D01*
X144297020Y-61908500D01*
X144502980Y-61908500D01*
X144502981Y-61908500D01*
X144706408Y-61876280D01*
X144902290Y-61812634D01*
X145085803Y-61719129D01*
X145252430Y-61598068D01*
X145398068Y-61452430D01*
X145519129Y-61285803D01*
X145612634Y-61102290D01*
X145676280Y-60906408D01*
X145708500Y-60702981D01*
X145708500Y-60497019D01*
X145676280Y-60293592D01*
X145612634Y-60097710D01*
X145612632Y-60097707D01*
X145612632Y-60097705D01*
X145578709Y-60031128D01*
X145519129Y-59914197D01*
X145482799Y-59864193D01*
X145398073Y-59747576D01*
X145398069Y-59747571D01*
X145252428Y-59601930D01*
X145252423Y-59601926D01*
X145085806Y-59480873D01*
X145085805Y-59480872D01*
X145085803Y-59480871D01*
X145028496Y-59451671D01*
X144902294Y-59387367D01*
X144706408Y-59323719D01*
X144530794Y-59295905D01*
X144502981Y-59291500D01*
X144297019Y-59291500D01*
X144272550Y-59295375D01*
X144093591Y-59323719D01*
X143897705Y-59387367D01*
X143714193Y-59480873D01*
X143547576Y-59601926D01*
X143547571Y-59601930D01*
X143401930Y-59747571D01*
X143401926Y-59747576D01*
X143280873Y-59914193D01*
X143187367Y-60097705D01*
X143123719Y-60293591D01*
X143091500Y-60497019D01*
X118809977Y-60497019D01*
X118809977Y-60447019D01*
X118777757Y-60243592D01*
X118714111Y-60047710D01*
X118714109Y-60047707D01*
X118714109Y-60047705D01*
X118646080Y-59914193D01*
X118620606Y-59864197D01*
X118605138Y-59842908D01*
X118499550Y-59697576D01*
X118499546Y-59697571D01*
X118353905Y-59551930D01*
X118353900Y-59551926D01*
X118187283Y-59430873D01*
X118187282Y-59430872D01*
X118187280Y-59430871D01*
X118101897Y-59387366D01*
X118003771Y-59337367D01*
X117807885Y-59273719D01*
X117632271Y-59245905D01*
X117604458Y-59241500D01*
X117398496Y-59241500D01*
X117374027Y-59245375D01*
X117195068Y-59273719D01*
X116999182Y-59337367D01*
X116815670Y-59430873D01*
X116649053Y-59551926D01*
X116649048Y-59551930D01*
X116503407Y-59697571D01*
X116503403Y-59697576D01*
X116382350Y-59864193D01*
X116288844Y-60047705D01*
X116225196Y-60243591D01*
X116192977Y-60447019D01*
X97954902Y-60447019D01*
X108857292Y-54097019D01*
X127191500Y-54097019D01*
X127191500Y-54302980D01*
X127223719Y-54506408D01*
X127287367Y-54702294D01*
X127380873Y-54885806D01*
X127501926Y-55052423D01*
X127501930Y-55052428D01*
X127647571Y-55198069D01*
X127647576Y-55198073D01*
X127716396Y-55248073D01*
X127814197Y-55319129D01*
X127912321Y-55369126D01*
X127997705Y-55412632D01*
X127997707Y-55412632D01*
X127997710Y-55412634D01*
X128102707Y-55446749D01*
X128193591Y-55476280D01*
X128295305Y-55492390D01*
X128397019Y-55508500D01*
X128397020Y-55508500D01*
X128602980Y-55508500D01*
X128602981Y-55508500D01*
X128806408Y-55476280D01*
X129002290Y-55412634D01*
X129185803Y-55319129D01*
X129352430Y-55198068D01*
X129498068Y-55052430D01*
X129619129Y-54885803D01*
X129712634Y-54702290D01*
X129776280Y-54506408D01*
X129808500Y-54302981D01*
X129808500Y-54147019D01*
X132092977Y-54147019D01*
X132092977Y-54352980D01*
X132125196Y-54556408D01*
X132188844Y-54752294D01*
X132282350Y-54935806D01*
X132403403Y-55102423D01*
X132403407Y-55102428D01*
X132549048Y-55248069D01*
X132549053Y-55248073D01*
X132694385Y-55353661D01*
X132715674Y-55369129D01*
X132801057Y-55412634D01*
X132899182Y-55462632D01*
X132899184Y-55462632D01*
X132899187Y-55462634D01*
X133004184Y-55496749D01*
X133095068Y-55526280D01*
X133196782Y-55542390D01*
X133298496Y-55558500D01*
X133298497Y-55558500D01*
X133504457Y-55558500D01*
X133504458Y-55558500D01*
X133707885Y-55526280D01*
X133903767Y-55462634D01*
X134087280Y-55369129D01*
X134253907Y-55248068D01*
X134399545Y-55102430D01*
X134520606Y-54935803D01*
X134614111Y-54752290D01*
X134677757Y-54556408D01*
X134709977Y-54352981D01*
X134709977Y-54147019D01*
X134677757Y-53943592D01*
X134614111Y-53747710D01*
X134614109Y-53747707D01*
X134614109Y-53747705D01*
X134580186Y-53681128D01*
X134520606Y-53564197D01*
X134484276Y-53514193D01*
X134399550Y-53397576D01*
X134399546Y-53397571D01*
X134253905Y-53251930D01*
X134253900Y-53251926D01*
X134087283Y-53130873D01*
X134087282Y-53130872D01*
X134087280Y-53130871D01*
X134029973Y-53101671D01*
X133903771Y-53037367D01*
X133707885Y-52973719D01*
X133532271Y-52945905D01*
X133504458Y-52941500D01*
X133298496Y-52941500D01*
X133274027Y-52945375D01*
X133095068Y-52973719D01*
X132899182Y-53037367D01*
X132715670Y-53130873D01*
X132549053Y-53251926D01*
X132549048Y-53251930D01*
X132403407Y-53397571D01*
X132403403Y-53397576D01*
X132282350Y-53564193D01*
X132188844Y-53747705D01*
X132125196Y-53943591D01*
X132092977Y-54147019D01*
X129808500Y-54147019D01*
X129808500Y-54097019D01*
X129776280Y-53893592D01*
X129712634Y-53697710D01*
X129712632Y-53697707D01*
X129712632Y-53697705D01*
X129644603Y-53564193D01*
X129619129Y-53514197D01*
X129603661Y-53492908D01*
X129498073Y-53347576D01*
X129498069Y-53347571D01*
X129352428Y-53201930D01*
X129352423Y-53201926D01*
X129185806Y-53080873D01*
X129185805Y-53080872D01*
X129185803Y-53080871D01*
X129100420Y-53037366D01*
X129002294Y-52987367D01*
X128806408Y-52923719D01*
X128630794Y-52895905D01*
X128602981Y-52891500D01*
X128397019Y-52891500D01*
X128372550Y-52895375D01*
X128193591Y-52923719D01*
X127997705Y-52987367D01*
X127814193Y-53080873D01*
X127647576Y-53201926D01*
X127647571Y-53201930D01*
X127501930Y-53347571D01*
X127501926Y-53347576D01*
X127380873Y-53514193D01*
X127287367Y-53697705D01*
X127223719Y-53893591D01*
X127191500Y-54097019D01*
X108857292Y-54097019D01*
X121960476Y-46465186D01*
X128399500Y-46465186D01*
X128399500Y-46734813D01*
X128429686Y-47002719D01*
X128429688Y-47002731D01*
X128489684Y-47265594D01*
X128489687Y-47265602D01*
X128578734Y-47520082D01*
X128695714Y-47762994D01*
X128695716Y-47762997D01*
X128839162Y-47991289D01*
X129007266Y-48202085D01*
X129197915Y-48392734D01*
X129408711Y-48560838D01*
X129637003Y-48704284D01*
X129879921Y-48821267D01*
X130071049Y-48888145D01*
X130134397Y-48910312D01*
X130134405Y-48910315D01*
X130134408Y-48910315D01*
X130134409Y-48910316D01*
X130397268Y-48970312D01*
X130665187Y-49000499D01*
X130665188Y-49000500D01*
X130665191Y-49000500D01*
X130934812Y-49000500D01*
X130934812Y-49000499D01*
X131202732Y-48970312D01*
X131465591Y-48910316D01*
X131720079Y-48821267D01*
X131962997Y-48704284D01*
X132191289Y-48560838D01*
X132402085Y-48392734D01*
X132592734Y-48202085D01*
X132760838Y-47991289D01*
X132904284Y-47762997D01*
X133021267Y-47520079D01*
X133110316Y-47265591D01*
X133170312Y-47002732D01*
X133200500Y-46734809D01*
X133200500Y-46465191D01*
X133170312Y-46197268D01*
X133110316Y-45934409D01*
X133021267Y-45679921D01*
X132904284Y-45437003D01*
X132760838Y-45208711D01*
X132592734Y-44997915D01*
X132402085Y-44807266D01*
X132191289Y-44639162D01*
X131962997Y-44495716D01*
X131962994Y-44495714D01*
X131720082Y-44378734D01*
X131465602Y-44289687D01*
X131465594Y-44289684D01*
X131268446Y-44244687D01*
X131202732Y-44229688D01*
X131202728Y-44229687D01*
X131202719Y-44229686D01*
X130934813Y-44199500D01*
X130934809Y-44199500D01*
X130665191Y-44199500D01*
X130665186Y-44199500D01*
X130397280Y-44229686D01*
X130397268Y-44229688D01*
X130134405Y-44289684D01*
X130134397Y-44289687D01*
X129879917Y-44378734D01*
X129637005Y-44495714D01*
X129408712Y-44639161D01*
X129197915Y-44807265D01*
X129007265Y-44997915D01*
X128839161Y-45208712D01*
X128695714Y-45437005D01*
X128578734Y-45679917D01*
X128489687Y-45934397D01*
X128489684Y-45934405D01*
X128429688Y-46197268D01*
X128429686Y-46197280D01*
X128399500Y-46465186D01*
X121960476Y-46465186D01*
X130837362Y-41294923D01*
X130905198Y-41278193D01*
X130962421Y-41295065D01*
G37*
G04 #@! TD.AperFunction*
M02*
