G04 #@! TF.GenerationSoftware,KiCad,Pcbnew,7.0.7*
G04 #@! TF.CreationDate,2023-12-08T11:24:34-06:00*
G04 #@! TF.ProjectId,airplane-keychain,61697270-6c61-46e6-952d-6b6579636861,1*
G04 #@! TF.SameCoordinates,Original*
G04 #@! TF.FileFunction,Legend,Bot*
G04 #@! TF.FilePolarity,Positive*
%FSLAX46Y46*%
G04 Gerber Fmt 4.6, Leading zero omitted, Abs format (unit mm)*
G04 Created by KiCad (PCBNEW 7.0.7) date 2023-12-08 11:24:34*
%MOMM*%
%LPD*%
G01*
G04 APERTURE LIST*
G04 Aperture macros list*
%AMHorizOval*
0 Thick line with rounded ends*
0 $1 width*
0 $2 $3 position (X,Y) of the first rounded end (center of the circle)*
0 $4 $5 position (X,Y) of the second rounded end (center of the circle)*
0 Add line between two ends*
20,1,$1,$2,$3,$4,$5,0*
0 Add two circle primitives to create the rounded ends*
1,1,$1,$2,$3*
1,1,$1,$4,$5*%
G04 Aperture macros list end*
%ADD10C,0.150000*%
%ADD11C,0.120000*%
%ADD12C,4.300000*%
%ADD13R,1.800000X1.800000*%
%ADD14C,1.800000*%
%ADD15C,1.600000*%
%ADD16HorizOval,1.600000X0.000000X0.000000X0.000000X0.000000X0*%
%ADD17HorizOval,1.600000X0.000000X0.000000X0.000000X0.000000X0*%
%ADD18O,1.600000X1.600000*%
%ADD19HorizOval,1.600000X0.000000X0.000000X0.000000X0.000000X0*%
%ADD20C,2.000000*%
%ADD21R,1.600000X1.600000*%
%ADD22HorizOval,1.600000X0.000000X0.000000X0.000000X0.000000X0*%
%ADD23R,2.540000X3.510000*%
G04 APERTURE END LIST*
D10*
X135463220Y-95859819D02*
X135463220Y-94859819D01*
X135034649Y-95812200D02*
X134891792Y-95859819D01*
X134891792Y-95859819D02*
X134653697Y-95859819D01*
X134653697Y-95859819D02*
X134558459Y-95812200D01*
X134558459Y-95812200D02*
X134510840Y-95764580D01*
X134510840Y-95764580D02*
X134463221Y-95669342D01*
X134463221Y-95669342D02*
X134463221Y-95574104D01*
X134463221Y-95574104D02*
X134510840Y-95478866D01*
X134510840Y-95478866D02*
X134558459Y-95431247D01*
X134558459Y-95431247D02*
X134653697Y-95383628D01*
X134653697Y-95383628D02*
X134844173Y-95336009D01*
X134844173Y-95336009D02*
X134939411Y-95288390D01*
X134939411Y-95288390D02*
X134987030Y-95240771D01*
X134987030Y-95240771D02*
X135034649Y-95145533D01*
X135034649Y-95145533D02*
X135034649Y-95050295D01*
X135034649Y-95050295D02*
X134987030Y-94955057D01*
X134987030Y-94955057D02*
X134939411Y-94907438D01*
X134939411Y-94907438D02*
X134844173Y-94859819D01*
X134844173Y-94859819D02*
X134606078Y-94859819D01*
X134606078Y-94859819D02*
X134463221Y-94907438D01*
X133510840Y-94907438D02*
X133606078Y-94859819D01*
X133606078Y-94859819D02*
X133748935Y-94859819D01*
X133748935Y-94859819D02*
X133891792Y-94907438D01*
X133891792Y-94907438D02*
X133987030Y-95002676D01*
X133987030Y-95002676D02*
X134034649Y-95097914D01*
X134034649Y-95097914D02*
X134082268Y-95288390D01*
X134082268Y-95288390D02*
X134082268Y-95431247D01*
X134082268Y-95431247D02*
X134034649Y-95621723D01*
X134034649Y-95621723D02*
X133987030Y-95716961D01*
X133987030Y-95716961D02*
X133891792Y-95812200D01*
X133891792Y-95812200D02*
X133748935Y-95859819D01*
X133748935Y-95859819D02*
X133653697Y-95859819D01*
X133653697Y-95859819D02*
X133510840Y-95812200D01*
X133510840Y-95812200D02*
X133463221Y-95764580D01*
X133463221Y-95764580D02*
X133463221Y-95431247D01*
X133463221Y-95431247D02*
X133653697Y-95431247D01*
X132463221Y-95764580D02*
X132510840Y-95812200D01*
X132510840Y-95812200D02*
X132653697Y-95859819D01*
X132653697Y-95859819D02*
X132748935Y-95859819D01*
X132748935Y-95859819D02*
X132891792Y-95812200D01*
X132891792Y-95812200D02*
X132987030Y-95716961D01*
X132987030Y-95716961D02*
X133034649Y-95621723D01*
X133034649Y-95621723D02*
X133082268Y-95431247D01*
X133082268Y-95431247D02*
X133082268Y-95288390D01*
X133082268Y-95288390D02*
X133034649Y-95097914D01*
X133034649Y-95097914D02*
X132987030Y-95002676D01*
X132987030Y-95002676D02*
X132891792Y-94907438D01*
X132891792Y-94907438D02*
X132748935Y-94859819D01*
X132748935Y-94859819D02*
X132653697Y-94859819D01*
X132653697Y-94859819D02*
X132510840Y-94907438D01*
X132510840Y-94907438D02*
X132463221Y-94955057D01*
X130939411Y-95336009D02*
X130796554Y-95383628D01*
X130796554Y-95383628D02*
X130748935Y-95431247D01*
X130748935Y-95431247D02*
X130701316Y-95526485D01*
X130701316Y-95526485D02*
X130701316Y-95669342D01*
X130701316Y-95669342D02*
X130748935Y-95764580D01*
X130748935Y-95764580D02*
X130796554Y-95812200D01*
X130796554Y-95812200D02*
X130891792Y-95859819D01*
X130891792Y-95859819D02*
X131272744Y-95859819D01*
X131272744Y-95859819D02*
X131272744Y-94859819D01*
X131272744Y-94859819D02*
X130939411Y-94859819D01*
X130939411Y-94859819D02*
X130844173Y-94907438D01*
X130844173Y-94907438D02*
X130796554Y-94955057D01*
X130796554Y-94955057D02*
X130748935Y-95050295D01*
X130748935Y-95050295D02*
X130748935Y-95145533D01*
X130748935Y-95145533D02*
X130796554Y-95240771D01*
X130796554Y-95240771D02*
X130844173Y-95288390D01*
X130844173Y-95288390D02*
X130939411Y-95336009D01*
X130939411Y-95336009D02*
X131272744Y-95336009D01*
X129844173Y-95859819D02*
X129844173Y-95336009D01*
X129844173Y-95336009D02*
X129891792Y-95240771D01*
X129891792Y-95240771D02*
X129987030Y-95193152D01*
X129987030Y-95193152D02*
X130177506Y-95193152D01*
X130177506Y-95193152D02*
X130272744Y-95240771D01*
X129844173Y-95812200D02*
X129939411Y-95859819D01*
X129939411Y-95859819D02*
X130177506Y-95859819D01*
X130177506Y-95859819D02*
X130272744Y-95812200D01*
X130272744Y-95812200D02*
X130320363Y-95716961D01*
X130320363Y-95716961D02*
X130320363Y-95621723D01*
X130320363Y-95621723D02*
X130272744Y-95526485D01*
X130272744Y-95526485D02*
X130177506Y-95478866D01*
X130177506Y-95478866D02*
X129939411Y-95478866D01*
X129939411Y-95478866D02*
X129844173Y-95431247D01*
X128939411Y-95859819D02*
X128939411Y-94859819D01*
X128939411Y-95812200D02*
X129034649Y-95859819D01*
X129034649Y-95859819D02*
X129225125Y-95859819D01*
X129225125Y-95859819D02*
X129320363Y-95812200D01*
X129320363Y-95812200D02*
X129367982Y-95764580D01*
X129367982Y-95764580D02*
X129415601Y-95669342D01*
X129415601Y-95669342D02*
X129415601Y-95383628D01*
X129415601Y-95383628D02*
X129367982Y-95288390D01*
X129367982Y-95288390D02*
X129320363Y-95240771D01*
X129320363Y-95240771D02*
X129225125Y-95193152D01*
X129225125Y-95193152D02*
X129034649Y-95193152D01*
X129034649Y-95193152D02*
X128939411Y-95240771D01*
X128034649Y-95193152D02*
X128034649Y-96002676D01*
X128034649Y-96002676D02*
X128082268Y-96097914D01*
X128082268Y-96097914D02*
X128129887Y-96145533D01*
X128129887Y-96145533D02*
X128225125Y-96193152D01*
X128225125Y-96193152D02*
X128367982Y-96193152D01*
X128367982Y-96193152D02*
X128463220Y-96145533D01*
X128034649Y-95812200D02*
X128129887Y-95859819D01*
X128129887Y-95859819D02*
X128320363Y-95859819D01*
X128320363Y-95859819D02*
X128415601Y-95812200D01*
X128415601Y-95812200D02*
X128463220Y-95764580D01*
X128463220Y-95764580D02*
X128510839Y-95669342D01*
X128510839Y-95669342D02*
X128510839Y-95383628D01*
X128510839Y-95383628D02*
X128463220Y-95288390D01*
X128463220Y-95288390D02*
X128415601Y-95240771D01*
X128415601Y-95240771D02*
X128320363Y-95193152D01*
X128320363Y-95193152D02*
X128129887Y-95193152D01*
X128129887Y-95193152D02*
X128034649Y-95240771D01*
X127177506Y-95812200D02*
X127272744Y-95859819D01*
X127272744Y-95859819D02*
X127463220Y-95859819D01*
X127463220Y-95859819D02*
X127558458Y-95812200D01*
X127558458Y-95812200D02*
X127606077Y-95716961D01*
X127606077Y-95716961D02*
X127606077Y-95336009D01*
X127606077Y-95336009D02*
X127558458Y-95240771D01*
X127558458Y-95240771D02*
X127463220Y-95193152D01*
X127463220Y-95193152D02*
X127272744Y-95193152D01*
X127272744Y-95193152D02*
X127177506Y-95240771D01*
X127177506Y-95240771D02*
X127129887Y-95336009D01*
X127129887Y-95336009D02*
X127129887Y-95431247D01*
X127129887Y-95431247D02*
X127606077Y-95526485D01*
X125367982Y-95859819D02*
X125701315Y-95383628D01*
X125939410Y-95859819D02*
X125939410Y-94859819D01*
X125939410Y-94859819D02*
X125558458Y-94859819D01*
X125558458Y-94859819D02*
X125463220Y-94907438D01*
X125463220Y-94907438D02*
X125415601Y-94955057D01*
X125415601Y-94955057D02*
X125367982Y-95050295D01*
X125367982Y-95050295D02*
X125367982Y-95193152D01*
X125367982Y-95193152D02*
X125415601Y-95288390D01*
X125415601Y-95288390D02*
X125463220Y-95336009D01*
X125463220Y-95336009D02*
X125558458Y-95383628D01*
X125558458Y-95383628D02*
X125939410Y-95383628D01*
X124558458Y-95812200D02*
X124653696Y-95859819D01*
X124653696Y-95859819D02*
X124844172Y-95859819D01*
X124844172Y-95859819D02*
X124939410Y-95812200D01*
X124939410Y-95812200D02*
X124987029Y-95716961D01*
X124987029Y-95716961D02*
X124987029Y-95336009D01*
X124987029Y-95336009D02*
X124939410Y-95240771D01*
X124939410Y-95240771D02*
X124844172Y-95193152D01*
X124844172Y-95193152D02*
X124653696Y-95193152D01*
X124653696Y-95193152D02*
X124558458Y-95240771D01*
X124558458Y-95240771D02*
X124510839Y-95336009D01*
X124510839Y-95336009D02*
X124510839Y-95431247D01*
X124510839Y-95431247D02*
X124987029Y-95526485D01*
X124177505Y-95193152D02*
X123939410Y-95859819D01*
X123939410Y-95859819D02*
X123701315Y-95193152D01*
X122606076Y-95574104D02*
X122129886Y-95574104D01*
X122701314Y-95859819D02*
X122367981Y-94859819D01*
X122367981Y-94859819D02*
X122034648Y-95859819D01*
X135463220Y-97469819D02*
X135463220Y-96469819D01*
X135463220Y-96469819D02*
X135129887Y-97184104D01*
X135129887Y-97184104D02*
X134796554Y-96469819D01*
X134796554Y-96469819D02*
X134796554Y-97469819D01*
X133891792Y-97469819D02*
X133891792Y-96946009D01*
X133891792Y-96946009D02*
X133939411Y-96850771D01*
X133939411Y-96850771D02*
X134034649Y-96803152D01*
X134034649Y-96803152D02*
X134225125Y-96803152D01*
X134225125Y-96803152D02*
X134320363Y-96850771D01*
X133891792Y-97422200D02*
X133987030Y-97469819D01*
X133987030Y-97469819D02*
X134225125Y-97469819D01*
X134225125Y-97469819D02*
X134320363Y-97422200D01*
X134320363Y-97422200D02*
X134367982Y-97326961D01*
X134367982Y-97326961D02*
X134367982Y-97231723D01*
X134367982Y-97231723D02*
X134320363Y-97136485D01*
X134320363Y-97136485D02*
X134225125Y-97088866D01*
X134225125Y-97088866D02*
X133987030Y-97088866D01*
X133987030Y-97088866D02*
X133891792Y-97041247D01*
X133558458Y-96803152D02*
X133177506Y-96803152D01*
X133415601Y-96469819D02*
X133415601Y-97326961D01*
X133415601Y-97326961D02*
X133367982Y-97422200D01*
X133367982Y-97422200D02*
X133272744Y-97469819D01*
X133272744Y-97469819D02*
X133177506Y-97469819D01*
X132987029Y-96803152D02*
X132606077Y-96803152D01*
X132844172Y-96469819D02*
X132844172Y-97326961D01*
X132844172Y-97326961D02*
X132796553Y-97422200D01*
X132796553Y-97422200D02*
X132701315Y-97469819D01*
X132701315Y-97469819D02*
X132606077Y-97469819D01*
X132272743Y-97469819D02*
X132272743Y-96469819D01*
X131844172Y-97469819D02*
X131844172Y-96946009D01*
X131844172Y-96946009D02*
X131891791Y-96850771D01*
X131891791Y-96850771D02*
X131987029Y-96803152D01*
X131987029Y-96803152D02*
X132129886Y-96803152D01*
X132129886Y-96803152D02*
X132225124Y-96850771D01*
X132225124Y-96850771D02*
X132272743Y-96898390D01*
X130987029Y-97422200D02*
X131082267Y-97469819D01*
X131082267Y-97469819D02*
X131272743Y-97469819D01*
X131272743Y-97469819D02*
X131367981Y-97422200D01*
X131367981Y-97422200D02*
X131415600Y-97326961D01*
X131415600Y-97326961D02*
X131415600Y-96946009D01*
X131415600Y-96946009D02*
X131367981Y-96850771D01*
X131367981Y-96850771D02*
X131272743Y-96803152D01*
X131272743Y-96803152D02*
X131082267Y-96803152D01*
X131082267Y-96803152D02*
X130987029Y-96850771D01*
X130987029Y-96850771D02*
X130939410Y-96946009D01*
X130939410Y-96946009D02*
X130939410Y-97041247D01*
X130939410Y-97041247D02*
X131415600Y-97136485D01*
X130606076Y-96803152D02*
X130415600Y-97469819D01*
X130415600Y-97469819D02*
X130225124Y-96993628D01*
X130225124Y-96993628D02*
X130034648Y-97469819D01*
X130034648Y-97469819D02*
X129844172Y-96803152D01*
X128701314Y-96946009D02*
X128367981Y-96946009D01*
X128225124Y-97469819D02*
X128701314Y-97469819D01*
X128701314Y-97469819D02*
X128701314Y-96469819D01*
X128701314Y-96469819D02*
X128225124Y-96469819D01*
X127796552Y-97374580D02*
X127748933Y-97422200D01*
X127748933Y-97422200D02*
X127796552Y-97469819D01*
X127796552Y-97469819D02*
X127844171Y-97422200D01*
X127844171Y-97422200D02*
X127796552Y-97374580D01*
X127796552Y-97374580D02*
X127796552Y-97469819D01*
X126558457Y-97469819D02*
X126558457Y-96469819D01*
X126558457Y-96469819D02*
X125987029Y-97469819D01*
X125987029Y-97469819D02*
X125987029Y-96469819D01*
X125129886Y-97422200D02*
X125225124Y-97469819D01*
X125225124Y-97469819D02*
X125415600Y-97469819D01*
X125415600Y-97469819D02*
X125510838Y-97422200D01*
X125510838Y-97422200D02*
X125558457Y-97326961D01*
X125558457Y-97326961D02*
X125558457Y-96946009D01*
X125558457Y-96946009D02*
X125510838Y-96850771D01*
X125510838Y-96850771D02*
X125415600Y-96803152D01*
X125415600Y-96803152D02*
X125225124Y-96803152D01*
X125225124Y-96803152D02*
X125129886Y-96850771D01*
X125129886Y-96850771D02*
X125082267Y-96946009D01*
X125082267Y-96946009D02*
X125082267Y-97041247D01*
X125082267Y-97041247D02*
X125558457Y-97136485D01*
X124510838Y-97469819D02*
X124606076Y-97422200D01*
X124606076Y-97422200D02*
X124653695Y-97326961D01*
X124653695Y-97326961D02*
X124653695Y-96469819D01*
X124177504Y-97422200D02*
X124082266Y-97469819D01*
X124082266Y-97469819D02*
X123891790Y-97469819D01*
X123891790Y-97469819D02*
X123796552Y-97422200D01*
X123796552Y-97422200D02*
X123748933Y-97326961D01*
X123748933Y-97326961D02*
X123748933Y-97279342D01*
X123748933Y-97279342D02*
X123796552Y-97184104D01*
X123796552Y-97184104D02*
X123891790Y-97136485D01*
X123891790Y-97136485D02*
X124034647Y-97136485D01*
X124034647Y-97136485D02*
X124129885Y-97088866D01*
X124129885Y-97088866D02*
X124177504Y-96993628D01*
X124177504Y-96993628D02*
X124177504Y-96946009D01*
X124177504Y-96946009D02*
X124129885Y-96850771D01*
X124129885Y-96850771D02*
X124034647Y-96803152D01*
X124034647Y-96803152D02*
X123891790Y-96803152D01*
X123891790Y-96803152D02*
X123796552Y-96850771D01*
X123177504Y-97469819D02*
X123272742Y-97422200D01*
X123272742Y-97422200D02*
X123320361Y-97374580D01*
X123320361Y-97374580D02*
X123367980Y-97279342D01*
X123367980Y-97279342D02*
X123367980Y-96993628D01*
X123367980Y-96993628D02*
X123320361Y-96898390D01*
X123320361Y-96898390D02*
X123272742Y-96850771D01*
X123272742Y-96850771D02*
X123177504Y-96803152D01*
X123177504Y-96803152D02*
X123034647Y-96803152D01*
X123034647Y-96803152D02*
X122939409Y-96850771D01*
X122939409Y-96850771D02*
X122891790Y-96898390D01*
X122891790Y-96898390D02*
X122844171Y-96993628D01*
X122844171Y-96993628D02*
X122844171Y-97279342D01*
X122844171Y-97279342D02*
X122891790Y-97374580D01*
X122891790Y-97374580D02*
X122939409Y-97422200D01*
X122939409Y-97422200D02*
X123034647Y-97469819D01*
X123034647Y-97469819D02*
X123177504Y-97469819D01*
X122415599Y-96803152D02*
X122415599Y-97469819D01*
X122415599Y-96898390D02*
X122367980Y-96850771D01*
X122367980Y-96850771D02*
X122272742Y-96803152D01*
X122272742Y-96803152D02*
X122129885Y-96803152D01*
X122129885Y-96803152D02*
X122034647Y-96850771D01*
X122034647Y-96850771D02*
X121987028Y-96946009D01*
X121987028Y-96946009D02*
X121987028Y-97469819D01*
X131205714Y-93351009D02*
X131062857Y-93398628D01*
X131062857Y-93398628D02*
X131015238Y-93446247D01*
X131015238Y-93446247D02*
X130967619Y-93541485D01*
X130967619Y-93541485D02*
X130967619Y-93684342D01*
X130967619Y-93684342D02*
X131015238Y-93779580D01*
X131015238Y-93779580D02*
X131062857Y-93827200D01*
X131062857Y-93827200D02*
X131158095Y-93874819D01*
X131158095Y-93874819D02*
X131539047Y-93874819D01*
X131539047Y-93874819D02*
X131539047Y-92874819D01*
X131539047Y-92874819D02*
X131205714Y-92874819D01*
X131205714Y-92874819D02*
X131110476Y-92922438D01*
X131110476Y-92922438D02*
X131062857Y-92970057D01*
X131062857Y-92970057D02*
X131015238Y-93065295D01*
X131015238Y-93065295D02*
X131015238Y-93160533D01*
X131015238Y-93160533D02*
X131062857Y-93255771D01*
X131062857Y-93255771D02*
X131110476Y-93303390D01*
X131110476Y-93303390D02*
X131205714Y-93351009D01*
X131205714Y-93351009D02*
X131539047Y-93351009D01*
X130681904Y-92874819D02*
X130110476Y-92874819D01*
X130396190Y-93874819D02*
X130396190Y-92874819D01*
X129253333Y-93874819D02*
X129824761Y-93874819D01*
X129539047Y-93874819D02*
X129539047Y-92874819D01*
X129539047Y-92874819D02*
X129634285Y-93017676D01*
X129634285Y-93017676D02*
X129729523Y-93112914D01*
X129729523Y-93112914D02*
X129824761Y-93160533D01*
X131605714Y-117851009D02*
X131462857Y-117898628D01*
X131462857Y-117898628D02*
X131415238Y-117946247D01*
X131415238Y-117946247D02*
X131367619Y-118041485D01*
X131367619Y-118041485D02*
X131367619Y-118184342D01*
X131367619Y-118184342D02*
X131415238Y-118279580D01*
X131415238Y-118279580D02*
X131462857Y-118327200D01*
X131462857Y-118327200D02*
X131558095Y-118374819D01*
X131558095Y-118374819D02*
X131939047Y-118374819D01*
X131939047Y-118374819D02*
X131939047Y-117374819D01*
X131939047Y-117374819D02*
X131605714Y-117374819D01*
X131605714Y-117374819D02*
X131510476Y-117422438D01*
X131510476Y-117422438D02*
X131462857Y-117470057D01*
X131462857Y-117470057D02*
X131415238Y-117565295D01*
X131415238Y-117565295D02*
X131415238Y-117660533D01*
X131415238Y-117660533D02*
X131462857Y-117755771D01*
X131462857Y-117755771D02*
X131510476Y-117803390D01*
X131510476Y-117803390D02*
X131605714Y-117851009D01*
X131605714Y-117851009D02*
X131939047Y-117851009D01*
X131081904Y-117374819D02*
X130510476Y-117374819D01*
X130796190Y-118374819D02*
X130796190Y-117374819D01*
X130224761Y-117470057D02*
X130177142Y-117422438D01*
X130177142Y-117422438D02*
X130081904Y-117374819D01*
X130081904Y-117374819D02*
X129843809Y-117374819D01*
X129843809Y-117374819D02*
X129748571Y-117422438D01*
X129748571Y-117422438D02*
X129700952Y-117470057D01*
X129700952Y-117470057D02*
X129653333Y-117565295D01*
X129653333Y-117565295D02*
X129653333Y-117660533D01*
X129653333Y-117660533D02*
X129700952Y-117803390D01*
X129700952Y-117803390D02*
X130272380Y-118374819D01*
X130272380Y-118374819D02*
X129653333Y-118374819D01*
D11*
X144730000Y-87700000D02*
X144730000Y-89410000D01*
X144730000Y-83900000D02*
X144730000Y-82190000D01*
X144730000Y-82190000D02*
X141112000Y-82190000D01*
X141112000Y-89410000D02*
X144730000Y-89410000D01*
X138267300Y-77690000D02*
X122572700Y-77690000D01*
X134280000Y-93910000D02*
X138267300Y-93910000D01*
X132080000Y-91710000D02*
X134280000Y-93910000D01*
X128760000Y-91710000D02*
X132080000Y-91710000D01*
X128760000Y-91710000D02*
X126560000Y-93910000D01*
X122572700Y-93910000D02*
X126560000Y-93910000D01*
X119728000Y-82190000D02*
X116110000Y-82190000D01*
X116110000Y-89410000D02*
X119728000Y-89410000D01*
X116110000Y-87700000D02*
X116110000Y-89410000D01*
X116110000Y-83900000D02*
X116110000Y-82190000D01*
X138265371Y-93911789D02*
G75*
G03*
X141112000Y-89410000I-7845350J8111775D01*
G01*
X141111998Y-82190001D02*
G75*
G03*
X138265371Y-77688211I-10692018J-3610009D01*
G01*
X119728000Y-89410000D02*
G75*
G03*
X122574629Y-93911789I10692020J3610012D01*
G01*
X122574629Y-77688211D02*
G75*
G03*
X119728000Y-82190000I7845391J-8111801D01*
G01*
X145130000Y-112200000D02*
X145130000Y-113910000D01*
X145130000Y-108400000D02*
X145130000Y-106690000D01*
X145130000Y-106690000D02*
X141512000Y-106690000D01*
X141512000Y-113910000D02*
X145130000Y-113910000D01*
X138667300Y-102190000D02*
X122972700Y-102190000D01*
X134680000Y-118410000D02*
X138667300Y-118410000D01*
X132480000Y-116210000D02*
X134680000Y-118410000D01*
X129160000Y-116210000D02*
X132480000Y-116210000D01*
X129160000Y-116210000D02*
X126960000Y-118410000D01*
X122972700Y-118410000D02*
X126960000Y-118410000D01*
X120128000Y-106690000D02*
X116510000Y-106690000D01*
X116510000Y-113910000D02*
X120128000Y-113910000D01*
X116510000Y-112200000D02*
X116510000Y-113910000D01*
X116510000Y-108400000D02*
X116510000Y-106690000D01*
X138665371Y-118411789D02*
G75*
G03*
X141512000Y-113910000I-7845350J8111775D01*
G01*
X141511998Y-106690001D02*
G75*
G03*
X138665371Y-102188211I-10692018J-3610009D01*
G01*
X120128000Y-113910000D02*
G75*
G03*
X122974629Y-118411789I10692020J3610012D01*
G01*
X122974629Y-102188211D02*
G75*
G03*
X120128000Y-106690000I7845391J-8111801D01*
G01*
%LPC*%
D12*
X130800000Y-46600000D03*
D13*
X167800000Y-115000000D03*
D14*
X167800000Y-112460000D03*
D13*
X112550000Y-72200000D03*
D14*
X110010000Y-72200000D03*
D13*
X115200000Y-78200000D03*
D14*
X112660000Y-78200000D03*
D13*
X105800000Y-76100000D03*
D14*
X103260000Y-76100000D03*
D15*
X155401477Y-66950000D03*
D16*
X166400000Y-73300000D03*
D15*
X108299261Y-66225000D03*
D17*
X97300738Y-72575000D03*
D15*
X128500000Y-54200000D03*
D17*
X117501477Y-60550000D03*
D15*
X167000000Y-82300000D03*
D18*
X167000000Y-95000000D03*
D15*
X153100000Y-125500000D03*
D19*
X164098523Y-119150000D03*
D15*
X133401477Y-54250000D03*
D16*
X144400000Y-60600000D03*
D20*
X100300000Y-103800000D03*
X93800000Y-103800000D03*
X100300000Y-99300000D03*
X93800000Y-99300000D03*
D21*
X95600000Y-82180000D03*
D18*
X95600000Y-89800000D03*
D13*
X116800000Y-70300000D03*
D14*
X119340000Y-70300000D03*
D13*
X162500000Y-107600000D03*
D14*
X159960000Y-107600000D03*
D13*
X157000000Y-115840000D03*
D14*
X157000000Y-113300000D03*
D13*
X166160000Y-104300000D03*
D14*
X168700000Y-104300000D03*
D15*
X106498523Y-124050000D03*
D22*
X95500000Y-117700000D03*
D15*
X117201477Y-130450000D03*
D16*
X128200000Y-136800000D03*
D15*
X133800739Y-136675000D03*
D19*
X144799262Y-130325000D03*
D21*
X140580000Y-74200000D03*
D18*
X143120000Y-74200000D03*
X145660000Y-74200000D03*
X148200000Y-74200000D03*
X148200000Y-66580000D03*
X145660000Y-66580000D03*
X143120000Y-66580000D03*
X140580000Y-66580000D03*
D23*
X145100000Y-85800000D03*
X115740000Y-85800000D03*
X145500000Y-110300000D03*
X116140000Y-110300000D03*
%LPD*%
M02*
