%TF.GenerationSoftware,KiCad,Pcbnew,10.0.1*%
%TF.CreationDate,2026-04-23T14:45:30-05:00*%
%TF.ProjectId,airplane-keychain,61697270-6c61-46e6-952d-6b6579636861,1.5*%
%TF.SameCoordinates,Original*%
%TF.FileFunction,Copper,L1,Top*%
%TF.FilePolarity,Positive*%
%FSLAX46Y46*%
G04 Gerber Fmt 4.6, Leading zero omitted, Abs format (unit mm)*
G04 Created by KiCad (PCBNEW 10.0.1) date 2026-04-23 14:45:30*
%MOMM*%
%LPD*%
G01*
G04 APERTURE LIST*
G04 Aperture macros list*
%AMRoundRect*
0 Rectangle with rounded corners*
0 $1 Rounding radius*
0 $2 $3 $4 $5 $6 $7 $8 $9 X,Y pos of 4 corners*
0 Add a 4 corners polygon primitive as box body*
4,1,4,$2,$3,$4,$5,$6,$7,$8,$9,$2,$3,0*
0 Add four circle primitives for the rounded corners*
1,1,$1+$1,$2,$3*
1,1,$1+$1,$4,$5*
1,1,$1+$1,$6,$7*
1,1,$1+$1,$8,$9*
0 Add four rect primitives between the rounded corners*
20,1,$1+$1,$2,$3,$4,$5,0*
20,1,$1+$1,$4,$5,$6,$7,0*
20,1,$1+$1,$6,$7,$8,$9,0*
20,1,$1+$1,$8,$9,$2,$3,0*%
G04 Aperture macros list end*
%TA.AperFunction,SMDPad,CuDef*%
%ADD10RoundRect,0.250000X0.625000X-0.375000X0.625000X0.375000X-0.625000X0.375000X-0.625000X-0.375000X0*%
%TD*%
%TA.AperFunction,ComponentPad*%
%ADD11RoundRect,0.250000X0.550000X0.550000X-0.550000X0.550000X-0.550000X-0.550000X0.550000X-0.550000X0*%
%TD*%
%TA.AperFunction,ComponentPad*%
%ADD12C,1.600000*%
%TD*%
%TA.AperFunction,SMDPad,CuDef*%
%ADD13RoundRect,0.250000X-0.312500X-0.625000X0.312500X-0.625000X0.312500X0.625000X-0.312500X0.625000X0*%
%TD*%
%TA.AperFunction,SMDPad,CuDef*%
%ADD14RoundRect,0.250000X0.312500X0.625000X-0.312500X0.625000X-0.312500X-0.625000X0.312500X-0.625000X0*%
%TD*%
%TA.AperFunction,SMDPad,CuDef*%
%ADD15RoundRect,0.250000X-0.625000X0.375000X-0.625000X-0.375000X0.625000X-0.375000X0.625000X0.375000X0*%
%TD*%
%TA.AperFunction,SMDPad,CuDef*%
%ADD16RoundRect,0.250000X-0.375000X-0.625000X0.375000X-0.625000X0.375000X0.625000X-0.375000X0.625000X0*%
%TD*%
%TA.AperFunction,ViaPad*%
%ADD17C,0.600000*%
%TD*%
%TA.AperFunction,Conductor*%
%ADD18C,0.250000*%
%TD*%
G04 APERTURE END LIST*
D10*
%TO.P,D5,1,K*%
%TO.N,GND*%
X165100000Y-77300000D03*
%TO.P,D5,2,A*%
%TO.N,Net-(D5-A)*%
X165100000Y-74500000D03*
%TD*%
D11*
%TO.P,SW2,1,1*%
%TO.N,Net-(U1-VCC)*%
X154520000Y-65700000D03*
D12*
%TO.P,SW2,2,2*%
%TO.N,Net-(BT1-+)*%
X146900000Y-65700000D03*
%TD*%
D10*
%TO.P,D4,1,K*%
%TO.N,GND*%
X146700000Y-85000000D03*
%TO.P,D4,2,A*%
%TO.N,Net-(D4-A)*%
X146700000Y-82200000D03*
%TD*%
D13*
%TO.P,R2,1*%
%TO.N,Net-(U1-PB1)*%
X134775000Y-98700000D03*
%TO.P,R2,2*%
%TO.N,Net-(D2-A)*%
X137700000Y-98700000D03*
%TD*%
D11*
%TO.P,U1,1,~{RESET}/PB5*%
%TO.N,Net-(U1-~{RESET}{slash}PB5)*%
X139500000Y-71500000D03*
D12*
%TO.P,U1,2,XTAL1/PB3*%
%TO.N,Net-(U1-XTAL1{slash}PB3)*%
X139500000Y-68960000D03*
%TO.P,U1,3,XTAL2/PB4*%
%TO.N,Net-(U1-XTAL2{slash}PB4)*%
X139500000Y-66420000D03*
%TO.P,U1,4,GND*%
%TO.N,GND*%
X139500000Y-63880000D03*
%TO.P,U1,5,AREF/PB0*%
%TO.N,Net-(U1-AREF{slash}PB0)*%
X131880000Y-63880000D03*
%TO.P,U1,6,PB1*%
%TO.N,Net-(U1-PB1)*%
X131880000Y-66420000D03*
%TO.P,U1,7,PB2*%
%TO.N,Net-(U1-PB2)*%
X131880000Y-68960000D03*
%TO.P,U1,8,VCC*%
%TO.N,Net-(U1-VCC)*%
X131880000Y-71500000D03*
%TD*%
D13*
%TO.P,R1,1*%
%TO.N,Net-(U1-AREF{slash}PB0)*%
X128575000Y-98700000D03*
%TO.P,R1,2*%
%TO.N,Net-(D1-A)*%
X131500000Y-98700000D03*
%TD*%
D14*
%TO.P,R6,1*%
%TO.N,Net-(U1-VCC)*%
X144525000Y-61300000D03*
%TO.P,R6,2*%
%TO.N,Net-(U1-~{RESET}{slash}PB5)*%
X141600000Y-61300000D03*
%TD*%
D13*
%TO.P,R8,1*%
%TO.N,Net-(U1-XTAL2{slash}PB4)*%
X168200000Y-98700000D03*
%TO.P,R8,2*%
%TO.N,Net-(D6-A)*%
X171125000Y-98700000D03*
%TD*%
%TO.P,R7,1*%
%TO.N,Net-(U1-XTAL2{slash}PB4)*%
X161700000Y-98600000D03*
%TO.P,R7,2*%
%TO.N,Net-(D5-A)*%
X164625000Y-98600000D03*
%TD*%
%TO.P,R4,1*%
%TO.N,Net-(U1-XTAL1{slash}PB3)*%
X155375000Y-98700000D03*
%TO.P,R4,2*%
%TO.N,Net-(D4-A)*%
X158300000Y-98700000D03*
%TD*%
D15*
%TO.P,D3,1,K*%
%TO.N,GND*%
X146685000Y-74670000D03*
%TO.P,D3,2,A*%
%TO.N,Net-(D3-A)*%
X146685000Y-77470000D03*
%TD*%
D16*
%TO.P,D2,1,K*%
%TO.N,GND*%
X148300000Y-98700000D03*
%TO.P,D2,2,A*%
%TO.N,Net-(D2-A)*%
X151100000Y-98700000D03*
%TD*%
D10*
%TO.P,D6,1,K*%
%TO.N,GND*%
X165100000Y-85000000D03*
%TO.P,D6,2,A*%
%TO.N,Net-(D6-A)*%
X165100000Y-82200000D03*
%TD*%
D13*
%TO.P,R3,1*%
%TO.N,Net-(U1-PB2)*%
X141275000Y-98700000D03*
%TO.P,R3,2*%
%TO.N,Net-(D3-A)*%
X144200000Y-98700000D03*
%TD*%
D16*
%TO.P,D1,1,K*%
%TO.N,GND*%
X169200000Y-67600000D03*
%TO.P,D1,2,A*%
%TO.N,Net-(D1-A)*%
X172000000Y-67600000D03*
%TD*%
D17*
%TO.N,GND*%
X146700000Y-86600000D03*
X167900000Y-77700000D03*
X146800000Y-98700000D03*
X165100000Y-86400000D03*
%TO.N,Net-(BT1-+)*%
X143900000Y-65700000D03*
%TO.N,Net-(D3-A)*%
X148800000Y-77500000D03*
X144200000Y-88900000D03*
%TD*%
%TO.N,GND*%
D18*
X165100000Y-85000000D02*
X165100000Y-86400000D01*
X169200000Y-67600000D02*
X169200000Y-76400000D01*
X146685000Y-74670000D02*
X146685000Y-71065000D01*
X146685000Y-71065000D02*
X139500000Y-63880000D01*
X167500000Y-77300000D02*
X167900000Y-77700000D01*
X165100000Y-77300000D02*
X167500000Y-77300000D01*
X169200000Y-76400000D02*
X167900000Y-77700000D01*
X146700000Y-85000000D02*
X146700000Y-86600000D01*
X148300000Y-98700000D02*
X146800000Y-98700000D01*
%TO.N,Net-(D5-A)*%
X163899000Y-75701000D02*
X165100000Y-74500000D01*
X164625000Y-98600000D02*
X163899000Y-97874000D01*
X163899000Y-97874000D02*
X163899000Y-75701000D01*
%TO.N,Net-(U1-VCC)*%
X133006000Y-70374000D02*
X131880000Y-71500000D01*
X154520000Y-65700000D02*
X154520000Y-61420000D01*
X141041986Y-60099000D02*
X133006000Y-68134986D01*
X143324000Y-60099000D02*
X141041986Y-60099000D01*
X133006000Y-68134986D02*
X133006000Y-70374000D01*
X154520000Y-61420000D02*
X154400000Y-61300000D01*
X144525000Y-61300000D02*
X143324000Y-60099000D01*
X154400000Y-61300000D02*
X144525000Y-61300000D01*
%TO.N,Net-(BT1-+)*%
X146900000Y-65700000D02*
X143900000Y-65700000D01*
%TO.N,Net-(D4-A)*%
X158300000Y-93800000D02*
X146700000Y-82200000D01*
X158300000Y-98700000D02*
X158300000Y-93800000D01*
%TO.N,Net-(U1-PB1)*%
X130303000Y-94228000D02*
X134775000Y-98700000D01*
X131880000Y-66420000D02*
X130303000Y-67997000D01*
X130303000Y-67997000D02*
X130303000Y-94228000D01*
%TO.N,Net-(D2-A)*%
X138901000Y-99901000D02*
X149899000Y-99901000D01*
X137700000Y-98700000D02*
X138901000Y-99901000D01*
X149899000Y-99901000D02*
X151100000Y-98700000D01*
%TO.N,Net-(U1-~{RESET}{slash}PB5)*%
X141600000Y-61300000D02*
X140487595Y-61300000D01*
X138374000Y-70374000D02*
X139500000Y-71500000D01*
X138374000Y-63413595D02*
X138374000Y-70374000D01*
X140487595Y-61300000D02*
X138374000Y-63413595D01*
%TO.N,Net-(U1-XTAL1{slash}PB3)*%
X155375000Y-98700000D02*
X140626000Y-83951000D01*
X140626000Y-83951000D02*
X140626000Y-70086000D01*
X140626000Y-70086000D02*
X139500000Y-68960000D01*
%TO.N,Net-(U1-XTAL2{slash}PB4)*%
X161700000Y-94306514D02*
X141077000Y-73683514D01*
X162901000Y-99801000D02*
X167099000Y-99801000D01*
X167099000Y-99801000D02*
X168200000Y-98700000D01*
X161700000Y-98600000D02*
X161700000Y-94306514D01*
X161700000Y-98600000D02*
X162901000Y-99801000D01*
X141077000Y-73683514D02*
X141077000Y-67997000D01*
X141077000Y-67997000D02*
X139500000Y-66420000D01*
%TO.N,Net-(U1-AREF{slash}PB0)*%
X128575000Y-67185000D02*
X131880000Y-63880000D01*
X128575000Y-98700000D02*
X128575000Y-67185000D01*
%TO.N,Net-(U1-PB2)*%
X130754000Y-70086000D02*
X130754000Y-88179000D01*
X130754000Y-88179000D02*
X141275000Y-98700000D01*
X131880000Y-68960000D02*
X130754000Y-70086000D01*
%TO.N,Net-(D1-A)*%
X131500000Y-98700000D02*
X133500000Y-100700000D01*
X172013500Y-99570514D02*
X172013500Y-67613500D01*
X170884014Y-100700000D02*
X172013500Y-99570514D01*
X172013500Y-67613500D02*
X172000000Y-67600000D01*
X133500000Y-100700000D02*
X170884014Y-100700000D01*
%TO.N,Net-(D6-A)*%
X171125000Y-88225000D02*
X165100000Y-82200000D01*
X171125000Y-98700000D02*
X171125000Y-88225000D01*
%TO.N,Net-(D3-A)*%
X146685000Y-77470000D02*
X148770000Y-77470000D01*
X144200000Y-98700000D02*
X144200000Y-88900000D01*
X148770000Y-77470000D02*
X148800000Y-77500000D01*
%TD*%
M02*
