M48
; DRILL file {KiCad 9.0.0} date 2025-03-26T23:33:56-0500
; FORMAT={-:-/ absolute / inch / decimal}
; #@! TF.CreationDate,2025-03-26T23:33:56-05:00
; #@! TF.GenerationSoftware,Kicad,Pcbnew,9.0.0
; #@! TF.FileFunction,Plated,1,2,PTH
FMAT,2
INCH
; #@! TA.AperFunction,Plated,PTH,ComponentDrill
T1C0.0315
; #@! TA.AperFunction,Plated,PTH,ComponentDrill
T2C0.0354
%
G90
G05
T1
X3.7598Y-4.6339
X3.7638Y-3.2354
X3.7638Y-3.5354
X3.8307Y-2.8573
X3.9882Y-3.4882
X3.9882Y-3.9882
X4.1929Y-4.8839
X4.2638Y-2.6073
X4.6142Y-5.1358
X4.626Y-2.3839
X5.0472Y-5.3858
X5.0591Y-2.1339
X5.252Y-2.1358
X5.2677Y-5.3809
X5.5346Y-2.6213
X5.5346Y-2.9213
X5.6346Y-2.6213
X5.6346Y-2.9213
X5.685Y-2.3858
X5.7008Y-5.1309
X5.7346Y-2.6213
X5.7346Y-2.9213
X5.8346Y-2.6213
X5.8346Y-2.9213
X5.8835Y-5.025
X6.1182Y-2.6358
X6.3165Y-4.775
X6.5512Y-2.8858
X6.5748Y-3.2402
X6.5748Y-3.7402
T2
X4.0654Y-2.9961
X4.1654Y-2.9961
X4.3311Y-2.8425
X4.4311Y-2.8425
X4.4331Y-3.0748
X4.5331Y-3.0748
X4.5984Y-2.7677
X4.6984Y-2.7677
X4.749Y-2.9449
X4.849Y-2.9449
X6.1575Y-4.4183
X6.1575Y-4.5183
X6.2976Y-4.2362
X6.3976Y-4.2362
X6.5417Y-4.1063
X6.6063Y-4.4276
X6.6063Y-4.5276
X6.6417Y-4.1063
M30
