%TF.GenerationSoftware,KiCad,Pcbnew,10.0.1*%
%TF.CreationDate,2026-04-23T14:45:30-05:00*%
%TF.ProjectId,airplane-keychain,61697270-6c61-46e6-952d-6b6579636861,1.5*%
%TF.SameCoordinates,Original*%
%TF.FileFunction,Legend,Bot*%
%TF.FilePolarity,Positive*%
%FSLAX46Y46*%
G04 Gerber Fmt 4.6, Leading zero omitted, Abs format (unit mm)*
G04 Created by KiCad (PCBNEW 10.0.1) date 2026-04-23 14:45:30*
%MOMM*%
%LPD*%
G01*
G04 APERTURE LIST*
%ADD10C,0.300000*%
%ADD11C,0.150000*%
%ADD12C,0.120000*%
%ADD13C,0.000000*%
G04 APERTURE END LIST*
D10*
X155645489Y-62300828D02*
X155645489Y-60800828D01*
X154788346Y-62300828D02*
X155431203Y-61443685D01*
X154788346Y-60800828D02*
X155645489Y-61657971D01*
X153502632Y-62300828D02*
X153502632Y-61515114D01*
X153502632Y-61515114D02*
X153574060Y-61372257D01*
X153574060Y-61372257D02*
X153716917Y-61300828D01*
X153716917Y-61300828D02*
X154002632Y-61300828D01*
X154002632Y-61300828D02*
X154145489Y-61372257D01*
X153502632Y-62229400D02*
X153645489Y-62300828D01*
X153645489Y-62300828D02*
X154002632Y-62300828D01*
X154002632Y-62300828D02*
X154145489Y-62229400D01*
X154145489Y-62229400D02*
X154216917Y-62086542D01*
X154216917Y-62086542D02*
X154216917Y-61943685D01*
X154216917Y-61943685D02*
X154145489Y-61800828D01*
X154145489Y-61800828D02*
X154002632Y-61729400D01*
X154002632Y-61729400D02*
X153645489Y-61729400D01*
X153645489Y-61729400D02*
X153502632Y-61657971D01*
X152788346Y-62300828D02*
X152788346Y-61300828D01*
X152788346Y-60800828D02*
X152859774Y-60872257D01*
X152859774Y-60872257D02*
X152788346Y-60943685D01*
X152788346Y-60943685D02*
X152716917Y-60872257D01*
X152716917Y-60872257D02*
X152788346Y-60800828D01*
X152788346Y-60800828D02*
X152788346Y-60943685D01*
X152216917Y-61300828D02*
X151431203Y-61300828D01*
X151431203Y-61300828D02*
X152216917Y-62300828D01*
X152216917Y-62300828D02*
X151431203Y-62300828D01*
X150288345Y-62229400D02*
X150431202Y-62300828D01*
X150431202Y-62300828D02*
X150716917Y-62300828D01*
X150716917Y-62300828D02*
X150859774Y-62229400D01*
X150859774Y-62229400D02*
X150931202Y-62086542D01*
X150931202Y-62086542D02*
X150931202Y-61515114D01*
X150931202Y-61515114D02*
X150859774Y-61372257D01*
X150859774Y-61372257D02*
X150716917Y-61300828D01*
X150716917Y-61300828D02*
X150431202Y-61300828D01*
X150431202Y-61300828D02*
X150288345Y-61372257D01*
X150288345Y-61372257D02*
X150216917Y-61515114D01*
X150216917Y-61515114D02*
X150216917Y-61657971D01*
X150216917Y-61657971D02*
X150931202Y-61800828D01*
X149574060Y-61300828D02*
X149574060Y-62300828D01*
X149574060Y-61443685D02*
X149502631Y-61372257D01*
X149502631Y-61372257D02*
X149359774Y-61300828D01*
X149359774Y-61300828D02*
X149145488Y-61300828D01*
X149145488Y-61300828D02*
X149002631Y-61372257D01*
X149002631Y-61372257D02*
X148931203Y-61515114D01*
X148931203Y-61515114D02*
X148931203Y-62300828D01*
X147288345Y-61300828D02*
X146645488Y-61300828D01*
X147288345Y-62015114D02*
X146645488Y-62015114D01*
X147216917Y-61300828D02*
X147216917Y-62015114D01*
X146645488Y-61800828D02*
X146645488Y-62015114D01*
X146288345Y-61015114D02*
X145431203Y-61015114D01*
X146216917Y-60729400D02*
X146502631Y-61443685D01*
X147288345Y-60800828D02*
X146645488Y-60800828D01*
X146645488Y-60800828D02*
X146645488Y-61372257D01*
X146359774Y-61015114D02*
X146002631Y-61872257D01*
X146002631Y-61872257D02*
X145716917Y-62157971D01*
X145716917Y-62157971D02*
X145431203Y-62300828D01*
X145645488Y-61015114D02*
X145931203Y-61800828D01*
X145931203Y-61800828D02*
X146216917Y-62086542D01*
X146216917Y-62086542D02*
X146502631Y-62300828D01*
X145074059Y-61657971D02*
X143216917Y-61657971D01*
X145002631Y-61300828D02*
X143288345Y-61300828D01*
X144931202Y-60800828D02*
X143359774Y-60800828D01*
X144859774Y-61086542D02*
X143431202Y-61086542D01*
X144788345Y-62229400D02*
X143502631Y-62229400D01*
X144788345Y-61872257D02*
X144788345Y-62300828D01*
X144716917Y-61443685D02*
X144574059Y-61586542D01*
X144645488Y-60657971D02*
X144431202Y-60800828D01*
X144145488Y-60800828D02*
X144145488Y-61657971D01*
X143716917Y-60657971D02*
X143859774Y-60800828D01*
X143645488Y-61443685D02*
X143716917Y-61586542D01*
X144788345Y-61872257D02*
X143502631Y-61872257D01*
X143502631Y-61872257D02*
X143502631Y-62300828D01*
X158816917Y-109729400D02*
X158602632Y-109800828D01*
X158602632Y-109800828D02*
X158245489Y-109800828D01*
X158245489Y-109800828D02*
X158102632Y-109729400D01*
X158102632Y-109729400D02*
X158031203Y-109657971D01*
X158031203Y-109657971D02*
X157959774Y-109515114D01*
X157959774Y-109515114D02*
X157959774Y-109372257D01*
X157959774Y-109372257D02*
X158031203Y-109229400D01*
X158031203Y-109229400D02*
X158102632Y-109157971D01*
X158102632Y-109157971D02*
X158245489Y-109086542D01*
X158245489Y-109086542D02*
X158531203Y-109015114D01*
X158531203Y-109015114D02*
X158674060Y-108943685D01*
X158674060Y-108943685D02*
X158745489Y-108872257D01*
X158745489Y-108872257D02*
X158816917Y-108729400D01*
X158816917Y-108729400D02*
X158816917Y-108586542D01*
X158816917Y-108586542D02*
X158745489Y-108443685D01*
X158745489Y-108443685D02*
X158674060Y-108372257D01*
X158674060Y-108372257D02*
X158531203Y-108300828D01*
X158531203Y-108300828D02*
X158174060Y-108300828D01*
X158174060Y-108300828D02*
X157959774Y-108372257D01*
X156745489Y-109729400D02*
X156888346Y-109800828D01*
X156888346Y-109800828D02*
X157174061Y-109800828D01*
X157174061Y-109800828D02*
X157316918Y-109729400D01*
X157316918Y-109729400D02*
X157388346Y-109586542D01*
X157388346Y-109586542D02*
X157388346Y-109015114D01*
X157388346Y-109015114D02*
X157316918Y-108872257D01*
X157316918Y-108872257D02*
X157174061Y-108800828D01*
X157174061Y-108800828D02*
X156888346Y-108800828D01*
X156888346Y-108800828D02*
X156745489Y-108872257D01*
X156745489Y-108872257D02*
X156674061Y-109015114D01*
X156674061Y-109015114D02*
X156674061Y-109157971D01*
X156674061Y-109157971D02*
X157388346Y-109300828D01*
X156031204Y-109800828D02*
X156031204Y-108800828D01*
X156031204Y-108943685D02*
X155959775Y-108872257D01*
X155959775Y-108872257D02*
X155816918Y-108800828D01*
X155816918Y-108800828D02*
X155602632Y-108800828D01*
X155602632Y-108800828D02*
X155459775Y-108872257D01*
X155459775Y-108872257D02*
X155388347Y-109015114D01*
X155388347Y-109015114D02*
X155388347Y-109800828D01*
X155388347Y-109015114D02*
X155316918Y-108872257D01*
X155316918Y-108872257D02*
X155174061Y-108800828D01*
X155174061Y-108800828D02*
X154959775Y-108800828D01*
X154959775Y-108800828D02*
X154816918Y-108872257D01*
X154816918Y-108872257D02*
X154745489Y-109015114D01*
X154745489Y-109015114D02*
X154745489Y-109800828D01*
X154031204Y-108800828D02*
X154031204Y-110300828D01*
X154031204Y-108872257D02*
X153888347Y-108800828D01*
X153888347Y-108800828D02*
X153602632Y-108800828D01*
X153602632Y-108800828D02*
X153459775Y-108872257D01*
X153459775Y-108872257D02*
X153388347Y-108943685D01*
X153388347Y-108943685D02*
X153316918Y-109086542D01*
X153316918Y-109086542D02*
X153316918Y-109515114D01*
X153316918Y-109515114D02*
X153388347Y-109657971D01*
X153388347Y-109657971D02*
X153459775Y-109729400D01*
X153459775Y-109729400D02*
X153602632Y-109800828D01*
X153602632Y-109800828D02*
X153888347Y-109800828D01*
X153888347Y-109800828D02*
X154031204Y-109729400D01*
X152102632Y-109729400D02*
X152245489Y-109800828D01*
X152245489Y-109800828D02*
X152531204Y-109800828D01*
X152531204Y-109800828D02*
X152674061Y-109729400D01*
X152674061Y-109729400D02*
X152745489Y-109586542D01*
X152745489Y-109586542D02*
X152745489Y-109015114D01*
X152745489Y-109015114D02*
X152674061Y-108872257D01*
X152674061Y-108872257D02*
X152531204Y-108800828D01*
X152531204Y-108800828D02*
X152245489Y-108800828D01*
X152245489Y-108800828D02*
X152102632Y-108872257D01*
X152102632Y-108872257D02*
X152031204Y-109015114D01*
X152031204Y-109015114D02*
X152031204Y-109157971D01*
X152031204Y-109157971D02*
X152745489Y-109300828D01*
X151388347Y-109800828D02*
X151388347Y-108800828D01*
X151388347Y-109086542D02*
X151316918Y-108943685D01*
X151316918Y-108943685D02*
X151245490Y-108872257D01*
X151245490Y-108872257D02*
X151102632Y-108800828D01*
X151102632Y-108800828D02*
X150959775Y-108800828D01*
X149316919Y-109800828D02*
X149316919Y-108300828D01*
X149316919Y-108300828D02*
X148959776Y-108300828D01*
X148959776Y-108300828D02*
X148745490Y-108372257D01*
X148745490Y-108372257D02*
X148602633Y-108515114D01*
X148602633Y-108515114D02*
X148531204Y-108657971D01*
X148531204Y-108657971D02*
X148459776Y-108943685D01*
X148459776Y-108943685D02*
X148459776Y-109157971D01*
X148459776Y-109157971D02*
X148531204Y-109443685D01*
X148531204Y-109443685D02*
X148602633Y-109586542D01*
X148602633Y-109586542D02*
X148745490Y-109729400D01*
X148745490Y-109729400D02*
X148959776Y-109800828D01*
X148959776Y-109800828D02*
X149316919Y-109800828D01*
X147816919Y-109800828D02*
X147816919Y-108800828D01*
X147816919Y-108300828D02*
X147888347Y-108372257D01*
X147888347Y-108372257D02*
X147816919Y-108443685D01*
X147816919Y-108443685D02*
X147745490Y-108372257D01*
X147745490Y-108372257D02*
X147816919Y-108300828D01*
X147816919Y-108300828D02*
X147816919Y-108443685D01*
X147174061Y-109729400D02*
X147031204Y-109800828D01*
X147031204Y-109800828D02*
X146745490Y-109800828D01*
X146745490Y-109800828D02*
X146602633Y-109729400D01*
X146602633Y-109729400D02*
X146531204Y-109586542D01*
X146531204Y-109586542D02*
X146531204Y-109515114D01*
X146531204Y-109515114D02*
X146602633Y-109372257D01*
X146602633Y-109372257D02*
X146745490Y-109300828D01*
X146745490Y-109300828D02*
X146959776Y-109300828D01*
X146959776Y-109300828D02*
X147102633Y-109229400D01*
X147102633Y-109229400D02*
X147174061Y-109086542D01*
X147174061Y-109086542D02*
X147174061Y-109015114D01*
X147174061Y-109015114D02*
X147102633Y-108872257D01*
X147102633Y-108872257D02*
X146959776Y-108800828D01*
X146959776Y-108800828D02*
X146745490Y-108800828D01*
X146745490Y-108800828D02*
X146602633Y-108872257D01*
X145245490Y-109729400D02*
X145388347Y-109800828D01*
X145388347Y-109800828D02*
X145674061Y-109800828D01*
X145674061Y-109800828D02*
X145816918Y-109729400D01*
X145816918Y-109729400D02*
X145888347Y-109657971D01*
X145888347Y-109657971D02*
X145959775Y-109515114D01*
X145959775Y-109515114D02*
X145959775Y-109086542D01*
X145959775Y-109086542D02*
X145888347Y-108943685D01*
X145888347Y-108943685D02*
X145816918Y-108872257D01*
X145816918Y-108872257D02*
X145674061Y-108800828D01*
X145674061Y-108800828D02*
X145388347Y-108800828D01*
X145388347Y-108800828D02*
X145245490Y-108872257D01*
X144031204Y-109729400D02*
X144174061Y-109800828D01*
X144174061Y-109800828D02*
X144459776Y-109800828D01*
X144459776Y-109800828D02*
X144602633Y-109729400D01*
X144602633Y-109729400D02*
X144674061Y-109586542D01*
X144674061Y-109586542D02*
X144674061Y-109015114D01*
X144674061Y-109015114D02*
X144602633Y-108872257D01*
X144602633Y-108872257D02*
X144459776Y-108800828D01*
X144459776Y-108800828D02*
X144174061Y-108800828D01*
X144174061Y-108800828D02*
X144031204Y-108872257D01*
X144031204Y-108872257D02*
X143959776Y-109015114D01*
X143959776Y-109015114D02*
X143959776Y-109157971D01*
X143959776Y-109157971D02*
X144674061Y-109300828D01*
X143316919Y-108800828D02*
X143316919Y-109800828D01*
X143316919Y-108943685D02*
X143245490Y-108872257D01*
X143245490Y-108872257D02*
X143102633Y-108800828D01*
X143102633Y-108800828D02*
X142888347Y-108800828D01*
X142888347Y-108800828D02*
X142745490Y-108872257D01*
X142745490Y-108872257D02*
X142674062Y-109015114D01*
X142674062Y-109015114D02*
X142674062Y-109800828D01*
X142031204Y-109729400D02*
X141888347Y-109800828D01*
X141888347Y-109800828D02*
X141602633Y-109800828D01*
X141602633Y-109800828D02*
X141459776Y-109729400D01*
X141459776Y-109729400D02*
X141388347Y-109586542D01*
X141388347Y-109586542D02*
X141388347Y-109515114D01*
X141388347Y-109515114D02*
X141459776Y-109372257D01*
X141459776Y-109372257D02*
X141602633Y-109300828D01*
X141602633Y-109300828D02*
X141816919Y-109300828D01*
X141816919Y-109300828D02*
X141959776Y-109229400D01*
X141959776Y-109229400D02*
X142031204Y-109086542D01*
X142031204Y-109086542D02*
X142031204Y-109015114D01*
X142031204Y-109015114D02*
X141959776Y-108872257D01*
X141959776Y-108872257D02*
X141816919Y-108800828D01*
X141816919Y-108800828D02*
X141602633Y-108800828D01*
X141602633Y-108800828D02*
X141459776Y-108872257D01*
X160745489Y-91300828D02*
X160745489Y-89800828D01*
X160745489Y-89800828D02*
X160388346Y-89800828D01*
X160388346Y-89800828D02*
X160174060Y-89872257D01*
X160174060Y-89872257D02*
X160031203Y-90015114D01*
X160031203Y-90015114D02*
X159959774Y-90157971D01*
X159959774Y-90157971D02*
X159888346Y-90443685D01*
X159888346Y-90443685D02*
X159888346Y-90657971D01*
X159888346Y-90657971D02*
X159959774Y-90943685D01*
X159959774Y-90943685D02*
X160031203Y-91086542D01*
X160031203Y-91086542D02*
X160174060Y-91229400D01*
X160174060Y-91229400D02*
X160388346Y-91300828D01*
X160388346Y-91300828D02*
X160745489Y-91300828D01*
X159031203Y-91300828D02*
X159174060Y-91229400D01*
X159174060Y-91229400D02*
X159245489Y-91157971D01*
X159245489Y-91157971D02*
X159316917Y-91015114D01*
X159316917Y-91015114D02*
X159316917Y-90586542D01*
X159316917Y-90586542D02*
X159245489Y-90443685D01*
X159245489Y-90443685D02*
X159174060Y-90372257D01*
X159174060Y-90372257D02*
X159031203Y-90300828D01*
X159031203Y-90300828D02*
X158816917Y-90300828D01*
X158816917Y-90300828D02*
X158674060Y-90372257D01*
X158674060Y-90372257D02*
X158602632Y-90443685D01*
X158602632Y-90443685D02*
X158531203Y-90586542D01*
X158531203Y-90586542D02*
X158531203Y-91015114D01*
X158531203Y-91015114D02*
X158602632Y-91157971D01*
X158602632Y-91157971D02*
X158674060Y-91229400D01*
X158674060Y-91229400D02*
X158816917Y-91300828D01*
X158816917Y-91300828D02*
X159031203Y-91300828D01*
X157245489Y-91229400D02*
X157388346Y-91300828D01*
X157388346Y-91300828D02*
X157674060Y-91300828D01*
X157674060Y-91300828D02*
X157816917Y-91229400D01*
X157816917Y-91229400D02*
X157888346Y-91157971D01*
X157888346Y-91157971D02*
X157959774Y-91015114D01*
X157959774Y-91015114D02*
X157959774Y-90586542D01*
X157959774Y-90586542D02*
X157888346Y-90443685D01*
X157888346Y-90443685D02*
X157816917Y-90372257D01*
X157816917Y-90372257D02*
X157674060Y-90300828D01*
X157674060Y-90300828D02*
X157388346Y-90300828D01*
X157388346Y-90300828D02*
X157245489Y-90372257D01*
X156031203Y-91229400D02*
X156174060Y-91300828D01*
X156174060Y-91300828D02*
X156459775Y-91300828D01*
X156459775Y-91300828D02*
X156602632Y-91229400D01*
X156602632Y-91229400D02*
X156674060Y-91086542D01*
X156674060Y-91086542D02*
X156674060Y-90515114D01*
X156674060Y-90515114D02*
X156602632Y-90372257D01*
X156602632Y-90372257D02*
X156459775Y-90300828D01*
X156459775Y-90300828D02*
X156174060Y-90300828D01*
X156174060Y-90300828D02*
X156031203Y-90372257D01*
X156031203Y-90372257D02*
X155959775Y-90515114D01*
X155959775Y-90515114D02*
X155959775Y-90657971D01*
X155959775Y-90657971D02*
X156674060Y-90800828D01*
X155316918Y-90300828D02*
X155316918Y-91300828D01*
X155316918Y-90443685D02*
X155245489Y-90372257D01*
X155245489Y-90372257D02*
X155102632Y-90300828D01*
X155102632Y-90300828D02*
X154888346Y-90300828D01*
X154888346Y-90300828D02*
X154745489Y-90372257D01*
X154745489Y-90372257D02*
X154674061Y-90515114D01*
X154674061Y-90515114D02*
X154674061Y-91300828D01*
X153316918Y-91300828D02*
X153316918Y-89800828D01*
X153316918Y-91229400D02*
X153459775Y-91300828D01*
X153459775Y-91300828D02*
X153745489Y-91300828D01*
X153745489Y-91300828D02*
X153888346Y-91229400D01*
X153888346Y-91229400D02*
X153959775Y-91157971D01*
X153959775Y-91157971D02*
X154031203Y-91015114D01*
X154031203Y-91015114D02*
X154031203Y-90586542D01*
X154031203Y-90586542D02*
X153959775Y-90443685D01*
X153959775Y-90443685D02*
X153888346Y-90372257D01*
X153888346Y-90372257D02*
X153745489Y-90300828D01*
X153745489Y-90300828D02*
X153459775Y-90300828D01*
X153459775Y-90300828D02*
X153316918Y-90372257D01*
X152388346Y-91300828D02*
X152531203Y-91229400D01*
X152531203Y-91229400D02*
X152602632Y-91157971D01*
X152602632Y-91157971D02*
X152674060Y-91015114D01*
X152674060Y-91015114D02*
X152674060Y-90586542D01*
X152674060Y-90586542D02*
X152602632Y-90443685D01*
X152602632Y-90443685D02*
X152531203Y-90372257D01*
X152531203Y-90372257D02*
X152388346Y-90300828D01*
X152388346Y-90300828D02*
X152174060Y-90300828D01*
X152174060Y-90300828D02*
X152031203Y-90372257D01*
X152031203Y-90372257D02*
X151959775Y-90443685D01*
X151959775Y-90443685D02*
X151888346Y-90586542D01*
X151888346Y-90586542D02*
X151888346Y-91015114D01*
X151888346Y-91015114D02*
X151959775Y-91157971D01*
X151959775Y-91157971D02*
X152031203Y-91229400D01*
X152031203Y-91229400D02*
X152174060Y-91300828D01*
X152174060Y-91300828D02*
X152388346Y-91300828D01*
X150102632Y-91300828D02*
X150102632Y-89800828D01*
X150102632Y-89800828D02*
X149745489Y-89800828D01*
X149745489Y-89800828D02*
X149531203Y-89872257D01*
X149531203Y-89872257D02*
X149388346Y-90015114D01*
X149388346Y-90015114D02*
X149316917Y-90157971D01*
X149316917Y-90157971D02*
X149245489Y-90443685D01*
X149245489Y-90443685D02*
X149245489Y-90657971D01*
X149245489Y-90657971D02*
X149316917Y-90943685D01*
X149316917Y-90943685D02*
X149388346Y-91086542D01*
X149388346Y-91086542D02*
X149531203Y-91229400D01*
X149531203Y-91229400D02*
X149745489Y-91300828D01*
X149745489Y-91300828D02*
X150102632Y-91300828D01*
X148602632Y-91300828D02*
X148602632Y-90300828D01*
X148602632Y-89800828D02*
X148674060Y-89872257D01*
X148674060Y-89872257D02*
X148602632Y-89943685D01*
X148602632Y-89943685D02*
X148531203Y-89872257D01*
X148531203Y-89872257D02*
X148602632Y-89800828D01*
X148602632Y-89800828D02*
X148602632Y-89943685D01*
X147959774Y-91229400D02*
X147816917Y-91300828D01*
X147816917Y-91300828D02*
X147531203Y-91300828D01*
X147531203Y-91300828D02*
X147388346Y-91229400D01*
X147388346Y-91229400D02*
X147316917Y-91086542D01*
X147316917Y-91086542D02*
X147316917Y-91015114D01*
X147316917Y-91015114D02*
X147388346Y-90872257D01*
X147388346Y-90872257D02*
X147531203Y-90800828D01*
X147531203Y-90800828D02*
X147745489Y-90800828D01*
X147745489Y-90800828D02*
X147888346Y-90729400D01*
X147888346Y-90729400D02*
X147959774Y-90586542D01*
X147959774Y-90586542D02*
X147959774Y-90515114D01*
X147959774Y-90515114D02*
X147888346Y-90372257D01*
X147888346Y-90372257D02*
X147745489Y-90300828D01*
X147745489Y-90300828D02*
X147531203Y-90300828D01*
X147531203Y-90300828D02*
X147388346Y-90372257D01*
X146031203Y-91229400D02*
X146174060Y-91300828D01*
X146174060Y-91300828D02*
X146459774Y-91300828D01*
X146459774Y-91300828D02*
X146602631Y-91229400D01*
X146602631Y-91229400D02*
X146674060Y-91157971D01*
X146674060Y-91157971D02*
X146745488Y-91015114D01*
X146745488Y-91015114D02*
X146745488Y-90586542D01*
X146745488Y-90586542D02*
X146674060Y-90443685D01*
X146674060Y-90443685D02*
X146602631Y-90372257D01*
X146602631Y-90372257D02*
X146459774Y-90300828D01*
X146459774Y-90300828D02*
X146174060Y-90300828D01*
X146174060Y-90300828D02*
X146031203Y-90372257D01*
X145388346Y-91300828D02*
X145388346Y-90300828D01*
X145388346Y-89800828D02*
X145459774Y-89872257D01*
X145459774Y-89872257D02*
X145388346Y-89943685D01*
X145388346Y-89943685D02*
X145316917Y-89872257D01*
X145316917Y-89872257D02*
X145388346Y-89800828D01*
X145388346Y-89800828D02*
X145388346Y-89943685D01*
X144674060Y-91300828D02*
X144674060Y-90300828D01*
X144674060Y-90443685D02*
X144602631Y-90372257D01*
X144602631Y-90372257D02*
X144459774Y-90300828D01*
X144459774Y-90300828D02*
X144245488Y-90300828D01*
X144245488Y-90300828D02*
X144102631Y-90372257D01*
X144102631Y-90372257D02*
X144031203Y-90515114D01*
X144031203Y-90515114D02*
X144031203Y-91300828D01*
X144031203Y-90515114D02*
X143959774Y-90372257D01*
X143959774Y-90372257D02*
X143816917Y-90300828D01*
X143816917Y-90300828D02*
X143602631Y-90300828D01*
X143602631Y-90300828D02*
X143459774Y-90372257D01*
X143459774Y-90372257D02*
X143388345Y-90515114D01*
X143388345Y-90515114D02*
X143388345Y-91300828D01*
X142031203Y-90300828D02*
X142031203Y-91300828D01*
X142674060Y-90300828D02*
X142674060Y-91086542D01*
X142674060Y-91086542D02*
X142602631Y-91229400D01*
X142602631Y-91229400D02*
X142459774Y-91300828D01*
X142459774Y-91300828D02*
X142245488Y-91300828D01*
X142245488Y-91300828D02*
X142102631Y-91229400D01*
X142102631Y-91229400D02*
X142031203Y-91157971D01*
X141388345Y-91229400D02*
X141245488Y-91300828D01*
X141245488Y-91300828D02*
X140959774Y-91300828D01*
X140959774Y-91300828D02*
X140816917Y-91229400D01*
X140816917Y-91229400D02*
X140745488Y-91086542D01*
X140745488Y-91086542D02*
X140745488Y-91015114D01*
X140745488Y-91015114D02*
X140816917Y-90872257D01*
X140816917Y-90872257D02*
X140959774Y-90800828D01*
X140959774Y-90800828D02*
X141174060Y-90800828D01*
X141174060Y-90800828D02*
X141316917Y-90729400D01*
X141316917Y-90729400D02*
X141388345Y-90586542D01*
X141388345Y-90586542D02*
X141388345Y-90515114D01*
X141388345Y-90515114D02*
X141316917Y-90372257D01*
X141316917Y-90372257D02*
X141174060Y-90300828D01*
X141174060Y-90300828D02*
X140959774Y-90300828D01*
X140959774Y-90300828D02*
X140816917Y-90372257D01*
D11*
X151605714Y-72711009D02*
X151462857Y-72758628D01*
X151462857Y-72758628D02*
X151415238Y-72806247D01*
X151415238Y-72806247D02*
X151367619Y-72901485D01*
X151367619Y-72901485D02*
X151367619Y-73044342D01*
X151367619Y-73044342D02*
X151415238Y-73139580D01*
X151415238Y-73139580D02*
X151462857Y-73187200D01*
X151462857Y-73187200D02*
X151558095Y-73234819D01*
X151558095Y-73234819D02*
X151939047Y-73234819D01*
X151939047Y-73234819D02*
X151939047Y-72234819D01*
X151939047Y-72234819D02*
X151605714Y-72234819D01*
X151605714Y-72234819D02*
X151510476Y-72282438D01*
X151510476Y-72282438D02*
X151462857Y-72330057D01*
X151462857Y-72330057D02*
X151415238Y-72425295D01*
X151415238Y-72425295D02*
X151415238Y-72520533D01*
X151415238Y-72520533D02*
X151462857Y-72615771D01*
X151462857Y-72615771D02*
X151510476Y-72663390D01*
X151510476Y-72663390D02*
X151605714Y-72711009D01*
X151605714Y-72711009D02*
X151939047Y-72711009D01*
X151081904Y-72234819D02*
X150510476Y-72234819D01*
X150796190Y-73234819D02*
X150796190Y-72234819D01*
X149653333Y-73234819D02*
X150224761Y-73234819D01*
X149939047Y-73234819D02*
X149939047Y-72234819D01*
X149939047Y-72234819D02*
X150034285Y-72377676D01*
X150034285Y-72377676D02*
X150129523Y-72472914D01*
X150129523Y-72472914D02*
X150224761Y-72520533D01*
%TO.C,BT1*%
D12*
X136510000Y-78500000D02*
X136510000Y-76790000D01*
X136510000Y-82300000D02*
X136510000Y-84010000D01*
X136510000Y-84010000D02*
X140128000Y-84010000D01*
X140128000Y-76790000D02*
X136510000Y-76790000D01*
X142972700Y-88510000D02*
X158667300Y-88510000D01*
X146960000Y-72290000D02*
X142972700Y-72290000D01*
X149160000Y-74490000D02*
X146960000Y-72290000D01*
X152480000Y-74490000D02*
X149160000Y-74490000D01*
X152480000Y-74490000D02*
X154680000Y-72290000D01*
X158667300Y-72290000D02*
X154680000Y-72290000D01*
X161512000Y-84010000D02*
X165130000Y-84010000D01*
X165130000Y-76790000D02*
X161512000Y-76790000D01*
X165130000Y-78500000D02*
X165130000Y-76790000D01*
X165130000Y-82300000D02*
X165130000Y-84010000D01*
X140128000Y-76790000D02*
G75*
G02*
X142974629Y-72288211I10691979J-3609986D01*
G01*
X142974629Y-88511789D02*
G75*
G02*
X140128001Y-84010000I7845391J8111799D01*
G01*
X158665371Y-72288211D02*
G75*
G02*
X161512000Y-76790000I-7845391J-8111801D01*
G01*
X161512000Y-84010000D02*
G75*
G02*
X158665371Y-88511789I-10692020J3610012D01*
G01*
D13*
%TO.C,G\u002A\u002A\u002A*%
G36*
X144942146Y-99431089D02*
G01*
X144935195Y-99438040D01*
X144928244Y-99431089D01*
X144935195Y-99424138D01*
X144942146Y-99431089D01*
G37*
G36*
X145025562Y-99444992D02*
G01*
X145018610Y-99451943D01*
X145011659Y-99444992D01*
X145018610Y-99438040D01*
X145025562Y-99444992D01*
G37*
G36*
X146429721Y-92980296D02*
G01*
X146422770Y-92987247D01*
X146415819Y-92980296D01*
X146422770Y-92973344D01*
X146429721Y-92980296D01*
G37*
G36*
X146443624Y-93008101D02*
G01*
X146436673Y-93015052D01*
X146429721Y-93008101D01*
X146436673Y-93001149D01*
X146443624Y-93008101D01*
G37*
G36*
X154743460Y-102573071D02*
G01*
X154736509Y-102580022D01*
X154729557Y-102573071D01*
X154736509Y-102566119D01*
X154743460Y-102573071D01*
G37*
G36*
X156717625Y-103824302D02*
G01*
X156710674Y-103831253D01*
X156703723Y-103824302D01*
X156710674Y-103817351D01*
X156717625Y-103824302D01*
G37*
G36*
X157420872Y-97844199D02*
G01*
X157421579Y-97846196D01*
X157450305Y-97927304D01*
X157455689Y-98013771D01*
X157453609Y-98022984D01*
X157436433Y-98099043D01*
X157391945Y-98178563D01*
X157378555Y-98194634D01*
X157347906Y-98222191D01*
X157307253Y-98246964D01*
X157252277Y-98270994D01*
X157178659Y-98296322D01*
X157082080Y-98324988D01*
X157008307Y-98344432D01*
X156922421Y-98361234D01*
X156853126Y-98365880D01*
X156795606Y-98358579D01*
X156745044Y-98339540D01*
X156727263Y-98328617D01*
X156689197Y-98297340D01*
X156649502Y-98257350D01*
X156613975Y-98215216D01*
X156588409Y-98177511D01*
X156578599Y-98150804D01*
X156576227Y-98146142D01*
X156565163Y-98141412D01*
X156542568Y-98137760D01*
X156505732Y-98135058D01*
X156451940Y-98133178D01*
X156378482Y-98131993D01*
X156282645Y-98131376D01*
X156161716Y-98131199D01*
X155744834Y-98131199D01*
X155598662Y-98271987D01*
X155452491Y-98412775D01*
X155452491Y-98688707D01*
X155452491Y-98964639D01*
X155497674Y-98987526D01*
X155500221Y-98988829D01*
X155537556Y-99010362D01*
X155565739Y-99030435D01*
X155568259Y-99032570D01*
X155577376Y-99036941D01*
X155579029Y-99026676D01*
X155572882Y-98997825D01*
X155558600Y-98946440D01*
X155545218Y-98892080D01*
X155535188Y-98829763D01*
X155534244Y-98804164D01*
X155887430Y-98804164D01*
X155896067Y-98840783D01*
X155917591Y-98884078D01*
X155923577Y-98894693D01*
X155949172Y-98935969D01*
X155973616Y-98961868D01*
X156006209Y-98980041D01*
X156056254Y-98998139D01*
X156102347Y-99011164D01*
X156174275Y-99017813D01*
X156240693Y-99002310D01*
X156310226Y-98963477D01*
X156337421Y-98943653D01*
X156374342Y-98907665D01*
X156392820Y-98869273D01*
X156397866Y-98820290D01*
X156397718Y-98804464D01*
X156394755Y-98784607D01*
X156384215Y-98774840D01*
X156361268Y-98774408D01*
X156321086Y-98782554D01*
X156258840Y-98798522D01*
X156247806Y-98801403D01*
X156198981Y-98813866D01*
X156162668Y-98822680D01*
X156146044Y-98826089D01*
X156140192Y-98817009D01*
X156130518Y-98787260D01*
X156120034Y-98743945D01*
X156109641Y-98700566D01*
X156095761Y-98668778D01*
X156072592Y-98644814D01*
X156032936Y-98618288D01*
X156001597Y-98599409D01*
X155972773Y-98583559D01*
X155960601Y-98579022D01*
X155959895Y-98580057D01*
X155948619Y-98596464D01*
X155929042Y-98624899D01*
X155918693Y-98643655D01*
X155901601Y-98691061D01*
X155890758Y-98743071D01*
X155888874Y-98759480D01*
X155887430Y-98804164D01*
X155534244Y-98804164D01*
X155533414Y-98781649D01*
X155538248Y-98720875D01*
X155654090Y-98688911D01*
X155677775Y-98682272D01*
X155727037Y-98666800D01*
X155757551Y-98652836D01*
X155775465Y-98637001D01*
X155786927Y-98615919D01*
X155789091Y-98611319D01*
X155810554Y-98579414D01*
X155845114Y-98538252D01*
X155886398Y-98495546D01*
X155932013Y-98453898D01*
X155970869Y-98426029D01*
X156011942Y-98407265D01*
X156065598Y-98391593D01*
X156094611Y-98384326D01*
X156137058Y-98375659D01*
X156170559Y-98374542D01*
X156206935Y-98381247D01*
X156258007Y-98396048D01*
X156306449Y-98412268D01*
X156346909Y-98432196D01*
X156381980Y-98460468D01*
X156422477Y-98504195D01*
X156465843Y-98560303D01*
X156510808Y-98647248D01*
X156529602Y-98736918D01*
X156523977Y-98820290D01*
X156523162Y-98832365D01*
X156506870Y-98893310D01*
X156466677Y-98971630D01*
X156404540Y-99040094D01*
X156317576Y-99102490D01*
X156263334Y-99138035D01*
X156226686Y-99170007D01*
X156210774Y-99197333D01*
X156209805Y-99201004D01*
X156207134Y-99208157D01*
X156198765Y-99230567D01*
X156179983Y-99264926D01*
X156151916Y-99305884D01*
X156113018Y-99355243D01*
X156061745Y-99414805D01*
X155996554Y-99486374D01*
X155915900Y-99571752D01*
X155818238Y-99672741D01*
X155702025Y-99791143D01*
X155295985Y-100202682D01*
X154968180Y-100202682D01*
X154640376Y-100202682D01*
X154267890Y-100574233D01*
X153895403Y-100945784D01*
X153896105Y-101523083D01*
X153896808Y-102100383D01*
X154038607Y-101952690D01*
X154121870Y-101869694D01*
X154193548Y-101806980D01*
X154254764Y-101764205D01*
X154307918Y-101739695D01*
X154355409Y-101731775D01*
X154398106Y-101729084D01*
X154436263Y-101722644D01*
X154448216Y-101718738D01*
X154452005Y-101712353D01*
X154435142Y-101703421D01*
X154394555Y-101689504D01*
X154383013Y-101685762D01*
X154365794Y-101679673D01*
X154357209Y-101674913D01*
X154359655Y-101671304D01*
X154375527Y-101668669D01*
X154407222Y-101666830D01*
X154457136Y-101665609D01*
X154527666Y-101664828D01*
X154621209Y-101664311D01*
X154740160Y-101663878D01*
X154799346Y-101663705D01*
X154909617Y-101663646D01*
X154997484Y-101664178D01*
X155066647Y-101665490D01*
X155120806Y-101667769D01*
X155163660Y-101671202D01*
X155198909Y-101675977D01*
X155230254Y-101682282D01*
X155261393Y-101690303D01*
X155361897Y-101718154D01*
X155887019Y-101193286D01*
X156412141Y-100668418D01*
X156278514Y-100654516D01*
X156217473Y-100647677D01*
X156176479Y-100641005D01*
X156151434Y-100632696D01*
X156136385Y-100620756D01*
X156125377Y-100603187D01*
X156118100Y-100585267D01*
X156104913Y-100542805D01*
X156090599Y-100489122D01*
X156077489Y-100433666D01*
X156067914Y-100385883D01*
X156064204Y-100355223D01*
X156067845Y-100352156D01*
X156092795Y-100346487D01*
X156136204Y-100341755D01*
X156191931Y-100338754D01*
X156319659Y-100334756D01*
X156331762Y-100279444D01*
X156561885Y-100279444D01*
X156562748Y-100342440D01*
X156578573Y-100422780D01*
X156595091Y-100480172D01*
X156618860Y-100534088D01*
X156649248Y-100571613D01*
X156690321Y-100599164D01*
X156715495Y-100610317D01*
X156785685Y-100628814D01*
X156859355Y-100634565D01*
X156923321Y-100626049D01*
X156948293Y-100617673D01*
X157021842Y-100577655D01*
X157074625Y-100521936D01*
X157104305Y-100452752D01*
X157110375Y-100425550D01*
X157117872Y-100388419D01*
X157120800Y-100368452D01*
X157113087Y-100364342D01*
X157082747Y-100359828D01*
X157034745Y-100356749D01*
X156974823Y-100355610D01*
X156828846Y-100355610D01*
X156828846Y-100292738D01*
X156828336Y-100272582D01*
X156822080Y-100238180D01*
X156804755Y-100206750D01*
X156771465Y-100167615D01*
X156743945Y-100139817D01*
X156714524Y-100114947D01*
X156696173Y-100105364D01*
X156684575Y-100110051D01*
X156657463Y-100130431D01*
X156624955Y-100161481D01*
X156609889Y-100178197D01*
X156577195Y-100226971D01*
X156561885Y-100279444D01*
X156331762Y-100279444D01*
X156345088Y-100218540D01*
X156373053Y-100122404D01*
X156415599Y-100039202D01*
X156474847Y-99971841D01*
X156554418Y-99916272D01*
X156657930Y-99868446D01*
X156699755Y-99852638D01*
X156743946Y-99838791D01*
X156783425Y-99832351D01*
X156828982Y-99831800D01*
X156891407Y-99835621D01*
X156948938Y-99841928D01*
X157058027Y-99868877D01*
X157149328Y-99915457D01*
X157225614Y-99983327D01*
X157289657Y-100074149D01*
X157291898Y-100078111D01*
X157336081Y-100184416D01*
X157356652Y-100299180D01*
X157354928Y-100368452D01*
X157353730Y-100416617D01*
X157327437Y-100530936D01*
X157277895Y-100636351D01*
X157243913Y-100685192D01*
X157171661Y-100758101D01*
X157084684Y-100810714D01*
X156981301Y-100843684D01*
X156859827Y-100857664D01*
X156718580Y-100853306D01*
X156707815Y-100852365D01*
X156650613Y-100847889D01*
X156612923Y-100847216D01*
X156587650Y-100851371D01*
X156567697Y-100861381D01*
X156545965Y-100878272D01*
X156540618Y-100882965D01*
X156514708Y-100907109D01*
X156471837Y-100947963D01*
X156414026Y-101003571D01*
X156343294Y-101071978D01*
X156261661Y-101151228D01*
X156171148Y-101239364D01*
X156073774Y-101334430D01*
X155971560Y-101434472D01*
X155440984Y-101954406D01*
X154902534Y-101954406D01*
X154364084Y-101954406D01*
X154150402Y-102166881D01*
X153969864Y-102346400D01*
X153953573Y-102362599D01*
X153575644Y-102738393D01*
X153575644Y-103204756D01*
X153575644Y-103671119D01*
X153301198Y-103945822D01*
X153026753Y-104220525D01*
X153209509Y-104220525D01*
X153392266Y-104220525D01*
X153466576Y-104304329D01*
X153540887Y-104388133D01*
X154003536Y-103925019D01*
X154466185Y-103461905D01*
X154382393Y-103402814D01*
X154380984Y-103401817D01*
X154336416Y-103367915D01*
X154299261Y-103335484D01*
X154277434Y-103311417D01*
X154267866Y-103288293D01*
X154256054Y-103247853D01*
X154243619Y-103197488D01*
X154238370Y-103173250D01*
X154572002Y-103173250D01*
X154589061Y-103264429D01*
X154613903Y-103337712D01*
X154696060Y-103345138D01*
X154714410Y-103347095D01*
X154763921Y-103357293D01*
X154811024Y-103377169D01*
X154867263Y-103411176D01*
X154876156Y-103417001D01*
X154918255Y-103443759D01*
X154949819Y-103462504D01*
X154964581Y-103469481D01*
X154969029Y-103468409D01*
X154993351Y-103459154D01*
X155029238Y-103443564D01*
X155038504Y-103439020D01*
X155089149Y-103404065D01*
X155136751Y-103356938D01*
X155174022Y-103305820D01*
X155193679Y-103258894D01*
X155199182Y-103228331D01*
X155200324Y-103193317D01*
X155188799Y-103167450D01*
X155160523Y-103143565D01*
X155111416Y-103114497D01*
X155100912Y-103108606D01*
X155047017Y-103076982D01*
X155012189Y-103051583D01*
X154991522Y-103026823D01*
X154980113Y-102997113D01*
X154973055Y-102956865D01*
X154964162Y-102913419D01*
X154942246Y-102869948D01*
X154907800Y-102849256D01*
X154858511Y-102849167D01*
X154829345Y-102854249D01*
X154766853Y-102868805D01*
X154721199Y-102887874D01*
X154684404Y-102915505D01*
X154648488Y-102955747D01*
X154619477Y-102997304D01*
X154582289Y-103083440D01*
X154572002Y-103173250D01*
X154238370Y-103173250D01*
X154232153Y-103144547D01*
X154223245Y-103096380D01*
X154218489Y-103060335D01*
X154219475Y-103043762D01*
X154219791Y-103043633D01*
X154234275Y-103050139D01*
X154265027Y-103068357D01*
X154305946Y-103094694D01*
X154325140Y-103107408D01*
X154361681Y-103129464D01*
X154384740Y-103135004D01*
X154398689Y-103121278D01*
X154407903Y-103085536D01*
X154416755Y-103025030D01*
X154439267Y-102950474D01*
X154483675Y-102875341D01*
X154544355Y-102805647D01*
X154615771Y-102746772D01*
X154692386Y-102704098D01*
X154768662Y-102683008D01*
X154804507Y-102678825D01*
X154854592Y-102671777D01*
X154879940Y-102664467D01*
X154882484Y-102654809D01*
X154864152Y-102640718D01*
X154826875Y-102620106D01*
X154750411Y-102579364D01*
X154812973Y-102587600D01*
X154830960Y-102590769D01*
X154896057Y-102610379D01*
X154971949Y-102642084D01*
X155050501Y-102681882D01*
X155123582Y-102725770D01*
X155183056Y-102769743D01*
X155198679Y-102783799D01*
X155259087Y-102850403D01*
X155308563Y-102923377D01*
X155327976Y-102957004D01*
X155351463Y-102990702D01*
X155378051Y-103016087D01*
X155415129Y-103039797D01*
X155470088Y-103068469D01*
X155581915Y-103124695D01*
X155982405Y-102724384D01*
X156018947Y-102687796D01*
X156102812Y-102603340D01*
X156179087Y-102525853D01*
X156245745Y-102457436D01*
X156300761Y-102400191D01*
X156342109Y-102356219D01*
X156367762Y-102327621D01*
X156375695Y-102316497D01*
X156372570Y-102314572D01*
X156348569Y-102304879D01*
X156307034Y-102290426D01*
X156254582Y-102273558D01*
X156140668Y-102238194D01*
X156136855Y-102022876D01*
X156133042Y-101807559D01*
X156043111Y-101738481D01*
X156039732Y-101735881D01*
X155993611Y-101698341D01*
X155964224Y-101667666D01*
X155945393Y-101635973D01*
X155930942Y-101595384D01*
X155922455Y-101564431D01*
X155915565Y-101530379D01*
X155915777Y-101514291D01*
X155918454Y-101513447D01*
X155942004Y-101514613D01*
X155983592Y-101520559D01*
X156036399Y-101530378D01*
X156055100Y-101534088D01*
X156104724Y-101542819D01*
X156140724Y-101547491D01*
X156156330Y-101547156D01*
X156156452Y-101546961D01*
X156272795Y-101546961D01*
X156277983Y-101576912D01*
X156302172Y-101625926D01*
X156340116Y-101671668D01*
X156385136Y-101704758D01*
X156397255Y-101710632D01*
X156435730Y-101725750D01*
X156463349Y-101731660D01*
X156472192Y-101730945D01*
X156512303Y-101719640D01*
X156557213Y-101698837D01*
X156596354Y-101674029D01*
X156619151Y-101650710D01*
X156620025Y-101649097D01*
X156625490Y-101638666D01*
X156626109Y-101630706D01*
X156618151Y-101623865D01*
X156597887Y-101616790D01*
X156561587Y-101608127D01*
X156505521Y-101596524D01*
X156425960Y-101580627D01*
X156415697Y-101578442D01*
X156389604Y-101568461D01*
X156375901Y-101548603D01*
X156367176Y-101509958D01*
X156364059Y-101493864D01*
X156353834Y-101456738D01*
X156343482Y-101435676D01*
X156332016Y-101435374D01*
X156313410Y-101452717D01*
X156294107Y-101482183D01*
X156278953Y-101516141D01*
X156272795Y-101546961D01*
X156156452Y-101546961D01*
X156157696Y-101544968D01*
X156164323Y-101522838D01*
X156171297Y-101486917D01*
X156191490Y-101421251D01*
X156235654Y-101351969D01*
X156296185Y-101299192D01*
X156306525Y-101293021D01*
X156343568Y-101276576D01*
X156386784Y-101268426D01*
X156446871Y-101266229D01*
X156471696Y-101266579D01*
X156550223Y-101275010D01*
X156611159Y-101297224D01*
X156661242Y-101336593D01*
X156707208Y-101396488D01*
X156728784Y-101433095D01*
X156754745Y-101501833D01*
X156759365Y-101572945D01*
X156748566Y-101630706D01*
X156743930Y-101655501D01*
X156739826Y-101667606D01*
X156711229Y-101717201D01*
X156667320Y-101768403D01*
X156615828Y-101813123D01*
X156564483Y-101843274D01*
X156522989Y-101860461D01*
X156522989Y-102112578D01*
X156522989Y-102364695D01*
X156081582Y-102805156D01*
X155692589Y-103193317D01*
X155640176Y-103245618D01*
X155527100Y-103255087D01*
X155511700Y-103256446D01*
X155459488Y-103262148D01*
X155419818Y-103268139D01*
X155400289Y-103273329D01*
X155397085Y-103276200D01*
X155379562Y-103298041D01*
X155353160Y-103335259D01*
X155322253Y-103381779D01*
X155319557Y-103385914D01*
X155276993Y-103443967D01*
X155227672Y-103501482D01*
X155181729Y-103546576D01*
X155148171Y-103573856D01*
X155106006Y-103601027D01*
X155059689Y-103619741D01*
X154997471Y-103635682D01*
X154971897Y-103641256D01*
X154922013Y-103650328D01*
X154882256Y-103652582D01*
X154840638Y-103648089D01*
X154785168Y-103636919D01*
X154781948Y-103636210D01*
X154724542Y-103621706D01*
X154672752Y-103605572D01*
X154637438Y-103591171D01*
X154593978Y-103568173D01*
X154104777Y-104061180D01*
X153615576Y-104554187D01*
X153152882Y-104554187D01*
X153112117Y-104554193D01*
X152993817Y-104554342D01*
X152899529Y-104554808D01*
X152826336Y-104555746D01*
X152771323Y-104557309D01*
X152731575Y-104559652D01*
X152704175Y-104562929D01*
X152686207Y-104567295D01*
X152674757Y-104572904D01*
X152666909Y-104579911D01*
X152658105Y-104590667D01*
X152656926Y-104599587D01*
X152670365Y-104605443D01*
X152702798Y-104609891D01*
X152758597Y-104614584D01*
X152798413Y-104616775D01*
X152864357Y-104618973D01*
X152948400Y-104620849D01*
X153045446Y-104622310D01*
X153150399Y-104623263D01*
X153258163Y-104623617D01*
X153642763Y-104623700D01*
X153715644Y-104715291D01*
X153788525Y-104806883D01*
X154238188Y-104357380D01*
X154316834Y-104278644D01*
X154403522Y-104191564D01*
X154482199Y-104112219D01*
X154550916Y-104042590D01*
X154607724Y-103984657D01*
X154650676Y-103940401D01*
X154677822Y-103911804D01*
X154687215Y-103900846D01*
X154685893Y-103898789D01*
X154668963Y-103883232D01*
X154636678Y-103856957D01*
X154594303Y-103824302D01*
X154502026Y-103754789D01*
X154824411Y-103751057D01*
X155146796Y-103747325D01*
X155259290Y-103826152D01*
X155371784Y-103904979D01*
X156165186Y-103111577D01*
X156958587Y-102318175D01*
X156834631Y-102281733D01*
X156832870Y-102281215D01*
X156764710Y-102260800D01*
X156718634Y-102244948D01*
X156690119Y-102230549D01*
X156674639Y-102214498D01*
X156667671Y-102193685D01*
X156664691Y-102165004D01*
X156663094Y-102136757D01*
X156666193Y-102118638D01*
X156678451Y-102110747D01*
X156704277Y-102112393D01*
X156748075Y-102122884D01*
X156814252Y-102141530D01*
X156837718Y-102148062D01*
X156887649Y-102160767D01*
X156924220Y-102168381D01*
X156940798Y-102169444D01*
X156946548Y-102153868D01*
X156952948Y-102118258D01*
X156953301Y-102115263D01*
X157054750Y-102115263D01*
X157057308Y-102143040D01*
X157070957Y-102182634D01*
X157097371Y-102232215D01*
X157143256Y-102273268D01*
X157161891Y-102283265D01*
X157227349Y-102301830D01*
X157289215Y-102292979D01*
X157346557Y-102256787D01*
X157359743Y-102243749D01*
X157391121Y-102204222D01*
X157410259Y-102167720D01*
X157424304Y-102123836D01*
X157272320Y-102086131D01*
X157219037Y-102071849D01*
X157165148Y-102054855D01*
X157126537Y-102039678D01*
X157109139Y-102028418D01*
X157102408Y-102021937D01*
X157090114Y-102031117D01*
X157072623Y-102064556D01*
X157063477Y-102085538D01*
X157054750Y-102115263D01*
X156953301Y-102115263D01*
X156958594Y-102070355D01*
X156964613Y-102019737D01*
X156974489Y-101983335D01*
X156992600Y-101953542D01*
X157023629Y-101919500D01*
X157089162Y-101870029D01*
X157168530Y-101839972D01*
X157253050Y-101832223D01*
X157336311Y-101847338D01*
X157411901Y-101885874D01*
X157443805Y-101910796D01*
X157481318Y-101951170D01*
X157505664Y-101999484D01*
X157522973Y-102065664D01*
X157529780Y-102122081D01*
X157529600Y-102123836D01*
X157520736Y-102210365D01*
X157487786Y-102288673D01*
X157432685Y-102353453D01*
X157357187Y-102401154D01*
X157353084Y-102402966D01*
X157317776Y-102416105D01*
X157282353Y-102422667D01*
X157237669Y-102423585D01*
X157174582Y-102419794D01*
X157054582Y-102410500D01*
X156646284Y-102806842D01*
X156584825Y-102866632D01*
X156465070Y-102983699D01*
X156335212Y-103111240D01*
X156201259Y-103243329D01*
X156069217Y-103374035D01*
X155945096Y-103497430D01*
X155834902Y-103607585D01*
X155431817Y-104011987D01*
X155097986Y-104011987D01*
X154764156Y-104011987D01*
X154305529Y-104470772D01*
X153846902Y-104929557D01*
X153082109Y-104929557D01*
X152317316Y-104929557D01*
X151819920Y-105427097D01*
X151322524Y-105924637D01*
X151326451Y-106094612D01*
X151330378Y-106264588D01*
X151530373Y-106054964D01*
X151730368Y-105845340D01*
X151700680Y-105743164D01*
X151698146Y-105734390D01*
X151684371Y-105684535D01*
X151674664Y-105645778D01*
X151670991Y-105625885D01*
X151673134Y-105623983D01*
X151692892Y-105620331D01*
X151734192Y-105617309D01*
X151798077Y-105614893D01*
X151885590Y-105613057D01*
X151997775Y-105611777D01*
X152135674Y-105611027D01*
X152300331Y-105610783D01*
X152929671Y-105610783D01*
X153075151Y-105756760D01*
X153220631Y-105902737D01*
X153641041Y-105902737D01*
X154061450Y-105902737D01*
X154148733Y-106027418D01*
X154236016Y-106152099D01*
X155087925Y-105301008D01*
X155126229Y-105262737D01*
X155271635Y-105117351D01*
X155398735Y-104990048D01*
X155508679Y-104879617D01*
X155602620Y-104784852D01*
X155681709Y-104704544D01*
X155747097Y-104637485D01*
X155796664Y-104585872D01*
X156610247Y-104585872D01*
X156625407Y-104681949D01*
X156633988Y-104709859D01*
X156645153Y-104736006D01*
X156661486Y-104758437D01*
X156687511Y-104781887D01*
X156727754Y-104811091D01*
X156786740Y-104850784D01*
X156817380Y-104871081D01*
X156869266Y-104904196D01*
X156907283Y-104925251D01*
X156937522Y-104936875D01*
X156966076Y-104941693D01*
X156999037Y-104942334D01*
X157078824Y-104931664D01*
X157158225Y-104897464D01*
X157234589Y-104837646D01*
X157240642Y-104831719D01*
X157295105Y-104764365D01*
X157330165Y-104692773D01*
X157342419Y-104623700D01*
X157341389Y-104603600D01*
X157335837Y-104586606D01*
X157321833Y-104569968D01*
X157295445Y-104550163D01*
X157252743Y-104523669D01*
X157189796Y-104486965D01*
X157160413Y-104469899D01*
X157105751Y-104437078D01*
X157070006Y-104412951D01*
X157049290Y-104394288D01*
X157039712Y-104377861D01*
X157037384Y-104360441D01*
X157035502Y-104334552D01*
X157024486Y-104284907D01*
X157006967Y-104240241D01*
X156986826Y-104211952D01*
X156962754Y-104204903D01*
X156919716Y-104208086D01*
X156866992Y-104220985D01*
X156812304Y-104241657D01*
X156763374Y-104268160D01*
X156698916Y-104325256D01*
X156648814Y-104402092D01*
X156618654Y-104490775D01*
X156610247Y-104585872D01*
X155796664Y-104585872D01*
X155799935Y-104582466D01*
X155841374Y-104538280D01*
X155872567Y-104503718D01*
X155894665Y-104477573D01*
X155908818Y-104458635D01*
X155916179Y-104445697D01*
X155917898Y-104437551D01*
X155915128Y-104432988D01*
X155910246Y-104429601D01*
X155882277Y-104409805D01*
X155841011Y-104380294D01*
X155793486Y-104346097D01*
X155696550Y-104276136D01*
X155890114Y-104276136D01*
X156083679Y-104276136D01*
X156212877Y-104361328D01*
X156251467Y-104386450D01*
X156298292Y-104415037D01*
X156329571Y-104430431D01*
X156349596Y-104434581D01*
X156362658Y-104429439D01*
X156369464Y-104421909D01*
X156390047Y-104392226D01*
X156417334Y-104347735D01*
X156447287Y-104294862D01*
X156480820Y-104236712D01*
X156516225Y-104186807D01*
X156557298Y-104143604D01*
X156612495Y-104096977D01*
X156616055Y-104094150D01*
X156664157Y-104056933D01*
X156701019Y-104032920D01*
X156736300Y-104017937D01*
X156779662Y-104007811D01*
X156840764Y-103998369D01*
X156871151Y-103993768D01*
X156920798Y-103985001D01*
X156955006Y-103977233D01*
X156967707Y-103971739D01*
X156963635Y-103967466D01*
X156940087Y-103952035D01*
X156900257Y-103929121D01*
X156849545Y-103901914D01*
X156818424Y-103885428D01*
X156774859Y-103861149D01*
X156745969Y-103843415D01*
X156736824Y-103835225D01*
X156737019Y-103835078D01*
X156753550Y-103834968D01*
X156789556Y-103839198D01*
X156837607Y-103846907D01*
X156895546Y-103861461D01*
X156981281Y-103892630D01*
X157075558Y-103934987D01*
X157171184Y-103984982D01*
X157260964Y-104039064D01*
X157337705Y-104093684D01*
X157396243Y-104145109D01*
X157478916Y-104244155D01*
X157537273Y-104356069D01*
X157572227Y-104482365D01*
X157577257Y-104511861D01*
X157583829Y-104562268D01*
X157584163Y-104603980D01*
X157581389Y-104623700D01*
X157577854Y-104648826D01*
X157564500Y-104708633D01*
X157558950Y-104731117D01*
X157535627Y-104807517D01*
X157506246Y-104870464D01*
X157465357Y-104929929D01*
X157407510Y-104995885D01*
X157376843Y-105026785D01*
X157284007Y-105099811D01*
X157183402Y-105148259D01*
X157071212Y-105173622D01*
X156943626Y-105177392D01*
X156870104Y-105170401D01*
X156800936Y-105155147D01*
X156732119Y-105129404D01*
X156658629Y-105090901D01*
X156575443Y-105037364D01*
X156477538Y-104966520D01*
X156477014Y-104966127D01*
X156394673Y-104903563D01*
X156331913Y-104853809D01*
X156285462Y-104813877D01*
X156252051Y-104780778D01*
X156228410Y-104751523D01*
X156211269Y-104723121D01*
X156201301Y-104705298D01*
X156184822Y-104687965D01*
X156159493Y-104680750D01*
X156115855Y-104679310D01*
X156043096Y-104679310D01*
X155759461Y-104963198D01*
X155475826Y-105247087D01*
X155772208Y-105551887D01*
X156068589Y-105856688D01*
X156176632Y-105807609D01*
X156284675Y-105758531D01*
X156219623Y-105702103D01*
X156193265Y-105678864D01*
X156140081Y-105630539D01*
X156092009Y-105585344D01*
X156029448Y-105525014D01*
X156166177Y-105533505D01*
X156209250Y-105536660D01*
X156274602Y-105544753D01*
X156324703Y-105556989D01*
X156367765Y-105575059D01*
X156380105Y-105582021D01*
X156422673Y-105610523D01*
X156478847Y-105652067D01*
X156543695Y-105702619D01*
X156612284Y-105758146D01*
X156679682Y-105814612D01*
X156740956Y-105867985D01*
X156791173Y-105914230D01*
X156825400Y-105949313D01*
X156835574Y-105961451D01*
X156889589Y-106049392D01*
X156922138Y-106148476D01*
X156933950Y-106253973D01*
X156931407Y-106287241D01*
X156925757Y-106361151D01*
X156898289Y-106465281D01*
X156852279Y-106561630D01*
X156788456Y-106645470D01*
X156707551Y-106712068D01*
X156626979Y-106754982D01*
X156526101Y-106785987D01*
X156417147Y-106794547D01*
X156294860Y-106781546D01*
X156169118Y-106758952D01*
X155963781Y-106555348D01*
X155907132Y-106498872D01*
X155849188Y-106439732D01*
X155805615Y-106392706D01*
X155773148Y-106353823D01*
X155748522Y-106319112D01*
X155728474Y-106284603D01*
X155719008Y-106265264D01*
X156131890Y-106265264D01*
X156141774Y-106294915D01*
X156165963Y-106305911D01*
X156175153Y-106307718D01*
X156209915Y-106327329D01*
X156262067Y-106368455D01*
X156331526Y-106431034D01*
X156340960Y-106439844D01*
X156391242Y-106485281D01*
X156434670Y-106522109D01*
X156466876Y-106546748D01*
X156483490Y-106555613D01*
X156516483Y-106549559D01*
X156570577Y-106521531D01*
X156621581Y-106475997D01*
X156663485Y-106418770D01*
X156690279Y-106355662D01*
X156708671Y-106287241D01*
X156566757Y-106154075D01*
X156549742Y-106137980D01*
X156500696Y-106090027D01*
X156461140Y-106049017D01*
X156434764Y-106018876D01*
X156425257Y-106003530D01*
X156425229Y-106001046D01*
X156418971Y-105989267D01*
X156399381Y-105988520D01*
X156362680Y-105999399D01*
X156305086Y-106022503D01*
X156284124Y-106031706D01*
X156238740Y-106056422D01*
X156206307Y-106085612D01*
X156176487Y-106127736D01*
X156153852Y-106170039D01*
X156136015Y-106221969D01*
X156131890Y-106265264D01*
X155719008Y-106265264D01*
X155709737Y-106246323D01*
X155699380Y-106223599D01*
X155678875Y-106173362D01*
X155667305Y-106130197D01*
X155662184Y-106082492D01*
X155661030Y-106018634D01*
X155661030Y-105896365D01*
X155784205Y-106018970D01*
X155821290Y-106055695D01*
X155860992Y-106093772D01*
X155886955Y-106115845D01*
X155902546Y-106124214D01*
X155911134Y-106121181D01*
X155916090Y-106109047D01*
X155921327Y-106085455D01*
X155924989Y-106055572D01*
X155922626Y-106050677D01*
X155904009Y-106027637D01*
X155868874Y-105989120D01*
X155819629Y-105937624D01*
X155758681Y-105875645D01*
X155688437Y-105805682D01*
X155611305Y-105730229D01*
X155297432Y-105425834D01*
X154877945Y-105842681D01*
X154836662Y-105883603D01*
X154745718Y-105973053D01*
X154659253Y-106057179D01*
X154579788Y-106133582D01*
X154509846Y-106199864D01*
X154451947Y-106253626D01*
X154408613Y-106292471D01*
X154382366Y-106314000D01*
X154306275Y-106368473D01*
X153784555Y-106372782D01*
X153262836Y-106377092D01*
X153110145Y-106223330D01*
X152957453Y-106069568D01*
X152401247Y-106069568D01*
X151845041Y-106069568D01*
X151584234Y-106330104D01*
X151323427Y-106590640D01*
X151323427Y-107130064D01*
X151323427Y-107669488D01*
X151208812Y-107665450D01*
X151094198Y-107661412D01*
X151077782Y-107550192D01*
X151077101Y-107545044D01*
X151073940Y-107506013D01*
X151071124Y-107446268D01*
X151068653Y-107368361D01*
X151066525Y-107274846D01*
X151064740Y-107168278D01*
X151063297Y-107051208D01*
X151062194Y-106926192D01*
X151061431Y-106795783D01*
X151061006Y-106662533D01*
X151060920Y-106528998D01*
X151061171Y-106397730D01*
X151061757Y-106271282D01*
X151062679Y-106152210D01*
X151063935Y-106043065D01*
X151065525Y-105946402D01*
X151067447Y-105864774D01*
X151069700Y-105800736D01*
X151072284Y-105756839D01*
X151075197Y-105735639D01*
X151078439Y-105739689D01*
X151094035Y-105819935D01*
X151230093Y-105683320D01*
X151366151Y-105546704D01*
X151337838Y-105425277D01*
X151333644Y-105406797D01*
X151327545Y-105376526D01*
X151322579Y-105344861D01*
X151318637Y-105308867D01*
X151315612Y-105265609D01*
X151313394Y-105212153D01*
X151311876Y-105145565D01*
X151310948Y-105062910D01*
X151310502Y-104961254D01*
X151310429Y-104837661D01*
X151310622Y-104689199D01*
X151311720Y-104074548D01*
X151340133Y-104156129D01*
X151368546Y-104237710D01*
X151643887Y-103962627D01*
X151919229Y-103687544D01*
X151870930Y-103591635D01*
X151845298Y-103534054D01*
X151823626Y-103473497D01*
X151990703Y-103473497D01*
X152001058Y-103500520D01*
X152025059Y-103520086D01*
X152064699Y-103538278D01*
X152112894Y-103561618D01*
X152147873Y-103591332D01*
X152179395Y-103636935D01*
X152193300Y-103659556D01*
X152217114Y-103689325D01*
X152243171Y-103702145D01*
X152279479Y-103700628D01*
X152334047Y-103687387D01*
X152386460Y-103662039D01*
X152438084Y-103613248D01*
X152478210Y-103548786D01*
X152501834Y-103474990D01*
X152507058Y-103443257D01*
X152507820Y-103415695D01*
X152500156Y-103390720D01*
X152481301Y-103360066D01*
X152448491Y-103315464D01*
X152436009Y-103299390D01*
X152369798Y-103232652D01*
X152301037Y-103193458D01*
X152230005Y-103181862D01*
X152156982Y-103197923D01*
X152082247Y-103241695D01*
X152078999Y-103244189D01*
X152041222Y-103277779D01*
X152019542Y-103311894D01*
X152005867Y-103358960D01*
X152002941Y-103372745D01*
X151991995Y-103432933D01*
X151990703Y-103473497D01*
X151823626Y-103473497D01*
X151822517Y-103470399D01*
X151808598Y-103416719D01*
X151802520Y-103383411D01*
X151793874Y-103338792D01*
X151787639Y-103309907D01*
X151788866Y-103304805D01*
X151800277Y-103318629D01*
X151819669Y-103350160D01*
X151858624Y-103418219D01*
X151886455Y-103325969D01*
X151917102Y-103252812D01*
X151973920Y-103178559D01*
X152051210Y-103123000D01*
X152148652Y-103086428D01*
X152196763Y-103073004D01*
X152230534Y-103058935D01*
X152240221Y-103045790D01*
X152227742Y-103032256D01*
X152226754Y-103031593D01*
X152209231Y-103013858D01*
X152186590Y-102984886D01*
X152158693Y-102945709D01*
X152231126Y-102959698D01*
X152263788Y-102967842D01*
X152350743Y-103007222D01*
X152431299Y-103067833D01*
X152502140Y-103144903D01*
X152559952Y-103233662D01*
X152601420Y-103329338D01*
X152620672Y-103415695D01*
X152623228Y-103427161D01*
X152622063Y-103522360D01*
X152607611Y-103580121D01*
X152564194Y-103661343D01*
X152496165Y-103732074D01*
X152404748Y-103790804D01*
X152376624Y-103803835D01*
X152282856Y-103829075D01*
X152186286Y-103827114D01*
X152085261Y-103797990D01*
X152005989Y-103765387D01*
X151748123Y-104033435D01*
X151490258Y-104301483D01*
X151490258Y-104862278D01*
X151490258Y-105423072D01*
X152417985Y-104495345D01*
X153345712Y-103567618D01*
X153279944Y-103500846D01*
X153214177Y-103434075D01*
X153214177Y-102337125D01*
X153480108Y-102337125D01*
X153481138Y-102387758D01*
X153484204Y-102424394D01*
X153492828Y-102463540D01*
X153504800Y-102478579D01*
X153518665Y-102468285D01*
X153532967Y-102431431D01*
X153541285Y-102399288D01*
X153546596Y-102362599D01*
X153540896Y-102339233D01*
X153523509Y-102321323D01*
X153518561Y-102317639D01*
X153496704Y-102305382D01*
X153484591Y-102310772D01*
X153480108Y-102337125D01*
X153214177Y-102337125D01*
X153214177Y-102204652D01*
X153700767Y-102204652D01*
X153700933Y-102215606D01*
X153705506Y-102254773D01*
X153714555Y-102272629D01*
X153725664Y-102267055D01*
X153736420Y-102235933D01*
X153743442Y-102206056D01*
X153751058Y-102177959D01*
X153751506Y-102166881D01*
X153737279Y-102145390D01*
X153711194Y-102135352D01*
X153707436Y-102139971D01*
X153702642Y-102165042D01*
X153700767Y-102204652D01*
X153214177Y-102204652D01*
X153214177Y-101990370D01*
X153214177Y-100866451D01*
X153686864Y-100866451D01*
X153690957Y-100885978D01*
X153706581Y-100897811D01*
X153713470Y-100898148D01*
X153744813Y-100904892D01*
X153745127Y-100904964D01*
X153760370Y-100895873D01*
X153793393Y-100868288D01*
X153842714Y-100823602D01*
X153906852Y-100763210D01*
X153984328Y-100688502D01*
X154073659Y-100600874D01*
X154173366Y-100501717D01*
X154583404Y-100091461D01*
X154912585Y-100091461D01*
X155241766Y-100091461D01*
X155610586Y-99712616D01*
X155613746Y-99709370D01*
X155698871Y-99621505D01*
X155779712Y-99537310D01*
X155853734Y-99459479D01*
X155918405Y-99390706D01*
X155971190Y-99333684D01*
X156009556Y-99291108D01*
X156030968Y-99265672D01*
X156034102Y-99261528D01*
X156060037Y-99226286D01*
X156070288Y-99208157D01*
X156066180Y-99202747D01*
X156049037Y-99205657D01*
X156024812Y-99210913D01*
X155979445Y-99219831D01*
X155927407Y-99229410D01*
X155925021Y-99229834D01*
X155877128Y-99237415D01*
X155847564Y-99238280D01*
X155827782Y-99231458D01*
X155809235Y-99215979D01*
X155784621Y-99194032D01*
X155745407Y-99161400D01*
X155701294Y-99126269D01*
X155623387Y-99065662D01*
X155662810Y-99137155D01*
X155688550Y-99193449D01*
X155700536Y-99255834D01*
X155701114Y-99258845D01*
X155692408Y-99326825D01*
X155662423Y-99405038D01*
X155649411Y-99431434D01*
X155622853Y-99474136D01*
X155590619Y-99505825D01*
X155543123Y-99537113D01*
X155506438Y-99561104D01*
X155498095Y-99567524D01*
X155454207Y-99601298D01*
X155413120Y-99639582D01*
X155394709Y-99659429D01*
X155354289Y-99702381D01*
X155305754Y-99753461D01*
X155255956Y-99805438D01*
X155149787Y-99915730D01*
X154873635Y-99921458D01*
X154597483Y-99927186D01*
X154142174Y-100381139D01*
X154049415Y-100473887D01*
X153947367Y-100576791D01*
X153863698Y-100662352D01*
X153797433Y-100731611D01*
X153747594Y-100785609D01*
X153713204Y-100825387D01*
X153693286Y-100851987D01*
X153686864Y-100866451D01*
X153214177Y-100866451D01*
X153214177Y-100612665D01*
X153464423Y-100612665D01*
X153464423Y-100699628D01*
X153464423Y-100786590D01*
X153510196Y-100786590D01*
X153511075Y-100786583D01*
X153522951Y-100784946D01*
X153537189Y-100779355D01*
X153555525Y-100768247D01*
X153579697Y-100750057D01*
X153611439Y-100723221D01*
X153652490Y-100686174D01*
X153704586Y-100637354D01*
X153769462Y-100575196D01*
X153848856Y-100498135D01*
X153944504Y-100404607D01*
X154058143Y-100293049D01*
X154560318Y-99799507D01*
X154829728Y-99799507D01*
X155099137Y-99799507D01*
X155155036Y-99740421D01*
X155181253Y-99712386D01*
X155230955Y-99657017D01*
X155267996Y-99612470D01*
X155290015Y-99581665D01*
X155294654Y-99567524D01*
X155293287Y-99566895D01*
X155272370Y-99566614D01*
X155232719Y-99570201D01*
X155181475Y-99577053D01*
X155141790Y-99582876D01*
X155101157Y-99586929D01*
X155073267Y-99584744D01*
X155049390Y-99575254D01*
X155020797Y-99557390D01*
X155007835Y-99548089D01*
X154970576Y-99513952D01*
X154945324Y-99480284D01*
X154923972Y-99438993D01*
X154863876Y-99499090D01*
X154856911Y-99506002D01*
X154829565Y-99530962D01*
X154802725Y-99549115D01*
X154770752Y-99562343D01*
X154728009Y-99572528D01*
X154668859Y-99581552D01*
X154587663Y-99591296D01*
X154472998Y-99604374D01*
X153968711Y-100108519D01*
X153464423Y-100612665D01*
X153214177Y-100612665D01*
X153214177Y-100546664D01*
X153280258Y-100555430D01*
X153346339Y-100564196D01*
X153881544Y-100027706D01*
X154416749Y-99491215D01*
X154354188Y-99501665D01*
X154337930Y-99504396D01*
X154287111Y-99511906D01*
X154255929Y-99510582D01*
X154238024Y-99496294D01*
X154227037Y-99464913D01*
X154216612Y-99412308D01*
X154215043Y-99404055D01*
X154205927Y-99350918D01*
X154206211Y-99317783D01*
X154220072Y-99298060D01*
X154251687Y-99285159D01*
X154305232Y-99272491D01*
X154341550Y-99263632D01*
X154346748Y-99261407D01*
X154488920Y-99261407D01*
X154490658Y-99288968D01*
X154503444Y-99328739D01*
X154518044Y-99362335D01*
X154545260Y-99396601D01*
X154589442Y-99426239D01*
X154624549Y-99444914D01*
X154652258Y-99453888D01*
X154680087Y-99451434D01*
X154720866Y-99438775D01*
X154759768Y-99422000D01*
X154808479Y-99388749D01*
X154842125Y-99350228D01*
X154854680Y-99312142D01*
X154853892Y-99300577D01*
X154847227Y-99289718D01*
X154829342Y-99286993D01*
X154795017Y-99292061D01*
X154739030Y-99304580D01*
X154726945Y-99307417D01*
X154686932Y-99315919D01*
X154664913Y-99316567D01*
X154653470Y-99308175D01*
X154645188Y-99289555D01*
X154638500Y-99269369D01*
X155224358Y-99269369D01*
X155232960Y-99312142D01*
X155237472Y-99334575D01*
X155274728Y-99391704D01*
X155333432Y-99436001D01*
X155350706Y-99444896D01*
X155381538Y-99459265D01*
X155396881Y-99464127D01*
X155410853Y-99460390D01*
X155483952Y-99434145D01*
X155534450Y-99400420D01*
X155566704Y-99355296D01*
X155585071Y-99294854D01*
X155587105Y-99283654D01*
X155590071Y-99255834D01*
X155582819Y-99246710D01*
X155561912Y-99249558D01*
X155512082Y-99260874D01*
X155448591Y-99274468D01*
X155404730Y-99281488D01*
X155375846Y-99281740D01*
X155357287Y-99275027D01*
X155344402Y-99261155D01*
X155332540Y-99239929D01*
X155311558Y-99204668D01*
X155282713Y-99174973D01*
X155257827Y-99172030D01*
X155238390Y-99195754D01*
X155225896Y-99246060D01*
X155224358Y-99269369D01*
X154638500Y-99269369D01*
X154636825Y-99264314D01*
X154632239Y-99241867D01*
X154632057Y-99240060D01*
X154620083Y-99219058D01*
X154596090Y-99192477D01*
X154569501Y-99169670D01*
X154549738Y-99159989D01*
X154545184Y-99161769D01*
X154528003Y-99180577D01*
X154508292Y-99213294D01*
X154498798Y-99232514D01*
X154488920Y-99261407D01*
X154346748Y-99261407D01*
X154368096Y-99252268D01*
X154381180Y-99234648D01*
X154388492Y-99204493D01*
X154407200Y-99146198D01*
X154437983Y-99099292D01*
X154620796Y-99099292D01*
X154632239Y-99104379D01*
X154639599Y-99103375D01*
X154641508Y-99095110D01*
X154639470Y-99093446D01*
X154622971Y-99095110D01*
X154620796Y-99099292D01*
X154437983Y-99099292D01*
X154451387Y-99078867D01*
X154512978Y-99024670D01*
X154586359Y-98988268D01*
X154665912Y-98974320D01*
X154736233Y-98983237D01*
X154814362Y-99015422D01*
X154882416Y-99066808D01*
X154904020Y-99095110D01*
X154932900Y-99132945D01*
X154957384Y-99173445D01*
X154981507Y-99195214D01*
X155013396Y-99200217D01*
X155062473Y-99192809D01*
X155088954Y-99183204D01*
X155123020Y-99156343D01*
X155162462Y-99108724D01*
X155192925Y-99072047D01*
X155231910Y-99034278D01*
X155265238Y-99011006D01*
X155291817Y-98995780D01*
X155310676Y-98971688D01*
X155319364Y-98931736D01*
X155324292Y-98888080D01*
X155330146Y-98827557D01*
X155334846Y-98769541D01*
X155337951Y-98720319D01*
X155339015Y-98686177D01*
X155337596Y-98673399D01*
X155336364Y-98673615D01*
X155316711Y-98679476D01*
X155279020Y-98691718D01*
X155230050Y-98708155D01*
X155218505Y-98712072D01*
X155171641Y-98727752D01*
X155137691Y-98738759D01*
X155123346Y-98742912D01*
X155121834Y-98734239D01*
X155120279Y-98702865D01*
X155119220Y-98653968D01*
X155118829Y-98593221D01*
X155118829Y-98443530D01*
X155227283Y-98404995D01*
X155259698Y-98393179D01*
X155290519Y-98380234D01*
X155318751Y-98364925D01*
X155348088Y-98344356D01*
X155382223Y-98315628D01*
X155424849Y-98275843D01*
X155479660Y-98222104D01*
X155550349Y-98151512D01*
X155579870Y-98121945D01*
X157052875Y-98121945D01*
X157055656Y-98127541D01*
X157063130Y-98134700D01*
X157067346Y-98138185D01*
X157095808Y-98153279D01*
X157134924Y-98167521D01*
X157150947Y-98172040D01*
X157181841Y-98176560D01*
X157207970Y-98168634D01*
X157242404Y-98145594D01*
X157254227Y-98136350D01*
X157291847Y-98100297D01*
X157318810Y-98065161D01*
X157343037Y-98022984D01*
X157214540Y-98063683D01*
X157206563Y-98066205D01*
X157165433Y-98079208D01*
X157111066Y-98096545D01*
X157076742Y-98108248D01*
X157058624Y-98116114D01*
X157052875Y-98121945D01*
X155579870Y-98121945D01*
X155744142Y-97957416D01*
X156979772Y-97957416D01*
X156987258Y-98012064D01*
X156988615Y-98020462D01*
X157000275Y-98060669D01*
X157016064Y-98088032D01*
X157028760Y-98098913D01*
X157035896Y-98094387D01*
X157037384Y-98066205D01*
X157029880Y-98028619D01*
X157008578Y-97990237D01*
X156979772Y-97957416D01*
X155744142Y-97957416D01*
X155764963Y-97936563D01*
X156309870Y-97936563D01*
X156391180Y-97936553D01*
X156513905Y-97936434D01*
X156612910Y-97936074D01*
X156690799Y-97935345D01*
X156750175Y-97934115D01*
X156793645Y-97932255D01*
X156823811Y-97929635D01*
X156843279Y-97926126D01*
X156854654Y-97921597D01*
X156860538Y-97915919D01*
X156863538Y-97908961D01*
X156875978Y-97885341D01*
X156901217Y-97848208D01*
X156902764Y-97846196D01*
X157037384Y-97846196D01*
X157044336Y-97853147D01*
X157051287Y-97846196D01*
X157044336Y-97839245D01*
X157037384Y-97846196D01*
X156902764Y-97846196D01*
X156913456Y-97832293D01*
X157079092Y-97832293D01*
X157086043Y-97839245D01*
X157092995Y-97832293D01*
X157086043Y-97825342D01*
X157079092Y-97832293D01*
X156913456Y-97832293D01*
X156933533Y-97806188D01*
X156957914Y-97777375D01*
X156990903Y-97745678D01*
X157024442Y-97726476D01*
X157068211Y-97713079D01*
X157121206Y-97702540D01*
X157207970Y-97697162D01*
X157280488Y-97708851D01*
X157334627Y-97737232D01*
X157367983Y-97769013D01*
X157412497Y-97832293D01*
X157420872Y-97844199D01*
G37*
G36*
X157433285Y-92340927D02*
G01*
X157450971Y-92370522D01*
X157463567Y-92403258D01*
X157476355Y-92448986D01*
X157482407Y-92473101D01*
X157487941Y-92510515D01*
X157484230Y-92535434D01*
X157483173Y-92542532D01*
X157467133Y-92583300D01*
X157466315Y-92585135D01*
X157420209Y-92660506D01*
X157354564Y-92730981D01*
X157277204Y-92788122D01*
X157218118Y-92823058D01*
X157218118Y-93173717D01*
X157218118Y-93524375D01*
X156455009Y-94284601D01*
X155691900Y-95044828D01*
X155369075Y-95044828D01*
X155046250Y-95044828D01*
X154561193Y-95519411D01*
X154076136Y-95993994D01*
X154076136Y-96275741D01*
X154076136Y-96557488D01*
X154114368Y-96570867D01*
X154134091Y-96580148D01*
X154173658Y-96604989D01*
X154215162Y-96636430D01*
X154238289Y-96656695D01*
X154257347Y-96678380D01*
X154266325Y-96688595D01*
X154285141Y-96726165D01*
X154301278Y-96780338D01*
X154301856Y-96782594D01*
X154313800Y-96833751D01*
X154317824Y-96870968D01*
X154317568Y-96873353D01*
X154314013Y-96906491D01*
X154302450Y-96952565D01*
X154294938Y-96977821D01*
X154277335Y-97019257D01*
X154251432Y-97052004D01*
X154209383Y-97087433D01*
X154174807Y-97112813D01*
X154132115Y-97141252D01*
X154100466Y-97159092D01*
X154094264Y-97161935D01*
X154078764Y-97171084D01*
X154069299Y-97184574D01*
X154064382Y-97208272D01*
X154062523Y-97248043D01*
X154062234Y-97309754D01*
X154062234Y-97443124D01*
X153353203Y-98152053D01*
X152644171Y-98860981D01*
X152645389Y-98930545D01*
X152645840Y-98946405D01*
X152649710Y-99009591D01*
X152655816Y-99069022D01*
X152665025Y-99137934D01*
X152756953Y-99173291D01*
X152785987Y-99185600D01*
X152858965Y-99224702D01*
X152930492Y-99272758D01*
X152992258Y-99323850D01*
X153035958Y-99372059D01*
X153048292Y-99389381D01*
X153065136Y-99413036D01*
X153330947Y-99147487D01*
X153596758Y-98881938D01*
X153909552Y-98881938D01*
X154222345Y-98881938D01*
X154535037Y-98568234D01*
X154847729Y-98254530D01*
X154766059Y-98290182D01*
X154725982Y-98307042D01*
X154690467Y-98320625D01*
X154672217Y-98325835D01*
X154669545Y-98313801D01*
X154666951Y-98276886D01*
X154664662Y-98218094D01*
X154662753Y-98140471D01*
X154661297Y-98047061D01*
X154660370Y-97940909D01*
X154660044Y-97825062D01*
X154660044Y-97324289D01*
X154753887Y-97262951D01*
X154775172Y-97247388D01*
X154814438Y-97214575D01*
X154867643Y-97166778D01*
X154935546Y-97103271D01*
X155018902Y-97023326D01*
X155118470Y-96926215D01*
X155235004Y-96811211D01*
X155369264Y-96677586D01*
X155522004Y-96524614D01*
X155582260Y-96464088D01*
X155706305Y-96339262D01*
X155811931Y-96232588D01*
X155900068Y-96143079D01*
X155971647Y-96069753D01*
X156027599Y-96011625D01*
X156068854Y-95967711D01*
X156096344Y-95937026D01*
X156110999Y-95918587D01*
X156113749Y-95911409D01*
X156105525Y-95914509D01*
X156087259Y-95926902D01*
X156057600Y-95948102D01*
X156015472Y-95976751D01*
X155985405Y-95995291D01*
X155972502Y-96000452D01*
X155969348Y-95996243D01*
X155956531Y-95967815D01*
X155941107Y-95922531D01*
X155925276Y-95868292D01*
X155911243Y-95813000D01*
X155901208Y-95764558D01*
X155897373Y-95730866D01*
X155897755Y-95710505D01*
X155901355Y-95688557D01*
X155911894Y-95668388D01*
X155933090Y-95645241D01*
X155968661Y-95614360D01*
X156022323Y-95570988D01*
X156068904Y-95533031D01*
X156109453Y-95497206D01*
X156121088Y-95484483D01*
X156399641Y-95484483D01*
X156402179Y-95533654D01*
X156409227Y-95585171D01*
X156434136Y-95658072D01*
X156478260Y-95715787D01*
X156545165Y-95764057D01*
X156556354Y-95769844D01*
X156620960Y-95788859D01*
X156700062Y-95794348D01*
X156785196Y-95785554D01*
X156813016Y-95774081D01*
X156854805Y-95742213D01*
X156896115Y-95698208D01*
X156930139Y-95649569D01*
X156950072Y-95603798D01*
X156956195Y-95576954D01*
X156957427Y-95555951D01*
X156948987Y-95555077D01*
X156935639Y-95563801D01*
X156903158Y-95585734D01*
X156857670Y-95616798D01*
X156804516Y-95653358D01*
X156675917Y-95742104D01*
X156675612Y-95695847D01*
X156674800Y-95681357D01*
X156658823Y-95617880D01*
X156626645Y-95553806D01*
X156583828Y-95500945D01*
X156564956Y-95486670D01*
X156515596Y-95461705D01*
X156458394Y-95442681D01*
X156406277Y-95434439D01*
X156405675Y-95434537D01*
X156400896Y-95449266D01*
X156399641Y-95484483D01*
X156121088Y-95484483D01*
X156134679Y-95469620D01*
X156148555Y-95445792D01*
X156155054Y-95421240D01*
X156158183Y-95406294D01*
X156401701Y-95406294D01*
X156410835Y-95401189D01*
X156436805Y-95382892D01*
X156473779Y-95355369D01*
X156516202Y-95322923D01*
X156558522Y-95289856D01*
X156595185Y-95260470D01*
X156620638Y-95239067D01*
X156629329Y-95229949D01*
X156628359Y-95229577D01*
X156610231Y-95231935D01*
X156577818Y-95240111D01*
X156550545Y-95250189D01*
X156487652Y-95292471D01*
X156428085Y-95361111D01*
X156420857Y-95371498D01*
X156405191Y-95396354D01*
X156401701Y-95406294D01*
X156158183Y-95406294D01*
X156163447Y-95381145D01*
X156202446Y-95282386D01*
X156263440Y-95191942D01*
X156342398Y-95113390D01*
X156435287Y-95050311D01*
X156538074Y-95006281D01*
X156646728Y-94984881D01*
X156658448Y-94983968D01*
X156711322Y-94981679D01*
X156753834Y-94985345D01*
X156797858Y-94996856D01*
X156855267Y-95018103D01*
X156957488Y-95068968D01*
X157051837Y-95142994D01*
X157121147Y-95229949D01*
X157124987Y-95234766D01*
X157176418Y-95343757D01*
X157184264Y-95368556D01*
X157203616Y-95482585D01*
X157199365Y-95555951D01*
X157197076Y-95595463D01*
X157166047Y-95703517D01*
X157111932Y-95803073D01*
X157036138Y-95890460D01*
X156940066Y-95962003D01*
X156936574Y-95964056D01*
X156887519Y-95991496D01*
X156844019Y-96013547D01*
X156815127Y-96025600D01*
X156791438Y-96036197D01*
X156749652Y-96058846D01*
X156696333Y-96089987D01*
X156637485Y-96126219D01*
X156494414Y-96216564D01*
X156387054Y-96207819D01*
X156380536Y-96207279D01*
X156324067Y-96201883D01*
X156275574Y-96196105D01*
X156244938Y-96191107D01*
X156241269Y-96190619D01*
X156230873Y-96192380D01*
X156216547Y-96199351D01*
X156196716Y-96212972D01*
X156169801Y-96234686D01*
X156134226Y-96265932D01*
X156088414Y-96308154D01*
X156030788Y-96362792D01*
X155959771Y-96431287D01*
X155873786Y-96515081D01*
X155771255Y-96615615D01*
X155650603Y-96734332D01*
X155091024Y-97285525D01*
X155091024Y-97747751D01*
X155090735Y-97855070D01*
X155089454Y-97985058D01*
X155087202Y-98095463D01*
X155084039Y-98184232D01*
X155080027Y-98249312D01*
X155075224Y-98288650D01*
X155072828Y-98300329D01*
X155068012Y-98319630D01*
X155060981Y-98338340D01*
X155049819Y-98358730D01*
X155032608Y-98383072D01*
X155007431Y-98413638D01*
X154972373Y-98452699D01*
X154925517Y-98502528D01*
X154864945Y-98565397D01*
X154788741Y-98643576D01*
X154694988Y-98739339D01*
X154330551Y-99111356D01*
X154239294Y-99135672D01*
X154231555Y-99137675D01*
X154188133Y-99146664D01*
X154137479Y-99153031D01*
X154074458Y-99157136D01*
X153993932Y-99159335D01*
X153890763Y-99159989D01*
X153633489Y-99159989D01*
X153414829Y-99388828D01*
X153367008Y-99439095D01*
X153294294Y-99516980D01*
X153237961Y-99580066D01*
X153195763Y-99631358D01*
X153165456Y-99673858D01*
X153144791Y-99710572D01*
X153131525Y-99744505D01*
X153129026Y-99755021D01*
X153123410Y-99778660D01*
X153116860Y-99806688D01*
X153083955Y-99887613D01*
X153033228Y-99970300D01*
X152970167Y-100047675D01*
X152900261Y-100112662D01*
X152828999Y-100158185D01*
X152783197Y-100180027D01*
X152783197Y-100855254D01*
X152783197Y-101530482D01*
X152089321Y-102224254D01*
X151395445Y-102918026D01*
X151385539Y-103136607D01*
X151375634Y-103355188D01*
X150953307Y-103777344D01*
X150530980Y-104199501D01*
X150530980Y-105933932D01*
X150530980Y-107668363D01*
X150350247Y-107668363D01*
X150169514Y-107668363D01*
X150169514Y-106517837D01*
X150169514Y-105367311D01*
X149759388Y-104957362D01*
X149349262Y-104547413D01*
X149349205Y-104304029D01*
X149349074Y-104261729D01*
X149347992Y-104160545D01*
X149345996Y-104057154D01*
X149343303Y-103961559D01*
X149340128Y-103883764D01*
X149331106Y-103706883D01*
X149281476Y-103690503D01*
X149278856Y-103689605D01*
X149240728Y-103673025D01*
X149190385Y-103647050D01*
X149137988Y-103616893D01*
X149082280Y-103578312D01*
X148998111Y-103495098D01*
X148936358Y-103395486D01*
X148897413Y-103280025D01*
X148892259Y-103256434D01*
X148883388Y-103207545D01*
X148881323Y-103168113D01*
X148882581Y-103156979D01*
X149112918Y-103156979D01*
X149119869Y-103163930D01*
X149126821Y-103156979D01*
X149119869Y-103150027D01*
X149112918Y-103156979D01*
X148882581Y-103156979D01*
X148886080Y-103126004D01*
X148892513Y-103094417D01*
X149127855Y-103094417D01*
X149127866Y-103096115D01*
X149128864Y-103116905D01*
X149133680Y-103114547D01*
X149145729Y-103087772D01*
X149163384Y-103046371D01*
X149181662Y-103132501D01*
X149187397Y-103156979D01*
X149190299Y-103169364D01*
X149204610Y-103207623D01*
X149226843Y-103236906D01*
X149263690Y-103268297D01*
X149289910Y-103286702D01*
X149341313Y-103315319D01*
X149387392Y-103333061D01*
X149413821Y-103340778D01*
X149437704Y-103354042D01*
X149441049Y-103370740D01*
X149433961Y-103399828D01*
X149425659Y-103438506D01*
X149424792Y-103442918D01*
X149420445Y-103471379D01*
X149421146Y-103482231D01*
X149422598Y-103481768D01*
X149442131Y-103475523D01*
X149475485Y-103464853D01*
X149501813Y-103453145D01*
X149546603Y-103425460D01*
X149590503Y-103391286D01*
X149618421Y-103363830D01*
X149667572Y-103291665D01*
X149690736Y-103213963D01*
X149687809Y-103134067D01*
X149658685Y-103055323D01*
X149603262Y-102981074D01*
X149599112Y-102976846D01*
X149526648Y-102920660D01*
X149448206Y-102891524D01*
X149364086Y-102889553D01*
X149320802Y-102902070D01*
X149267328Y-102930642D01*
X149215238Y-102969416D01*
X149170590Y-103013139D01*
X149139443Y-103056557D01*
X149127855Y-103094417D01*
X148892513Y-103094417D01*
X148897672Y-103069082D01*
X148898743Y-103064291D01*
X148914334Y-103005723D01*
X148932476Y-102952577D01*
X148949460Y-102915829D01*
X148977805Y-102869315D01*
X148296931Y-102185944D01*
X148227458Y-102116147D01*
X148115002Y-102002870D01*
X148008454Y-101895185D01*
X147909535Y-101794848D01*
X147819965Y-101703618D01*
X147741463Y-101623252D01*
X147675750Y-101555509D01*
X147624545Y-101502147D01*
X147589570Y-101464923D01*
X147572542Y-101445595D01*
X147561532Y-101429799D01*
X147534763Y-101378638D01*
X147519673Y-101330115D01*
X147516129Y-101310414D01*
X147507858Y-101286276D01*
X147491577Y-101267342D01*
X147461589Y-101247891D01*
X147412197Y-101222201D01*
X147342239Y-101180704D01*
X147258543Y-101113622D01*
X147188598Y-101037416D01*
X147139277Y-100958722D01*
X147123656Y-100917406D01*
X147106250Y-100849326D01*
X147094373Y-100775181D01*
X147092910Y-100761734D01*
X147088143Y-100703649D01*
X147088239Y-100699290D01*
X147319486Y-100699290D01*
X147319495Y-100700927D01*
X147323247Y-100718328D01*
X147339015Y-100724009D01*
X147374396Y-100720969D01*
X147384817Y-100719623D01*
X147415456Y-100718428D01*
X147430126Y-100728171D01*
X147438039Y-100753573D01*
X147444541Y-100777773D01*
X147476251Y-100846836D01*
X147522230Y-100907019D01*
X147576920Y-100952051D01*
X147634763Y-100975655D01*
X147664722Y-100982338D01*
X147673289Y-100988638D01*
X147659867Y-100996307D01*
X147646475Y-101001632D01*
X147640261Y-101006174D01*
X147660099Y-101006161D01*
X147661234Y-101006120D01*
X147729924Y-100990129D01*
X147790938Y-100949800D01*
X147840892Y-100888227D01*
X147876399Y-100808502D01*
X147888083Y-100767492D01*
X147892906Y-100733035D01*
X147889199Y-100697807D01*
X147877009Y-100648946D01*
X147868397Y-100621045D01*
X147831588Y-100547328D01*
X147778400Y-100494320D01*
X147706114Y-100459001D01*
X147693343Y-100455026D01*
X147606173Y-100442893D01*
X147522795Y-100458287D01*
X147442945Y-100501252D01*
X147400713Y-100539222D01*
X147359207Y-100592953D01*
X147330321Y-100649212D01*
X147319486Y-100699290D01*
X147088239Y-100699290D01*
X147089114Y-100659396D01*
X147096800Y-100617539D01*
X147112177Y-100566642D01*
X147135525Y-100508215D01*
X147195529Y-100412614D01*
X147279235Y-100329414D01*
X147387803Y-100257315D01*
X147499405Y-100195731D01*
X147499812Y-99333058D01*
X147500220Y-98470384D01*
X146846799Y-97808465D01*
X146193378Y-97146546D01*
X146193378Y-96629584D01*
X146193378Y-96112622D01*
X146121845Y-96047937D01*
X146082802Y-96014985D01*
X146042967Y-95985764D01*
X146014100Y-95969349D01*
X146006774Y-95965725D01*
X145975921Y-95943579D01*
X145935685Y-95908479D01*
X145892839Y-95866188D01*
X145807791Y-95776930D01*
X145732960Y-95818865D01*
X145698195Y-95837251D01*
X145653148Y-95858181D01*
X145620510Y-95870002D01*
X145588358Y-95879017D01*
X145545041Y-95893594D01*
X145507191Y-95907985D01*
X145596562Y-95999171D01*
X145685934Y-96090356D01*
X145600662Y-96084693D01*
X145536736Y-96075458D01*
X145460877Y-96050551D01*
X145381323Y-96008536D01*
X145294258Y-95947341D01*
X145195868Y-95864896D01*
X145053367Y-95738040D01*
X145053367Y-96088499D01*
X145053367Y-96438958D01*
X145123762Y-96430621D01*
X145129833Y-96429965D01*
X145199515Y-96432099D01*
X145270904Y-96453305D01*
X145348048Y-96495260D01*
X145434997Y-96559644D01*
X145490064Y-96605589D01*
X145544919Y-96655597D01*
X145565986Y-96679073D01*
X145583840Y-96698969D01*
X145610719Y-96740964D01*
X145629451Y-96786841D01*
X145643928Y-96841858D01*
X145644438Y-96844134D01*
X145659441Y-96900436D01*
X145676771Y-96950624D01*
X145692781Y-96984077D01*
X145704541Y-96998404D01*
X145734602Y-97031616D01*
X145780331Y-97080591D01*
X145839659Y-97143158D01*
X145910518Y-97217151D01*
X145990838Y-97300400D01*
X146078553Y-97390738D01*
X146171592Y-97485996D01*
X146547311Y-97869555D01*
X146624358Y-97948210D01*
X146624358Y-98359068D01*
X146624358Y-98769926D01*
X146739054Y-98825729D01*
X146800872Y-98856726D01*
X146849302Y-98884511D01*
X146885952Y-98911767D01*
X146917977Y-98943874D01*
X146952528Y-98986207D01*
X146967829Y-99008577D01*
X146992495Y-99052427D01*
X147017996Y-99104714D01*
X147042087Y-99159905D01*
X147062523Y-99212464D01*
X147075379Y-99251728D01*
X147077059Y-99256858D01*
X147083448Y-99287553D01*
X147079446Y-99299015D01*
X147075821Y-99298344D01*
X147052296Y-99291302D01*
X147016194Y-99279066D01*
X146959653Y-99259117D01*
X146935753Y-99331072D01*
X146919682Y-99372811D01*
X146886698Y-99441400D01*
X146846377Y-99512640D01*
X146803123Y-99579411D01*
X146761341Y-99634590D01*
X146725437Y-99671057D01*
X146722706Y-99673180D01*
X146654193Y-99717009D01*
X146574586Y-99754564D01*
X146498833Y-99778742D01*
X146489673Y-99781036D01*
X146469646Y-99791338D01*
X146473547Y-99801733D01*
X146498415Y-99809820D01*
X146541290Y-99813197D01*
X146590296Y-99813410D01*
X146589981Y-99882616D01*
X146585372Y-100894335D01*
X146581445Y-101756407D01*
X146580701Y-101919650D01*
X146580448Y-101975260D01*
X146800860Y-102195375D01*
X146897627Y-102292012D01*
X147429606Y-102823274D01*
X148278764Y-103671288D01*
X148278764Y-103948463D01*
X148278764Y-104225637D01*
X148954220Y-104903934D01*
X149629677Y-105582230D01*
X149628907Y-105694198D01*
X149622817Y-106580113D01*
X149621828Y-106711853D01*
X149620404Y-106871484D01*
X149618813Y-107021962D01*
X149617093Y-107160955D01*
X149615282Y-107286133D01*
X149613416Y-107395163D01*
X149611533Y-107485714D01*
X149609671Y-107555455D01*
X149607865Y-107602054D01*
X149606154Y-107623180D01*
X149596352Y-107668363D01*
X149486710Y-107668363D01*
X149377067Y-107668363D01*
X149377067Y-106875917D01*
X149377067Y-106083470D01*
X148963328Y-106083470D01*
X148549589Y-106083470D01*
X148503704Y-106129403D01*
X148285715Y-106347619D01*
X148021840Y-106611768D01*
X147618617Y-106611768D01*
X147215394Y-106611768D01*
X146817983Y-106214535D01*
X146420573Y-105817302D01*
X146376871Y-105835690D01*
X146366941Y-105841477D01*
X146335235Y-105865532D01*
X146289006Y-105904422D01*
X146231694Y-105955135D01*
X146166741Y-106014663D01*
X146097587Y-106079994D01*
X145987431Y-106185630D01*
X145862003Y-106305911D01*
X145030181Y-106307129D01*
X144892819Y-106307454D01*
X144746937Y-106308075D01*
X144610090Y-106308941D01*
X144484959Y-106310022D01*
X144374225Y-106311286D01*
X144280571Y-106312703D01*
X144206677Y-106314241D01*
X144155226Y-106315869D01*
X144128898Y-106317556D01*
X144089449Y-106324150D01*
X144064183Y-106335414D01*
X144044985Y-106358112D01*
X144022924Y-106399118D01*
X144013995Y-106416363D01*
X143964128Y-106495535D01*
X143904842Y-106558607D01*
X143827222Y-106615432D01*
X143756994Y-106654451D01*
X143656856Y-106692765D01*
X143559708Y-106710871D01*
X143471613Y-106707205D01*
X143415431Y-106693635D01*
X143305694Y-106646394D01*
X143203598Y-106572746D01*
X143148743Y-106519823D01*
X143099415Y-106455387D01*
X143065846Y-106383460D01*
X143042403Y-106294309D01*
X143034212Y-106251898D01*
X143027538Y-106205231D01*
X143026962Y-106165264D01*
X143030269Y-106139080D01*
X143265980Y-106139080D01*
X143266161Y-106139046D01*
X143279411Y-106129526D01*
X143309183Y-106105510D01*
X143351237Y-106070483D01*
X143401328Y-106027928D01*
X143404254Y-106025422D01*
X143454319Y-105983132D01*
X143496452Y-105948582D01*
X143526305Y-105925273D01*
X143539526Y-105916707D01*
X143543162Y-105921425D01*
X143550037Y-105946568D01*
X143556249Y-105986152D01*
X143566204Y-106034302D01*
X143600950Y-106103475D01*
X143657351Y-106155500D01*
X143734541Y-106189391D01*
X143815360Y-106212067D01*
X143687100Y-106334839D01*
X143677506Y-106344077D01*
X143633148Y-106388418D01*
X143600020Y-106424296D01*
X143581182Y-106448237D01*
X143579694Y-106456768D01*
X143635602Y-106445396D01*
X143696384Y-106418490D01*
X143746888Y-106382342D01*
X143759471Y-106369969D01*
X143801565Y-106316517D01*
X143823583Y-106258558D01*
X143829940Y-106185630D01*
X143829938Y-106183708D01*
X143826342Y-106129224D01*
X143812990Y-106083779D01*
X143785553Y-106032437D01*
X143768529Y-106005727D01*
X143740212Y-105971519D01*
X143705406Y-105946486D01*
X143654007Y-105922155D01*
X143582903Y-105898173D01*
X143519498Y-105893375D01*
X143456735Y-105909236D01*
X143385946Y-105946545D01*
X143354353Y-105966650D01*
X143326336Y-105985647D01*
X143315545Y-105994667D01*
X143313269Y-106002169D01*
X143303246Y-106029492D01*
X143287943Y-106069053D01*
X143277221Y-106097495D01*
X143267460Y-106127455D01*
X143265980Y-106139080D01*
X143030269Y-106139080D01*
X143032584Y-106120744D01*
X143044506Y-106060419D01*
X143051000Y-106030385D01*
X143064889Y-105977706D01*
X143081839Y-105937384D01*
X143106910Y-105898939D01*
X143145159Y-105851893D01*
X143195702Y-105797513D01*
X143251896Y-105752174D01*
X143320282Y-105713083D01*
X143359762Y-105691139D01*
X143422274Y-105651365D01*
X143489665Y-105604231D01*
X143552880Y-105555859D01*
X143685944Y-105448341D01*
X143792943Y-105440249D01*
X143802459Y-105439546D01*
X143858495Y-105437062D01*
X143901767Y-105440527D01*
X143944893Y-105451952D01*
X144000491Y-105473350D01*
X144091985Y-105520181D01*
X144167372Y-105577609D01*
X144187927Y-105598593D01*
X144231401Y-105652381D01*
X144267991Y-105709715D01*
X144293223Y-105763079D01*
X144302628Y-105804957D01*
X144302636Y-105806373D01*
X144303394Y-105812074D01*
X144306878Y-105816904D01*
X144315179Y-105820937D01*
X144330387Y-105824244D01*
X144354591Y-105826897D01*
X144389881Y-105828968D01*
X144438348Y-105830529D01*
X144502081Y-105831653D01*
X144583169Y-105832410D01*
X144683704Y-105832874D01*
X144805774Y-105833116D01*
X144951469Y-105833209D01*
X145122880Y-105833224D01*
X145260147Y-105833333D01*
X145400432Y-105833685D01*
X145529875Y-105834255D01*
X145646051Y-105835022D01*
X145746538Y-105835962D01*
X145828913Y-105837052D01*
X145890752Y-105838270D01*
X145929633Y-105839592D01*
X145943131Y-105840996D01*
X145939225Y-105848534D01*
X145921743Y-105874695D01*
X145893443Y-105914415D01*
X145857865Y-105962643D01*
X145852334Y-105970033D01*
X145827421Y-106003624D01*
X145811981Y-106025657D01*
X145807477Y-106034982D01*
X145815372Y-106030448D01*
X145837129Y-106010905D01*
X145874210Y-105975203D01*
X145928077Y-105922192D01*
X146000194Y-105850721D01*
X146227790Y-105624922D01*
X146103129Y-105499681D01*
X145978468Y-105374439D01*
X145102509Y-105374439D01*
X144226550Y-105374439D01*
X144052575Y-105201311D01*
X143878599Y-105028183D01*
X143785490Y-105054250D01*
X143741375Y-105065789D01*
X143699604Y-105072637D01*
X143662685Y-105071282D01*
X143618659Y-105062301D01*
X143565334Y-105047258D01*
X143457158Y-105000528D01*
X143371457Y-104937435D01*
X143364547Y-104928752D01*
X144896690Y-104928752D01*
X144897990Y-104935579D01*
X144911748Y-104939889D01*
X144941800Y-104942256D01*
X144991984Y-104943254D01*
X145066135Y-104943459D01*
X145250043Y-104943459D01*
X145664685Y-104943459D01*
X145960374Y-104943459D01*
X146256062Y-104943459D01*
X146846799Y-105534319D01*
X147437535Y-106125178D01*
X147719124Y-106125178D01*
X147739343Y-106125187D01*
X147822397Y-106125421D01*
X147894172Y-106125936D01*
X147950539Y-106126681D01*
X147987364Y-106127604D01*
X148000516Y-106128653D01*
X147998619Y-106134681D01*
X147989097Y-106161948D01*
X147973384Y-106205887D01*
X147953534Y-106260728D01*
X147940449Y-106296924D01*
X147923543Y-106344549D01*
X147912355Y-106377205D01*
X147908821Y-106389327D01*
X147909449Y-106388870D01*
X147923194Y-106375816D01*
X147952042Y-106347453D01*
X147992311Y-106307422D01*
X148040316Y-106259365D01*
X148169737Y-106129403D01*
X148074798Y-106120438D01*
X148068976Y-106119919D01*
X148015389Y-106116611D01*
X147943895Y-106113906D01*
X147863129Y-106112071D01*
X147781724Y-106111374D01*
X147583589Y-106111275D01*
X147175098Y-105707877D01*
X147693043Y-105707877D01*
X147695183Y-105714113D01*
X147701807Y-105722003D01*
X147710023Y-105729929D01*
X147722015Y-105736914D01*
X147740296Y-105742042D01*
X147768450Y-105745598D01*
X147810063Y-105747868D01*
X147868723Y-105749136D01*
X147948015Y-105749688D01*
X148051526Y-105749808D01*
X148108774Y-105749879D01*
X148194732Y-105750275D01*
X148268294Y-105750971D01*
X148325608Y-105751913D01*
X148362821Y-105753049D01*
X148376082Y-105754325D01*
X148375863Y-105755472D01*
X148370002Y-105774743D01*
X148357773Y-105812131D01*
X148341355Y-105860941D01*
X148337424Y-105872622D01*
X148322590Y-105919425D01*
X148313296Y-105953388D01*
X148311412Y-105967825D01*
X148315049Y-105967512D01*
X148335097Y-105956194D01*
X148365526Y-105934197D01*
X148377771Y-105924770D01*
X148412687Y-105898915D01*
X148437601Y-105881883D01*
X148451433Y-105864989D01*
X148469558Y-105828264D01*
X148486452Y-105781089D01*
X148512558Y-105694198D01*
X148094601Y-105694198D01*
X148034691Y-105694202D01*
X147928417Y-105694307D01*
X147845884Y-105694704D01*
X147784340Y-105695587D01*
X147741035Y-105697151D01*
X147713218Y-105699591D01*
X147698138Y-105703101D01*
X147693043Y-105707877D01*
X147175098Y-105707877D01*
X146893762Y-105430049D01*
X146203935Y-104748823D01*
X146006621Y-104748823D01*
X145809308Y-104748823D01*
X145774633Y-104787055D01*
X145764352Y-104798994D01*
X145732682Y-104840127D01*
X145702322Y-104884373D01*
X145664685Y-104943459D01*
X145250043Y-104943459D01*
X145223943Y-104897841D01*
X145484347Y-104897841D01*
X145484697Y-104899182D01*
X145499723Y-104899733D01*
X145533006Y-104888488D01*
X145569478Y-104864777D01*
X145609023Y-104821014D01*
X145637132Y-104769677D01*
X145640758Y-104759227D01*
X145641785Y-104748083D01*
X145631973Y-104751857D01*
X145608500Y-104772246D01*
X145568545Y-104810950D01*
X145553308Y-104826030D01*
X145518051Y-104861500D01*
X145493536Y-104887013D01*
X145484347Y-104897841D01*
X145223943Y-104897841D01*
X145207315Y-104868778D01*
X145197677Y-104851211D01*
X145168625Y-104777800D01*
X145163063Y-104708919D01*
X145174382Y-104665318D01*
X145292829Y-104665318D01*
X145293218Y-104665273D01*
X145307960Y-104655799D01*
X145334254Y-104633997D01*
X145365540Y-104605921D01*
X145395257Y-104577622D01*
X145409735Y-104562552D01*
X145484347Y-104562552D01*
X145484976Y-104571336D01*
X145500326Y-104614276D01*
X145530375Y-104656385D01*
X145567307Y-104686026D01*
X145580969Y-104692789D01*
X145620276Y-104706375D01*
X145640109Y-104700750D01*
X145641039Y-104675835D01*
X145631443Y-104652425D01*
X145608040Y-104619845D01*
X145577298Y-104589321D01*
X145544387Y-104564592D01*
X145514478Y-104549395D01*
X145492741Y-104547469D01*
X145484347Y-104562552D01*
X145409735Y-104562552D01*
X145416845Y-104555151D01*
X145423743Y-104544560D01*
X145416238Y-104542226D01*
X145391810Y-104550483D01*
X145360709Y-104570585D01*
X145330924Y-104596934D01*
X145310443Y-104623935D01*
X145308198Y-104628316D01*
X145295823Y-104654622D01*
X145292829Y-104665318D01*
X145174382Y-104665318D01*
X145181308Y-104638637D01*
X145223673Y-104561021D01*
X145249038Y-104525680D01*
X145305880Y-104466396D01*
X145365092Y-104428515D01*
X145422699Y-104414955D01*
X145435897Y-104411739D01*
X145468480Y-104394300D01*
X145505200Y-104366818D01*
X145560811Y-104318887D01*
X145333192Y-104318365D01*
X145293099Y-104318343D01*
X145217621Y-104318964D01*
X145165604Y-104320722D01*
X145134009Y-104323858D01*
X145119798Y-104328611D01*
X145119934Y-104335222D01*
X145129783Y-104354877D01*
X145143561Y-104393874D01*
X145157593Y-104442652D01*
X145180890Y-104532705D01*
X145160567Y-104549881D01*
X145141458Y-104566031D01*
X145130146Y-104575606D01*
X145066038Y-104630982D01*
X145019781Y-104674155D01*
X144999108Y-104697028D01*
X144987878Y-104709453D01*
X144966837Y-104741206D01*
X144953162Y-104773740D01*
X144943359Y-104811385D01*
X144933512Y-104849511D01*
X144918244Y-104892714D01*
X144903747Y-104919130D01*
X144896690Y-104928752D01*
X143364547Y-104928752D01*
X143308209Y-104857956D01*
X143300221Y-104839190D01*
X143690915Y-104839190D01*
X143697866Y-104846141D01*
X143704817Y-104839190D01*
X143697866Y-104832239D01*
X143690915Y-104839190D01*
X143300221Y-104839190D01*
X143295307Y-104827644D01*
X143718720Y-104827644D01*
X143718991Y-104829828D01*
X143731342Y-104831823D01*
X143760008Y-104815904D01*
X143802135Y-104783580D01*
X143825619Y-104763230D01*
X143846606Y-104742823D01*
X143850907Y-104734921D01*
X143844211Y-104737551D01*
X143820422Y-104751830D01*
X143787958Y-104773604D01*
X143754839Y-104797249D01*
X143729087Y-104817138D01*
X143718720Y-104827644D01*
X143295307Y-104827644D01*
X143267395Y-104762067D01*
X143248993Y-104649745D01*
X143247841Y-104625212D01*
X143250187Y-104567987D01*
X143492935Y-104567987D01*
X143498979Y-104565659D01*
X143524702Y-104551228D01*
X143564711Y-104526538D01*
X143613379Y-104494999D01*
X143632977Y-104481839D01*
X143638884Y-104477537D01*
X143760428Y-104477537D01*
X143762164Y-104488989D01*
X143777675Y-104524199D01*
X143804042Y-104561186D01*
X143837601Y-104595966D01*
X143869061Y-104621573D01*
X143891130Y-104631778D01*
X143899453Y-104623727D01*
X143894688Y-104601515D01*
X143876285Y-104561147D01*
X143849698Y-104517639D01*
X143821021Y-104480672D01*
X143796350Y-104459930D01*
X143775527Y-104451510D01*
X143762840Y-104454463D01*
X143760428Y-104477537D01*
X143638884Y-104477537D01*
X143679222Y-104448161D01*
X143701589Y-104426597D01*
X143699680Y-104417504D01*
X143696212Y-104416962D01*
X143654437Y-104422371D01*
X143605132Y-104443790D01*
X143557472Y-104476238D01*
X143520628Y-104514733D01*
X143508411Y-104532740D01*
X143494057Y-104558082D01*
X143492935Y-104567987D01*
X143250187Y-104567987D01*
X143251601Y-104533486D01*
X143271575Y-104456822D01*
X143310671Y-104387351D01*
X143371791Y-104317208D01*
X143386927Y-104302330D01*
X143436027Y-104259588D01*
X143481604Y-104231446D01*
X143533473Y-104211488D01*
X143562222Y-104200978D01*
X143619263Y-104175450D01*
X143684394Y-104142348D01*
X143748410Y-104106181D01*
X143807849Y-104071339D01*
X143853251Y-104047541D01*
X143888702Y-104033800D01*
X143921002Y-104027504D01*
X143956949Y-104026040D01*
X144058614Y-104036088D01*
X144154779Y-104069240D01*
X144235464Y-104125351D01*
X144300273Y-104204214D01*
X144324990Y-104246941D01*
X144359360Y-104332638D01*
X144374780Y-104425344D01*
X144374872Y-104426597D01*
X144379092Y-104484186D01*
X144255265Y-104578273D01*
X144228917Y-104598381D01*
X144196985Y-104623727D01*
X144182670Y-104635090D01*
X144152042Y-104663487D01*
X144132286Y-104689213D01*
X144118659Y-104717910D01*
X144113076Y-104734921D01*
X144106414Y-104755217D01*
X144095009Y-104794517D01*
X144086517Y-104827347D01*
X144084703Y-104839190D01*
X144084411Y-104841097D01*
X144091836Y-104837251D01*
X144117484Y-104819874D01*
X144156906Y-104791586D01*
X144205403Y-104755705D01*
X144205659Y-104755513D01*
X144258788Y-104716375D01*
X144294764Y-104692264D01*
X144318209Y-104680947D01*
X144333744Y-104680190D01*
X144345990Y-104687759D01*
X144355363Y-104695675D01*
X144368466Y-104698169D01*
X144376350Y-104678362D01*
X144486640Y-104678362D01*
X144487204Y-104678086D01*
X144501654Y-104667403D01*
X144529773Y-104645274D01*
X144564797Y-104617161D01*
X144599959Y-104588529D01*
X144615288Y-104575805D01*
X144733274Y-104575805D01*
X144743166Y-104605942D01*
X144767703Y-104644923D01*
X144773317Y-104651811D01*
X144799754Y-104676864D01*
X144827660Y-104695533D01*
X144849748Y-104703644D01*
X144858731Y-104697028D01*
X144855407Y-104686623D01*
X144839968Y-104658418D01*
X144817459Y-104623709D01*
X144794045Y-104591804D01*
X144775894Y-104572008D01*
X144755500Y-104559158D01*
X144737545Y-104558786D01*
X144733274Y-104575805D01*
X144615288Y-104575805D01*
X144628495Y-104564842D01*
X144643639Y-104551563D01*
X144644518Y-104549881D01*
X144632624Y-104549783D01*
X144603380Y-104557254D01*
X144564111Y-104576936D01*
X144518302Y-104625916D01*
X144507260Y-104642840D01*
X144491290Y-104668627D01*
X144486640Y-104678362D01*
X144376350Y-104678362D01*
X144377135Y-104676390D01*
X144382071Y-104653377D01*
X144386201Y-104616749D01*
X144393980Y-104594265D01*
X144419048Y-104557817D01*
X144455801Y-104516722D01*
X144498433Y-104477374D01*
X144541136Y-104446168D01*
X144564240Y-104434870D01*
X144583271Y-104428649D01*
X144914995Y-104428649D01*
X144915211Y-104428628D01*
X144930163Y-104419791D01*
X144955289Y-104399217D01*
X144984304Y-104372842D01*
X145010927Y-104346600D01*
X145028873Y-104326427D01*
X145031859Y-104318258D01*
X145021284Y-104322883D01*
X144995321Y-104342903D01*
X144963000Y-104373454D01*
X144940450Y-104397126D01*
X144920275Y-104419979D01*
X144914995Y-104428649D01*
X144583271Y-104428649D01*
X144614709Y-104418372D01*
X144668857Y-104407704D01*
X144675888Y-104406813D01*
X144718484Y-104399018D01*
X144753604Y-104385525D01*
X144790382Y-104361771D01*
X144837953Y-104323189D01*
X144844208Y-104317843D01*
X145844430Y-104317843D01*
X145844777Y-104318258D01*
X145845303Y-104318887D01*
X145896725Y-104380405D01*
X145949020Y-104442967D01*
X146157509Y-104442967D01*
X146365998Y-104442967D01*
X146304598Y-104380405D01*
X146243199Y-104317843D01*
X146043814Y-104317843D01*
X145844430Y-104317843D01*
X144844208Y-104317843D01*
X144851326Y-104311759D01*
X144890186Y-104277493D01*
X144918366Y-104251043D01*
X144930509Y-104237378D01*
X144936676Y-104230406D01*
X144961174Y-104208712D01*
X144999592Y-104177166D01*
X145046990Y-104139904D01*
X145158784Y-104053695D01*
X145811687Y-104053695D01*
X146464589Y-104053695D01*
X146853795Y-104442967D01*
X146955371Y-104544560D01*
X147086624Y-104675835D01*
X147117899Y-104707115D01*
X147158860Y-104748083D01*
X147771209Y-105360536D01*
X148244226Y-105360536D01*
X148717244Y-105360536D01*
X148848769Y-105492611D01*
X148877515Y-105521321D01*
X148924627Y-105566902D01*
X148959061Y-105596890D01*
X148985104Y-105614424D01*
X149007042Y-105622643D01*
X149029163Y-105624685D01*
X149035555Y-105624516D01*
X149043341Y-105622851D01*
X149046571Y-105618150D01*
X149043869Y-105608904D01*
X149033862Y-105593602D01*
X149015173Y-105570736D01*
X148986429Y-105538795D01*
X148946253Y-105496271D01*
X148893271Y-105441653D01*
X148826108Y-105373432D01*
X148743389Y-105290099D01*
X148643738Y-105190144D01*
X148525781Y-105072058D01*
X147973531Y-104519431D01*
X147962792Y-104366502D01*
X147952053Y-104213574D01*
X147500220Y-104198062D01*
X147380157Y-104193541D01*
X147260622Y-104188075D01*
X147159626Y-104182348D01*
X147079484Y-104176510D01*
X147022512Y-104170710D01*
X146991028Y-104165099D01*
X146982311Y-104161807D01*
X146964678Y-104152115D01*
X146941778Y-104135881D01*
X146912030Y-104111627D01*
X146873856Y-104077876D01*
X146825675Y-104033151D01*
X146765907Y-103975976D01*
X146692974Y-103904873D01*
X146605295Y-103818365D01*
X146501290Y-103714975D01*
X146379380Y-103593227D01*
X145825090Y-103038807D01*
X144897028Y-103038807D01*
X144887624Y-103038807D01*
X144703189Y-103038877D01*
X144544601Y-103039104D01*
X144409990Y-103039529D01*
X144297486Y-103040191D01*
X144205221Y-103041132D01*
X144131323Y-103042391D01*
X144073924Y-103044010D01*
X144031153Y-103046029D01*
X144001142Y-103048488D01*
X143982020Y-103051428D01*
X143971918Y-103054889D01*
X143968966Y-103058912D01*
X143968663Y-103063274D01*
X143958058Y-103097422D01*
X143935232Y-103145535D01*
X143904178Y-103200847D01*
X143879827Y-103239318D01*
X143868893Y-103256593D01*
X143852222Y-103279785D01*
X143840563Y-103296004D01*
X143833372Y-103306007D01*
X143801610Y-103342323D01*
X143770873Y-103369109D01*
X143685594Y-103424613D01*
X143590295Y-103466127D01*
X143496279Y-103488249D01*
X143486861Y-103489210D01*
X143394942Y-103484778D01*
X143299532Y-103458589D01*
X143207631Y-103413960D01*
X143126237Y-103354208D01*
X143074273Y-103296004D01*
X143510181Y-103296004D01*
X143517133Y-103302956D01*
X143524084Y-103296004D01*
X143517133Y-103289053D01*
X143510181Y-103296004D01*
X143074273Y-103296004D01*
X143063526Y-103283966D01*
X143540446Y-103283966D01*
X143551889Y-103289053D01*
X143559249Y-103288050D01*
X143561157Y-103279785D01*
X143559120Y-103278121D01*
X143542621Y-103279785D01*
X143540446Y-103283966D01*
X143063526Y-103283966D01*
X143062348Y-103282647D01*
X143056391Y-103272597D01*
X143580826Y-103272597D01*
X143596529Y-103275150D01*
X143612206Y-103270991D01*
X143637078Y-103252020D01*
X143646890Y-103239318D01*
X143644597Y-103235825D01*
X143621402Y-103246952D01*
X143596224Y-103260588D01*
X143580853Y-103270082D01*
X143580826Y-103272597D01*
X143056391Y-103272597D01*
X143022382Y-103215217D01*
X142982424Y-103107388D01*
X142967669Y-102997156D01*
X142968398Y-102989182D01*
X143139606Y-102989182D01*
X143142341Y-103009230D01*
X143148495Y-103008735D01*
X143175733Y-103000549D01*
X143219276Y-102984985D01*
X143273321Y-102964047D01*
X143306375Y-102951060D01*
X143357843Y-102931884D01*
X143396713Y-102918739D01*
X143416435Y-102913921D01*
X143426910Y-102921156D01*
X143445644Y-102948064D01*
X143465661Y-102987995D01*
X143502666Y-103052288D01*
X143556050Y-103110686D01*
X143565787Y-103118489D01*
X143614895Y-103149423D01*
X143662913Y-103168061D01*
X143703166Y-103172471D01*
X143728978Y-103160723D01*
X143735061Y-103150364D01*
X143748873Y-103116943D01*
X143762932Y-103073563D01*
X143770256Y-103041720D01*
X143772546Y-102951521D01*
X143748347Y-102864071D01*
X143698539Y-102783338D01*
X143670486Y-102752977D01*
X143614983Y-102713828D01*
X143547487Y-102692296D01*
X143461522Y-102685711D01*
X143386979Y-102690043D01*
X143321657Y-102707079D01*
X143269198Y-102739948D01*
X143222688Y-102791719D01*
X143210296Y-102810159D01*
X143185709Y-102855311D01*
X143163955Y-102905008D01*
X143147699Y-102952037D01*
X143139606Y-102989182D01*
X142968398Y-102989182D01*
X142977637Y-102888184D01*
X143011848Y-102784136D01*
X143069822Y-102688672D01*
X143151080Y-102605456D01*
X143198121Y-102570082D01*
X143289816Y-102518322D01*
X143378107Y-102490867D01*
X143403341Y-102485344D01*
X143453989Y-102471798D01*
X143516652Y-102453314D01*
X143583174Y-102432226D01*
X143605045Y-102425066D01*
X143665291Y-102406176D01*
X143708343Y-102395136D01*
X143741192Y-102390880D01*
X143770827Y-102392337D01*
X143804239Y-102398441D01*
X143852339Y-102412148D01*
X143933470Y-102446242D01*
X144012302Y-102490425D01*
X144076248Y-102538229D01*
X144097001Y-102559953D01*
X144132003Y-102604971D01*
X144163220Y-102653668D01*
X144205472Y-102728533D01*
X144499586Y-102737693D01*
X144533437Y-102738641D01*
X144623030Y-102740543D01*
X144733496Y-102742279D01*
X144860135Y-102743803D01*
X144998245Y-102745068D01*
X145143125Y-102746029D01*
X145290074Y-102746639D01*
X145434391Y-102746853D01*
X146075080Y-102746853D01*
X146279794Y-102951521D01*
X146638506Y-103310152D01*
X147201931Y-103873452D01*
X147556138Y-103869731D01*
X147910345Y-103866010D01*
X147453118Y-103403749D01*
X146995891Y-102941489D01*
X146801899Y-102941489D01*
X146607908Y-102941489D01*
X146336608Y-102663437D01*
X146065309Y-102385386D01*
X145840839Y-102385386D01*
X145616369Y-102385386D01*
X145567736Y-102450944D01*
X145552181Y-102471335D01*
X145503047Y-102525165D01*
X145453444Y-102558432D01*
X145395364Y-102575322D01*
X145320798Y-102580022D01*
X145302315Y-102579965D01*
X145252939Y-102578072D01*
X145218069Y-102571301D01*
X145187407Y-102556707D01*
X145150658Y-102531343D01*
X145123158Y-102509621D01*
X145084704Y-102474216D01*
X145059228Y-102444452D01*
X145051423Y-102431158D01*
X145029252Y-102366597D01*
X145021542Y-102291201D01*
X145126973Y-102291201D01*
X145131571Y-102301970D01*
X145145779Y-102297359D01*
X145178664Y-102284851D01*
X145222871Y-102267214D01*
X145266425Y-102250324D01*
X145303875Y-102237402D01*
X145324071Y-102232458D01*
X145325970Y-102232757D01*
X145341233Y-102247713D01*
X145356304Y-102278278D01*
X145377057Y-102314252D01*
X145419170Y-102340839D01*
X145458807Y-102353293D01*
X145484466Y-102352717D01*
X145495740Y-102333447D01*
X145498249Y-102292012D01*
X145488647Y-102235159D01*
X145458270Y-102181838D01*
X145448124Y-102172980D01*
X145835070Y-102172980D01*
X145845813Y-102177820D01*
X145847129Y-102178133D01*
X145881108Y-102183526D01*
X145935232Y-102189340D01*
X146002325Y-102194896D01*
X146075206Y-102199515D01*
X146136136Y-102202636D01*
X146190048Y-102204673D01*
X146223200Y-102204357D01*
X146239469Y-102201365D01*
X146242729Y-102195375D01*
X146236859Y-102186063D01*
X146230418Y-102179908D01*
X146215147Y-102172691D01*
X146189594Y-102167942D01*
X146149381Y-102165248D01*
X146090131Y-102164195D01*
X146007466Y-102164368D01*
X145948016Y-102165011D01*
X145884982Y-102166675D01*
X145847730Y-102169298D01*
X145835070Y-102172980D01*
X145448124Y-102172980D01*
X145412504Y-102141881D01*
X145356893Y-102117599D01*
X145296979Y-102111306D01*
X145238304Y-102125313D01*
X145186412Y-102161932D01*
X145183621Y-102165002D01*
X145164418Y-102193147D01*
X145146504Y-102228853D01*
X145132986Y-102264183D01*
X145126973Y-102291201D01*
X145021542Y-102291201D01*
X145021333Y-102289154D01*
X145028877Y-102208260D01*
X145031621Y-102195222D01*
X145045656Y-102151599D01*
X145069290Y-102114831D01*
X145109229Y-102073688D01*
X145171823Y-102025179D01*
X145235935Y-101997142D01*
X145275858Y-101986695D01*
X145333705Y-101970440D01*
X145392388Y-101953048D01*
X145488115Y-101923784D01*
X145449224Y-101884893D01*
X145882674Y-101884893D01*
X145915326Y-101919650D01*
X145927333Y-101931527D01*
X145946030Y-101943891D01*
X145971476Y-101950779D01*
X146010687Y-101953761D01*
X146070678Y-101954406D01*
X146077676Y-101954405D01*
X146133737Y-101954024D01*
X146167934Y-101951888D01*
X146185672Y-101946467D01*
X146192352Y-101936231D01*
X146193378Y-101919650D01*
X146193378Y-101884893D01*
X146038026Y-101884893D01*
X145882674Y-101884893D01*
X145449224Y-101884893D01*
X145425509Y-101861178D01*
X145389104Y-101826738D01*
X145359215Y-101807011D01*
X145324779Y-101797259D01*
X145274172Y-101792184D01*
X145185441Y-101785797D01*
X145130793Y-101867328D01*
X145124091Y-101875625D01*
X145112862Y-101889527D01*
X145074421Y-101937118D01*
X145003322Y-101994441D01*
X144927034Y-102027545D01*
X144848570Y-102034644D01*
X144831335Y-102032459D01*
X144758406Y-102008121D01*
X144689434Y-101963476D01*
X144631723Y-101904193D01*
X144625710Y-101893709D01*
X144902898Y-101893709D01*
X144914341Y-101898796D01*
X144921701Y-101897792D01*
X144923609Y-101889527D01*
X144921572Y-101887864D01*
X144905073Y-101889527D01*
X144902898Y-101893709D01*
X144625710Y-101893709D01*
X144617736Y-101879806D01*
X144958508Y-101879806D01*
X144969951Y-101884893D01*
X144977311Y-101883890D01*
X144979220Y-101875625D01*
X144977182Y-101873961D01*
X144960683Y-101875625D01*
X144958508Y-101879806D01*
X144617736Y-101879806D01*
X144592578Y-101835940D01*
X144575723Y-101779835D01*
X144573958Y-101748154D01*
X144695136Y-101748154D01*
X144701384Y-101759770D01*
X144702525Y-101759696D01*
X144724042Y-101755286D01*
X144763621Y-101745414D01*
X144813651Y-101731965D01*
X144822062Y-101729639D01*
X144869577Y-101716716D01*
X144904376Y-101707607D01*
X144919430Y-101704160D01*
X144919889Y-101704280D01*
X144928992Y-101717645D01*
X144942366Y-101746399D01*
X144962020Y-101780103D01*
X144984847Y-101802009D01*
X144992900Y-101806145D01*
X145019920Y-101813848D01*
X145034813Y-101800696D01*
X145042723Y-101763246D01*
X145043465Y-101756407D01*
X145039305Y-101683259D01*
X145012796Y-101624334D01*
X144965795Y-101582281D01*
X144900158Y-101559751D01*
X144899439Y-101559637D01*
X144831315Y-101558620D01*
X144773201Y-101576438D01*
X144731894Y-101611018D01*
X144730269Y-101613370D01*
X144716011Y-101643035D01*
X144704221Y-101681148D01*
X144696672Y-101719067D01*
X144695136Y-101748154D01*
X144573958Y-101748154D01*
X144571020Y-101695427D01*
X144593573Y-101616238D01*
X144643519Y-101541480D01*
X144677297Y-101506416D01*
X144720279Y-101473394D01*
X144771720Y-101447651D01*
X144838044Y-101426091D01*
X144925677Y-101405622D01*
X144972910Y-101396631D01*
X145073284Y-101385694D01*
X145155881Y-101391224D01*
X145224732Y-101414318D01*
X145283870Y-101456072D01*
X145337325Y-101517583D01*
X145364873Y-101553996D01*
X145389395Y-101579108D01*
X145412473Y-101590351D01*
X145441304Y-101592939D01*
X145490718Y-101592939D01*
X145366175Y-101467816D01*
X145241631Y-101342693D01*
X144939615Y-101342693D01*
X144938277Y-101342693D01*
X144832687Y-101342968D01*
X144750598Y-101344238D01*
X144687756Y-101347186D01*
X144639906Y-101352491D01*
X144602794Y-101360834D01*
X144572166Y-101372896D01*
X144543767Y-101389358D01*
X144513342Y-101410901D01*
X144510683Y-101412828D01*
X144454380Y-101440167D01*
X144376832Y-101456133D01*
X144373007Y-101456591D01*
X144323221Y-101461194D01*
X144287707Y-101458833D01*
X144254047Y-101447085D01*
X144209823Y-101423524D01*
X144163445Y-101393356D01*
X144106410Y-101337606D01*
X144332892Y-101337606D01*
X144344336Y-101342693D01*
X144351696Y-101341690D01*
X144353604Y-101333425D01*
X144351566Y-101331761D01*
X144335067Y-101333425D01*
X144332892Y-101337606D01*
X144106410Y-101337606D01*
X144097754Y-101329145D01*
X144094771Y-101323704D01*
X144402405Y-101323704D01*
X144413848Y-101328790D01*
X144421208Y-101327787D01*
X144423117Y-101319522D01*
X144421079Y-101317858D01*
X144404580Y-101319522D01*
X144402405Y-101323704D01*
X144094771Y-101323704D01*
X144056810Y-101254475D01*
X144041502Y-101171278D01*
X144042967Y-101159552D01*
X144170463Y-101159552D01*
X144170762Y-101159778D01*
X144188283Y-101160608D01*
X144225130Y-101157165D01*
X144273785Y-101150134D01*
X144304241Y-101145132D01*
X144355253Y-101137840D01*
X144387285Y-101137207D01*
X144406189Y-101144767D01*
X144417821Y-101162059D01*
X144428032Y-101190617D01*
X144432651Y-101203115D01*
X144451907Y-101239449D01*
X144472097Y-101260689D01*
X144482423Y-101265216D01*
X144498840Y-101261626D01*
X144512886Y-101235507D01*
X144519539Y-101216469D01*
X144527790Y-101148422D01*
X144510285Y-101088616D01*
X144468314Y-101039767D01*
X144403167Y-101004588D01*
X144364985Y-100991612D01*
X144336166Y-100986959D01*
X144309096Y-100993053D01*
X144270998Y-101010463D01*
X144242876Y-101025727D01*
X144208444Y-101055484D01*
X144185867Y-101097071D01*
X144180287Y-101112107D01*
X144171053Y-101143851D01*
X144170463Y-101159552D01*
X144042967Y-101159552D01*
X144052718Y-101081489D01*
X144053424Y-101078900D01*
X144086618Y-101004506D01*
X144141416Y-100944365D01*
X144218662Y-100897966D01*
X144319201Y-100864795D01*
X144443880Y-100844340D01*
X144514206Y-100839341D01*
X144618632Y-100843796D01*
X144702736Y-100865465D01*
X144768024Y-100905081D01*
X144816004Y-100963377D01*
X144848182Y-101041088D01*
X144859174Y-101083340D01*
X144868838Y-101128796D01*
X144871311Y-101148422D01*
X144872579Y-101158484D01*
X144872633Y-101189765D01*
X145182107Y-101189765D01*
X145491580Y-101189765D01*
X145621195Y-101319522D01*
X145635083Y-101333425D01*
X145748495Y-101446962D01*
X146005411Y-101704160D01*
X146099394Y-101704160D01*
X146193378Y-101704160D01*
X146193378Y-101629337D01*
X146193378Y-101554513D01*
X145754044Y-101107990D01*
X145314711Y-100661467D01*
X145083373Y-100661467D01*
X144852034Y-100661467D01*
X144580807Y-100390548D01*
X144309579Y-100119628D01*
X144219212Y-100157442D01*
X144197802Y-100166099D01*
X144142328Y-100183996D01*
X144086856Y-100192798D01*
X144017625Y-100195073D01*
X143957809Y-100193651D01*
X143913129Y-100187890D01*
X143874530Y-100175353D01*
X143831040Y-100153604D01*
X143808161Y-100140277D01*
X143724758Y-100073847D01*
X143664635Y-99993147D01*
X143628609Y-99900097D01*
X143617493Y-99796619D01*
X143623692Y-99749104D01*
X143788233Y-99749104D01*
X143792779Y-99751030D01*
X143819089Y-99755326D01*
X143863605Y-99760261D01*
X143920307Y-99765107D01*
X144052382Y-99775009D01*
X144052382Y-99822705D01*
X144057878Y-99866493D01*
X144071812Y-99907976D01*
X144091234Y-99938703D01*
X144117972Y-99969740D01*
X144122676Y-99973943D01*
X144140025Y-99985149D01*
X144155929Y-99979840D01*
X144180258Y-99955805D01*
X144219455Y-99906764D01*
X144240449Y-99858462D01*
X144248494Y-99798369D01*
X144248762Y-99792052D01*
X144243194Y-99716088D01*
X144218494Y-99657811D01*
X144171960Y-99613193D01*
X144100893Y-99578205D01*
X144078972Y-99570935D01*
X144000582Y-99560635D01*
X143928600Y-99575877D01*
X143866460Y-99616106D01*
X143843272Y-99642500D01*
X143816720Y-99681888D01*
X143796361Y-99720844D01*
X143788233Y-99749104D01*
X143623692Y-99749104D01*
X143632103Y-99684633D01*
X143659277Y-99604507D01*
X143711320Y-99521995D01*
X143784006Y-99458060D01*
X143877788Y-99412199D01*
X143878428Y-99411973D01*
X143910926Y-99400604D01*
X143938157Y-99392492D01*
X143964817Y-99387639D01*
X143995605Y-99386045D01*
X144035217Y-99387711D01*
X144088350Y-99392640D01*
X144159702Y-99400831D01*
X144253969Y-99412286D01*
X144279454Y-99415715D01*
X144386634Y-99439549D01*
X144473828Y-99477634D01*
X144545530Y-99532447D01*
X144606236Y-99606467D01*
X144610174Y-99612369D01*
X144642441Y-99666121D01*
X144659328Y-99709013D01*
X144664285Y-99749545D01*
X144664406Y-99758271D01*
X144666628Y-99792052D01*
X144667380Y-99803476D01*
X144673036Y-99838422D01*
X144673702Y-99840924D01*
X144676130Y-99855197D01*
X144670795Y-99863653D01*
X144652691Y-99867502D01*
X144616811Y-99867956D01*
X144558150Y-99866227D01*
X144434702Y-99862069D01*
X144434702Y-99910728D01*
X144434702Y-99959387D01*
X144545923Y-99966338D01*
X144657143Y-99973290D01*
X144781628Y-100105364D01*
X144825038Y-100151209D01*
X144895699Y-100225246D01*
X144967986Y-100300435D01*
X145031599Y-100366037D01*
X145078746Y-100413976D01*
X145117697Y-100451657D01*
X145146283Y-100475322D01*
X145169164Y-100488213D01*
X145191000Y-100493570D01*
X145216447Y-100494636D01*
X145275808Y-100494636D01*
X145275808Y-99814063D01*
X145275808Y-99133491D01*
X145224978Y-99119456D01*
X145216520Y-99117240D01*
X145182912Y-99110949D01*
X145164243Y-99111543D01*
X145162265Y-99113597D01*
X145153585Y-99135437D01*
X145145777Y-99171198D01*
X145142674Y-99186657D01*
X145112950Y-99256421D01*
X145062381Y-99318362D01*
X144996624Y-99367990D01*
X144921330Y-99400815D01*
X144842155Y-99412345D01*
X144772889Y-99398916D01*
X144705758Y-99362750D01*
X144645664Y-99308876D01*
X144597133Y-99242319D01*
X144564693Y-99168105D01*
X144554107Y-99099279D01*
X144668263Y-99099279D01*
X144669942Y-99100146D01*
X144691062Y-99106497D01*
X144730669Y-99116602D01*
X144781997Y-99128708D01*
X144819699Y-99137525D01*
X144860224Y-99149001D01*
X144884039Y-99160955D01*
X144897560Y-99177098D01*
X144907202Y-99201140D01*
X144912579Y-99216098D01*
X144929214Y-99245693D01*
X144949081Y-99250447D01*
X144976907Y-99232484D01*
X145004300Y-99203244D01*
X145031570Y-99147004D01*
X145036067Y-99087208D01*
X145018895Y-99029833D01*
X144981160Y-98980858D01*
X144923969Y-98946260D01*
X144897043Y-98936783D01*
X144838979Y-98925236D01*
X144791744Y-98932807D01*
X144748068Y-98960066D01*
X144728479Y-98980162D01*
X144703103Y-99014461D01*
X144681567Y-99051053D01*
X144668432Y-99081979D01*
X144668263Y-99099279D01*
X144554107Y-99099279D01*
X144552874Y-99091259D01*
X144553695Y-99071578D01*
X144572783Y-98994450D01*
X144613601Y-98925195D01*
X144671399Y-98867733D01*
X144741427Y-98825987D01*
X144818936Y-98803877D01*
X144899177Y-98805325D01*
X144926482Y-98810807D01*
X144993474Y-98827263D01*
X145065074Y-98847977D01*
X145133336Y-98870414D01*
X145190315Y-98892036D01*
X145228065Y-98910309D01*
X145275808Y-98939816D01*
X145275808Y-98802721D01*
X145275808Y-98665626D01*
X144744035Y-98136348D01*
X144698934Y-98091535D01*
X144597762Y-97991561D01*
X144501560Y-97897236D01*
X144412420Y-97810569D01*
X144332434Y-97733568D01*
X144263695Y-97668240D01*
X144208296Y-97616594D01*
X144168329Y-97580637D01*
X144145886Y-97562377D01*
X144079511Y-97517685D01*
X144027714Y-97557940D01*
X143965725Y-97597970D01*
X143881084Y-97632387D01*
X143798378Y-97645421D01*
X143789653Y-97645553D01*
X143767325Y-97646667D01*
X143760823Y-97650314D01*
X143772615Y-97658515D01*
X143805169Y-97673292D01*
X143860953Y-97696665D01*
X143892084Y-97709782D01*
X143937686Y-97729801D01*
X143968296Y-97744336D01*
X143978527Y-97750902D01*
X143974204Y-97752184D01*
X143947755Y-97749146D01*
X143903014Y-97738794D01*
X143845490Y-97722723D01*
X143780690Y-97702528D01*
X143714119Y-97679803D01*
X143651286Y-97656143D01*
X143549191Y-97609898D01*
X143441134Y-97543033D01*
X143358570Y-97466746D01*
X143300740Y-97379825D01*
X143266888Y-97281059D01*
X143256255Y-97169236D01*
X143259251Y-97137297D01*
X143430950Y-97137297D01*
X143573219Y-97204591D01*
X143715489Y-97271885D01*
X143724853Y-97342479D01*
X143728616Y-97366680D01*
X143738054Y-97410095D01*
X143747812Y-97438475D01*
X143749950Y-97442348D01*
X143761485Y-97456457D01*
X143778868Y-97460902D01*
X143808908Y-97455872D01*
X143858415Y-97441558D01*
X143895611Y-97427055D01*
X143964034Y-97379714D01*
X144014801Y-97312971D01*
X144044854Y-97230295D01*
X144046927Y-97219811D01*
X144055049Y-97130618D01*
X144045502Y-97051272D01*
X144018961Y-96988108D01*
X144011220Y-96978816D01*
X143979215Y-96951527D01*
X143932693Y-96919351D01*
X143878828Y-96887441D01*
X143827820Y-96860179D01*
X143788144Y-96841568D01*
X143758489Y-96832821D01*
X143731485Y-96831840D01*
X143699757Y-96836531D01*
X143633085Y-96856508D01*
X143560775Y-96896286D01*
X143500665Y-96949053D01*
X143457948Y-97010088D01*
X143437819Y-97074669D01*
X143430950Y-97137297D01*
X143259251Y-97137297D01*
X143268084Y-97043144D01*
X143279505Y-96985282D01*
X143294014Y-96940917D01*
X143316221Y-96901590D01*
X143351265Y-96855718D01*
X143388888Y-96814010D01*
X143481568Y-96739956D01*
X143587037Y-96689609D01*
X143702312Y-96664592D01*
X143712184Y-96663637D01*
X143765267Y-96660269D01*
X143807997Y-96662980D01*
X143852335Y-96673418D01*
X143910240Y-96693229D01*
X143945948Y-96706983D01*
X144051988Y-96755855D01*
X144155007Y-96814324D01*
X144250255Y-96878973D01*
X144332981Y-96946381D01*
X144398433Y-97013130D01*
X144441861Y-97075801D01*
X144445127Y-97082527D01*
X144456470Y-97115877D01*
X144459226Y-97130618D01*
X144465155Y-97162332D01*
X144471913Y-97226791D01*
X144477476Y-97314153D01*
X144487253Y-97502648D01*
X145062264Y-98077534D01*
X145637275Y-98652419D01*
X145637275Y-99087208D01*
X145637275Y-99591143D01*
X145637275Y-100529867D01*
X145790203Y-100682321D01*
X145943131Y-100834775D01*
X145943131Y-100410160D01*
X145943131Y-99985545D01*
X145797154Y-99831213D01*
X145651177Y-99676880D01*
X145651177Y-99605178D01*
X145957556Y-99605178D01*
X145957833Y-99626532D01*
X145961367Y-99650042D01*
X145971556Y-99672621D01*
X145991716Y-99699351D01*
X146025161Y-99735318D01*
X146075206Y-99785605D01*
X146078208Y-99788584D01*
X146123020Y-99831425D01*
X146159570Y-99863402D01*
X146184164Y-99881478D01*
X146193110Y-99882616D01*
X146181291Y-99809721D01*
X146149730Y-99741264D01*
X146103011Y-99688683D01*
X146089267Y-99677485D01*
X146042967Y-99635482D01*
X146002739Y-99593703D01*
X145958078Y-99542310D01*
X145957556Y-99605178D01*
X145651177Y-99605178D01*
X145651177Y-99263207D01*
X145651177Y-99222195D01*
X146115126Y-99222195D01*
X146116842Y-99232509D01*
X146138957Y-99245415D01*
X146186198Y-99258471D01*
X146233001Y-99271217D01*
X146265480Y-99289844D01*
X146284057Y-99320223D01*
X146296023Y-99369741D01*
X146301940Y-99389890D01*
X146324094Y-99434539D01*
X146354546Y-99477486D01*
X146364708Y-99488896D01*
X146403394Y-99522870D01*
X146434280Y-99533939D01*
X146490481Y-99523413D01*
X146559706Y-99489350D01*
X146619478Y-99437352D01*
X146663766Y-99372968D01*
X146686543Y-99301747D01*
X146688858Y-99251728D01*
X146678493Y-99179006D01*
X146654517Y-99113461D01*
X146619671Y-99064799D01*
X146593593Y-99046148D01*
X146549369Y-99021828D01*
X146498620Y-98998774D01*
X146496738Y-98998010D01*
X146447165Y-98979171D01*
X146411492Y-98970551D01*
X146378715Y-98970752D01*
X146337833Y-98978381D01*
X146281520Y-98997431D01*
X146216517Y-99037282D01*
X146166279Y-99089227D01*
X146137315Y-99147768D01*
X146134281Y-99158883D01*
X146123189Y-99197341D01*
X146115126Y-99222195D01*
X145651177Y-99222195D01*
X145651177Y-98849533D01*
X145801615Y-98695429D01*
X145862506Y-98632385D01*
X145933902Y-98555028D01*
X145986489Y-98491411D01*
X146021308Y-98438598D01*
X146039401Y-98393652D01*
X146041810Y-98353637D01*
X146029576Y-98315614D01*
X146003742Y-98276649D01*
X145965348Y-98233803D01*
X145962808Y-98231188D01*
X145918248Y-98188828D01*
X145886498Y-98167047D01*
X145864554Y-98163758D01*
X145855793Y-98166244D01*
X145820066Y-98175943D01*
X145776301Y-98187457D01*
X145713739Y-98203663D01*
X145790203Y-98243239D01*
X145829659Y-98265321D01*
X145845393Y-98278804D01*
X145836520Y-98283471D01*
X145818471Y-98280471D01*
X145776263Y-98265395D01*
X145721236Y-98240599D01*
X145659606Y-98209419D01*
X145597593Y-98175192D01*
X145541415Y-98141253D01*
X145497290Y-98110940D01*
X145471437Y-98087589D01*
X145459547Y-98070666D01*
X145427300Y-97999410D01*
X145410086Y-97914828D01*
X145410055Y-97875072D01*
X145534541Y-97875072D01*
X145537762Y-97897922D01*
X145550173Y-97916152D01*
X145576841Y-97935747D01*
X145622837Y-97962697D01*
X145627617Y-97965449D01*
X145671799Y-97994126D01*
X145704930Y-98021227D01*
X145720155Y-98041218D01*
X145720843Y-98043492D01*
X145738776Y-98063256D01*
X145768408Y-98064026D01*
X145803241Y-98047287D01*
X145836775Y-98014527D01*
X145862295Y-97974782D01*
X145882680Y-97910700D01*
X145875843Y-97850558D01*
X145842133Y-97796037D01*
X145781897Y-97748819D01*
X145757582Y-97735006D01*
X145725030Y-97720816D01*
X145697525Y-97718821D01*
X145663451Y-97726870D01*
X145654246Y-97729763D01*
X145589590Y-97761127D01*
X145549639Y-97804271D01*
X145534838Y-97858738D01*
X145534541Y-97875072D01*
X145410055Y-97875072D01*
X145410016Y-97825913D01*
X145418346Y-97746216D01*
X145119129Y-97427788D01*
X145113050Y-97421322D01*
X145027844Y-97331180D01*
X144939019Y-97238029D01*
X144851085Y-97146543D01*
X144768553Y-97061398D01*
X144695932Y-96987267D01*
X144637734Y-96928827D01*
X144525478Y-96817585D01*
X144789218Y-96817585D01*
X145188917Y-97216544D01*
X145588616Y-97615503D01*
X145654437Y-97601171D01*
X145663997Y-97599168D01*
X145706520Y-97593972D01*
X145745827Y-97598833D01*
X145795865Y-97615127D01*
X145856832Y-97642520D01*
X145926179Y-97680755D01*
X145995383Y-97724453D01*
X146055932Y-97768241D01*
X146099314Y-97806741D01*
X146114027Y-97826671D01*
X146133596Y-97861618D01*
X146152276Y-97901612D01*
X146166956Y-97939293D01*
X146174521Y-97967299D01*
X146171860Y-97978270D01*
X146158501Y-97971704D01*
X146128001Y-97954393D01*
X146086999Y-97930100D01*
X146086581Y-97929848D01*
X146046185Y-97906114D01*
X146016814Y-97889977D01*
X146004801Y-97884916D01*
X146003957Y-97887744D01*
X146000108Y-97910228D01*
X146000043Y-97910700D01*
X145995019Y-97947045D01*
X145987470Y-98006186D01*
X146076521Y-98055986D01*
X146117915Y-98081200D01*
X146153125Y-98109075D01*
X146165573Y-98129648D01*
X146166498Y-98134667D01*
X146179469Y-98161791D01*
X146204542Y-98201578D01*
X146237615Y-98247330D01*
X146239232Y-98249437D01*
X146273534Y-98295128D01*
X146294729Y-98329195D01*
X146306439Y-98361485D01*
X146312289Y-98401847D01*
X146315902Y-98460131D01*
X146322147Y-98579112D01*
X146289043Y-98568861D01*
X146284626Y-98567421D01*
X146247639Y-98552788D01*
X146206171Y-98533514D01*
X146156403Y-98508418D01*
X145964732Y-98700456D01*
X145773061Y-98892495D01*
X145864169Y-98922814D01*
X145865283Y-98923186D01*
X145911324Y-98940276D01*
X145945321Y-98956094D01*
X145959986Y-98967258D01*
X145966308Y-98967281D01*
X145984531Y-98950457D01*
X146009518Y-98918969D01*
X146009589Y-98918870D01*
X146049481Y-98876839D01*
X146107376Y-98832207D01*
X146174660Y-98790337D01*
X146242721Y-98756589D01*
X146302944Y-98736324D01*
X146346306Y-98726800D01*
X146346306Y-98298177D01*
X146346306Y-97869555D01*
X145939656Y-97470266D01*
X145912764Y-97443904D01*
X145822054Y-97355609D01*
X145735213Y-97271995D01*
X145654882Y-97195546D01*
X145583706Y-97128750D01*
X145524326Y-97074092D01*
X145479385Y-97034058D01*
X145451528Y-97011134D01*
X145370051Y-96951290D01*
X145295556Y-96987826D01*
X145221061Y-97024362D01*
X145321423Y-97092493D01*
X145421785Y-97160624D01*
X145326634Y-97151849D01*
X145284479Y-97146985D01*
X145246872Y-97138605D01*
X145210766Y-97123817D01*
X145168183Y-97099281D01*
X145111144Y-97061660D01*
X145078910Y-97039272D01*
X145024255Y-96998844D01*
X144977949Y-96961651D01*
X144947520Y-96933582D01*
X144947457Y-96933515D01*
X144911549Y-96878923D01*
X144885446Y-96808486D01*
X144872152Y-96733304D01*
X144873548Y-96695185D01*
X144971331Y-96695185D01*
X145081594Y-96770198D01*
X145120653Y-96797564D01*
X145162446Y-96830721D01*
X145185172Y-96855975D01*
X145192125Y-96876491D01*
X145198292Y-96902533D01*
X145215013Y-96909443D01*
X145238705Y-96898805D01*
X145265788Y-96873940D01*
X145292682Y-96838168D01*
X145315805Y-96794809D01*
X145331577Y-96747183D01*
X145336296Y-96724939D01*
X145341863Y-96692814D01*
X145342318Y-96679073D01*
X145341270Y-96678319D01*
X145324889Y-96665879D01*
X145293408Y-96641707D01*
X145252420Y-96610093D01*
X145207313Y-96576675D01*
X145174760Y-96557447D01*
X145149446Y-96550552D01*
X145124474Y-96552907D01*
X145088726Y-96565219D01*
X145032282Y-96603621D01*
X144991217Y-96656729D01*
X144971331Y-96695185D01*
X144873548Y-96695185D01*
X144874673Y-96664477D01*
X144877394Y-96649295D01*
X144884737Y-96591403D01*
X144881794Y-96549639D01*
X144866866Y-96515395D01*
X144838253Y-96480064D01*
X144789970Y-96428134D01*
X144789594Y-96622859D01*
X144789218Y-96817585D01*
X144525478Y-96817585D01*
X144455556Y-96748294D01*
X144455556Y-96254204D01*
X144455556Y-95760114D01*
X144354436Y-95659668D01*
X144253315Y-95559223D01*
X144094265Y-95559223D01*
X143935214Y-95559223D01*
X143798040Y-95453856D01*
X143660865Y-95348489D01*
X143606377Y-95407510D01*
X143583256Y-95433657D01*
X143560638Y-95462365D01*
X143551889Y-95478121D01*
X143551764Y-95479780D01*
X143539769Y-95489710D01*
X143527936Y-95492694D01*
X143496265Y-95504429D01*
X143454438Y-95522020D01*
X143381227Y-95554330D01*
X143515304Y-95649373D01*
X143566956Y-95686529D01*
X143608767Y-95717648D01*
X143636323Y-95739374D01*
X143645349Y-95748449D01*
X143634071Y-95748364D01*
X143602321Y-95743717D01*
X143557977Y-95735307D01*
X143535086Y-95729914D01*
X143493335Y-95715670D01*
X143447916Y-95693367D01*
X143392836Y-95659872D01*
X143322103Y-95612056D01*
X143283296Y-95584826D01*
X143207317Y-95529047D01*
X143150681Y-95482319D01*
X143110155Y-95441071D01*
X143082507Y-95401730D01*
X143064506Y-95360722D01*
X143052921Y-95314477D01*
X143046808Y-95278976D01*
X143044310Y-95243194D01*
X143163470Y-95243194D01*
X143163485Y-95243205D01*
X143177084Y-95253063D01*
X143206732Y-95274628D01*
X143246032Y-95303251D01*
X143269150Y-95320083D01*
X143324962Y-95360322D01*
X143363949Y-95387055D01*
X143390300Y-95402492D01*
X143408207Y-95408842D01*
X143421859Y-95408315D01*
X143435446Y-95403120D01*
X143447052Y-95394902D01*
X143472153Y-95365059D01*
X143495407Y-95324740D01*
X143507822Y-95295054D01*
X143516334Y-95252008D01*
X143506582Y-95214278D01*
X143476367Y-95175942D01*
X143423490Y-95131078D01*
X143347908Y-95072767D01*
X143282090Y-95095194D01*
X143239938Y-95112898D01*
X143210776Y-95137645D01*
X143186823Y-95178237D01*
X143177177Y-95199100D01*
X143165418Y-95229402D01*
X143163470Y-95243194D01*
X143044310Y-95243194D01*
X143043912Y-95237485D01*
X143049991Y-95200126D01*
X143066178Y-95153078D01*
X143072934Y-95137061D01*
X143117016Y-95069128D01*
X143177695Y-95014020D01*
X143248945Y-94975223D01*
X143324739Y-94956224D01*
X143399049Y-94960510D01*
X143406204Y-94962236D01*
X143439180Y-94971222D01*
X143468143Y-94982321D01*
X143498211Y-94998619D01*
X143534499Y-95023201D01*
X143582127Y-95059155D01*
X143646209Y-95109564D01*
X143792555Y-95225561D01*
X143937809Y-95225561D01*
X144083063Y-95225561D01*
X144115247Y-95252008D01*
X144196321Y-95318629D01*
X144237042Y-95353434D01*
X144296797Y-95406970D01*
X144365571Y-95470455D01*
X144437743Y-95538693D01*
X144507691Y-95606487D01*
X144705802Y-95801277D01*
X144705802Y-95516764D01*
X144705802Y-95381856D01*
X145147733Y-95381856D01*
X145252056Y-95487918D01*
X145284271Y-95521735D01*
X145323708Y-95566430D01*
X145352484Y-95603087D01*
X145365942Y-95626056D01*
X145380048Y-95649584D01*
X145409977Y-95671240D01*
X145433786Y-95679660D01*
X145447020Y-95682898D01*
X145451685Y-95681245D01*
X145476183Y-95673419D01*
X145514097Y-95661669D01*
X145541730Y-95650748D01*
X145593931Y-95621763D01*
X145641075Y-95586897D01*
X145669461Y-95560492D01*
X145693833Y-95529848D01*
X145708878Y-95493780D01*
X145720668Y-95441170D01*
X145722974Y-95428562D01*
X145729691Y-95373398D01*
X145724987Y-95337906D01*
X145706961Y-95316523D01*
X145673713Y-95303690D01*
X145659187Y-95295955D01*
X145627238Y-95270383D01*
X145586477Y-95231945D01*
X145542267Y-95185467D01*
X145442756Y-95075260D01*
X145369709Y-95102760D01*
X145346982Y-95112121D01*
X145266749Y-95161447D01*
X145206696Y-95227344D01*
X145169460Y-95307119D01*
X145147733Y-95381856D01*
X144705802Y-95381856D01*
X144705802Y-95232252D01*
X144431227Y-94960071D01*
X144380390Y-94909962D01*
X144288966Y-94820964D01*
X144193857Y-94729565D01*
X144100876Y-94641304D01*
X144015836Y-94561719D01*
X143944551Y-94496350D01*
X143732451Y-94304809D01*
X143659428Y-94313932D01*
X143643386Y-94315982D01*
X143600396Y-94323097D01*
X143576341Y-94332760D01*
X143571604Y-94348141D01*
X143586569Y-94372408D01*
X143621620Y-94408731D01*
X143677141Y-94460277D01*
X143680977Y-94463789D01*
X143728031Y-94507934D01*
X143765436Y-94544948D01*
X143789487Y-94571042D01*
X143796483Y-94582426D01*
X143795705Y-94582970D01*
X143777108Y-94582444D01*
X143745325Y-94573805D01*
X143743695Y-94573225D01*
X143721543Y-94563100D01*
X143694407Y-94546249D01*
X143659754Y-94520608D01*
X143615046Y-94484112D01*
X143557749Y-94434697D01*
X143485326Y-94370301D01*
X143395241Y-94288857D01*
X143243048Y-94150556D01*
X143252099Y-94079821D01*
X143253744Y-94067338D01*
X143258502Y-94040497D01*
X143360081Y-94040497D01*
X143445932Y-94125585D01*
X143489014Y-94167103D01*
X143521956Y-94193551D01*
X143549021Y-94205336D01*
X143576945Y-94205324D01*
X143612469Y-94196378D01*
X143651291Y-94179921D01*
X143693863Y-94140398D01*
X143720306Y-94079867D01*
X143735678Y-94022988D01*
X143642753Y-93938656D01*
X143623513Y-93921345D01*
X143582775Y-93886887D01*
X143553511Y-93867496D01*
X143529789Y-93859786D01*
X143505675Y-93860366D01*
X143459125Y-93875432D01*
X143413149Y-93916279D01*
X143380228Y-93981367D01*
X143360081Y-94040497D01*
X143258502Y-94040497D01*
X143270634Y-93972048D01*
X143293191Y-93899309D01*
X143323213Y-93844623D01*
X143362497Y-93803492D01*
X143376247Y-93792817D01*
X143452339Y-93749107D01*
X143530936Y-93731449D01*
X143617132Y-93738542D01*
X143643081Y-93744572D01*
X143668569Y-93753363D01*
X143694107Y-93767136D01*
X143723630Y-93788814D01*
X143761073Y-93821320D01*
X143810369Y-93867579D01*
X143875452Y-93930513D01*
X143876888Y-93931910D01*
X143952887Y-94007252D01*
X143967679Y-94022988D01*
X144010394Y-94068429D01*
X144051899Y-94119411D01*
X144079891Y-94164167D01*
X144096860Y-94206665D01*
X144105296Y-94250875D01*
X144107687Y-94300765D01*
X144107992Y-94383906D01*
X143976772Y-94253232D01*
X143960489Y-94237023D01*
X143912314Y-94189484D01*
X143879557Y-94158813D01*
X143858877Y-94142826D01*
X143846930Y-94139340D01*
X143840376Y-94146168D01*
X143835872Y-94161127D01*
X143834369Y-94167857D01*
X143834026Y-94188487D01*
X143843804Y-94210011D01*
X143867274Y-94238270D01*
X143908006Y-94279102D01*
X143931062Y-94301626D01*
X143973381Y-94343183D01*
X144030960Y-94399854D01*
X144101427Y-94469300D01*
X144182411Y-94549183D01*
X144271538Y-94637162D01*
X144366437Y-94730899D01*
X144464735Y-94828055D01*
X144939650Y-95297601D01*
X144956359Y-95216397D01*
X144964540Y-95181207D01*
X144978494Y-95133371D01*
X144991540Y-95100438D01*
X144995409Y-95092337D01*
X144997616Y-95081247D01*
X144994388Y-95067912D01*
X144983693Y-95049846D01*
X144963495Y-95024564D01*
X144931761Y-94989578D01*
X144886457Y-94942401D01*
X144825548Y-94880548D01*
X144747000Y-94801533D01*
X144483989Y-94537384D01*
X144474550Y-94359085D01*
X144465110Y-94180786D01*
X144264843Y-93990667D01*
X144216279Y-93944023D01*
X144133058Y-93862240D01*
X144047249Y-93776035D01*
X143966534Y-93693158D01*
X143898599Y-93621357D01*
X143732622Y-93442167D01*
X143732622Y-93364686D01*
X143731985Y-93331957D01*
X143726158Y-93295856D01*
X143709909Y-93266430D01*
X143678091Y-93231068D01*
X143652593Y-93202795D01*
X143610723Y-93150635D01*
X143573822Y-93098784D01*
X143556290Y-93070967D01*
X143535719Y-93029923D01*
X143526410Y-92990253D01*
X143524321Y-92938905D01*
X143524386Y-92933280D01*
X143535697Y-92866254D01*
X143650756Y-92866254D01*
X143756001Y-92989312D01*
X143795980Y-93035824D01*
X143830316Y-93075304D01*
X143853848Y-93101824D01*
X143862972Y-93111272D01*
X143874871Y-93106596D01*
X143902403Y-93096387D01*
X143930326Y-93078592D01*
X143962202Y-93044426D01*
X143986813Y-93005343D01*
X143996353Y-92971703D01*
X143993091Y-92962783D01*
X143975466Y-92934388D01*
X143946016Y-92893897D01*
X143908681Y-92846918D01*
X143878186Y-92810785D01*
X143839886Y-92771434D01*
X143808783Y-92753146D01*
X143779224Y-92755082D01*
X143745553Y-92776403D01*
X143702116Y-92816270D01*
X143650756Y-92866254D01*
X143535697Y-92866254D01*
X143539688Y-92842602D01*
X143580653Y-92760051D01*
X143645599Y-92689092D01*
X143662111Y-92675990D01*
X143685215Y-92662628D01*
X143713264Y-92655146D01*
X143753877Y-92651824D01*
X143814668Y-92650943D01*
X143844640Y-92651091D01*
X143905606Y-92654077D01*
X143947949Y-92661563D01*
X143978155Y-92674482D01*
X143988941Y-92682236D01*
X144023813Y-92715160D01*
X144068823Y-92764728D01*
X144120404Y-92826269D01*
X144174991Y-92895110D01*
X144229016Y-92966583D01*
X144278914Y-93036015D01*
X144321120Y-93098735D01*
X144352066Y-93150073D01*
X144368187Y-93185358D01*
X144371299Y-93196377D01*
X144378164Y-93225721D01*
X144378474Y-93237493D01*
X144377939Y-93237219D01*
X144365381Y-93223957D01*
X144339405Y-93193707D01*
X144303442Y-93150526D01*
X144260920Y-93098467D01*
X144254256Y-93090263D01*
X144211793Y-93039159D01*
X144175652Y-92997596D01*
X144149480Y-92969661D01*
X144136921Y-92959442D01*
X144132389Y-92962698D01*
X144127637Y-92971703D01*
X144120481Y-92985265D01*
X144107926Y-93022240D01*
X144107336Y-93024310D01*
X144089316Y-93067687D01*
X144058384Y-93110476D01*
X144009135Y-93160223D01*
X144000944Y-93167726D01*
X143959390Y-93203519D01*
X143923867Y-93230690D01*
X143901322Y-93243851D01*
X143882702Y-93257454D01*
X143868027Y-93287295D01*
X143867739Y-93288962D01*
X143868769Y-93307079D01*
X143878854Y-93329857D01*
X143900600Y-93361091D01*
X143936614Y-93404575D01*
X143989503Y-93464103D01*
X143999189Y-93474868D01*
X144047736Y-93530291D01*
X144090183Y-93581044D01*
X144122251Y-93621896D01*
X144139662Y-93647619D01*
X144145805Y-93657163D01*
X144171417Y-93689069D01*
X144210981Y-93733538D01*
X144260396Y-93786033D01*
X144315556Y-93842018D01*
X144469459Y-93994709D01*
X144469333Y-93501405D01*
X144469208Y-93008101D01*
X144381930Y-92896880D01*
X144339571Y-92842288D01*
X144291110Y-92776344D01*
X144256803Y-92722490D01*
X144234259Y-92675403D01*
X144221087Y-92629760D01*
X144214895Y-92580237D01*
X144213291Y-92521511D01*
X144213301Y-92511422D01*
X144386043Y-92511422D01*
X144387334Y-92527498D01*
X144404799Y-92581912D01*
X144438045Y-92638988D01*
X144481150Y-92689806D01*
X144528193Y-92725452D01*
X144532650Y-92727754D01*
X144570832Y-92742784D01*
X144601533Y-92747983D01*
X144652052Y-92744227D01*
X144697660Y-92737547D01*
X144729473Y-92725792D01*
X144755337Y-92705781D01*
X144783101Y-92674328D01*
X144796245Y-92657591D01*
X144820081Y-92618454D01*
X144821589Y-92594834D01*
X144820940Y-92593808D01*
X144807458Y-92573375D01*
X144782117Y-92535561D01*
X144748292Y-92485387D01*
X144709361Y-92427877D01*
X144608651Y-92279390D01*
X144549878Y-92300127D01*
X144496084Y-92325072D01*
X144436380Y-92374476D01*
X144398985Y-92437514D01*
X144386043Y-92511422D01*
X144213301Y-92511422D01*
X144213307Y-92505162D01*
X144214925Y-92445307D01*
X144220357Y-92401845D01*
X144231339Y-92365470D01*
X144249609Y-92326875D01*
X144265835Y-92297911D01*
X144312249Y-92235370D01*
X144370516Y-92186564D01*
X144448605Y-92144178D01*
X144484461Y-92129488D01*
X144586593Y-92106331D01*
X144687270Y-92110209D01*
X144783659Y-92140765D01*
X144872932Y-92197641D01*
X144878359Y-92202463D01*
X144909219Y-92236761D01*
X144949648Y-92289175D01*
X144996398Y-92354706D01*
X145046220Y-92428356D01*
X145095864Y-92505126D01*
X145142082Y-92580018D01*
X145181625Y-92648033D01*
X145211244Y-92704173D01*
X145227691Y-92743440D01*
X145233696Y-92764369D01*
X145240943Y-92794623D01*
X145241518Y-92806513D01*
X145241250Y-92806405D01*
X145230965Y-92793378D01*
X145209109Y-92761751D01*
X145178700Y-92715984D01*
X145142756Y-92660536D01*
X145139476Y-92655433D01*
X145103232Y-92600537D01*
X145071969Y-92555765D01*
X145048929Y-92525609D01*
X145037355Y-92514559D01*
X145035446Y-92515229D01*
X145028409Y-92532349D01*
X145025562Y-92565358D01*
X145025559Y-92566205D01*
X145020001Y-92594834D01*
X145013504Y-92628299D01*
X144981198Y-92696679D01*
X144933313Y-92765535D01*
X144874522Y-92829055D01*
X144809497Y-92881431D01*
X144742911Y-92916849D01*
X144703556Y-92931802D01*
X144756153Y-93004708D01*
X144784430Y-93043523D01*
X144827831Y-93102254D01*
X144868497Y-93156497D01*
X144928244Y-93235381D01*
X144928244Y-93904999D01*
X144928244Y-94574617D01*
X145067269Y-94446332D01*
X145206295Y-94318046D01*
X145206295Y-93877758D01*
X145206295Y-93437470D01*
X145463493Y-93203671D01*
X145519896Y-93152070D01*
X145584772Y-93091820D01*
X145640068Y-93039452D01*
X145683006Y-92997641D01*
X145710806Y-92969056D01*
X145720690Y-92956370D01*
X145718693Y-92943919D01*
X145710618Y-92910432D01*
X145698459Y-92866395D01*
X145695505Y-92855645D01*
X145684113Y-92764931D01*
X145686306Y-92750053D01*
X145804106Y-92750053D01*
X145808684Y-92768968D01*
X145824860Y-92805230D01*
X145848252Y-92848017D01*
X145874142Y-92889386D01*
X145897816Y-92921394D01*
X145914557Y-92936097D01*
X145923977Y-92938907D01*
X145957034Y-92949463D01*
X145972604Y-92952249D01*
X146016537Y-92947088D01*
X146064130Y-92929600D01*
X146103275Y-92903584D01*
X146136478Y-92872391D01*
X146107650Y-92815123D01*
X146089517Y-92780036D01*
X146061033Y-92726576D01*
X146031726Y-92672916D01*
X145984630Y-92587977D01*
X145922293Y-92602242D01*
X145880388Y-92615278D01*
X145854206Y-92636122D01*
X145832030Y-92674192D01*
X145824289Y-92690899D01*
X145809838Y-92727211D01*
X145804106Y-92750053D01*
X145686306Y-92750053D01*
X145696594Y-92680275D01*
X145731160Y-92605716D01*
X145786020Y-92545296D01*
X145859386Y-92503055D01*
X145892934Y-92491726D01*
X145949345Y-92478148D01*
X145996277Y-92472852D01*
X146043538Y-92478745D01*
X146113014Y-92503140D01*
X146177562Y-92541234D01*
X146225792Y-92587345D01*
X146230990Y-92594781D01*
X146251294Y-92628138D01*
X146278065Y-92675933D01*
X146308458Y-92732627D01*
X146339626Y-92792681D01*
X146368723Y-92850558D01*
X146392902Y-92900718D01*
X146409317Y-92937623D01*
X146415121Y-92955734D01*
X146412691Y-92954218D01*
X146400339Y-92934531D01*
X146379949Y-92897670D01*
X146354227Y-92848410D01*
X146294032Y-92730427D01*
X146277476Y-92810176D01*
X146274173Y-92824344D01*
X146255768Y-92872391D01*
X146246392Y-92896866D01*
X146204689Y-92962090D01*
X146154248Y-93013198D01*
X146100251Y-93043368D01*
X146089869Y-93046759D01*
X146056255Y-93058375D01*
X146038054Y-93065689D01*
X146037874Y-93065835D01*
X146041374Y-93080305D01*
X146056462Y-93113709D01*
X146080804Y-93161240D01*
X146112064Y-93218088D01*
X146113824Y-93221197D01*
X146145195Y-93277457D01*
X146170161Y-93323799D01*
X146186234Y-93355497D01*
X146190924Y-93367823D01*
X146190917Y-93367826D01*
X146175778Y-93368442D01*
X146140521Y-93367553D01*
X146092761Y-93365349D01*
X145999096Y-93360259D01*
X145907538Y-93208298D01*
X145815979Y-93056337D01*
X145778762Y-93085429D01*
X145778047Y-93085992D01*
X145755193Y-93105176D01*
X145715839Y-93139361D01*
X145663899Y-93185101D01*
X145603283Y-93238952D01*
X145537907Y-93297469D01*
X145334269Y-93480418D01*
X145437321Y-93629123D01*
X145540373Y-93777827D01*
X145536690Y-94191974D01*
X145533006Y-94606121D01*
X145436919Y-94484861D01*
X145402823Y-94442504D01*
X145368651Y-94401617D01*
X145343917Y-94373843D01*
X145332432Y-94363601D01*
X145325072Y-94368873D01*
X145300622Y-94390873D01*
X145262585Y-94427008D01*
X145214364Y-94474033D01*
X145159361Y-94528703D01*
X144994689Y-94693805D01*
X145089090Y-94796328D01*
X145116363Y-94824884D01*
X145155823Y-94862364D01*
X145187159Y-94887512D01*
X145205320Y-94895994D01*
X145206829Y-94895777D01*
X145233032Y-94890681D01*
X145276670Y-94881145D01*
X145329144Y-94869041D01*
X145371317Y-94859757D01*
X145422176Y-94852618D01*
X145469572Y-94853354D01*
X145527314Y-94861436D01*
X145557728Y-94867388D01*
X145632446Y-94890024D01*
X145702050Y-94925044D01*
X145771011Y-94975526D01*
X145843800Y-95044550D01*
X145924888Y-95135194D01*
X145928332Y-95139271D01*
X146005760Y-95235978D01*
X146063648Y-95320425D01*
X146091800Y-95373398D01*
X146104409Y-95397125D01*
X146130455Y-95470586D01*
X146144198Y-95545320D01*
X146154067Y-95635687D01*
X146107703Y-95580077D01*
X146094824Y-95564788D01*
X146054117Y-95517759D01*
X146016514Y-95475807D01*
X145971689Y-95427148D01*
X145971313Y-95482938D01*
X145971407Y-95493097D01*
X145973546Y-95511661D01*
X145980386Y-95530451D01*
X145994450Y-95552676D01*
X146018259Y-95581547D01*
X146054337Y-95620274D01*
X146105205Y-95672067D01*
X146173385Y-95740136D01*
X146239628Y-95806841D01*
X146309471Y-95878696D01*
X146374824Y-95947367D01*
X146430545Y-96007446D01*
X146471492Y-96053528D01*
X146567150Y-96165512D01*
X146576406Y-96679143D01*
X146585661Y-97192775D01*
X147216101Y-97825342D01*
X147846542Y-98457909D01*
X147850639Y-98527422D01*
X147854735Y-98596935D01*
X147962480Y-98493792D01*
X148070225Y-98390648D01*
X148070225Y-98200931D01*
X148070225Y-98011214D01*
X147541927Y-97486734D01*
X147077956Y-97026115D01*
X147263876Y-97026115D01*
X147689236Y-97450058D01*
X147734634Y-97495376D01*
X147825827Y-97586836D01*
X147912080Y-97673889D01*
X147990922Y-97754010D01*
X148059883Y-97824674D01*
X148116493Y-97883354D01*
X148158281Y-97927526D01*
X148182777Y-97954663D01*
X148250958Y-98035324D01*
X148250958Y-98280498D01*
X148250958Y-98525673D01*
X148212266Y-98488603D01*
X148173573Y-98451533D01*
X147967593Y-98657856D01*
X147761613Y-98864180D01*
X147804100Y-98894433D01*
X147809265Y-98898158D01*
X147829846Y-98916058D01*
X147841603Y-98937138D01*
X147847540Y-98969606D01*
X147850661Y-99021672D01*
X147854735Y-99118657D01*
X148205775Y-98767329D01*
X148556815Y-98416001D01*
X148556815Y-98270332D01*
X148556815Y-98124663D01*
X147947327Y-97512742D01*
X147937785Y-97503160D01*
X147829384Y-97394110D01*
X147726174Y-97289924D01*
X147629964Y-97192452D01*
X147542562Y-97103543D01*
X147465779Y-97025046D01*
X147401423Y-96958810D01*
X147351303Y-96906685D01*
X147317230Y-96870519D01*
X147301012Y-96852162D01*
X147264184Y-96803503D01*
X147264030Y-96914809D01*
X147263876Y-97026115D01*
X147077956Y-97026115D01*
X147013630Y-96962254D01*
X147012534Y-96570071D01*
X147012527Y-96567542D01*
X147012289Y-96461076D01*
X147012169Y-96359564D01*
X147012162Y-96267578D01*
X147012268Y-96189688D01*
X147012482Y-96130462D01*
X147012804Y-96094472D01*
X147012909Y-96064102D01*
X147009113Y-96016384D01*
X146997465Y-95989954D01*
X146975111Y-95980520D01*
X146939196Y-95983788D01*
X146930670Y-95985479D01*
X146900642Y-95993302D01*
X146888506Y-95999770D01*
X146888528Y-95999982D01*
X146896776Y-96014647D01*
X146917034Y-96045126D01*
X146945122Y-96085113D01*
X147001738Y-96163985D01*
X146967140Y-96168271D01*
X146909827Y-96161921D01*
X146845286Y-96128931D01*
X146774668Y-96069429D01*
X146698315Y-95983650D01*
X146691365Y-95974915D01*
X146629540Y-95890271D01*
X146588477Y-95817307D01*
X146566672Y-95751653D01*
X146562621Y-95688938D01*
X146569213Y-95654275D01*
X146690148Y-95654275D01*
X146698613Y-95676546D01*
X146718849Y-95709293D01*
X146753037Y-95758602D01*
X146768996Y-95780768D01*
X146802410Y-95823765D01*
X146829932Y-95854756D01*
X146846799Y-95868174D01*
X146856354Y-95868975D01*
X146889803Y-95864586D01*
X146932070Y-95853695D01*
X146943852Y-95849877D01*
X146979502Y-95834368D01*
X146999473Y-95813261D01*
X147013157Y-95777758D01*
X147015098Y-95771233D01*
X147017604Y-95760810D01*
X147166830Y-95760810D01*
X147169646Y-95775257D01*
X147184641Y-95810630D01*
X147208266Y-95851177D01*
X147249854Y-95913738D01*
X147249914Y-95852818D01*
X147249144Y-95836980D01*
X147241132Y-95795096D01*
X147226943Y-95755772D01*
X147209723Y-95725131D01*
X147192619Y-95709297D01*
X147178779Y-95714396D01*
X147172677Y-95727993D01*
X147169469Y-95745999D01*
X147166830Y-95760810D01*
X147017604Y-95760810D01*
X147021165Y-95745999D01*
X147020633Y-95724372D01*
X147011195Y-95699733D01*
X146990543Y-95665468D01*
X146956370Y-95614959D01*
X146948577Y-95603601D01*
X146916338Y-95557675D01*
X146893885Y-95530096D01*
X146876368Y-95516942D01*
X146858936Y-95514290D01*
X146836737Y-95518217D01*
X146806390Y-95526935D01*
X146743504Y-95561848D01*
X146701192Y-95614117D01*
X146699794Y-95616830D01*
X146691269Y-95636398D01*
X146690148Y-95654275D01*
X146569213Y-95654275D01*
X146574820Y-95624792D01*
X146590289Y-95583372D01*
X146639096Y-95506838D01*
X146706731Y-95448326D01*
X146789520Y-95411489D01*
X146827279Y-95401666D01*
X146865154Y-95396124D01*
X146900643Y-95399436D01*
X146947513Y-95411614D01*
X146957012Y-95414535D01*
X147002769Y-95434386D01*
X147045536Y-95464854D01*
X147088973Y-95509597D01*
X147136738Y-95572273D01*
X147192490Y-95656541D01*
X147249709Y-95746907D01*
X147249841Y-95595664D01*
X147249973Y-95444421D01*
X147203761Y-95393269D01*
X147178143Y-95362536D01*
X147127022Y-95287017D01*
X147083003Y-95203793D01*
X147050490Y-95121763D01*
X147033883Y-95049827D01*
X147032329Y-95019190D01*
X147122590Y-95019190D01*
X147158617Y-95073631D01*
X147166126Y-95084160D01*
X147205940Y-95127759D01*
X147249838Y-95162914D01*
X147267611Y-95173944D01*
X147295946Y-95190529D01*
X147308783Y-95196502D01*
X147309840Y-95196175D01*
X147328348Y-95190830D01*
X147361194Y-95181505D01*
X147365824Y-95180098D01*
X147406751Y-95160811D01*
X147445715Y-95132820D01*
X147474857Y-95102688D01*
X147486317Y-95076983D01*
X147479235Y-95065510D01*
X147454659Y-95058730D01*
X147451715Y-95058632D01*
X147434351Y-95052572D01*
X147416338Y-95033979D01*
X147394323Y-94998475D01*
X147364953Y-94941687D01*
X147344713Y-94901529D01*
X147322555Y-94861493D01*
X147305912Y-94839499D01*
X147291232Y-94831234D01*
X147274964Y-94832385D01*
X147234820Y-94850556D01*
X147187955Y-94894943D01*
X147149637Y-94959021D01*
X147122590Y-95019190D01*
X147032329Y-95019190D01*
X147030730Y-94987667D01*
X147043481Y-94901565D01*
X147078619Y-94830714D01*
X147136690Y-94773652D01*
X147209799Y-94730684D01*
X147294370Y-94705822D01*
X147376645Y-94707938D01*
X147454817Y-94736944D01*
X147527081Y-94792753D01*
X147547247Y-94815149D01*
X147595514Y-94884104D01*
X147640663Y-94967698D01*
X147678761Y-95057159D01*
X147684971Y-95076983D01*
X147705875Y-95143720D01*
X147718072Y-95218610D01*
X147722396Y-95302025D01*
X147668690Y-95192618D01*
X147614985Y-95083210D01*
X147577091Y-95152835D01*
X147552215Y-95192313D01*
X147513676Y-95232239D01*
X147458364Y-95269194D01*
X147377531Y-95315928D01*
X147431924Y-95414957D01*
X147486317Y-95513987D01*
X147486317Y-95852818D01*
X147486317Y-96186618D01*
X147486317Y-96859249D01*
X148021566Y-97394362D01*
X148556815Y-97929476D01*
X148556815Y-97853002D01*
X148556815Y-97776527D01*
X148090032Y-97310869D01*
X148006643Y-97227307D01*
X147913380Y-97132952D01*
X147826211Y-97043827D01*
X147747421Y-96962316D01*
X147679294Y-96890799D01*
X147624114Y-96831657D01*
X147584166Y-96787274D01*
X147561734Y-96760030D01*
X147500220Y-96674849D01*
X147500220Y-96301137D01*
X147500220Y-95927425D01*
X147664776Y-95753751D01*
X147829333Y-95580077D01*
X147823010Y-95493527D01*
X147825594Y-95429771D01*
X147942670Y-95429771D01*
X147951791Y-95472640D01*
X147971551Y-95523236D01*
X147996958Y-95570289D01*
X148023023Y-95602525D01*
X148041516Y-95614991D01*
X148092227Y-95630386D01*
X148149532Y-95630163D01*
X148205217Y-95615942D01*
X148251066Y-95589347D01*
X148278867Y-95552000D01*
X148284488Y-95537256D01*
X148290624Y-95514317D01*
X148281363Y-95504119D01*
X148251919Y-95496872D01*
X148251611Y-95496804D01*
X148226809Y-95489475D01*
X148206852Y-95477055D01*
X148189036Y-95455280D01*
X148170653Y-95419884D01*
X148148995Y-95366604D01*
X148121357Y-95291176D01*
X148118578Y-95283990D01*
X148110106Y-95274276D01*
X148093284Y-95277286D01*
X148060072Y-95293298D01*
X148055399Y-95295737D01*
X147997800Y-95334412D01*
X147958756Y-95377773D01*
X147942675Y-95421026D01*
X147942670Y-95429771D01*
X147825594Y-95429771D01*
X147826782Y-95400472D01*
X147854715Y-95315179D01*
X147907571Y-95242014D01*
X147985717Y-95180273D01*
X147999371Y-95172644D01*
X148068122Y-95151810D01*
X148145217Y-95150797D01*
X148223200Y-95168142D01*
X148294612Y-95202384D01*
X148351997Y-95252061D01*
X148368711Y-95275791D01*
X148397862Y-95330584D01*
X148427100Y-95398498D01*
X148453112Y-95470835D01*
X148472585Y-95538895D01*
X148482207Y-95593979D01*
X148487671Y-95663492D01*
X148456986Y-95583552D01*
X148441642Y-95546535D01*
X148426147Y-95515526D01*
X148416379Y-95503612D01*
X148411573Y-95508301D01*
X148408926Y-95514317D01*
X148400693Y-95533028D01*
X148388959Y-95571882D01*
X148388122Y-95575107D01*
X148372253Y-95619741D01*
X148347515Y-95653965D01*
X148305868Y-95689122D01*
X148277351Y-95708315D01*
X148229687Y-95733676D01*
X148189853Y-95747552D01*
X148182724Y-95748988D01*
X148149545Y-95758558D01*
X148132393Y-95768398D01*
X148133189Y-95782910D01*
X148143201Y-95816090D01*
X148160532Y-95859326D01*
X148176316Y-95897547D01*
X148187403Y-95930337D01*
X148189162Y-95945413D01*
X148188758Y-95945681D01*
X148171493Y-95943858D01*
X148135943Y-95934334D01*
X148089238Y-95918995D01*
X148056921Y-95907401D01*
X148019988Y-95891264D01*
X147996138Y-95872253D01*
X147977218Y-95842869D01*
X147955073Y-95795615D01*
X147953328Y-95791751D01*
X147932863Y-95747218D01*
X147917142Y-95714347D01*
X147909443Y-95700010D01*
X147908053Y-95700035D01*
X147891831Y-95711268D01*
X147861356Y-95736904D01*
X147820944Y-95772895D01*
X147774909Y-95815191D01*
X147727568Y-95859745D01*
X147683235Y-95902509D01*
X147646226Y-95939433D01*
X147620856Y-95966471D01*
X147611440Y-95979572D01*
X147611442Y-95979700D01*
X147618257Y-95997768D01*
X147635715Y-96032146D01*
X147660099Y-96075499D01*
X147708758Y-96158523D01*
X147708758Y-96439391D01*
X147708758Y-96720258D01*
X148134341Y-97144201D01*
X148559925Y-97568144D01*
X148552213Y-97418965D01*
X148549906Y-97375702D01*
X148546157Y-97323484D01*
X148540902Y-97288978D01*
X148532368Y-97265941D01*
X148518784Y-97248125D01*
X148498375Y-97229285D01*
X148490649Y-97221873D01*
X148459568Y-97184907D01*
X148423869Y-97134631D01*
X148389835Y-97079702D01*
X148368625Y-97041992D01*
X148346290Y-96997429D01*
X148333901Y-96960779D01*
X148328586Y-96922527D01*
X148327472Y-96873159D01*
X148327487Y-96868580D01*
X148333087Y-96797951D01*
X148470182Y-96797951D01*
X148474733Y-96834818D01*
X148494923Y-96887099D01*
X148509892Y-96925266D01*
X148521114Y-96965181D01*
X148522543Y-96989662D01*
X148525910Y-97011454D01*
X148555497Y-97036856D01*
X148567057Y-97043155D01*
X148623740Y-97058342D01*
X148682574Y-97047376D01*
X148746070Y-97009901D01*
X148778561Y-96976756D01*
X148795714Y-96929344D01*
X148796720Y-96919999D01*
X148795717Y-96893443D01*
X148781471Y-96878024D01*
X148747155Y-96864647D01*
X148733533Y-96859784D01*
X148704377Y-96843513D01*
X148682408Y-96816919D01*
X148659979Y-96771865D01*
X148657786Y-96766911D01*
X148639176Y-96727408D01*
X148624483Y-96707707D01*
X148607343Y-96702524D01*
X148581397Y-96706572D01*
X148542350Y-96719783D01*
X148510344Y-96738857D01*
X148482115Y-96768369D01*
X148470182Y-96797951D01*
X148333087Y-96797951D01*
X148333491Y-96792852D01*
X148353325Y-96734740D01*
X148391324Y-96686071D01*
X148451822Y-96638670D01*
X148500923Y-96610633D01*
X148585091Y-96583222D01*
X148669054Y-96579096D01*
X148747775Y-96598228D01*
X148816215Y-96640590D01*
X148845482Y-96671889D01*
X148887099Y-96733007D01*
X148925823Y-96806533D01*
X148957862Y-96884081D01*
X148968445Y-96919999D01*
X148979424Y-96957264D01*
X148986717Y-97017694D01*
X148985640Y-97067652D01*
X148960442Y-96998139D01*
X148935245Y-96928626D01*
X148914124Y-96977285D01*
X148892388Y-97020476D01*
X148840272Y-97086857D01*
X148767813Y-97139983D01*
X148742649Y-97155154D01*
X148709732Y-97177311D01*
X148692578Y-97192108D01*
X148683240Y-97218728D01*
X148687477Y-97266937D01*
X148709743Y-97324849D01*
X148718626Y-97344189D01*
X148725892Y-97367117D01*
X148731036Y-97396269D01*
X148734415Y-97435961D01*
X148736383Y-97490508D01*
X148737298Y-97564227D01*
X148737514Y-97661433D01*
X148737142Y-97751834D01*
X148735868Y-97875018D01*
X148733853Y-98006005D01*
X148731456Y-98124663D01*
X148731268Y-98133989D01*
X148728281Y-98248161D01*
X148719082Y-98552808D01*
X148689036Y-98515128D01*
X148658991Y-98477447D01*
X148197258Y-98949705D01*
X147735526Y-99421963D01*
X147784704Y-99439746D01*
X147833881Y-99457529D01*
X147833881Y-99834482D01*
X147833881Y-100211435D01*
X147883351Y-100235025D01*
X147907555Y-100247234D01*
X148012112Y-100317427D01*
X148099576Y-100406101D01*
X148166652Y-100509342D01*
X148210046Y-100623235D01*
X148234283Y-100717077D01*
X148202615Y-100717077D01*
X148177047Y-100721115D01*
X148162503Y-100733035D01*
X148156917Y-100737613D01*
X148141011Y-100771653D01*
X148125834Y-100828298D01*
X148112775Y-100874916D01*
X148065032Y-100978100D01*
X147992036Y-101075236D01*
X147892568Y-101168102D01*
X147855963Y-101197977D01*
X147815797Y-101231665D01*
X147788401Y-101255774D01*
X147778271Y-101266438D01*
X147788127Y-101266858D01*
X147813933Y-101258933D01*
X147839199Y-101249739D01*
X147853659Y-101245375D01*
X147855756Y-101247193D01*
X147873375Y-101264961D01*
X147907168Y-101299949D01*
X147955115Y-101350036D01*
X148015194Y-101413102D01*
X148085384Y-101487028D01*
X148163663Y-101569693D01*
X148248010Y-101658976D01*
X148331702Y-101747318D01*
X148435828Y-101856428D01*
X148542528Y-101967483D01*
X148647492Y-102076028D01*
X148746411Y-102177608D01*
X148834976Y-102267771D01*
X148908878Y-102342060D01*
X149179460Y-102611543D01*
X149159129Y-102660200D01*
X149155718Y-102668411D01*
X149146023Y-102695040D01*
X149148566Y-102703219D01*
X149164090Y-102698710D01*
X149166878Y-102697678D01*
X149196162Y-102689290D01*
X149242463Y-102677978D01*
X149297090Y-102665886D01*
X149340329Y-102656536D01*
X149377417Y-102646434D01*
X149397954Y-102635406D01*
X149408008Y-102619813D01*
X149413652Y-102596019D01*
X149422505Y-102548827D01*
X149496938Y-102557575D01*
X149546873Y-102565960D01*
X149654598Y-102602699D01*
X149749572Y-102661645D01*
X149828094Y-102740155D01*
X149886460Y-102835587D01*
X149887923Y-102838796D01*
X149903015Y-102873699D01*
X149913331Y-102904589D01*
X149919722Y-102937829D01*
X149923040Y-102979781D01*
X149924134Y-103036807D01*
X149923855Y-103115271D01*
X149923701Y-103133288D01*
X149922260Y-103210924D01*
X149922098Y-103213963D01*
X149919211Y-103267997D01*
X149913847Y-103310561D01*
X149905459Y-103344667D01*
X149893341Y-103376370D01*
X149849911Y-103457197D01*
X149774287Y-103551178D01*
X149682163Y-103625357D01*
X149599508Y-103677618D01*
X149599508Y-103973532D01*
X149599508Y-104269445D01*
X149877559Y-104547236D01*
X150155611Y-104825027D01*
X150155611Y-104399936D01*
X150155637Y-104365943D01*
X150156006Y-104249289D01*
X150156772Y-104112476D01*
X150157885Y-103961210D01*
X150159297Y-103801197D01*
X150160959Y-103638143D01*
X150162821Y-103477754D01*
X150164835Y-103325736D01*
X150174060Y-102676626D01*
X149692148Y-102193427D01*
X149210236Y-101710227D01*
X149210283Y-101509082D01*
X149210085Y-101472209D01*
X149208750Y-101387352D01*
X149206322Y-101285438D01*
X149202995Y-101173377D01*
X149198964Y-101058084D01*
X149194424Y-100946470D01*
X149192570Y-100904553D01*
X149187929Y-100803827D01*
X149183852Y-100726389D01*
X149179946Y-100668918D01*
X149175816Y-100628094D01*
X149171069Y-100600598D01*
X149165312Y-100583110D01*
X149158152Y-100572310D01*
X149149194Y-100564878D01*
X149148010Y-100564062D01*
X149074316Y-100499235D01*
X149022793Y-100423862D01*
X148994749Y-100341751D01*
X148992318Y-100278246D01*
X149116706Y-100278246D01*
X149131726Y-100286097D01*
X149135020Y-100286522D01*
X149153914Y-100303988D01*
X149170736Y-100343594D01*
X149189418Y-100385985D01*
X149230380Y-100426957D01*
X149265609Y-100443542D01*
X149324680Y-100451706D01*
X149379194Y-100438061D01*
X149424619Y-100406296D01*
X149456425Y-100360099D01*
X149470080Y-100303160D01*
X149461053Y-100239168D01*
X149455550Y-100223991D01*
X149432135Y-100183505D01*
X149395256Y-100152843D01*
X149337837Y-100125475D01*
X149305293Y-100113345D01*
X149278404Y-100108891D01*
X149250914Y-100115197D01*
X149210631Y-100132984D01*
X149181998Y-100147740D01*
X149149837Y-100172749D01*
X149136138Y-100200930D01*
X149129460Y-100229097D01*
X149119355Y-100261768D01*
X149116706Y-100278246D01*
X148992318Y-100278246D01*
X148991494Y-100256712D01*
X149014336Y-100172554D01*
X149035596Y-100131112D01*
X149091510Y-100060434D01*
X149159974Y-100012555D01*
X149237716Y-99988216D01*
X149321464Y-99988159D01*
X149407946Y-100013126D01*
X149493890Y-100063858D01*
X149521415Y-100085474D01*
X149553396Y-100116944D01*
X149573504Y-100151190D01*
X149589293Y-100198904D01*
X149598062Y-100235265D01*
X149603029Y-100269761D01*
X149600718Y-100285867D01*
X149593663Y-100298297D01*
X149591993Y-100303160D01*
X149582336Y-100331283D01*
X149570393Y-100376277D01*
X149565677Y-100395638D01*
X149553578Y-100433609D01*
X149536485Y-100462844D01*
X149508558Y-100491697D01*
X149463958Y-100528518D01*
X149377067Y-100597532D01*
X149377067Y-101112705D01*
X149377067Y-101627879D01*
X149773290Y-102023919D01*
X150169514Y-102419959D01*
X150169514Y-102345363D01*
X150169514Y-102270766D01*
X149919267Y-102010016D01*
X149669021Y-101749267D01*
X149669021Y-101443071D01*
X149669021Y-101136874D01*
X149627351Y-101122348D01*
X149605287Y-101113546D01*
X149535189Y-101067800D01*
X149481265Y-101003473D01*
X149445799Y-100925154D01*
X149431075Y-100837428D01*
X149437267Y-100768405D01*
X149564770Y-100768405D01*
X149566241Y-100822829D01*
X149583869Y-100878862D01*
X149614345Y-100929227D01*
X149654361Y-100966646D01*
X149700607Y-100983844D01*
X149701199Y-100983902D01*
X149732302Y-100991861D01*
X149742009Y-101005556D01*
X149740943Y-101012131D01*
X149742009Y-101021680D01*
X149742128Y-101021638D01*
X149757151Y-101017028D01*
X149787193Y-101008053D01*
X149819142Y-100992364D01*
X149859327Y-100950921D01*
X149886698Y-100894289D01*
X149896809Y-100829703D01*
X149895499Y-100801380D01*
X149879661Y-100744112D01*
X149843364Y-100703104D01*
X149783470Y-100674046D01*
X149775471Y-100671386D01*
X149733681Y-100660348D01*
X149700672Y-100660378D01*
X149662070Y-100671130D01*
X149652132Y-100674943D01*
X149611133Y-100697549D01*
X149582255Y-100723562D01*
X149564770Y-100768405D01*
X149437267Y-100768405D01*
X149439377Y-100744882D01*
X149439845Y-100742814D01*
X149468372Y-100676464D01*
X149518104Y-100616382D01*
X149582662Y-100567439D01*
X149655670Y-100534502D01*
X149730748Y-100522441D01*
X149812636Y-100535364D01*
X149886629Y-100571684D01*
X149947657Y-100627240D01*
X149991156Y-100697871D01*
X150012560Y-100779413D01*
X150014504Y-100821648D01*
X150013277Y-100829703D01*
X150000222Y-100915396D01*
X149960697Y-101000078D01*
X149897330Y-101073233D01*
X149811522Y-101132400D01*
X149811236Y-101132552D01*
X149799978Y-101139567D01*
X149791839Y-101149529D01*
X149786315Y-101166582D01*
X149782899Y-101194869D01*
X149781085Y-101238532D01*
X149780368Y-101301714D01*
X149780241Y-101388559D01*
X149780241Y-101628082D01*
X149965651Y-101813110D01*
X150151061Y-101998138D01*
X150160267Y-101465353D01*
X150160326Y-101461937D01*
X150162419Y-101323447D01*
X150164345Y-101164361D01*
X150166046Y-100991697D01*
X150167467Y-100812474D01*
X150168553Y-100633710D01*
X150169247Y-100462423D01*
X150169494Y-100305630D01*
X150169492Y-100223853D01*
X150169420Y-100089310D01*
X150169164Y-99978759D01*
X150168611Y-99889709D01*
X150167648Y-99819667D01*
X150166163Y-99766140D01*
X150164043Y-99726636D01*
X150161176Y-99698661D01*
X150157449Y-99679724D01*
X150152749Y-99667331D01*
X150146965Y-99658991D01*
X150139983Y-99652209D01*
X150126438Y-99639057D01*
X150095016Y-99607498D01*
X150048821Y-99560597D01*
X149990267Y-99500822D01*
X149921771Y-99430638D01*
X149845748Y-99352513D01*
X149764613Y-99268914D01*
X149418775Y-98912102D01*
X149418775Y-97516972D01*
X149418775Y-96121842D01*
X149250491Y-95955229D01*
X149248030Y-95952790D01*
X149192536Y-95896998D01*
X149122717Y-95825633D01*
X149042954Y-95743239D01*
X148957627Y-95654360D01*
X148871118Y-95563541D01*
X148787809Y-95475325D01*
X148739700Y-95424112D01*
X148666722Y-95346140D01*
X148609374Y-95284048D01*
X148565454Y-95235030D01*
X148532760Y-95196278D01*
X148509087Y-95164985D01*
X148492235Y-95138342D01*
X148479999Y-95113543D01*
X148470178Y-95087781D01*
X148460569Y-95058248D01*
X148452413Y-95031080D01*
X148442913Y-94992661D01*
X148435536Y-94950538D01*
X148429768Y-94899889D01*
X148425099Y-94835897D01*
X148421015Y-94753742D01*
X148417003Y-94648604D01*
X148416879Y-94645031D01*
X148413468Y-94531853D01*
X148410388Y-94401684D01*
X148407832Y-94264967D01*
X148405999Y-94132145D01*
X148405083Y-94013661D01*
X148403887Y-93684574D01*
X148327484Y-93630373D01*
X148321543Y-93626076D01*
X148255908Y-93569109D01*
X148191418Y-93498201D01*
X148135734Y-93422602D01*
X148096520Y-93351564D01*
X148086790Y-93326924D01*
X148068407Y-93274795D01*
X148047394Y-93210609D01*
X148026650Y-93143025D01*
X148006889Y-93067414D01*
X147984107Y-92940360D01*
X147973640Y-92815653D01*
X147974060Y-92794824D01*
X148315303Y-92794824D01*
X148330498Y-92879778D01*
X148365224Y-92959045D01*
X148416400Y-93023277D01*
X148441392Y-93044527D01*
X148484213Y-93075184D01*
X148519671Y-93094207D01*
X148526031Y-93096523D01*
X148606055Y-93111962D01*
X148687252Y-93101372D01*
X148772784Y-93064380D01*
X148813384Y-93039283D01*
X148855492Y-93003539D01*
X148881791Y-92964158D01*
X148906904Y-92911497D01*
X148865793Y-92874765D01*
X148821426Y-92846662D01*
X148763737Y-92828819D01*
X148748323Y-92826235D01*
X148709180Y-92817381D01*
X148685104Y-92808571D01*
X148676669Y-92794037D01*
X148664292Y-92757114D01*
X148650421Y-92704078D01*
X148636770Y-92640873D01*
X148606123Y-92484208D01*
X148550830Y-92493050D01*
X148538123Y-92495412D01*
X148460960Y-92525142D01*
X148396004Y-92576793D01*
X148347402Y-92646136D01*
X148319302Y-92728946D01*
X148315303Y-92794824D01*
X147974060Y-92794824D01*
X147975960Y-92700569D01*
X147991539Y-92602386D01*
X148028407Y-92502450D01*
X148091542Y-92400013D01*
X148174184Y-92309361D01*
X148272310Y-92233548D01*
X148381899Y-92175626D01*
X148498928Y-92138651D01*
X148619377Y-92125675D01*
X148632129Y-92125915D01*
X148719821Y-92136904D01*
X148816903Y-92161977D01*
X148913063Y-92197973D01*
X148997989Y-92241732D01*
X149056971Y-92285843D01*
X149124850Y-92353015D01*
X149186878Y-92430413D01*
X149235426Y-92509434D01*
X149237048Y-92512760D01*
X149252570Y-92559354D01*
X149267178Y-92628052D01*
X149280278Y-92713682D01*
X149291277Y-92811076D01*
X149299298Y-92911497D01*
X149299583Y-92915062D01*
X149304601Y-93020471D01*
X149305738Y-93122132D01*
X149303921Y-93300055D01*
X149286202Y-93161029D01*
X149281021Y-93120622D01*
X149274189Y-93068197D01*
X149269194Y-93030937D01*
X149266859Y-93015052D01*
X149264574Y-93016434D01*
X149253851Y-93035127D01*
X149237671Y-93068849D01*
X149232153Y-93080427D01*
X149181632Y-93160102D01*
X149111215Y-93240827D01*
X149026905Y-93317081D01*
X148934704Y-93383344D01*
X148840612Y-93434095D01*
X148836660Y-93435855D01*
X148801084Y-93454395D01*
X148786097Y-93471118D01*
X148786158Y-93491906D01*
X148794593Y-93528855D01*
X148804971Y-93577500D01*
X148813400Y-93623596D01*
X148820080Y-93670517D01*
X148825215Y-93721636D01*
X148829005Y-93780324D01*
X148831654Y-93849954D01*
X148833362Y-93933899D01*
X148834333Y-94035531D01*
X148834767Y-94158223D01*
X148834867Y-94305348D01*
X148834867Y-94884795D01*
X149297127Y-95347199D01*
X149759388Y-95809604D01*
X149763849Y-96630258D01*
X149768310Y-97450912D01*
X150009905Y-97217574D01*
X150251500Y-96984236D01*
X150252163Y-95872031D01*
X150252826Y-94759825D01*
X150163224Y-94713494D01*
X150064677Y-94648493D01*
X149981608Y-94561465D01*
X149917172Y-94453851D01*
X149911680Y-94441940D01*
X149895544Y-94402748D01*
X149884097Y-94364057D01*
X149875969Y-94318794D01*
X149869792Y-94259884D01*
X149864195Y-94180254D01*
X149859788Y-94071011D01*
X149862335Y-93985648D01*
X150092503Y-93985648D01*
X150094750Y-94016351D01*
X150106850Y-94057437D01*
X150117478Y-94085674D01*
X150163352Y-94163899D01*
X150225402Y-94222544D01*
X150300570Y-94258438D01*
X150307132Y-94260336D01*
X150358939Y-94273494D01*
X150399053Y-94277333D01*
X150440061Y-94271732D01*
X150494547Y-94256569D01*
X150539543Y-94237375D01*
X150583287Y-94208285D01*
X150615134Y-94176239D01*
X150627859Y-94147163D01*
X150625244Y-94138346D01*
X150609804Y-94111065D01*
X150585035Y-94076022D01*
X150554217Y-94041556D01*
X150516363Y-94016526D01*
X150462865Y-93997793D01*
X150383959Y-93975855D01*
X150389633Y-93834598D01*
X150390200Y-93820285D01*
X150392070Y-93761490D01*
X150391630Y-93724856D01*
X150388164Y-93705684D01*
X150380960Y-93699276D01*
X150369301Y-93700933D01*
X150363546Y-93702580D01*
X150329077Y-93711985D01*
X150286630Y-93723140D01*
X150253686Y-93736250D01*
X150199233Y-93778362D01*
X150150572Y-93841663D01*
X150111387Y-93921974D01*
X150100565Y-93951742D01*
X150092503Y-93985648D01*
X149862335Y-93985648D01*
X149862874Y-93967600D01*
X149875799Y-93880679D01*
X149899861Y-93804770D01*
X149936361Y-93734392D01*
X149986598Y-93664065D01*
X150020193Y-93624947D01*
X150092328Y-93561707D01*
X150174327Y-93518669D01*
X150274092Y-93491078D01*
X150308235Y-93484681D01*
X150359999Y-93477003D01*
X150402952Y-93475522D01*
X150449066Y-93480244D01*
X150510311Y-93491173D01*
X150518211Y-93492709D01*
X150579335Y-93506438D01*
X150624760Y-93522284D01*
X150665267Y-93544958D01*
X150711637Y-93579174D01*
X150759959Y-93622229D01*
X150830625Y-93710918D01*
X150880164Y-93810611D01*
X150908110Y-93917111D01*
X150913998Y-94026223D01*
X150897362Y-94133750D01*
X150892138Y-94147163D01*
X150857735Y-94235495D01*
X150794654Y-94327263D01*
X150785758Y-94336680D01*
X150747528Y-94370005D01*
X150698031Y-94406626D01*
X150643830Y-94442369D01*
X150591492Y-94473065D01*
X150547581Y-94494541D01*
X150518662Y-94502627D01*
X150489273Y-94502627D01*
X150490303Y-95006595D01*
X150490728Y-95113593D01*
X150491635Y-95226301D01*
X150492934Y-95329235D01*
X150494560Y-95418790D01*
X150496446Y-95491358D01*
X150498525Y-95543333D01*
X150500730Y-95571110D01*
X150510127Y-95631657D01*
X150972387Y-95177055D01*
X151434648Y-94722454D01*
X151434605Y-94212841D01*
X151434482Y-94127991D01*
X151433882Y-93996808D01*
X151432843Y-93866905D01*
X151431428Y-93743587D01*
X151429702Y-93632159D01*
X151427728Y-93537926D01*
X151425571Y-93466193D01*
X151416579Y-93229157D01*
X151353527Y-93203078D01*
X151297314Y-93172324D01*
X151230484Y-93113781D01*
X151177054Y-93041209D01*
X151141623Y-92961212D01*
X151128791Y-92880393D01*
X151128806Y-92877577D01*
X151131703Y-92828005D01*
X151138900Y-92761418D01*
X151149352Y-92684193D01*
X151162012Y-92602712D01*
X151171003Y-92551093D01*
X151290346Y-92551093D01*
X151291650Y-92589512D01*
X151291678Y-92589654D01*
X151313729Y-92645225D01*
X151355570Y-92703041D01*
X151411254Y-92754880D01*
X151460802Y-92781435D01*
X151525897Y-92796775D01*
X151593452Y-92797432D01*
X151654772Y-92783410D01*
X151701164Y-92754714D01*
X151704625Y-92751233D01*
X151716356Y-92736584D01*
X151715233Y-92723352D01*
X151698196Y-92705411D01*
X151662188Y-92676633D01*
X151633046Y-92655790D01*
X151585601Y-92627587D01*
X151565574Y-92618829D01*
X151810017Y-92618829D01*
X151816968Y-92625780D01*
X151823920Y-92618829D01*
X151816968Y-92611877D01*
X151810017Y-92618829D01*
X151565574Y-92618829D01*
X151546037Y-92610285D01*
X151495681Y-92595198D01*
X151525565Y-92433231D01*
X151536813Y-92370476D01*
X151545621Y-92317786D01*
X151550979Y-92281401D01*
X151552012Y-92266825D01*
X151551281Y-92266078D01*
X151532381Y-92265710D01*
X151498384Y-92276928D01*
X151456707Y-92296320D01*
X151414768Y-92320473D01*
X151379983Y-92345976D01*
X151355206Y-92369467D01*
X151323194Y-92413985D01*
X151302664Y-92471340D01*
X151296333Y-92500632D01*
X151290346Y-92551093D01*
X151171003Y-92551093D01*
X151175835Y-92523353D01*
X151189774Y-92452495D01*
X151202783Y-92396519D01*
X151213817Y-92361804D01*
X151229613Y-92329665D01*
X151282784Y-92257073D01*
X151351610Y-92206401D01*
X151437516Y-92176804D01*
X151541930Y-92167435D01*
X151552002Y-92167496D01*
X151608228Y-92169609D01*
X151651313Y-92176913D01*
X151693535Y-92192526D01*
X151747174Y-92219569D01*
X151795844Y-92248069D01*
X151857807Y-92298425D01*
X151899001Y-92357400D01*
X151922931Y-92430734D01*
X151933103Y-92524172D01*
X151937110Y-92618829D01*
X151938018Y-92640278D01*
X151879496Y-92730101D01*
X151874751Y-92736584D01*
X151845800Y-92776138D01*
X151799064Y-92828531D01*
X151754963Y-92867348D01*
X151737289Y-92880386D01*
X151705537Y-92908822D01*
X151688762Y-92937230D01*
X151680232Y-92975339D01*
X151680149Y-92975956D01*
X151678432Y-93001852D01*
X151676521Y-93052816D01*
X151674468Y-93126252D01*
X151672324Y-93219560D01*
X151670140Y-93330141D01*
X151667967Y-93455399D01*
X151665859Y-93592733D01*
X151663865Y-93739545D01*
X151662038Y-93893238D01*
X151652563Y-94750571D01*
X151070918Y-95332093D01*
X150489273Y-95913614D01*
X150489273Y-96497488D01*
X150489273Y-97081361D01*
X150125395Y-97445433D01*
X149761517Y-97809505D01*
X149765037Y-98272355D01*
X149768556Y-98735205D01*
X149972510Y-98944645D01*
X150033623Y-99007668D01*
X150115337Y-99092556D01*
X150198270Y-99179285D01*
X150275520Y-99260633D01*
X150340183Y-99329374D01*
X150503900Y-99504662D01*
X150521172Y-99624299D01*
X150538443Y-99743935D01*
X150668899Y-99612934D01*
X150799355Y-99481933D01*
X150791812Y-98962688D01*
X150791235Y-98923043D01*
X150789117Y-98786841D01*
X150786811Y-98674915D01*
X150783845Y-98584461D01*
X150779747Y-98512680D01*
X150774044Y-98456770D01*
X150766264Y-98413930D01*
X150755935Y-98381359D01*
X150742584Y-98356256D01*
X150725740Y-98335821D01*
X150704928Y-98317251D01*
X150679678Y-98297746D01*
X150674077Y-98293453D01*
X150635088Y-98257914D01*
X150607104Y-98217093D01*
X150582304Y-98159922D01*
X150568597Y-98122446D01*
X150558448Y-98087115D01*
X150555978Y-98056005D01*
X150560625Y-98018656D01*
X150566838Y-97988689D01*
X150703177Y-97988689D01*
X150711691Y-98050676D01*
X150740427Y-98099483D01*
X150788178Y-98131023D01*
X150821854Y-98142120D01*
X150888732Y-98150846D01*
X150947609Y-98137171D01*
X150962934Y-98130134D01*
X150998081Y-98107268D01*
X151011854Y-98079918D01*
X151008866Y-98040832D01*
X150990388Y-97989150D01*
X150949554Y-97938013D01*
X150893224Y-97907348D01*
X150879673Y-97903196D01*
X150853316Y-97891931D01*
X150846053Y-97876603D01*
X150851977Y-97848834D01*
X150852469Y-97847095D01*
X150858868Y-97816366D01*
X150858047Y-97800210D01*
X150855264Y-97799367D01*
X150833494Y-97803296D01*
X150799198Y-97815027D01*
X150764904Y-97832815D01*
X150741168Y-97859346D01*
X150720985Y-97903642D01*
X150716094Y-97917611D01*
X150703177Y-97988689D01*
X150566838Y-97988689D01*
X150571829Y-97964614D01*
X150596715Y-97882913D01*
X150641480Y-97799537D01*
X150699121Y-97735603D01*
X150766559Y-97692411D01*
X150840719Y-97671260D01*
X150918524Y-97673449D01*
X150996898Y-97700279D01*
X151072763Y-97753048D01*
X151098289Y-97778347D01*
X151131025Y-97825776D01*
X151154870Y-97887945D01*
X151167219Y-97932469D01*
X151172642Y-97968956D01*
X151169411Y-98003945D01*
X151157758Y-98050523D01*
X151152009Y-98068502D01*
X151146619Y-98079918D01*
X151124251Y-98127289D01*
X151086745Y-98181952D01*
X151045278Y-98224951D01*
X151005636Y-98248746D01*
X150985740Y-98264095D01*
X150970815Y-98295004D01*
X150968893Y-98314391D01*
X150966502Y-98359135D01*
X150963917Y-98425136D01*
X150961245Y-98508973D01*
X150958597Y-98607223D01*
X150956079Y-98716466D01*
X150953799Y-98833279D01*
X150944900Y-99333771D01*
X151231482Y-99048896D01*
X151518063Y-98764020D01*
X151518063Y-97838128D01*
X151518063Y-96912235D01*
X151481721Y-96895677D01*
X151464299Y-96886284D01*
X151419334Y-96854586D01*
X151368705Y-96812035D01*
X151319576Y-96765254D01*
X151279108Y-96720868D01*
X151254465Y-96685501D01*
X151251628Y-96679723D01*
X151224604Y-96600163D01*
X151220343Y-96517097D01*
X151238430Y-96423731D01*
X151250702Y-96376426D01*
X151261515Y-96325265D01*
X151504743Y-96325265D01*
X151508578Y-96374647D01*
X151532886Y-96442169D01*
X151578321Y-96492838D01*
X151643455Y-96524600D01*
X151669361Y-96532039D01*
X151698971Y-96540346D01*
X151707743Y-96540743D01*
X151739400Y-96533252D01*
X151778822Y-96516980D01*
X151791356Y-96510657D01*
X151820695Y-96492514D01*
X151831409Y-96475106D01*
X151830250Y-96462890D01*
X151858485Y-96462890D01*
X151865059Y-96458118D01*
X151878007Y-96437824D01*
X151888475Y-96413673D01*
X151889866Y-96399079D01*
X151881431Y-96404753D01*
X151868184Y-96428075D01*
X151858952Y-96452093D01*
X151858485Y-96462890D01*
X151830250Y-96462890D01*
X151829128Y-96451054D01*
X151828719Y-96449328D01*
X151803919Y-96391749D01*
X151787865Y-96372523D01*
X151893432Y-96372523D01*
X151900384Y-96379475D01*
X151907335Y-96372523D01*
X151900384Y-96365572D01*
X151893432Y-96372523D01*
X151787865Y-96372523D01*
X151763086Y-96342847D01*
X151713032Y-96308881D01*
X151660564Y-96296111D01*
X151648240Y-96296072D01*
X151634863Y-96293511D01*
X151632043Y-96282700D01*
X151639534Y-96257718D01*
X151657089Y-96212644D01*
X151665465Y-96191160D01*
X151679660Y-96150711D01*
X151682539Y-96129403D01*
X151673918Y-96122632D01*
X151653613Y-96125789D01*
X151598315Y-96152204D01*
X151550522Y-96199397D01*
X151517492Y-96259549D01*
X151504743Y-96325265D01*
X151261515Y-96325265D01*
X151265262Y-96307538D01*
X151274660Y-96247400D01*
X151277956Y-96225328D01*
X151307340Y-96136751D01*
X151358676Y-96054995D01*
X151427294Y-95984199D01*
X151508525Y-95928505D01*
X151597700Y-95892053D01*
X151690150Y-95878982D01*
X151747172Y-95882615D01*
X151848977Y-95908339D01*
X151939615Y-95955947D01*
X152016345Y-96022142D01*
X152076421Y-96103625D01*
X152117101Y-96197099D01*
X152135640Y-96299265D01*
X152131318Y-96372523D01*
X152129752Y-96399079D01*
X152129295Y-96406825D01*
X152109522Y-96475106D01*
X152103715Y-96495160D01*
X152051222Y-96588658D01*
X151976814Y-96666893D01*
X151882669Y-96727039D01*
X151811097Y-96761795D01*
X151810557Y-97352552D01*
X151810017Y-97943309D01*
X152164533Y-97588998D01*
X152519048Y-97234687D01*
X152519048Y-96545213D01*
X152519048Y-95855739D01*
X152425206Y-95766294D01*
X152412380Y-95754194D01*
X152358169Y-95705097D01*
X152303459Y-95658160D01*
X152258351Y-95622112D01*
X152239189Y-95607711D01*
X152210395Y-95583530D01*
X152196515Y-95561901D01*
X152196656Y-95535841D01*
X152209930Y-95498365D01*
X152235444Y-95442489D01*
X152236749Y-95439669D01*
X152254097Y-95395034D01*
X152254219Y-95370992D01*
X152235968Y-95365508D01*
X152198194Y-95376550D01*
X152175386Y-95393205D01*
X152151434Y-95429215D01*
X152124640Y-95488332D01*
X152116189Y-95509033D01*
X152097309Y-95551278D01*
X152081953Y-95574749D01*
X152065704Y-95584861D01*
X152044146Y-95587028D01*
X152029095Y-95586185D01*
X151966676Y-95567823D01*
X151904034Y-95529150D01*
X151847811Y-95475063D01*
X151804653Y-95410460D01*
X151791870Y-95377288D01*
X151782719Y-95300263D01*
X151793762Y-95205254D01*
X151825051Y-95091939D01*
X151829988Y-95079312D01*
X151976848Y-95079312D01*
X151977128Y-95093767D01*
X151988436Y-95157267D01*
X152018090Y-95202603D01*
X152068585Y-95233981D01*
X152070861Y-95234916D01*
X152118949Y-95248721D01*
X152165659Y-95252963D01*
X152202727Y-95247695D01*
X152221890Y-95232973D01*
X152222798Y-95228954D01*
X152213660Y-95204445D01*
X152188157Y-95176902D01*
X152296607Y-95176902D01*
X152303558Y-95183853D01*
X152310510Y-95176902D01*
X152303558Y-95169951D01*
X152296607Y-95176902D01*
X152188157Y-95176902D01*
X152186900Y-95175544D01*
X152148919Y-95148062D01*
X152106113Y-95127811D01*
X152061596Y-95112624D01*
X152102632Y-95001326D01*
X152103947Y-94997760D01*
X152123029Y-94945316D01*
X152132962Y-94913980D01*
X152134199Y-94899034D01*
X152127192Y-94895755D01*
X152112393Y-94899426D01*
X152099211Y-94905300D01*
X152065357Y-94927830D01*
X152028983Y-94958793D01*
X152014839Y-94972684D01*
X151989966Y-95003083D01*
X151979186Y-95034272D01*
X151976848Y-95079312D01*
X151829988Y-95079312D01*
X151876635Y-94959995D01*
X151896126Y-94923930D01*
X151950688Y-94859895D01*
X152020466Y-94809394D01*
X152097285Y-94779128D01*
X152144090Y-94770844D01*
X152185927Y-94772587D01*
X152235265Y-94786343D01*
X152294741Y-94812539D01*
X152367081Y-94868021D01*
X152419818Y-94943198D01*
X152422279Y-94948161D01*
X152445488Y-95014549D01*
X152450070Y-95084075D01*
X152435708Y-95162276D01*
X152430387Y-95176902D01*
X152411450Y-95228954D01*
X152402088Y-95254688D01*
X152400650Y-95259486D01*
X152408514Y-95283346D01*
X152440845Y-95313658D01*
X152444791Y-95316804D01*
X152474773Y-95344503D01*
X152516727Y-95387222D01*
X152565641Y-95439736D01*
X152616504Y-95496819D01*
X152743922Y-95643184D01*
X152754317Y-96313710D01*
X152754445Y-96321926D01*
X152756102Y-96426670D01*
X152757581Y-96514934D01*
X152758895Y-96585963D01*
X152760056Y-96639003D01*
X152761079Y-96673298D01*
X152761976Y-96688093D01*
X152762762Y-96682634D01*
X152763449Y-96656165D01*
X152764051Y-96607931D01*
X152764581Y-96537177D01*
X152765053Y-96443148D01*
X152765480Y-96325090D01*
X152765875Y-96182246D01*
X152766252Y-96013862D01*
X152766623Y-95819184D01*
X152767004Y-95597455D01*
X152767159Y-95488047D01*
X152767295Y-95254485D01*
X152767137Y-95042635D01*
X152766689Y-94853172D01*
X152765957Y-94686775D01*
X152764946Y-94544120D01*
X152763662Y-94425885D01*
X152762110Y-94332745D01*
X152760295Y-94265379D01*
X152758224Y-94224462D01*
X152755901Y-94210673D01*
X152751658Y-94209116D01*
X152729500Y-94193566D01*
X152695004Y-94164891D01*
X152653600Y-94127506D01*
X152636289Y-94111165D01*
X152597731Y-94072066D01*
X152573783Y-94040433D01*
X152559394Y-94008565D01*
X152549516Y-93968759D01*
X152545767Y-93949266D01*
X152542353Y-93922665D01*
X152543047Y-93896616D01*
X152549008Y-93865814D01*
X152561398Y-93824952D01*
X152581378Y-93768725D01*
X152610108Y-93691825D01*
X152624581Y-93653098D01*
X152636828Y-93619655D01*
X152768781Y-93619655D01*
X152776709Y-93681831D01*
X152804615Y-93738760D01*
X152812677Y-93749168D01*
X152840756Y-93779345D01*
X152863701Y-93796095D01*
X152890513Y-93802572D01*
X152929174Y-93806059D01*
X152970882Y-93806574D01*
X152938061Y-93779231D01*
X152915919Y-93765791D01*
X153065763Y-93765791D01*
X153073259Y-93762536D01*
X153091825Y-93741474D01*
X153110504Y-93709176D01*
X153123073Y-93675453D01*
X153123778Y-93672474D01*
X153128609Y-93647138D01*
X153125470Y-93643630D01*
X153113161Y-93663102D01*
X153090480Y-93706705D01*
X153080764Y-93726560D01*
X153068391Y-93754728D01*
X153065763Y-93765791D01*
X152915919Y-93765791D01*
X152907375Y-93760605D01*
X152874341Y-93751888D01*
X152854312Y-93750307D01*
X152835502Y-93743949D01*
X152835734Y-93735159D01*
X152844281Y-93705045D01*
X152860638Y-93659296D01*
X152882874Y-93603636D01*
X152899564Y-93562751D01*
X152918186Y-93514179D01*
X152929823Y-93479901D01*
X152932458Y-93465535D01*
X152925026Y-93463019D01*
X152898298Y-93468482D01*
X152862762Y-93483962D01*
X152827371Y-93505206D01*
X152801075Y-93527961D01*
X152780983Y-93561225D01*
X152768781Y-93619655D01*
X152636828Y-93619655D01*
X152648846Y-93586837D01*
X152668285Y-93532005D01*
X152681197Y-93493448D01*
X152685879Y-93476015D01*
X152686406Y-93474011D01*
X152700902Y-93456321D01*
X152731227Y-93428397D01*
X152771958Y-93395323D01*
X152799806Y-93374151D01*
X152836784Y-93348960D01*
X152867500Y-93335486D01*
X152901721Y-93330078D01*
X152949217Y-93329087D01*
X152968173Y-93329249D01*
X153018841Y-93333040D01*
X153056743Y-93344023D01*
X153093333Y-93365058D01*
X153148333Y-93412055D01*
X153204930Y-93487415D01*
X153240739Y-93571570D01*
X153246433Y-93594498D01*
X153250426Y-93629360D01*
X153247612Y-93647138D01*
X153244872Y-93664452D01*
X153228702Y-93712275D01*
X153203324Y-93766798D01*
X153173446Y-93806574D01*
X153142646Y-93847577D01*
X153057003Y-93918719D01*
X153005828Y-93953476D01*
X153005733Y-94413449D01*
X153005849Y-94501297D01*
X153006329Y-94630218D01*
X153007144Y-94777430D01*
X153008255Y-94937694D01*
X153009621Y-95105767D01*
X153011202Y-95276409D01*
X153012958Y-95444379D01*
X153014849Y-95604434D01*
X153024059Y-96335446D01*
X153077410Y-96292572D01*
X153130761Y-96249698D01*
X153130797Y-96033059D01*
X153130832Y-95816420D01*
X153197913Y-95715625D01*
X153211734Y-95696173D01*
X153254206Y-95643872D01*
X153315198Y-95575818D01*
X153395313Y-95491372D01*
X153495150Y-95389894D01*
X153615309Y-95270743D01*
X153965624Y-94926656D01*
X153965270Y-94826019D01*
X153965246Y-94800490D01*
X153966733Y-94761524D01*
X153972684Y-94730767D01*
X153986006Y-94700496D01*
X154009604Y-94662991D01*
X154010375Y-94661891D01*
X154270772Y-94661891D01*
X154271336Y-94665680D01*
X154286524Y-94688061D01*
X154315956Y-94711318D01*
X154323458Y-94715808D01*
X154353903Y-94732244D01*
X154371566Y-94738919D01*
X154374893Y-94738709D01*
X154382406Y-94729314D01*
X154379897Y-94725068D01*
X154512174Y-94725068D01*
X154513600Y-94724570D01*
X154527746Y-94710581D01*
X154548824Y-94683361D01*
X154554023Y-94675901D01*
X154569034Y-94651497D01*
X154571571Y-94641653D01*
X154570145Y-94642151D01*
X154555999Y-94656141D01*
X154534921Y-94683361D01*
X154529722Y-94690820D01*
X154514711Y-94715224D01*
X154512174Y-94725068D01*
X154379897Y-94725068D01*
X154371026Y-94710054D01*
X154343761Y-94686587D01*
X154306042Y-94661170D01*
X154283156Y-94648698D01*
X154273045Y-94649495D01*
X154270772Y-94661891D01*
X154010375Y-94661891D01*
X154046387Y-94610530D01*
X154048930Y-94606897D01*
X154590532Y-94606897D01*
X154597483Y-94613848D01*
X154604434Y-94606897D01*
X154597483Y-94599945D01*
X154590532Y-94606897D01*
X154048930Y-94606897D01*
X154063783Y-94585675D01*
X154090473Y-94546115D01*
X154242967Y-94546115D01*
X154243104Y-94554632D01*
X154246618Y-94587889D01*
X154253394Y-94604554D01*
X154259309Y-94602055D01*
X154279258Y-94582294D01*
X154308641Y-94547125D01*
X154343490Y-94501106D01*
X154355926Y-94483906D01*
X154388817Y-94436590D01*
X154405095Y-94407890D01*
X154405166Y-94395251D01*
X154389438Y-94396117D01*
X154358318Y-94407932D01*
X154356646Y-94408648D01*
X154294948Y-94445662D01*
X154256327Y-94492357D01*
X154242967Y-94546115D01*
X154090473Y-94546115D01*
X154105227Y-94524246D01*
X154143152Y-94465317D01*
X154171085Y-94418841D01*
X154177267Y-94408039D01*
X154207980Y-94362978D01*
X154242918Y-94331591D01*
X154293306Y-94303263D01*
X154328118Y-94286998D01*
X154368006Y-94273558D01*
X154407609Y-94270028D01*
X154460738Y-94273992D01*
X154472601Y-94275431D01*
X154560590Y-94299261D01*
X154632244Y-94345217D01*
X154673554Y-94395251D01*
X154689370Y-94414407D01*
X154690911Y-94416908D01*
X154710261Y-94456204D01*
X154719679Y-94499393D01*
X154721818Y-94558238D01*
X154719858Y-94593579D01*
X154716615Y-94606897D01*
X154708151Y-94641653D01*
X154698125Y-94682825D01*
X154670904Y-94729314D01*
X154654075Y-94758054D01*
X154589807Y-94816363D01*
X154507418Y-94854850D01*
X154479923Y-94866554D01*
X154448169Y-94889636D01*
X154410878Y-94927386D01*
X154363235Y-94984119D01*
X154272286Y-95097193D01*
X154205492Y-95090046D01*
X154187115Y-95087695D01*
X154138215Y-95078401D01*
X154100829Y-95067339D01*
X154062960Y-95051779D01*
X154140830Y-94947510D01*
X154140836Y-94947502D01*
X154156172Y-94925754D01*
X154160479Y-94916054D01*
X154152697Y-94919376D01*
X154131769Y-94936690D01*
X154096637Y-94968969D01*
X154046242Y-95017186D01*
X153979527Y-95082313D01*
X153895434Y-95165321D01*
X153792903Y-95267183D01*
X153367105Y-95691126D01*
X153367105Y-95934707D01*
X153367105Y-96178288D01*
X153188462Y-96356535D01*
X153009820Y-96534781D01*
X153001160Y-96715824D01*
X152992500Y-96896867D01*
X152917319Y-96982259D01*
X152911918Y-96988284D01*
X152882071Y-97020298D01*
X152835490Y-97069165D01*
X152774344Y-97132649D01*
X152700803Y-97208517D01*
X152617036Y-97294534D01*
X152525213Y-97388465D01*
X152427504Y-97488077D01*
X152326078Y-97591135D01*
X151810017Y-98114619D01*
X151810017Y-98460103D01*
X151810017Y-98805587D01*
X151170499Y-99444992D01*
X150530980Y-100084397D01*
X150530980Y-101898692D01*
X150530980Y-103712986D01*
X150781665Y-103462302D01*
X151032349Y-103211617D01*
X151011057Y-103151269D01*
X151008141Y-103141729D01*
X151004178Y-103122687D01*
X151000808Y-103096527D01*
X150997986Y-103061179D01*
X150995664Y-103014576D01*
X150993795Y-102954649D01*
X150992332Y-102879328D01*
X150991228Y-102786546D01*
X150990437Y-102674234D01*
X150989911Y-102540323D01*
X150989604Y-102382744D01*
X150989468Y-102199429D01*
X150989170Y-101307936D01*
X150927258Y-101212366D01*
X150924759Y-101208483D01*
X150890729Y-101151445D01*
X150859872Y-101093025D01*
X150838593Y-101045290D01*
X150837467Y-101042242D01*
X150826052Y-101005706D01*
X151183522Y-101005706D01*
X151249999Y-101061242D01*
X151312939Y-101104435D01*
X151378734Y-101127225D01*
X151393980Y-101130126D01*
X151437944Y-101141872D01*
X151469100Y-101154887D01*
X151476080Y-101158676D01*
X151499334Y-101164303D01*
X151532882Y-101161415D01*
X151584688Y-101149653D01*
X151627135Y-101137592D01*
X151664024Y-101120985D01*
X151693907Y-101095652D01*
X151727793Y-101054254D01*
X151731841Y-101048859D01*
X151766025Y-100996778D01*
X151795478Y-100941414D01*
X151816131Y-100891212D01*
X151823920Y-100854620D01*
X151815641Y-100844777D01*
X151790031Y-100834224D01*
X151779061Y-100830283D01*
X151754972Y-100807871D01*
X151734955Y-100763539D01*
X151731772Y-100754639D01*
X151697198Y-100685933D01*
X151650376Y-100625645D01*
X151597113Y-100580077D01*
X151543217Y-100555528D01*
X151533875Y-100553465D01*
X151464732Y-100544571D01*
X151405147Y-100552054D01*
X151346746Y-100578135D01*
X151281153Y-100625035D01*
X151191353Y-100697459D01*
X151187437Y-100851582D01*
X151183522Y-101005706D01*
X150826052Y-101005706D01*
X150822419Y-100994076D01*
X150810193Y-100942203D01*
X150801652Y-100892737D01*
X150797661Y-100851796D01*
X150799081Y-100825496D01*
X150806777Y-100819953D01*
X150807117Y-100820159D01*
X150817300Y-100820770D01*
X150825582Y-100806054D01*
X150833334Y-100771882D01*
X150841929Y-100714122D01*
X150849711Y-100678452D01*
X150875027Y-100609863D01*
X150911997Y-100535672D01*
X150955951Y-100464844D01*
X151002223Y-100406342D01*
X151009798Y-100398330D01*
X151095525Y-100322443D01*
X151190679Y-100260935D01*
X151286135Y-100219800D01*
X151327918Y-100209758D01*
X151405686Y-100200129D01*
X151492887Y-100197080D01*
X151580376Y-100200478D01*
X151659011Y-100210190D01*
X151719650Y-100226084D01*
X151798245Y-100265057D01*
X151883755Y-100323709D01*
X151965374Y-100394620D01*
X152037534Y-100472370D01*
X152094668Y-100551540D01*
X152131208Y-100626710D01*
X152132434Y-100630509D01*
X152142059Y-100681543D01*
X152147735Y-100757527D01*
X152149255Y-100854620D01*
X152149278Y-100856103D01*
X152148398Y-100924113D01*
X152145697Y-100983542D01*
X152140372Y-101027626D01*
X152131565Y-101063073D01*
X152118414Y-101096592D01*
X152111820Y-101110933D01*
X152040004Y-101233966D01*
X151950795Y-101336448D01*
X151845764Y-101417146D01*
X151726484Y-101474824D01*
X151594527Y-101508245D01*
X151585598Y-101509598D01*
X151526423Y-101518550D01*
X151473770Y-101526493D01*
X151438123Y-101531846D01*
X151392940Y-101538589D01*
X151392940Y-102062717D01*
X151392940Y-102586846D01*
X151962945Y-102016968D01*
X152050512Y-101929312D01*
X152149428Y-101830022D01*
X152240779Y-101738030D01*
X152322832Y-101655098D01*
X152393852Y-101582987D01*
X152452108Y-101523457D01*
X152495865Y-101478268D01*
X152523391Y-101449182D01*
X152532951Y-101437959D01*
X152532950Y-101437919D01*
X152521235Y-101427413D01*
X152493259Y-101414992D01*
X152453568Y-101401155D01*
X152443342Y-100819297D01*
X152442985Y-100799356D01*
X152440193Y-100663187D01*
X152437061Y-100541036D01*
X152433681Y-100435198D01*
X152430145Y-100347973D01*
X152426543Y-100281659D01*
X152422968Y-100238553D01*
X152419511Y-100220954D01*
X152419396Y-100220815D01*
X152396752Y-100206440D01*
X152361684Y-100194939D01*
X152334741Y-100187402D01*
X152263269Y-100152730D01*
X152192605Y-100100156D01*
X152126801Y-100034651D01*
X152069909Y-99961187D01*
X152025979Y-99884736D01*
X151999063Y-99810269D01*
X151993212Y-99742759D01*
X151994988Y-99729077D01*
X152006603Y-99701020D01*
X152032458Y-99688209D01*
X152038313Y-99686521D01*
X152328569Y-99686521D01*
X152336306Y-99744868D01*
X152341486Y-99770703D01*
X152363458Y-99833889D01*
X152399727Y-99882134D01*
X152456403Y-99924579D01*
X152492656Y-99940835D01*
X152555422Y-99955352D01*
X152622854Y-99960106D01*
X152682214Y-99953467D01*
X152690618Y-99951116D01*
X152753778Y-99920077D01*
X152811385Y-99870788D01*
X152853830Y-99811215D01*
X152882498Y-99755021D01*
X152825896Y-99764583D01*
X152769295Y-99774146D01*
X152769295Y-99709809D01*
X152761121Y-99646195D01*
X152732921Y-99574859D01*
X152688851Y-99513321D01*
X152633355Y-99467546D01*
X152570875Y-99443496D01*
X152535529Y-99434549D01*
X152513317Y-99423535D01*
X152509684Y-99413973D01*
X152528655Y-99409138D01*
X152540284Y-99407134D01*
X152536834Y-99401164D01*
X152519826Y-99403320D01*
X152485825Y-99417144D01*
X152443784Y-99439791D01*
X152441368Y-99441238D01*
X152399946Y-99467865D01*
X152374962Y-99491848D01*
X152358926Y-99523115D01*
X152344346Y-99571595D01*
X152341446Y-99582514D01*
X152330030Y-99637832D01*
X152328569Y-99686521D01*
X152038313Y-99686521D01*
X152042937Y-99685188D01*
X152059544Y-99673509D01*
X152069506Y-99649024D01*
X152076774Y-99604247D01*
X152081388Y-99572546D01*
X152095123Y-99514606D01*
X152117520Y-99462311D01*
X152152530Y-99407523D01*
X152166834Y-99389381D01*
X152574659Y-99389381D01*
X152581610Y-99396333D01*
X152588561Y-99389381D01*
X152581610Y-99382430D01*
X152574659Y-99389381D01*
X152166834Y-99389381D01*
X152204107Y-99342107D01*
X152223643Y-99319176D01*
X152270328Y-99270818D01*
X152315019Y-99236678D01*
X152366485Y-99209603D01*
X152449535Y-99172332D01*
X152449535Y-99013900D01*
X152449535Y-98855468D01*
X152508621Y-98814108D01*
X152517224Y-98807168D01*
X152546985Y-98780228D01*
X152593558Y-98736212D01*
X152655178Y-98676852D01*
X152730079Y-98603878D01*
X152816495Y-98519020D01*
X152912659Y-98424010D01*
X153016805Y-98320579D01*
X153127168Y-98210457D01*
X153241982Y-98095374D01*
X153323144Y-98013740D01*
X153428979Y-97906970D01*
X153526304Y-97808415D01*
X153613728Y-97719504D01*
X153689855Y-97641671D01*
X153753292Y-97576345D01*
X153802645Y-97524959D01*
X153836521Y-97488942D01*
X153853525Y-97469727D01*
X153852263Y-97468743D01*
X153823532Y-97490811D01*
X153794177Y-97511498D01*
X153779275Y-97519485D01*
X153778428Y-97519024D01*
X153774292Y-97501888D01*
X153771380Y-97464991D01*
X153770280Y-97415124D01*
X153770253Y-97401846D01*
X153768859Y-97351699D01*
X153763854Y-97319886D01*
X153753182Y-97298565D01*
X153734784Y-97279899D01*
X153708737Y-97255691D01*
X153647526Y-97183107D01*
X153604498Y-97106653D01*
X153583670Y-97032895D01*
X153574535Y-96956431D01*
X153645714Y-96886918D01*
X153649019Y-96883655D01*
X153664091Y-96865427D01*
X153844212Y-96865427D01*
X153856498Y-96927259D01*
X153894191Y-96979714D01*
X153956331Y-97020192D01*
X153957214Y-97020593D01*
X153999064Y-97038452D01*
X154027450Y-97044585D01*
X154053836Y-97039186D01*
X154089685Y-97022447D01*
X154105209Y-97012690D01*
X154136280Y-96985909D01*
X154167910Y-96952189D01*
X154194801Y-96917927D01*
X154211658Y-96889516D01*
X154213182Y-96873353D01*
X154212953Y-96873179D01*
X154198865Y-96878852D01*
X154170269Y-96898749D01*
X154133079Y-96928777D01*
X154132079Y-96929630D01*
X154094121Y-96960673D01*
X154064195Y-96982770D01*
X154048703Y-96991188D01*
X154039830Y-96984226D01*
X154029305Y-96959907D01*
X154024095Y-96946090D01*
X154001471Y-96910718D01*
X153969961Y-96875709D01*
X153937224Y-96848933D01*
X153910918Y-96838259D01*
X153908051Y-96838235D01*
X153883888Y-96833513D01*
X153879623Y-96818911D01*
X153895884Y-96791961D01*
X153933297Y-96750195D01*
X153936265Y-96747101D01*
X153965647Y-96714074D01*
X153978085Y-96694799D01*
X153971867Y-96691865D01*
X153953765Y-96698396D01*
X153920254Y-96709247D01*
X153911083Y-96714675D01*
X153888748Y-96740148D01*
X153866658Y-96777640D01*
X153858295Y-96796814D01*
X153844212Y-96865427D01*
X153664091Y-96865427D01*
X153712138Y-96807318D01*
X153764440Y-96717947D01*
X153783356Y-96678380D01*
X154006624Y-96678380D01*
X154013575Y-96685331D01*
X154020526Y-96678380D01*
X154013575Y-96671429D01*
X154006624Y-96678380D01*
X153783356Y-96678380D01*
X153811988Y-96618488D01*
X153811988Y-96359365D01*
X153811988Y-96100241D01*
X154183881Y-95723806D01*
X154242449Y-95664757D01*
X154344461Y-95562835D01*
X154450065Y-95458322D01*
X154554664Y-95355722D01*
X154653659Y-95259536D01*
X154742454Y-95174267D01*
X154816448Y-95104417D01*
X155077122Y-94861465D01*
X155077122Y-94691132D01*
X155257855Y-94691132D01*
X155257990Y-94693076D01*
X155266038Y-94696138D01*
X155280036Y-94681213D01*
X155283419Y-94673443D01*
X155273906Y-94675082D01*
X155267730Y-94679373D01*
X155257855Y-94691132D01*
X155077122Y-94691132D01*
X155077122Y-94648604D01*
X155285660Y-94648604D01*
X155292611Y-94655556D01*
X155299563Y-94648604D01*
X155292611Y-94641653D01*
X155285660Y-94648604D01*
X155077122Y-94648604D01*
X155077122Y-94559550D01*
X155077122Y-94257634D01*
X155193704Y-94119457D01*
X155242270Y-94062932D01*
X155264026Y-94038416D01*
X155423292Y-94038416D01*
X155427465Y-94132791D01*
X155431637Y-94227166D01*
X155461514Y-94186625D01*
X155468000Y-94178393D01*
X155495094Y-94147002D01*
X155535445Y-94102386D01*
X155584767Y-94049245D01*
X155638772Y-93992280D01*
X155786153Y-93838476D01*
X155786153Y-93757016D01*
X155786153Y-93675555D01*
X155604722Y-93856986D01*
X155423292Y-94038416D01*
X155264026Y-94038416D01*
X155293764Y-94004905D01*
X155339865Y-93954763D01*
X155374437Y-93919300D01*
X155438588Y-93857320D01*
X155438588Y-93752243D01*
X155438588Y-93647165D01*
X155277254Y-93487513D01*
X155250641Y-93460750D01*
X155190093Y-93396955D01*
X155133843Y-93334022D01*
X155087212Y-93278011D01*
X155055522Y-93234982D01*
X155044310Y-93218054D01*
X155007550Y-93169191D01*
X154973261Y-93137207D01*
X154934605Y-93115333D01*
X154916047Y-93106083D01*
X154852434Y-93056573D01*
X154803236Y-92989483D01*
X154774262Y-92912171D01*
X154759843Y-92844047D01*
X154853647Y-92694150D01*
X155344872Y-92694150D01*
X155360773Y-92686785D01*
X155395814Y-92659301D01*
X155425581Y-92626383D01*
X155438588Y-92587702D01*
X155438223Y-92573175D01*
X155434350Y-92564634D01*
X155422841Y-92575028D01*
X155399594Y-92606316D01*
X155387601Y-92623116D01*
X155364167Y-92656701D01*
X155350114Y-92677915D01*
X155348077Y-92681412D01*
X155344872Y-92694150D01*
X154853647Y-92694150D01*
X154861882Y-92680991D01*
X154868723Y-92669980D01*
X154907497Y-92604631D01*
X154934460Y-92555421D01*
X155093647Y-92555421D01*
X155100198Y-92567638D01*
X155117567Y-92555843D01*
X155146228Y-92519719D01*
X155186659Y-92458949D01*
X155204833Y-92429943D01*
X155230308Y-92387639D01*
X155246441Y-92358549D01*
X155250335Y-92347728D01*
X155234306Y-92353592D01*
X155203437Y-92372246D01*
X155168240Y-92397456D01*
X155137665Y-92422742D01*
X155120661Y-92441624D01*
X155119260Y-92444416D01*
X155107655Y-92476995D01*
X155097662Y-92518291D01*
X155097435Y-92519509D01*
X155093647Y-92555421D01*
X154934460Y-92555421D01*
X154941235Y-92543057D01*
X154966520Y-92491739D01*
X154979932Y-92457161D01*
X155006257Y-92398037D01*
X155059109Y-92331599D01*
X155083129Y-92307868D01*
X155119098Y-92279482D01*
X155157754Y-92262411D01*
X155211616Y-92249954D01*
X155236550Y-92245654D01*
X155317879Y-92239580D01*
X155383191Y-92250060D01*
X155437960Y-92277768D01*
X155464924Y-92302935D01*
X155500001Y-92347728D01*
X155501986Y-92350263D01*
X155537762Y-92406761D01*
X155566405Y-92463021D01*
X155582068Y-92509634D01*
X155580146Y-92556542D01*
X155568415Y-92587702D01*
X155556216Y-92620106D01*
X155510423Y-92693992D01*
X155443829Y-92776149D01*
X155365222Y-92863956D01*
X155419122Y-92922126D01*
X155446404Y-92951462D01*
X155508528Y-93017412D01*
X155562278Y-93073271D01*
X155605074Y-93116415D01*
X155634333Y-93144225D01*
X155647476Y-93154078D01*
X155650221Y-93152438D01*
X155666993Y-93134818D01*
X155694304Y-93101983D01*
X155708264Y-93084102D01*
X156177732Y-93084102D01*
X156189044Y-93078383D01*
X156213290Y-93057478D01*
X156239023Y-93029696D01*
X156257288Y-93004049D01*
X156268169Y-92980550D01*
X156265435Y-92975493D01*
X156248112Y-92991820D01*
X156217133Y-93028955D01*
X156200892Y-93049860D01*
X156182821Y-93074635D01*
X156177732Y-93084102D01*
X155708264Y-93084102D01*
X155727817Y-93059057D01*
X155746031Y-93034837D01*
X155774973Y-92993088D01*
X155791266Y-92960828D01*
X155798448Y-92929880D01*
X155798913Y-92918931D01*
X155913612Y-92918931D01*
X155915180Y-92926354D01*
X155921632Y-92932785D01*
X155935020Y-92924609D01*
X155958579Y-92899271D01*
X155995544Y-92854213D01*
X155997094Y-92852283D01*
X156040671Y-92797713D01*
X156068318Y-92761556D01*
X156081472Y-92740636D01*
X156081570Y-92731781D01*
X156070048Y-92731814D01*
X156048344Y-92737562D01*
X156018720Y-92749093D01*
X155963093Y-92790396D01*
X155925156Y-92848274D01*
X155915526Y-92882615D01*
X155913612Y-92918931D01*
X155798913Y-92918931D01*
X155800055Y-92892065D01*
X155807052Y-92833317D01*
X155837939Y-92759115D01*
X155890176Y-92697803D01*
X155960160Y-92654721D01*
X156015828Y-92636281D01*
X156105801Y-92625654D01*
X156189654Y-92638284D01*
X156263770Y-92672256D01*
X156324533Y-92725654D01*
X156328317Y-92731781D01*
X156368325Y-92796564D01*
X156391528Y-92883070D01*
X156395837Y-92925949D01*
X156395510Y-92970747D01*
X156393276Y-92980550D01*
X156386497Y-93010291D01*
X156366265Y-93049192D01*
X156332280Y-93092064D01*
X156282007Y-93143517D01*
X156212912Y-93208165D01*
X156161522Y-93255301D01*
X156161522Y-93453408D01*
X156161522Y-93651515D01*
X156051191Y-93757016D01*
X155918227Y-93884160D01*
X155674932Y-94116804D01*
X155674932Y-94407034D01*
X155674932Y-94648604D01*
X155674932Y-94673443D01*
X155674932Y-94697263D01*
X155775799Y-94697263D01*
X155876666Y-94697263D01*
X156370134Y-94201201D01*
X156397645Y-94173536D01*
X156491230Y-94079272D01*
X156577317Y-93992326D01*
X156654172Y-93914465D01*
X156720061Y-93847456D01*
X156773250Y-93793064D01*
X156812005Y-93753057D01*
X156834590Y-93729202D01*
X156839273Y-93723265D01*
X156832961Y-93727170D01*
X156826631Y-93726786D01*
X156821984Y-93717475D01*
X156818760Y-93696089D01*
X156816703Y-93659482D01*
X156815553Y-93604510D01*
X156815053Y-93528024D01*
X156814943Y-93426880D01*
X156814800Y-93378399D01*
X156813801Y-93293063D01*
X156811972Y-93219880D01*
X156809463Y-93162761D01*
X156806422Y-93125620D01*
X156802998Y-93112370D01*
X156790941Y-93107685D01*
X156762441Y-93087005D01*
X156726595Y-93055300D01*
X156689705Y-93018603D01*
X156658073Y-92982950D01*
X156638000Y-92954374D01*
X156630335Y-92936984D01*
X156615898Y-92889033D01*
X156606368Y-92837023D01*
X156597818Y-92763264D01*
X156697456Y-92648132D01*
X157232639Y-92648132D01*
X157246893Y-92651365D01*
X157283345Y-92639549D01*
X157297746Y-92631757D01*
X157328210Y-92602906D01*
X157349683Y-92567232D01*
X157354819Y-92535434D01*
X157353857Y-92532472D01*
X157342982Y-92530202D01*
X157319547Y-92546671D01*
X157281202Y-92583409D01*
X157270642Y-92594317D01*
X157240563Y-92629300D01*
X157232639Y-92648132D01*
X156697456Y-92648132D01*
X156738522Y-92600680D01*
X156748444Y-92589144D01*
X156803345Y-92522583D01*
X156826488Y-92492263D01*
X157011041Y-92492263D01*
X157012578Y-92508290D01*
X157012752Y-92508437D01*
X157024823Y-92502199D01*
X157052215Y-92476407D01*
X157095627Y-92430354D01*
X157155756Y-92363334D01*
X157197264Y-92316377D01*
X157141654Y-92326227D01*
X157080115Y-92347823D01*
X157037888Y-92388268D01*
X157016116Y-92447499D01*
X157014267Y-92459359D01*
X157011041Y-92492263D01*
X156826488Y-92492263D01*
X156849948Y-92461527D01*
X156884653Y-92410876D01*
X156903861Y-92375534D01*
X156913457Y-92352431D01*
X156942489Y-92300261D01*
X156978932Y-92264496D01*
X157030433Y-92236752D01*
X157079622Y-92218383D01*
X157171827Y-92200038D01*
X157255744Y-92204913D01*
X157328517Y-92232637D01*
X157387289Y-92282843D01*
X157405227Y-92304623D01*
X157414311Y-92316377D01*
X157433285Y-92340927D01*
G37*
%TD*%
M02*
