G04 #@! TF.GenerationSoftware,KiCad,Pcbnew,7.0.10*
G04 #@! TF.CreationDate,2024-02-18T13:34:34-06:00*
G04 #@! TF.ProjectId,airplane-keychain,61697270-6c61-46e6-952d-6b6579636861,1*
G04 #@! TF.SameCoordinates,Original*
G04 #@! TF.FileFunction,Legend,Bot*
G04 #@! TF.FilePolarity,Positive*
%FSLAX46Y46*%
G04 Gerber Fmt 4.6, Leading zero omitted, Abs format (unit mm)*
G04 Created by KiCad (PCBNEW 7.0.10) date 2024-02-18 13:34:34*
%MOMM*%
%LPD*%
G01*
G04 APERTURE LIST*
G04 Aperture macros list*
%AMHorizOval*
0 Thick line with rounded ends*
0 $1 width*
0 $2 $3 position (X,Y) of the first rounded end (center of the circle)*
0 $4 $5 position (X,Y) of the second rounded end (center of the circle)*
0 Add line between two ends*
20,1,$1,$2,$3,$4,$5,0*
0 Add two circle primitives to create the rounded ends*
1,1,$1,$2,$3*
1,1,$1,$4,$5*%
G04 Aperture macros list end*
%ADD10C,0.150000*%
%ADD11C,0.120000*%
%ADD12R,1.800000X1.800000*%
%ADD13C,1.800000*%
%ADD14C,1.600000*%
%ADD15HorizOval,1.600000X0.000000X0.000000X0.000000X0.000000X0*%
%ADD16HorizOval,1.600000X0.000000X0.000000X0.000000X0.000000X0*%
%ADD17O,1.600000X1.600000*%
%ADD18HorizOval,1.600000X0.000000X0.000000X0.000000X0.000000X0*%
%ADD19C,2.000000*%
%ADD20R,1.600000X1.600000*%
%ADD21HorizOval,1.600000X0.000000X0.000000X0.000000X0.000000X0*%
%ADD22C,4.300000*%
%ADD23R,2.540000X3.510000*%
G04 APERTURE END LIST*
D10*
X136563220Y-96859819D02*
X136563220Y-95859819D01*
X136134649Y-96812200D02*
X135991792Y-96859819D01*
X135991792Y-96859819D02*
X135753697Y-96859819D01*
X135753697Y-96859819D02*
X135658459Y-96812200D01*
X135658459Y-96812200D02*
X135610840Y-96764580D01*
X135610840Y-96764580D02*
X135563221Y-96669342D01*
X135563221Y-96669342D02*
X135563221Y-96574104D01*
X135563221Y-96574104D02*
X135610840Y-96478866D01*
X135610840Y-96478866D02*
X135658459Y-96431247D01*
X135658459Y-96431247D02*
X135753697Y-96383628D01*
X135753697Y-96383628D02*
X135944173Y-96336009D01*
X135944173Y-96336009D02*
X136039411Y-96288390D01*
X136039411Y-96288390D02*
X136087030Y-96240771D01*
X136087030Y-96240771D02*
X136134649Y-96145533D01*
X136134649Y-96145533D02*
X136134649Y-96050295D01*
X136134649Y-96050295D02*
X136087030Y-95955057D01*
X136087030Y-95955057D02*
X136039411Y-95907438D01*
X136039411Y-95907438D02*
X135944173Y-95859819D01*
X135944173Y-95859819D02*
X135706078Y-95859819D01*
X135706078Y-95859819D02*
X135563221Y-95907438D01*
X134610840Y-95907438D02*
X134706078Y-95859819D01*
X134706078Y-95859819D02*
X134848935Y-95859819D01*
X134848935Y-95859819D02*
X134991792Y-95907438D01*
X134991792Y-95907438D02*
X135087030Y-96002676D01*
X135087030Y-96002676D02*
X135134649Y-96097914D01*
X135134649Y-96097914D02*
X135182268Y-96288390D01*
X135182268Y-96288390D02*
X135182268Y-96431247D01*
X135182268Y-96431247D02*
X135134649Y-96621723D01*
X135134649Y-96621723D02*
X135087030Y-96716961D01*
X135087030Y-96716961D02*
X134991792Y-96812200D01*
X134991792Y-96812200D02*
X134848935Y-96859819D01*
X134848935Y-96859819D02*
X134753697Y-96859819D01*
X134753697Y-96859819D02*
X134610840Y-96812200D01*
X134610840Y-96812200D02*
X134563221Y-96764580D01*
X134563221Y-96764580D02*
X134563221Y-96431247D01*
X134563221Y-96431247D02*
X134753697Y-96431247D01*
X133563221Y-96764580D02*
X133610840Y-96812200D01*
X133610840Y-96812200D02*
X133753697Y-96859819D01*
X133753697Y-96859819D02*
X133848935Y-96859819D01*
X133848935Y-96859819D02*
X133991792Y-96812200D01*
X133991792Y-96812200D02*
X134087030Y-96716961D01*
X134087030Y-96716961D02*
X134134649Y-96621723D01*
X134134649Y-96621723D02*
X134182268Y-96431247D01*
X134182268Y-96431247D02*
X134182268Y-96288390D01*
X134182268Y-96288390D02*
X134134649Y-96097914D01*
X134134649Y-96097914D02*
X134087030Y-96002676D01*
X134087030Y-96002676D02*
X133991792Y-95907438D01*
X133991792Y-95907438D02*
X133848935Y-95859819D01*
X133848935Y-95859819D02*
X133753697Y-95859819D01*
X133753697Y-95859819D02*
X133610840Y-95907438D01*
X133610840Y-95907438D02*
X133563221Y-95955057D01*
X132039411Y-96336009D02*
X131896554Y-96383628D01*
X131896554Y-96383628D02*
X131848935Y-96431247D01*
X131848935Y-96431247D02*
X131801316Y-96526485D01*
X131801316Y-96526485D02*
X131801316Y-96669342D01*
X131801316Y-96669342D02*
X131848935Y-96764580D01*
X131848935Y-96764580D02*
X131896554Y-96812200D01*
X131896554Y-96812200D02*
X131991792Y-96859819D01*
X131991792Y-96859819D02*
X132372744Y-96859819D01*
X132372744Y-96859819D02*
X132372744Y-95859819D01*
X132372744Y-95859819D02*
X132039411Y-95859819D01*
X132039411Y-95859819D02*
X131944173Y-95907438D01*
X131944173Y-95907438D02*
X131896554Y-95955057D01*
X131896554Y-95955057D02*
X131848935Y-96050295D01*
X131848935Y-96050295D02*
X131848935Y-96145533D01*
X131848935Y-96145533D02*
X131896554Y-96240771D01*
X131896554Y-96240771D02*
X131944173Y-96288390D01*
X131944173Y-96288390D02*
X132039411Y-96336009D01*
X132039411Y-96336009D02*
X132372744Y-96336009D01*
X130944173Y-96859819D02*
X130944173Y-96336009D01*
X130944173Y-96336009D02*
X130991792Y-96240771D01*
X130991792Y-96240771D02*
X131087030Y-96193152D01*
X131087030Y-96193152D02*
X131277506Y-96193152D01*
X131277506Y-96193152D02*
X131372744Y-96240771D01*
X130944173Y-96812200D02*
X131039411Y-96859819D01*
X131039411Y-96859819D02*
X131277506Y-96859819D01*
X131277506Y-96859819D02*
X131372744Y-96812200D01*
X131372744Y-96812200D02*
X131420363Y-96716961D01*
X131420363Y-96716961D02*
X131420363Y-96621723D01*
X131420363Y-96621723D02*
X131372744Y-96526485D01*
X131372744Y-96526485D02*
X131277506Y-96478866D01*
X131277506Y-96478866D02*
X131039411Y-96478866D01*
X131039411Y-96478866D02*
X130944173Y-96431247D01*
X130039411Y-96859819D02*
X130039411Y-95859819D01*
X130039411Y-96812200D02*
X130134649Y-96859819D01*
X130134649Y-96859819D02*
X130325125Y-96859819D01*
X130325125Y-96859819D02*
X130420363Y-96812200D01*
X130420363Y-96812200D02*
X130467982Y-96764580D01*
X130467982Y-96764580D02*
X130515601Y-96669342D01*
X130515601Y-96669342D02*
X130515601Y-96383628D01*
X130515601Y-96383628D02*
X130467982Y-96288390D01*
X130467982Y-96288390D02*
X130420363Y-96240771D01*
X130420363Y-96240771D02*
X130325125Y-96193152D01*
X130325125Y-96193152D02*
X130134649Y-96193152D01*
X130134649Y-96193152D02*
X130039411Y-96240771D01*
X129134649Y-96193152D02*
X129134649Y-97002676D01*
X129134649Y-97002676D02*
X129182268Y-97097914D01*
X129182268Y-97097914D02*
X129229887Y-97145533D01*
X129229887Y-97145533D02*
X129325125Y-97193152D01*
X129325125Y-97193152D02*
X129467982Y-97193152D01*
X129467982Y-97193152D02*
X129563220Y-97145533D01*
X129134649Y-96812200D02*
X129229887Y-96859819D01*
X129229887Y-96859819D02*
X129420363Y-96859819D01*
X129420363Y-96859819D02*
X129515601Y-96812200D01*
X129515601Y-96812200D02*
X129563220Y-96764580D01*
X129563220Y-96764580D02*
X129610839Y-96669342D01*
X129610839Y-96669342D02*
X129610839Y-96383628D01*
X129610839Y-96383628D02*
X129563220Y-96288390D01*
X129563220Y-96288390D02*
X129515601Y-96240771D01*
X129515601Y-96240771D02*
X129420363Y-96193152D01*
X129420363Y-96193152D02*
X129229887Y-96193152D01*
X129229887Y-96193152D02*
X129134649Y-96240771D01*
X128277506Y-96812200D02*
X128372744Y-96859819D01*
X128372744Y-96859819D02*
X128563220Y-96859819D01*
X128563220Y-96859819D02*
X128658458Y-96812200D01*
X128658458Y-96812200D02*
X128706077Y-96716961D01*
X128706077Y-96716961D02*
X128706077Y-96336009D01*
X128706077Y-96336009D02*
X128658458Y-96240771D01*
X128658458Y-96240771D02*
X128563220Y-96193152D01*
X128563220Y-96193152D02*
X128372744Y-96193152D01*
X128372744Y-96193152D02*
X128277506Y-96240771D01*
X128277506Y-96240771D02*
X128229887Y-96336009D01*
X128229887Y-96336009D02*
X128229887Y-96431247D01*
X128229887Y-96431247D02*
X128706077Y-96526485D01*
X126467982Y-96859819D02*
X126801315Y-96383628D01*
X127039410Y-96859819D02*
X127039410Y-95859819D01*
X127039410Y-95859819D02*
X126658458Y-95859819D01*
X126658458Y-95859819D02*
X126563220Y-95907438D01*
X126563220Y-95907438D02*
X126515601Y-95955057D01*
X126515601Y-95955057D02*
X126467982Y-96050295D01*
X126467982Y-96050295D02*
X126467982Y-96193152D01*
X126467982Y-96193152D02*
X126515601Y-96288390D01*
X126515601Y-96288390D02*
X126563220Y-96336009D01*
X126563220Y-96336009D02*
X126658458Y-96383628D01*
X126658458Y-96383628D02*
X127039410Y-96383628D01*
X125658458Y-96812200D02*
X125753696Y-96859819D01*
X125753696Y-96859819D02*
X125944172Y-96859819D01*
X125944172Y-96859819D02*
X126039410Y-96812200D01*
X126039410Y-96812200D02*
X126087029Y-96716961D01*
X126087029Y-96716961D02*
X126087029Y-96336009D01*
X126087029Y-96336009D02*
X126039410Y-96240771D01*
X126039410Y-96240771D02*
X125944172Y-96193152D01*
X125944172Y-96193152D02*
X125753696Y-96193152D01*
X125753696Y-96193152D02*
X125658458Y-96240771D01*
X125658458Y-96240771D02*
X125610839Y-96336009D01*
X125610839Y-96336009D02*
X125610839Y-96431247D01*
X125610839Y-96431247D02*
X126087029Y-96526485D01*
X125277505Y-96193152D02*
X125039410Y-96859819D01*
X125039410Y-96859819D02*
X124801315Y-96193152D01*
X123706076Y-96574104D02*
X123229886Y-96574104D01*
X123801314Y-96859819D02*
X123467981Y-95859819D01*
X123467981Y-95859819D02*
X123134648Y-96859819D01*
X136563220Y-98469819D02*
X136563220Y-97469819D01*
X136563220Y-97469819D02*
X136229887Y-98184104D01*
X136229887Y-98184104D02*
X135896554Y-97469819D01*
X135896554Y-97469819D02*
X135896554Y-98469819D01*
X134991792Y-98469819D02*
X134991792Y-97946009D01*
X134991792Y-97946009D02*
X135039411Y-97850771D01*
X135039411Y-97850771D02*
X135134649Y-97803152D01*
X135134649Y-97803152D02*
X135325125Y-97803152D01*
X135325125Y-97803152D02*
X135420363Y-97850771D01*
X134991792Y-98422200D02*
X135087030Y-98469819D01*
X135087030Y-98469819D02*
X135325125Y-98469819D01*
X135325125Y-98469819D02*
X135420363Y-98422200D01*
X135420363Y-98422200D02*
X135467982Y-98326961D01*
X135467982Y-98326961D02*
X135467982Y-98231723D01*
X135467982Y-98231723D02*
X135420363Y-98136485D01*
X135420363Y-98136485D02*
X135325125Y-98088866D01*
X135325125Y-98088866D02*
X135087030Y-98088866D01*
X135087030Y-98088866D02*
X134991792Y-98041247D01*
X134658458Y-97803152D02*
X134277506Y-97803152D01*
X134515601Y-97469819D02*
X134515601Y-98326961D01*
X134515601Y-98326961D02*
X134467982Y-98422200D01*
X134467982Y-98422200D02*
X134372744Y-98469819D01*
X134372744Y-98469819D02*
X134277506Y-98469819D01*
X134087029Y-97803152D02*
X133706077Y-97803152D01*
X133944172Y-97469819D02*
X133944172Y-98326961D01*
X133944172Y-98326961D02*
X133896553Y-98422200D01*
X133896553Y-98422200D02*
X133801315Y-98469819D01*
X133801315Y-98469819D02*
X133706077Y-98469819D01*
X133372743Y-98469819D02*
X133372743Y-97469819D01*
X132944172Y-98469819D02*
X132944172Y-97946009D01*
X132944172Y-97946009D02*
X132991791Y-97850771D01*
X132991791Y-97850771D02*
X133087029Y-97803152D01*
X133087029Y-97803152D02*
X133229886Y-97803152D01*
X133229886Y-97803152D02*
X133325124Y-97850771D01*
X133325124Y-97850771D02*
X133372743Y-97898390D01*
X132087029Y-98422200D02*
X132182267Y-98469819D01*
X132182267Y-98469819D02*
X132372743Y-98469819D01*
X132372743Y-98469819D02*
X132467981Y-98422200D01*
X132467981Y-98422200D02*
X132515600Y-98326961D01*
X132515600Y-98326961D02*
X132515600Y-97946009D01*
X132515600Y-97946009D02*
X132467981Y-97850771D01*
X132467981Y-97850771D02*
X132372743Y-97803152D01*
X132372743Y-97803152D02*
X132182267Y-97803152D01*
X132182267Y-97803152D02*
X132087029Y-97850771D01*
X132087029Y-97850771D02*
X132039410Y-97946009D01*
X132039410Y-97946009D02*
X132039410Y-98041247D01*
X132039410Y-98041247D02*
X132515600Y-98136485D01*
X131706076Y-97803152D02*
X131515600Y-98469819D01*
X131515600Y-98469819D02*
X131325124Y-97993628D01*
X131325124Y-97993628D02*
X131134648Y-98469819D01*
X131134648Y-98469819D02*
X130944172Y-97803152D01*
X129801314Y-97946009D02*
X129467981Y-97946009D01*
X129325124Y-98469819D02*
X129801314Y-98469819D01*
X129801314Y-98469819D02*
X129801314Y-97469819D01*
X129801314Y-97469819D02*
X129325124Y-97469819D01*
X128896552Y-98374580D02*
X128848933Y-98422200D01*
X128848933Y-98422200D02*
X128896552Y-98469819D01*
X128896552Y-98469819D02*
X128944171Y-98422200D01*
X128944171Y-98422200D02*
X128896552Y-98374580D01*
X128896552Y-98374580D02*
X128896552Y-98469819D01*
X127658457Y-98469819D02*
X127658457Y-97469819D01*
X127658457Y-97469819D02*
X127087029Y-98469819D01*
X127087029Y-98469819D02*
X127087029Y-97469819D01*
X126229886Y-98422200D02*
X126325124Y-98469819D01*
X126325124Y-98469819D02*
X126515600Y-98469819D01*
X126515600Y-98469819D02*
X126610838Y-98422200D01*
X126610838Y-98422200D02*
X126658457Y-98326961D01*
X126658457Y-98326961D02*
X126658457Y-97946009D01*
X126658457Y-97946009D02*
X126610838Y-97850771D01*
X126610838Y-97850771D02*
X126515600Y-97803152D01*
X126515600Y-97803152D02*
X126325124Y-97803152D01*
X126325124Y-97803152D02*
X126229886Y-97850771D01*
X126229886Y-97850771D02*
X126182267Y-97946009D01*
X126182267Y-97946009D02*
X126182267Y-98041247D01*
X126182267Y-98041247D02*
X126658457Y-98136485D01*
X125610838Y-98469819D02*
X125706076Y-98422200D01*
X125706076Y-98422200D02*
X125753695Y-98326961D01*
X125753695Y-98326961D02*
X125753695Y-97469819D01*
X125277504Y-98422200D02*
X125182266Y-98469819D01*
X125182266Y-98469819D02*
X124991790Y-98469819D01*
X124991790Y-98469819D02*
X124896552Y-98422200D01*
X124896552Y-98422200D02*
X124848933Y-98326961D01*
X124848933Y-98326961D02*
X124848933Y-98279342D01*
X124848933Y-98279342D02*
X124896552Y-98184104D01*
X124896552Y-98184104D02*
X124991790Y-98136485D01*
X124991790Y-98136485D02*
X125134647Y-98136485D01*
X125134647Y-98136485D02*
X125229885Y-98088866D01*
X125229885Y-98088866D02*
X125277504Y-97993628D01*
X125277504Y-97993628D02*
X125277504Y-97946009D01*
X125277504Y-97946009D02*
X125229885Y-97850771D01*
X125229885Y-97850771D02*
X125134647Y-97803152D01*
X125134647Y-97803152D02*
X124991790Y-97803152D01*
X124991790Y-97803152D02*
X124896552Y-97850771D01*
X124277504Y-98469819D02*
X124372742Y-98422200D01*
X124372742Y-98422200D02*
X124420361Y-98374580D01*
X124420361Y-98374580D02*
X124467980Y-98279342D01*
X124467980Y-98279342D02*
X124467980Y-97993628D01*
X124467980Y-97993628D02*
X124420361Y-97898390D01*
X124420361Y-97898390D02*
X124372742Y-97850771D01*
X124372742Y-97850771D02*
X124277504Y-97803152D01*
X124277504Y-97803152D02*
X124134647Y-97803152D01*
X124134647Y-97803152D02*
X124039409Y-97850771D01*
X124039409Y-97850771D02*
X123991790Y-97898390D01*
X123991790Y-97898390D02*
X123944171Y-97993628D01*
X123944171Y-97993628D02*
X123944171Y-98279342D01*
X123944171Y-98279342D02*
X123991790Y-98374580D01*
X123991790Y-98374580D02*
X124039409Y-98422200D01*
X124039409Y-98422200D02*
X124134647Y-98469819D01*
X124134647Y-98469819D02*
X124277504Y-98469819D01*
X123515599Y-97803152D02*
X123515599Y-98469819D01*
X123515599Y-97898390D02*
X123467980Y-97850771D01*
X123467980Y-97850771D02*
X123372742Y-97803152D01*
X123372742Y-97803152D02*
X123229885Y-97803152D01*
X123229885Y-97803152D02*
X123134647Y-97850771D01*
X123134647Y-97850771D02*
X123087028Y-97946009D01*
X123087028Y-97946009D02*
X123087028Y-98469819D01*
X131205714Y-93351009D02*
X131062857Y-93398628D01*
X131062857Y-93398628D02*
X131015238Y-93446247D01*
X131015238Y-93446247D02*
X130967619Y-93541485D01*
X130967619Y-93541485D02*
X130967619Y-93684342D01*
X130967619Y-93684342D02*
X131015238Y-93779580D01*
X131015238Y-93779580D02*
X131062857Y-93827200D01*
X131062857Y-93827200D02*
X131158095Y-93874819D01*
X131158095Y-93874819D02*
X131539047Y-93874819D01*
X131539047Y-93874819D02*
X131539047Y-92874819D01*
X131539047Y-92874819D02*
X131205714Y-92874819D01*
X131205714Y-92874819D02*
X131110476Y-92922438D01*
X131110476Y-92922438D02*
X131062857Y-92970057D01*
X131062857Y-92970057D02*
X131015238Y-93065295D01*
X131015238Y-93065295D02*
X131015238Y-93160533D01*
X131015238Y-93160533D02*
X131062857Y-93255771D01*
X131062857Y-93255771D02*
X131110476Y-93303390D01*
X131110476Y-93303390D02*
X131205714Y-93351009D01*
X131205714Y-93351009D02*
X131539047Y-93351009D01*
X130681904Y-92874819D02*
X130110476Y-92874819D01*
X130396190Y-93874819D02*
X130396190Y-92874819D01*
X129253333Y-93874819D02*
X129824761Y-93874819D01*
X129539047Y-93874819D02*
X129539047Y-92874819D01*
X129539047Y-92874819D02*
X129634285Y-93017676D01*
X129634285Y-93017676D02*
X129729523Y-93112914D01*
X129729523Y-93112914D02*
X129824761Y-93160533D01*
X131605714Y-117851009D02*
X131462857Y-117898628D01*
X131462857Y-117898628D02*
X131415238Y-117946247D01*
X131415238Y-117946247D02*
X131367619Y-118041485D01*
X131367619Y-118041485D02*
X131367619Y-118184342D01*
X131367619Y-118184342D02*
X131415238Y-118279580D01*
X131415238Y-118279580D02*
X131462857Y-118327200D01*
X131462857Y-118327200D02*
X131558095Y-118374819D01*
X131558095Y-118374819D02*
X131939047Y-118374819D01*
X131939047Y-118374819D02*
X131939047Y-117374819D01*
X131939047Y-117374819D02*
X131605714Y-117374819D01*
X131605714Y-117374819D02*
X131510476Y-117422438D01*
X131510476Y-117422438D02*
X131462857Y-117470057D01*
X131462857Y-117470057D02*
X131415238Y-117565295D01*
X131415238Y-117565295D02*
X131415238Y-117660533D01*
X131415238Y-117660533D02*
X131462857Y-117755771D01*
X131462857Y-117755771D02*
X131510476Y-117803390D01*
X131510476Y-117803390D02*
X131605714Y-117851009D01*
X131605714Y-117851009D02*
X131939047Y-117851009D01*
X131081904Y-117374819D02*
X130510476Y-117374819D01*
X130796190Y-118374819D02*
X130796190Y-117374819D01*
X130224761Y-117470057D02*
X130177142Y-117422438D01*
X130177142Y-117422438D02*
X130081904Y-117374819D01*
X130081904Y-117374819D02*
X129843809Y-117374819D01*
X129843809Y-117374819D02*
X129748571Y-117422438D01*
X129748571Y-117422438D02*
X129700952Y-117470057D01*
X129700952Y-117470057D02*
X129653333Y-117565295D01*
X129653333Y-117565295D02*
X129653333Y-117660533D01*
X129653333Y-117660533D02*
X129700952Y-117803390D01*
X129700952Y-117803390D02*
X130272380Y-118374819D01*
X130272380Y-118374819D02*
X129653333Y-118374819D01*
D11*
X144730000Y-87700000D02*
X144730000Y-89410000D01*
X144730000Y-83900000D02*
X144730000Y-82190000D01*
X144730000Y-82190000D02*
X141112000Y-82190000D01*
X141112000Y-89410000D02*
X144730000Y-89410000D01*
X138267300Y-77690000D02*
X122572700Y-77690000D01*
X134280000Y-93910000D02*
X138267300Y-93910000D01*
X132080000Y-91710000D02*
X134280000Y-93910000D01*
X128760000Y-91710000D02*
X132080000Y-91710000D01*
X128760000Y-91710000D02*
X126560000Y-93910000D01*
X122572700Y-93910000D02*
X126560000Y-93910000D01*
X119728000Y-82190000D02*
X116110000Y-82190000D01*
X116110000Y-89410000D02*
X119728000Y-89410000D01*
X116110000Y-87700000D02*
X116110000Y-89410000D01*
X116110000Y-83900000D02*
X116110000Y-82190000D01*
X138265371Y-93911789D02*
G75*
G03*
X141112000Y-89410000I-7845350J8111775D01*
G01*
X141111998Y-82190001D02*
G75*
G03*
X138265371Y-77688211I-10692018J-3610009D01*
G01*
X119728000Y-89410000D02*
G75*
G03*
X122574629Y-93911789I10692020J3610012D01*
G01*
X122574629Y-77688211D02*
G75*
G03*
X119728000Y-82190000I7845391J-8111801D01*
G01*
X145130000Y-112200000D02*
X145130000Y-113910000D01*
X145130000Y-108400000D02*
X145130000Y-106690000D01*
X145130000Y-106690000D02*
X141512000Y-106690000D01*
X141512000Y-113910000D02*
X145130000Y-113910000D01*
X138667300Y-102190000D02*
X122972700Y-102190000D01*
X134680000Y-118410000D02*
X138667300Y-118410000D01*
X132480000Y-116210000D02*
X134680000Y-118410000D01*
X129160000Y-116210000D02*
X132480000Y-116210000D01*
X129160000Y-116210000D02*
X126960000Y-118410000D01*
X122972700Y-118410000D02*
X126960000Y-118410000D01*
X120128000Y-106690000D02*
X116510000Y-106690000D01*
X116510000Y-113910000D02*
X120128000Y-113910000D01*
X116510000Y-112200000D02*
X116510000Y-113910000D01*
X116510000Y-108400000D02*
X116510000Y-106690000D01*
X138665371Y-118411789D02*
G75*
G03*
X141512000Y-113910000I-7845350J8111775D01*
G01*
X141511998Y-106690001D02*
G75*
G03*
X138665371Y-102188211I-10692018J-3610009D01*
G01*
X120128000Y-113910000D02*
G75*
G03*
X122974629Y-118411789I10692020J3610012D01*
G01*
X122974629Y-102188211D02*
G75*
G03*
X120128000Y-106690000I7845391J-8111801D01*
G01*
%LPC*%
D12*
X167800000Y-115000000D03*
D13*
X167800000Y-112460000D03*
D12*
X112550000Y-72200000D03*
D13*
X110010000Y-72200000D03*
D12*
X115140000Y-78100000D03*
D13*
X112600000Y-78100000D03*
D12*
X105800000Y-76100000D03*
D13*
X103260000Y-76100000D03*
D14*
X155401477Y-66950000D03*
D15*
X166400000Y-73300000D03*
D14*
X108299261Y-66225000D03*
D16*
X97300738Y-72575000D03*
D14*
X128500000Y-54200000D03*
D16*
X117501477Y-60550000D03*
D14*
X167000000Y-82300000D03*
D17*
X167000000Y-95000000D03*
D14*
X149440739Y-127635000D03*
D18*
X160439262Y-121285000D03*
D14*
X133401477Y-54250000D03*
D15*
X144400000Y-60600000D03*
D19*
X101300000Y-110700000D03*
X94800000Y-110700000D03*
X101300000Y-106200000D03*
X94800000Y-106200000D03*
D20*
X95600000Y-82180000D03*
D17*
X95600000Y-89800000D03*
D12*
X116800000Y-70300000D03*
D13*
X119340000Y-70300000D03*
D12*
X162500000Y-107600000D03*
D13*
X159960000Y-107600000D03*
D12*
X156400000Y-112225000D03*
D13*
X156400000Y-114765000D03*
D12*
X166160000Y-104300000D03*
D13*
X168700000Y-104300000D03*
D14*
X101300000Y-101300000D03*
D17*
X101300000Y-88600000D03*
D14*
X106498523Y-124050000D03*
D21*
X95500000Y-117700000D03*
D22*
X130800000Y-46600000D03*
D12*
X120625000Y-74800000D03*
D13*
X123165000Y-74800000D03*
D14*
X117201477Y-130450000D03*
D15*
X128200000Y-136800000D03*
D14*
X133800739Y-136675000D03*
D18*
X144799262Y-130325000D03*
D20*
X140580000Y-74200000D03*
D17*
X143120000Y-74200000D03*
X145660000Y-74200000D03*
X148200000Y-74200000D03*
X148200000Y-66580000D03*
X145660000Y-66580000D03*
X143120000Y-66580000D03*
X140580000Y-66580000D03*
D23*
X145100000Y-85800000D03*
X115740000Y-85800000D03*
X145500000Y-110300000D03*
X116140000Y-110300000D03*
%LPD*%
M02*
