M48
; DRILL file {KiCad 7.0.7} date 2023 December 08, Friday 11:25:47
; FORMAT={-:-/ absolute / metric / decimal}
; #@! TF.CreationDate,2023-12-08T11:25:47-06:00
; #@! TF.GenerationSoftware,Kicad,Pcbnew,7.0.7
; #@! TF.FileFunction,Plated,1,2,PTH
FMAT,2
METRIC
; #@! TA.AperFunction,Plated,PTH,ComponentDrill
T1C0.800
; #@! TA.AperFunction,Plated,PTH,ComponentDrill
T2C0.900
; #@! TA.AperFunction,Plated,PTH,ComponentDrill
T3C1.100
%
G90
G05
T1
X95.5Y-117.7
X95.6Y-82.18
X95.6Y-89.8
X97.301Y-72.575
X106.499Y-124.05
X108.299Y-66.225
X117.201Y-130.45
X117.501Y-60.55
X128.2Y-136.8
X128.5Y-54.2
X133.401Y-54.25
X133.801Y-136.675
X140.58Y-66.58
X140.58Y-74.2
X143.12Y-66.58
X143.12Y-74.2
X144.4Y-60.6
X144.799Y-130.325
X145.66Y-66.58
X145.66Y-74.2
X148.2Y-66.58
X148.2Y-74.2
X153.1Y-125.5
X155.401Y-66.95
X164.099Y-119.15
X166.4Y-73.3
X167.0Y-82.3
X167.0Y-95.0
T2
X103.26Y-76.1
X105.8Y-76.1
X110.01Y-72.2
X112.55Y-72.2
X112.66Y-78.2
X115.2Y-78.2
X116.8Y-70.3
X119.34Y-70.3
X157.0Y-113.3
X157.0Y-115.84
X159.96Y-107.6
X162.5Y-107.6
X166.16Y-104.3
X167.8Y-112.46
X167.8Y-115.0
X168.7Y-104.3
T3
X93.8Y-99.3
X93.8Y-103.8
X100.3Y-99.3
X100.3Y-103.8
T0
M30
