G04 #@! TF.GenerationSoftware,KiCad,Pcbnew,7.0.7*
G04 #@! TF.CreationDate,2023-12-08T11:24:34-06:00*
G04 #@! TF.ProjectId,airplane-keychain,61697270-6c61-46e6-952d-6b6579636861,1*
G04 #@! TF.SameCoordinates,Original*
G04 #@! TF.FileFunction,Copper,L2,Bot*
G04 #@! TF.FilePolarity,Positive*
%FSLAX46Y46*%
G04 Gerber Fmt 4.6, Leading zero omitted, Abs format (unit mm)*
G04 Created by KiCad (PCBNEW 7.0.7) date 2023-12-08 11:24:34*
%MOMM*%
%LPD*%
G01*
G04 APERTURE LIST*
G04 Aperture macros list*
%AMHorizOval*
0 Thick line with rounded ends*
0 $1 width*
0 $2 $3 position (X,Y) of the first rounded end (center of the circle)*
0 $4 $5 position (X,Y) of the second rounded end (center of the circle)*
0 Add line between two ends*
20,1,$1,$2,$3,$4,$5,0*
0 Add two circle primitives to create the rounded ends*
1,1,$1,$2,$3*
1,1,$1,$4,$5*%
G04 Aperture macros list end*
G04 #@! TA.AperFunction,ComponentPad*
%ADD10R,1.800000X1.800000*%
G04 #@! TD*
G04 #@! TA.AperFunction,ComponentPad*
%ADD11C,1.800000*%
G04 #@! TD*
G04 #@! TA.AperFunction,ComponentPad*
%ADD12C,1.600000*%
G04 #@! TD*
G04 #@! TA.AperFunction,ComponentPad*
%ADD13HorizOval,1.600000X0.000000X0.000000X0.000000X0.000000X0*%
G04 #@! TD*
G04 #@! TA.AperFunction,ComponentPad*
%ADD14HorizOval,1.600000X0.000000X0.000000X0.000000X0.000000X0*%
G04 #@! TD*
G04 #@! TA.AperFunction,ComponentPad*
%ADD15O,1.600000X1.600000*%
G04 #@! TD*
G04 #@! TA.AperFunction,ComponentPad*
%ADD16HorizOval,1.600000X0.000000X0.000000X0.000000X0.000000X0*%
G04 #@! TD*
G04 #@! TA.AperFunction,ComponentPad*
%ADD17C,2.000000*%
G04 #@! TD*
G04 #@! TA.AperFunction,ComponentPad*
%ADD18R,1.600000X1.600000*%
G04 #@! TD*
G04 #@! TA.AperFunction,ComponentPad*
%ADD19HorizOval,1.600000X0.000000X0.000000X0.000000X0.000000X0*%
G04 #@! TD*
G04 #@! TA.AperFunction,SMDPad,CuDef*
%ADD20R,2.540000X3.510000*%
G04 #@! TD*
G04 #@! TA.AperFunction,Conductor*
%ADD21C,0.250000*%
G04 #@! TD*
G04 APERTURE END LIST*
D10*
X167800000Y-115000000D03*
D11*
X167800000Y-112460000D03*
D10*
X112550000Y-72200000D03*
D11*
X110010000Y-72200000D03*
D10*
X115200000Y-78200000D03*
D11*
X112660000Y-78200000D03*
D10*
X105800000Y-76100000D03*
D11*
X103260000Y-76100000D03*
D12*
X155401477Y-66950000D03*
D13*
X166400000Y-73300000D03*
D12*
X108299261Y-66225000D03*
D14*
X97300738Y-72575000D03*
D12*
X128500000Y-54200000D03*
D14*
X117501477Y-60550000D03*
D12*
X167000000Y-82300000D03*
D15*
X167000000Y-95000000D03*
D12*
X153100000Y-125500000D03*
D16*
X164098523Y-119150000D03*
D12*
X133401477Y-54250000D03*
D13*
X144400000Y-60600000D03*
D17*
X100300000Y-103800000D03*
X93800000Y-103800000D03*
X100300000Y-99300000D03*
X93800000Y-99300000D03*
D18*
X95600000Y-82180000D03*
D15*
X95600000Y-89800000D03*
D10*
X116800000Y-70300000D03*
D11*
X119340000Y-70300000D03*
D10*
X162500000Y-107600000D03*
D11*
X159960000Y-107600000D03*
D10*
X157000000Y-115840000D03*
D11*
X157000000Y-113300000D03*
D10*
X166160000Y-104300000D03*
D11*
X168700000Y-104300000D03*
D12*
X106498523Y-124050000D03*
D19*
X95500000Y-117700000D03*
D12*
X117201477Y-130450000D03*
D13*
X128200000Y-136800000D03*
D12*
X133800739Y-136675000D03*
D16*
X144799262Y-130325000D03*
D18*
X140580000Y-74200000D03*
D15*
X143120000Y-74200000D03*
X145660000Y-74200000D03*
X148200000Y-74200000D03*
X148200000Y-66580000D03*
X145660000Y-66580000D03*
X143120000Y-66580000D03*
X140580000Y-66580000D03*
D20*
X145100000Y-85800000D03*
X115740000Y-85800000D03*
X145500000Y-110300000D03*
X116140000Y-110300000D03*
D21*
X100300000Y-99300000D02*
X93800000Y-99300000D01*
X145500000Y-110300000D02*
X122800000Y-110300000D01*
X122800000Y-110300000D02*
X111800000Y-99300000D01*
X111800000Y-99300000D02*
X100300000Y-99300000D01*
X145500000Y-110300000D02*
X145500000Y-109815000D01*
X145100000Y-85800000D02*
X145100000Y-109900000D01*
X145100000Y-109900000D02*
X145500000Y-110300000D01*
X145500000Y-86200000D02*
X145100000Y-85800000D01*
G04 #@! TA.AperFunction,Conductor*
G36*
X130962421Y-41295065D02*
G01*
X177588331Y-68593140D01*
X177636238Y-68643999D01*
X177649680Y-68699924D01*
X177749316Y-123599468D01*
X177729753Y-123666543D01*
X177687625Y-123706901D01*
X131062375Y-150805335D01*
X130994523Y-150822003D01*
X130937685Y-150805294D01*
X106877310Y-136800001D01*
X126886502Y-136800001D01*
X126906456Y-137028081D01*
X126906457Y-137028089D01*
X126965714Y-137249238D01*
X126965718Y-137249249D01*
X127062475Y-137456745D01*
X127062477Y-137456749D01*
X127193802Y-137644300D01*
X127355700Y-137806198D01*
X127543251Y-137937523D01*
X127609772Y-137968542D01*
X127750750Y-138034281D01*
X127750752Y-138034281D01*
X127750757Y-138034284D01*
X127971913Y-138093543D01*
X128134832Y-138107796D01*
X128199998Y-138113498D01*
X128200000Y-138113498D01*
X128200002Y-138113498D01*
X128257021Y-138108509D01*
X128428087Y-138093543D01*
X128649243Y-138034284D01*
X128856749Y-137937523D01*
X129044300Y-137806198D01*
X129206198Y-137644300D01*
X129337523Y-137456749D01*
X129434284Y-137249243D01*
X129493543Y-137028087D01*
X129513498Y-136800000D01*
X129502562Y-136675001D01*
X132487241Y-136675001D01*
X132507195Y-136903081D01*
X132507196Y-136903089D01*
X132566453Y-137124238D01*
X132566457Y-137124249D01*
X132663214Y-137331745D01*
X132663216Y-137331749D01*
X132794541Y-137519300D01*
X132956439Y-137681198D01*
X133143990Y-137812523D01*
X133268830Y-137870736D01*
X133351489Y-137909281D01*
X133351491Y-137909281D01*
X133351496Y-137909284D01*
X133572652Y-137968543D01*
X133735571Y-137982796D01*
X133800737Y-137988498D01*
X133800739Y-137988498D01*
X133800741Y-137988498D01*
X133857760Y-137983509D01*
X134028826Y-137968543D01*
X134249982Y-137909284D01*
X134457488Y-137812523D01*
X134645039Y-137681198D01*
X134806937Y-137519300D01*
X134938262Y-137331749D01*
X135035023Y-137124243D01*
X135094282Y-136903087D01*
X135114237Y-136675000D01*
X135094282Y-136446913D01*
X135035023Y-136225757D01*
X134938262Y-136018251D01*
X134806937Y-135830700D01*
X134645039Y-135668802D01*
X134457488Y-135537477D01*
X134457484Y-135537475D01*
X134249988Y-135440718D01*
X134249977Y-135440714D01*
X134028828Y-135381457D01*
X134028820Y-135381456D01*
X133800741Y-135361502D01*
X133800737Y-135361502D01*
X133572657Y-135381456D01*
X133572649Y-135381457D01*
X133351500Y-135440714D01*
X133351489Y-135440718D01*
X133143993Y-135537475D01*
X133143991Y-135537476D01*
X133103658Y-135565718D01*
X132956439Y-135668802D01*
X132956437Y-135668803D01*
X132956434Y-135668806D01*
X132794545Y-135830695D01*
X132663215Y-136018252D01*
X132663214Y-136018254D01*
X132566457Y-136225750D01*
X132566453Y-136225761D01*
X132507196Y-136446910D01*
X132507195Y-136446918D01*
X132487241Y-136674998D01*
X132487241Y-136675001D01*
X129502562Y-136675001D01*
X129493543Y-136571913D01*
X129434284Y-136350757D01*
X129337523Y-136143251D01*
X129206198Y-135955700D01*
X129044300Y-135793802D01*
X128856749Y-135662477D01*
X128856745Y-135662475D01*
X128649249Y-135565718D01*
X128649238Y-135565714D01*
X128428089Y-135506457D01*
X128428081Y-135506456D01*
X128200002Y-135486502D01*
X128199998Y-135486502D01*
X127971918Y-135506456D01*
X127971910Y-135506457D01*
X127750761Y-135565714D01*
X127750750Y-135565718D01*
X127543254Y-135662475D01*
X127543252Y-135662476D01*
X127543249Y-135662477D01*
X127543251Y-135662477D01*
X127355700Y-135793802D01*
X127355698Y-135793803D01*
X127355695Y-135793806D01*
X127193806Y-135955695D01*
X127193803Y-135955698D01*
X127193802Y-135955700D01*
X127150001Y-136018254D01*
X127062476Y-136143252D01*
X127062475Y-136143254D01*
X126965718Y-136350750D01*
X126965714Y-136350761D01*
X126906457Y-136571910D01*
X126906456Y-136571918D01*
X126886502Y-136799998D01*
X126886502Y-136800001D01*
X106877310Y-136800001D01*
X95968335Y-130450001D01*
X115887979Y-130450001D01*
X115907933Y-130678081D01*
X115907934Y-130678089D01*
X115967191Y-130899238D01*
X115967195Y-130899249D01*
X116063952Y-131106745D01*
X116063954Y-131106749D01*
X116195279Y-131294300D01*
X116357177Y-131456198D01*
X116544728Y-131587523D01*
X116611249Y-131618542D01*
X116752227Y-131684281D01*
X116752229Y-131684281D01*
X116752234Y-131684284D01*
X116973390Y-131743543D01*
X117136309Y-131757796D01*
X117201475Y-131763498D01*
X117201477Y-131763498D01*
X117201479Y-131763498D01*
X117258498Y-131758509D01*
X117429564Y-131743543D01*
X117650720Y-131684284D01*
X117858226Y-131587523D01*
X118045777Y-131456198D01*
X118207675Y-131294300D01*
X118339000Y-131106749D01*
X118435761Y-130899243D01*
X118495020Y-130678087D01*
X118514975Y-130450000D01*
X118504039Y-130325001D01*
X143485764Y-130325001D01*
X143505718Y-130553081D01*
X143505719Y-130553089D01*
X143564976Y-130774238D01*
X143564980Y-130774249D01*
X143661737Y-130981745D01*
X143661739Y-130981749D01*
X143793064Y-131169300D01*
X143954962Y-131331198D01*
X144142513Y-131462523D01*
X144267353Y-131520736D01*
X144350012Y-131559281D01*
X144350014Y-131559281D01*
X144350019Y-131559284D01*
X144571175Y-131618543D01*
X144734094Y-131632796D01*
X144799260Y-131638498D01*
X144799262Y-131638498D01*
X144799264Y-131638498D01*
X144856283Y-131633509D01*
X145027349Y-131618543D01*
X145248505Y-131559284D01*
X145456011Y-131462523D01*
X145643562Y-131331198D01*
X145805460Y-131169300D01*
X145936785Y-130981749D01*
X146033546Y-130774243D01*
X146092805Y-130553087D01*
X146112760Y-130325000D01*
X146092805Y-130096913D01*
X146033546Y-129875757D01*
X145936785Y-129668251D01*
X145805460Y-129480700D01*
X145643562Y-129318802D01*
X145456011Y-129187477D01*
X145456007Y-129187475D01*
X145248511Y-129090718D01*
X145248500Y-129090714D01*
X145027351Y-129031457D01*
X145027343Y-129031456D01*
X144799264Y-129011502D01*
X144799260Y-129011502D01*
X144571180Y-129031456D01*
X144571172Y-129031457D01*
X144350023Y-129090714D01*
X144350012Y-129090718D01*
X144142516Y-129187475D01*
X144142514Y-129187476D01*
X144102181Y-129215718D01*
X143954962Y-129318802D01*
X143954960Y-129318803D01*
X143954957Y-129318806D01*
X143793068Y-129480695D01*
X143661738Y-129668252D01*
X143661737Y-129668254D01*
X143564980Y-129875750D01*
X143564976Y-129875761D01*
X143505719Y-130096910D01*
X143505718Y-130096918D01*
X143485764Y-130324998D01*
X143485764Y-130325001D01*
X118504039Y-130325001D01*
X118495020Y-130221913D01*
X118435761Y-130000757D01*
X118339000Y-129793251D01*
X118207675Y-129605700D01*
X118045777Y-129443802D01*
X117858226Y-129312477D01*
X117858222Y-129312475D01*
X117650726Y-129215718D01*
X117650715Y-129215714D01*
X117429566Y-129156457D01*
X117429558Y-129156456D01*
X117201479Y-129136502D01*
X117201475Y-129136502D01*
X116973395Y-129156456D01*
X116973387Y-129156457D01*
X116752238Y-129215714D01*
X116752227Y-129215718D01*
X116544731Y-129312475D01*
X116544729Y-129312476D01*
X116544726Y-129312477D01*
X116544728Y-129312477D01*
X116357177Y-129443802D01*
X116357175Y-129443803D01*
X116357172Y-129443806D01*
X116195283Y-129605695D01*
X116195280Y-129605698D01*
X116195279Y-129605700D01*
X116151478Y-129668254D01*
X116063953Y-129793252D01*
X116063952Y-129793254D01*
X115967195Y-130000750D01*
X115967191Y-130000761D01*
X115907934Y-130221910D01*
X115907933Y-130221918D01*
X115887979Y-130449998D01*
X115887979Y-130450001D01*
X95968335Y-130450001D01*
X89721009Y-126813498D01*
X87464489Y-125500001D01*
X151786502Y-125500001D01*
X151806456Y-125728081D01*
X151806457Y-125728089D01*
X151865714Y-125949238D01*
X151865718Y-125949249D01*
X151962475Y-126156745D01*
X151962477Y-126156749D01*
X152093802Y-126344300D01*
X152255700Y-126506198D01*
X152443251Y-126637523D01*
X152568091Y-126695736D01*
X152650750Y-126734281D01*
X152650752Y-126734281D01*
X152650757Y-126734284D01*
X152871913Y-126793543D01*
X153034832Y-126807796D01*
X153099998Y-126813498D01*
X153100000Y-126813498D01*
X153100002Y-126813498D01*
X153157021Y-126808509D01*
X153328087Y-126793543D01*
X153549243Y-126734284D01*
X153756749Y-126637523D01*
X153944300Y-126506198D01*
X154106198Y-126344300D01*
X154237523Y-126156749D01*
X154334284Y-125949243D01*
X154393543Y-125728087D01*
X154413498Y-125500000D01*
X154393543Y-125271913D01*
X154334284Y-125050757D01*
X154237523Y-124843251D01*
X154106198Y-124655700D01*
X153944300Y-124493802D01*
X153756749Y-124362477D01*
X153756745Y-124362475D01*
X153549249Y-124265718D01*
X153549238Y-124265714D01*
X153328089Y-124206457D01*
X153328081Y-124206456D01*
X153100002Y-124186502D01*
X153099998Y-124186502D01*
X152871918Y-124206456D01*
X152871910Y-124206457D01*
X152650761Y-124265714D01*
X152650750Y-124265718D01*
X152443254Y-124362475D01*
X152443252Y-124362476D01*
X152443249Y-124362477D01*
X152443251Y-124362477D01*
X152255700Y-124493802D01*
X152255698Y-124493803D01*
X152255695Y-124493806D01*
X152093806Y-124655695D01*
X152093803Y-124655698D01*
X152093802Y-124655700D01*
X152058057Y-124706749D01*
X151962476Y-124843252D01*
X151962475Y-124843254D01*
X151865718Y-125050750D01*
X151865714Y-125050761D01*
X151806457Y-125271910D01*
X151806456Y-125271918D01*
X151786502Y-125499998D01*
X151786502Y-125500001D01*
X87464489Y-125500001D01*
X84973464Y-124050001D01*
X105185025Y-124050001D01*
X105204979Y-124278081D01*
X105204980Y-124278089D01*
X105264237Y-124499238D01*
X105264241Y-124499249D01*
X105360998Y-124706745D01*
X105361000Y-124706749D01*
X105492325Y-124894300D01*
X105654223Y-125056198D01*
X105841774Y-125187523D01*
X105966614Y-125245736D01*
X106049273Y-125284281D01*
X106049275Y-125284281D01*
X106049280Y-125284284D01*
X106270436Y-125343543D01*
X106433355Y-125357796D01*
X106498521Y-125363498D01*
X106498523Y-125363498D01*
X106498525Y-125363498D01*
X106555544Y-125358509D01*
X106726610Y-125343543D01*
X106947766Y-125284284D01*
X107155272Y-125187523D01*
X107342823Y-125056198D01*
X107504721Y-124894300D01*
X107636046Y-124706749D01*
X107732807Y-124499243D01*
X107792066Y-124278087D01*
X107812021Y-124050000D01*
X107792066Y-123821913D01*
X107732807Y-123600757D01*
X107636046Y-123393251D01*
X107504721Y-123205700D01*
X107342823Y-123043802D01*
X107155272Y-122912477D01*
X107155268Y-122912475D01*
X106947772Y-122815718D01*
X106947761Y-122815714D01*
X106726612Y-122756457D01*
X106726604Y-122756456D01*
X106498525Y-122736502D01*
X106498521Y-122736502D01*
X106270441Y-122756456D01*
X106270433Y-122756457D01*
X106049284Y-122815714D01*
X106049273Y-122815718D01*
X105841777Y-122912475D01*
X105841775Y-122912476D01*
X105841772Y-122912477D01*
X105841774Y-122912477D01*
X105654223Y-123043802D01*
X105654221Y-123043803D01*
X105654218Y-123043806D01*
X105492329Y-123205695D01*
X105360999Y-123393252D01*
X105360998Y-123393254D01*
X105264241Y-123600750D01*
X105264237Y-123600761D01*
X105204980Y-123821910D01*
X105204979Y-123821918D01*
X105185025Y-124049998D01*
X105185025Y-124050001D01*
X84973464Y-124050001D01*
X84212299Y-123606935D01*
X84164265Y-123556198D01*
X84150681Y-123499544D01*
X84151214Y-123205700D01*
X84158561Y-119150001D01*
X162785024Y-119150001D01*
X162804979Y-119378081D01*
X162804980Y-119378089D01*
X162864237Y-119599238D01*
X162864241Y-119599249D01*
X162960998Y-119806745D01*
X162961000Y-119806749D01*
X163092325Y-119994300D01*
X163254223Y-120156198D01*
X163441774Y-120287523D01*
X163566614Y-120345736D01*
X163649273Y-120384281D01*
X163649275Y-120384281D01*
X163649280Y-120384284D01*
X163870436Y-120443543D01*
X164033355Y-120457796D01*
X164098521Y-120463498D01*
X164098523Y-120463498D01*
X164098525Y-120463498D01*
X164155544Y-120458509D01*
X164326610Y-120443543D01*
X164547766Y-120384284D01*
X164755272Y-120287523D01*
X164942823Y-120156198D01*
X165104721Y-119994300D01*
X165236046Y-119806749D01*
X165332807Y-119599243D01*
X165392066Y-119378087D01*
X165412021Y-119150000D01*
X165392066Y-118921913D01*
X165332807Y-118700757D01*
X165236046Y-118493251D01*
X165104721Y-118305700D01*
X164942823Y-118143802D01*
X164755272Y-118012477D01*
X164755268Y-118012475D01*
X164547772Y-117915718D01*
X164547761Y-117915714D01*
X164326612Y-117856457D01*
X164326604Y-117856456D01*
X164098525Y-117836502D01*
X164098521Y-117836502D01*
X163870441Y-117856456D01*
X163870433Y-117856457D01*
X163649284Y-117915714D01*
X163649273Y-117915718D01*
X163441777Y-118012475D01*
X163441775Y-118012476D01*
X163441772Y-118012477D01*
X163441774Y-118012477D01*
X163254223Y-118143802D01*
X163254221Y-118143803D01*
X163254218Y-118143806D01*
X163092329Y-118305695D01*
X163092326Y-118305698D01*
X163092325Y-118305700D01*
X163056580Y-118356749D01*
X162960999Y-118493252D01*
X162960998Y-118493254D01*
X162864241Y-118700750D01*
X162864237Y-118700761D01*
X162804980Y-118921910D01*
X162804979Y-118921918D01*
X162785024Y-119149998D01*
X162785024Y-119150001D01*
X84158561Y-119150001D01*
X84161188Y-117700001D01*
X94186502Y-117700001D01*
X94206456Y-117928081D01*
X94206457Y-117928089D01*
X94265714Y-118149238D01*
X94265718Y-118149249D01*
X94362475Y-118356745D01*
X94362477Y-118356749D01*
X94493802Y-118544300D01*
X94655700Y-118706198D01*
X94843251Y-118837523D01*
X94968091Y-118895736D01*
X95050750Y-118934281D01*
X95050752Y-118934281D01*
X95050757Y-118934284D01*
X95271913Y-118993543D01*
X95434832Y-119007796D01*
X95499998Y-119013498D01*
X95500000Y-119013498D01*
X95500002Y-119013498D01*
X95557021Y-119008509D01*
X95728087Y-118993543D01*
X95949243Y-118934284D01*
X96156749Y-118837523D01*
X96344300Y-118706198D01*
X96506198Y-118544300D01*
X96637523Y-118356749D01*
X96734284Y-118149243D01*
X96793543Y-117928087D01*
X96813498Y-117700000D01*
X96793543Y-117471913D01*
X96734284Y-117250757D01*
X96729267Y-117239999D01*
X96662675Y-117097190D01*
X96637523Y-117043251D01*
X96506198Y-116855700D01*
X96344300Y-116693802D01*
X96156749Y-116562477D01*
X96156745Y-116562475D01*
X95949249Y-116465718D01*
X95949238Y-116465714D01*
X95728089Y-116406457D01*
X95728081Y-116406456D01*
X95500002Y-116386502D01*
X95499998Y-116386502D01*
X95271918Y-116406456D01*
X95271910Y-116406457D01*
X95050761Y-116465714D01*
X95050750Y-116465718D01*
X94843254Y-116562475D01*
X94843252Y-116562476D01*
X94843249Y-116562477D01*
X94843251Y-116562477D01*
X94655700Y-116693802D01*
X94655698Y-116693803D01*
X94655695Y-116693806D01*
X94493806Y-116855695D01*
X94362476Y-117043252D01*
X94362475Y-117043254D01*
X94265718Y-117250750D01*
X94265714Y-117250761D01*
X94206457Y-117471910D01*
X94206456Y-117471918D01*
X94186502Y-117699998D01*
X94186502Y-117700001D01*
X84161188Y-117700001D01*
X84169159Y-113300005D01*
X155586673Y-113300005D01*
X155605948Y-113532622D01*
X155605948Y-113532625D01*
X155605949Y-113532626D01*
X155627002Y-113615764D01*
X155663251Y-113758907D01*
X155757015Y-113972668D01*
X155884683Y-114168080D01*
X155978073Y-114269528D01*
X156008995Y-114332183D01*
X156001135Y-114401609D01*
X155956988Y-114455764D01*
X155930177Y-114469693D01*
X155857911Y-114496646D01*
X155857906Y-114496649D01*
X155742812Y-114582809D01*
X155742809Y-114582812D01*
X155656649Y-114697906D01*
X155656645Y-114697913D01*
X155606403Y-114832620D01*
X155606401Y-114832627D01*
X155600000Y-114892155D01*
X155600000Y-115590000D01*
X156439997Y-115590000D01*
X156507036Y-115609685D01*
X156552791Y-115662489D01*
X156562735Y-115731647D01*
X156560888Y-115741592D01*
X156546189Y-115805992D01*
X156546189Y-115805993D01*
X156557021Y-115950532D01*
X156554920Y-115950689D01*
X156551405Y-116008139D01*
X156510110Y-116064499D01*
X156444899Y-116089587D01*
X156434784Y-116090000D01*
X155600000Y-116090000D01*
X155600000Y-116787844D01*
X155606401Y-116847372D01*
X155606403Y-116847379D01*
X155656645Y-116982086D01*
X155656649Y-116982093D01*
X155742809Y-117097187D01*
X155742812Y-117097190D01*
X155857906Y-117183350D01*
X155857913Y-117183354D01*
X155992620Y-117233596D01*
X155992627Y-117233598D01*
X156052155Y-117239999D01*
X156052172Y-117240000D01*
X156750000Y-117240000D01*
X156750000Y-116401821D01*
X156769685Y-116334782D01*
X156822489Y-116289027D01*
X156891647Y-116279083D01*
X156910547Y-116283329D01*
X156932173Y-116290000D01*
X157033723Y-116290000D01*
X157033724Y-116290000D01*
X157107519Y-116278877D01*
X157176742Y-116288350D01*
X157229857Y-116333744D01*
X157249997Y-116400648D01*
X157250000Y-116401492D01*
X157250000Y-117240000D01*
X157947828Y-117240000D01*
X157947844Y-117239999D01*
X158007372Y-117233598D01*
X158007379Y-117233596D01*
X158142086Y-117183354D01*
X158142093Y-117183350D01*
X158257187Y-117097190D01*
X158257190Y-117097187D01*
X158343350Y-116982093D01*
X158343354Y-116982086D01*
X158393596Y-116847379D01*
X158393598Y-116847372D01*
X158399999Y-116787844D01*
X158400000Y-116787827D01*
X158400000Y-116090000D01*
X157560003Y-116090000D01*
X157492964Y-116070315D01*
X157447209Y-116017511D01*
X157437265Y-115948353D01*
X157439112Y-115938408D01*
X157453810Y-115874007D01*
X157453810Y-115874006D01*
X157442979Y-115729468D01*
X157445079Y-115729310D01*
X157448595Y-115671861D01*
X157489890Y-115615501D01*
X157555101Y-115590413D01*
X157565216Y-115590000D01*
X158400000Y-115590000D01*
X158400000Y-114892172D01*
X158399999Y-114892155D01*
X158393598Y-114832627D01*
X158393596Y-114832620D01*
X158343354Y-114697913D01*
X158343350Y-114697906D01*
X158257190Y-114582812D01*
X158257187Y-114582809D01*
X158142093Y-114496649D01*
X158142086Y-114496645D01*
X158069823Y-114469693D01*
X158013889Y-114427822D01*
X157989472Y-114362357D01*
X158004324Y-114294084D01*
X158021927Y-114269528D01*
X158115313Y-114168084D01*
X158191053Y-114052155D01*
X158242984Y-113972669D01*
X158336749Y-113758907D01*
X158394051Y-113532626D01*
X158411000Y-113328083D01*
X158413327Y-113300005D01*
X158413327Y-113299994D01*
X158400476Y-113144915D01*
X158394051Y-113067374D01*
X158336749Y-112841093D01*
X158242984Y-112627331D01*
X158201281Y-112563499D01*
X158133665Y-112460005D01*
X166386673Y-112460005D01*
X166405948Y-112692622D01*
X166463251Y-112918907D01*
X166557015Y-113132668D01*
X166684683Y-113328080D01*
X166778073Y-113429528D01*
X166808995Y-113492183D01*
X166801135Y-113561609D01*
X166756988Y-113615764D01*
X166730177Y-113629693D01*
X166657911Y-113656646D01*
X166657906Y-113656649D01*
X166542812Y-113742809D01*
X166542809Y-113742812D01*
X166456649Y-113857906D01*
X166456645Y-113857913D01*
X166406403Y-113992620D01*
X166406401Y-113992627D01*
X166400000Y-114052155D01*
X166400000Y-114750000D01*
X167239997Y-114750000D01*
X167307036Y-114769685D01*
X167352791Y-114822489D01*
X167362735Y-114891647D01*
X167360888Y-114901592D01*
X167346189Y-114965992D01*
X167346189Y-114965993D01*
X167357021Y-115110532D01*
X167354920Y-115110689D01*
X167351405Y-115168139D01*
X167310110Y-115224499D01*
X167244899Y-115249587D01*
X167234784Y-115250000D01*
X166400000Y-115250000D01*
X166400000Y-115947844D01*
X166406401Y-116007372D01*
X166406403Y-116007379D01*
X166456645Y-116142086D01*
X166456649Y-116142093D01*
X166542809Y-116257187D01*
X166542812Y-116257190D01*
X166657906Y-116343350D01*
X166657913Y-116343354D01*
X166792620Y-116393596D01*
X166792627Y-116393598D01*
X166852155Y-116399999D01*
X166852172Y-116400000D01*
X167550000Y-116400000D01*
X167550000Y-115561821D01*
X167569685Y-115494782D01*
X167622489Y-115449027D01*
X167691647Y-115439083D01*
X167710547Y-115443329D01*
X167732173Y-115450000D01*
X167833723Y-115450000D01*
X167833724Y-115450000D01*
X167907519Y-115438877D01*
X167976742Y-115448350D01*
X168029857Y-115493744D01*
X168049997Y-115560648D01*
X168050000Y-115561492D01*
X168050000Y-116400000D01*
X168747828Y-116400000D01*
X168747844Y-116399999D01*
X168807372Y-116393598D01*
X168807379Y-116393596D01*
X168942086Y-116343354D01*
X168942093Y-116343350D01*
X169057187Y-116257190D01*
X169057190Y-116257187D01*
X169143350Y-116142093D01*
X169143354Y-116142086D01*
X169193596Y-116007379D01*
X169193598Y-116007372D01*
X169199999Y-115947844D01*
X169200000Y-115947827D01*
X169200000Y-115250000D01*
X168360003Y-115250000D01*
X168292964Y-115230315D01*
X168247209Y-115177511D01*
X168237265Y-115108353D01*
X168239112Y-115098408D01*
X168253810Y-115034007D01*
X168253810Y-115034006D01*
X168242979Y-114889468D01*
X168245079Y-114889310D01*
X168248595Y-114831861D01*
X168289890Y-114775501D01*
X168355101Y-114750413D01*
X168365216Y-114750000D01*
X169200000Y-114750000D01*
X169200000Y-114052172D01*
X169199999Y-114052155D01*
X169193598Y-113992627D01*
X169193596Y-113992620D01*
X169143354Y-113857913D01*
X169143350Y-113857906D01*
X169057190Y-113742812D01*
X169057187Y-113742809D01*
X168942093Y-113656649D01*
X168942086Y-113656645D01*
X168869823Y-113629693D01*
X168813889Y-113587822D01*
X168789472Y-113522357D01*
X168804324Y-113454084D01*
X168821927Y-113429528D01*
X168915313Y-113328084D01*
X168933665Y-113299994D01*
X169042984Y-113132669D01*
X169136749Y-112918907D01*
X169194051Y-112692626D01*
X169210149Y-112498354D01*
X169213327Y-112460005D01*
X169213327Y-112459994D01*
X169199828Y-112297093D01*
X169194051Y-112227374D01*
X169136749Y-112001093D01*
X169042984Y-111787331D01*
X168915314Y-111591917D01*
X168915313Y-111591915D01*
X168757223Y-111420185D01*
X168757222Y-111420184D01*
X168757220Y-111420182D01*
X168573017Y-111276810D01*
X168573015Y-111276809D01*
X168573014Y-111276808D01*
X168573011Y-111276806D01*
X168367733Y-111165716D01*
X168367730Y-111165715D01*
X168367727Y-111165713D01*
X168367721Y-111165711D01*
X168367719Y-111165710D01*
X168146954Y-111089920D01*
X167952668Y-111057500D01*
X167916712Y-111051500D01*
X167683288Y-111051500D01*
X167647332Y-111057500D01*
X167453045Y-111089920D01*
X167232280Y-111165710D01*
X167232266Y-111165716D01*
X167026988Y-111276806D01*
X167026985Y-111276808D01*
X166842781Y-111420181D01*
X166842776Y-111420185D01*
X166684686Y-111591915D01*
X166557015Y-111787331D01*
X166463251Y-112001092D01*
X166405948Y-112227377D01*
X166386673Y-112459994D01*
X166386673Y-112460005D01*
X158133665Y-112460005D01*
X158115313Y-112431915D01*
X157957223Y-112260185D01*
X157957222Y-112260184D01*
X157957220Y-112260182D01*
X157773017Y-112116810D01*
X157773015Y-112116809D01*
X157773014Y-112116808D01*
X157773011Y-112116806D01*
X157567733Y-112005716D01*
X157567730Y-112005715D01*
X157567727Y-112005713D01*
X157567721Y-112005711D01*
X157567719Y-112005710D01*
X157346954Y-111929920D01*
X157174271Y-111901105D01*
X157116712Y-111891500D01*
X156883288Y-111891500D01*
X156837240Y-111899184D01*
X156653045Y-111929920D01*
X156432280Y-112005710D01*
X156432266Y-112005716D01*
X156226988Y-112116806D01*
X156226985Y-112116808D01*
X156042781Y-112260181D01*
X156042776Y-112260185D01*
X155884686Y-112431915D01*
X155757015Y-112627331D01*
X155663251Y-112841092D01*
X155605948Y-113067377D01*
X155586673Y-113299994D01*
X155586673Y-113300005D01*
X84169159Y-113300005D01*
X84174141Y-110550000D01*
X114370000Y-110550000D01*
X114370000Y-112102844D01*
X114376401Y-112162372D01*
X114376403Y-112162379D01*
X114426645Y-112297086D01*
X114426649Y-112297093D01*
X114512809Y-112412187D01*
X114512812Y-112412190D01*
X114627906Y-112498350D01*
X114627913Y-112498354D01*
X114762620Y-112548596D01*
X114762627Y-112548598D01*
X114822155Y-112554999D01*
X114822172Y-112555000D01*
X115890000Y-112555000D01*
X115890000Y-110550000D01*
X116390000Y-110550000D01*
X116390000Y-112555000D01*
X117457828Y-112555000D01*
X117457844Y-112554999D01*
X117517372Y-112548598D01*
X117517379Y-112548596D01*
X117652086Y-112498354D01*
X117652093Y-112498350D01*
X117767187Y-112412190D01*
X117767190Y-112412187D01*
X117853350Y-112297093D01*
X117853354Y-112297086D01*
X117903596Y-112162379D01*
X117903598Y-112162372D01*
X117909999Y-112102844D01*
X117910000Y-112102827D01*
X117910000Y-110550000D01*
X116390000Y-110550000D01*
X115890000Y-110550000D01*
X114370000Y-110550000D01*
X84174141Y-110550000D01*
X84175047Y-110050000D01*
X114370000Y-110050000D01*
X115890000Y-110050000D01*
X115890000Y-108045000D01*
X116390000Y-108045000D01*
X116390000Y-110050000D01*
X117910000Y-110050000D01*
X117910000Y-108497172D01*
X117909999Y-108497155D01*
X117903598Y-108437627D01*
X117903596Y-108437620D01*
X117853354Y-108302913D01*
X117853350Y-108302906D01*
X117767190Y-108187812D01*
X117767187Y-108187809D01*
X117652093Y-108101649D01*
X117652086Y-108101645D01*
X117517379Y-108051403D01*
X117517372Y-108051401D01*
X117457844Y-108045000D01*
X116390000Y-108045000D01*
X115890000Y-108045000D01*
X114822155Y-108045000D01*
X114762627Y-108051401D01*
X114762620Y-108051403D01*
X114627913Y-108101645D01*
X114627906Y-108101649D01*
X114512812Y-108187809D01*
X114512809Y-108187812D01*
X114426649Y-108302906D01*
X114426645Y-108302913D01*
X114376403Y-108437620D01*
X114376401Y-108437627D01*
X114370000Y-108497155D01*
X114370000Y-110050000D01*
X84175047Y-110050000D01*
X84186369Y-103799999D01*
X92286835Y-103799999D01*
X92305465Y-104036714D01*
X92360895Y-104267595D01*
X92360895Y-104267597D01*
X92451757Y-104486959D01*
X92451759Y-104486962D01*
X92575820Y-104689410D01*
X92575821Y-104689413D01*
X92575824Y-104689416D01*
X92730031Y-104869969D01*
X92850276Y-104972668D01*
X92910586Y-105024178D01*
X92910589Y-105024179D01*
X93113037Y-105148240D01*
X93113040Y-105148242D01*
X93332403Y-105239104D01*
X93332404Y-105239104D01*
X93332406Y-105239105D01*
X93563289Y-105294535D01*
X93800000Y-105313165D01*
X94036711Y-105294535D01*
X94267594Y-105239105D01*
X94267596Y-105239104D01*
X94267597Y-105239104D01*
X94486959Y-105148242D01*
X94486960Y-105148241D01*
X94486963Y-105148240D01*
X94689416Y-105024176D01*
X94869969Y-104869969D01*
X95024176Y-104689416D01*
X95148240Y-104486963D01*
X95156816Y-104466260D01*
X95239104Y-104267597D01*
X95239104Y-104267596D01*
X95239105Y-104267594D01*
X95294535Y-104036711D01*
X95313165Y-103800000D01*
X95313165Y-103799999D01*
X98786835Y-103799999D01*
X98805465Y-104036714D01*
X98860895Y-104267595D01*
X98860895Y-104267597D01*
X98951757Y-104486959D01*
X98951759Y-104486962D01*
X99075820Y-104689410D01*
X99075821Y-104689413D01*
X99075824Y-104689416D01*
X99230031Y-104869969D01*
X99350276Y-104972668D01*
X99410586Y-105024178D01*
X99410589Y-105024179D01*
X99613037Y-105148240D01*
X99613040Y-105148242D01*
X99832403Y-105239104D01*
X99832404Y-105239104D01*
X99832406Y-105239105D01*
X100063289Y-105294535D01*
X100300000Y-105313165D01*
X100536711Y-105294535D01*
X100767594Y-105239105D01*
X100767596Y-105239104D01*
X100767597Y-105239104D01*
X100986959Y-105148242D01*
X100986960Y-105148241D01*
X100986963Y-105148240D01*
X101189416Y-105024176D01*
X101369969Y-104869969D01*
X101524176Y-104689416D01*
X101648240Y-104486963D01*
X101656816Y-104466260D01*
X101739104Y-104267597D01*
X101739104Y-104267596D01*
X101739105Y-104267594D01*
X101794535Y-104036711D01*
X101813165Y-103800000D01*
X101794535Y-103563289D01*
X101739105Y-103332406D01*
X101739104Y-103332403D01*
X101739104Y-103332402D01*
X101648242Y-103113040D01*
X101648240Y-103113037D01*
X101524179Y-102910589D01*
X101524178Y-102910586D01*
X101489340Y-102869797D01*
X101369969Y-102730031D01*
X101250596Y-102628076D01*
X101189413Y-102575821D01*
X101189410Y-102575820D01*
X100986962Y-102451759D01*
X100986959Y-102451757D01*
X100767596Y-102360895D01*
X100536714Y-102305465D01*
X100300000Y-102286835D01*
X100063285Y-102305465D01*
X99832404Y-102360895D01*
X99832402Y-102360895D01*
X99613040Y-102451757D01*
X99613037Y-102451759D01*
X99410589Y-102575820D01*
X99410586Y-102575821D01*
X99230031Y-102730031D01*
X99075821Y-102910586D01*
X99075820Y-102910589D01*
X98951759Y-103113037D01*
X98951757Y-103113040D01*
X98860895Y-103332402D01*
X98860895Y-103332404D01*
X98805465Y-103563285D01*
X98786835Y-103799999D01*
X95313165Y-103799999D01*
X95294535Y-103563289D01*
X95239105Y-103332406D01*
X95239104Y-103332403D01*
X95239104Y-103332402D01*
X95148242Y-103113040D01*
X95148240Y-103113037D01*
X95024179Y-102910589D01*
X95024178Y-102910586D01*
X94989340Y-102869797D01*
X94869969Y-102730031D01*
X94750596Y-102628076D01*
X94689413Y-102575821D01*
X94689410Y-102575820D01*
X94486962Y-102451759D01*
X94486959Y-102451757D01*
X94267596Y-102360895D01*
X94036714Y-102305465D01*
X93859177Y-102291492D01*
X93800000Y-102286835D01*
X93799999Y-102286835D01*
X93563285Y-102305465D01*
X93332404Y-102360895D01*
X93332402Y-102360895D01*
X93113040Y-102451757D01*
X93113037Y-102451759D01*
X92910589Y-102575820D01*
X92910586Y-102575821D01*
X92730031Y-102730031D01*
X92575821Y-102910586D01*
X92575820Y-102910589D01*
X92451759Y-103113037D01*
X92451757Y-103113040D01*
X92360895Y-103332402D01*
X92360895Y-103332404D01*
X92305465Y-103563285D01*
X92286835Y-103799999D01*
X84186369Y-103799999D01*
X84194521Y-99300000D01*
X92286835Y-99300000D01*
X92305465Y-99536714D01*
X92360895Y-99767595D01*
X92360895Y-99767597D01*
X92451757Y-99986959D01*
X92451759Y-99986962D01*
X92575820Y-100189410D01*
X92575821Y-100189413D01*
X92575824Y-100189416D01*
X92730031Y-100369969D01*
X92869797Y-100489340D01*
X92910586Y-100524178D01*
X92910589Y-100524179D01*
X93113037Y-100648240D01*
X93113040Y-100648242D01*
X93332403Y-100739104D01*
X93332404Y-100739104D01*
X93332406Y-100739105D01*
X93563289Y-100794535D01*
X93800000Y-100813165D01*
X94036711Y-100794535D01*
X94267594Y-100739105D01*
X94267596Y-100739104D01*
X94267597Y-100739104D01*
X94486959Y-100648242D01*
X94486960Y-100648241D01*
X94486963Y-100648240D01*
X94689416Y-100524176D01*
X94869969Y-100369969D01*
X95024176Y-100189416D01*
X95080013Y-100098297D01*
X95144719Y-99992710D01*
X95196531Y-99945835D01*
X95250446Y-99933500D01*
X98849554Y-99933500D01*
X98916593Y-99953185D01*
X98955281Y-99992710D01*
X99075820Y-100189410D01*
X99075821Y-100189413D01*
X99075824Y-100189416D01*
X99230031Y-100369969D01*
X99369797Y-100489340D01*
X99410586Y-100524178D01*
X99410589Y-100524179D01*
X99613037Y-100648240D01*
X99613040Y-100648242D01*
X99832403Y-100739104D01*
X99832404Y-100739104D01*
X99832406Y-100739105D01*
X100063289Y-100794535D01*
X100300000Y-100813165D01*
X100536711Y-100794535D01*
X100767594Y-100739105D01*
X100767596Y-100739104D01*
X100767597Y-100739104D01*
X100986959Y-100648242D01*
X100986960Y-100648241D01*
X100986963Y-100648240D01*
X101189416Y-100524176D01*
X101369969Y-100369969D01*
X101524176Y-100189416D01*
X101580013Y-100098297D01*
X101644719Y-99992710D01*
X101696531Y-99945835D01*
X101750446Y-99933500D01*
X111486234Y-99933500D01*
X111553273Y-99953185D01*
X111573915Y-99969819D01*
X122292910Y-110688814D01*
X122302816Y-110701178D01*
X122303026Y-110701005D01*
X122308001Y-110707019D01*
X122359094Y-110754999D01*
X122380225Y-110776129D01*
X122380230Y-110776134D01*
X122385802Y-110780456D01*
X122390242Y-110784249D01*
X122424678Y-110816586D01*
X122442567Y-110826420D01*
X122458833Y-110837104D01*
X122474959Y-110849613D01*
X122518298Y-110868367D01*
X122523545Y-110870937D01*
X122564940Y-110893695D01*
X122584718Y-110898773D01*
X122603119Y-110905073D01*
X122621855Y-110913181D01*
X122666362Y-110920229D01*
X122668503Y-110920569D01*
X122674212Y-110921751D01*
X122719970Y-110933500D01*
X122740384Y-110933500D01*
X122759783Y-110935027D01*
X122779943Y-110938220D01*
X122826965Y-110933775D01*
X122832804Y-110933500D01*
X143597500Y-110933500D01*
X143664539Y-110953185D01*
X143710294Y-111005989D01*
X143721500Y-111057500D01*
X143721500Y-112103654D01*
X143728011Y-112164202D01*
X143728011Y-112164204D01*
X143777575Y-112297086D01*
X143779111Y-112301204D01*
X143866739Y-112418261D01*
X143983796Y-112505889D01*
X144098297Y-112548596D01*
X144115463Y-112554999D01*
X144120799Y-112556989D01*
X144148050Y-112559918D01*
X144181345Y-112563499D01*
X144181362Y-112563500D01*
X146818638Y-112563500D01*
X146818654Y-112563499D01*
X146845692Y-112560591D01*
X146879201Y-112556989D01*
X146884537Y-112554999D01*
X146901703Y-112548596D01*
X147016204Y-112505889D01*
X147133261Y-112418261D01*
X147220889Y-112301204D01*
X147271989Y-112164201D01*
X147277084Y-112116808D01*
X147278499Y-112103654D01*
X147278500Y-112103637D01*
X147278500Y-108496362D01*
X147278499Y-108496345D01*
X147275157Y-108465270D01*
X147271989Y-108435799D01*
X147220889Y-108298796D01*
X147133261Y-108181739D01*
X147016204Y-108094111D01*
X147015220Y-108093744D01*
X146879203Y-108043011D01*
X146818654Y-108036500D01*
X146818638Y-108036500D01*
X145857500Y-108036500D01*
X145790461Y-108016815D01*
X145744706Y-107964011D01*
X145733500Y-107912500D01*
X145733500Y-107600005D01*
X158546673Y-107600005D01*
X158565948Y-107832622D01*
X158623251Y-108058907D01*
X158717015Y-108272668D01*
X158844686Y-108468084D01*
X158996354Y-108632838D01*
X159002780Y-108639818D01*
X159186983Y-108783190D01*
X159186985Y-108783191D01*
X159186988Y-108783193D01*
X159306331Y-108847777D01*
X159392273Y-108894287D01*
X159506914Y-108933643D01*
X159613045Y-108970079D01*
X159613047Y-108970079D01*
X159613049Y-108970080D01*
X159843288Y-109008500D01*
X159843289Y-109008500D01*
X160076711Y-109008500D01*
X160076712Y-109008500D01*
X160306951Y-108970080D01*
X160527727Y-108894287D01*
X160733017Y-108783190D01*
X160917220Y-108639818D01*
X160923646Y-108632837D01*
X160983531Y-108596845D01*
X161053369Y-108598944D01*
X161110986Y-108638466D01*
X161131059Y-108673485D01*
X161156645Y-108742086D01*
X161156649Y-108742093D01*
X161242809Y-108857187D01*
X161242812Y-108857190D01*
X161357906Y-108943350D01*
X161357913Y-108943354D01*
X161492620Y-108993596D01*
X161492627Y-108993598D01*
X161552155Y-108999999D01*
X161552172Y-109000000D01*
X162250000Y-109000000D01*
X162250000Y-108161821D01*
X162269685Y-108094782D01*
X162322489Y-108049027D01*
X162391647Y-108039083D01*
X162410547Y-108043329D01*
X162432173Y-108050000D01*
X162533723Y-108050000D01*
X162533724Y-108050000D01*
X162607519Y-108038877D01*
X162676742Y-108048350D01*
X162729857Y-108093744D01*
X162749997Y-108160648D01*
X162750000Y-108161492D01*
X162750000Y-109000000D01*
X163447828Y-109000000D01*
X163447844Y-108999999D01*
X163507372Y-108993598D01*
X163507379Y-108993596D01*
X163642086Y-108943354D01*
X163642093Y-108943350D01*
X163757187Y-108857190D01*
X163757190Y-108857187D01*
X163843350Y-108742093D01*
X163843354Y-108742086D01*
X163893596Y-108607379D01*
X163893598Y-108607372D01*
X163899999Y-108547844D01*
X163900000Y-108547827D01*
X163900000Y-107850000D01*
X163060003Y-107850000D01*
X162992964Y-107830315D01*
X162947209Y-107777511D01*
X162937265Y-107708353D01*
X162939112Y-107698408D01*
X162953810Y-107634007D01*
X162953810Y-107634006D01*
X162942979Y-107489468D01*
X162945079Y-107489310D01*
X162948595Y-107431861D01*
X162989890Y-107375501D01*
X163055101Y-107350413D01*
X163065216Y-107350000D01*
X163900000Y-107350000D01*
X163900000Y-106652172D01*
X163899999Y-106652155D01*
X163893598Y-106592627D01*
X163893596Y-106592620D01*
X163843354Y-106457913D01*
X163843350Y-106457906D01*
X163757190Y-106342812D01*
X163757187Y-106342809D01*
X163642093Y-106256649D01*
X163642086Y-106256645D01*
X163507379Y-106206403D01*
X163507372Y-106206401D01*
X163447844Y-106200000D01*
X162750000Y-106200000D01*
X162750000Y-107038178D01*
X162730315Y-107105217D01*
X162677511Y-107150972D01*
X162608353Y-107160916D01*
X162589454Y-107156670D01*
X162567829Y-107150000D01*
X162567827Y-107150000D01*
X162466276Y-107150000D01*
X162466268Y-107150000D01*
X162392481Y-107161122D01*
X162323256Y-107151649D01*
X162270143Y-107106254D01*
X162250003Y-107039350D01*
X162250000Y-107038507D01*
X162250000Y-106200000D01*
X161552155Y-106200000D01*
X161492627Y-106206401D01*
X161492620Y-106206403D01*
X161357913Y-106256645D01*
X161357906Y-106256649D01*
X161242812Y-106342809D01*
X161242809Y-106342812D01*
X161156649Y-106457906D01*
X161156645Y-106457913D01*
X161131059Y-106526514D01*
X161089188Y-106582448D01*
X161023723Y-106606865D01*
X160955450Y-106592013D01*
X160923649Y-106567165D01*
X160917224Y-106560186D01*
X160917222Y-106560184D01*
X160917220Y-106560182D01*
X160733017Y-106416810D01*
X160733015Y-106416809D01*
X160733014Y-106416808D01*
X160733011Y-106416806D01*
X160527733Y-106305716D01*
X160527730Y-106305715D01*
X160527727Y-106305713D01*
X160527721Y-106305711D01*
X160527719Y-106305710D01*
X160306954Y-106229920D01*
X160127650Y-106200000D01*
X160076712Y-106191500D01*
X159843288Y-106191500D01*
X159797240Y-106199183D01*
X159613045Y-106229920D01*
X159392280Y-106305710D01*
X159392266Y-106305716D01*
X159186988Y-106416806D01*
X159186985Y-106416808D01*
X159002781Y-106560181D01*
X159002776Y-106560185D01*
X158844686Y-106731915D01*
X158717015Y-106927331D01*
X158623251Y-107141092D01*
X158565948Y-107367377D01*
X158546673Y-107599994D01*
X158546673Y-107600005D01*
X145733500Y-107600005D01*
X145733500Y-105247844D01*
X164760000Y-105247844D01*
X164766401Y-105307372D01*
X164766403Y-105307379D01*
X164816645Y-105442086D01*
X164816649Y-105442093D01*
X164902809Y-105557187D01*
X164902812Y-105557190D01*
X165017906Y-105643350D01*
X165017913Y-105643354D01*
X165152620Y-105693596D01*
X165152627Y-105693598D01*
X165212155Y-105699999D01*
X165212172Y-105700000D01*
X165910000Y-105700000D01*
X165910000Y-104861821D01*
X165929685Y-104794782D01*
X165982489Y-104749027D01*
X166051647Y-104739083D01*
X166070547Y-104743329D01*
X166092173Y-104750000D01*
X166193723Y-104750000D01*
X166193724Y-104750000D01*
X166267519Y-104738877D01*
X166336742Y-104748350D01*
X166389857Y-104793744D01*
X166409997Y-104860648D01*
X166410000Y-104861492D01*
X166410000Y-105700000D01*
X167107828Y-105700000D01*
X167107844Y-105699999D01*
X167167372Y-105693598D01*
X167167379Y-105693596D01*
X167302086Y-105643354D01*
X167302093Y-105643350D01*
X167417187Y-105557190D01*
X167417190Y-105557187D01*
X167503350Y-105442093D01*
X167503355Y-105442084D01*
X167528940Y-105373486D01*
X167570810Y-105317552D01*
X167636274Y-105293134D01*
X167704547Y-105307985D01*
X167736349Y-105332832D01*
X167742780Y-105339818D01*
X167926983Y-105483190D01*
X167926985Y-105483191D01*
X167926988Y-105483193D01*
X168046331Y-105547777D01*
X168132273Y-105594287D01*
X168246914Y-105633643D01*
X168353045Y-105670079D01*
X168353047Y-105670079D01*
X168353049Y-105670080D01*
X168583288Y-105708500D01*
X168583289Y-105708500D01*
X168816711Y-105708500D01*
X168816712Y-105708500D01*
X169046951Y-105670080D01*
X169267727Y-105594287D01*
X169473017Y-105483190D01*
X169657220Y-105339818D01*
X169815314Y-105168083D01*
X169942984Y-104972669D01*
X170036749Y-104758907D01*
X170094051Y-104532626D01*
X170113327Y-104300000D01*
X170094051Y-104067374D01*
X170036749Y-103841093D01*
X169942984Y-103627331D01*
X169815314Y-103431917D01*
X169815313Y-103431915D01*
X169657223Y-103260185D01*
X169657222Y-103260184D01*
X169657220Y-103260182D01*
X169473017Y-103116810D01*
X169473015Y-103116809D01*
X169473014Y-103116808D01*
X169473011Y-103116806D01*
X169267733Y-103005716D01*
X169267730Y-103005715D01*
X169267727Y-103005713D01*
X169267721Y-103005711D01*
X169267719Y-103005710D01*
X169046954Y-102929920D01*
X168867650Y-102900000D01*
X168816712Y-102891500D01*
X168583288Y-102891500D01*
X168537240Y-102899184D01*
X168353045Y-102929920D01*
X168132280Y-103005710D01*
X168132266Y-103005716D01*
X167926988Y-103116806D01*
X167926985Y-103116808D01*
X167742781Y-103260181D01*
X167742776Y-103260185D01*
X167736346Y-103267170D01*
X167676457Y-103303157D01*
X167606619Y-103301052D01*
X167549005Y-103261524D01*
X167528940Y-103226513D01*
X167503355Y-103157915D01*
X167503350Y-103157906D01*
X167417190Y-103042812D01*
X167417187Y-103042809D01*
X167302093Y-102956649D01*
X167302086Y-102956645D01*
X167167379Y-102906403D01*
X167167372Y-102906401D01*
X167107844Y-102900000D01*
X166410000Y-102900000D01*
X166410000Y-103738178D01*
X166390315Y-103805217D01*
X166337511Y-103850972D01*
X166268353Y-103860916D01*
X166249454Y-103856670D01*
X166227829Y-103850000D01*
X166227827Y-103850000D01*
X166126276Y-103850000D01*
X166126268Y-103850000D01*
X166052481Y-103861122D01*
X165983256Y-103851649D01*
X165930143Y-103806254D01*
X165910003Y-103739350D01*
X165910000Y-103738507D01*
X165910000Y-102900000D01*
X165212155Y-102900000D01*
X165152627Y-102906401D01*
X165152620Y-102906403D01*
X165017913Y-102956645D01*
X165017906Y-102956649D01*
X164902812Y-103042809D01*
X164902809Y-103042812D01*
X164816649Y-103157906D01*
X164816645Y-103157913D01*
X164766403Y-103292620D01*
X164766401Y-103292627D01*
X164760000Y-103352155D01*
X164760000Y-104050000D01*
X165599997Y-104050000D01*
X165667036Y-104069685D01*
X165712791Y-104122489D01*
X165722735Y-104191647D01*
X165720888Y-104201592D01*
X165706189Y-104265992D01*
X165706189Y-104265993D01*
X165717021Y-104410532D01*
X165714920Y-104410689D01*
X165711405Y-104468139D01*
X165670110Y-104524499D01*
X165604899Y-104549587D01*
X165594784Y-104550000D01*
X164760000Y-104550000D01*
X164760000Y-105247844D01*
X145733500Y-105247844D01*
X145733500Y-95000001D01*
X165686502Y-95000001D01*
X165706456Y-95228081D01*
X165706457Y-95228089D01*
X165765714Y-95449238D01*
X165765718Y-95449249D01*
X165862475Y-95656745D01*
X165862477Y-95656749D01*
X165993802Y-95844300D01*
X166155700Y-96006198D01*
X166343251Y-96137523D01*
X166468091Y-96195736D01*
X166550750Y-96234281D01*
X166550752Y-96234281D01*
X166550757Y-96234284D01*
X166771913Y-96293543D01*
X166934832Y-96307796D01*
X166999998Y-96313498D01*
X167000000Y-96313498D01*
X167000002Y-96313498D01*
X167057021Y-96308509D01*
X167228087Y-96293543D01*
X167449243Y-96234284D01*
X167656749Y-96137523D01*
X167844300Y-96006198D01*
X168006198Y-95844300D01*
X168137523Y-95656749D01*
X168234284Y-95449243D01*
X168293543Y-95228087D01*
X168313498Y-95000000D01*
X168293543Y-94771913D01*
X168234284Y-94550757D01*
X168137523Y-94343251D01*
X168006198Y-94155700D01*
X167844300Y-93993802D01*
X167656749Y-93862477D01*
X167656745Y-93862475D01*
X167449249Y-93765718D01*
X167449238Y-93765714D01*
X167228089Y-93706457D01*
X167228081Y-93706456D01*
X167000002Y-93686502D01*
X166999998Y-93686502D01*
X166771918Y-93706456D01*
X166771910Y-93706457D01*
X166550761Y-93765714D01*
X166550750Y-93765718D01*
X166343254Y-93862475D01*
X166343252Y-93862476D01*
X166343249Y-93862477D01*
X166343251Y-93862477D01*
X166155700Y-93993802D01*
X166155698Y-93993803D01*
X166155695Y-93993806D01*
X165993806Y-94155695D01*
X165862476Y-94343252D01*
X165862475Y-94343254D01*
X165765718Y-94550750D01*
X165765714Y-94550761D01*
X165706457Y-94771910D01*
X165706456Y-94771918D01*
X165686502Y-94999998D01*
X165686502Y-95000001D01*
X145733500Y-95000001D01*
X145733500Y-88187500D01*
X145753185Y-88120461D01*
X145805989Y-88074706D01*
X145857500Y-88063500D01*
X146418638Y-88063500D01*
X146418654Y-88063499D01*
X146445692Y-88060591D01*
X146479201Y-88056989D01*
X146484537Y-88054999D01*
X146501703Y-88048596D01*
X146616204Y-88005889D01*
X146733261Y-87918261D01*
X146820889Y-87801204D01*
X146871989Y-87664201D01*
X146875591Y-87630692D01*
X146878499Y-87603654D01*
X146878500Y-87603637D01*
X146878500Y-83996362D01*
X146878499Y-83996345D01*
X146875157Y-83965270D01*
X146871989Y-83935799D01*
X146820889Y-83798796D01*
X146733261Y-83681739D01*
X146616204Y-83594111D01*
X146614678Y-83593542D01*
X146479203Y-83543011D01*
X146418654Y-83536500D01*
X146418638Y-83536500D01*
X143781362Y-83536500D01*
X143781345Y-83536500D01*
X143720797Y-83543011D01*
X143720795Y-83543011D01*
X143583795Y-83594111D01*
X143466739Y-83681739D01*
X143379111Y-83798795D01*
X143328011Y-83935795D01*
X143328011Y-83935797D01*
X143321500Y-83996345D01*
X143321500Y-87603654D01*
X143328011Y-87664202D01*
X143328011Y-87664204D01*
X143377575Y-87797086D01*
X143379111Y-87801204D01*
X143466739Y-87918261D01*
X143583796Y-88005889D01*
X143698297Y-88048596D01*
X143715463Y-88054999D01*
X143720799Y-88056989D01*
X143748050Y-88059918D01*
X143781345Y-88063499D01*
X143781362Y-88063500D01*
X144342500Y-88063500D01*
X144409539Y-88083185D01*
X144455294Y-88135989D01*
X144466500Y-88187500D01*
X144466500Y-107912500D01*
X144446815Y-107979539D01*
X144394011Y-108025294D01*
X144342500Y-108036500D01*
X144181345Y-108036500D01*
X144120797Y-108043011D01*
X144120795Y-108043011D01*
X143983795Y-108094111D01*
X143866739Y-108181739D01*
X143779111Y-108298795D01*
X143728011Y-108435795D01*
X143728011Y-108435797D01*
X143721500Y-108496345D01*
X143721500Y-109542500D01*
X143701815Y-109609539D01*
X143649011Y-109655294D01*
X143597500Y-109666500D01*
X123113767Y-109666500D01*
X123046728Y-109646815D01*
X123026086Y-109630181D01*
X112307088Y-98911183D01*
X112297187Y-98898823D01*
X112296977Y-98898998D01*
X112292002Y-98892986D01*
X112292000Y-98892982D01*
X112265658Y-98868245D01*
X112240922Y-98845016D01*
X112219768Y-98823863D01*
X112217792Y-98822331D01*
X112214183Y-98819531D01*
X112209750Y-98815744D01*
X112175321Y-98783414D01*
X112175319Y-98783412D01*
X112157431Y-98773578D01*
X112141170Y-98762897D01*
X112125039Y-98750384D01*
X112081693Y-98731627D01*
X112076445Y-98729056D01*
X112049251Y-98714106D01*
X112035060Y-98706305D01*
X112031660Y-98705432D01*
X112015287Y-98701228D01*
X111996881Y-98694926D01*
X111978144Y-98686818D01*
X111978146Y-98686818D01*
X111931496Y-98679430D01*
X111925781Y-98678246D01*
X111905612Y-98673068D01*
X111880032Y-98666500D01*
X111880030Y-98666500D01*
X111859616Y-98666500D01*
X111840217Y-98664973D01*
X111820058Y-98661780D01*
X111820057Y-98661780D01*
X111773034Y-98666225D01*
X111767196Y-98666500D01*
X101750446Y-98666500D01*
X101683407Y-98646815D01*
X101644719Y-98607290D01*
X101524179Y-98410589D01*
X101524178Y-98410586D01*
X101489340Y-98369797D01*
X101369969Y-98230031D01*
X101250596Y-98128076D01*
X101189413Y-98075821D01*
X101189410Y-98075820D01*
X100986962Y-97951759D01*
X100986959Y-97951757D01*
X100767596Y-97860895D01*
X100536714Y-97805465D01*
X100300000Y-97786835D01*
X100063285Y-97805465D01*
X99832404Y-97860895D01*
X99832402Y-97860895D01*
X99613040Y-97951757D01*
X99613037Y-97951759D01*
X99410589Y-98075820D01*
X99410586Y-98075821D01*
X99230031Y-98230031D01*
X99075821Y-98410586D01*
X99075820Y-98410589D01*
X98955281Y-98607290D01*
X98903469Y-98654165D01*
X98849554Y-98666500D01*
X95250446Y-98666500D01*
X95183407Y-98646815D01*
X95144719Y-98607290D01*
X95024179Y-98410589D01*
X95024178Y-98410586D01*
X94989340Y-98369797D01*
X94869969Y-98230031D01*
X94750596Y-98128076D01*
X94689413Y-98075821D01*
X94689410Y-98075820D01*
X94486962Y-97951759D01*
X94486959Y-97951757D01*
X94267596Y-97860895D01*
X94036714Y-97805465D01*
X93859177Y-97791492D01*
X93800000Y-97786835D01*
X93799999Y-97786835D01*
X93563285Y-97805465D01*
X93332404Y-97860895D01*
X93332402Y-97860895D01*
X93113040Y-97951757D01*
X93113037Y-97951759D01*
X92910589Y-98075820D01*
X92910586Y-98075821D01*
X92730031Y-98230031D01*
X92575821Y-98410586D01*
X92575820Y-98410589D01*
X92451759Y-98613037D01*
X92451757Y-98613040D01*
X92360895Y-98832402D01*
X92360895Y-98832404D01*
X92305465Y-99063285D01*
X92286835Y-99300000D01*
X84194521Y-99300000D01*
X84211731Y-89800001D01*
X94286502Y-89800001D01*
X94306456Y-90028081D01*
X94306457Y-90028089D01*
X94365714Y-90249238D01*
X94365718Y-90249249D01*
X94462475Y-90456745D01*
X94462477Y-90456749D01*
X94593802Y-90644300D01*
X94755700Y-90806198D01*
X94943251Y-90937523D01*
X95068091Y-90995736D01*
X95150750Y-91034281D01*
X95150752Y-91034281D01*
X95150757Y-91034284D01*
X95371913Y-91093543D01*
X95534832Y-91107796D01*
X95599998Y-91113498D01*
X95600000Y-91113498D01*
X95600002Y-91113498D01*
X95657021Y-91108509D01*
X95828087Y-91093543D01*
X96049243Y-91034284D01*
X96256749Y-90937523D01*
X96444300Y-90806198D01*
X96606198Y-90644300D01*
X96737523Y-90456749D01*
X96834284Y-90249243D01*
X96893543Y-90028087D01*
X96913498Y-89800000D01*
X96893543Y-89571913D01*
X96834284Y-89350757D01*
X96737523Y-89143251D01*
X96606198Y-88955700D01*
X96444300Y-88793802D01*
X96256749Y-88662477D01*
X96256745Y-88662475D01*
X96049249Y-88565718D01*
X96049238Y-88565714D01*
X95828089Y-88506457D01*
X95828081Y-88506456D01*
X95600002Y-88486502D01*
X95599998Y-88486502D01*
X95371918Y-88506456D01*
X95371910Y-88506457D01*
X95150761Y-88565714D01*
X95150750Y-88565718D01*
X94943254Y-88662475D01*
X94943252Y-88662476D01*
X94943249Y-88662477D01*
X94943251Y-88662477D01*
X94755700Y-88793802D01*
X94755698Y-88793803D01*
X94755695Y-88793806D01*
X94593806Y-88955695D01*
X94462476Y-89143252D01*
X94462475Y-89143254D01*
X94365718Y-89350750D01*
X94365714Y-89350761D01*
X94306457Y-89571910D01*
X94306456Y-89571918D01*
X94286502Y-89799998D01*
X94286502Y-89800001D01*
X84211731Y-89800001D01*
X84218524Y-86050000D01*
X113970000Y-86050000D01*
X113970000Y-87602844D01*
X113976401Y-87662372D01*
X113976403Y-87662379D01*
X114026645Y-87797086D01*
X114026649Y-87797093D01*
X114112809Y-87912187D01*
X114112812Y-87912190D01*
X114227906Y-87998350D01*
X114227913Y-87998354D01*
X114362620Y-88048596D01*
X114362627Y-88048598D01*
X114422155Y-88054999D01*
X114422172Y-88055000D01*
X115490000Y-88055000D01*
X115490000Y-86050000D01*
X115990000Y-86050000D01*
X115990000Y-88055000D01*
X117057828Y-88055000D01*
X117057844Y-88054999D01*
X117117372Y-88048598D01*
X117117379Y-88048596D01*
X117252086Y-87998354D01*
X117252093Y-87998350D01*
X117367187Y-87912190D01*
X117367190Y-87912187D01*
X117453350Y-87797093D01*
X117453354Y-87797086D01*
X117503596Y-87662379D01*
X117503598Y-87662372D01*
X117509999Y-87602844D01*
X117510000Y-87602827D01*
X117510000Y-86050000D01*
X115990000Y-86050000D01*
X115490000Y-86050000D01*
X113970000Y-86050000D01*
X84218524Y-86050000D01*
X84219430Y-85550000D01*
X113969999Y-85550000D01*
X115490000Y-85550000D01*
X115490000Y-83545000D01*
X115990000Y-83545000D01*
X115990000Y-85550000D01*
X117510000Y-85550000D01*
X117510000Y-83997172D01*
X117509999Y-83997155D01*
X117503598Y-83937627D01*
X117503596Y-83937620D01*
X117453354Y-83802913D01*
X117453350Y-83802906D01*
X117367190Y-83687812D01*
X117367187Y-83687809D01*
X117252093Y-83601649D01*
X117252086Y-83601645D01*
X117117379Y-83551403D01*
X117117372Y-83551401D01*
X117057844Y-83545000D01*
X115990000Y-83545000D01*
X115490000Y-83545000D01*
X114422155Y-83545000D01*
X114362627Y-83551401D01*
X114362620Y-83551403D01*
X114227913Y-83601645D01*
X114227906Y-83601649D01*
X114112812Y-83687809D01*
X114112809Y-83687812D01*
X114026649Y-83802906D01*
X114026645Y-83802913D01*
X113976403Y-83937620D01*
X113976401Y-83937627D01*
X113970000Y-83997155D01*
X113970000Y-83997172D01*
X113969999Y-85550000D01*
X84219430Y-85550000D01*
X84223998Y-83028654D01*
X94291500Y-83028654D01*
X94298011Y-83089202D01*
X94298011Y-83089204D01*
X94349110Y-83226203D01*
X94349111Y-83226204D01*
X94436739Y-83343261D01*
X94553796Y-83430889D01*
X94690799Y-83481989D01*
X94718050Y-83484918D01*
X94751345Y-83488499D01*
X94751362Y-83488500D01*
X96448638Y-83488500D01*
X96448654Y-83488499D01*
X96475692Y-83485591D01*
X96509201Y-83481989D01*
X96646204Y-83430889D01*
X96763261Y-83343261D01*
X96850889Y-83226204D01*
X96901989Y-83089201D01*
X96905591Y-83055692D01*
X96908499Y-83028654D01*
X96908500Y-83028637D01*
X96908500Y-82300001D01*
X165686502Y-82300001D01*
X165706456Y-82528081D01*
X165706457Y-82528089D01*
X165765714Y-82749238D01*
X165765718Y-82749249D01*
X165862475Y-82956745D01*
X165862477Y-82956749D01*
X165993802Y-83144300D01*
X166155700Y-83306198D01*
X166343251Y-83437523D01*
X166438607Y-83481988D01*
X166550750Y-83534281D01*
X166550752Y-83534281D01*
X166550757Y-83534284D01*
X166771913Y-83593543D01*
X166934832Y-83607796D01*
X166999998Y-83613498D01*
X167000000Y-83613498D01*
X167000002Y-83613498D01*
X167057021Y-83608509D01*
X167228087Y-83593543D01*
X167449243Y-83534284D01*
X167656749Y-83437523D01*
X167844300Y-83306198D01*
X168006198Y-83144300D01*
X168137523Y-82956749D01*
X168234284Y-82749243D01*
X168293543Y-82528087D01*
X168313498Y-82300000D01*
X168293543Y-82071913D01*
X168234284Y-81850757D01*
X168137523Y-81643251D01*
X168006198Y-81455700D01*
X167844300Y-81293802D01*
X167656749Y-81162477D01*
X167656745Y-81162475D01*
X167449249Y-81065718D01*
X167449238Y-81065714D01*
X167228089Y-81006457D01*
X167228081Y-81006456D01*
X167000002Y-80986502D01*
X166999998Y-80986502D01*
X166771918Y-81006456D01*
X166771910Y-81006457D01*
X166550761Y-81065714D01*
X166550750Y-81065718D01*
X166343254Y-81162475D01*
X166343252Y-81162476D01*
X166343249Y-81162477D01*
X166343251Y-81162477D01*
X166155700Y-81293802D01*
X166155698Y-81293803D01*
X166155695Y-81293806D01*
X165993806Y-81455695D01*
X165862476Y-81643252D01*
X165862475Y-81643254D01*
X165765718Y-81850750D01*
X165765714Y-81850761D01*
X165706457Y-82071910D01*
X165706456Y-82071918D01*
X165686502Y-82299998D01*
X165686502Y-82300001D01*
X96908500Y-82300001D01*
X96908500Y-81331362D01*
X96908499Y-81331345D01*
X96904462Y-81293802D01*
X96901989Y-81270799D01*
X96850889Y-81133796D01*
X96763261Y-81016739D01*
X96646204Y-80929111D01*
X96646203Y-80929110D01*
X96509203Y-80878011D01*
X96448654Y-80871500D01*
X96448638Y-80871500D01*
X94751362Y-80871500D01*
X94751345Y-80871500D01*
X94690797Y-80878011D01*
X94690795Y-80878011D01*
X94553795Y-80929111D01*
X94436739Y-81016739D01*
X94349111Y-81133795D01*
X94298011Y-81270795D01*
X94298011Y-81270797D01*
X94291500Y-81331345D01*
X94291500Y-83028654D01*
X84223998Y-83028654D01*
X84232746Y-78200005D01*
X111246673Y-78200005D01*
X111265948Y-78432622D01*
X111323251Y-78658907D01*
X111417015Y-78872668D01*
X111544686Y-79068084D01*
X111696354Y-79232838D01*
X111702780Y-79239818D01*
X111886983Y-79383190D01*
X111886985Y-79383191D01*
X111886988Y-79383193D01*
X112006331Y-79447777D01*
X112092273Y-79494287D01*
X112206914Y-79533643D01*
X112313045Y-79570079D01*
X112313047Y-79570079D01*
X112313049Y-79570080D01*
X112543288Y-79608500D01*
X112543289Y-79608500D01*
X112776711Y-79608500D01*
X112776712Y-79608500D01*
X113006951Y-79570080D01*
X113227727Y-79494287D01*
X113433017Y-79383190D01*
X113617220Y-79239818D01*
X113623646Y-79232837D01*
X113683531Y-79196845D01*
X113753369Y-79198944D01*
X113810986Y-79238466D01*
X113831059Y-79273485D01*
X113856645Y-79342086D01*
X113856649Y-79342093D01*
X113942809Y-79457187D01*
X113942812Y-79457190D01*
X114057906Y-79543350D01*
X114057913Y-79543354D01*
X114192620Y-79593596D01*
X114192627Y-79593598D01*
X114252155Y-79599999D01*
X114252172Y-79600000D01*
X114950000Y-79600000D01*
X114950000Y-78761821D01*
X114969685Y-78694782D01*
X115022489Y-78649027D01*
X115091647Y-78639083D01*
X115110547Y-78643329D01*
X115132173Y-78650000D01*
X115233723Y-78650000D01*
X115233724Y-78650000D01*
X115307519Y-78638877D01*
X115376742Y-78648350D01*
X115429857Y-78693744D01*
X115449997Y-78760648D01*
X115450000Y-78761492D01*
X115450000Y-79600000D01*
X116147828Y-79600000D01*
X116147844Y-79599999D01*
X116207372Y-79593598D01*
X116207379Y-79593596D01*
X116342086Y-79543354D01*
X116342093Y-79543350D01*
X116457187Y-79457190D01*
X116457190Y-79457187D01*
X116543350Y-79342093D01*
X116543354Y-79342086D01*
X116593596Y-79207379D01*
X116593598Y-79207372D01*
X116599999Y-79147844D01*
X116600000Y-79147827D01*
X116600000Y-78450000D01*
X115760003Y-78450000D01*
X115692964Y-78430315D01*
X115647209Y-78377511D01*
X115637265Y-78308353D01*
X115639112Y-78298408D01*
X115653810Y-78234007D01*
X115653810Y-78234006D01*
X115642979Y-78089468D01*
X115645079Y-78089310D01*
X115648595Y-78031861D01*
X115689890Y-77975501D01*
X115755101Y-77950413D01*
X115765216Y-77950000D01*
X116600000Y-77950000D01*
X116600000Y-77252172D01*
X116599999Y-77252155D01*
X116593598Y-77192627D01*
X116593596Y-77192620D01*
X116543354Y-77057913D01*
X116543350Y-77057906D01*
X116457190Y-76942812D01*
X116457187Y-76942809D01*
X116342093Y-76856649D01*
X116342086Y-76856645D01*
X116207379Y-76806403D01*
X116207372Y-76806401D01*
X116147844Y-76800000D01*
X115450000Y-76800000D01*
X115450000Y-77638178D01*
X115430315Y-77705217D01*
X115377511Y-77750972D01*
X115308353Y-77760916D01*
X115289454Y-77756670D01*
X115267829Y-77750000D01*
X115267827Y-77750000D01*
X115166276Y-77750000D01*
X115166266Y-77750000D01*
X115092479Y-77761122D01*
X115023255Y-77751649D01*
X114970141Y-77706254D01*
X114950002Y-77639349D01*
X114949999Y-77638507D01*
X114950000Y-76800000D01*
X114252155Y-76800000D01*
X114192627Y-76806401D01*
X114192620Y-76806403D01*
X114057913Y-76856645D01*
X114057906Y-76856649D01*
X113942812Y-76942809D01*
X113942809Y-76942812D01*
X113856649Y-77057906D01*
X113856645Y-77057913D01*
X113831059Y-77126514D01*
X113789188Y-77182448D01*
X113723723Y-77206865D01*
X113655450Y-77192013D01*
X113623649Y-77167165D01*
X113617224Y-77160186D01*
X113617222Y-77160184D01*
X113617220Y-77160182D01*
X113433017Y-77016810D01*
X113433015Y-77016809D01*
X113433014Y-77016808D01*
X113433011Y-77016806D01*
X113227733Y-76905716D01*
X113227730Y-76905715D01*
X113227727Y-76905713D01*
X113227721Y-76905711D01*
X113227719Y-76905710D01*
X113006954Y-76829920D01*
X112827650Y-76800000D01*
X112776712Y-76791500D01*
X112543288Y-76791500D01*
X112497240Y-76799184D01*
X112313045Y-76829920D01*
X112092280Y-76905710D01*
X112092266Y-76905716D01*
X111886988Y-77016806D01*
X111886985Y-77016808D01*
X111702781Y-77160181D01*
X111702776Y-77160185D01*
X111544686Y-77331915D01*
X111417015Y-77527331D01*
X111323251Y-77741092D01*
X111265948Y-77967377D01*
X111246673Y-78199994D01*
X111246673Y-78200005D01*
X84232746Y-78200005D01*
X84236550Y-76100005D01*
X101846673Y-76100005D01*
X101865948Y-76332622D01*
X101923251Y-76558907D01*
X102017015Y-76772668D01*
X102144686Y-76968084D01*
X102296354Y-77132838D01*
X102302780Y-77139818D01*
X102486983Y-77283190D01*
X102486985Y-77283191D01*
X102486988Y-77283193D01*
X102577019Y-77331915D01*
X102692273Y-77394287D01*
X102806914Y-77433643D01*
X102913045Y-77470079D01*
X102913047Y-77470079D01*
X102913049Y-77470080D01*
X103143288Y-77508500D01*
X103143289Y-77508500D01*
X103376711Y-77508500D01*
X103376712Y-77508500D01*
X103606951Y-77470080D01*
X103827727Y-77394287D01*
X104033017Y-77283190D01*
X104217220Y-77139818D01*
X104223646Y-77132837D01*
X104283531Y-77096845D01*
X104353369Y-77098944D01*
X104410986Y-77138466D01*
X104431059Y-77173485D01*
X104456645Y-77242086D01*
X104456649Y-77242093D01*
X104542809Y-77357187D01*
X104542812Y-77357190D01*
X104657906Y-77443350D01*
X104657913Y-77443354D01*
X104792620Y-77493596D01*
X104792627Y-77493598D01*
X104852155Y-77499999D01*
X104852172Y-77500000D01*
X105549999Y-77500000D01*
X105549999Y-76661820D01*
X105569683Y-76594781D01*
X105622487Y-76549026D01*
X105691646Y-76539082D01*
X105710544Y-76543328D01*
X105732173Y-76550000D01*
X105833723Y-76550000D01*
X105833724Y-76550000D01*
X105907518Y-76538877D01*
X105976741Y-76548349D01*
X106029855Y-76593744D01*
X106049996Y-76660648D01*
X106049999Y-76661492D01*
X106049999Y-77499999D01*
X106050001Y-77500000D01*
X106747828Y-77500000D01*
X106747844Y-77499999D01*
X106807372Y-77493598D01*
X106807379Y-77493596D01*
X106942086Y-77443354D01*
X106942093Y-77443350D01*
X107057187Y-77357190D01*
X107057190Y-77357187D01*
X107143350Y-77242093D01*
X107143354Y-77242086D01*
X107193596Y-77107379D01*
X107193598Y-77107372D01*
X107199999Y-77047844D01*
X107200000Y-77047827D01*
X107200000Y-76350000D01*
X106360003Y-76350000D01*
X106292964Y-76330315D01*
X106247209Y-76277511D01*
X106237265Y-76208353D01*
X106239112Y-76198408D01*
X106253810Y-76134007D01*
X106253810Y-76134006D01*
X106242979Y-75989468D01*
X106245079Y-75989310D01*
X106248595Y-75931861D01*
X106289890Y-75875501D01*
X106355101Y-75850413D01*
X106365216Y-75850000D01*
X107200000Y-75850000D01*
X107200000Y-75152172D01*
X107199999Y-75152155D01*
X107193598Y-75092627D01*
X107193596Y-75092620D01*
X107177198Y-75048654D01*
X139271500Y-75048654D01*
X139278011Y-75109202D01*
X139278011Y-75109204D01*
X139314189Y-75206198D01*
X139329111Y-75246204D01*
X139416739Y-75363261D01*
X139533796Y-75450889D01*
X139670799Y-75501989D01*
X139698050Y-75504918D01*
X139731345Y-75508499D01*
X139731362Y-75508500D01*
X141428638Y-75508500D01*
X141428654Y-75508499D01*
X141455692Y-75505591D01*
X141489201Y-75501989D01*
X141626204Y-75450889D01*
X141743261Y-75363261D01*
X141830889Y-75246204D01*
X141881989Y-75109201D01*
X141883569Y-75094500D01*
X141910304Y-75029952D01*
X141967695Y-74990102D01*
X142037521Y-74987606D01*
X142097611Y-75023257D01*
X142108428Y-75036626D01*
X142113802Y-75044300D01*
X142275700Y-75206198D01*
X142463251Y-75337523D01*
X142518445Y-75363260D01*
X142670750Y-75434281D01*
X142670752Y-75434281D01*
X142670757Y-75434284D01*
X142891913Y-75493543D01*
X143054832Y-75507796D01*
X143119998Y-75513498D01*
X143120000Y-75513498D01*
X143120002Y-75513498D01*
X143177139Y-75508499D01*
X143348087Y-75493543D01*
X143569243Y-75434284D01*
X143776749Y-75337523D01*
X143964300Y-75206198D01*
X144126198Y-75044300D01*
X144257523Y-74856749D01*
X144277617Y-74813655D01*
X144323790Y-74761215D01*
X144390983Y-74742063D01*
X144457864Y-74762278D01*
X144502382Y-74813655D01*
X144522477Y-74856749D01*
X144653802Y-75044300D01*
X144815700Y-75206198D01*
X145003251Y-75337523D01*
X145058445Y-75363260D01*
X145210750Y-75434281D01*
X145210752Y-75434281D01*
X145210757Y-75434284D01*
X145431913Y-75493543D01*
X145594832Y-75507796D01*
X145659998Y-75513498D01*
X145660000Y-75513498D01*
X145660002Y-75513498D01*
X145717139Y-75508499D01*
X145888087Y-75493543D01*
X146109243Y-75434284D01*
X146316749Y-75337523D01*
X146504300Y-75206198D01*
X146666198Y-75044300D01*
X146797523Y-74856749D01*
X146822307Y-74803598D01*
X146868479Y-74751159D01*
X146935672Y-74732007D01*
X147002553Y-74752222D01*
X147047071Y-74803599D01*
X147069864Y-74852479D01*
X147069865Y-74852481D01*
X147200342Y-75038820D01*
X147361179Y-75199657D01*
X147547517Y-75330134D01*
X147753673Y-75426265D01*
X147753682Y-75426269D01*
X147949999Y-75478872D01*
X147950000Y-75478871D01*
X147950000Y-74710575D01*
X147969685Y-74643536D01*
X148022489Y-74597781D01*
X148091647Y-74587837D01*
X148093331Y-74588091D01*
X148125699Y-74593218D01*
X148168515Y-74600000D01*
X148168519Y-74600000D01*
X148231485Y-74600000D01*
X148274300Y-74593218D01*
X148306602Y-74588102D01*
X148375894Y-74597056D01*
X148429347Y-74642052D01*
X148449987Y-74708803D01*
X148450000Y-74710575D01*
X148450000Y-75478872D01*
X148646317Y-75426269D01*
X148646326Y-75426265D01*
X148852482Y-75330134D01*
X149038820Y-75199657D01*
X149199657Y-75038820D01*
X149330134Y-74852482D01*
X149426265Y-74646326D01*
X149426269Y-74646317D01*
X149478872Y-74450000D01*
X148710576Y-74450000D01*
X148643537Y-74430315D01*
X148597782Y-74377511D01*
X148587838Y-74308353D01*
X148588103Y-74306603D01*
X148604986Y-74200003D01*
X148604986Y-74199996D01*
X148588103Y-74093397D01*
X148597058Y-74024104D01*
X148642054Y-73970652D01*
X148708806Y-73950013D01*
X148710576Y-73950000D01*
X149478872Y-73950000D01*
X149478872Y-73949999D01*
X149426269Y-73753682D01*
X149426265Y-73753673D01*
X149330134Y-73547517D01*
X149199657Y-73361179D01*
X149138479Y-73300001D01*
X165086502Y-73300001D01*
X165106456Y-73528081D01*
X165106457Y-73528089D01*
X165165714Y-73749238D01*
X165165718Y-73749249D01*
X165230651Y-73888498D01*
X165262477Y-73956749D01*
X165393802Y-74144300D01*
X165555700Y-74306198D01*
X165743251Y-74437523D01*
X165868091Y-74495736D01*
X165950750Y-74534281D01*
X165950752Y-74534281D01*
X165950757Y-74534284D01*
X166171913Y-74593543D01*
X166334832Y-74607796D01*
X166399998Y-74613498D01*
X166400000Y-74613498D01*
X166400002Y-74613498D01*
X166457021Y-74608509D01*
X166628087Y-74593543D01*
X166849243Y-74534284D01*
X167056749Y-74437523D01*
X167244300Y-74306198D01*
X167406198Y-74144300D01*
X167537523Y-73956749D01*
X167634284Y-73749243D01*
X167693543Y-73528087D01*
X167713498Y-73300000D01*
X167712692Y-73290793D01*
X167700186Y-73147844D01*
X167693543Y-73071913D01*
X167634284Y-72850757D01*
X167612052Y-72803081D01*
X167540670Y-72650000D01*
X167537523Y-72643251D01*
X167406198Y-72455700D01*
X167244300Y-72293802D01*
X167056749Y-72162477D01*
X167056745Y-72162475D01*
X166849249Y-72065718D01*
X166849238Y-72065714D01*
X166628089Y-72006457D01*
X166628081Y-72006456D01*
X166400002Y-71986502D01*
X166399998Y-71986502D01*
X166171918Y-72006456D01*
X166171910Y-72006457D01*
X165950761Y-72065714D01*
X165950750Y-72065718D01*
X165743254Y-72162475D01*
X165743252Y-72162476D01*
X165743249Y-72162477D01*
X165743251Y-72162477D01*
X165555700Y-72293802D01*
X165555698Y-72293803D01*
X165555695Y-72293806D01*
X165393806Y-72455695D01*
X165393803Y-72455698D01*
X165393802Y-72455700D01*
X165311767Y-72572856D01*
X165262476Y-72643252D01*
X165262475Y-72643254D01*
X165165718Y-72850750D01*
X165165714Y-72850761D01*
X165106457Y-73071910D01*
X165106456Y-73071918D01*
X165086502Y-73299998D01*
X165086502Y-73300001D01*
X149138479Y-73300001D01*
X149038820Y-73200342D01*
X148852482Y-73069865D01*
X148646328Y-72973734D01*
X148450000Y-72921127D01*
X148450000Y-73689424D01*
X148430315Y-73756463D01*
X148377511Y-73802218D01*
X148308353Y-73812162D01*
X148306602Y-73811897D01*
X148231486Y-73800000D01*
X148231481Y-73800000D01*
X148168519Y-73800000D01*
X148168514Y-73800000D01*
X148093398Y-73811897D01*
X148024104Y-73802942D01*
X147970652Y-73757946D01*
X147950013Y-73691194D01*
X147950000Y-73689424D01*
X147950000Y-72921127D01*
X147753671Y-72973734D01*
X147547517Y-73069865D01*
X147361179Y-73200342D01*
X147200342Y-73361179D01*
X147069865Y-73547517D01*
X147047071Y-73596401D01*
X147000898Y-73648840D01*
X146933705Y-73667992D01*
X146866824Y-73647776D01*
X146822307Y-73596401D01*
X146815215Y-73581193D01*
X146797523Y-73543251D01*
X146666198Y-73355700D01*
X146504300Y-73193802D01*
X146316749Y-73062477D01*
X146316745Y-73062475D01*
X146109249Y-72965718D01*
X146109238Y-72965714D01*
X145888089Y-72906457D01*
X145888081Y-72906456D01*
X145660002Y-72886502D01*
X145659998Y-72886502D01*
X145431918Y-72906456D01*
X145431910Y-72906457D01*
X145210761Y-72965714D01*
X145210750Y-72965718D01*
X145003254Y-73062475D01*
X145003252Y-73062476D01*
X144995243Y-73068084D01*
X144815700Y-73193802D01*
X144815698Y-73193803D01*
X144815695Y-73193806D01*
X144653806Y-73355695D01*
X144653803Y-73355698D01*
X144653802Y-73355700D01*
X144634553Y-73383191D01*
X144522476Y-73543251D01*
X144502382Y-73586345D01*
X144456209Y-73638784D01*
X144389016Y-73657936D01*
X144322135Y-73637720D01*
X144277618Y-73586345D01*
X144257523Y-73543251D01*
X144197262Y-73457190D01*
X144126198Y-73355700D01*
X143964300Y-73193802D01*
X143776749Y-73062477D01*
X143776745Y-73062475D01*
X143569249Y-72965718D01*
X143569238Y-72965714D01*
X143348089Y-72906457D01*
X143348081Y-72906456D01*
X143120002Y-72886502D01*
X143119998Y-72886502D01*
X142891918Y-72906456D01*
X142891910Y-72906457D01*
X142670761Y-72965714D01*
X142670750Y-72965718D01*
X142463254Y-73062475D01*
X142463252Y-73062476D01*
X142455243Y-73068084D01*
X142275700Y-73193802D01*
X142275698Y-73193803D01*
X142275695Y-73193806D01*
X142113805Y-73355696D01*
X142108429Y-73363374D01*
X142053849Y-73406995D01*
X141984350Y-73414184D01*
X141921997Y-73382658D01*
X141886587Y-73322426D01*
X141883570Y-73305510D01*
X141881989Y-73290799D01*
X141830889Y-73153796D01*
X141743261Y-73036739D01*
X141626204Y-72949111D01*
X141489203Y-72898011D01*
X141428654Y-72891500D01*
X141428638Y-72891500D01*
X139731362Y-72891500D01*
X139731345Y-72891500D01*
X139670797Y-72898011D01*
X139670795Y-72898011D01*
X139533795Y-72949111D01*
X139416739Y-73036739D01*
X139329111Y-73153795D01*
X139278011Y-73290795D01*
X139278011Y-73290797D01*
X139271500Y-73351345D01*
X139271500Y-75048654D01*
X107177198Y-75048654D01*
X107143354Y-74957913D01*
X107143350Y-74957906D01*
X107057190Y-74842812D01*
X107057187Y-74842809D01*
X106942093Y-74756649D01*
X106942086Y-74756645D01*
X106807379Y-74706403D01*
X106807372Y-74706401D01*
X106747844Y-74700000D01*
X106050000Y-74700000D01*
X106050000Y-75538178D01*
X106030315Y-75605217D01*
X105977511Y-75650972D01*
X105908353Y-75660916D01*
X105889454Y-75656670D01*
X105867829Y-75650000D01*
X105867827Y-75650000D01*
X105766276Y-75650000D01*
X105766268Y-75650000D01*
X105692481Y-75661122D01*
X105623256Y-75651649D01*
X105570143Y-75606254D01*
X105550003Y-75539350D01*
X105550000Y-75538507D01*
X105550000Y-74700000D01*
X104852155Y-74700000D01*
X104792627Y-74706401D01*
X104792620Y-74706403D01*
X104657913Y-74756645D01*
X104657906Y-74756649D01*
X104542812Y-74842809D01*
X104542809Y-74842812D01*
X104456649Y-74957906D01*
X104456645Y-74957913D01*
X104431059Y-75026514D01*
X104389188Y-75082448D01*
X104323723Y-75106865D01*
X104255450Y-75092013D01*
X104223649Y-75067165D01*
X104217224Y-75060186D01*
X104217222Y-75060184D01*
X104217220Y-75060182D01*
X104033017Y-74916810D01*
X104033015Y-74916809D01*
X104033014Y-74916808D01*
X104033011Y-74916806D01*
X103827733Y-74805716D01*
X103827730Y-74805715D01*
X103827727Y-74805713D01*
X103827721Y-74805711D01*
X103827719Y-74805710D01*
X103606954Y-74729920D01*
X103427650Y-74700000D01*
X103376712Y-74691500D01*
X103143288Y-74691500D01*
X103097240Y-74699184D01*
X102913045Y-74729920D01*
X102692280Y-74805710D01*
X102692266Y-74805716D01*
X102486988Y-74916806D01*
X102486985Y-74916808D01*
X102302781Y-75060181D01*
X102302776Y-75060185D01*
X102144686Y-75231915D01*
X102017015Y-75427331D01*
X101923251Y-75641092D01*
X101865948Y-75867377D01*
X101846673Y-76099994D01*
X101846673Y-76100005D01*
X84236550Y-76100005D01*
X84242936Y-72575001D01*
X95987240Y-72575001D01*
X96007194Y-72803081D01*
X96007195Y-72803089D01*
X96066452Y-73024238D01*
X96066456Y-73024249D01*
X96126865Y-73153796D01*
X96163215Y-73231749D01*
X96294540Y-73419300D01*
X96456438Y-73581198D01*
X96643989Y-73712523D01*
X96738219Y-73756463D01*
X96851488Y-73809281D01*
X96851490Y-73809281D01*
X96851495Y-73809284D01*
X97072651Y-73868543D01*
X97235570Y-73882796D01*
X97300736Y-73888498D01*
X97300738Y-73888498D01*
X97300740Y-73888498D01*
X97357759Y-73883509D01*
X97528825Y-73868543D01*
X97749981Y-73809284D01*
X97957487Y-73712523D01*
X98145038Y-73581198D01*
X98306936Y-73419300D01*
X98438261Y-73231749D01*
X98535022Y-73024243D01*
X98594281Y-72803087D01*
X98614236Y-72575000D01*
X98594281Y-72346913D01*
X98554917Y-72200005D01*
X108596673Y-72200005D01*
X108615948Y-72432622D01*
X108673251Y-72658907D01*
X108767015Y-72872668D01*
X108894686Y-73068084D01*
X109045348Y-73231745D01*
X109052780Y-73239818D01*
X109236983Y-73383190D01*
X109236985Y-73383191D01*
X109236988Y-73383193D01*
X109303716Y-73419304D01*
X109442273Y-73494287D01*
X109540734Y-73528089D01*
X109663045Y-73570079D01*
X109663047Y-73570079D01*
X109663049Y-73570080D01*
X109893288Y-73608500D01*
X109893289Y-73608500D01*
X110126711Y-73608500D01*
X110126712Y-73608500D01*
X110356951Y-73570080D01*
X110577727Y-73494287D01*
X110783017Y-73383190D01*
X110967220Y-73239818D01*
X110973646Y-73232837D01*
X111033531Y-73196845D01*
X111103369Y-73198944D01*
X111160986Y-73238466D01*
X111181059Y-73273485D01*
X111206645Y-73342086D01*
X111206649Y-73342093D01*
X111292809Y-73457187D01*
X111292812Y-73457190D01*
X111407906Y-73543350D01*
X111407913Y-73543354D01*
X111542620Y-73593596D01*
X111542627Y-73593598D01*
X111602155Y-73599999D01*
X111602172Y-73600000D01*
X112300000Y-73600000D01*
X112300000Y-72761821D01*
X112319685Y-72694782D01*
X112372489Y-72649027D01*
X112441647Y-72639083D01*
X112460547Y-72643329D01*
X112482173Y-72650000D01*
X112583723Y-72650000D01*
X112583724Y-72650000D01*
X112657519Y-72638877D01*
X112726742Y-72648350D01*
X112779857Y-72693744D01*
X112799997Y-72760648D01*
X112800000Y-72761492D01*
X112800000Y-73600000D01*
X113497828Y-73600000D01*
X113497844Y-73599999D01*
X113557372Y-73593598D01*
X113557379Y-73593596D01*
X113692086Y-73543354D01*
X113692093Y-73543350D01*
X113807187Y-73457190D01*
X113807190Y-73457187D01*
X113893350Y-73342093D01*
X113893354Y-73342086D01*
X113943596Y-73207379D01*
X113943598Y-73207372D01*
X113949999Y-73147844D01*
X113950000Y-73147827D01*
X113950000Y-72450000D01*
X113110003Y-72450000D01*
X113042964Y-72430315D01*
X112997209Y-72377511D01*
X112987265Y-72308353D01*
X112989112Y-72298408D01*
X113003810Y-72234007D01*
X113003810Y-72234006D01*
X112992979Y-72089468D01*
X112995079Y-72089310D01*
X112998595Y-72031861D01*
X113039890Y-71975501D01*
X113105101Y-71950413D01*
X113115216Y-71950000D01*
X113950000Y-71950000D01*
X113950000Y-71252172D01*
X113949999Y-71252155D01*
X113949535Y-71247844D01*
X115400000Y-71247844D01*
X115406401Y-71307372D01*
X115406403Y-71307379D01*
X115456645Y-71442086D01*
X115456649Y-71442093D01*
X115542809Y-71557187D01*
X115542812Y-71557190D01*
X115657906Y-71643350D01*
X115657913Y-71643354D01*
X115792620Y-71693596D01*
X115792627Y-71693598D01*
X115852155Y-71699999D01*
X115852172Y-71700000D01*
X116550000Y-71700000D01*
X116550000Y-70861821D01*
X116569685Y-70794782D01*
X116622489Y-70749027D01*
X116691647Y-70739083D01*
X116710547Y-70743329D01*
X116732173Y-70750000D01*
X116833723Y-70750000D01*
X116833724Y-70750000D01*
X116907519Y-70738877D01*
X116976742Y-70748350D01*
X117029857Y-70793744D01*
X117049997Y-70860648D01*
X117050000Y-70861492D01*
X117050000Y-71700000D01*
X117747828Y-71700000D01*
X117747844Y-71699999D01*
X117807372Y-71693598D01*
X117807379Y-71693596D01*
X117942086Y-71643354D01*
X117942093Y-71643350D01*
X118057187Y-71557190D01*
X118057190Y-71557187D01*
X118143350Y-71442093D01*
X118143355Y-71442084D01*
X118168940Y-71373486D01*
X118210810Y-71317552D01*
X118276274Y-71293134D01*
X118344547Y-71307985D01*
X118376349Y-71332832D01*
X118382780Y-71339818D01*
X118566983Y-71483190D01*
X118566985Y-71483191D01*
X118566988Y-71483193D01*
X118648549Y-71527331D01*
X118772273Y-71594287D01*
X118886914Y-71633643D01*
X118993045Y-71670079D01*
X118993047Y-71670079D01*
X118993049Y-71670080D01*
X119223288Y-71708500D01*
X119223289Y-71708500D01*
X119456711Y-71708500D01*
X119456712Y-71708500D01*
X119686951Y-71670080D01*
X119907727Y-71594287D01*
X120113017Y-71483190D01*
X120297220Y-71339818D01*
X120455314Y-71168083D01*
X120582984Y-70972669D01*
X120676749Y-70758907D01*
X120734051Y-70532626D01*
X120753327Y-70300000D01*
X120734051Y-70067374D01*
X120676749Y-69841093D01*
X120582984Y-69627331D01*
X120455314Y-69431917D01*
X120455313Y-69431915D01*
X120297223Y-69260185D01*
X120297222Y-69260184D01*
X120297220Y-69260182D01*
X120113017Y-69116810D01*
X120113015Y-69116809D01*
X120113014Y-69116808D01*
X120113011Y-69116806D01*
X119907733Y-69005716D01*
X119907730Y-69005715D01*
X119907727Y-69005713D01*
X119907721Y-69005711D01*
X119907719Y-69005710D01*
X119686954Y-68929920D01*
X119507650Y-68900000D01*
X119456712Y-68891500D01*
X119223288Y-68891500D01*
X119177240Y-68899184D01*
X118993045Y-68929920D01*
X118772280Y-69005710D01*
X118772266Y-69005716D01*
X118566988Y-69116806D01*
X118566985Y-69116808D01*
X118382781Y-69260181D01*
X118382776Y-69260185D01*
X118376346Y-69267170D01*
X118316457Y-69303157D01*
X118246619Y-69301052D01*
X118189005Y-69261524D01*
X118168940Y-69226513D01*
X118143355Y-69157915D01*
X118143350Y-69157906D01*
X118057190Y-69042812D01*
X118057187Y-69042809D01*
X117942093Y-68956649D01*
X117942086Y-68956645D01*
X117807379Y-68906403D01*
X117807372Y-68906401D01*
X117747844Y-68900000D01*
X117050000Y-68900000D01*
X117050000Y-69738178D01*
X117030315Y-69805217D01*
X116977511Y-69850972D01*
X116908353Y-69860916D01*
X116889454Y-69856670D01*
X116867829Y-69850000D01*
X116867827Y-69850000D01*
X116766276Y-69850000D01*
X116766268Y-69850000D01*
X116692481Y-69861122D01*
X116623256Y-69851649D01*
X116570143Y-69806254D01*
X116550003Y-69739350D01*
X116550000Y-69738507D01*
X116550000Y-68900000D01*
X115852155Y-68900000D01*
X115792627Y-68906401D01*
X115792620Y-68906403D01*
X115657913Y-68956645D01*
X115657906Y-68956649D01*
X115542812Y-69042809D01*
X115542809Y-69042812D01*
X115456649Y-69157906D01*
X115456645Y-69157913D01*
X115406403Y-69292620D01*
X115406401Y-69292627D01*
X115400000Y-69352155D01*
X115400000Y-70050000D01*
X116239997Y-70050000D01*
X116307036Y-70069685D01*
X116352791Y-70122489D01*
X116362735Y-70191647D01*
X116360888Y-70201592D01*
X116346189Y-70265992D01*
X116346189Y-70265993D01*
X116357021Y-70410532D01*
X116354920Y-70410689D01*
X116351405Y-70468139D01*
X116310110Y-70524499D01*
X116244899Y-70549587D01*
X116234784Y-70550000D01*
X115400000Y-70550000D01*
X115400000Y-71247844D01*
X113949535Y-71247844D01*
X113943598Y-71192627D01*
X113943596Y-71192620D01*
X113893354Y-71057913D01*
X113893350Y-71057906D01*
X113807190Y-70942812D01*
X113807187Y-70942809D01*
X113692093Y-70856649D01*
X113692086Y-70856645D01*
X113557379Y-70806403D01*
X113557372Y-70806401D01*
X113497844Y-70800000D01*
X112800000Y-70800000D01*
X112800000Y-71638178D01*
X112780315Y-71705217D01*
X112727511Y-71750972D01*
X112658353Y-71760916D01*
X112639454Y-71756670D01*
X112617829Y-71750000D01*
X112617827Y-71750000D01*
X112516276Y-71750000D01*
X112516268Y-71750000D01*
X112442481Y-71761122D01*
X112373256Y-71751649D01*
X112320143Y-71706254D01*
X112300003Y-71639350D01*
X112300000Y-71638507D01*
X112300000Y-70800000D01*
X111602155Y-70800000D01*
X111542627Y-70806401D01*
X111542620Y-70806403D01*
X111407913Y-70856645D01*
X111407906Y-70856649D01*
X111292812Y-70942809D01*
X111292809Y-70942812D01*
X111206649Y-71057906D01*
X111206645Y-71057913D01*
X111181059Y-71126514D01*
X111139188Y-71182448D01*
X111073723Y-71206865D01*
X111005450Y-71192013D01*
X110973649Y-71167165D01*
X110967224Y-71160186D01*
X110967222Y-71160184D01*
X110967220Y-71160182D01*
X110783017Y-71016810D01*
X110783015Y-71016809D01*
X110783014Y-71016808D01*
X110783011Y-71016806D01*
X110577733Y-70905716D01*
X110577730Y-70905715D01*
X110577727Y-70905713D01*
X110577721Y-70905711D01*
X110577719Y-70905710D01*
X110356954Y-70829920D01*
X110177650Y-70800000D01*
X110126712Y-70791500D01*
X109893288Y-70791500D01*
X109847240Y-70799184D01*
X109663045Y-70829920D01*
X109442280Y-70905710D01*
X109442266Y-70905716D01*
X109236988Y-71016806D01*
X109236985Y-71016808D01*
X109052781Y-71160181D01*
X109052776Y-71160185D01*
X108894686Y-71331915D01*
X108767015Y-71527331D01*
X108673251Y-71741092D01*
X108615948Y-71967377D01*
X108596673Y-72199994D01*
X108596673Y-72200005D01*
X98554917Y-72200005D01*
X98535022Y-72125757D01*
X98438261Y-71918251D01*
X98306936Y-71730700D01*
X98145038Y-71568802D01*
X97957487Y-71437477D01*
X97957483Y-71437475D01*
X97749987Y-71340718D01*
X97749976Y-71340714D01*
X97528827Y-71281457D01*
X97528819Y-71281456D01*
X97300740Y-71261502D01*
X97300736Y-71261502D01*
X97072656Y-71281456D01*
X97072648Y-71281457D01*
X96851499Y-71340714D01*
X96851488Y-71340718D01*
X96643992Y-71437475D01*
X96643990Y-71437476D01*
X96578704Y-71483190D01*
X96456438Y-71568802D01*
X96456436Y-71568803D01*
X96456433Y-71568806D01*
X96294544Y-71730695D01*
X96294541Y-71730698D01*
X96294540Y-71730700D01*
X96253029Y-71789984D01*
X96163214Y-71918252D01*
X96163213Y-71918254D01*
X96066456Y-72125750D01*
X96066452Y-72125761D01*
X96007195Y-72346910D01*
X96007194Y-72346918D01*
X95987240Y-72574998D01*
X95987240Y-72575001D01*
X84242936Y-72575001D01*
X84250318Y-68500183D01*
X84270124Y-68433181D01*
X84311906Y-68393261D01*
X88034617Y-66225001D01*
X106985763Y-66225001D01*
X107005717Y-66453081D01*
X107005718Y-66453089D01*
X107064975Y-66674238D01*
X107064979Y-66674249D01*
X107127386Y-66808081D01*
X107161738Y-66881749D01*
X107293063Y-67069300D01*
X107454961Y-67231198D01*
X107642512Y-67362523D01*
X107721248Y-67399238D01*
X107850011Y-67459281D01*
X107850013Y-67459281D01*
X107850018Y-67459284D01*
X108071174Y-67518543D01*
X108234093Y-67532796D01*
X108299259Y-67538498D01*
X108299261Y-67538498D01*
X108299263Y-67538498D01*
X108356282Y-67533509D01*
X108527348Y-67518543D01*
X108748504Y-67459284D01*
X108956010Y-67362523D01*
X109143561Y-67231198D01*
X109305459Y-67069300D01*
X109436784Y-66881749D01*
X109533545Y-66674243D01*
X109558797Y-66580001D01*
X139266502Y-66580001D01*
X139286456Y-66808081D01*
X139286457Y-66808089D01*
X139345714Y-67029238D01*
X139345718Y-67029249D01*
X139442475Y-67236745D01*
X139442477Y-67236749D01*
X139573802Y-67424300D01*
X139735700Y-67586198D01*
X139923251Y-67717523D01*
X140048091Y-67775736D01*
X140130750Y-67814281D01*
X140130752Y-67814281D01*
X140130757Y-67814284D01*
X140351913Y-67873543D01*
X140514832Y-67887796D01*
X140579998Y-67893498D01*
X140580000Y-67893498D01*
X140580002Y-67893498D01*
X140637021Y-67888509D01*
X140808087Y-67873543D01*
X141029243Y-67814284D01*
X141236749Y-67717523D01*
X141424300Y-67586198D01*
X141586198Y-67424300D01*
X141717523Y-67236749D01*
X141737617Y-67193655D01*
X141783790Y-67141215D01*
X141850983Y-67122063D01*
X141917864Y-67142278D01*
X141962382Y-67193655D01*
X141979888Y-67231198D01*
X141982477Y-67236749D01*
X142113802Y-67424300D01*
X142275700Y-67586198D01*
X142463251Y-67717523D01*
X142588091Y-67775736D01*
X142670750Y-67814281D01*
X142670752Y-67814281D01*
X142670757Y-67814284D01*
X142891913Y-67873543D01*
X143054832Y-67887796D01*
X143119998Y-67893498D01*
X143120000Y-67893498D01*
X143120002Y-67893498D01*
X143177021Y-67888509D01*
X143348087Y-67873543D01*
X143569243Y-67814284D01*
X143776749Y-67717523D01*
X143964300Y-67586198D01*
X144126198Y-67424300D01*
X144257523Y-67236749D01*
X144277617Y-67193655D01*
X144323790Y-67141215D01*
X144390983Y-67122063D01*
X144457864Y-67142278D01*
X144502382Y-67193655D01*
X144519888Y-67231198D01*
X144522477Y-67236749D01*
X144653802Y-67424300D01*
X144815700Y-67586198D01*
X145003251Y-67717523D01*
X145128091Y-67775736D01*
X145210750Y-67814281D01*
X145210752Y-67814281D01*
X145210757Y-67814284D01*
X145431913Y-67873543D01*
X145594832Y-67887796D01*
X145659998Y-67893498D01*
X145660000Y-67893498D01*
X145660002Y-67893498D01*
X145717021Y-67888509D01*
X145888087Y-67873543D01*
X146109243Y-67814284D01*
X146316749Y-67717523D01*
X146504300Y-67586198D01*
X146666198Y-67424300D01*
X146797523Y-67236749D01*
X146817617Y-67193655D01*
X146863790Y-67141215D01*
X146930983Y-67122063D01*
X146997864Y-67142278D01*
X147042382Y-67193655D01*
X147059888Y-67231198D01*
X147062477Y-67236749D01*
X147193802Y-67424300D01*
X147355700Y-67586198D01*
X147543251Y-67717523D01*
X147668091Y-67775736D01*
X147750750Y-67814281D01*
X147750752Y-67814281D01*
X147750757Y-67814284D01*
X147971913Y-67873543D01*
X148134832Y-67887796D01*
X148199998Y-67893498D01*
X148200000Y-67893498D01*
X148200002Y-67893498D01*
X148257021Y-67888509D01*
X148428087Y-67873543D01*
X148649243Y-67814284D01*
X148856749Y-67717523D01*
X149044300Y-67586198D01*
X149206198Y-67424300D01*
X149337523Y-67236749D01*
X149434284Y-67029243D01*
X149455517Y-66950001D01*
X154087979Y-66950001D01*
X154107933Y-67178081D01*
X154107934Y-67178089D01*
X154167191Y-67399238D01*
X154167195Y-67399249D01*
X154254371Y-67586198D01*
X154263954Y-67606749D01*
X154395279Y-67794300D01*
X154557177Y-67956198D01*
X154744728Y-68087523D01*
X154869568Y-68145736D01*
X154952227Y-68184281D01*
X154952229Y-68184281D01*
X154952234Y-68184284D01*
X155173390Y-68243543D01*
X155336309Y-68257796D01*
X155401475Y-68263498D01*
X155401477Y-68263498D01*
X155401479Y-68263498D01*
X155458498Y-68258509D01*
X155629564Y-68243543D01*
X155850720Y-68184284D01*
X156058226Y-68087523D01*
X156245777Y-67956198D01*
X156407675Y-67794300D01*
X156539000Y-67606749D01*
X156635761Y-67399243D01*
X156695020Y-67178087D01*
X156714975Y-66950000D01*
X156695020Y-66721913D01*
X156635761Y-66500757D01*
X156613529Y-66453081D01*
X156597213Y-66418091D01*
X156539000Y-66293251D01*
X156407675Y-66105700D01*
X156245777Y-65943802D01*
X156058226Y-65812477D01*
X156058222Y-65812475D01*
X155850726Y-65715718D01*
X155850715Y-65715714D01*
X155629566Y-65656457D01*
X155629558Y-65656456D01*
X155401479Y-65636502D01*
X155401475Y-65636502D01*
X155173395Y-65656456D01*
X155173387Y-65656457D01*
X154952238Y-65715714D01*
X154952227Y-65715718D01*
X154744731Y-65812475D01*
X154744729Y-65812476D01*
X154744726Y-65812477D01*
X154744728Y-65812477D01*
X154557177Y-65943802D01*
X154557175Y-65943803D01*
X154557172Y-65943806D01*
X154395283Y-66105695D01*
X154263953Y-66293252D01*
X154263952Y-66293254D01*
X154167195Y-66500750D01*
X154167191Y-66500761D01*
X154107934Y-66721910D01*
X154107933Y-66721918D01*
X154087979Y-66949998D01*
X154087979Y-66950001D01*
X149455517Y-66950001D01*
X149493543Y-66808087D01*
X149513498Y-66580000D01*
X149493543Y-66351913D01*
X149434284Y-66130757D01*
X149422597Y-66105695D01*
X149371872Y-65996913D01*
X149337523Y-65923251D01*
X149206198Y-65735700D01*
X149044300Y-65573802D01*
X148856749Y-65442477D01*
X148856745Y-65442475D01*
X148649249Y-65345718D01*
X148649238Y-65345714D01*
X148428089Y-65286457D01*
X148428081Y-65286456D01*
X148200002Y-65266502D01*
X148199998Y-65266502D01*
X147971918Y-65286456D01*
X147971910Y-65286457D01*
X147750761Y-65345714D01*
X147750750Y-65345718D01*
X147543254Y-65442475D01*
X147543252Y-65442476D01*
X147543249Y-65442477D01*
X147543251Y-65442477D01*
X147355700Y-65573802D01*
X147355698Y-65573803D01*
X147355695Y-65573806D01*
X147193806Y-65735695D01*
X147062476Y-65923251D01*
X147042382Y-65966345D01*
X146996209Y-66018784D01*
X146929016Y-66037936D01*
X146862135Y-66017720D01*
X146817618Y-65966345D01*
X146797523Y-65923251D01*
X146797522Y-65923251D01*
X146666198Y-65735700D01*
X146504300Y-65573802D01*
X146316749Y-65442477D01*
X146316745Y-65442475D01*
X146109249Y-65345718D01*
X146109238Y-65345714D01*
X145888089Y-65286457D01*
X145888081Y-65286456D01*
X145660002Y-65266502D01*
X145659998Y-65266502D01*
X145431918Y-65286456D01*
X145431910Y-65286457D01*
X145210761Y-65345714D01*
X145210750Y-65345718D01*
X145003254Y-65442475D01*
X145003252Y-65442476D01*
X145003249Y-65442477D01*
X145003251Y-65442477D01*
X144815700Y-65573802D01*
X144815698Y-65573803D01*
X144815695Y-65573806D01*
X144653806Y-65735695D01*
X144522476Y-65923251D01*
X144502382Y-65966345D01*
X144456209Y-66018784D01*
X144389016Y-66037936D01*
X144322135Y-66017720D01*
X144277618Y-65966345D01*
X144257523Y-65923251D01*
X144126198Y-65735700D01*
X143964300Y-65573802D01*
X143776749Y-65442477D01*
X143776745Y-65442475D01*
X143569249Y-65345718D01*
X143569238Y-65345714D01*
X143348089Y-65286457D01*
X143348081Y-65286456D01*
X143120002Y-65266502D01*
X143119998Y-65266502D01*
X142891918Y-65286456D01*
X142891910Y-65286457D01*
X142670761Y-65345714D01*
X142670750Y-65345718D01*
X142463254Y-65442475D01*
X142463252Y-65442476D01*
X142463249Y-65442477D01*
X142463251Y-65442477D01*
X142275700Y-65573802D01*
X142275698Y-65573803D01*
X142275695Y-65573806D01*
X142113806Y-65735695D01*
X141982476Y-65923251D01*
X141962382Y-65966345D01*
X141916209Y-66018784D01*
X141849016Y-66037936D01*
X141782135Y-66017720D01*
X141737618Y-65966345D01*
X141717523Y-65923251D01*
X141586198Y-65735700D01*
X141424300Y-65573802D01*
X141236749Y-65442477D01*
X141236745Y-65442475D01*
X141029249Y-65345718D01*
X141029238Y-65345714D01*
X140808089Y-65286457D01*
X140808081Y-65286456D01*
X140580002Y-65266502D01*
X140579998Y-65266502D01*
X140351918Y-65286456D01*
X140351910Y-65286457D01*
X140130761Y-65345714D01*
X140130750Y-65345718D01*
X139923254Y-65442475D01*
X139923252Y-65442476D01*
X139923249Y-65442477D01*
X139923251Y-65442477D01*
X139735700Y-65573802D01*
X139735698Y-65573803D01*
X139735695Y-65573806D01*
X139573806Y-65735695D01*
X139573803Y-65735698D01*
X139573802Y-65735700D01*
X139520043Y-65812476D01*
X139442476Y-65923252D01*
X139442475Y-65923254D01*
X139345718Y-66130750D01*
X139345714Y-66130761D01*
X139286457Y-66351910D01*
X139286456Y-66351918D01*
X139266502Y-66579998D01*
X139266502Y-66580001D01*
X109558797Y-66580001D01*
X109592804Y-66453087D01*
X109612759Y-66225000D01*
X109592804Y-65996913D01*
X109533545Y-65775757D01*
X109436784Y-65568251D01*
X109305459Y-65380700D01*
X109143561Y-65218802D01*
X108956010Y-65087477D01*
X108956006Y-65087475D01*
X108748510Y-64990718D01*
X108748499Y-64990714D01*
X108527350Y-64931457D01*
X108527342Y-64931456D01*
X108299263Y-64911502D01*
X108299259Y-64911502D01*
X108071179Y-64931456D01*
X108071171Y-64931457D01*
X107850022Y-64990714D01*
X107850011Y-64990718D01*
X107642515Y-65087475D01*
X107642513Y-65087476D01*
X107642510Y-65087477D01*
X107642512Y-65087477D01*
X107454961Y-65218802D01*
X107454959Y-65218803D01*
X107454956Y-65218806D01*
X107293067Y-65380695D01*
X107161737Y-65568252D01*
X107161736Y-65568254D01*
X107064979Y-65775750D01*
X107064975Y-65775761D01*
X107005718Y-65996910D01*
X107005717Y-65996918D01*
X106985763Y-66224998D01*
X106985763Y-66225001D01*
X88034617Y-66225001D01*
X97778091Y-60550001D01*
X116187979Y-60550001D01*
X116207933Y-60778081D01*
X116207934Y-60778089D01*
X116267191Y-60999238D01*
X116267195Y-60999249D01*
X116363952Y-61206745D01*
X116363954Y-61206749D01*
X116495279Y-61394300D01*
X116657177Y-61556198D01*
X116844728Y-61687523D01*
X116951954Y-61737523D01*
X117052227Y-61784281D01*
X117052229Y-61784281D01*
X117052234Y-61784284D01*
X117273390Y-61843543D01*
X117436309Y-61857796D01*
X117501475Y-61863498D01*
X117501477Y-61863498D01*
X117501479Y-61863498D01*
X117558498Y-61858509D01*
X117729564Y-61843543D01*
X117950720Y-61784284D01*
X118158226Y-61687523D01*
X118345777Y-61556198D01*
X118507675Y-61394300D01*
X118639000Y-61206749D01*
X118735761Y-60999243D01*
X118795020Y-60778087D01*
X118810600Y-60600001D01*
X143086502Y-60600001D01*
X143106456Y-60828081D01*
X143106457Y-60828089D01*
X143165714Y-61049238D01*
X143165718Y-61049249D01*
X143262475Y-61256745D01*
X143262477Y-61256749D01*
X143393802Y-61444300D01*
X143555700Y-61606198D01*
X143743251Y-61737523D01*
X143843525Y-61784281D01*
X143950750Y-61834281D01*
X143950752Y-61834281D01*
X143950757Y-61834284D01*
X144171913Y-61893543D01*
X144334832Y-61907796D01*
X144399998Y-61913498D01*
X144400000Y-61913498D01*
X144400002Y-61913498D01*
X144457021Y-61908509D01*
X144628087Y-61893543D01*
X144849243Y-61834284D01*
X145056749Y-61737523D01*
X145244300Y-61606198D01*
X145406198Y-61444300D01*
X145537523Y-61256749D01*
X145634284Y-61049243D01*
X145693543Y-60828087D01*
X145713498Y-60600000D01*
X145693543Y-60371913D01*
X145634284Y-60150757D01*
X145537523Y-59943251D01*
X145406198Y-59755700D01*
X145244300Y-59593802D01*
X145056749Y-59462477D01*
X145056745Y-59462475D01*
X144849249Y-59365718D01*
X144849238Y-59365714D01*
X144628089Y-59306457D01*
X144628081Y-59306456D01*
X144400002Y-59286502D01*
X144399998Y-59286502D01*
X144171918Y-59306456D01*
X144171910Y-59306457D01*
X143950761Y-59365714D01*
X143950750Y-59365718D01*
X143743254Y-59462475D01*
X143743252Y-59462476D01*
X143743249Y-59462477D01*
X143743251Y-59462477D01*
X143555700Y-59593802D01*
X143555698Y-59593803D01*
X143555695Y-59593806D01*
X143393806Y-59755695D01*
X143262476Y-59943252D01*
X143262475Y-59943254D01*
X143165718Y-60150750D01*
X143165714Y-60150761D01*
X143106457Y-60371910D01*
X143106456Y-60371918D01*
X143086502Y-60599998D01*
X143086502Y-60600001D01*
X118810600Y-60600001D01*
X118814975Y-60550000D01*
X118795020Y-60321913D01*
X118735761Y-60100757D01*
X118639000Y-59893251D01*
X118507675Y-59705700D01*
X118345777Y-59543802D01*
X118158226Y-59412477D01*
X118158222Y-59412475D01*
X117950726Y-59315718D01*
X117950715Y-59315714D01*
X117729566Y-59256457D01*
X117729558Y-59256456D01*
X117501479Y-59236502D01*
X117501475Y-59236502D01*
X117273395Y-59256456D01*
X117273387Y-59256457D01*
X117052238Y-59315714D01*
X117052227Y-59315718D01*
X116844731Y-59412475D01*
X116844729Y-59412476D01*
X116844726Y-59412477D01*
X116844728Y-59412477D01*
X116657177Y-59543802D01*
X116657175Y-59543803D01*
X116657172Y-59543806D01*
X116495283Y-59705695D01*
X116363953Y-59893252D01*
X116363952Y-59893254D01*
X116267195Y-60100750D01*
X116267191Y-60100761D01*
X116207934Y-60321910D01*
X116207933Y-60321918D01*
X116187979Y-60549998D01*
X116187979Y-60550001D01*
X97778091Y-60550001D01*
X108680481Y-54200001D01*
X127186502Y-54200001D01*
X127206456Y-54428081D01*
X127206457Y-54428089D01*
X127265714Y-54649238D01*
X127265718Y-54649249D01*
X127362475Y-54856745D01*
X127362477Y-54856749D01*
X127493802Y-55044300D01*
X127655700Y-55206198D01*
X127843251Y-55337523D01*
X127950477Y-55387523D01*
X128050750Y-55434281D01*
X128050752Y-55434281D01*
X128050757Y-55434284D01*
X128271913Y-55493543D01*
X128434832Y-55507796D01*
X128499998Y-55513498D01*
X128500000Y-55513498D01*
X128500002Y-55513498D01*
X128557021Y-55508509D01*
X128728087Y-55493543D01*
X128949243Y-55434284D01*
X129156749Y-55337523D01*
X129344300Y-55206198D01*
X129506198Y-55044300D01*
X129637523Y-54856749D01*
X129734284Y-54649243D01*
X129793543Y-54428087D01*
X129809123Y-54250001D01*
X132087979Y-54250001D01*
X132107933Y-54478081D01*
X132107934Y-54478089D01*
X132167191Y-54699238D01*
X132167195Y-54699249D01*
X132263952Y-54906745D01*
X132263954Y-54906749D01*
X132395279Y-55094300D01*
X132557177Y-55256198D01*
X132744728Y-55387523D01*
X132845002Y-55434281D01*
X132952227Y-55484281D01*
X132952229Y-55484281D01*
X132952234Y-55484284D01*
X133173390Y-55543543D01*
X133336309Y-55557796D01*
X133401475Y-55563498D01*
X133401477Y-55563498D01*
X133401479Y-55563498D01*
X133458498Y-55558509D01*
X133629564Y-55543543D01*
X133850720Y-55484284D01*
X134058226Y-55387523D01*
X134245777Y-55256198D01*
X134407675Y-55094300D01*
X134539000Y-54906749D01*
X134635761Y-54699243D01*
X134695020Y-54478087D01*
X134714975Y-54250000D01*
X134695020Y-54021913D01*
X134635761Y-53800757D01*
X134539000Y-53593251D01*
X134407675Y-53405700D01*
X134245777Y-53243802D01*
X134058226Y-53112477D01*
X134058222Y-53112475D01*
X133850726Y-53015718D01*
X133850715Y-53015714D01*
X133629566Y-52956457D01*
X133629558Y-52956456D01*
X133401479Y-52936502D01*
X133401475Y-52936502D01*
X133173395Y-52956456D01*
X133173387Y-52956457D01*
X132952238Y-53015714D01*
X132952227Y-53015718D01*
X132744731Y-53112475D01*
X132744729Y-53112476D01*
X132744726Y-53112477D01*
X132744728Y-53112477D01*
X132557177Y-53243802D01*
X132557175Y-53243803D01*
X132557172Y-53243806D01*
X132395283Y-53405695D01*
X132263953Y-53593252D01*
X132263952Y-53593254D01*
X132167195Y-53800750D01*
X132167191Y-53800761D01*
X132107934Y-54021910D01*
X132107933Y-54021918D01*
X132087979Y-54249998D01*
X132087979Y-54250001D01*
X129809123Y-54250001D01*
X129813498Y-54200000D01*
X129793543Y-53971913D01*
X129734284Y-53750757D01*
X129637523Y-53543251D01*
X129506198Y-53355700D01*
X129344300Y-53193802D01*
X129156749Y-53062477D01*
X129156745Y-53062475D01*
X128949249Y-52965718D01*
X128949238Y-52965714D01*
X128728089Y-52906457D01*
X128728081Y-52906456D01*
X128500002Y-52886502D01*
X128499998Y-52886502D01*
X128271918Y-52906456D01*
X128271910Y-52906457D01*
X128050761Y-52965714D01*
X128050750Y-52965718D01*
X127843254Y-53062475D01*
X127843252Y-53062476D01*
X127843249Y-53062477D01*
X127843251Y-53062477D01*
X127655700Y-53193802D01*
X127655698Y-53193803D01*
X127655695Y-53193806D01*
X127493806Y-53355695D01*
X127362476Y-53543252D01*
X127362475Y-53543254D01*
X127265718Y-53750750D01*
X127265714Y-53750761D01*
X127206457Y-53971910D01*
X127206456Y-53971918D01*
X127186502Y-54199998D01*
X127186502Y-54200001D01*
X108680481Y-54200001D01*
X121861381Y-46522903D01*
X128395793Y-46522903D01*
X128405672Y-46830970D01*
X128405672Y-46830975D01*
X128405673Y-46830978D01*
X128454867Y-47135261D01*
X128499137Y-47284419D01*
X128542571Y-47430763D01*
X128667333Y-47712601D01*
X128667337Y-47712609D01*
X128827123Y-47976193D01*
X128827127Y-47976198D01*
X128827133Y-47976207D01*
X129019297Y-48217174D01*
X129019299Y-48217176D01*
X129019303Y-48217180D01*
X129019304Y-48217181D01*
X129240724Y-48431614D01*
X129407862Y-48556352D01*
X129487741Y-48615968D01*
X129487743Y-48615969D01*
X129487747Y-48615972D01*
X129756318Y-48767228D01*
X129897057Y-48824207D01*
X130042018Y-48882897D01*
X130042023Y-48882898D01*
X130042025Y-48882899D01*
X130340179Y-48961084D01*
X130645883Y-49000500D01*
X130645890Y-49000500D01*
X130876980Y-49000500D01*
X130975814Y-48994154D01*
X131107601Y-48985693D01*
X131410151Y-48926772D01*
X131702683Y-48829644D01*
X131702689Y-48829640D01*
X131702693Y-48829640D01*
X131893571Y-48737717D01*
X131980393Y-48695907D01*
X132238720Y-48527754D01*
X132473424Y-48327948D01*
X132680650Y-48099769D01*
X132856996Y-47846963D01*
X132999567Y-47573683D01*
X133106020Y-47284415D01*
X133174609Y-46983908D01*
X133204206Y-46677098D01*
X133194327Y-46369022D01*
X133145133Y-46064739D01*
X133057431Y-45769244D01*
X133057429Y-45769239D01*
X133057428Y-45769236D01*
X132932666Y-45487398D01*
X132932663Y-45487391D01*
X132772877Y-45223807D01*
X132772870Y-45223799D01*
X132772866Y-45223792D01*
X132580702Y-44982825D01*
X132580700Y-44982823D01*
X132359279Y-44768389D01*
X132359276Y-44768386D01*
X132230450Y-44672241D01*
X132112258Y-44584031D01*
X132112253Y-44584028D01*
X131843682Y-44432772D01*
X131806383Y-44417671D01*
X131557981Y-44317102D01*
X131390660Y-44273226D01*
X131259821Y-44238916D01*
X130954117Y-44199500D01*
X130723026Y-44199500D01*
X130723020Y-44199500D01*
X130492406Y-44214306D01*
X130492389Y-44214308D01*
X130189854Y-44273226D01*
X130189849Y-44273228D01*
X129897310Y-44370358D01*
X129897306Y-44370359D01*
X129619613Y-44504089D01*
X129619605Y-44504094D01*
X129361286Y-44672241D01*
X129361276Y-44672248D01*
X129126581Y-44872046D01*
X129126571Y-44872056D01*
X128919354Y-45100225D01*
X128919350Y-45100229D01*
X128743005Y-45353033D01*
X128743003Y-45353037D01*
X128600432Y-45626319D01*
X128600429Y-45626326D01*
X128493981Y-45915580D01*
X128493979Y-45915590D01*
X128425391Y-46216089D01*
X128395794Y-46522902D01*
X128395793Y-46522903D01*
X121861381Y-46522903D01*
X130837362Y-41294923D01*
X130905198Y-41278193D01*
X130962421Y-41295065D01*
G37*
G04 #@! TD.AperFunction*
M02*
