G04 #@! TF.GenerationSoftware,KiCad,Pcbnew,7.0.7*
G04 #@! TF.CreationDate,2023-12-10T19:07:21-06:00*
G04 #@! TF.ProjectId,airplane-keychain,61697270-6c61-46e6-952d-6b6579636861,1*
G04 #@! TF.SameCoordinates,Original*
G04 #@! TF.FileFunction,Profile,NP*
%FSLAX46Y46*%
G04 Gerber Fmt 4.6, Leading zero omitted, Abs format (unit mm)*
G04 Created by KiCad (PCBNEW 7.0.7) date 2023-12-10 19:07:21*
%MOMM*%
%LPD*%
G01*
G04 APERTURE LIST*
G04 #@! TA.AperFunction,Profile*
%ADD10C,0.100000*%
G04 #@! TD*
G04 APERTURE END LIST*
D10*
X95254200Y-87023450D02*
X93528600Y-75082500D01*
X81321900Y-119829400D02*
X85500200Y-120052800D01*
X153981700Y-134738700D02*
X154247800Y-104316610D01*
X97417500Y-92786230D02*
X96381500Y-92680860D01*
X136538040Y-160505700D02*
X137444430Y-165984400D01*
X85500200Y-120052800D02*
X90589000Y-120015500D01*
X94036300Y-114478200D02*
X95024200Y-108283400D01*
X153730500Y-81432200D02*
X153318900Y-56949600D01*
X114310700Y-101535650D02*
X129741760Y-103995810D01*
X177719500Y-100187550D02*
X178479800Y-99214830D01*
X144254300Y-166409600D02*
X151439100Y-166538600D01*
X136113450Y-26073800D02*
X130361340Y-85850970D01*
X164563000Y-87375730D02*
X160223200Y-87027900D01*
X154247800Y-104316610D02*
X156053500Y-104147360D01*
X96381500Y-92680860D02*
X96043500Y-91955430D01*
X131035900Y-111960400D02*
X134142500Y-139557300D01*
X124879760Y-88514990D02*
X114393200Y-90323760D01*
X97438800Y-99214830D02*
X101556300Y-99647450D01*
X134142500Y-139557300D02*
X136538040Y-160505700D01*
X152776000Y-29182100D02*
X152437600Y-26567600D01*
X148730500Y-24799600D02*
X143680900Y-24844600D01*
X153180800Y-166000300D02*
X153818300Y-165053500D01*
X160223200Y-87027900D02*
X154216300Y-86585450D01*
X101556300Y-99647450D02*
X114310700Y-101535650D01*
X152047200Y-25768100D02*
X151369200Y-25240300D01*
X96043500Y-91955430D02*
X95254200Y-87023450D01*
X184308300Y-95393099D02*
X184208300Y-95069826D01*
X173768000Y-88206450D02*
X169248000Y-87604750D01*
X93045700Y-73109200D02*
X92503900Y-72371900D01*
X103526600Y-92029360D02*
X97417500Y-92786230D01*
X137293060Y-25137000D02*
X136378970Y-25471800D01*
X152293700Y-166434100D02*
X153180800Y-166000300D01*
X96516900Y-99384160D02*
X97438800Y-99214830D01*
X151369200Y-25240300D02*
X150298700Y-24934200D01*
X81172500Y-96019930D02*
X81321900Y-119829400D01*
X153818300Y-165053500D02*
X153981700Y-134738700D01*
X137444430Y-165984400D02*
X144254300Y-166409600D01*
X92503900Y-72371900D02*
X91198300Y-72003600D01*
X96257900Y-100378560D02*
X96516900Y-99384160D01*
X181209600Y-93422400D02*
X180192800Y-92759910D01*
X178479800Y-99214830D02*
X179234500Y-98394170D01*
X151439100Y-166538600D02*
X152293700Y-166434100D01*
X129741760Y-103995810D02*
X130045960Y-104358710D01*
X175806700Y-88800600D02*
X173768000Y-88206450D01*
X92126600Y-119529600D02*
X92692000Y-118929500D01*
X154216300Y-86585450D02*
X153935300Y-85473800D01*
X92692000Y-118929500D02*
X93173100Y-117955400D01*
X82122700Y-72586500D02*
X81442900Y-72870200D01*
X184208300Y-95069826D02*
X181209600Y-93422400D01*
X129848920Y-87448630D02*
X124879760Y-88514990D01*
X176765400Y-100943510D02*
X177719500Y-100187550D01*
X90589000Y-120015500D02*
X92126600Y-119529600D01*
X136378970Y-25471800D02*
X136113450Y-26073800D01*
X179234500Y-98394170D02*
X180192500Y-97644720D01*
X95024200Y-108283400D02*
X96257900Y-100378560D01*
X130045960Y-104358710D02*
X130236970Y-105260580D01*
X93528600Y-75082500D02*
X93045700Y-73109200D01*
X169248000Y-87604750D02*
X164563000Y-87375730D01*
X156053500Y-104147360D02*
X165593700Y-103466360D01*
X180192500Y-97644720D02*
X181551000Y-96914860D01*
X81283200Y-73359400D02*
X81172500Y-96019930D01*
X93173100Y-117955400D02*
X94036300Y-114478200D01*
X153935300Y-85473800D02*
X153730500Y-81432200D01*
X153318900Y-56949600D02*
X152776000Y-29182100D01*
X114393200Y-90323760D02*
X103526600Y-92029360D01*
X152437600Y-26567600D02*
X152047200Y-25768100D01*
X150298700Y-24934200D02*
X148730500Y-24799600D01*
X175323400Y-101583800D02*
X176765400Y-100943510D01*
X177612800Y-89672240D02*
X175806700Y-88800600D01*
X81442900Y-72870200D02*
X81283200Y-73359400D01*
X165593700Y-103466360D02*
X173099200Y-102209490D01*
X130361340Y-85850970D02*
X129848920Y-87448630D01*
X180192800Y-92759910D02*
X179416800Y-91928680D01*
X91198300Y-72003600D02*
X87573900Y-72147900D01*
X143680900Y-24844600D02*
X137293060Y-25137000D01*
X173099200Y-102209490D02*
X175323400Y-101583800D01*
X181551000Y-96914860D02*
X183977900Y-95753405D01*
X183977900Y-95753405D02*
X184308300Y-95393099D01*
X130236970Y-105260580D02*
X131035900Y-111960400D01*
X87573900Y-72147900D02*
X82122700Y-72586500D01*
X179416800Y-91928680D02*
X177612800Y-89672240D01*
M02*
