G04 #@! TF.GenerationSoftware,KiCad,Pcbnew,7.0.7*
G04 #@! TF.CreationDate,2023-12-10T19:07:21-06:00*
G04 #@! TF.ProjectId,airplane-keychain,61697270-6c61-46e6-952d-6b6579636861,1*
G04 #@! TF.SameCoordinates,Original*
G04 #@! TF.FileFunction,Copper,L2,Bot*
G04 #@! TF.FilePolarity,Positive*
%FSLAX46Y46*%
G04 Gerber Fmt 4.6, Leading zero omitted, Abs format (unit mm)*
G04 Created by KiCad (PCBNEW 7.0.7) date 2023-12-10 19:07:21*
%MOMM*%
%LPD*%
G01*
G04 APERTURE LIST*
G04 #@! TA.AperFunction,ComponentPad*
%ADD10R,1.800000X1.800000*%
G04 #@! TD*
G04 #@! TA.AperFunction,ComponentPad*
%ADD11C,1.800000*%
G04 #@! TD*
G04 #@! TA.AperFunction,ComponentPad*
%ADD12C,1.600000*%
G04 #@! TD*
G04 #@! TA.AperFunction,ComponentPad*
%ADD13O,1.600000X1.600000*%
G04 #@! TD*
G04 #@! TA.AperFunction,ComponentPad*
%ADD14C,2.000000*%
G04 #@! TD*
G04 #@! TA.AperFunction,ComponentPad*
%ADD15R,1.600000X1.600000*%
G04 #@! TD*
G04 #@! TA.AperFunction,ComponentPad*
%ADD16R,1.700000X1.700000*%
G04 #@! TD*
G04 #@! TA.AperFunction,ComponentPad*
%ADD17O,1.700000X1.700000*%
G04 #@! TD*
G04 #@! TA.AperFunction,SMDPad,CuDef*
%ADD18R,3.510000X2.540000*%
G04 #@! TD*
G04 #@! TA.AperFunction,ViaPad*
%ADD19C,0.600000*%
G04 #@! TD*
G04 #@! TA.AperFunction,Conductor*
%ADD20C,0.250000*%
G04 #@! TD*
G04 APERTURE END LIST*
D10*
X88900000Y-97536000D03*
D11*
X88900000Y-94996000D03*
D12*
X131300000Y-102100000D03*
D13*
X131300000Y-89400000D03*
D12*
X122000000Y-95700000D03*
D13*
X109300000Y-95700000D03*
D12*
X137900000Y-147100000D03*
D13*
X150600000Y-147100000D03*
D12*
X137668000Y-41148000D03*
D13*
X150368000Y-41148000D03*
D12*
X150400000Y-141300000D03*
D13*
X137700000Y-141300000D03*
D12*
X150368000Y-49022000D03*
D13*
X137668000Y-49022000D03*
D14*
X159600000Y-92800000D03*
X166100000Y-92800000D03*
X159600000Y-97300000D03*
X166100000Y-97300000D03*
D15*
X138300000Y-99500000D03*
D13*
X138300000Y-91880000D03*
D10*
X148336000Y-162306000D03*
D11*
X150876000Y-162306000D03*
D10*
X149860000Y-28702000D03*
D11*
X147320000Y-28702000D03*
D10*
X170942000Y-96520000D03*
D11*
X170942000Y-93980000D03*
D16*
X101400000Y-95900000D03*
D17*
X98860000Y-95900000D03*
X96320000Y-95900000D03*
D15*
X152700000Y-91180000D03*
D13*
X150160000Y-91180000D03*
X147620000Y-91180000D03*
X145080000Y-91180000D03*
X145080000Y-98800000D03*
X147620000Y-98800000D03*
X150160000Y-98800000D03*
X152700000Y-98800000D03*
D18*
X142700000Y-85800000D03*
X142700000Y-56440000D03*
X143000000Y-105600000D03*
X143000000Y-134960000D03*
D19*
X139300000Y-30700000D03*
X146300000Y-94000000D03*
D20*
X159600000Y-97300000D02*
X143000000Y-97300000D01*
X143000000Y-105600000D02*
X143000000Y-97300000D01*
X142700000Y-85800000D02*
X142700000Y-87480000D01*
X159600000Y-97300000D02*
X166100000Y-97300000D01*
X143000000Y-96580000D02*
X138300000Y-91880000D01*
X142700000Y-87480000D02*
X138300000Y-91880000D01*
X143000000Y-97300000D02*
X143000000Y-96580000D01*
X97495000Y-97075000D02*
X96320000Y-95900000D01*
X123625000Y-97075000D02*
X97495000Y-97075000D01*
X131300000Y-89400000D02*
X123625000Y-97075000D01*
X139300000Y-31670991D02*
X139300000Y-30700000D01*
X139300000Y-30700000D02*
X139300000Y-30800000D01*
X151493000Y-87307000D02*
X151493000Y-43863991D01*
X147620000Y-91180000D02*
X151493000Y-87307000D01*
X151493000Y-43863991D02*
X139300000Y-31670991D01*
X138365991Y-148225000D02*
X137434009Y-148225000D01*
X167425000Y-97875000D02*
X161733539Y-103566461D01*
X136775000Y-147565991D02*
X136775000Y-142225000D01*
X151600000Y-134990991D02*
X138365991Y-148225000D01*
X151600000Y-106716036D02*
X151600000Y-134990991D01*
X154749575Y-103566461D02*
X151600000Y-106716036D01*
X170942000Y-93980000D02*
X167425000Y-97497000D01*
X136775000Y-142225000D02*
X137700000Y-141300000D01*
X167425000Y-97497000D02*
X167425000Y-97875000D01*
X137434009Y-148225000D02*
X136775000Y-147565991D01*
X161733539Y-103566461D02*
X154749575Y-103566461D01*
X150160000Y-98800000D02*
X150160000Y-134840000D01*
X150160000Y-134840000D02*
X137900000Y-147100000D01*
X150368000Y-49022000D02*
X146300000Y-53090000D01*
X146300000Y-53090000D02*
X146300000Y-94000000D01*
G04 #@! TA.AperFunction,Conductor*
G36*
X148731476Y-24850369D02*
G01*
X149843858Y-24945845D01*
X150277564Y-24983071D01*
X150301048Y-24987394D01*
X151046678Y-25200601D01*
X151322791Y-25279553D01*
X151364872Y-25300928D01*
X151984298Y-25783130D01*
X152019552Y-25826568D01*
X152379645Y-26564005D01*
X152391194Y-26602497D01*
X152626213Y-28418260D01*
X152723314Y-29168471D01*
X152725128Y-29182482D01*
X152725629Y-29189234D01*
X153268406Y-56950417D01*
X153679665Y-81412729D01*
X153679264Y-81418950D01*
X153680021Y-81433915D01*
X153680272Y-81448863D01*
X153681091Y-81455038D01*
X153883997Y-85459251D01*
X153883517Y-85469418D01*
X153884137Y-85481489D01*
X153887091Y-85493207D01*
X153890536Y-85502779D01*
X154157186Y-86557659D01*
X154158357Y-86571056D01*
X154167091Y-86597488D01*
X154168331Y-86601746D01*
X154169801Y-86607564D01*
X154170167Y-86608332D01*
X154173049Y-86615516D01*
X154174912Y-86621154D01*
X154174913Y-86621155D01*
X154174914Y-86621157D01*
X154174915Y-86621157D01*
X154180696Y-86627858D01*
X154188299Y-86632393D01*
X154188300Y-86632394D01*
X154194171Y-86633252D01*
X154201733Y-86634843D01*
X154202570Y-86635074D01*
X154202573Y-86635076D01*
X154208587Y-86635518D01*
X154212981Y-86636000D01*
X154229696Y-86638444D01*
X154229697Y-86638443D01*
X154240533Y-86640027D01*
X154253923Y-86638858D01*
X160219264Y-87078246D01*
X164538552Y-87424431D01*
X164544305Y-87425376D01*
X164550500Y-87425678D01*
X164550501Y-87425679D01*
X164559744Y-87426130D01*
X164568979Y-87426871D01*
X164568980Y-87426870D01*
X164575157Y-87427366D01*
X164580985Y-87427169D01*
X169240859Y-87654960D01*
X169245981Y-87655426D01*
X173748246Y-88254765D01*
X173766563Y-88258631D01*
X175778631Y-88845020D01*
X175797822Y-88852389D01*
X176459893Y-89171910D01*
X177555150Y-89700491D01*
X177598107Y-89734734D01*
X178231929Y-90527517D01*
X179367980Y-91948488D01*
X179372250Y-91954538D01*
X179373031Y-91955799D01*
X179376951Y-91959998D01*
X179380050Y-91963584D01*
X179383631Y-91968063D01*
X179384754Y-91969009D01*
X179390142Y-91974127D01*
X180097529Y-92731860D01*
X180146911Y-92784757D01*
X180155433Y-92795387D01*
X180159589Y-92799447D01*
X180164310Y-92802842D01*
X180176243Y-92809395D01*
X180376981Y-92940185D01*
X181169448Y-93456513D01*
X181175482Y-93460986D01*
X181176478Y-93461822D01*
X181176480Y-93461824D01*
X181181601Y-93464637D01*
X181185555Y-93467006D01*
X181190449Y-93470195D01*
X181190452Y-93470195D01*
X181191639Y-93470671D01*
X181198430Y-93473883D01*
X184122149Y-95080115D01*
X184171426Y-95129646D01*
X184180904Y-95152149D01*
X184230456Y-95312338D01*
X184231462Y-95382200D01*
X184203386Y-95432788D01*
X183963504Y-95694383D01*
X183925641Y-95722428D01*
X181546965Y-96860804D01*
X181539476Y-96863723D01*
X181529410Y-96869131D01*
X181526837Y-96870438D01*
X181516512Y-96875379D01*
X181509729Y-96879705D01*
X180185713Y-97591039D01*
X180180165Y-97593268D01*
X180165943Y-97600448D01*
X180162646Y-97602600D01*
X180150377Y-97612712D01*
X180146090Y-97616907D01*
X179219205Y-98342017D01*
X179213892Y-98345269D01*
X179213983Y-98345393D01*
X179201698Y-98354366D01*
X179197438Y-98358300D01*
X179187512Y-98369834D01*
X179187396Y-98369734D01*
X179183735Y-98374765D01*
X178452833Y-99169548D01*
X178447664Y-99174552D01*
X178446201Y-99175812D01*
X178442786Y-99180181D01*
X178439584Y-99183955D01*
X178435827Y-99188041D01*
X178434822Y-99189691D01*
X178430724Y-99195612D01*
X177692522Y-100140059D01*
X177671832Y-100160887D01*
X176751375Y-100890191D01*
X176724690Y-100906331D01*
X175314380Y-101532549D01*
X175297637Y-101538586D01*
X173091399Y-102159223D01*
X173084845Y-102160689D01*
X165590616Y-103415673D01*
X165584787Y-103416367D01*
X162895440Y-103608338D01*
X162827169Y-103593477D01*
X162777771Y-103544065D01*
X162762928Y-103475790D01*
X162787354Y-103410329D01*
X162798923Y-103396979D01*
X167813815Y-98382087D01*
X167826180Y-98372183D01*
X167826006Y-98371973D01*
X167832012Y-98367003D01*
X167832018Y-98367000D01*
X167879999Y-98315904D01*
X167901134Y-98294770D01*
X167905463Y-98289187D01*
X167909242Y-98284763D01*
X167941586Y-98250321D01*
X167951423Y-98232424D01*
X167962097Y-98216174D01*
X167974613Y-98200041D01*
X167993372Y-98156689D01*
X167995933Y-98151462D01*
X168018695Y-98110060D01*
X168023774Y-98090274D01*
X168030072Y-98071882D01*
X168038181Y-98053145D01*
X168045568Y-98006501D01*
X168046748Y-98000794D01*
X168058500Y-97955030D01*
X168058500Y-97934609D01*
X168060027Y-97915209D01*
X168060283Y-97913596D01*
X168063219Y-97895057D01*
X168058775Y-97848040D01*
X168058500Y-97842203D01*
X168058500Y-97810765D01*
X168078185Y-97743726D01*
X168094814Y-97723089D01*
X169511584Y-96306318D01*
X169572907Y-96272834D01*
X169599265Y-96270000D01*
X170381997Y-96270000D01*
X170449036Y-96289685D01*
X170494791Y-96342489D01*
X170504735Y-96411647D01*
X170502888Y-96421592D01*
X170488189Y-96485992D01*
X170488189Y-96485993D01*
X170499021Y-96630532D01*
X170496920Y-96630689D01*
X170493405Y-96688139D01*
X170452110Y-96744499D01*
X170386899Y-96769587D01*
X170376784Y-96770000D01*
X169542000Y-96770000D01*
X169542000Y-97467844D01*
X169548401Y-97527372D01*
X169548403Y-97527379D01*
X169598645Y-97662086D01*
X169598649Y-97662093D01*
X169684809Y-97777187D01*
X169684812Y-97777190D01*
X169799906Y-97863350D01*
X169799913Y-97863354D01*
X169934620Y-97913596D01*
X169934627Y-97913598D01*
X169994155Y-97919999D01*
X169994172Y-97920000D01*
X170692000Y-97920000D01*
X170692000Y-97081821D01*
X170711685Y-97014782D01*
X170764489Y-96969027D01*
X170833647Y-96959083D01*
X170852547Y-96963329D01*
X170874173Y-96970000D01*
X170975723Y-96970000D01*
X170975724Y-96970000D01*
X171049519Y-96958877D01*
X171118742Y-96968350D01*
X171171857Y-97013744D01*
X171191997Y-97080648D01*
X171192000Y-97081492D01*
X171192000Y-97920000D01*
X171889828Y-97920000D01*
X171889844Y-97919999D01*
X171949372Y-97913598D01*
X171949379Y-97913596D01*
X172084086Y-97863354D01*
X172084093Y-97863350D01*
X172199187Y-97777190D01*
X172199190Y-97777187D01*
X172285350Y-97662093D01*
X172285354Y-97662086D01*
X172335596Y-97527379D01*
X172335598Y-97527372D01*
X172341999Y-97467844D01*
X172342000Y-97467827D01*
X172342000Y-96770000D01*
X171502003Y-96770000D01*
X171434964Y-96750315D01*
X171389209Y-96697511D01*
X171379265Y-96628353D01*
X171381112Y-96618408D01*
X171395810Y-96554007D01*
X171395810Y-96554006D01*
X171384979Y-96409468D01*
X171387079Y-96409310D01*
X171390595Y-96351861D01*
X171431890Y-96295501D01*
X171497101Y-96270413D01*
X171507216Y-96270000D01*
X172342000Y-96270000D01*
X172342000Y-95572172D01*
X172341999Y-95572155D01*
X172335598Y-95512627D01*
X172335596Y-95512620D01*
X172285354Y-95377913D01*
X172285350Y-95377906D01*
X172199190Y-95262812D01*
X172199187Y-95262809D01*
X172084093Y-95176649D01*
X172084086Y-95176645D01*
X172011823Y-95149693D01*
X171955889Y-95107822D01*
X171931472Y-95042357D01*
X171946324Y-94974084D01*
X171963927Y-94949528D01*
X172057313Y-94848084D01*
X172086248Y-94803796D01*
X172184984Y-94652669D01*
X172278749Y-94438907D01*
X172336051Y-94212626D01*
X172351666Y-94024179D01*
X172355327Y-93980005D01*
X172355327Y-93979994D01*
X172336051Y-93747377D01*
X172336051Y-93747374D01*
X172278749Y-93521093D01*
X172184984Y-93307331D01*
X172159023Y-93267594D01*
X172057313Y-93111915D01*
X171899223Y-92940185D01*
X171899222Y-92940184D01*
X171899220Y-92940182D01*
X171715017Y-92796810D01*
X171715015Y-92796809D01*
X171715014Y-92796808D01*
X171715011Y-92796806D01*
X171509733Y-92685716D01*
X171509730Y-92685715D01*
X171509727Y-92685713D01*
X171509721Y-92685711D01*
X171509719Y-92685710D01*
X171288954Y-92609920D01*
X171116271Y-92581105D01*
X171058712Y-92571500D01*
X170825288Y-92571500D01*
X170779240Y-92579184D01*
X170595045Y-92609920D01*
X170374280Y-92685710D01*
X170374266Y-92685716D01*
X170168988Y-92796806D01*
X170168985Y-92796808D01*
X169984781Y-92940181D01*
X169984776Y-92940185D01*
X169826686Y-93111915D01*
X169699015Y-93307331D01*
X169605251Y-93521092D01*
X169547948Y-93747377D01*
X169528673Y-93979994D01*
X169528673Y-93980005D01*
X169547948Y-94212622D01*
X169584305Y-94356193D01*
X169581680Y-94426013D01*
X169551780Y-94474314D01*
X167546094Y-96479999D01*
X167484771Y-96513484D01*
X167415079Y-96508500D01*
X167359146Y-96466628D01*
X167352690Y-96457115D01*
X167324176Y-96410584D01*
X167169969Y-96230031D01*
X167000318Y-96085135D01*
X166989413Y-96075821D01*
X166989410Y-96075820D01*
X166786962Y-95951759D01*
X166786959Y-95951757D01*
X166567596Y-95860895D01*
X166336714Y-95805465D01*
X166159177Y-95791492D01*
X166100000Y-95786835D01*
X166099999Y-95786835D01*
X165863285Y-95805465D01*
X165632404Y-95860895D01*
X165632402Y-95860895D01*
X165413040Y-95951757D01*
X165413037Y-95951759D01*
X165210589Y-96075820D01*
X165210586Y-96075821D01*
X165030031Y-96230031D01*
X164875821Y-96410586D01*
X164875820Y-96410589D01*
X164755281Y-96607290D01*
X164703469Y-96654165D01*
X164649554Y-96666500D01*
X161050446Y-96666500D01*
X160983407Y-96646815D01*
X160944719Y-96607290D01*
X160824179Y-96410589D01*
X160824178Y-96410586D01*
X160786166Y-96366080D01*
X160669969Y-96230031D01*
X160500318Y-96085135D01*
X160489413Y-96075821D01*
X160489410Y-96075820D01*
X160286962Y-95951759D01*
X160286959Y-95951757D01*
X160067596Y-95860895D01*
X159836714Y-95805465D01*
X159659177Y-95791492D01*
X159600000Y-95786835D01*
X159599999Y-95786835D01*
X159363285Y-95805465D01*
X159132404Y-95860895D01*
X159132402Y-95860895D01*
X158913040Y-95951757D01*
X158913037Y-95951759D01*
X158710589Y-96075820D01*
X158710586Y-96075821D01*
X158530031Y-96230031D01*
X158375821Y-96410586D01*
X158375820Y-96410589D01*
X158255281Y-96607290D01*
X158203469Y-96654165D01*
X158149554Y-96666500D01*
X143757500Y-96666500D01*
X143690461Y-96646815D01*
X143644706Y-96594011D01*
X143633832Y-96544030D01*
X143633745Y-96544036D01*
X143633708Y-96543459D01*
X143633500Y-96542500D01*
X143633500Y-96540147D01*
X143633500Y-96540144D01*
X143632614Y-96533141D01*
X143632157Y-96527322D01*
X143631722Y-96513484D01*
X143630674Y-96480111D01*
X143624976Y-96460499D01*
X143621033Y-96441466D01*
X143618474Y-96421203D01*
X143601085Y-96377286D01*
X143599196Y-96371766D01*
X143586018Y-96326407D01*
X143575626Y-96308835D01*
X143567066Y-96291362D01*
X143559552Y-96272383D01*
X143531794Y-96234179D01*
X143528587Y-96229296D01*
X143518873Y-96212871D01*
X143504542Y-96188638D01*
X143490108Y-96174204D01*
X143477471Y-96159409D01*
X143465472Y-96142893D01*
X143465470Y-96142890D01*
X143429073Y-96112781D01*
X143424751Y-96108847D01*
X139608335Y-92292430D01*
X139574850Y-92231107D01*
X139576242Y-92172654D01*
X139593541Y-92108094D01*
X139593542Y-92108089D01*
X139593543Y-92108087D01*
X139613498Y-91880000D01*
X139593543Y-91651913D01*
X139576240Y-91587341D01*
X139577904Y-91517491D01*
X139608333Y-91467569D01*
X143088815Y-87987087D01*
X143101180Y-87977183D01*
X143101006Y-87976973D01*
X143107012Y-87972003D01*
X143107018Y-87972000D01*
X143154999Y-87920904D01*
X143176135Y-87899769D01*
X143180458Y-87894195D01*
X143184257Y-87889747D01*
X143216585Y-87855322D01*
X143226420Y-87837432D01*
X143237098Y-87821174D01*
X143249614Y-87805040D01*
X143268374Y-87761686D01*
X143270935Y-87756458D01*
X143293695Y-87715060D01*
X143298774Y-87695274D01*
X143305077Y-87676871D01*
X143315299Y-87653251D01*
X143359990Y-87599544D01*
X143426623Y-87578525D01*
X143429099Y-87578500D01*
X144503638Y-87578500D01*
X144503654Y-87578499D01*
X144530692Y-87575591D01*
X144564201Y-87571989D01*
X144701204Y-87520889D01*
X144818261Y-87433261D01*
X144905889Y-87316204D01*
X144956989Y-87179201D01*
X144960591Y-87145692D01*
X144963499Y-87118654D01*
X144963500Y-87118637D01*
X144963500Y-84481362D01*
X144963499Y-84481345D01*
X144960157Y-84450270D01*
X144956989Y-84420799D01*
X144905889Y-84283796D01*
X144818261Y-84166739D01*
X144701204Y-84079111D01*
X144701203Y-84079110D01*
X144564203Y-84028011D01*
X144503654Y-84021500D01*
X144503638Y-84021500D01*
X140896362Y-84021500D01*
X140896345Y-84021500D01*
X140835797Y-84028011D01*
X140835795Y-84028011D01*
X140698795Y-84079111D01*
X140581739Y-84166739D01*
X140494111Y-84283795D01*
X140443011Y-84420795D01*
X140443011Y-84420797D01*
X140436500Y-84481345D01*
X140436500Y-87118654D01*
X140443011Y-87179202D01*
X140443011Y-87179204D01*
X140494110Y-87316204D01*
X140494111Y-87316204D01*
X140581739Y-87433261D01*
X140698796Y-87520889D01*
X140835799Y-87571989D01*
X140863050Y-87574918D01*
X140896345Y-87578499D01*
X140896362Y-87578500D01*
X141406234Y-87578500D01*
X141473273Y-87598185D01*
X141519028Y-87650989D01*
X141528972Y-87720147D01*
X141499947Y-87783703D01*
X141493915Y-87790181D01*
X138712429Y-90571664D01*
X138651106Y-90605149D01*
X138592655Y-90603758D01*
X138528087Y-90586457D01*
X138528085Y-90586456D01*
X138528081Y-90586456D01*
X138300002Y-90566502D01*
X138299998Y-90566502D01*
X138071918Y-90586456D01*
X138071910Y-90586457D01*
X137850761Y-90645714D01*
X137850750Y-90645718D01*
X137643254Y-90742475D01*
X137643252Y-90742476D01*
X137643249Y-90742477D01*
X137643251Y-90742477D01*
X137455700Y-90873802D01*
X137455698Y-90873803D01*
X137455695Y-90873806D01*
X137293806Y-91035695D01*
X137293803Y-91035698D01*
X137293802Y-91035700D01*
X137211767Y-91152856D01*
X137162476Y-91223252D01*
X137162475Y-91223254D01*
X137065718Y-91430750D01*
X137065714Y-91430761D01*
X137006457Y-91651910D01*
X137006456Y-91651918D01*
X136986502Y-91879998D01*
X136986502Y-91880001D01*
X137006456Y-92108081D01*
X137006457Y-92108089D01*
X137065714Y-92329238D01*
X137065718Y-92329249D01*
X137159473Y-92530307D01*
X137162477Y-92536749D01*
X137293802Y-92724300D01*
X137455700Y-92886198D01*
X137643251Y-93017523D01*
X137684407Y-93036714D01*
X137850750Y-93114281D01*
X137850752Y-93114281D01*
X137850757Y-93114284D01*
X138071913Y-93173543D01*
X138234832Y-93187796D01*
X138299998Y-93193498D01*
X138300000Y-93193498D01*
X138300002Y-93193498D01*
X138359013Y-93188335D01*
X138528087Y-93173543D01*
X138592657Y-93156241D01*
X138662506Y-93157904D01*
X138712431Y-93188335D01*
X142330181Y-96806085D01*
X142363666Y-96867408D01*
X142366500Y-96893766D01*
X142366500Y-97228393D01*
X142364304Y-97251628D01*
X142362725Y-97259903D01*
X142362725Y-97259906D01*
X142366378Y-97317981D01*
X142366500Y-97321852D01*
X142366500Y-103697500D01*
X142346815Y-103764539D01*
X142294011Y-103810294D01*
X142242500Y-103821500D01*
X141196345Y-103821500D01*
X141135797Y-103828011D01*
X141135795Y-103828011D01*
X140998795Y-103879111D01*
X140881739Y-103966739D01*
X140794111Y-104083795D01*
X140743011Y-104220795D01*
X140743011Y-104220797D01*
X140736500Y-104281345D01*
X140736500Y-106918654D01*
X140743011Y-106979202D01*
X140743011Y-106979204D01*
X140794110Y-107116204D01*
X140794111Y-107116204D01*
X140881739Y-107233261D01*
X140998796Y-107320889D01*
X141135799Y-107371989D01*
X141163050Y-107374918D01*
X141196345Y-107378499D01*
X141196362Y-107378500D01*
X144803638Y-107378500D01*
X144803654Y-107378499D01*
X144830692Y-107375591D01*
X144864201Y-107371989D01*
X145001204Y-107320889D01*
X145118261Y-107233261D01*
X145205889Y-107116204D01*
X145256989Y-106979201D01*
X145260976Y-106942119D01*
X145263499Y-106918654D01*
X145263500Y-106918637D01*
X145263500Y-104281362D01*
X145263499Y-104281345D01*
X145260157Y-104250270D01*
X145256989Y-104220799D01*
X145248162Y-104197134D01*
X145221635Y-104126013D01*
X145205889Y-104083796D01*
X145118261Y-103966739D01*
X145001204Y-103879111D01*
X145001204Y-103879110D01*
X144864203Y-103828011D01*
X144803654Y-103821500D01*
X144803638Y-103821500D01*
X143757500Y-103821500D01*
X143690461Y-103801815D01*
X143644706Y-103749011D01*
X143633500Y-103697500D01*
X143633500Y-99353472D01*
X143653185Y-99286433D01*
X143705989Y-99240678D01*
X143775147Y-99230734D01*
X143838703Y-99259759D01*
X143869882Y-99301068D01*
X143942475Y-99456745D01*
X143942477Y-99456749D01*
X144073802Y-99644300D01*
X144235700Y-99806198D01*
X144423251Y-99937523D01*
X144548091Y-99995736D01*
X144630750Y-100034281D01*
X144630752Y-100034281D01*
X144630757Y-100034284D01*
X144851913Y-100093543D01*
X145014832Y-100107796D01*
X145079998Y-100113498D01*
X145080000Y-100113498D01*
X145080002Y-100113498D01*
X145137021Y-100108509D01*
X145308087Y-100093543D01*
X145529243Y-100034284D01*
X145736749Y-99937523D01*
X145924300Y-99806198D01*
X146086198Y-99644300D01*
X146217523Y-99456749D01*
X146237617Y-99413655D01*
X146283790Y-99361215D01*
X146350983Y-99342063D01*
X146417864Y-99362278D01*
X146462382Y-99413655D01*
X146482477Y-99456749D01*
X146613802Y-99644300D01*
X146775700Y-99806198D01*
X146963251Y-99937523D01*
X147088091Y-99995736D01*
X147170750Y-100034281D01*
X147170752Y-100034281D01*
X147170757Y-100034284D01*
X147391913Y-100093543D01*
X147554832Y-100107796D01*
X147619998Y-100113498D01*
X147620000Y-100113498D01*
X147620002Y-100113498D01*
X147677021Y-100108509D01*
X147848087Y-100093543D01*
X148069243Y-100034284D01*
X148276749Y-99937523D01*
X148464300Y-99806198D01*
X148626198Y-99644300D01*
X148757523Y-99456749D01*
X148777617Y-99413655D01*
X148823790Y-99361215D01*
X148890983Y-99342063D01*
X148957864Y-99362278D01*
X149002382Y-99413655D01*
X149022477Y-99456749D01*
X149153802Y-99644300D01*
X149315700Y-99806198D01*
X149473625Y-99916779D01*
X149517249Y-99971354D01*
X149526500Y-100018352D01*
X149526500Y-134526232D01*
X149506815Y-134593271D01*
X149490181Y-134613913D01*
X138312429Y-145791664D01*
X138251106Y-145825149D01*
X138192655Y-145823758D01*
X138128087Y-145806457D01*
X138128085Y-145806456D01*
X138128081Y-145806456D01*
X137900002Y-145786502D01*
X137899998Y-145786502D01*
X137671918Y-145806456D01*
X137671907Y-145806458D01*
X137564593Y-145835213D01*
X137494743Y-145833550D01*
X137436881Y-145794387D01*
X137409377Y-145730159D01*
X137408500Y-145715438D01*
X137408500Y-142723317D01*
X137428185Y-142656278D01*
X137480989Y-142610523D01*
X137543307Y-142599789D01*
X137658736Y-142609887D01*
X137699999Y-142613498D01*
X137700000Y-142613498D01*
X137700002Y-142613498D01*
X137757021Y-142608509D01*
X137928087Y-142593543D01*
X138149243Y-142534284D01*
X138356749Y-142437523D01*
X138544300Y-142306198D01*
X138706198Y-142144300D01*
X138837523Y-141956749D01*
X138934284Y-141749243D01*
X138993543Y-141528087D01*
X139013498Y-141300000D01*
X138993543Y-141071913D01*
X138934284Y-140850757D01*
X138837523Y-140643251D01*
X138706198Y-140455700D01*
X138544300Y-140293802D01*
X138356749Y-140162477D01*
X138356745Y-140162475D01*
X138149249Y-140065718D01*
X138149238Y-140065714D01*
X137928089Y-140006457D01*
X137928081Y-140006456D01*
X137700002Y-139986502D01*
X137699998Y-139986502D01*
X137471918Y-140006456D01*
X137471910Y-140006457D01*
X137250761Y-140065714D01*
X137250750Y-140065718D01*
X137043254Y-140162475D01*
X137043252Y-140162476D01*
X137043249Y-140162477D01*
X137043251Y-140162477D01*
X136855700Y-140293802D01*
X136855698Y-140293803D01*
X136855695Y-140293806D01*
X136693806Y-140455695D01*
X136562476Y-140643252D01*
X136562475Y-140643254D01*
X136465718Y-140850750D01*
X136465714Y-140850761D01*
X136406457Y-141071910D01*
X136406456Y-141071918D01*
X136386502Y-141299998D01*
X136386502Y-141300001D01*
X136406456Y-141528081D01*
X136406458Y-141528091D01*
X136423758Y-141592655D01*
X136422095Y-141662504D01*
X136391664Y-141712429D01*
X136386179Y-141717914D01*
X136373820Y-141727816D01*
X136373994Y-141728026D01*
X136367985Y-141732997D01*
X136320015Y-141784079D01*
X136298872Y-141805222D01*
X136298857Y-141805239D01*
X136294531Y-141810814D01*
X136290747Y-141815244D01*
X136258419Y-141849671D01*
X136258412Y-141849681D01*
X136248579Y-141867567D01*
X136237903Y-141883820D01*
X136225386Y-141899957D01*
X136225385Y-141899959D01*
X136206625Y-141943310D01*
X136204055Y-141948556D01*
X136181303Y-141989941D01*
X136181303Y-141989942D01*
X136176225Y-142009720D01*
X136169925Y-142028122D01*
X136161818Y-142046857D01*
X136154431Y-142093495D01*
X136153246Y-142099216D01*
X136141500Y-142144965D01*
X136141500Y-142165384D01*
X136139973Y-142184783D01*
X136136780Y-142204941D01*
X136136780Y-142204942D01*
X136141225Y-142251966D01*
X136141500Y-142257804D01*
X136141500Y-147482357D01*
X136139761Y-147498104D01*
X136140032Y-147498130D01*
X136139298Y-147505896D01*
X136141500Y-147575948D01*
X136141500Y-147605850D01*
X136142384Y-147612847D01*
X136142842Y-147618670D01*
X136144326Y-147665880D01*
X136144327Y-147665882D01*
X136150022Y-147685486D01*
X136153967Y-147704533D01*
X136156526Y-147724788D01*
X136156527Y-147724791D01*
X136156528Y-147724794D01*
X136173914Y-147768707D01*
X136175806Y-147774235D01*
X136188981Y-147819583D01*
X136199372Y-147837153D01*
X136207932Y-147854626D01*
X136215447Y-147873608D01*
X136243209Y-147911818D01*
X136246418Y-147916703D01*
X136262738Y-147944300D01*
X136270458Y-147957353D01*
X136270462Y-147957357D01*
X136284889Y-147971784D01*
X136297526Y-147986579D01*
X136309528Y-148003098D01*
X136345931Y-148033213D01*
X136350231Y-148037126D01*
X136647386Y-148334281D01*
X136926919Y-148613814D01*
X136936825Y-148626178D01*
X136937035Y-148626005D01*
X136942010Y-148632019D01*
X136993103Y-148679999D01*
X137014234Y-148701129D01*
X137014239Y-148701134D01*
X137019811Y-148705456D01*
X137024251Y-148709249D01*
X137058687Y-148741586D01*
X137076576Y-148751420D01*
X137092842Y-148762104D01*
X137108968Y-148774613D01*
X137152307Y-148793367D01*
X137157554Y-148795937D01*
X137198949Y-148818695D01*
X137218727Y-148823773D01*
X137237130Y-148830074D01*
X137255861Y-148838180D01*
X137255862Y-148838180D01*
X137255864Y-148838181D01*
X137283259Y-148842519D01*
X137302506Y-148845568D01*
X137308222Y-148846751D01*
X137353979Y-148858500D01*
X137374399Y-148858500D01*
X137393798Y-148860027D01*
X137413950Y-148863218D01*
X137413951Y-148863219D01*
X137413951Y-148863218D01*
X137413952Y-148863219D01*
X137460967Y-148858775D01*
X137466805Y-148858500D01*
X138282357Y-148858500D01*
X138298104Y-148860238D01*
X138298130Y-148859968D01*
X138305896Y-148860701D01*
X138305900Y-148860702D01*
X138375949Y-148858500D01*
X138405847Y-148858500D01*
X138405848Y-148858500D01*
X138407213Y-148858327D01*
X138412853Y-148857614D01*
X138418676Y-148857156D01*
X138444699Y-148856338D01*
X138465881Y-148855673D01*
X138475672Y-148852827D01*
X138485472Y-148849980D01*
X138504529Y-148846032D01*
X138524788Y-148843474D01*
X138568712Y-148826082D01*
X138574212Y-148824199D01*
X138619584Y-148811018D01*
X138637156Y-148800625D01*
X138654623Y-148792068D01*
X138673608Y-148784552D01*
X138711817Y-148756790D01*
X138716695Y-148753585D01*
X138757353Y-148729542D01*
X138771793Y-148715100D01*
X138786583Y-148702470D01*
X138803098Y-148690472D01*
X138833213Y-148654067D01*
X138837117Y-148649776D01*
X140386892Y-147100001D01*
X149286502Y-147100001D01*
X149306456Y-147328081D01*
X149306457Y-147328089D01*
X149365714Y-147549238D01*
X149365718Y-147549249D01*
X149433614Y-147694852D01*
X149462477Y-147756749D01*
X149593802Y-147944300D01*
X149755700Y-148106198D01*
X149943251Y-148237523D01*
X150068091Y-148295736D01*
X150150750Y-148334281D01*
X150150752Y-148334281D01*
X150150757Y-148334284D01*
X150371913Y-148393543D01*
X150534832Y-148407796D01*
X150599998Y-148413498D01*
X150600000Y-148413498D01*
X150600002Y-148413498D01*
X150657021Y-148408509D01*
X150828087Y-148393543D01*
X151049243Y-148334284D01*
X151256749Y-148237523D01*
X151444300Y-148106198D01*
X151606198Y-147944300D01*
X151737523Y-147756749D01*
X151834284Y-147549243D01*
X151893543Y-147328087D01*
X151913498Y-147100000D01*
X151893543Y-146871913D01*
X151834284Y-146650757D01*
X151737523Y-146443251D01*
X151606198Y-146255700D01*
X151444300Y-146093802D01*
X151256749Y-145962477D01*
X151256745Y-145962475D01*
X151049249Y-145865718D01*
X151049238Y-145865714D01*
X150828089Y-145806457D01*
X150828081Y-145806456D01*
X150600002Y-145786502D01*
X150599998Y-145786502D01*
X150371918Y-145806456D01*
X150371910Y-145806457D01*
X150150761Y-145865714D01*
X150150750Y-145865718D01*
X149943254Y-145962475D01*
X149943252Y-145962476D01*
X149943249Y-145962477D01*
X149943251Y-145962477D01*
X149755700Y-146093802D01*
X149755698Y-146093803D01*
X149755695Y-146093806D01*
X149593806Y-146255695D01*
X149462476Y-146443252D01*
X149462475Y-146443254D01*
X149365718Y-146650750D01*
X149365714Y-146650761D01*
X149306457Y-146871910D01*
X149306456Y-146871918D01*
X149286502Y-147099998D01*
X149286502Y-147100001D01*
X140386892Y-147100001D01*
X146186893Y-141300001D01*
X149086502Y-141300001D01*
X149106456Y-141528081D01*
X149106457Y-141528089D01*
X149165714Y-141749238D01*
X149165718Y-141749249D01*
X149262475Y-141956745D01*
X149262477Y-141956749D01*
X149393802Y-142144300D01*
X149555700Y-142306198D01*
X149743251Y-142437523D01*
X149868091Y-142495736D01*
X149950750Y-142534281D01*
X149950752Y-142534281D01*
X149950757Y-142534284D01*
X150171913Y-142593543D01*
X150334832Y-142607796D01*
X150399998Y-142613498D01*
X150400000Y-142613498D01*
X150400002Y-142613498D01*
X150457021Y-142608509D01*
X150628087Y-142593543D01*
X150849243Y-142534284D01*
X151056749Y-142437523D01*
X151244300Y-142306198D01*
X151406198Y-142144300D01*
X151537523Y-141956749D01*
X151634284Y-141749243D01*
X151693543Y-141528087D01*
X151713498Y-141300000D01*
X151693543Y-141071913D01*
X151634284Y-140850757D01*
X151537523Y-140643251D01*
X151406198Y-140455700D01*
X151244300Y-140293802D01*
X151056749Y-140162477D01*
X151056745Y-140162475D01*
X150849249Y-140065718D01*
X150849238Y-140065714D01*
X150628089Y-140006457D01*
X150628081Y-140006456D01*
X150400002Y-139986502D01*
X150399998Y-139986502D01*
X150171918Y-140006456D01*
X150171910Y-140006457D01*
X149950761Y-140065714D01*
X149950750Y-140065718D01*
X149743254Y-140162475D01*
X149743252Y-140162476D01*
X149743249Y-140162477D01*
X149743251Y-140162477D01*
X149555700Y-140293802D01*
X149555698Y-140293803D01*
X149555695Y-140293806D01*
X149393806Y-140455695D01*
X149262476Y-140643252D01*
X149262475Y-140643254D01*
X149165718Y-140850750D01*
X149165714Y-140850761D01*
X149106457Y-141071910D01*
X149106456Y-141071918D01*
X149086502Y-141299998D01*
X149086502Y-141300001D01*
X146186893Y-141300001D01*
X151988817Y-135498077D01*
X152001178Y-135488176D01*
X152001004Y-135487966D01*
X152007013Y-135482993D01*
X152007018Y-135482991D01*
X152054983Y-135431912D01*
X152076135Y-135410761D01*
X152080461Y-135405183D01*
X152084250Y-135400746D01*
X152116586Y-135366312D01*
X152126419Y-135348423D01*
X152137102Y-135332160D01*
X152149614Y-135316032D01*
X152168371Y-135272682D01*
X152170941Y-135267438D01*
X152193693Y-135226055D01*
X152193693Y-135226054D01*
X152193695Y-135226051D01*
X152198774Y-135206264D01*
X152205070Y-135187876D01*
X152213181Y-135169136D01*
X152220569Y-135122488D01*
X152221751Y-135116777D01*
X152233500Y-135071021D01*
X152233500Y-135050605D01*
X152235027Y-135031205D01*
X152238220Y-135011048D01*
X152233775Y-134964024D01*
X152233500Y-134958186D01*
X152233500Y-107029800D01*
X152253185Y-106962761D01*
X152269814Y-106942124D01*
X153976812Y-105235126D01*
X154038133Y-105201643D01*
X154107825Y-105206627D01*
X154163758Y-105248499D01*
X154188175Y-105313963D01*
X154188486Y-105323894D01*
X153931390Y-134716561D01*
X153931315Y-134717289D01*
X153931201Y-134738285D01*
X153931014Y-134759699D01*
X153931082Y-134760438D01*
X153768085Y-165000468D01*
X153748040Y-165067401D01*
X153746944Y-165069056D01*
X153165012Y-165933326D01*
X153116628Y-165975464D01*
X152297871Y-166375844D01*
X152258449Y-166387533D01*
X151440791Y-166487517D01*
X151432143Y-166487966D01*
X144256335Y-166359128D01*
X137586192Y-165942652D01*
X137520509Y-165918828D01*
X137478134Y-165863275D01*
X137471582Y-165839132D01*
X137043875Y-163253844D01*
X146936000Y-163253844D01*
X146942401Y-163313372D01*
X146942403Y-163313379D01*
X146992645Y-163448086D01*
X146992649Y-163448093D01*
X147078809Y-163563187D01*
X147078812Y-163563190D01*
X147193906Y-163649350D01*
X147193913Y-163649354D01*
X147328620Y-163699596D01*
X147328627Y-163699598D01*
X147388155Y-163705999D01*
X147388172Y-163706000D01*
X148086000Y-163706000D01*
X148086000Y-162867821D01*
X148105685Y-162800782D01*
X148158489Y-162755027D01*
X148227647Y-162745083D01*
X148246547Y-162749329D01*
X148268173Y-162756000D01*
X148369723Y-162756000D01*
X148369724Y-162756000D01*
X148443519Y-162744877D01*
X148512742Y-162754350D01*
X148565857Y-162799744D01*
X148585997Y-162866648D01*
X148586000Y-162867492D01*
X148586000Y-163706000D01*
X149283828Y-163706000D01*
X149283844Y-163705999D01*
X149343372Y-163699598D01*
X149343379Y-163699596D01*
X149478086Y-163649354D01*
X149478093Y-163649350D01*
X149593187Y-163563190D01*
X149593190Y-163563187D01*
X149679350Y-163448093D01*
X149679355Y-163448084D01*
X149704940Y-163379486D01*
X149746810Y-163323552D01*
X149812274Y-163299134D01*
X149880547Y-163313985D01*
X149912349Y-163338832D01*
X149918780Y-163345818D01*
X150102983Y-163489190D01*
X150102985Y-163489191D01*
X150102988Y-163489193D01*
X150222331Y-163553777D01*
X150308273Y-163600287D01*
X150422914Y-163639643D01*
X150529045Y-163676079D01*
X150529047Y-163676079D01*
X150529049Y-163676080D01*
X150759288Y-163714500D01*
X150759289Y-163714500D01*
X150992711Y-163714500D01*
X150992712Y-163714500D01*
X151222951Y-163676080D01*
X151443727Y-163600287D01*
X151649017Y-163489190D01*
X151833220Y-163345818D01*
X151991314Y-163174083D01*
X152118984Y-162978669D01*
X152212749Y-162764907D01*
X152270051Y-162538626D01*
X152289327Y-162306000D01*
X152270051Y-162073374D01*
X152212749Y-161847093D01*
X152118984Y-161633331D01*
X151991314Y-161437917D01*
X151991313Y-161437915D01*
X151833223Y-161266185D01*
X151833222Y-161266184D01*
X151833220Y-161266182D01*
X151649017Y-161122810D01*
X151649015Y-161122809D01*
X151649014Y-161122808D01*
X151649011Y-161122806D01*
X151443733Y-161011716D01*
X151443730Y-161011715D01*
X151443727Y-161011713D01*
X151443721Y-161011711D01*
X151443719Y-161011710D01*
X151222954Y-160935920D01*
X151043650Y-160906000D01*
X150992712Y-160897500D01*
X150759288Y-160897500D01*
X150713240Y-160905184D01*
X150529045Y-160935920D01*
X150308280Y-161011710D01*
X150308266Y-161011716D01*
X150102988Y-161122806D01*
X150102985Y-161122808D01*
X149918781Y-161266181D01*
X149918776Y-161266185D01*
X149912346Y-161273170D01*
X149852457Y-161309157D01*
X149782619Y-161307052D01*
X149725005Y-161267524D01*
X149704940Y-161232513D01*
X149679355Y-161163915D01*
X149679350Y-161163906D01*
X149593190Y-161048812D01*
X149593187Y-161048809D01*
X149478093Y-160962649D01*
X149478086Y-160962645D01*
X149343379Y-160912403D01*
X149343372Y-160912401D01*
X149283844Y-160906000D01*
X148586000Y-160906000D01*
X148586000Y-161744178D01*
X148566315Y-161811217D01*
X148513511Y-161856972D01*
X148444353Y-161866916D01*
X148425454Y-161862670D01*
X148403829Y-161856000D01*
X148403827Y-161856000D01*
X148302276Y-161856000D01*
X148302268Y-161856000D01*
X148228481Y-161867122D01*
X148159256Y-161857649D01*
X148106143Y-161812254D01*
X148086003Y-161745350D01*
X148086000Y-161744507D01*
X148086000Y-160906000D01*
X147388155Y-160906000D01*
X147328627Y-160912401D01*
X147328620Y-160912403D01*
X147193913Y-160962645D01*
X147193906Y-160962649D01*
X147078812Y-161048809D01*
X147078809Y-161048812D01*
X146992649Y-161163906D01*
X146992645Y-161163913D01*
X146942403Y-161298620D01*
X146942401Y-161298627D01*
X146936000Y-161358155D01*
X146936000Y-162056000D01*
X147775997Y-162056000D01*
X147843036Y-162075685D01*
X147888791Y-162128489D01*
X147898735Y-162197647D01*
X147896888Y-162207592D01*
X147882189Y-162271992D01*
X147882189Y-162271993D01*
X147893021Y-162416532D01*
X147890920Y-162416689D01*
X147887405Y-162474139D01*
X147846110Y-162530499D01*
X147780899Y-162555587D01*
X147770784Y-162556000D01*
X146936000Y-162556000D01*
X146936000Y-163253844D01*
X137043875Y-163253844D01*
X136588318Y-160500213D01*
X136587895Y-160497183D01*
X134192690Y-139551714D01*
X133703940Y-135210000D01*
X140745000Y-135210000D01*
X140745000Y-136277844D01*
X140751401Y-136337372D01*
X140751403Y-136337379D01*
X140801645Y-136472086D01*
X140801649Y-136472093D01*
X140887809Y-136587187D01*
X140887812Y-136587190D01*
X141002906Y-136673350D01*
X141002913Y-136673354D01*
X141137620Y-136723596D01*
X141137627Y-136723598D01*
X141197155Y-136729999D01*
X141197172Y-136730000D01*
X142750000Y-136730000D01*
X142750000Y-135210000D01*
X143250000Y-135210000D01*
X143250000Y-136730000D01*
X144802828Y-136730000D01*
X144802844Y-136729999D01*
X144862372Y-136723598D01*
X144862379Y-136723596D01*
X144997086Y-136673354D01*
X144997093Y-136673350D01*
X145112187Y-136587190D01*
X145112190Y-136587187D01*
X145198350Y-136472093D01*
X145198354Y-136472086D01*
X145248596Y-136337379D01*
X145248598Y-136337372D01*
X145254999Y-136277844D01*
X145255000Y-136277827D01*
X145255000Y-135210000D01*
X143250000Y-135210000D01*
X142750000Y-135210000D01*
X140745000Y-135210000D01*
X133703940Y-135210000D01*
X133647655Y-134710000D01*
X140745000Y-134710000D01*
X142750000Y-134710000D01*
X142750000Y-133190000D01*
X143250000Y-133190000D01*
X143250000Y-134710000D01*
X145255000Y-134710000D01*
X145255000Y-133642172D01*
X145254999Y-133642155D01*
X145248598Y-133582627D01*
X145248596Y-133582620D01*
X145198354Y-133447913D01*
X145198350Y-133447906D01*
X145112190Y-133332812D01*
X145112187Y-133332809D01*
X144997093Y-133246649D01*
X144997086Y-133246645D01*
X144862379Y-133196403D01*
X144862372Y-133196401D01*
X144802844Y-133190000D01*
X143250000Y-133190000D01*
X142750000Y-133190000D01*
X141197155Y-133190000D01*
X141137627Y-133196401D01*
X141137620Y-133196403D01*
X141002913Y-133246645D01*
X141002906Y-133246649D01*
X140887812Y-133332809D01*
X140887809Y-133332812D01*
X140801649Y-133447906D01*
X140801645Y-133447913D01*
X140751403Y-133582620D01*
X140751401Y-133582627D01*
X140745000Y-133642155D01*
X140745000Y-134710000D01*
X133647655Y-134710000D01*
X131088532Y-111976517D01*
X131088509Y-111975086D01*
X131086060Y-111954555D01*
X131083751Y-111934041D01*
X131083446Y-111932637D01*
X130288927Y-105269798D01*
X130288495Y-105263215D01*
X130288454Y-105259948D01*
X130288455Y-105259943D01*
X130287423Y-105255071D01*
X130286516Y-105249585D01*
X130285925Y-105244626D01*
X130285924Y-105244624D01*
X130285924Y-105244623D01*
X130284908Y-105241505D01*
X130283203Y-105235148D01*
X130103716Y-104387683D01*
X130102691Y-104370747D01*
X130100410Y-104363502D01*
X130100411Y-104363502D01*
X130095752Y-104348702D01*
X130094238Y-104342932D01*
X130093282Y-104338417D01*
X130092308Y-104336146D01*
X130091116Y-104333971D01*
X130091115Y-104333967D01*
X130088135Y-104330412D01*
X130084531Y-104325665D01*
X130075764Y-104312889D01*
X130075763Y-104312888D01*
X130071468Y-104306630D01*
X130058771Y-104295382D01*
X129996250Y-104220797D01*
X129870686Y-104071003D01*
X129806890Y-103994896D01*
X129801052Y-103983291D01*
X129800492Y-103983698D01*
X129786014Y-103963727D01*
X129786014Y-103963726D01*
X129786013Y-103963725D01*
X129786012Y-103963724D01*
X129780952Y-103960616D01*
X129774561Y-103956113D01*
X129774010Y-103955670D01*
X129768608Y-103952855D01*
X129764811Y-103950703D01*
X129759630Y-103947520D01*
X129758942Y-103947266D01*
X129751827Y-103944109D01*
X129749451Y-103942871D01*
X129746550Y-103941359D01*
X129721987Y-103939199D01*
X129722047Y-103938511D01*
X129709092Y-103939463D01*
X118171288Y-102100001D01*
X129986502Y-102100001D01*
X130006456Y-102328081D01*
X130006457Y-102328089D01*
X130065714Y-102549238D01*
X130065718Y-102549249D01*
X130162475Y-102756745D01*
X130162477Y-102756749D01*
X130293802Y-102944300D01*
X130455700Y-103106198D01*
X130643251Y-103237523D01*
X130768091Y-103295736D01*
X130850750Y-103334281D01*
X130850752Y-103334281D01*
X130850757Y-103334284D01*
X131071913Y-103393543D01*
X131234832Y-103407796D01*
X131299998Y-103413498D01*
X131300000Y-103413498D01*
X131300002Y-103413498D01*
X131357021Y-103408509D01*
X131528087Y-103393543D01*
X131749243Y-103334284D01*
X131956749Y-103237523D01*
X132144300Y-103106198D01*
X132306198Y-102944300D01*
X132437523Y-102756749D01*
X132534284Y-102549243D01*
X132593543Y-102328087D01*
X132613498Y-102100000D01*
X132593543Y-101871913D01*
X132534284Y-101650757D01*
X132437523Y-101443251D01*
X132306198Y-101255700D01*
X132144300Y-101093802D01*
X131956749Y-100962477D01*
X131956745Y-100962475D01*
X131749249Y-100865718D01*
X131749238Y-100865714D01*
X131528089Y-100806457D01*
X131528081Y-100806456D01*
X131300002Y-100786502D01*
X131299998Y-100786502D01*
X131071918Y-100806456D01*
X131071910Y-100806457D01*
X130850761Y-100865714D01*
X130850750Y-100865718D01*
X130643254Y-100962475D01*
X130643252Y-100962476D01*
X130610245Y-100985588D01*
X130455700Y-101093802D01*
X130455698Y-101093803D01*
X130455695Y-101093806D01*
X130293806Y-101255695D01*
X130162476Y-101443252D01*
X130162475Y-101443254D01*
X130065718Y-101650750D01*
X130065714Y-101650761D01*
X130006457Y-101871910D01*
X130006456Y-101871918D01*
X129986502Y-102099998D01*
X129986502Y-102100001D01*
X118171288Y-102100001D01*
X114339905Y-101489167D01*
X114337652Y-101488591D01*
X114318446Y-101485746D01*
X114299123Y-101482666D01*
X114296776Y-101482538D01*
X106637626Y-100348654D01*
X136991500Y-100348654D01*
X136998011Y-100409202D01*
X136998011Y-100409204D01*
X137049110Y-100546203D01*
X137049111Y-100546204D01*
X137136739Y-100663261D01*
X137253796Y-100750889D01*
X137390799Y-100801989D01*
X137418050Y-100804918D01*
X137451345Y-100808499D01*
X137451362Y-100808500D01*
X139148638Y-100808500D01*
X139148654Y-100808499D01*
X139175692Y-100805591D01*
X139209201Y-100801989D01*
X139346204Y-100750889D01*
X139463261Y-100663261D01*
X139550889Y-100546204D01*
X139601989Y-100409201D01*
X139605607Y-100375551D01*
X139608499Y-100348654D01*
X139608500Y-100348637D01*
X139608500Y-98651362D01*
X139608499Y-98651345D01*
X139605157Y-98620270D01*
X139601989Y-98590799D01*
X139584299Y-98543372D01*
X139562090Y-98483827D01*
X139550889Y-98453796D01*
X139463261Y-98336739D01*
X139346204Y-98249111D01*
X139339276Y-98246527D01*
X139209203Y-98198011D01*
X139148654Y-98191500D01*
X139148638Y-98191500D01*
X137451362Y-98191500D01*
X137451345Y-98191500D01*
X137390797Y-98198011D01*
X137390795Y-98198011D01*
X137253795Y-98249111D01*
X137136739Y-98336739D01*
X137049111Y-98453795D01*
X136998011Y-98590795D01*
X136998011Y-98590797D01*
X136991500Y-98651345D01*
X136991500Y-100348654D01*
X106637626Y-100348654D01*
X101583401Y-99600411D01*
X101576148Y-99598758D01*
X101571567Y-99598276D01*
X101562646Y-99597338D01*
X101553759Y-99596023D01*
X101553758Y-99596023D01*
X101549223Y-99595352D01*
X101541775Y-99595145D01*
X97450040Y-99165232D01*
X97443535Y-99164197D01*
X97439554Y-99163344D01*
X97436828Y-99163304D01*
X97434085Y-99163556D01*
X97430199Y-99164708D01*
X97423793Y-99166240D01*
X96508871Y-99334289D01*
X96489240Y-99337014D01*
X96482434Y-99341007D01*
X96476381Y-99346633D01*
X96471902Y-99353127D01*
X96467753Y-99372494D01*
X96212989Y-100350627D01*
X96211210Y-100356320D01*
X96209552Y-100360845D01*
X96208871Y-100365212D01*
X96207612Y-100371274D01*
X96206498Y-100375551D01*
X96206217Y-100380350D01*
X96205581Y-100386289D01*
X94974323Y-108275488D01*
X93987183Y-114465520D01*
X93986130Y-114470696D01*
X93128631Y-117924924D01*
X93119463Y-117949959D01*
X92658275Y-118883741D01*
X92637348Y-118913863D01*
X92120979Y-119461922D01*
X92068091Y-119495126D01*
X90598823Y-119959433D01*
X90562368Y-119965193D01*
X85503245Y-120002275D01*
X85499480Y-120002189D01*
X85186159Y-119985436D01*
X81488745Y-119787748D01*
X81422852Y-119764512D01*
X81379981Y-119709341D01*
X81371367Y-119664703D01*
X81294232Y-107371989D01*
X81223000Y-96019863D01*
X81228002Y-94996005D01*
X87486673Y-94996005D01*
X87505948Y-95228622D01*
X87505948Y-95228625D01*
X87505949Y-95228626D01*
X87543752Y-95377906D01*
X87563251Y-95454907D01*
X87657015Y-95668668D01*
X87784683Y-95864080D01*
X87878073Y-95965528D01*
X87908995Y-96028183D01*
X87901135Y-96097609D01*
X87856988Y-96151764D01*
X87830177Y-96165693D01*
X87757911Y-96192646D01*
X87757906Y-96192649D01*
X87642812Y-96278809D01*
X87642809Y-96278812D01*
X87556649Y-96393906D01*
X87556645Y-96393913D01*
X87506403Y-96528620D01*
X87506401Y-96528627D01*
X87500000Y-96588155D01*
X87500000Y-96588172D01*
X87499999Y-97285999D01*
X87500000Y-97286000D01*
X88339997Y-97286000D01*
X88407036Y-97305685D01*
X88452791Y-97358489D01*
X88462735Y-97427647D01*
X88460888Y-97437592D01*
X88446189Y-97501992D01*
X88446189Y-97501993D01*
X88457021Y-97646532D01*
X88454920Y-97646689D01*
X88451405Y-97704139D01*
X88410110Y-97760499D01*
X88344899Y-97785587D01*
X88334784Y-97786000D01*
X87500000Y-97786000D01*
X87500000Y-98483844D01*
X87506401Y-98543372D01*
X87506403Y-98543379D01*
X87556645Y-98678086D01*
X87556649Y-98678093D01*
X87642809Y-98793187D01*
X87642812Y-98793190D01*
X87757906Y-98879350D01*
X87757913Y-98879354D01*
X87892620Y-98929596D01*
X87892627Y-98929598D01*
X87952155Y-98935999D01*
X87952172Y-98936000D01*
X88650000Y-98936000D01*
X88650000Y-98097821D01*
X88669685Y-98030782D01*
X88722489Y-97985027D01*
X88791647Y-97975083D01*
X88810547Y-97979329D01*
X88832173Y-97986000D01*
X88933723Y-97986000D01*
X88933724Y-97986000D01*
X89007519Y-97974877D01*
X89076742Y-97984350D01*
X89129857Y-98029744D01*
X89149997Y-98096648D01*
X89150000Y-98097492D01*
X89150000Y-98936000D01*
X89847828Y-98936000D01*
X89847844Y-98935999D01*
X89907372Y-98929598D01*
X89907379Y-98929596D01*
X90042086Y-98879354D01*
X90042093Y-98879350D01*
X90157187Y-98793190D01*
X90157190Y-98793187D01*
X90243350Y-98678093D01*
X90243354Y-98678086D01*
X90293596Y-98543379D01*
X90293598Y-98543372D01*
X90299999Y-98483844D01*
X90300000Y-98483827D01*
X90300000Y-97786000D01*
X89460003Y-97786000D01*
X89392964Y-97766315D01*
X89347209Y-97713511D01*
X89337265Y-97644353D01*
X89339112Y-97634408D01*
X89349555Y-97588646D01*
X89353810Y-97570008D01*
X89352720Y-97555466D01*
X89342979Y-97425468D01*
X89345079Y-97425310D01*
X89348595Y-97367861D01*
X89389890Y-97311501D01*
X89455101Y-97286413D01*
X89465216Y-97286000D01*
X90300000Y-97286000D01*
X90300000Y-96588172D01*
X90299999Y-96588155D01*
X90293598Y-96528627D01*
X90293596Y-96528620D01*
X90243354Y-96393913D01*
X90243350Y-96393906D01*
X90157190Y-96278812D01*
X90157187Y-96278809D01*
X90042093Y-96192649D01*
X90042086Y-96192645D01*
X89969823Y-96165693D01*
X89913889Y-96123822D01*
X89889472Y-96058357D01*
X89904324Y-95990084D01*
X89921927Y-95965528D01*
X89982245Y-95900005D01*
X94956844Y-95900005D01*
X94975434Y-96124359D01*
X94975436Y-96124371D01*
X95030703Y-96342614D01*
X95121140Y-96548792D01*
X95244276Y-96737265D01*
X95244284Y-96737276D01*
X95396756Y-96902902D01*
X95396761Y-96902907D01*
X95455981Y-96949000D01*
X95574424Y-97041189D01*
X95574425Y-97041189D01*
X95574427Y-97041191D01*
X95685195Y-97101135D01*
X95772426Y-97148342D01*
X95985365Y-97221444D01*
X96207431Y-97258500D01*
X96432569Y-97258500D01*
X96654635Y-97221444D01*
X96654637Y-97221443D01*
X96658864Y-97220373D01*
X96728684Y-97222994D01*
X96776991Y-97252896D01*
X96987912Y-97463817D01*
X96997819Y-97476183D01*
X96998029Y-97476010D01*
X97002996Y-97482015D01*
X97054079Y-97529984D01*
X97075224Y-97551130D01*
X97080813Y-97555466D01*
X97085245Y-97559252D01*
X97106853Y-97579542D01*
X97119680Y-97591587D01*
X97137562Y-97601417D01*
X97153829Y-97612102D01*
X97169960Y-97624615D01*
X97191838Y-97634081D01*
X97213307Y-97643371D01*
X97218533Y-97645931D01*
X97259940Y-97668695D01*
X97279716Y-97673772D01*
X97298124Y-97680075D01*
X97316850Y-97688179D01*
X97316852Y-97688180D01*
X97316853Y-97688180D01*
X97316855Y-97688181D01*
X97357784Y-97694663D01*
X97363503Y-97695569D01*
X97369212Y-97696751D01*
X97414970Y-97708500D01*
X97435384Y-97708500D01*
X97454783Y-97710027D01*
X97474943Y-97713220D01*
X97521965Y-97708775D01*
X97527804Y-97708500D01*
X123541366Y-97708500D01*
X123557113Y-97710238D01*
X123557139Y-97709968D01*
X123564905Y-97710701D01*
X123564909Y-97710702D01*
X123634958Y-97708500D01*
X123664856Y-97708500D01*
X123664857Y-97708500D01*
X123666222Y-97708327D01*
X123671862Y-97707614D01*
X123677685Y-97707156D01*
X123703708Y-97706338D01*
X123724890Y-97705673D01*
X123736635Y-97702260D01*
X123744481Y-97699980D01*
X123763538Y-97696032D01*
X123783797Y-97693474D01*
X123827721Y-97676082D01*
X123833221Y-97674199D01*
X123878593Y-97661018D01*
X123896165Y-97650625D01*
X123913632Y-97642068D01*
X123932617Y-97634552D01*
X123970826Y-97606790D01*
X123975704Y-97603585D01*
X124016362Y-97579542D01*
X124030802Y-97565100D01*
X124045592Y-97552470D01*
X124062107Y-97540472D01*
X124092222Y-97504067D01*
X124096126Y-97499776D01*
X130887570Y-90708333D01*
X130948891Y-90674850D01*
X131007341Y-90676240D01*
X131071913Y-90693543D01*
X131234832Y-90707796D01*
X131299998Y-90713498D01*
X131300000Y-90713498D01*
X131300002Y-90713498D01*
X131359013Y-90708335D01*
X131528087Y-90693543D01*
X131749243Y-90634284D01*
X131956749Y-90537523D01*
X132144300Y-90406198D01*
X132306198Y-90244300D01*
X132437523Y-90056749D01*
X132534284Y-89849243D01*
X132593543Y-89628087D01*
X132613498Y-89400000D01*
X132593543Y-89171913D01*
X132534284Y-88950757D01*
X132437523Y-88743251D01*
X132306198Y-88555700D01*
X132144300Y-88393802D01*
X131956749Y-88262477D01*
X131956745Y-88262475D01*
X131749249Y-88165718D01*
X131749238Y-88165714D01*
X131528089Y-88106457D01*
X131528081Y-88106456D01*
X131300002Y-88086502D01*
X131299998Y-88086502D01*
X131071918Y-88106456D01*
X131071910Y-88106457D01*
X130850761Y-88165714D01*
X130850750Y-88165718D01*
X130643254Y-88262475D01*
X130643252Y-88262476D01*
X130643249Y-88262477D01*
X130643251Y-88262477D01*
X130455700Y-88393802D01*
X130455698Y-88393803D01*
X130455695Y-88393806D01*
X130293806Y-88555695D01*
X130293803Y-88555698D01*
X130293802Y-88555700D01*
X130286258Y-88566474D01*
X130162476Y-88743252D01*
X130162475Y-88743254D01*
X130065718Y-88950750D01*
X130065714Y-88950761D01*
X130006457Y-89171910D01*
X130006456Y-89171918D01*
X129986502Y-89399998D01*
X129986502Y-89400001D01*
X130006456Y-89628081D01*
X130006458Y-89628092D01*
X130023758Y-89692656D01*
X130022095Y-89762506D01*
X129991664Y-89812430D01*
X123398914Y-96405181D01*
X123337591Y-96438666D01*
X123311233Y-96441500D01*
X123292643Y-96441500D01*
X123225604Y-96421815D01*
X123179849Y-96369011D01*
X123169905Y-96299853D01*
X123180259Y-96265099D01*
X123234284Y-96149243D01*
X123293543Y-95928087D01*
X123313498Y-95700000D01*
X123293543Y-95471913D01*
X123234284Y-95250757D01*
X123223962Y-95228622D01*
X123154712Y-95080114D01*
X123137523Y-95043251D01*
X123006198Y-94855700D01*
X122844300Y-94693802D01*
X122656749Y-94562477D01*
X122656745Y-94562475D01*
X122449249Y-94465718D01*
X122449238Y-94465714D01*
X122228089Y-94406457D01*
X122228081Y-94406456D01*
X122000002Y-94386502D01*
X121999998Y-94386502D01*
X121771918Y-94406456D01*
X121771910Y-94406457D01*
X121550761Y-94465714D01*
X121550750Y-94465718D01*
X121343254Y-94562475D01*
X121343252Y-94562476D01*
X121343249Y-94562477D01*
X121343251Y-94562477D01*
X121155700Y-94693802D01*
X121155698Y-94693803D01*
X121155695Y-94693806D01*
X120993806Y-94855695D01*
X120993803Y-94855698D01*
X120993802Y-94855700D01*
X120939409Y-94933381D01*
X120862476Y-95043252D01*
X120862475Y-95043254D01*
X120765718Y-95250750D01*
X120765714Y-95250761D01*
X120706457Y-95471910D01*
X120706456Y-95471918D01*
X120686502Y-95699998D01*
X120686502Y-95700001D01*
X120706456Y-95928081D01*
X120706457Y-95928089D01*
X120765714Y-96149238D01*
X120765715Y-96149240D01*
X120765716Y-96149243D01*
X120819739Y-96265097D01*
X120830231Y-96334173D01*
X120801711Y-96397957D01*
X120743235Y-96436196D01*
X120707357Y-96441500D01*
X110592643Y-96441500D01*
X110525604Y-96421815D01*
X110479849Y-96369011D01*
X110469905Y-96299853D01*
X110480259Y-96265099D01*
X110534284Y-96149243D01*
X110593543Y-95928087D01*
X110613498Y-95700000D01*
X110593543Y-95471913D01*
X110534284Y-95250757D01*
X110523962Y-95228622D01*
X110454712Y-95080114D01*
X110437523Y-95043251D01*
X110306198Y-94855700D01*
X110144300Y-94693802D01*
X109956749Y-94562477D01*
X109956745Y-94562475D01*
X109749249Y-94465718D01*
X109749238Y-94465714D01*
X109528089Y-94406457D01*
X109528081Y-94406456D01*
X109300002Y-94386502D01*
X109299998Y-94386502D01*
X109071918Y-94406456D01*
X109071910Y-94406457D01*
X108850761Y-94465714D01*
X108850750Y-94465718D01*
X108643254Y-94562475D01*
X108643252Y-94562476D01*
X108643249Y-94562477D01*
X108643251Y-94562477D01*
X108455700Y-94693802D01*
X108455698Y-94693803D01*
X108455695Y-94693806D01*
X108293806Y-94855695D01*
X108293803Y-94855698D01*
X108293802Y-94855700D01*
X108239409Y-94933381D01*
X108162476Y-95043252D01*
X108162475Y-95043254D01*
X108065718Y-95250750D01*
X108065714Y-95250761D01*
X108006457Y-95471910D01*
X108006456Y-95471918D01*
X107986502Y-95699998D01*
X107986502Y-95700001D01*
X108006456Y-95928081D01*
X108006457Y-95928089D01*
X108065714Y-96149238D01*
X108065715Y-96149240D01*
X108065716Y-96149243D01*
X108119739Y-96265097D01*
X108130231Y-96334173D01*
X108101711Y-96397957D01*
X108043235Y-96436196D01*
X108007357Y-96441500D01*
X102882500Y-96441500D01*
X102815461Y-96421815D01*
X102769706Y-96369011D01*
X102758500Y-96317500D01*
X102758500Y-95668668D01*
X102758500Y-95001362D01*
X102758499Y-95001352D01*
X102758499Y-95001345D01*
X102752927Y-94949528D01*
X102751989Y-94940799D01*
X102749222Y-94933381D01*
X102722559Y-94861894D01*
X102700889Y-94803796D01*
X102613261Y-94686739D01*
X102496204Y-94599111D01*
X102496203Y-94599110D01*
X102359203Y-94548011D01*
X102298654Y-94541500D01*
X102298638Y-94541500D01*
X100501362Y-94541500D01*
X100501345Y-94541500D01*
X100440797Y-94548011D01*
X100440795Y-94548011D01*
X100303795Y-94599111D01*
X100186739Y-94686739D01*
X100099111Y-94803795D01*
X100050777Y-94933381D01*
X100008905Y-94989314D01*
X99943441Y-95013730D01*
X99875168Y-94998878D01*
X99846915Y-94977727D01*
X99731082Y-94861894D01*
X99537578Y-94726399D01*
X99323492Y-94626570D01*
X99323486Y-94626567D01*
X99110000Y-94569364D01*
X99110000Y-95287698D01*
X99090315Y-95354737D01*
X99037511Y-95400492D01*
X98968355Y-95410436D01*
X98895766Y-95400000D01*
X98895763Y-95400000D01*
X98824237Y-95400000D01*
X98824233Y-95400000D01*
X98751645Y-95410436D01*
X98682487Y-95400492D01*
X98629684Y-95354736D01*
X98610000Y-95287698D01*
X98610000Y-94569364D01*
X98609999Y-94569364D01*
X98396513Y-94626567D01*
X98396507Y-94626570D01*
X98182422Y-94726399D01*
X98182420Y-94726400D01*
X97988926Y-94861886D01*
X97988920Y-94861891D01*
X97821891Y-95028920D01*
X97821890Y-95028922D01*
X97695131Y-95209952D01*
X97640554Y-95253577D01*
X97571055Y-95260769D01*
X97508701Y-95229247D01*
X97489752Y-95206656D01*
X97395722Y-95062732D01*
X97395715Y-95062725D01*
X97395715Y-95062723D01*
X97243243Y-94897097D01*
X97243238Y-94897092D01*
X97065577Y-94758812D01*
X97065572Y-94758808D01*
X96867580Y-94651661D01*
X96867577Y-94651659D01*
X96867574Y-94651658D01*
X96867571Y-94651657D01*
X96867569Y-94651656D01*
X96654637Y-94578556D01*
X96432569Y-94541500D01*
X96207431Y-94541500D01*
X95985362Y-94578556D01*
X95772430Y-94651656D01*
X95772419Y-94651661D01*
X95574427Y-94758808D01*
X95574422Y-94758812D01*
X95396761Y-94897092D01*
X95396756Y-94897097D01*
X95244284Y-95062723D01*
X95244276Y-95062734D01*
X95121140Y-95251207D01*
X95030703Y-95457385D01*
X94975436Y-95675628D01*
X94975434Y-95675640D01*
X94956844Y-95899994D01*
X94956844Y-95900005D01*
X89982245Y-95900005D01*
X90015313Y-95864084D01*
X90015316Y-95864080D01*
X90142984Y-95668669D01*
X90236749Y-95454907D01*
X90294051Y-95228626D01*
X90313327Y-94996000D01*
X90294051Y-94763374D01*
X90236749Y-94537093D01*
X90142984Y-94323331D01*
X90070657Y-94212626D01*
X90015313Y-94127915D01*
X89857223Y-93956185D01*
X89857222Y-93956184D01*
X89857220Y-93956182D01*
X89673017Y-93812810D01*
X89673015Y-93812809D01*
X89673014Y-93812808D01*
X89673011Y-93812806D01*
X89467733Y-93701716D01*
X89467730Y-93701715D01*
X89467727Y-93701713D01*
X89467721Y-93701711D01*
X89467719Y-93701710D01*
X89246954Y-93625920D01*
X89074271Y-93597105D01*
X89016712Y-93587500D01*
X88783288Y-93587500D01*
X88737240Y-93595184D01*
X88553045Y-93625920D01*
X88332280Y-93701710D01*
X88332266Y-93701716D01*
X88126988Y-93812806D01*
X88126985Y-93812808D01*
X87942781Y-93956181D01*
X87942776Y-93956185D01*
X87784686Y-94127915D01*
X87657015Y-94323331D01*
X87563251Y-94537092D01*
X87505948Y-94763377D01*
X87486673Y-94995994D01*
X87486673Y-94996005D01*
X81228002Y-94996005D01*
X81333565Y-73386968D01*
X81339686Y-73349094D01*
X81466074Y-72961936D01*
X81505590Y-72904318D01*
X81536188Y-72885988D01*
X82116570Y-72643778D01*
X82154376Y-72634613D01*
X87576927Y-72198319D01*
X91172644Y-72055160D01*
X91211235Y-72059719D01*
X92432467Y-72404219D01*
X92491642Y-72441364D01*
X92498717Y-72450128D01*
X92967024Y-73087418D01*
X92984396Y-73111058D01*
X93004920Y-73155010D01*
X93478254Y-75089225D01*
X93479394Y-75095098D01*
X95201171Y-87009583D01*
X95201337Y-87012698D01*
X95204275Y-87031069D01*
X95206933Y-87049449D01*
X95207698Y-87052459D01*
X95992606Y-91956984D01*
X95993328Y-91964101D01*
X95993482Y-91967654D01*
X95994187Y-91970541D01*
X95995220Y-91973326D01*
X95997078Y-91976347D01*
X96000466Y-91982643D01*
X96328047Y-92685710D01*
X96330381Y-92690718D01*
X96336759Y-92707474D01*
X96339136Y-92715402D01*
X96339382Y-92715704D01*
X96362425Y-92732086D01*
X96362788Y-92732218D01*
X96362789Y-92732219D01*
X96371062Y-92731860D01*
X96388972Y-92732379D01*
X97397766Y-92834982D01*
X97410257Y-92837326D01*
X97413735Y-92837580D01*
X97413740Y-92837582D01*
X97413744Y-92837581D01*
X97418066Y-92837898D01*
X97422379Y-92837486D01*
X97422384Y-92837487D01*
X97422387Y-92837485D01*
X97425867Y-92837154D01*
X97438295Y-92834538D01*
X103512544Y-92081986D01*
X103518569Y-92081739D01*
X103524506Y-92080806D01*
X103524507Y-92080807D01*
X103533621Y-92079376D01*
X103542778Y-92078242D01*
X103542779Y-92078241D01*
X103548748Y-92077502D01*
X103554600Y-92076083D01*
X114379899Y-90376965D01*
X114383004Y-90376764D01*
X114391883Y-90375232D01*
X114391885Y-90375233D01*
X114397312Y-90374296D01*
X114401416Y-90373589D01*
X114419877Y-90370692D01*
X114422883Y-90369885D01*
X124868635Y-88568153D01*
X124875822Y-88567485D01*
X124881429Y-88566282D01*
X124883461Y-88565845D01*
X124889360Y-88564580D01*
X124903002Y-88562227D01*
X124909915Y-88560168D01*
X129852399Y-87499531D01*
X129860319Y-87498361D01*
X129869765Y-87497581D01*
X129873920Y-87497239D01*
X129873922Y-87497236D01*
X129874931Y-87496717D01*
X129894201Y-87479267D01*
X129894818Y-87478312D01*
X129894820Y-87478311D01*
X129897282Y-87464874D01*
X129899219Y-87457151D01*
X130404663Y-85881244D01*
X130409313Y-85870233D01*
X130410644Y-85865809D01*
X130410646Y-85865806D01*
X130410646Y-85865801D01*
X130411971Y-85861400D01*
X130413020Y-85852246D01*
X130413100Y-85840290D01*
X133218112Y-56690000D01*
X140445000Y-56690000D01*
X140445000Y-57757844D01*
X140451401Y-57817372D01*
X140451403Y-57817379D01*
X140501645Y-57952086D01*
X140501649Y-57952093D01*
X140587809Y-58067187D01*
X140587812Y-58067190D01*
X140702906Y-58153350D01*
X140702913Y-58153354D01*
X140837620Y-58203596D01*
X140837627Y-58203598D01*
X140897155Y-58209999D01*
X140897172Y-58210000D01*
X142450000Y-58210000D01*
X142450000Y-56690000D01*
X142950000Y-56690000D01*
X142950000Y-58210000D01*
X144502828Y-58210000D01*
X144502844Y-58209999D01*
X144562372Y-58203598D01*
X144562379Y-58203596D01*
X144697086Y-58153354D01*
X144697093Y-58153350D01*
X144812187Y-58067190D01*
X144812190Y-58067187D01*
X144898350Y-57952093D01*
X144898354Y-57952086D01*
X144948596Y-57817379D01*
X144948598Y-57817372D01*
X144954999Y-57757844D01*
X144955000Y-57757827D01*
X144955000Y-56690000D01*
X142950000Y-56690000D01*
X142450000Y-56690000D01*
X140445000Y-56690000D01*
X133218112Y-56690000D01*
X133266225Y-56190000D01*
X140445000Y-56190000D01*
X142450000Y-56190000D01*
X142450000Y-54670000D01*
X142950000Y-54670000D01*
X142950000Y-56190000D01*
X144955000Y-56190000D01*
X144955000Y-55122172D01*
X144954999Y-55122155D01*
X144948598Y-55062627D01*
X144948596Y-55062620D01*
X144898354Y-54927913D01*
X144898350Y-54927906D01*
X144812190Y-54812812D01*
X144812187Y-54812809D01*
X144697093Y-54726649D01*
X144697086Y-54726645D01*
X144562379Y-54676403D01*
X144562372Y-54676401D01*
X144502844Y-54670000D01*
X142950000Y-54670000D01*
X142450000Y-54670000D01*
X140897155Y-54670000D01*
X140837627Y-54676401D01*
X140837620Y-54676403D01*
X140702913Y-54726645D01*
X140702906Y-54726649D01*
X140587812Y-54812809D01*
X140587809Y-54812812D01*
X140501649Y-54927906D01*
X140501645Y-54927913D01*
X140451403Y-55062620D01*
X140451401Y-55062627D01*
X140445000Y-55122155D01*
X140445000Y-56190000D01*
X133266225Y-56190000D01*
X133955972Y-49022001D01*
X136354502Y-49022001D01*
X136374456Y-49250081D01*
X136374457Y-49250089D01*
X136433714Y-49471238D01*
X136433718Y-49471249D01*
X136530475Y-49678745D01*
X136530477Y-49678749D01*
X136661802Y-49866300D01*
X136823700Y-50028198D01*
X137011251Y-50159523D01*
X137136091Y-50217736D01*
X137218750Y-50256281D01*
X137218752Y-50256281D01*
X137218757Y-50256284D01*
X137439913Y-50315543D01*
X137602832Y-50329796D01*
X137667998Y-50335498D01*
X137668000Y-50335498D01*
X137668002Y-50335498D01*
X137727013Y-50330335D01*
X137896087Y-50315543D01*
X138117243Y-50256284D01*
X138324749Y-50159523D01*
X138512300Y-50028198D01*
X138674198Y-49866300D01*
X138805523Y-49678749D01*
X138902284Y-49471243D01*
X138961543Y-49250087D01*
X138981498Y-49022000D01*
X138961543Y-48793913D01*
X138902284Y-48572757D01*
X138805523Y-48365251D01*
X138674198Y-48177700D01*
X138512300Y-48015802D01*
X138324749Y-47884477D01*
X138324745Y-47884475D01*
X138117249Y-47787718D01*
X138117238Y-47787714D01*
X137896089Y-47728457D01*
X137896081Y-47728456D01*
X137668002Y-47708502D01*
X137667998Y-47708502D01*
X137439918Y-47728456D01*
X137439910Y-47728457D01*
X137218761Y-47787714D01*
X137218750Y-47787718D01*
X137011254Y-47884475D01*
X137011252Y-47884476D01*
X137011249Y-47884477D01*
X137011251Y-47884477D01*
X136823700Y-48015802D01*
X136823698Y-48015803D01*
X136823695Y-48015806D01*
X136661806Y-48177695D01*
X136530476Y-48365252D01*
X136530475Y-48365254D01*
X136433718Y-48572750D01*
X136433714Y-48572761D01*
X136374457Y-48793910D01*
X136374456Y-48793918D01*
X136354502Y-49021998D01*
X136354502Y-49022001D01*
X133955972Y-49022001D01*
X134713654Y-41148001D01*
X136354502Y-41148001D01*
X136374456Y-41376081D01*
X136374457Y-41376089D01*
X136433714Y-41597238D01*
X136433718Y-41597249D01*
X136530475Y-41804745D01*
X136530477Y-41804749D01*
X136661802Y-41992300D01*
X136823700Y-42154198D01*
X137011251Y-42285523D01*
X137136091Y-42343736D01*
X137218750Y-42382281D01*
X137218752Y-42382281D01*
X137218757Y-42382284D01*
X137439913Y-42441543D01*
X137602832Y-42455796D01*
X137667998Y-42461498D01*
X137668000Y-42461498D01*
X137668002Y-42461498D01*
X137725021Y-42456509D01*
X137896087Y-42441543D01*
X138117243Y-42382284D01*
X138324749Y-42285523D01*
X138512300Y-42154198D01*
X138674198Y-41992300D01*
X138805523Y-41804749D01*
X138902284Y-41597243D01*
X138961543Y-41376087D01*
X138981498Y-41148000D01*
X138961543Y-40919913D01*
X138902284Y-40698757D01*
X138805523Y-40491251D01*
X138674198Y-40303700D01*
X138512300Y-40141802D01*
X138324749Y-40010477D01*
X138324745Y-40010475D01*
X138117249Y-39913718D01*
X138117238Y-39913714D01*
X137896089Y-39854457D01*
X137896081Y-39854456D01*
X137668002Y-39834502D01*
X137667998Y-39834502D01*
X137439918Y-39854456D01*
X137439910Y-39854457D01*
X137218761Y-39913714D01*
X137218750Y-39913718D01*
X137011254Y-40010475D01*
X137011252Y-40010476D01*
X137011249Y-40010477D01*
X137011251Y-40010477D01*
X136823700Y-40141802D01*
X136823698Y-40141803D01*
X136823695Y-40141806D01*
X136661806Y-40303695D01*
X136530476Y-40491252D01*
X136530475Y-40491254D01*
X136433718Y-40698750D01*
X136433714Y-40698761D01*
X136374457Y-40919910D01*
X136374456Y-40919918D01*
X136354502Y-41147998D01*
X136354502Y-41148001D01*
X134713654Y-41148001D01*
X135719022Y-30700003D01*
X138486384Y-30700003D01*
X138506781Y-30881041D01*
X138506782Y-30881046D01*
X138566958Y-31053019D01*
X138566960Y-31053022D01*
X138647493Y-31181188D01*
X138666500Y-31247160D01*
X138666500Y-31587357D01*
X138664761Y-31603104D01*
X138665032Y-31603130D01*
X138664298Y-31610896D01*
X138666500Y-31680948D01*
X138666500Y-31710850D01*
X138667384Y-31717847D01*
X138667842Y-31723670D01*
X138669326Y-31770880D01*
X138669327Y-31770882D01*
X138675022Y-31790486D01*
X138678967Y-31809533D01*
X138681526Y-31829788D01*
X138681527Y-31829791D01*
X138681528Y-31829794D01*
X138698914Y-31873707D01*
X138700806Y-31879235D01*
X138713981Y-31924583D01*
X138724372Y-31942153D01*
X138732932Y-31959626D01*
X138740447Y-31978608D01*
X138768209Y-32016818D01*
X138771416Y-32021701D01*
X138795458Y-32062353D01*
X138795462Y-32062357D01*
X138809889Y-32076784D01*
X138822526Y-32091579D01*
X138834528Y-32108098D01*
X138870931Y-32138213D01*
X138875231Y-32142126D01*
X150823182Y-44090077D01*
X150856666Y-44151398D01*
X150859500Y-44177756D01*
X150859500Y-47637438D01*
X150839815Y-47704477D01*
X150787011Y-47750232D01*
X150717853Y-47760176D01*
X150703407Y-47757213D01*
X150596092Y-47728458D01*
X150596088Y-47728457D01*
X150596087Y-47728457D01*
X150596086Y-47728456D01*
X150596081Y-47728456D01*
X150368002Y-47708502D01*
X150367998Y-47708502D01*
X150139918Y-47728456D01*
X150139910Y-47728457D01*
X149918761Y-47787714D01*
X149918750Y-47787718D01*
X149711254Y-47884475D01*
X149711252Y-47884476D01*
X149711249Y-47884477D01*
X149711251Y-47884477D01*
X149523700Y-48015802D01*
X149523698Y-48015803D01*
X149523695Y-48015806D01*
X149361806Y-48177695D01*
X149230476Y-48365252D01*
X149230475Y-48365254D01*
X149133718Y-48572750D01*
X149133714Y-48572761D01*
X149074457Y-48793910D01*
X149074456Y-48793918D01*
X149054502Y-49021998D01*
X149054502Y-49022001D01*
X149074456Y-49250081D01*
X149074458Y-49250092D01*
X149091758Y-49314656D01*
X149090095Y-49384506D01*
X149059664Y-49434430D01*
X145911179Y-52582914D01*
X145898820Y-52592818D01*
X145898993Y-52593027D01*
X145892983Y-52597999D01*
X145845016Y-52649078D01*
X145823872Y-52670222D01*
X145823857Y-52670239D01*
X145819531Y-52675814D01*
X145815747Y-52680244D01*
X145783419Y-52714671D01*
X145783412Y-52714681D01*
X145773579Y-52732567D01*
X145762903Y-52748820D01*
X145750386Y-52764957D01*
X145750385Y-52764959D01*
X145731625Y-52808310D01*
X145729055Y-52813556D01*
X145706303Y-52854941D01*
X145706303Y-52854942D01*
X145701225Y-52874720D01*
X145694925Y-52893122D01*
X145686818Y-52911857D01*
X145679431Y-52958495D01*
X145678246Y-52964216D01*
X145666500Y-53009965D01*
X145666500Y-53030384D01*
X145664973Y-53049783D01*
X145661780Y-53069941D01*
X145661780Y-53069942D01*
X145666225Y-53116966D01*
X145666500Y-53122804D01*
X145666500Y-89829693D01*
X145646815Y-89896732D01*
X145594011Y-89942487D01*
X145524853Y-89952431D01*
X145510406Y-89949468D01*
X145330000Y-89901127D01*
X145330000Y-90669424D01*
X145310315Y-90736463D01*
X145257511Y-90782218D01*
X145188353Y-90792162D01*
X145186602Y-90791897D01*
X145111486Y-90780000D01*
X145111481Y-90780000D01*
X145048519Y-90780000D01*
X145048514Y-90780000D01*
X144973398Y-90791897D01*
X144904104Y-90782942D01*
X144850652Y-90737946D01*
X144830013Y-90671194D01*
X144830000Y-90669424D01*
X144830000Y-89901127D01*
X144633671Y-89953734D01*
X144427517Y-90049865D01*
X144241179Y-90180342D01*
X144080342Y-90341179D01*
X143949865Y-90527517D01*
X143853734Y-90733673D01*
X143853730Y-90733682D01*
X143801127Y-90929999D01*
X143801128Y-90930000D01*
X144569424Y-90930000D01*
X144636463Y-90949685D01*
X144682218Y-91002489D01*
X144692162Y-91071647D01*
X144691897Y-91073397D01*
X144675014Y-91179996D01*
X144675014Y-91180003D01*
X144691897Y-91286603D01*
X144682942Y-91355896D01*
X144637946Y-91409348D01*
X144571194Y-91429987D01*
X144569424Y-91430000D01*
X143801128Y-91430000D01*
X143853730Y-91626317D01*
X143853734Y-91626326D01*
X143949865Y-91832482D01*
X144080342Y-92018820D01*
X144241179Y-92179657D01*
X144427517Y-92310134D01*
X144633673Y-92406265D01*
X144633682Y-92406269D01*
X144829999Y-92458872D01*
X144830000Y-92458871D01*
X144830000Y-91690575D01*
X144849685Y-91623536D01*
X144902489Y-91577781D01*
X144971647Y-91567837D01*
X144973331Y-91568091D01*
X145005699Y-91573218D01*
X145048515Y-91580000D01*
X145048519Y-91580000D01*
X145111485Y-91580000D01*
X145154300Y-91573218D01*
X145186602Y-91568102D01*
X145255894Y-91577056D01*
X145309347Y-91622052D01*
X145329987Y-91688803D01*
X145330000Y-91690575D01*
X145330000Y-92458871D01*
X145510406Y-92410532D01*
X145580256Y-92412195D01*
X145638119Y-92451357D01*
X145665623Y-92515586D01*
X145666500Y-92530307D01*
X145666500Y-93452839D01*
X145647494Y-93518811D01*
X145566958Y-93646982D01*
X145506782Y-93818953D01*
X145506781Y-93818958D01*
X145486384Y-93999996D01*
X145486384Y-94000003D01*
X145506781Y-94181041D01*
X145506782Y-94181046D01*
X145527098Y-94239104D01*
X145566957Y-94353015D01*
X145663889Y-94507281D01*
X145792719Y-94636111D01*
X145946985Y-94733043D01*
X146118953Y-94793216D01*
X146118953Y-94793217D01*
X146118958Y-94793218D01*
X146299996Y-94813616D01*
X146300000Y-94813616D01*
X146300004Y-94813616D01*
X146481041Y-94793218D01*
X146481044Y-94793217D01*
X146481047Y-94793217D01*
X146653015Y-94733043D01*
X146807281Y-94636111D01*
X146936111Y-94507281D01*
X147033043Y-94353015D01*
X147093217Y-94181047D01*
X147093218Y-94181041D01*
X147113616Y-94000003D01*
X147113616Y-93999996D01*
X147093218Y-93818958D01*
X147093217Y-93818953D01*
X147091066Y-93812806D01*
X147033043Y-93646985D01*
X146952506Y-93518811D01*
X146933500Y-93452839D01*
X146933500Y-92800000D01*
X158086835Y-92800000D01*
X158105465Y-93036714D01*
X158160895Y-93267595D01*
X158160895Y-93267597D01*
X158251757Y-93486959D01*
X158251759Y-93486962D01*
X158375820Y-93689410D01*
X158375821Y-93689413D01*
X158386329Y-93701716D01*
X158530031Y-93869969D01*
X158669797Y-93989340D01*
X158710586Y-94024178D01*
X158710589Y-94024179D01*
X158913037Y-94148240D01*
X158913040Y-94148242D01*
X159132403Y-94239104D01*
X159132404Y-94239104D01*
X159132406Y-94239105D01*
X159363289Y-94294535D01*
X159600000Y-94313165D01*
X159836711Y-94294535D01*
X160067594Y-94239105D01*
X160067596Y-94239104D01*
X160067597Y-94239104D01*
X160286959Y-94148242D01*
X160286960Y-94148241D01*
X160286963Y-94148240D01*
X160489416Y-94024176D01*
X160669969Y-93869969D01*
X160824176Y-93689416D01*
X160948240Y-93486963D01*
X160953657Y-93473887D01*
X161039104Y-93267597D01*
X161039104Y-93267596D01*
X161039105Y-93267594D01*
X161094535Y-93036711D01*
X161113165Y-92800000D01*
X164586835Y-92800000D01*
X164605465Y-93036714D01*
X164660895Y-93267595D01*
X164660895Y-93267597D01*
X164751757Y-93486959D01*
X164751759Y-93486962D01*
X164875820Y-93689410D01*
X164875821Y-93689413D01*
X164886329Y-93701716D01*
X165030031Y-93869969D01*
X165169797Y-93989340D01*
X165210586Y-94024178D01*
X165210589Y-94024179D01*
X165413037Y-94148240D01*
X165413040Y-94148242D01*
X165632403Y-94239104D01*
X165632404Y-94239104D01*
X165632406Y-94239105D01*
X165863289Y-94294535D01*
X166100000Y-94313165D01*
X166336711Y-94294535D01*
X166567594Y-94239105D01*
X166567596Y-94239104D01*
X166567597Y-94239104D01*
X166786959Y-94148242D01*
X166786960Y-94148241D01*
X166786963Y-94148240D01*
X166989416Y-94024176D01*
X167169969Y-93869969D01*
X167324176Y-93689416D01*
X167448240Y-93486963D01*
X167453657Y-93473887D01*
X167539104Y-93267597D01*
X167539104Y-93267596D01*
X167539105Y-93267594D01*
X167594535Y-93036711D01*
X167613165Y-92800000D01*
X167594535Y-92563289D01*
X167539105Y-92332406D01*
X167539104Y-92332403D01*
X167539104Y-92332402D01*
X167448242Y-92113040D01*
X167448240Y-92113037D01*
X167347398Y-91948478D01*
X167324178Y-91910588D01*
X167324178Y-91910586D01*
X167261111Y-91836745D01*
X167169969Y-91730031D01*
X167002901Y-91587341D01*
X166989413Y-91575821D01*
X166989410Y-91575820D01*
X166786962Y-91451759D01*
X166786959Y-91451757D01*
X166567596Y-91360895D01*
X166336714Y-91305465D01*
X166159177Y-91291492D01*
X166100000Y-91286835D01*
X166099999Y-91286835D01*
X165863285Y-91305465D01*
X165632404Y-91360895D01*
X165632402Y-91360895D01*
X165413040Y-91451757D01*
X165413037Y-91451759D01*
X165210589Y-91575820D01*
X165210586Y-91575821D01*
X165030031Y-91730031D01*
X164875821Y-91910586D01*
X164875820Y-91910589D01*
X164751759Y-92113037D01*
X164751757Y-92113040D01*
X164660895Y-92332402D01*
X164660895Y-92332404D01*
X164605465Y-92563285D01*
X164586835Y-92800000D01*
X161113165Y-92800000D01*
X161094535Y-92563289D01*
X161039105Y-92332406D01*
X161039104Y-92332403D01*
X161039104Y-92332402D01*
X160948242Y-92113040D01*
X160948240Y-92113037D01*
X160847398Y-91948478D01*
X160824178Y-91910588D01*
X160824178Y-91910586D01*
X160761111Y-91836745D01*
X160669969Y-91730031D01*
X160502901Y-91587341D01*
X160489413Y-91575821D01*
X160489410Y-91575820D01*
X160286962Y-91451759D01*
X160286959Y-91451757D01*
X160067596Y-91360895D01*
X159836714Y-91305465D01*
X159659177Y-91291492D01*
X159600000Y-91286835D01*
X159599999Y-91286835D01*
X159363285Y-91305465D01*
X159132404Y-91360895D01*
X159132402Y-91360895D01*
X158913040Y-91451757D01*
X158913037Y-91451759D01*
X158710589Y-91575820D01*
X158710586Y-91575821D01*
X158530031Y-91730031D01*
X158375821Y-91910586D01*
X158375820Y-91910589D01*
X158251759Y-92113037D01*
X158251757Y-92113040D01*
X158160895Y-92332402D01*
X158160895Y-92332404D01*
X158105465Y-92563285D01*
X158086835Y-92800000D01*
X146933500Y-92800000D01*
X146933500Y-92498290D01*
X146953185Y-92431251D01*
X147005989Y-92385496D01*
X147075147Y-92375552D01*
X147109902Y-92385907D01*
X147170757Y-92414284D01*
X147391913Y-92473543D01*
X147554832Y-92487796D01*
X147619998Y-92493498D01*
X147620000Y-92493498D01*
X147620002Y-92493498D01*
X147677139Y-92488499D01*
X147848087Y-92473543D01*
X148069243Y-92414284D01*
X148276749Y-92317523D01*
X148464300Y-92186198D01*
X148626198Y-92024300D01*
X148757523Y-91836749D01*
X148777617Y-91793655D01*
X148823790Y-91741215D01*
X148890983Y-91722063D01*
X148957864Y-91742278D01*
X149002382Y-91793655D01*
X149022477Y-91836749D01*
X149153802Y-92024300D01*
X149315700Y-92186198D01*
X149503251Y-92317523D01*
X149558445Y-92343260D01*
X149710750Y-92414281D01*
X149710752Y-92414281D01*
X149710757Y-92414284D01*
X149931913Y-92473543D01*
X150094832Y-92487796D01*
X150159998Y-92493498D01*
X150160000Y-92493498D01*
X150160002Y-92493498D01*
X150217139Y-92488499D01*
X150388087Y-92473543D01*
X150609243Y-92414284D01*
X150816749Y-92317523D01*
X151004300Y-92186198D01*
X151166198Y-92024300D01*
X151171566Y-92016632D01*
X151226139Y-91973008D01*
X151295637Y-91965813D01*
X151357993Y-91997333D01*
X151393409Y-92057562D01*
X151396430Y-92074498D01*
X151398011Y-92089202D01*
X151398011Y-92089204D01*
X151434189Y-92186198D01*
X151449111Y-92226204D01*
X151536739Y-92343261D01*
X151653796Y-92430889D01*
X151790799Y-92481989D01*
X151818050Y-92484918D01*
X151851345Y-92488499D01*
X151851362Y-92488500D01*
X153548638Y-92488500D01*
X153548654Y-92488499D01*
X153575692Y-92485591D01*
X153609201Y-92481989D01*
X153746204Y-92430889D01*
X153863261Y-92343261D01*
X153950889Y-92226204D01*
X154001989Y-92089201D01*
X154005591Y-92055692D01*
X154008499Y-92028654D01*
X154008500Y-92028637D01*
X154008500Y-90331362D01*
X154008499Y-90331345D01*
X154005157Y-90300270D01*
X154001989Y-90270799D01*
X153992105Y-90244300D01*
X153965812Y-90173806D01*
X153950889Y-90133796D01*
X153863261Y-90016739D01*
X153746204Y-89929111D01*
X153746204Y-89929110D01*
X153609203Y-89878011D01*
X153548654Y-89871500D01*
X153548638Y-89871500D01*
X151851362Y-89871500D01*
X151851345Y-89871500D01*
X151790797Y-89878011D01*
X151790795Y-89878011D01*
X151653795Y-89929111D01*
X151536739Y-90016739D01*
X151449111Y-90133795D01*
X151398011Y-90270795D01*
X151398011Y-90270797D01*
X151396430Y-90285501D01*
X151369691Y-90350052D01*
X151312298Y-90389899D01*
X151242473Y-90392392D01*
X151182384Y-90356738D01*
X151171574Y-90343379D01*
X151166198Y-90335700D01*
X151004300Y-90173802D01*
X150816749Y-90042477D01*
X150816745Y-90042475D01*
X150609249Y-89945718D01*
X150609238Y-89945714D01*
X150388089Y-89886457D01*
X150388081Y-89886456D01*
X150160002Y-89866502D01*
X150159993Y-89866502D01*
X150137091Y-89868505D01*
X150068591Y-89854737D01*
X150018410Y-89806120D01*
X150002478Y-89738091D01*
X150025856Y-89672248D01*
X150038599Y-89657303D01*
X151881817Y-87814086D01*
X151894178Y-87804185D01*
X151894004Y-87803975D01*
X151900013Y-87799002D01*
X151900018Y-87799000D01*
X151947983Y-87747921D01*
X151969135Y-87726770D01*
X151973461Y-87721192D01*
X151977250Y-87716755D01*
X152009586Y-87682321D01*
X152019419Y-87664432D01*
X152030102Y-87648169D01*
X152042614Y-87632041D01*
X152061371Y-87588691D01*
X152063941Y-87583447D01*
X152086693Y-87542064D01*
X152086693Y-87542063D01*
X152086695Y-87542060D01*
X152091774Y-87522273D01*
X152098070Y-87503885D01*
X152106181Y-87485145D01*
X152113569Y-87438497D01*
X152114751Y-87432786D01*
X152126500Y-87387030D01*
X152126500Y-87366615D01*
X152128027Y-87347214D01*
X152131220Y-87327057D01*
X152126775Y-87280033D01*
X152126500Y-87274195D01*
X152126500Y-43947622D01*
X152128239Y-43931870D01*
X152127968Y-43931845D01*
X152128700Y-43924089D01*
X152128702Y-43924082D01*
X152126500Y-43854019D01*
X152126500Y-43824135D01*
X152125614Y-43817132D01*
X152125157Y-43811313D01*
X152123674Y-43764102D01*
X152117976Y-43744490D01*
X152114033Y-43725457D01*
X152111474Y-43705194D01*
X152094085Y-43661277D01*
X152092196Y-43655757D01*
X152079018Y-43610398D01*
X152068626Y-43592826D01*
X152060066Y-43575353D01*
X152052552Y-43556374D01*
X152024794Y-43518170D01*
X152021587Y-43513287D01*
X152011873Y-43496862D01*
X151997542Y-43472629D01*
X151983108Y-43458195D01*
X151970471Y-43443400D01*
X151958472Y-43426884D01*
X151958470Y-43426881D01*
X151922073Y-43396772D01*
X151917751Y-43392838D01*
X151003148Y-42478235D01*
X150969663Y-42416912D01*
X150974647Y-42347220D01*
X151016519Y-42291287D01*
X151020389Y-42288735D01*
X151020314Y-42288628D01*
X151024746Y-42285523D01*
X151024749Y-42285523D01*
X151212300Y-42154198D01*
X151374198Y-41992300D01*
X151505523Y-41804749D01*
X151602284Y-41597243D01*
X151661543Y-41376087D01*
X151681498Y-41148000D01*
X151661543Y-40919913D01*
X151602284Y-40698757D01*
X151505523Y-40491251D01*
X151374198Y-40303700D01*
X151212300Y-40141802D01*
X151024749Y-40010477D01*
X151024745Y-40010475D01*
X150817249Y-39913718D01*
X150817238Y-39913714D01*
X150596089Y-39854457D01*
X150596081Y-39854456D01*
X150368002Y-39834502D01*
X150367998Y-39834502D01*
X150139918Y-39854456D01*
X150139910Y-39854457D01*
X149918761Y-39913714D01*
X149918750Y-39913718D01*
X149711254Y-40010475D01*
X149711252Y-40010476D01*
X149711249Y-40010477D01*
X149711251Y-40010477D01*
X149523700Y-40141802D01*
X149523698Y-40141803D01*
X149523695Y-40141806D01*
X149361806Y-40303695D01*
X149227372Y-40495686D01*
X149225395Y-40494301D01*
X149182133Y-40535454D01*
X149113510Y-40548594D01*
X149048677Y-40522549D01*
X149037764Y-40512851D01*
X139969819Y-31444905D01*
X139936334Y-31383582D01*
X139933500Y-31357224D01*
X139933500Y-31247160D01*
X139952507Y-31181188D01*
X140033039Y-31053022D01*
X140033041Y-31053019D01*
X140033041Y-31053017D01*
X140033043Y-31053015D01*
X140093217Y-30881047D01*
X140113616Y-30700000D01*
X140093217Y-30518953D01*
X140033043Y-30346985D01*
X139936111Y-30192719D01*
X139807281Y-30063889D01*
X139777783Y-30045354D01*
X139653017Y-29966958D01*
X139653016Y-29966957D01*
X139653015Y-29966957D01*
X139598693Y-29947949D01*
X139481046Y-29906782D01*
X139481041Y-29906781D01*
X139300004Y-29886384D01*
X139299996Y-29886384D01*
X139118958Y-29906781D01*
X139118953Y-29906782D01*
X138946982Y-29966958D01*
X138792718Y-30063889D01*
X138663889Y-30192718D01*
X138566958Y-30346982D01*
X138506782Y-30518953D01*
X138506781Y-30518958D01*
X138486384Y-30699996D01*
X138486384Y-30700003D01*
X135719022Y-30700003D01*
X135911281Y-28702005D01*
X145906673Y-28702005D01*
X145925948Y-28934622D01*
X145983251Y-29160907D01*
X146077015Y-29374668D01*
X146204686Y-29570084D01*
X146356354Y-29734838D01*
X146362780Y-29741818D01*
X146546983Y-29885190D01*
X146546985Y-29885191D01*
X146546988Y-29885193D01*
X146666331Y-29949777D01*
X146752273Y-29996287D01*
X146866914Y-30035643D01*
X146973045Y-30072079D01*
X146973047Y-30072079D01*
X146973049Y-30072080D01*
X147203288Y-30110500D01*
X147203289Y-30110500D01*
X147436711Y-30110500D01*
X147436712Y-30110500D01*
X147666951Y-30072080D01*
X147887727Y-29996287D01*
X148093017Y-29885190D01*
X148277220Y-29741818D01*
X148283646Y-29734837D01*
X148343531Y-29698845D01*
X148413369Y-29700944D01*
X148470986Y-29740466D01*
X148491059Y-29775485D01*
X148516645Y-29844086D01*
X148516649Y-29844093D01*
X148602809Y-29959187D01*
X148602812Y-29959190D01*
X148717906Y-30045350D01*
X148717913Y-30045354D01*
X148852620Y-30095596D01*
X148852627Y-30095598D01*
X148912155Y-30101999D01*
X148912172Y-30102000D01*
X149610000Y-30102000D01*
X149610000Y-29263821D01*
X149629685Y-29196782D01*
X149682489Y-29151027D01*
X149751647Y-29141083D01*
X149770547Y-29145329D01*
X149792173Y-29152000D01*
X149893723Y-29152000D01*
X149893724Y-29152000D01*
X149967519Y-29140877D01*
X150036742Y-29150350D01*
X150089857Y-29195744D01*
X150109997Y-29262648D01*
X150110000Y-29263492D01*
X150110000Y-30102000D01*
X150807828Y-30102000D01*
X150807844Y-30101999D01*
X150867372Y-30095598D01*
X150867379Y-30095596D01*
X151002086Y-30045354D01*
X151002093Y-30045350D01*
X151117187Y-29959190D01*
X151117190Y-29959187D01*
X151203350Y-29844093D01*
X151203354Y-29844086D01*
X151253596Y-29709379D01*
X151253598Y-29709372D01*
X151259999Y-29649844D01*
X151260000Y-29649827D01*
X151260000Y-28952000D01*
X150420003Y-28952000D01*
X150352964Y-28932315D01*
X150307209Y-28879511D01*
X150297265Y-28810353D01*
X150299112Y-28800408D01*
X150313810Y-28736007D01*
X150313810Y-28736006D01*
X150302979Y-28591468D01*
X150305079Y-28591310D01*
X150308595Y-28533861D01*
X150349890Y-28477501D01*
X150415101Y-28452413D01*
X150425216Y-28452000D01*
X151260000Y-28452000D01*
X151260000Y-27754172D01*
X151259999Y-27754155D01*
X151253598Y-27694627D01*
X151253596Y-27694620D01*
X151203354Y-27559913D01*
X151203350Y-27559906D01*
X151117190Y-27444812D01*
X151117187Y-27444809D01*
X151002093Y-27358649D01*
X151002086Y-27358645D01*
X150867379Y-27308403D01*
X150867372Y-27308401D01*
X150807844Y-27302000D01*
X150110000Y-27302000D01*
X150110000Y-28140178D01*
X150090315Y-28207217D01*
X150037511Y-28252972D01*
X149968353Y-28262916D01*
X149949454Y-28258670D01*
X149927829Y-28252000D01*
X149927827Y-28252000D01*
X149826276Y-28252000D01*
X149826268Y-28252000D01*
X149752481Y-28263122D01*
X149683256Y-28253649D01*
X149630143Y-28208254D01*
X149610003Y-28141350D01*
X149610000Y-28140507D01*
X149610000Y-27302000D01*
X148912155Y-27302000D01*
X148852627Y-27308401D01*
X148852620Y-27308403D01*
X148717913Y-27358645D01*
X148717906Y-27358649D01*
X148602812Y-27444809D01*
X148602809Y-27444812D01*
X148516649Y-27559906D01*
X148516645Y-27559913D01*
X148491059Y-27628514D01*
X148449188Y-27684448D01*
X148383723Y-27708865D01*
X148315450Y-27694013D01*
X148283649Y-27669165D01*
X148277224Y-27662186D01*
X148277222Y-27662184D01*
X148277220Y-27662182D01*
X148093017Y-27518810D01*
X148093015Y-27518809D01*
X148093014Y-27518808D01*
X148093011Y-27518806D01*
X147887733Y-27407716D01*
X147887730Y-27407715D01*
X147887727Y-27407713D01*
X147887721Y-27407711D01*
X147887719Y-27407710D01*
X147666954Y-27331920D01*
X147487650Y-27302000D01*
X147436712Y-27293500D01*
X147203288Y-27293500D01*
X147157240Y-27301184D01*
X146973045Y-27331920D01*
X146752280Y-27407710D01*
X146752266Y-27407716D01*
X146546988Y-27518806D01*
X146546985Y-27518808D01*
X146362781Y-27662181D01*
X146362776Y-27662185D01*
X146204686Y-27833915D01*
X146077015Y-28029331D01*
X145983251Y-28243092D01*
X145925948Y-28469377D01*
X145906673Y-28701994D01*
X145906673Y-28702005D01*
X135911281Y-28702005D01*
X136161024Y-26106619D01*
X136170997Y-26068462D01*
X136395224Y-25560085D01*
X136440288Y-25506693D01*
X136466027Y-25493694D01*
X137285218Y-25193652D01*
X137322187Y-25186219D01*
X143682271Y-24895090D01*
X148725621Y-24850144D01*
X148731476Y-24850369D01*
G37*
G04 #@! TD.AperFunction*
M02*
