G04 #@! TF.GenerationSoftware,KiCad,Pcbnew,8.0.0*
G04 #@! TF.CreationDate,2024-03-14T11:46:58-05:00*
G04 #@! TF.ProjectId,airplane-keychain,61697270-6c61-46e6-952d-6b6579636861,1*
G04 #@! TF.SameCoordinates,Original*
G04 #@! TF.FileFunction,Copper,L2,Bot*
G04 #@! TF.FilePolarity,Positive*
%FSLAX46Y46*%
G04 Gerber Fmt 4.6, Leading zero omitted, Abs format (unit mm)*
G04 Created by KiCad (PCBNEW 8.0.0) date 2024-03-14 11:46:58*
%MOMM*%
%LPD*%
G01*
G04 APERTURE LIST*
G04 #@! TA.AperFunction,ComponentPad*
%ADD10R,1.800000X1.800000*%
G04 #@! TD*
G04 #@! TA.AperFunction,ComponentPad*
%ADD11C,1.800000*%
G04 #@! TD*
G04 #@! TA.AperFunction,ComponentPad*
%ADD12C,1.600000*%
G04 #@! TD*
G04 #@! TA.AperFunction,ComponentPad*
%ADD13O,1.600000X1.600000*%
G04 #@! TD*
G04 #@! TA.AperFunction,ComponentPad*
%ADD14C,2.000000*%
G04 #@! TD*
G04 #@! TA.AperFunction,ComponentPad*
%ADD15R,1.600000X1.600000*%
G04 #@! TD*
G04 #@! TA.AperFunction,ComponentPad*
%ADD16R,1.700000X1.700000*%
G04 #@! TD*
G04 #@! TA.AperFunction,ComponentPad*
%ADD17O,1.700000X1.700000*%
G04 #@! TD*
G04 #@! TA.AperFunction,SMDPad,CuDef*
%ADD18R,3.510000X2.540000*%
G04 #@! TD*
G04 #@! TA.AperFunction,Conductor*
%ADD19C,0.250000*%
G04 #@! TD*
G04 APERTURE END LIST*
D10*
X88900000Y-97536000D03*
D11*
X88900000Y-94996000D03*
D12*
X131300000Y-102100000D03*
D13*
X131300000Y-89400000D03*
D12*
X122000000Y-95700000D03*
D13*
X109300000Y-95700000D03*
D12*
X148500000Y-140750000D03*
D13*
X148500000Y-153450000D03*
D12*
X147500000Y-48350000D03*
D13*
X147500000Y-35650000D03*
D12*
X156500000Y-101850000D03*
D13*
X156500000Y-89150000D03*
D14*
X160500000Y-92800000D03*
X167000000Y-92800000D03*
X160500000Y-97300000D03*
X167000000Y-97300000D03*
D15*
X138300000Y-99500000D03*
D13*
X138300000Y-91880000D03*
D10*
X148336000Y-162306000D03*
D11*
X150876000Y-162306000D03*
D10*
X149860000Y-28702000D03*
D11*
X147320000Y-28702000D03*
D10*
X171500000Y-96520000D03*
D11*
X171500000Y-93980000D03*
D16*
X101400000Y-95900000D03*
D17*
X98860000Y-95900000D03*
X96320000Y-95900000D03*
D15*
X152700000Y-91180000D03*
D13*
X150160000Y-91180000D03*
X147620000Y-91180000D03*
X145080000Y-91180000D03*
X145080000Y-98800000D03*
X147620000Y-98800000D03*
X150160000Y-98800000D03*
X152700000Y-98800000D03*
D18*
X142700000Y-85800000D03*
X142700000Y-56440000D03*
X143000000Y-105600000D03*
X143000000Y-134960000D03*
D19*
X143000000Y-105600000D02*
X143000000Y-97300000D01*
X142700000Y-85800000D02*
X142700000Y-87480000D01*
X143000000Y-96580000D02*
X138300000Y-91880000D01*
X142700000Y-87480000D02*
X138300000Y-91880000D01*
X143000000Y-97300000D02*
X143000000Y-96580000D01*
X160500000Y-97300000D02*
X143000000Y-97300000D01*
X97495000Y-97075000D02*
X96320000Y-95900000D01*
X123625000Y-97075000D02*
X97495000Y-97075000D01*
X131300000Y-89400000D02*
X123625000Y-97075000D01*
X150160000Y-98800000D02*
X150160000Y-139090000D01*
X150160000Y-139090000D02*
X148500000Y-140750000D01*
G04 #@! TA.AperFunction,Conductor*
G36*
X148734401Y-24850619D02*
G01*
X150277563Y-24983071D01*
X150301048Y-24987395D01*
X151322790Y-25279553D01*
X151364871Y-25300928D01*
X151984298Y-25783131D01*
X152019552Y-25826569D01*
X152379646Y-26564007D01*
X152391195Y-26602499D01*
X152724693Y-29179127D01*
X152725695Y-29192620D01*
X153231496Y-55062620D01*
X153268408Y-56950530D01*
X153671352Y-80918214D01*
X153679276Y-81389572D01*
X153678130Y-81396564D01*
X153679915Y-81431824D01*
X153680056Y-81436004D01*
X153680650Y-81471294D01*
X153682264Y-81478186D01*
X153882914Y-85437882D01*
X153881770Y-85462085D01*
X153881213Y-85465893D01*
X153882115Y-85469461D01*
X153885736Y-85493564D01*
X153885922Y-85497246D01*
X153887574Y-85500724D01*
X153895781Y-85523527D01*
X154160414Y-86570430D01*
X154162799Y-86597761D01*
X154167177Y-86611007D01*
X154175519Y-86622203D01*
X154187165Y-86631979D01*
X154191727Y-86634274D01*
X154191729Y-86634277D01*
X154191731Y-86634277D01*
X154199636Y-86638255D01*
X154208394Y-86639535D01*
X154208396Y-86639536D01*
X154208397Y-86639535D01*
X154213448Y-86640274D01*
X154240773Y-86637889D01*
X160219048Y-87078230D01*
X160219587Y-87078271D01*
X164515459Y-87422581D01*
X164521815Y-87424277D01*
X164539640Y-87425147D01*
X164539641Y-87425148D01*
X164557784Y-87426034D01*
X164561649Y-87426283D01*
X164597624Y-87429168D01*
X164604148Y-87428301D01*
X169238268Y-87654833D01*
X169248538Y-87655766D01*
X173748245Y-88254765D01*
X173766562Y-88258631D01*
X175778631Y-88845020D01*
X175797822Y-88852389D01*
X176459910Y-89171918D01*
X177555149Y-89700490D01*
X177598106Y-89734733D01*
X179244193Y-91793655D01*
X179337678Y-91910586D01*
X179351636Y-91928044D01*
X179358649Y-91940394D01*
X179375323Y-91958254D01*
X179381535Y-91965441D01*
X179396798Y-91984532D01*
X179407995Y-91993253D01*
X179724614Y-92332406D01*
X180127965Y-92764463D01*
X180139614Y-92778991D01*
X180147790Y-92790924D01*
X180170027Y-92809601D01*
X180170159Y-92809661D01*
X180170160Y-92809662D01*
X180170161Y-92809662D01*
X180183183Y-92815588D01*
X180199515Y-92824558D01*
X181147464Y-93442189D01*
X181157818Y-93451570D01*
X181166950Y-93456587D01*
X181166951Y-93456588D01*
X181179538Y-93463503D01*
X181187496Y-93468272D01*
X181199559Y-93476131D01*
X181199559Y-93476130D01*
X181208302Y-93481827D01*
X181221458Y-93486533D01*
X184122148Y-95080115D01*
X184171426Y-95129647D01*
X184180904Y-95152149D01*
X184230456Y-95312336D01*
X184231462Y-95382199D01*
X184203386Y-95432788D01*
X183963500Y-95694386D01*
X183925637Y-95722430D01*
X181567774Y-96850846D01*
X181558723Y-96853384D01*
X181530675Y-96868451D01*
X181525532Y-96871062D01*
X181496828Y-96884801D01*
X181489440Y-96890605D01*
X180202381Y-97582083D01*
X180178166Y-97591814D01*
X180173150Y-97595739D01*
X180155436Y-97607305D01*
X180149829Y-97610317D01*
X180131184Y-97628568D01*
X179233625Y-98330736D01*
X179212127Y-98343892D01*
X179206993Y-98349475D01*
X179192135Y-98363194D01*
X179186163Y-98367866D01*
X179171338Y-98388245D01*
X178470396Y-99150450D01*
X178458878Y-99159593D01*
X178444311Y-99178229D01*
X178437901Y-99185785D01*
X178428469Y-99196043D01*
X178421893Y-99203194D01*
X178414749Y-99216050D01*
X177692524Y-100140058D01*
X177671834Y-100160886D01*
X176751377Y-100890190D01*
X176724692Y-100906330D01*
X175314381Y-101532548D01*
X175297638Y-101538585D01*
X173094620Y-102158317D01*
X173081521Y-102161247D01*
X165593502Y-103415189D01*
X165581851Y-103416577D01*
X156093965Y-104093842D01*
X156089173Y-104093294D01*
X156050692Y-104096900D01*
X156047961Y-104097126D01*
X156009443Y-104099877D01*
X156004812Y-104101201D01*
X154251962Y-104265497D01*
X154239310Y-104266033D01*
X154226231Y-104265919D01*
X154222957Y-104267440D01*
X154214602Y-104277523D01*
X154206043Y-104286840D01*
X154196707Y-104296014D01*
X154195466Y-104299412D01*
X154196687Y-104312443D01*
X154197223Y-104325097D01*
X153931597Y-134693062D01*
X153931441Y-134693822D01*
X153931199Y-134738335D01*
X153931196Y-134738736D01*
X153930810Y-134783091D01*
X153930955Y-134783843D01*
X153768085Y-165000469D01*
X153748040Y-165067402D01*
X153746944Y-165069057D01*
X153165012Y-165933327D01*
X153116628Y-165975465D01*
X152297873Y-166375844D01*
X152258451Y-166387533D01*
X151445078Y-166486992D01*
X151427801Y-166487889D01*
X144259083Y-166359177D01*
X144253582Y-166358956D01*
X137586193Y-165942653D01*
X137520510Y-165918829D01*
X137478135Y-165863276D01*
X137471583Y-165839133D01*
X137345114Y-165074690D01*
X137043875Y-163253844D01*
X146936000Y-163253844D01*
X146942401Y-163313372D01*
X146942403Y-163313379D01*
X146992645Y-163448086D01*
X146992649Y-163448093D01*
X147078809Y-163563187D01*
X147078812Y-163563190D01*
X147193906Y-163649350D01*
X147193913Y-163649354D01*
X147328620Y-163699596D01*
X147328627Y-163699598D01*
X147388155Y-163705999D01*
X147388172Y-163706000D01*
X148086000Y-163706000D01*
X148086000Y-162681277D01*
X148162306Y-162725333D01*
X148276756Y-162756000D01*
X148395244Y-162756000D01*
X148509694Y-162725333D01*
X148586000Y-162681277D01*
X148586000Y-163706000D01*
X149283828Y-163706000D01*
X149283844Y-163705999D01*
X149343372Y-163699598D01*
X149343379Y-163699596D01*
X149478086Y-163649354D01*
X149478093Y-163649350D01*
X149593187Y-163563190D01*
X149593190Y-163563187D01*
X149679350Y-163448093D01*
X149679355Y-163448084D01*
X149704940Y-163379486D01*
X149746810Y-163323552D01*
X149812274Y-163299134D01*
X149880547Y-163313985D01*
X149912349Y-163338832D01*
X149918780Y-163345818D01*
X150102983Y-163489190D01*
X150102985Y-163489191D01*
X150102988Y-163489193D01*
X150222331Y-163553777D01*
X150308273Y-163600287D01*
X150422914Y-163639643D01*
X150529045Y-163676079D01*
X150529047Y-163676079D01*
X150529049Y-163676080D01*
X150759288Y-163714500D01*
X150759289Y-163714500D01*
X150992711Y-163714500D01*
X150992712Y-163714500D01*
X151222951Y-163676080D01*
X151443727Y-163600287D01*
X151649017Y-163489190D01*
X151833220Y-163345818D01*
X151991314Y-163174083D01*
X152118984Y-162978669D01*
X152212749Y-162764907D01*
X152270051Y-162538626D01*
X152289327Y-162306000D01*
X152270051Y-162073374D01*
X152212749Y-161847093D01*
X152118984Y-161633331D01*
X151991314Y-161437917D01*
X151991313Y-161437915D01*
X151833223Y-161266185D01*
X151833222Y-161266184D01*
X151833220Y-161266182D01*
X151649017Y-161122810D01*
X151649015Y-161122809D01*
X151649014Y-161122808D01*
X151649011Y-161122806D01*
X151443733Y-161011716D01*
X151443730Y-161011715D01*
X151443727Y-161011713D01*
X151443721Y-161011711D01*
X151443719Y-161011710D01*
X151222954Y-160935920D01*
X151043650Y-160906000D01*
X150992712Y-160897500D01*
X150759288Y-160897500D01*
X150713240Y-160905184D01*
X150529045Y-160935920D01*
X150308280Y-161011710D01*
X150308266Y-161011716D01*
X150102988Y-161122806D01*
X150102985Y-161122808D01*
X149918781Y-161266181D01*
X149918776Y-161266185D01*
X149912346Y-161273170D01*
X149852457Y-161309157D01*
X149782619Y-161307052D01*
X149725005Y-161267524D01*
X149704940Y-161232513D01*
X149679355Y-161163915D01*
X149679350Y-161163906D01*
X149593190Y-161048812D01*
X149593187Y-161048809D01*
X149478093Y-160962649D01*
X149478086Y-160962645D01*
X149343379Y-160912403D01*
X149343372Y-160912401D01*
X149283844Y-160906000D01*
X148586000Y-160906000D01*
X148586000Y-161930722D01*
X148509694Y-161886667D01*
X148395244Y-161856000D01*
X148276756Y-161856000D01*
X148162306Y-161886667D01*
X148086000Y-161930722D01*
X148086000Y-160906000D01*
X147388155Y-160906000D01*
X147328627Y-160912401D01*
X147328620Y-160912403D01*
X147193913Y-160962645D01*
X147193906Y-160962649D01*
X147078812Y-161048809D01*
X147078809Y-161048812D01*
X146992649Y-161163906D01*
X146992645Y-161163913D01*
X146942403Y-161298620D01*
X146942401Y-161298627D01*
X146936000Y-161358155D01*
X146936000Y-162056000D01*
X147960722Y-162056000D01*
X147916667Y-162132306D01*
X147886000Y-162246756D01*
X147886000Y-162365244D01*
X147916667Y-162479694D01*
X147960722Y-162556000D01*
X146936000Y-162556000D01*
X146936000Y-163253844D01*
X137043875Y-163253844D01*
X136588575Y-160501767D01*
X136587716Y-160495619D01*
X135782019Y-153450001D01*
X147186502Y-153450001D01*
X147206456Y-153678081D01*
X147206457Y-153678089D01*
X147265714Y-153899238D01*
X147265718Y-153899249D01*
X147362475Y-154106745D01*
X147362477Y-154106749D01*
X147493802Y-154294300D01*
X147655700Y-154456198D01*
X147843251Y-154587523D01*
X147968091Y-154645736D01*
X148050750Y-154684281D01*
X148050752Y-154684281D01*
X148050757Y-154684284D01*
X148271913Y-154743543D01*
X148434832Y-154757796D01*
X148499998Y-154763498D01*
X148500000Y-154763498D01*
X148500002Y-154763498D01*
X148557021Y-154758509D01*
X148728087Y-154743543D01*
X148949243Y-154684284D01*
X149156749Y-154587523D01*
X149344300Y-154456198D01*
X149506198Y-154294300D01*
X149637523Y-154106749D01*
X149734284Y-153899243D01*
X149793543Y-153678087D01*
X149813498Y-153450000D01*
X149793543Y-153221913D01*
X149734284Y-153000757D01*
X149637523Y-152793251D01*
X149506198Y-152605700D01*
X149344300Y-152443802D01*
X149156749Y-152312477D01*
X149156745Y-152312475D01*
X148949249Y-152215718D01*
X148949238Y-152215714D01*
X148728089Y-152156457D01*
X148728081Y-152156456D01*
X148500002Y-152136502D01*
X148499998Y-152136502D01*
X148271918Y-152156456D01*
X148271910Y-152156457D01*
X148050761Y-152215714D01*
X148050750Y-152215718D01*
X147843254Y-152312475D01*
X147843252Y-152312476D01*
X147843251Y-152312477D01*
X147655700Y-152443802D01*
X147655698Y-152443803D01*
X147655695Y-152443806D01*
X147493806Y-152605695D01*
X147362476Y-152793252D01*
X147362475Y-152793254D01*
X147265718Y-153000750D01*
X147265714Y-153000761D01*
X147206457Y-153221910D01*
X147206456Y-153221918D01*
X147186502Y-153449998D01*
X147186502Y-153450001D01*
X135782019Y-153450001D01*
X134192734Y-139552101D01*
X134192709Y-139551884D01*
X134161515Y-139274781D01*
X133703940Y-135210000D01*
X140745000Y-135210000D01*
X140745000Y-136277844D01*
X140751401Y-136337372D01*
X140751403Y-136337379D01*
X140801645Y-136472086D01*
X140801649Y-136472093D01*
X140887809Y-136587187D01*
X140887812Y-136587190D01*
X141002906Y-136673350D01*
X141002913Y-136673354D01*
X141137620Y-136723596D01*
X141137627Y-136723598D01*
X141197155Y-136729999D01*
X141197172Y-136730000D01*
X142750000Y-136730000D01*
X142750000Y-135210000D01*
X143250000Y-135210000D01*
X143250000Y-136730000D01*
X144802828Y-136730000D01*
X144802844Y-136729999D01*
X144862372Y-136723598D01*
X144862379Y-136723596D01*
X144997086Y-136673354D01*
X144997093Y-136673350D01*
X145112187Y-136587190D01*
X145112190Y-136587187D01*
X145198350Y-136472093D01*
X145198354Y-136472086D01*
X145248596Y-136337379D01*
X145248598Y-136337372D01*
X145254999Y-136277844D01*
X145255000Y-136277827D01*
X145255000Y-135210000D01*
X143250000Y-135210000D01*
X142750000Y-135210000D01*
X140745000Y-135210000D01*
X133703940Y-135210000D01*
X133647655Y-134710000D01*
X140745000Y-134710000D01*
X142750000Y-134710000D01*
X142750000Y-133190000D01*
X143250000Y-133190000D01*
X143250000Y-134710000D01*
X145255000Y-134710000D01*
X145255000Y-133642172D01*
X145254999Y-133642155D01*
X145248598Y-133582627D01*
X145248596Y-133582620D01*
X145198354Y-133447913D01*
X145198350Y-133447906D01*
X145112190Y-133332812D01*
X145112187Y-133332809D01*
X144997093Y-133246649D01*
X144997086Y-133246645D01*
X144862379Y-133196403D01*
X144862372Y-133196401D01*
X144802844Y-133190000D01*
X143250000Y-133190000D01*
X142750000Y-133190000D01*
X141197155Y-133190000D01*
X141137627Y-133196401D01*
X141137620Y-133196403D01*
X141002913Y-133246645D01*
X141002906Y-133246649D01*
X140887812Y-133332809D01*
X140887809Y-133332812D01*
X140801649Y-133447906D01*
X140801645Y-133447913D01*
X140751403Y-133582620D01*
X140751401Y-133582627D01*
X140745000Y-133642155D01*
X140745000Y-134710000D01*
X133647655Y-134710000D01*
X131091143Y-111999704D01*
X131091265Y-111998207D01*
X131088521Y-111975192D01*
X131088522Y-111975192D01*
X131086098Y-111954871D01*
X131086010Y-111954105D01*
X131081170Y-111911109D01*
X131080709Y-111909676D01*
X130291918Y-105294887D01*
X130292446Y-105278789D01*
X130290707Y-105270581D01*
X130290708Y-105270580D01*
X130287999Y-105257791D01*
X130286183Y-105246794D01*
X130284638Y-105233830D01*
X130284637Y-105233829D01*
X130283645Y-105225505D01*
X130277965Y-105210419D01*
X130100764Y-104373742D01*
X130099042Y-104345296D01*
X130098099Y-104342302D01*
X130098100Y-104342300D01*
X130098098Y-104342298D01*
X130095648Y-104334511D01*
X130089255Y-104325194D01*
X130067919Y-104306295D01*
X129784410Y-103968078D01*
X129779056Y-103961216D01*
X129770368Y-103949233D01*
X129770367Y-103949232D01*
X129770053Y-103948799D01*
X129767557Y-103947384D01*
X129752317Y-103946043D01*
X129743666Y-103944975D01*
X118171288Y-102100001D01*
X129986502Y-102100001D01*
X130006456Y-102328081D01*
X130006457Y-102328089D01*
X130065714Y-102549238D01*
X130065718Y-102549249D01*
X130162475Y-102756745D01*
X130162477Y-102756749D01*
X130293802Y-102944300D01*
X130455700Y-103106198D01*
X130643251Y-103237523D01*
X130768091Y-103295736D01*
X130850750Y-103334281D01*
X130850752Y-103334281D01*
X130850757Y-103334284D01*
X131071913Y-103393543D01*
X131234832Y-103407796D01*
X131299998Y-103413498D01*
X131300000Y-103413498D01*
X131300002Y-103413498D01*
X131357021Y-103408509D01*
X131528087Y-103393543D01*
X131749243Y-103334284D01*
X131956749Y-103237523D01*
X132144300Y-103106198D01*
X132306198Y-102944300D01*
X132437523Y-102756749D01*
X132534284Y-102549243D01*
X132593543Y-102328087D01*
X132613498Y-102100000D01*
X132593543Y-101871913D01*
X132534284Y-101650757D01*
X132528542Y-101638444D01*
X132481978Y-101538585D01*
X132437523Y-101443251D01*
X132306198Y-101255700D01*
X132144300Y-101093802D01*
X131956749Y-100962477D01*
X131956745Y-100962475D01*
X131749249Y-100865718D01*
X131749238Y-100865714D01*
X131528089Y-100806457D01*
X131528081Y-100806456D01*
X131300002Y-100786502D01*
X131299998Y-100786502D01*
X131071918Y-100806456D01*
X131071910Y-100806457D01*
X130850761Y-100865714D01*
X130850750Y-100865718D01*
X130643254Y-100962475D01*
X130643252Y-100962476D01*
X130616546Y-100981176D01*
X130455700Y-101093802D01*
X130455698Y-101093803D01*
X130455695Y-101093806D01*
X130293806Y-101255695D01*
X130162476Y-101443252D01*
X130162475Y-101443254D01*
X130065718Y-101650750D01*
X130065714Y-101650761D01*
X130006457Y-101871910D01*
X130006456Y-101871918D01*
X129986502Y-102099998D01*
X129986502Y-102100001D01*
X118171288Y-102100001D01*
X114362919Y-101492836D01*
X114360574Y-101491983D01*
X114319124Y-101485846D01*
X114317770Y-101485638D01*
X114276248Y-101479019D01*
X114273746Y-101479128D01*
X106637626Y-100348654D01*
X136991500Y-100348654D01*
X136998011Y-100409202D01*
X136998011Y-100409204D01*
X137045492Y-100536502D01*
X137049111Y-100546204D01*
X137136739Y-100663261D01*
X137253796Y-100750889D01*
X137390799Y-100801989D01*
X137418050Y-100804918D01*
X137451345Y-100808499D01*
X137451362Y-100808500D01*
X139148638Y-100808500D01*
X139148654Y-100808499D01*
X139175692Y-100805591D01*
X139209201Y-100801989D01*
X139346204Y-100750889D01*
X139463261Y-100663261D01*
X139550889Y-100546204D01*
X139601989Y-100409201D01*
X139607047Y-100362152D01*
X139608499Y-100348654D01*
X139608500Y-100348637D01*
X139608500Y-98651362D01*
X139608499Y-98651345D01*
X139605157Y-98620270D01*
X139601989Y-98590799D01*
X139584299Y-98543372D01*
X139562090Y-98483827D01*
X139550889Y-98453796D01*
X139463261Y-98336739D01*
X139346204Y-98249111D01*
X139209203Y-98198011D01*
X139148654Y-98191500D01*
X139148638Y-98191500D01*
X137451362Y-98191500D01*
X137451345Y-98191500D01*
X137390797Y-98198011D01*
X137390795Y-98198011D01*
X137253795Y-98249111D01*
X137136739Y-98336739D01*
X137049111Y-98453795D01*
X136998011Y-98590795D01*
X136998011Y-98590797D01*
X136991500Y-98651345D01*
X136991500Y-100348654D01*
X106637626Y-100348654D01*
X101606256Y-99603795D01*
X101598067Y-99601060D01*
X101565227Y-99597609D01*
X101560029Y-99596951D01*
X101527417Y-99592123D01*
X101518802Y-99592731D01*
X97488302Y-99169252D01*
X97474854Y-99164283D01*
X97474369Y-99166548D01*
X97447857Y-99160869D01*
X97425621Y-99161725D01*
X97399628Y-99169424D01*
X97398971Y-99167208D01*
X97385947Y-99173191D01*
X96545831Y-99327500D01*
X96531344Y-99326970D01*
X96501572Y-99331102D01*
X96493822Y-99333985D01*
X96479115Y-99343502D01*
X96468548Y-99357476D01*
X96465102Y-99365005D01*
X96458808Y-99394381D01*
X96458277Y-99408872D01*
X96219145Y-100326993D01*
X96212329Y-100343064D01*
X96209349Y-100362152D01*
X96206832Y-100374268D01*
X96201961Y-100392972D01*
X96201813Y-100410430D01*
X95443571Y-105268812D01*
X94975071Y-108270696D01*
X94974382Y-108275109D01*
X94974318Y-108275516D01*
X93987601Y-114462901D01*
X93985495Y-114473249D01*
X93128634Y-117924917D01*
X93119466Y-117949952D01*
X92658274Y-118883741D01*
X92637347Y-118913863D01*
X92120978Y-119461922D01*
X92068090Y-119495126D01*
X90598822Y-119959433D01*
X90562367Y-119965193D01*
X85505125Y-120002262D01*
X85497596Y-120002088D01*
X81488745Y-119787747D01*
X81422852Y-119764511D01*
X81379981Y-119709340D01*
X81371367Y-119664702D01*
X81370782Y-119571450D01*
X81322527Y-111881288D01*
X87049500Y-111881288D01*
X87081161Y-112121785D01*
X87143947Y-112356104D01*
X87236773Y-112580205D01*
X87236776Y-112580212D01*
X87358064Y-112790289D01*
X87358066Y-112790292D01*
X87358067Y-112790293D01*
X87505733Y-112982736D01*
X87505739Y-112982743D01*
X87677256Y-113154260D01*
X87677262Y-113154265D01*
X87869711Y-113301936D01*
X88079788Y-113423224D01*
X88303900Y-113516054D01*
X88538211Y-113578838D01*
X88718586Y-113602584D01*
X88778711Y-113610500D01*
X88778712Y-113610500D01*
X89021289Y-113610500D01*
X89069388Y-113604167D01*
X89261789Y-113578838D01*
X89496100Y-113516054D01*
X89720212Y-113423224D01*
X89930289Y-113301936D01*
X90122738Y-113154265D01*
X90294265Y-112982738D01*
X90441936Y-112790289D01*
X90563224Y-112580212D01*
X90656054Y-112356100D01*
X90718838Y-112121789D01*
X90750500Y-111881288D01*
X90750500Y-111638712D01*
X90718838Y-111398211D01*
X90656054Y-111163900D01*
X90563224Y-110939788D01*
X90441936Y-110729711D01*
X90294265Y-110537262D01*
X90294260Y-110537256D01*
X90122743Y-110365739D01*
X90122736Y-110365733D01*
X89930293Y-110218067D01*
X89930292Y-110218066D01*
X89930289Y-110218064D01*
X89720212Y-110096776D01*
X89720205Y-110096773D01*
X89496104Y-110003947D01*
X89261785Y-109941161D01*
X89021289Y-109909500D01*
X89021288Y-109909500D01*
X88778712Y-109909500D01*
X88778711Y-109909500D01*
X88538214Y-109941161D01*
X88303895Y-110003947D01*
X88079794Y-110096773D01*
X88079785Y-110096777D01*
X87869706Y-110218067D01*
X87677263Y-110365733D01*
X87677256Y-110365739D01*
X87505739Y-110537256D01*
X87505733Y-110537263D01*
X87358067Y-110729706D01*
X87236777Y-110939785D01*
X87236773Y-110939794D01*
X87143947Y-111163895D01*
X87081161Y-111398214D01*
X87049500Y-111638711D01*
X87049500Y-111881288D01*
X81322527Y-111881288D01*
X81223003Y-96020482D01*
X81223003Y-96019164D01*
X81223333Y-95951760D01*
X81228002Y-94996005D01*
X87486673Y-94996005D01*
X87505948Y-95228622D01*
X87563251Y-95454907D01*
X87657015Y-95668668D01*
X87784683Y-95864080D01*
X87878073Y-95965528D01*
X87908995Y-96028183D01*
X87901135Y-96097609D01*
X87856988Y-96151764D01*
X87830177Y-96165693D01*
X87757911Y-96192646D01*
X87757906Y-96192649D01*
X87642812Y-96278809D01*
X87642809Y-96278812D01*
X87556649Y-96393906D01*
X87556645Y-96393913D01*
X87506403Y-96528620D01*
X87506401Y-96528627D01*
X87500000Y-96588155D01*
X87500000Y-97286000D01*
X88524722Y-97286000D01*
X88480667Y-97362306D01*
X88450000Y-97476756D01*
X88450000Y-97595244D01*
X88480667Y-97709694D01*
X88524722Y-97786000D01*
X87500000Y-97786000D01*
X87500000Y-98483844D01*
X87506401Y-98543372D01*
X87506403Y-98543379D01*
X87556645Y-98678086D01*
X87556649Y-98678093D01*
X87642809Y-98793187D01*
X87642812Y-98793190D01*
X87757906Y-98879350D01*
X87757913Y-98879354D01*
X87892620Y-98929596D01*
X87892627Y-98929598D01*
X87952155Y-98935999D01*
X87952172Y-98936000D01*
X88650000Y-98936000D01*
X88650000Y-97911277D01*
X88726306Y-97955333D01*
X88840756Y-97986000D01*
X88959244Y-97986000D01*
X89073694Y-97955333D01*
X89150000Y-97911277D01*
X89150000Y-98936000D01*
X89847828Y-98936000D01*
X89847844Y-98935999D01*
X89907372Y-98929598D01*
X89907379Y-98929596D01*
X90042086Y-98879354D01*
X90042093Y-98879350D01*
X90157187Y-98793190D01*
X90157190Y-98793187D01*
X90243350Y-98678093D01*
X90243354Y-98678086D01*
X90293596Y-98543379D01*
X90293598Y-98543372D01*
X90299999Y-98483844D01*
X90300000Y-98483827D01*
X90300000Y-97786000D01*
X89275278Y-97786000D01*
X89319333Y-97709694D01*
X89350000Y-97595244D01*
X89350000Y-97476756D01*
X89319333Y-97362306D01*
X89275278Y-97286000D01*
X90300000Y-97286000D01*
X90300000Y-96588172D01*
X90299999Y-96588155D01*
X90293598Y-96528627D01*
X90293596Y-96528620D01*
X90243354Y-96393913D01*
X90243350Y-96393906D01*
X90157190Y-96278812D01*
X90157187Y-96278809D01*
X90042093Y-96192649D01*
X90042086Y-96192645D01*
X89969823Y-96165693D01*
X89913889Y-96123822D01*
X89889472Y-96058357D01*
X89904324Y-95990084D01*
X89921927Y-95965528D01*
X89982245Y-95900005D01*
X94956844Y-95900005D01*
X94975434Y-96124359D01*
X94975436Y-96124371D01*
X95030703Y-96342614D01*
X95121140Y-96548792D01*
X95244276Y-96737265D01*
X95244284Y-96737276D01*
X95366299Y-96869817D01*
X95396760Y-96902906D01*
X95574424Y-97041189D01*
X95574425Y-97041189D01*
X95574427Y-97041191D01*
X95701135Y-97109761D01*
X95772426Y-97148342D01*
X95985365Y-97221444D01*
X96207431Y-97258500D01*
X96432569Y-97258500D01*
X96654630Y-97221445D01*
X96654631Y-97221444D01*
X96654635Y-97221444D01*
X96654637Y-97221442D01*
X96658849Y-97220376D01*
X96728669Y-97222988D01*
X96776991Y-97252895D01*
X97002929Y-97478833D01*
X97051468Y-97527372D01*
X97091168Y-97567072D01*
X97194918Y-97636396D01*
X97194924Y-97636399D01*
X97194925Y-97636400D01*
X97310215Y-97684155D01*
X97432601Y-97708499D01*
X97432605Y-97708500D01*
X97432606Y-97708500D01*
X123687395Y-97708500D01*
X123687396Y-97708499D01*
X123809785Y-97684155D01*
X123925075Y-97636400D01*
X124028833Y-97567071D01*
X129715901Y-91880001D01*
X136986502Y-91880001D01*
X137006456Y-92108081D01*
X137006457Y-92108089D01*
X137065714Y-92329238D01*
X137065718Y-92329249D01*
X137136942Y-92481989D01*
X137162477Y-92536749D01*
X137293802Y-92724300D01*
X137455700Y-92886198D01*
X137643251Y-93017523D01*
X137684407Y-93036714D01*
X137850750Y-93114281D01*
X137850752Y-93114281D01*
X137850757Y-93114284D01*
X138071913Y-93173543D01*
X138234832Y-93187796D01*
X138299998Y-93193498D01*
X138300000Y-93193498D01*
X138300002Y-93193498D01*
X138359013Y-93188335D01*
X138528087Y-93173543D01*
X138592657Y-93156241D01*
X138662506Y-93157904D01*
X138712431Y-93188335D01*
X142330181Y-96806085D01*
X142363666Y-96867408D01*
X142366500Y-96893766D01*
X142366500Y-103697500D01*
X142346815Y-103764539D01*
X142294011Y-103810294D01*
X142242500Y-103821500D01*
X141196345Y-103821500D01*
X141135797Y-103828011D01*
X141135795Y-103828011D01*
X140998795Y-103879111D01*
X140881739Y-103966739D01*
X140794111Y-104083795D01*
X140743011Y-104220795D01*
X140743011Y-104220797D01*
X140736500Y-104281345D01*
X140736500Y-106918654D01*
X140743011Y-106979202D01*
X140743011Y-106979204D01*
X140794111Y-107116204D01*
X140881739Y-107233261D01*
X140998796Y-107320889D01*
X141135799Y-107371989D01*
X141163050Y-107374918D01*
X141196345Y-107378499D01*
X141196362Y-107378500D01*
X144803638Y-107378500D01*
X144803654Y-107378499D01*
X144830692Y-107375591D01*
X144864201Y-107371989D01*
X145001204Y-107320889D01*
X145118261Y-107233261D01*
X145205889Y-107116204D01*
X145256989Y-106979201D01*
X145260591Y-106945692D01*
X145263499Y-106918654D01*
X145263500Y-106918637D01*
X145263500Y-104281362D01*
X145263499Y-104281345D01*
X145260157Y-104250270D01*
X145256989Y-104220799D01*
X145248370Y-104197692D01*
X145234522Y-104160564D01*
X145205889Y-104083796D01*
X145118261Y-103966739D01*
X145001204Y-103879111D01*
X144864203Y-103828011D01*
X144803654Y-103821500D01*
X144803638Y-103821500D01*
X143757500Y-103821500D01*
X143690461Y-103801815D01*
X143644706Y-103749011D01*
X143633500Y-103697500D01*
X143633500Y-99353472D01*
X143653185Y-99286433D01*
X143705989Y-99240678D01*
X143775147Y-99230734D01*
X143838703Y-99259759D01*
X143869882Y-99301068D01*
X143920152Y-99408872D01*
X143942477Y-99456749D01*
X144073802Y-99644300D01*
X144235700Y-99806198D01*
X144423251Y-99937523D01*
X144548091Y-99995736D01*
X144630750Y-100034281D01*
X144630752Y-100034281D01*
X144630757Y-100034284D01*
X144851913Y-100093543D01*
X145014832Y-100107796D01*
X145079998Y-100113498D01*
X145080000Y-100113498D01*
X145080002Y-100113498D01*
X145137021Y-100108509D01*
X145308087Y-100093543D01*
X145529243Y-100034284D01*
X145736749Y-99937523D01*
X145924300Y-99806198D01*
X146086198Y-99644300D01*
X146217523Y-99456749D01*
X146237618Y-99413655D01*
X146283790Y-99361215D01*
X146350983Y-99342063D01*
X146417864Y-99362278D01*
X146462382Y-99413655D01*
X146482477Y-99456749D01*
X146613802Y-99644300D01*
X146775700Y-99806198D01*
X146963251Y-99937523D01*
X147088091Y-99995736D01*
X147170750Y-100034281D01*
X147170752Y-100034281D01*
X147170757Y-100034284D01*
X147391913Y-100093543D01*
X147554832Y-100107796D01*
X147619998Y-100113498D01*
X147620000Y-100113498D01*
X147620002Y-100113498D01*
X147677021Y-100108509D01*
X147848087Y-100093543D01*
X148069243Y-100034284D01*
X148276749Y-99937523D01*
X148464300Y-99806198D01*
X148626198Y-99644300D01*
X148757523Y-99456749D01*
X148777618Y-99413655D01*
X148823790Y-99361215D01*
X148890983Y-99342063D01*
X148957864Y-99362278D01*
X149002382Y-99413655D01*
X149022477Y-99456749D01*
X149153802Y-99644300D01*
X149315700Y-99806198D01*
X149473625Y-99916779D01*
X149517249Y-99971354D01*
X149526500Y-100018352D01*
X149526500Y-138776232D01*
X149506815Y-138843271D01*
X149490181Y-138863913D01*
X148912429Y-139441664D01*
X148851106Y-139475149D01*
X148792655Y-139473758D01*
X148728087Y-139456457D01*
X148728085Y-139456456D01*
X148728081Y-139456456D01*
X148500002Y-139436502D01*
X148499998Y-139436502D01*
X148271918Y-139456456D01*
X148271910Y-139456457D01*
X148050761Y-139515714D01*
X148050750Y-139515718D01*
X147843254Y-139612475D01*
X147843252Y-139612476D01*
X147843251Y-139612477D01*
X147655700Y-139743802D01*
X147655698Y-139743803D01*
X147655695Y-139743806D01*
X147493806Y-139905695D01*
X147362476Y-140093252D01*
X147362475Y-140093254D01*
X147265718Y-140300750D01*
X147265714Y-140300761D01*
X147206457Y-140521910D01*
X147206456Y-140521918D01*
X147186502Y-140749998D01*
X147186502Y-140750001D01*
X147206456Y-140978081D01*
X147206457Y-140978089D01*
X147265714Y-141199238D01*
X147265718Y-141199249D01*
X147362475Y-141406745D01*
X147362477Y-141406749D01*
X147493802Y-141594300D01*
X147655700Y-141756198D01*
X147843251Y-141887523D01*
X147968091Y-141945736D01*
X148050750Y-141984281D01*
X148050752Y-141984281D01*
X148050757Y-141984284D01*
X148271913Y-142043543D01*
X148434832Y-142057796D01*
X148499998Y-142063498D01*
X148500000Y-142063498D01*
X148500002Y-142063498D01*
X148557021Y-142058509D01*
X148728087Y-142043543D01*
X148949243Y-141984284D01*
X149156749Y-141887523D01*
X149344300Y-141756198D01*
X149506198Y-141594300D01*
X149637523Y-141406749D01*
X149734284Y-141199243D01*
X149793543Y-140978087D01*
X149813498Y-140750000D01*
X149793543Y-140521913D01*
X149776241Y-140457342D01*
X149777904Y-140387493D01*
X149808333Y-140337570D01*
X150652072Y-139493833D01*
X150721401Y-139390075D01*
X150769155Y-139274784D01*
X150793500Y-139152393D01*
X150793500Y-139027606D01*
X150793500Y-101850001D01*
X155186502Y-101850001D01*
X155206456Y-102078081D01*
X155206457Y-102078089D01*
X155265714Y-102299238D01*
X155265718Y-102299249D01*
X155362475Y-102506745D01*
X155362477Y-102506749D01*
X155493802Y-102694300D01*
X155655700Y-102856198D01*
X155843251Y-102987523D01*
X155968091Y-103045736D01*
X156050750Y-103084281D01*
X156050752Y-103084281D01*
X156050757Y-103084284D01*
X156271913Y-103143543D01*
X156434832Y-103157796D01*
X156499998Y-103163498D01*
X156500000Y-103163498D01*
X156500002Y-103163498D01*
X156557021Y-103158509D01*
X156728087Y-103143543D01*
X156949243Y-103084284D01*
X157156749Y-102987523D01*
X157344300Y-102856198D01*
X157506198Y-102694300D01*
X157637523Y-102506749D01*
X157734284Y-102299243D01*
X157793543Y-102078087D01*
X157813498Y-101850000D01*
X157793543Y-101621913D01*
X157734284Y-101400757D01*
X157637523Y-101193251D01*
X157506198Y-101005700D01*
X157344300Y-100843802D01*
X157156749Y-100712477D01*
X157156745Y-100712475D01*
X156949249Y-100615718D01*
X156949238Y-100615714D01*
X156728089Y-100556457D01*
X156728081Y-100556456D01*
X156500002Y-100536502D01*
X156499998Y-100536502D01*
X156271918Y-100556456D01*
X156271910Y-100556457D01*
X156050761Y-100615714D01*
X156050750Y-100615718D01*
X155843254Y-100712475D01*
X155843252Y-100712476D01*
X155788393Y-100750889D01*
X155655700Y-100843802D01*
X155655698Y-100843803D01*
X155655695Y-100843806D01*
X155493806Y-101005695D01*
X155362476Y-101193252D01*
X155362475Y-101193254D01*
X155265718Y-101400750D01*
X155265714Y-101400761D01*
X155206457Y-101621910D01*
X155206456Y-101621918D01*
X155186502Y-101849998D01*
X155186502Y-101850001D01*
X150793500Y-101850001D01*
X150793500Y-100018352D01*
X150813185Y-99951313D01*
X150846373Y-99916779D01*
X151004300Y-99806198D01*
X151166198Y-99644300D01*
X151297523Y-99456749D01*
X151317618Y-99413655D01*
X151363790Y-99361215D01*
X151430983Y-99342063D01*
X151497864Y-99362278D01*
X151542382Y-99413655D01*
X151562477Y-99456749D01*
X151693802Y-99644300D01*
X151855700Y-99806198D01*
X152043251Y-99937523D01*
X152168091Y-99995736D01*
X152250750Y-100034281D01*
X152250752Y-100034281D01*
X152250757Y-100034284D01*
X152471913Y-100093543D01*
X152634832Y-100107796D01*
X152699998Y-100113498D01*
X152700000Y-100113498D01*
X152700002Y-100113498D01*
X152757021Y-100108509D01*
X152928087Y-100093543D01*
X153149243Y-100034284D01*
X153356749Y-99937523D01*
X153544300Y-99806198D01*
X153706198Y-99644300D01*
X153837523Y-99456749D01*
X153934284Y-99249243D01*
X153993543Y-99028087D01*
X154013498Y-98800000D01*
X153993543Y-98571913D01*
X153934284Y-98350757D01*
X153931316Y-98344393D01*
X153863058Y-98198011D01*
X153837523Y-98143251D01*
X153827280Y-98128622D01*
X153804953Y-98062416D01*
X153821965Y-97994649D01*
X153872913Y-97946836D01*
X153928856Y-97933500D01*
X159049554Y-97933500D01*
X159116593Y-97953185D01*
X159155281Y-97992710D01*
X159275820Y-98189410D01*
X159275821Y-98189413D01*
X159326808Y-98249111D01*
X159430031Y-98369969D01*
X159528179Y-98453795D01*
X159610586Y-98524178D01*
X159610588Y-98524178D01*
X159719296Y-98590795D01*
X159813037Y-98648240D01*
X159813040Y-98648242D01*
X160032403Y-98739104D01*
X160032404Y-98739104D01*
X160032406Y-98739105D01*
X160263289Y-98794535D01*
X160500000Y-98813165D01*
X160736711Y-98794535D01*
X160967594Y-98739105D01*
X160967596Y-98739104D01*
X160967597Y-98739104D01*
X161186959Y-98648242D01*
X161186960Y-98648241D01*
X161186963Y-98648240D01*
X161389416Y-98524176D01*
X161569969Y-98369969D01*
X161724176Y-98189416D01*
X161848240Y-97986963D01*
X161861190Y-97955700D01*
X161939104Y-97767597D01*
X161939104Y-97767596D01*
X161939105Y-97767594D01*
X161994535Y-97536711D01*
X162013165Y-97300000D01*
X165486835Y-97300000D01*
X165505465Y-97536714D01*
X165560895Y-97767595D01*
X165560895Y-97767597D01*
X165651757Y-97986959D01*
X165651759Y-97986962D01*
X165775820Y-98189410D01*
X165775821Y-98189413D01*
X165826808Y-98249111D01*
X165930031Y-98369969D01*
X166028179Y-98453795D01*
X166110586Y-98524178D01*
X166110588Y-98524178D01*
X166219296Y-98590795D01*
X166313037Y-98648240D01*
X166313040Y-98648242D01*
X166532403Y-98739104D01*
X166532404Y-98739104D01*
X166532406Y-98739105D01*
X166763289Y-98794535D01*
X167000000Y-98813165D01*
X167236711Y-98794535D01*
X167467594Y-98739105D01*
X167467596Y-98739104D01*
X167467597Y-98739104D01*
X167686959Y-98648242D01*
X167686960Y-98648241D01*
X167686963Y-98648240D01*
X167889416Y-98524176D01*
X168069969Y-98369969D01*
X168224176Y-98189416D01*
X168348240Y-97986963D01*
X168361190Y-97955700D01*
X168439104Y-97767597D01*
X168439104Y-97767596D01*
X168439105Y-97767594D01*
X168494535Y-97536711D01*
X168513165Y-97300000D01*
X168494535Y-97063289D01*
X168439105Y-96832406D01*
X168439104Y-96832403D01*
X168439104Y-96832402D01*
X168348242Y-96613040D01*
X168348240Y-96613037D01*
X168296509Y-96528620D01*
X168224178Y-96410588D01*
X168224178Y-96410586D01*
X168186034Y-96365925D01*
X168069969Y-96230031D01*
X167945614Y-96123822D01*
X167889413Y-96075821D01*
X167889410Y-96075820D01*
X167686962Y-95951759D01*
X167686959Y-95951757D01*
X167467596Y-95860895D01*
X167236714Y-95805465D01*
X167000000Y-95786835D01*
X166763285Y-95805465D01*
X166532404Y-95860895D01*
X166532402Y-95860895D01*
X166313040Y-95951757D01*
X166313037Y-95951759D01*
X166110589Y-96075820D01*
X166110586Y-96075821D01*
X165930031Y-96230031D01*
X165775821Y-96410586D01*
X165775820Y-96410589D01*
X165651759Y-96613037D01*
X165651757Y-96613040D01*
X165560895Y-96832402D01*
X165560895Y-96832404D01*
X165505465Y-97063285D01*
X165486835Y-97300000D01*
X162013165Y-97300000D01*
X161994535Y-97063289D01*
X161939105Y-96832406D01*
X161939104Y-96832403D01*
X161939104Y-96832402D01*
X161848242Y-96613040D01*
X161848240Y-96613037D01*
X161796509Y-96528620D01*
X161724178Y-96410588D01*
X161724178Y-96410586D01*
X161686034Y-96365925D01*
X161569969Y-96230031D01*
X161445614Y-96123822D01*
X161389413Y-96075821D01*
X161389410Y-96075820D01*
X161186962Y-95951759D01*
X161186959Y-95951757D01*
X160967596Y-95860895D01*
X160736714Y-95805465D01*
X160500000Y-95786835D01*
X160263285Y-95805465D01*
X160032404Y-95860895D01*
X160032402Y-95860895D01*
X159813040Y-95951757D01*
X159813037Y-95951759D01*
X159610589Y-96075820D01*
X159610586Y-96075821D01*
X159430031Y-96230031D01*
X159275821Y-96410586D01*
X159275820Y-96410589D01*
X159155281Y-96607290D01*
X159103469Y-96654165D01*
X159049554Y-96666500D01*
X143757500Y-96666500D01*
X143690461Y-96646815D01*
X143644706Y-96594011D01*
X143633500Y-96542500D01*
X143633500Y-96517605D01*
X143633499Y-96517601D01*
X143609157Y-96395222D01*
X143609154Y-96395213D01*
X143587368Y-96342616D01*
X143576965Y-96317500D01*
X143561401Y-96279925D01*
X143561399Y-96279923D01*
X143561399Y-96279921D01*
X143492072Y-96176167D01*
X143492069Y-96176163D01*
X140115904Y-92800000D01*
X158986835Y-92800000D01*
X159005465Y-93036714D01*
X159060895Y-93267595D01*
X159060895Y-93267597D01*
X159151757Y-93486959D01*
X159151759Y-93486962D01*
X159275820Y-93689410D01*
X159275821Y-93689413D01*
X159286329Y-93701716D01*
X159430031Y-93869969D01*
X159569797Y-93989340D01*
X159610586Y-94024178D01*
X159610589Y-94024179D01*
X159813037Y-94148240D01*
X159813040Y-94148242D01*
X160032403Y-94239104D01*
X160032404Y-94239104D01*
X160032406Y-94239105D01*
X160263289Y-94294535D01*
X160500000Y-94313165D01*
X160736711Y-94294535D01*
X160967594Y-94239105D01*
X160967596Y-94239104D01*
X160967597Y-94239104D01*
X161186959Y-94148242D01*
X161186960Y-94148241D01*
X161186963Y-94148240D01*
X161389416Y-94024176D01*
X161569969Y-93869969D01*
X161724176Y-93689416D01*
X161848240Y-93486963D01*
X161850368Y-93481827D01*
X161939104Y-93267597D01*
X161939104Y-93267596D01*
X161939105Y-93267594D01*
X161994535Y-93036711D01*
X162013165Y-92800000D01*
X165486835Y-92800000D01*
X165505465Y-93036714D01*
X165560895Y-93267595D01*
X165560895Y-93267597D01*
X165651757Y-93486959D01*
X165651759Y-93486962D01*
X165775820Y-93689410D01*
X165775821Y-93689413D01*
X165786329Y-93701716D01*
X165930031Y-93869969D01*
X166069797Y-93989340D01*
X166110586Y-94024178D01*
X166110589Y-94024179D01*
X166313037Y-94148240D01*
X166313040Y-94148242D01*
X166532403Y-94239104D01*
X166532404Y-94239104D01*
X166532406Y-94239105D01*
X166763289Y-94294535D01*
X167000000Y-94313165D01*
X167236711Y-94294535D01*
X167467594Y-94239105D01*
X167467596Y-94239104D01*
X167467597Y-94239104D01*
X167686959Y-94148242D01*
X167686960Y-94148241D01*
X167686963Y-94148240D01*
X167889416Y-94024176D01*
X167941134Y-93980005D01*
X170086673Y-93980005D01*
X170105948Y-94212622D01*
X170163251Y-94438907D01*
X170257015Y-94652668D01*
X170384683Y-94848080D01*
X170478073Y-94949528D01*
X170508995Y-95012183D01*
X170501135Y-95081609D01*
X170456988Y-95135764D01*
X170430177Y-95149693D01*
X170357911Y-95176646D01*
X170357906Y-95176649D01*
X170242812Y-95262809D01*
X170242809Y-95262812D01*
X170156649Y-95377906D01*
X170156645Y-95377913D01*
X170106403Y-95512620D01*
X170106401Y-95512627D01*
X170100000Y-95572155D01*
X170100000Y-96270000D01*
X171124722Y-96270000D01*
X171080667Y-96346306D01*
X171050000Y-96460756D01*
X171050000Y-96579244D01*
X171080667Y-96693694D01*
X171124722Y-96770000D01*
X170100000Y-96770000D01*
X170100000Y-97467844D01*
X170106401Y-97527372D01*
X170106403Y-97527379D01*
X170156645Y-97662086D01*
X170156649Y-97662093D01*
X170242809Y-97777187D01*
X170242812Y-97777190D01*
X170357906Y-97863350D01*
X170357913Y-97863354D01*
X170492620Y-97913596D01*
X170492627Y-97913598D01*
X170552155Y-97919999D01*
X170552172Y-97920000D01*
X171250000Y-97920000D01*
X171250000Y-96895277D01*
X171326306Y-96939333D01*
X171440756Y-96970000D01*
X171559244Y-96970000D01*
X171673694Y-96939333D01*
X171750000Y-96895277D01*
X171750000Y-97920000D01*
X172447828Y-97920000D01*
X172447844Y-97919999D01*
X172507372Y-97913598D01*
X172507379Y-97913596D01*
X172642086Y-97863354D01*
X172642093Y-97863350D01*
X172757187Y-97777190D01*
X172757190Y-97777187D01*
X172843350Y-97662093D01*
X172843354Y-97662086D01*
X172893596Y-97527379D01*
X172893598Y-97527372D01*
X172899999Y-97467844D01*
X172900000Y-97467827D01*
X172900000Y-96770000D01*
X171875278Y-96770000D01*
X171919333Y-96693694D01*
X171950000Y-96579244D01*
X171950000Y-96460756D01*
X171919333Y-96346306D01*
X171875278Y-96270000D01*
X172900000Y-96270000D01*
X172900000Y-95572172D01*
X172899999Y-95572155D01*
X172893598Y-95512627D01*
X172893596Y-95512620D01*
X172843354Y-95377913D01*
X172843350Y-95377906D01*
X172757190Y-95262812D01*
X172757187Y-95262809D01*
X172642093Y-95176649D01*
X172642086Y-95176645D01*
X172569823Y-95149693D01*
X172513889Y-95107822D01*
X172489472Y-95042357D01*
X172504324Y-94974084D01*
X172521927Y-94949528D01*
X172615313Y-94848084D01*
X172644248Y-94803796D01*
X172742984Y-94652669D01*
X172836749Y-94438907D01*
X172894051Y-94212626D01*
X172909666Y-94024179D01*
X172913327Y-93980005D01*
X172913327Y-93979994D01*
X172894051Y-93747377D01*
X172894051Y-93747374D01*
X172836749Y-93521093D01*
X172742984Y-93307331D01*
X172717023Y-93267594D01*
X172615313Y-93111915D01*
X172457223Y-92940185D01*
X172457222Y-92940184D01*
X172457220Y-92940182D01*
X172273017Y-92796810D01*
X172273015Y-92796809D01*
X172273014Y-92796808D01*
X172273011Y-92796806D01*
X172067733Y-92685716D01*
X172067730Y-92685715D01*
X172067727Y-92685713D01*
X172067721Y-92685711D01*
X172067719Y-92685710D01*
X171846954Y-92609920D01*
X171674271Y-92581105D01*
X171616712Y-92571500D01*
X171383288Y-92571500D01*
X171337240Y-92579184D01*
X171153045Y-92609920D01*
X170932280Y-92685710D01*
X170932266Y-92685716D01*
X170726988Y-92796806D01*
X170726985Y-92796808D01*
X170542781Y-92940181D01*
X170542776Y-92940185D01*
X170384686Y-93111915D01*
X170257015Y-93307331D01*
X170163251Y-93521092D01*
X170105948Y-93747377D01*
X170086673Y-93979994D01*
X170086673Y-93980005D01*
X167941134Y-93980005D01*
X168069969Y-93869969D01*
X168224176Y-93689416D01*
X168348240Y-93486963D01*
X168350368Y-93481827D01*
X168439104Y-93267597D01*
X168439104Y-93267596D01*
X168439105Y-93267594D01*
X168494535Y-93036711D01*
X168513165Y-92800000D01*
X168494535Y-92563289D01*
X168439105Y-92332406D01*
X168439104Y-92332403D01*
X168439104Y-92332402D01*
X168348242Y-92113040D01*
X168348240Y-92113037D01*
X168242444Y-91940394D01*
X168224178Y-91910588D01*
X168224178Y-91910586D01*
X168157471Y-91832483D01*
X168069969Y-91730031D01*
X167902901Y-91587341D01*
X167889413Y-91575821D01*
X167889410Y-91575820D01*
X167686962Y-91451759D01*
X167686959Y-91451757D01*
X167467596Y-91360895D01*
X167236714Y-91305465D01*
X167000000Y-91286835D01*
X166763285Y-91305465D01*
X166532404Y-91360895D01*
X166532402Y-91360895D01*
X166313040Y-91451757D01*
X166313037Y-91451759D01*
X166110589Y-91575820D01*
X166110586Y-91575821D01*
X165930031Y-91730031D01*
X165775821Y-91910586D01*
X165775820Y-91910589D01*
X165651759Y-92113037D01*
X165651757Y-92113040D01*
X165560895Y-92332402D01*
X165560895Y-92332404D01*
X165505465Y-92563285D01*
X165486835Y-92800000D01*
X162013165Y-92800000D01*
X161994535Y-92563289D01*
X161939105Y-92332406D01*
X161939104Y-92332403D01*
X161939104Y-92332402D01*
X161848242Y-92113040D01*
X161848240Y-92113037D01*
X161742444Y-91940394D01*
X161724178Y-91910588D01*
X161724178Y-91910586D01*
X161657471Y-91832483D01*
X161569969Y-91730031D01*
X161402901Y-91587341D01*
X161389413Y-91575821D01*
X161389410Y-91575820D01*
X161186962Y-91451759D01*
X161186959Y-91451757D01*
X160967596Y-91360895D01*
X160736714Y-91305465D01*
X160500000Y-91286835D01*
X160263285Y-91305465D01*
X160032404Y-91360895D01*
X160032402Y-91360895D01*
X159813040Y-91451757D01*
X159813037Y-91451759D01*
X159610589Y-91575820D01*
X159610586Y-91575821D01*
X159430031Y-91730031D01*
X159275821Y-91910586D01*
X159275820Y-91910589D01*
X159151759Y-92113037D01*
X159151757Y-92113040D01*
X159060895Y-92332402D01*
X159060895Y-92332404D01*
X159005465Y-92563285D01*
X158986835Y-92800000D01*
X140115904Y-92800000D01*
X139608335Y-92292431D01*
X139574850Y-92231108D01*
X139576240Y-92172658D01*
X139593543Y-92108087D01*
X139613498Y-91880000D01*
X139593543Y-91651913D01*
X139576241Y-91587341D01*
X139577904Y-91517491D01*
X139608333Y-91467569D01*
X140145903Y-90929999D01*
X143801127Y-90929999D01*
X143801128Y-90930000D01*
X144764314Y-90930000D01*
X144759920Y-90934394D01*
X144707259Y-91025606D01*
X144680000Y-91127339D01*
X144680000Y-91232661D01*
X144707259Y-91334394D01*
X144759920Y-91425606D01*
X144764314Y-91430000D01*
X143801128Y-91430000D01*
X143853730Y-91626317D01*
X143853734Y-91626326D01*
X143949865Y-91832482D01*
X144080342Y-92018820D01*
X144241179Y-92179657D01*
X144427517Y-92310134D01*
X144633673Y-92406265D01*
X144633682Y-92406269D01*
X144829999Y-92458872D01*
X144830000Y-92458871D01*
X144830000Y-91495686D01*
X144834394Y-91500080D01*
X144925606Y-91552741D01*
X145027339Y-91580000D01*
X145132661Y-91580000D01*
X145234394Y-91552741D01*
X145325606Y-91500080D01*
X145330000Y-91495686D01*
X145330000Y-92458872D01*
X145526317Y-92406269D01*
X145526326Y-92406265D01*
X145732482Y-92310134D01*
X145918820Y-92179657D01*
X146079657Y-92018820D01*
X146210133Y-91832483D01*
X146232927Y-91783600D01*
X146279098Y-91731160D01*
X146346292Y-91712007D01*
X146413173Y-91732221D01*
X146457691Y-91783596D01*
X146482477Y-91836749D01*
X146613802Y-92024300D01*
X146775700Y-92186198D01*
X146963251Y-92317523D01*
X147018445Y-92343260D01*
X147170750Y-92414281D01*
X147170752Y-92414281D01*
X147170757Y-92414284D01*
X147391913Y-92473543D01*
X147554832Y-92487796D01*
X147619998Y-92493498D01*
X147620000Y-92493498D01*
X147620002Y-92493498D01*
X147677139Y-92488499D01*
X147848087Y-92473543D01*
X148069243Y-92414284D01*
X148276749Y-92317523D01*
X148464300Y-92186198D01*
X148626198Y-92024300D01*
X148757523Y-91836749D01*
X148777618Y-91793655D01*
X148823790Y-91741215D01*
X148890983Y-91722063D01*
X148957864Y-91742278D01*
X149002382Y-91793655D01*
X149022477Y-91836749D01*
X149153802Y-92024300D01*
X149315700Y-92186198D01*
X149503251Y-92317523D01*
X149558445Y-92343260D01*
X149710750Y-92414281D01*
X149710752Y-92414281D01*
X149710757Y-92414284D01*
X149931913Y-92473543D01*
X150094832Y-92487796D01*
X150159998Y-92493498D01*
X150160000Y-92493498D01*
X150160002Y-92493498D01*
X150217139Y-92488499D01*
X150388087Y-92473543D01*
X150609243Y-92414284D01*
X150816749Y-92317523D01*
X151004300Y-92186198D01*
X151166198Y-92024300D01*
X151171566Y-92016632D01*
X151226139Y-91973008D01*
X151295637Y-91965813D01*
X151357993Y-91997333D01*
X151393409Y-92057562D01*
X151396430Y-92074498D01*
X151398011Y-92089202D01*
X151398011Y-92089204D01*
X151434189Y-92186198D01*
X151449111Y-92226204D01*
X151536739Y-92343261D01*
X151653796Y-92430889D01*
X151790799Y-92481989D01*
X151818050Y-92484918D01*
X151851345Y-92488499D01*
X151851362Y-92488500D01*
X153548638Y-92488500D01*
X153548654Y-92488499D01*
X153575692Y-92485591D01*
X153609201Y-92481989D01*
X153746204Y-92430889D01*
X153863261Y-92343261D01*
X153950889Y-92226204D01*
X154001989Y-92089201D01*
X154005591Y-92055692D01*
X154008499Y-92028654D01*
X154008500Y-92028637D01*
X154008500Y-90331362D01*
X154008499Y-90331345D01*
X154003787Y-90287523D01*
X154001989Y-90270799D01*
X153992105Y-90244300D01*
X153965812Y-90173806D01*
X153950889Y-90133796D01*
X153863261Y-90016739D01*
X153746204Y-89929111D01*
X153609203Y-89878011D01*
X153548654Y-89871500D01*
X153548638Y-89871500D01*
X151851362Y-89871500D01*
X151851345Y-89871500D01*
X151790797Y-89878011D01*
X151790795Y-89878011D01*
X151653795Y-89929111D01*
X151536739Y-90016739D01*
X151449111Y-90133795D01*
X151398011Y-90270795D01*
X151398011Y-90270797D01*
X151396430Y-90285501D01*
X151369691Y-90350052D01*
X151312298Y-90389899D01*
X151242473Y-90392392D01*
X151182384Y-90356738D01*
X151171574Y-90343379D01*
X151166198Y-90335700D01*
X151004300Y-90173802D01*
X150816749Y-90042477D01*
X150816745Y-90042475D01*
X150609249Y-89945718D01*
X150609238Y-89945714D01*
X150388089Y-89886457D01*
X150388081Y-89886456D01*
X150160002Y-89866502D01*
X150159998Y-89866502D01*
X149931918Y-89886456D01*
X149931910Y-89886457D01*
X149710761Y-89945714D01*
X149710750Y-89945718D01*
X149503254Y-90042475D01*
X149503252Y-90042476D01*
X149432856Y-90091767D01*
X149315700Y-90173802D01*
X149315698Y-90173803D01*
X149315695Y-90173806D01*
X149153806Y-90335695D01*
X149153803Y-90335698D01*
X149153802Y-90335700D01*
X149119785Y-90384281D01*
X149022476Y-90523251D01*
X149002382Y-90566345D01*
X148956209Y-90618784D01*
X148889016Y-90637936D01*
X148822135Y-90617720D01*
X148777618Y-90566345D01*
X148757523Y-90523251D01*
X148715683Y-90463498D01*
X148626198Y-90335700D01*
X148464300Y-90173802D01*
X148276749Y-90042477D01*
X148276745Y-90042475D01*
X148069249Y-89945718D01*
X148069238Y-89945714D01*
X147848089Y-89886457D01*
X147848081Y-89886456D01*
X147620002Y-89866502D01*
X147619998Y-89866502D01*
X147391918Y-89886456D01*
X147391910Y-89886457D01*
X147170761Y-89945714D01*
X147170750Y-89945718D01*
X146963254Y-90042475D01*
X146963252Y-90042476D01*
X146892856Y-90091767D01*
X146775700Y-90173802D01*
X146775698Y-90173803D01*
X146775695Y-90173806D01*
X146613806Y-90335695D01*
X146613803Y-90335698D01*
X146613802Y-90335700D01*
X146574106Y-90392392D01*
X146482476Y-90523252D01*
X146482474Y-90523256D01*
X146457691Y-90576402D01*
X146411518Y-90628841D01*
X146344324Y-90647992D01*
X146277444Y-90627775D01*
X146232927Y-90576399D01*
X146210133Y-90527517D01*
X146079657Y-90341179D01*
X145918820Y-90180342D01*
X145732482Y-90049865D01*
X145526328Y-89953734D01*
X145330000Y-89901127D01*
X145330000Y-90864314D01*
X145325606Y-90859920D01*
X145234394Y-90807259D01*
X145132661Y-90780000D01*
X145027339Y-90780000D01*
X144925606Y-90807259D01*
X144834394Y-90859920D01*
X144830000Y-90864314D01*
X144830000Y-89901127D01*
X144633671Y-89953734D01*
X144427517Y-90049865D01*
X144241179Y-90180342D01*
X144080342Y-90341179D01*
X143949865Y-90527517D01*
X143853734Y-90733673D01*
X143853730Y-90733682D01*
X143801127Y-90929999D01*
X140145903Y-90929999D01*
X141925903Y-89150001D01*
X155186502Y-89150001D01*
X155206456Y-89378081D01*
X155206457Y-89378089D01*
X155265714Y-89599238D01*
X155265718Y-89599249D01*
X155341521Y-89761808D01*
X155362477Y-89806749D01*
X155493802Y-89994300D01*
X155655700Y-90156198D01*
X155843251Y-90287523D01*
X155937228Y-90331345D01*
X156050750Y-90384281D01*
X156050752Y-90384281D01*
X156050757Y-90384284D01*
X156271913Y-90443543D01*
X156434832Y-90457796D01*
X156499998Y-90463498D01*
X156500000Y-90463498D01*
X156500002Y-90463498D01*
X156557021Y-90458509D01*
X156728087Y-90443543D01*
X156949243Y-90384284D01*
X157156749Y-90287523D01*
X157344300Y-90156198D01*
X157506198Y-89994300D01*
X157637523Y-89806749D01*
X157734284Y-89599243D01*
X157793543Y-89378087D01*
X157813498Y-89150000D01*
X157793543Y-88921913D01*
X157734284Y-88700757D01*
X157637523Y-88493251D01*
X157506198Y-88305700D01*
X157344300Y-88143802D01*
X157156749Y-88012477D01*
X157156745Y-88012475D01*
X156949249Y-87915718D01*
X156949238Y-87915714D01*
X156728089Y-87856457D01*
X156728081Y-87856456D01*
X156500002Y-87836502D01*
X156499998Y-87836502D01*
X156271918Y-87856456D01*
X156271910Y-87856457D01*
X156050761Y-87915714D01*
X156050750Y-87915718D01*
X155843254Y-88012475D01*
X155843252Y-88012476D01*
X155843251Y-88012477D01*
X155655700Y-88143802D01*
X155655698Y-88143803D01*
X155655695Y-88143806D01*
X155493806Y-88305695D01*
X155362476Y-88493252D01*
X155362475Y-88493254D01*
X155265718Y-88700750D01*
X155265714Y-88700761D01*
X155206457Y-88921910D01*
X155206456Y-88921918D01*
X155186502Y-89149998D01*
X155186502Y-89150001D01*
X141925903Y-89150001D01*
X143192072Y-87883833D01*
X143261401Y-87780075D01*
X143309155Y-87664784D01*
X143311486Y-87659157D01*
X143313026Y-87659795D01*
X143346942Y-87608056D01*
X143410758Y-87579608D01*
X143427294Y-87578500D01*
X144503638Y-87578500D01*
X144503654Y-87578499D01*
X144530692Y-87575591D01*
X144564201Y-87571989D01*
X144701204Y-87520889D01*
X144818261Y-87433261D01*
X144905889Y-87316204D01*
X144956989Y-87179201D01*
X144960591Y-87145692D01*
X144963499Y-87118654D01*
X144963500Y-87118637D01*
X144963500Y-84481362D01*
X144963499Y-84481345D01*
X144960157Y-84450270D01*
X144956989Y-84420799D01*
X144905889Y-84283796D01*
X144818261Y-84166739D01*
X144701204Y-84079111D01*
X144564203Y-84028011D01*
X144503654Y-84021500D01*
X144503638Y-84021500D01*
X140896362Y-84021500D01*
X140896345Y-84021500D01*
X140835797Y-84028011D01*
X140835795Y-84028011D01*
X140698795Y-84079111D01*
X140581739Y-84166739D01*
X140494111Y-84283795D01*
X140443011Y-84420795D01*
X140443011Y-84420797D01*
X140436500Y-84481345D01*
X140436500Y-87118654D01*
X140443011Y-87179202D01*
X140443011Y-87179204D01*
X140494111Y-87316204D01*
X140581739Y-87433261D01*
X140698796Y-87520889D01*
X140835799Y-87571989D01*
X140863050Y-87574918D01*
X140896345Y-87578499D01*
X140896362Y-87578500D01*
X141406233Y-87578500D01*
X141473272Y-87598185D01*
X141519027Y-87650989D01*
X141528971Y-87720147D01*
X141499946Y-87783703D01*
X141493914Y-87790181D01*
X138712430Y-90571664D01*
X138651107Y-90605149D01*
X138592656Y-90603758D01*
X138528092Y-90586458D01*
X138528088Y-90586457D01*
X138528087Y-90586457D01*
X138528086Y-90586456D01*
X138528081Y-90586456D01*
X138300002Y-90566502D01*
X138299998Y-90566502D01*
X138071918Y-90586456D01*
X138071910Y-90586457D01*
X137850761Y-90645714D01*
X137850750Y-90645718D01*
X137643254Y-90742475D01*
X137643252Y-90742476D01*
X137643251Y-90742477D01*
X137455700Y-90873802D01*
X137455698Y-90873803D01*
X137455695Y-90873806D01*
X137293806Y-91035695D01*
X137293803Y-91035698D01*
X137293802Y-91035700D01*
X137211767Y-91152856D01*
X137162476Y-91223252D01*
X137162475Y-91223254D01*
X137065718Y-91430750D01*
X137065714Y-91430761D01*
X137006457Y-91651910D01*
X137006456Y-91651918D01*
X136986502Y-91879998D01*
X136986502Y-91880001D01*
X129715901Y-91880001D01*
X130887569Y-90708333D01*
X130948890Y-90674850D01*
X131007341Y-90676241D01*
X131025979Y-90681234D01*
X131071913Y-90693543D01*
X131234832Y-90707796D01*
X131299998Y-90713498D01*
X131300000Y-90713498D01*
X131300002Y-90713498D01*
X131359013Y-90708335D01*
X131528087Y-90693543D01*
X131749243Y-90634284D01*
X131956749Y-90537523D01*
X132144300Y-90406198D01*
X132306198Y-90244300D01*
X132437523Y-90056749D01*
X132534284Y-89849243D01*
X132593543Y-89628087D01*
X132613498Y-89400000D01*
X132593543Y-89171913D01*
X132534284Y-88950757D01*
X132437523Y-88743251D01*
X132306198Y-88555700D01*
X132144300Y-88393802D01*
X131956749Y-88262477D01*
X131956745Y-88262475D01*
X131749249Y-88165718D01*
X131749238Y-88165714D01*
X131528089Y-88106457D01*
X131528081Y-88106456D01*
X131300002Y-88086502D01*
X131299998Y-88086502D01*
X131071918Y-88106456D01*
X131071910Y-88106457D01*
X130850761Y-88165714D01*
X130850750Y-88165718D01*
X130643254Y-88262475D01*
X130643252Y-88262476D01*
X130643251Y-88262477D01*
X130455700Y-88393802D01*
X130455698Y-88393803D01*
X130455695Y-88393806D01*
X130293806Y-88555695D01*
X130293803Y-88555698D01*
X130293802Y-88555700D01*
X130282300Y-88572127D01*
X130162476Y-88743252D01*
X130162475Y-88743254D01*
X130065718Y-88950750D01*
X130065714Y-88950761D01*
X130006457Y-89171910D01*
X130006456Y-89171918D01*
X129986502Y-89399998D01*
X129986502Y-89400001D01*
X130006456Y-89628081D01*
X130006458Y-89628092D01*
X130023758Y-89692656D01*
X130022095Y-89762506D01*
X129991664Y-89812430D01*
X123398915Y-96405181D01*
X123337592Y-96438666D01*
X123311234Y-96441500D01*
X123292643Y-96441500D01*
X123225604Y-96421815D01*
X123179849Y-96369011D01*
X123169905Y-96299853D01*
X123180259Y-96265099D01*
X123234284Y-96149243D01*
X123293543Y-95928087D01*
X123313498Y-95700000D01*
X123293543Y-95471913D01*
X123234284Y-95250757D01*
X123223962Y-95228622D01*
X123165969Y-95104255D01*
X123137523Y-95043251D01*
X123006198Y-94855700D01*
X122844300Y-94693802D01*
X122656749Y-94562477D01*
X122656745Y-94562475D01*
X122449249Y-94465718D01*
X122449238Y-94465714D01*
X122228089Y-94406457D01*
X122228081Y-94406456D01*
X122000002Y-94386502D01*
X121999998Y-94386502D01*
X121771918Y-94406456D01*
X121771910Y-94406457D01*
X121550761Y-94465714D01*
X121550750Y-94465718D01*
X121343254Y-94562475D01*
X121343252Y-94562476D01*
X121343251Y-94562477D01*
X121155700Y-94693802D01*
X121155698Y-94693803D01*
X121155695Y-94693806D01*
X120993806Y-94855695D01*
X120993803Y-94855698D01*
X120993802Y-94855700D01*
X120939409Y-94933381D01*
X120862476Y-95043252D01*
X120862475Y-95043254D01*
X120765718Y-95250750D01*
X120765714Y-95250761D01*
X120706457Y-95471910D01*
X120706456Y-95471918D01*
X120686502Y-95699998D01*
X120686502Y-95700001D01*
X120706456Y-95928081D01*
X120706457Y-95928089D01*
X120765714Y-96149238D01*
X120765715Y-96149240D01*
X120765716Y-96149243D01*
X120819739Y-96265097D01*
X120830231Y-96334173D01*
X120801711Y-96397957D01*
X120743235Y-96436196D01*
X120707357Y-96441500D01*
X110592643Y-96441500D01*
X110525604Y-96421815D01*
X110479849Y-96369011D01*
X110469905Y-96299853D01*
X110480259Y-96265099D01*
X110534284Y-96149243D01*
X110593543Y-95928087D01*
X110613498Y-95700000D01*
X110593543Y-95471913D01*
X110534284Y-95250757D01*
X110523962Y-95228622D01*
X110465969Y-95104255D01*
X110437523Y-95043251D01*
X110306198Y-94855700D01*
X110144300Y-94693802D01*
X109956749Y-94562477D01*
X109956745Y-94562475D01*
X109749249Y-94465718D01*
X109749238Y-94465714D01*
X109528089Y-94406457D01*
X109528081Y-94406456D01*
X109300002Y-94386502D01*
X109299998Y-94386502D01*
X109071918Y-94406456D01*
X109071910Y-94406457D01*
X108850761Y-94465714D01*
X108850750Y-94465718D01*
X108643254Y-94562475D01*
X108643252Y-94562476D01*
X108643251Y-94562477D01*
X108455700Y-94693802D01*
X108455698Y-94693803D01*
X108455695Y-94693806D01*
X108293806Y-94855695D01*
X108293803Y-94855698D01*
X108293802Y-94855700D01*
X108239409Y-94933381D01*
X108162476Y-95043252D01*
X108162475Y-95043254D01*
X108065718Y-95250750D01*
X108065714Y-95250761D01*
X108006457Y-95471910D01*
X108006456Y-95471918D01*
X107986502Y-95699998D01*
X107986502Y-95700001D01*
X108006456Y-95928081D01*
X108006457Y-95928089D01*
X108065714Y-96149238D01*
X108065715Y-96149240D01*
X108065716Y-96149243D01*
X108119739Y-96265097D01*
X108130231Y-96334173D01*
X108101711Y-96397957D01*
X108043235Y-96436196D01*
X108007357Y-96441500D01*
X102882500Y-96441500D01*
X102815461Y-96421815D01*
X102769706Y-96369011D01*
X102758500Y-96317500D01*
X102758500Y-95001362D01*
X102758499Y-95001345D01*
X102752927Y-94949528D01*
X102751989Y-94940799D01*
X102749222Y-94933381D01*
X102722559Y-94861894D01*
X102700889Y-94803796D01*
X102613261Y-94686739D01*
X102496204Y-94599111D01*
X102359203Y-94548011D01*
X102298654Y-94541500D01*
X102298638Y-94541500D01*
X100501362Y-94541500D01*
X100501345Y-94541500D01*
X100440797Y-94548011D01*
X100440795Y-94548011D01*
X100303795Y-94599111D01*
X100186739Y-94686739D01*
X100099111Y-94803795D01*
X100050777Y-94933381D01*
X100008905Y-94989314D01*
X99943441Y-95013730D01*
X99875168Y-94998878D01*
X99846915Y-94977727D01*
X99731082Y-94861894D01*
X99537578Y-94726399D01*
X99323492Y-94626570D01*
X99323486Y-94626567D01*
X99110000Y-94569364D01*
X99110000Y-95466988D01*
X99052993Y-95434075D01*
X98925826Y-95400000D01*
X98794174Y-95400000D01*
X98667007Y-95434075D01*
X98610000Y-95466988D01*
X98610000Y-94569364D01*
X98609999Y-94569364D01*
X98396513Y-94626567D01*
X98396507Y-94626570D01*
X98182422Y-94726399D01*
X98182420Y-94726400D01*
X97988926Y-94861886D01*
X97988920Y-94861891D01*
X97821891Y-95028920D01*
X97821890Y-95028922D01*
X97695131Y-95209952D01*
X97640554Y-95253577D01*
X97571055Y-95260769D01*
X97508701Y-95229247D01*
X97489752Y-95206656D01*
X97395722Y-95062732D01*
X97395715Y-95062725D01*
X97395715Y-95062723D01*
X97243243Y-94897097D01*
X97243238Y-94897092D01*
X97065577Y-94758812D01*
X97065572Y-94758808D01*
X96867580Y-94651661D01*
X96867577Y-94651659D01*
X96867574Y-94651658D01*
X96867571Y-94651657D01*
X96867569Y-94651656D01*
X96654637Y-94578556D01*
X96432569Y-94541500D01*
X96207431Y-94541500D01*
X95985362Y-94578556D01*
X95772430Y-94651656D01*
X95772419Y-94651661D01*
X95574427Y-94758808D01*
X95574422Y-94758812D01*
X95396761Y-94897092D01*
X95396756Y-94897097D01*
X95244284Y-95062723D01*
X95244276Y-95062734D01*
X95121140Y-95251207D01*
X95030703Y-95457385D01*
X94975436Y-95675628D01*
X94975434Y-95675640D01*
X94956844Y-95899994D01*
X94956844Y-95900005D01*
X89982245Y-95900005D01*
X90015313Y-95864084D01*
X90015316Y-95864080D01*
X90142984Y-95668669D01*
X90236749Y-95454907D01*
X90294051Y-95228626D01*
X90307797Y-95062734D01*
X90313327Y-94996005D01*
X90313327Y-94995994D01*
X90294051Y-94763377D01*
X90294051Y-94763374D01*
X90236749Y-94537093D01*
X90142984Y-94323331D01*
X90070657Y-94212626D01*
X90015313Y-94127915D01*
X89857223Y-93956185D01*
X89857222Y-93956184D01*
X89857220Y-93956182D01*
X89673017Y-93812810D01*
X89673015Y-93812809D01*
X89673014Y-93812808D01*
X89673011Y-93812806D01*
X89467733Y-93701716D01*
X89467730Y-93701715D01*
X89467727Y-93701713D01*
X89467721Y-93701711D01*
X89467719Y-93701710D01*
X89246954Y-93625920D01*
X89074271Y-93597105D01*
X89016712Y-93587500D01*
X88783288Y-93587500D01*
X88737240Y-93595184D01*
X88553045Y-93625920D01*
X88332280Y-93701710D01*
X88332266Y-93701716D01*
X88126988Y-93812806D01*
X88126985Y-93812808D01*
X87942781Y-93956181D01*
X87942776Y-93956185D01*
X87784686Y-94127915D01*
X87657015Y-94323331D01*
X87563251Y-94537092D01*
X87505948Y-94763377D01*
X87486673Y-94995994D01*
X87486673Y-94996005D01*
X81228002Y-94996005D01*
X81294415Y-81401288D01*
X87049500Y-81401288D01*
X87081161Y-81641785D01*
X87143947Y-81876104D01*
X87236773Y-82100205D01*
X87236776Y-82100212D01*
X87358064Y-82310289D01*
X87358066Y-82310292D01*
X87358067Y-82310293D01*
X87505733Y-82502736D01*
X87505739Y-82502743D01*
X87677256Y-82674260D01*
X87677262Y-82674265D01*
X87869711Y-82821936D01*
X88079788Y-82943224D01*
X88303900Y-83036054D01*
X88538211Y-83098838D01*
X88718586Y-83122584D01*
X88778711Y-83130500D01*
X88778712Y-83130500D01*
X89021289Y-83130500D01*
X89069388Y-83124167D01*
X89261789Y-83098838D01*
X89496100Y-83036054D01*
X89720212Y-82943224D01*
X89930289Y-82821936D01*
X90122738Y-82674265D01*
X90294265Y-82502738D01*
X90441936Y-82310289D01*
X90563224Y-82100212D01*
X90656054Y-81876100D01*
X90718838Y-81641789D01*
X90750500Y-81401288D01*
X90750500Y-81158712D01*
X90718838Y-80918211D01*
X90656054Y-80683900D01*
X90563224Y-80459788D01*
X90441936Y-80249711D01*
X90294265Y-80057262D01*
X90294260Y-80057256D01*
X90122743Y-79885739D01*
X90122736Y-79885733D01*
X89930293Y-79738067D01*
X89930292Y-79738066D01*
X89930289Y-79738064D01*
X89720212Y-79616776D01*
X89720205Y-79616773D01*
X89496104Y-79523947D01*
X89261785Y-79461161D01*
X89021289Y-79429500D01*
X89021288Y-79429500D01*
X88778712Y-79429500D01*
X88778711Y-79429500D01*
X88538214Y-79461161D01*
X88303895Y-79523947D01*
X88079794Y-79616773D01*
X88079785Y-79616777D01*
X87869706Y-79738067D01*
X87677263Y-79885733D01*
X87677256Y-79885739D01*
X87505739Y-80057256D01*
X87505733Y-80057263D01*
X87358067Y-80249706D01*
X87236777Y-80459785D01*
X87236773Y-80459794D01*
X87143947Y-80683895D01*
X87081161Y-80918214D01*
X87049500Y-81158711D01*
X87049500Y-81401288D01*
X81294415Y-81401288D01*
X81333566Y-73386966D01*
X81339687Y-73349092D01*
X81343231Y-73338236D01*
X81466074Y-72961937D01*
X81505589Y-72904319D01*
X81536187Y-72885989D01*
X82116570Y-72643778D01*
X82154376Y-72634613D01*
X87574487Y-72198515D01*
X87579412Y-72198219D01*
X91172646Y-72055160D01*
X91211237Y-72059719D01*
X92432466Y-72404219D01*
X92491641Y-72441364D01*
X92498720Y-72450133D01*
X92984394Y-73111055D01*
X93004918Y-73155007D01*
X93477543Y-75086317D01*
X93479822Y-75098057D01*
X95197843Y-86986552D01*
X95197691Y-86989920D01*
X95204132Y-87030176D01*
X95204413Y-87032023D01*
X95210236Y-87072305D01*
X95211382Y-87075471D01*
X95986474Y-91918673D01*
X95985104Y-91933274D01*
X95987822Y-91933157D01*
X95988972Y-91959686D01*
X95995950Y-91982456D01*
X96009862Y-92005075D01*
X96007521Y-92006514D01*
X96016858Y-92017825D01*
X96318196Y-92664569D01*
X96324572Y-92681320D01*
X96329253Y-92696930D01*
X96344274Y-92720887D01*
X96344558Y-92721147D01*
X96344559Y-92721149D01*
X96344560Y-92721149D01*
X96349582Y-92725754D01*
X96355923Y-92729169D01*
X96383478Y-92735486D01*
X96383864Y-92735469D01*
X96383867Y-92735470D01*
X96383869Y-92735469D01*
X96399758Y-92734780D01*
X96417671Y-92735298D01*
X97373024Y-92832465D01*
X97393487Y-92836305D01*
X97402947Y-92838918D01*
X97402948Y-92838917D01*
X97402950Y-92838919D01*
X97404185Y-92838765D01*
X97431972Y-92838462D01*
X97433201Y-92838587D01*
X97433203Y-92838584D01*
X97442603Y-92835767D01*
X97462974Y-92831482D01*
X103489554Y-92084835D01*
X103496370Y-92085223D01*
X103513764Y-92082491D01*
X103513766Y-92082493D01*
X103531700Y-92079677D01*
X103535567Y-92079134D01*
X103553569Y-92076905D01*
X103553569Y-92076904D01*
X103571072Y-92074737D01*
X103577515Y-92072486D01*
X114356919Y-90380572D01*
X114360281Y-90380683D01*
X114381168Y-90377079D01*
X114381170Y-90377081D01*
X114400634Y-90373723D01*
X114402307Y-90373448D01*
X114412699Y-90371817D01*
X114442666Y-90367116D01*
X114445815Y-90365929D01*
X124845857Y-88572083D01*
X124854190Y-88572127D01*
X124869902Y-88568754D01*
X124869903Y-88568755D01*
X124886912Y-88565104D01*
X124891769Y-88564163D01*
X124908957Y-88561200D01*
X124908957Y-88561198D01*
X124924817Y-88558464D01*
X124932526Y-88555315D01*
X129816875Y-87507155D01*
X129832692Y-87504816D01*
X129853413Y-87503105D01*
X129853415Y-87503106D01*
X129853416Y-87503105D01*
X129854544Y-87503012D01*
X129879031Y-87494262D01*
X129879964Y-87493617D01*
X129879968Y-87493617D01*
X129879970Y-87493613D01*
X129885936Y-87489496D01*
X129890617Y-87483972D01*
X129890619Y-87483972D01*
X129890619Y-87483970D01*
X129891352Y-87483106D01*
X129902479Y-87459606D01*
X129902683Y-87458488D01*
X129902685Y-87458487D01*
X129902684Y-87458484D01*
X129906432Y-87438043D01*
X129910325Y-87422529D01*
X130397499Y-85903584D01*
X130406088Y-85883242D01*
X130409603Y-85876630D01*
X130409603Y-85876629D01*
X130409604Y-85876629D01*
X130409808Y-85874506D01*
X130415164Y-85848505D01*
X130415816Y-85846474D01*
X130415813Y-85846469D01*
X130415198Y-85839001D01*
X130415347Y-85816932D01*
X133218111Y-56690000D01*
X140445000Y-56690000D01*
X140445000Y-57757844D01*
X140451401Y-57817372D01*
X140451403Y-57817379D01*
X140501645Y-57952086D01*
X140501649Y-57952093D01*
X140587809Y-58067187D01*
X140587812Y-58067190D01*
X140702906Y-58153350D01*
X140702913Y-58153354D01*
X140837620Y-58203596D01*
X140837627Y-58203598D01*
X140897155Y-58209999D01*
X140897172Y-58210000D01*
X142450000Y-58210000D01*
X142450000Y-56690000D01*
X142950000Y-56690000D01*
X142950000Y-58210000D01*
X144502828Y-58210000D01*
X144502844Y-58209999D01*
X144562372Y-58203598D01*
X144562379Y-58203596D01*
X144697086Y-58153354D01*
X144697093Y-58153350D01*
X144812187Y-58067190D01*
X144812190Y-58067187D01*
X144898350Y-57952093D01*
X144898354Y-57952086D01*
X144948596Y-57817379D01*
X144948598Y-57817372D01*
X144954999Y-57757844D01*
X144955000Y-57757827D01*
X144955000Y-56690000D01*
X142950000Y-56690000D01*
X142450000Y-56690000D01*
X140445000Y-56690000D01*
X133218111Y-56690000D01*
X133266224Y-56190000D01*
X140445000Y-56190000D01*
X142450000Y-56190000D01*
X142450000Y-54670000D01*
X142950000Y-54670000D01*
X142950000Y-56190000D01*
X144955000Y-56190000D01*
X144955000Y-55122172D01*
X144954999Y-55122155D01*
X144948598Y-55062627D01*
X144948596Y-55062620D01*
X144898354Y-54927913D01*
X144898350Y-54927906D01*
X144812190Y-54812812D01*
X144812187Y-54812809D01*
X144697093Y-54726649D01*
X144697086Y-54726645D01*
X144562379Y-54676403D01*
X144562372Y-54676401D01*
X144502844Y-54670000D01*
X142950000Y-54670000D01*
X142450000Y-54670000D01*
X140897155Y-54670000D01*
X140837627Y-54676401D01*
X140837620Y-54676403D01*
X140702913Y-54726645D01*
X140702906Y-54726649D01*
X140587812Y-54812809D01*
X140587809Y-54812812D01*
X140501649Y-54927906D01*
X140501645Y-54927913D01*
X140451403Y-55062620D01*
X140451401Y-55062627D01*
X140445000Y-55122155D01*
X140445000Y-56190000D01*
X133266224Y-56190000D01*
X134020635Y-48350001D01*
X146186502Y-48350001D01*
X146206456Y-48578081D01*
X146206457Y-48578089D01*
X146265714Y-48799238D01*
X146265718Y-48799249D01*
X146362475Y-49006745D01*
X146362477Y-49006749D01*
X146493802Y-49194300D01*
X146655700Y-49356198D01*
X146843251Y-49487523D01*
X146968091Y-49545736D01*
X147050750Y-49584281D01*
X147050752Y-49584281D01*
X147050757Y-49584284D01*
X147271913Y-49643543D01*
X147434832Y-49657796D01*
X147499998Y-49663498D01*
X147500000Y-49663498D01*
X147500002Y-49663498D01*
X147557021Y-49658509D01*
X147728087Y-49643543D01*
X147949243Y-49584284D01*
X148156749Y-49487523D01*
X148344300Y-49356198D01*
X148506198Y-49194300D01*
X148637523Y-49006749D01*
X148734284Y-48799243D01*
X148793543Y-48578087D01*
X148813498Y-48350000D01*
X148793543Y-48121913D01*
X148734284Y-47900757D01*
X148637523Y-47693251D01*
X148506198Y-47505700D01*
X148344300Y-47343802D01*
X148156749Y-47212477D01*
X148156745Y-47212475D01*
X147949249Y-47115718D01*
X147949238Y-47115714D01*
X147728089Y-47056457D01*
X147728081Y-47056456D01*
X147500002Y-47036502D01*
X147499998Y-47036502D01*
X147271918Y-47056456D01*
X147271910Y-47056457D01*
X147050761Y-47115714D01*
X147050750Y-47115718D01*
X146843254Y-47212475D01*
X146843252Y-47212476D01*
X146843251Y-47212477D01*
X146655700Y-47343802D01*
X146655698Y-47343803D01*
X146655695Y-47343806D01*
X146493806Y-47505695D01*
X146362476Y-47693252D01*
X146362475Y-47693254D01*
X146265718Y-47900750D01*
X146265714Y-47900761D01*
X146206457Y-48121910D01*
X146206456Y-48121918D01*
X146186502Y-48349998D01*
X146186502Y-48350001D01*
X134020635Y-48350001D01*
X135242703Y-35650001D01*
X146186502Y-35650001D01*
X146206456Y-35878081D01*
X146206457Y-35878089D01*
X146265714Y-36099238D01*
X146265718Y-36099249D01*
X146362475Y-36306745D01*
X146362477Y-36306749D01*
X146493802Y-36494300D01*
X146655700Y-36656198D01*
X146843251Y-36787523D01*
X146968091Y-36845736D01*
X147050750Y-36884281D01*
X147050752Y-36884281D01*
X147050757Y-36884284D01*
X147271913Y-36943543D01*
X147434832Y-36957796D01*
X147499998Y-36963498D01*
X147500000Y-36963498D01*
X147500002Y-36963498D01*
X147557021Y-36958509D01*
X147728087Y-36943543D01*
X147949243Y-36884284D01*
X148156749Y-36787523D01*
X148344300Y-36656198D01*
X148506198Y-36494300D01*
X148637523Y-36306749D01*
X148734284Y-36099243D01*
X148793543Y-35878087D01*
X148813498Y-35650000D01*
X148793543Y-35421913D01*
X148734284Y-35200757D01*
X148637523Y-34993251D01*
X148506198Y-34805700D01*
X148344300Y-34643802D01*
X148156749Y-34512477D01*
X148156745Y-34512475D01*
X147949249Y-34415718D01*
X147949238Y-34415714D01*
X147728089Y-34356457D01*
X147728081Y-34356456D01*
X147500002Y-34336502D01*
X147499998Y-34336502D01*
X147271918Y-34356456D01*
X147271910Y-34356457D01*
X147050761Y-34415714D01*
X147050750Y-34415718D01*
X146843254Y-34512475D01*
X146843252Y-34512476D01*
X146843251Y-34512477D01*
X146655700Y-34643802D01*
X146655698Y-34643803D01*
X146655695Y-34643806D01*
X146493806Y-34805695D01*
X146362476Y-34993252D01*
X146362475Y-34993254D01*
X146265718Y-35200750D01*
X146265714Y-35200761D01*
X146206457Y-35421910D01*
X146206456Y-35421918D01*
X146186502Y-35649998D01*
X146186502Y-35650001D01*
X135242703Y-35650001D01*
X135911280Y-28702005D01*
X145906673Y-28702005D01*
X145925948Y-28934622D01*
X145983251Y-29160907D01*
X146077015Y-29374668D01*
X146204686Y-29570084D01*
X146356354Y-29734838D01*
X146362780Y-29741818D01*
X146546983Y-29885190D01*
X146546985Y-29885191D01*
X146546988Y-29885193D01*
X146666331Y-29949777D01*
X146752273Y-29996287D01*
X146866914Y-30035643D01*
X146973045Y-30072079D01*
X146973047Y-30072079D01*
X146973049Y-30072080D01*
X147203288Y-30110500D01*
X147203289Y-30110500D01*
X147436711Y-30110500D01*
X147436712Y-30110500D01*
X147666951Y-30072080D01*
X147887727Y-29996287D01*
X148093017Y-29885190D01*
X148277220Y-29741818D01*
X148283646Y-29734837D01*
X148343531Y-29698845D01*
X148413369Y-29700944D01*
X148470986Y-29740466D01*
X148491059Y-29775485D01*
X148516645Y-29844086D01*
X148516649Y-29844093D01*
X148602809Y-29959187D01*
X148602812Y-29959190D01*
X148717906Y-30045350D01*
X148717913Y-30045354D01*
X148852620Y-30095596D01*
X148852627Y-30095598D01*
X148912155Y-30101999D01*
X148912172Y-30102000D01*
X149610000Y-30102000D01*
X149610000Y-29077277D01*
X149686306Y-29121333D01*
X149800756Y-29152000D01*
X149919244Y-29152000D01*
X150033694Y-29121333D01*
X150110000Y-29077277D01*
X150110000Y-30102000D01*
X150807828Y-30102000D01*
X150807844Y-30101999D01*
X150867372Y-30095598D01*
X150867379Y-30095596D01*
X151002086Y-30045354D01*
X151002093Y-30045350D01*
X151117187Y-29959190D01*
X151117190Y-29959187D01*
X151203350Y-29844093D01*
X151203354Y-29844086D01*
X151253596Y-29709379D01*
X151253598Y-29709372D01*
X151259999Y-29649844D01*
X151260000Y-29649827D01*
X151260000Y-28952000D01*
X150235278Y-28952000D01*
X150279333Y-28875694D01*
X150310000Y-28761244D01*
X150310000Y-28642756D01*
X150279333Y-28528306D01*
X150235278Y-28452000D01*
X151260000Y-28452000D01*
X151260000Y-27754172D01*
X151259999Y-27754155D01*
X151253598Y-27694627D01*
X151253596Y-27694620D01*
X151203354Y-27559913D01*
X151203350Y-27559906D01*
X151117190Y-27444812D01*
X151117187Y-27444809D01*
X151002093Y-27358649D01*
X151002086Y-27358645D01*
X150867379Y-27308403D01*
X150867372Y-27308401D01*
X150807844Y-27302000D01*
X150110000Y-27302000D01*
X150110000Y-28326722D01*
X150033694Y-28282667D01*
X149919244Y-28252000D01*
X149800756Y-28252000D01*
X149686306Y-28282667D01*
X149610000Y-28326722D01*
X149610000Y-27302000D01*
X148912155Y-27302000D01*
X148852627Y-27308401D01*
X148852620Y-27308403D01*
X148717913Y-27358645D01*
X148717906Y-27358649D01*
X148602812Y-27444809D01*
X148602809Y-27444812D01*
X148516649Y-27559906D01*
X148516645Y-27559913D01*
X148491059Y-27628514D01*
X148449188Y-27684448D01*
X148383723Y-27708865D01*
X148315450Y-27694013D01*
X148283649Y-27669165D01*
X148277224Y-27662186D01*
X148277222Y-27662184D01*
X148277220Y-27662182D01*
X148093017Y-27518810D01*
X148093015Y-27518809D01*
X148093014Y-27518808D01*
X148093011Y-27518806D01*
X147887733Y-27407716D01*
X147887730Y-27407715D01*
X147887727Y-27407713D01*
X147887721Y-27407711D01*
X147887719Y-27407710D01*
X147666954Y-27331920D01*
X147487650Y-27302000D01*
X147436712Y-27293500D01*
X147203288Y-27293500D01*
X147157240Y-27301184D01*
X146973045Y-27331920D01*
X146752280Y-27407710D01*
X146752266Y-27407716D01*
X146546988Y-27518806D01*
X146546985Y-27518808D01*
X146362781Y-27662181D01*
X146362776Y-27662185D01*
X146204686Y-27833915D01*
X146077015Y-28029331D01*
X145983251Y-28243092D01*
X145925948Y-28469377D01*
X145906673Y-28701994D01*
X145906673Y-28702005D01*
X135911280Y-28702005D01*
X136161024Y-26106616D01*
X136170995Y-26068465D01*
X136395225Y-25560083D01*
X136440286Y-25506694D01*
X136466027Y-25493694D01*
X137285216Y-25193652D01*
X137322188Y-25186219D01*
X143680051Y-24895191D01*
X143684538Y-24895069D01*
X148722704Y-24850171D01*
X148734401Y-24850619D01*
G37*
G04 #@! TD.AperFunction*
M02*
