M48
; DRILL file {KiCad 8.0.0} date 2024-03-14T11:47:03-0500
; FORMAT={-:-/ absolute / inch / decimal}
; #@! TF.CreationDate,2024-03-14T11:47:03-05:00
; #@! TF.GenerationSoftware,Kicad,Pcbnew,8.0.0
; #@! TF.FileFunction,Plated,1,2,PTH
FMAT,2
INCH
; #@! TA.AperFunction,Plated,PTH,ComponentDrill
T1C0.0315
; #@! TA.AperFunction,Plated,PTH,ComponentDrill
T2C0.0354
; #@! TA.AperFunction,Plated,PTH,ComponentDrill
T3C0.0394
; #@! TA.AperFunction,Plated,PTH,ComponentDrill
T4C0.0433
%
G90
G05
T1
X4.3031Y-3.7677
X4.8031Y-3.7677
X5.1693Y-3.5197
X5.1693Y-4.0197
X5.4449Y-3.6173
X5.4449Y-3.9173
X5.7118Y-3.5898
X5.7118Y-3.8898
X5.8071Y-1.4035
X5.8071Y-1.9035
X5.8118Y-3.5898
X5.8118Y-3.8898
X5.8465Y-5.5413
X5.8465Y-6.0413
X5.9118Y-3.5898
X5.9118Y-3.8898
X6.0118Y-3.5898
X6.0118Y-3.8898
X6.1614Y-3.5098
X6.1614Y-4.0098
T2
X3.5Y-3.74
X3.5Y-3.84
X5.8Y-1.13
X5.84Y-6.39
X5.9Y-1.13
X5.94Y-6.39
X6.752Y-3.7
X6.752Y-3.8
T3
X3.7921Y-3.7756
X3.8921Y-3.7756
X3.9921Y-3.7756
T4
X6.3189Y-3.6535
X6.3189Y-3.8307
X6.5748Y-3.6535
X6.5748Y-3.8307
M30
