G04 #@! TF.GenerationSoftware,KiCad,Pcbnew,8.0.0*
G04 #@! TF.CreationDate,2024-03-14T11:46:59-05:00*
G04 #@! TF.ProjectId,airplane-keychain,61697270-6c61-46e6-952d-6b6579636861,1*
G04 #@! TF.SameCoordinates,Original*
G04 #@! TF.FileFunction,Soldermask,Bot*
G04 #@! TF.FilePolarity,Negative*
%FSLAX46Y46*%
G04 Gerber Fmt 4.6, Leading zero omitted, Abs format (unit mm)*
G04 Created by KiCad (PCBNEW 8.0.0) date 2024-03-14 11:46:59*
%MOMM*%
%LPD*%
G01*
G04 APERTURE LIST*
%ADD10R,1.800000X1.800000*%
%ADD11C,1.800000*%
%ADD12C,1.600000*%
%ADD13O,1.600000X1.600000*%
%ADD14C,2.000000*%
%ADD15R,1.600000X1.600000*%
%ADD16R,1.700000X1.700000*%
%ADD17O,1.700000X1.700000*%
%ADD18C,3.200000*%
%ADD19R,3.510000X2.540000*%
G04 APERTURE END LIST*
D10*
X88900000Y-97536000D03*
D11*
X88900000Y-94996000D03*
D12*
X131300000Y-102100000D03*
D13*
X131300000Y-89400000D03*
D12*
X122000000Y-95700000D03*
D13*
X109300000Y-95700000D03*
D12*
X148500000Y-140750000D03*
D13*
X148500000Y-153450000D03*
D12*
X147500000Y-48350000D03*
D13*
X147500000Y-35650000D03*
D12*
X156500000Y-101850000D03*
D13*
X156500000Y-89150000D03*
D14*
X160500000Y-92800000D03*
X167000000Y-92800000D03*
X160500000Y-97300000D03*
X167000000Y-97300000D03*
D15*
X138300000Y-99500000D03*
D13*
X138300000Y-91880000D03*
D10*
X148336000Y-162306000D03*
D11*
X150876000Y-162306000D03*
D10*
X149860000Y-28702000D03*
D11*
X147320000Y-28702000D03*
D10*
X171500000Y-96520000D03*
D11*
X171500000Y-93980000D03*
D16*
X101400000Y-95900000D03*
D17*
X98860000Y-95900000D03*
X96320000Y-95900000D03*
D18*
X88900000Y-111760000D03*
D15*
X152700000Y-91180000D03*
D13*
X150160000Y-91180000D03*
X147620000Y-91180000D03*
X145080000Y-91180000D03*
X145080000Y-98800000D03*
X147620000Y-98800000D03*
X150160000Y-98800000D03*
X152700000Y-98800000D03*
D18*
X88900000Y-81280000D03*
D19*
X142700000Y-85800000D03*
X142700000Y-56440000D03*
X143000000Y-105600000D03*
X143000000Y-134960000D03*
M02*
