G04 #@! TF.GenerationSoftware,KiCad,Pcbnew,7.0.7*
G04 #@! TF.CreationDate,2023-12-10T19:07:21-06:00*
G04 #@! TF.ProjectId,airplane-keychain,61697270-6c61-46e6-952d-6b6579636861,1*
G04 #@! TF.SameCoordinates,Original*
G04 #@! TF.FileFunction,Copper,L1,Top*
G04 #@! TF.FilePolarity,Positive*
%FSLAX46Y46*%
G04 Gerber Fmt 4.6, Leading zero omitted, Abs format (unit mm)*
G04 Created by KiCad (PCBNEW 7.0.7) date 2023-12-10 19:07:21*
%MOMM*%
%LPD*%
G01*
G04 APERTURE LIST*
G04 Aperture macros list*
%AMRoundRect*
0 Rectangle with rounded corners*
0 $1 Rounding radius*
0 $2 $3 $4 $5 $6 $7 $8 $9 X,Y pos of 4 corners*
0 Add a 4 corners polygon primitive as box body*
4,1,4,$2,$3,$4,$5,$6,$7,$8,$9,$2,$3,0*
0 Add four circle primitives for the rounded corners*
1,1,$1+$1,$2,$3*
1,1,$1+$1,$4,$5*
1,1,$1+$1,$6,$7*
1,1,$1+$1,$8,$9*
0 Add four rect primitives between the rounded corners*
20,1,$1+$1,$2,$3,$4,$5,0*
20,1,$1+$1,$4,$5,$6,$7,0*
20,1,$1+$1,$6,$7,$8,$9,0*
20,1,$1+$1,$8,$9,$2,$3,0*%
G04 Aperture macros list end*
G04 #@! TA.AperFunction,ComponentPad*
%ADD10R,1.800000X1.800000*%
G04 #@! TD*
G04 #@! TA.AperFunction,ComponentPad*
%ADD11C,1.800000*%
G04 #@! TD*
G04 #@! TA.AperFunction,SMDPad,CuDef*
%ADD12RoundRect,0.250001X0.624999X-0.462499X0.624999X0.462499X-0.624999X0.462499X-0.624999X-0.462499X0*%
G04 #@! TD*
G04 #@! TA.AperFunction,SMDPad,CuDef*
%ADD13RoundRect,0.250001X0.462499X0.624999X-0.462499X0.624999X-0.462499X-0.624999X0.462499X-0.624999X0*%
G04 #@! TD*
G04 #@! TA.AperFunction,ComponentPad*
%ADD14C,1.600000*%
G04 #@! TD*
G04 #@! TA.AperFunction,ComponentPad*
%ADD15O,1.600000X1.600000*%
G04 #@! TD*
G04 #@! TA.AperFunction,ComponentPad*
%ADD16C,2.000000*%
G04 #@! TD*
G04 #@! TA.AperFunction,ComponentPad*
%ADD17R,1.600000X1.600000*%
G04 #@! TD*
G04 #@! TA.AperFunction,ComponentPad*
%ADD18R,1.700000X1.700000*%
G04 #@! TD*
G04 #@! TA.AperFunction,ComponentPad*
%ADD19O,1.700000X1.700000*%
G04 #@! TD*
G04 #@! TA.AperFunction,ViaPad*
%ADD20C,0.600000*%
G04 #@! TD*
G04 #@! TA.AperFunction,Conductor*
%ADD21C,0.250000*%
G04 #@! TD*
G04 APERTURE END LIST*
D10*
X88900000Y-97536000D03*
D11*
X88900000Y-94996000D03*
D12*
X82804000Y-97499500D03*
X82804000Y-94524500D03*
D13*
X142965500Y-164084000D03*
X139990500Y-164084000D03*
X142203500Y-27178000D03*
X139228500Y-27178000D03*
D14*
X131300000Y-102100000D03*
D15*
X131300000Y-89400000D03*
D14*
X122000000Y-95700000D03*
D15*
X109300000Y-95700000D03*
D14*
X137900000Y-147100000D03*
D15*
X150600000Y-147100000D03*
D14*
X137668000Y-41148000D03*
D15*
X150368000Y-41148000D03*
D14*
X150400000Y-141300000D03*
D15*
X137700000Y-141300000D03*
D14*
X150368000Y-49022000D03*
D15*
X137668000Y-49022000D03*
D16*
X159600000Y-92800000D03*
X166100000Y-92800000D03*
X159600000Y-97300000D03*
X166100000Y-97300000D03*
D17*
X138300000Y-99500000D03*
D15*
X138300000Y-91880000D03*
D10*
X148336000Y-162306000D03*
D11*
X150876000Y-162306000D03*
D10*
X149860000Y-28702000D03*
D11*
X147320000Y-28702000D03*
D10*
X170942000Y-96520000D03*
D11*
X170942000Y-93980000D03*
D18*
X101400000Y-95900000D03*
D19*
X98860000Y-95900000D03*
X96320000Y-95900000D03*
D17*
X152700000Y-91180000D03*
D15*
X150160000Y-91180000D03*
X147620000Y-91180000D03*
X145080000Y-91180000D03*
X145080000Y-98800000D03*
X147620000Y-98800000D03*
X150160000Y-98800000D03*
X152700000Y-98800000D03*
D20*
X139300000Y-30700000D03*
X146300000Y-94000000D03*
D21*
X144743500Y-162306000D02*
X148336000Y-162306000D01*
X82804000Y-97499500D02*
X82840500Y-97536000D01*
X142203500Y-27178000D02*
X148336000Y-27178000D01*
X82840500Y-97536000D02*
X88900000Y-97536000D01*
X148336000Y-27178000D02*
X149860000Y-28702000D01*
X142965500Y-164084000D02*
X144743500Y-162306000D01*
X150400000Y-141300000D02*
X150400000Y-104626167D01*
X159600000Y-92800000D02*
X166100000Y-92800000D01*
X150400000Y-104626167D02*
X159600000Y-95426167D01*
X159600000Y-95426167D02*
X159600000Y-92800000D01*
X96320000Y-95900000D02*
X95416000Y-94996000D01*
X95416000Y-94996000D02*
X88900000Y-94996000D01*
X109100000Y-95900000D02*
X109300000Y-95700000D01*
X83557500Y-93771000D02*
X99271000Y-93771000D01*
X99271000Y-93771000D02*
X101400000Y-95900000D01*
X101400000Y-95900000D02*
X109100000Y-95900000D01*
X82804000Y-94524500D02*
X83557500Y-93771000D01*
X150600000Y-162030000D02*
X150876000Y-162306000D01*
X150600000Y-147100000D02*
X150600000Y-162030000D01*
X147320000Y-28702000D02*
X147320000Y-38100000D01*
X147320000Y-38100000D02*
X150368000Y-41148000D01*
X139228500Y-30628500D02*
X139300000Y-30700000D01*
X153825000Y-99265991D02*
X153825000Y-97385000D01*
X153825000Y-97385000D02*
X147620000Y-91180000D01*
X139990500Y-164084000D02*
X147125000Y-156949500D01*
X147125000Y-156949500D02*
X147125000Y-105965991D01*
X139228500Y-27178000D02*
X139228500Y-30628500D01*
X147125000Y-105965991D02*
X153825000Y-99265991D01*
X135399999Y-98000001D02*
X144280001Y-98000001D01*
X131300000Y-102100000D02*
X135399999Y-98000001D01*
X144280001Y-98000001D02*
X145080000Y-98800000D01*
X144520000Y-95700000D02*
X147620000Y-98800000D01*
X122000000Y-95700000D02*
X144520000Y-95700000D01*
X137668000Y-41148000D02*
X136543000Y-42273000D01*
X136543000Y-42273000D02*
X136543000Y-77563000D01*
X136543000Y-77563000D02*
X150160000Y-91180000D01*
X146300000Y-94000000D02*
X147900000Y-94000000D01*
X147900000Y-94000000D02*
X152700000Y-98800000D01*
X151575000Y-99925000D02*
X152700000Y-98800000D01*
X138725000Y-99925000D02*
X151575000Y-99925000D01*
X138300000Y-99500000D02*
X138725000Y-99925000D01*
X137668000Y-76148000D02*
X152700000Y-91180000D01*
X137668000Y-49022000D02*
X137668000Y-76148000D01*
M02*
