G04 #@! TF.GenerationSoftware,KiCad,Pcbnew,8.0.0*
G04 #@! TF.CreationDate,2024-03-14T11:46:58-05:00*
G04 #@! TF.ProjectId,airplane-keychain,61697270-6c61-46e6-952d-6b6579636861,1*
G04 #@! TF.SameCoordinates,Original*
G04 #@! TF.FileFunction,Copper,L1,Top*
G04 #@! TF.FilePolarity,Positive*
%FSLAX46Y46*%
G04 Gerber Fmt 4.6, Leading zero omitted, Abs format (unit mm)*
G04 Created by KiCad (PCBNEW 8.0.0) date 2024-03-14 11:46:58*
%MOMM*%
%LPD*%
G01*
G04 APERTURE LIST*
G04 Aperture macros list*
%AMRoundRect*
0 Rectangle with rounded corners*
0 $1 Rounding radius*
0 $2 $3 $4 $5 $6 $7 $8 $9 X,Y pos of 4 corners*
0 Add a 4 corners polygon primitive as box body*
4,1,4,$2,$3,$4,$5,$6,$7,$8,$9,$2,$3,0*
0 Add four circle primitives for the rounded corners*
1,1,$1+$1,$2,$3*
1,1,$1+$1,$4,$5*
1,1,$1+$1,$6,$7*
1,1,$1+$1,$8,$9*
0 Add four rect primitives between the rounded corners*
20,1,$1+$1,$2,$3,$4,$5,0*
20,1,$1+$1,$4,$5,$6,$7,0*
20,1,$1+$1,$6,$7,$8,$9,0*
20,1,$1+$1,$8,$9,$2,$3,0*%
G04 Aperture macros list end*
G04 #@! TA.AperFunction,ComponentPad*
%ADD10R,1.800000X1.800000*%
G04 #@! TD*
G04 #@! TA.AperFunction,ComponentPad*
%ADD11C,1.800000*%
G04 #@! TD*
G04 #@! TA.AperFunction,SMDPad,CuDef*
%ADD12RoundRect,0.250001X0.624999X-0.462499X0.624999X0.462499X-0.624999X0.462499X-0.624999X-0.462499X0*%
G04 #@! TD*
G04 #@! TA.AperFunction,SMDPad,CuDef*
%ADD13RoundRect,0.250001X0.462499X0.624999X-0.462499X0.624999X-0.462499X-0.624999X0.462499X-0.624999X0*%
G04 #@! TD*
G04 #@! TA.AperFunction,ComponentPad*
%ADD14C,1.600000*%
G04 #@! TD*
G04 #@! TA.AperFunction,ComponentPad*
%ADD15O,1.600000X1.600000*%
G04 #@! TD*
G04 #@! TA.AperFunction,ComponentPad*
%ADD16C,2.000000*%
G04 #@! TD*
G04 #@! TA.AperFunction,ComponentPad*
%ADD17R,1.600000X1.600000*%
G04 #@! TD*
G04 #@! TA.AperFunction,ComponentPad*
%ADD18R,1.700000X1.700000*%
G04 #@! TD*
G04 #@! TA.AperFunction,ComponentPad*
%ADD19O,1.700000X1.700000*%
G04 #@! TD*
G04 #@! TA.AperFunction,Conductor*
%ADD20C,0.250000*%
G04 #@! TD*
G04 APERTURE END LIST*
D10*
X88900000Y-97536000D03*
D11*
X88900000Y-94996000D03*
D12*
X82804000Y-97499500D03*
X82804000Y-94524500D03*
D13*
X142965500Y-164084000D03*
X139990500Y-164084000D03*
X142203500Y-27178000D03*
X139228500Y-27178000D03*
D14*
X131300000Y-102100000D03*
D15*
X131300000Y-89400000D03*
D14*
X122000000Y-95700000D03*
D15*
X109300000Y-95700000D03*
D14*
X148500000Y-140750000D03*
D15*
X148500000Y-153450000D03*
D14*
X147500000Y-48350000D03*
D15*
X147500000Y-35650000D03*
D14*
X156500000Y-101850000D03*
D15*
X156500000Y-89150000D03*
D16*
X160500000Y-92800000D03*
X167000000Y-92800000D03*
X160500000Y-97300000D03*
X167000000Y-97300000D03*
D17*
X138300000Y-99500000D03*
D15*
X138300000Y-91880000D03*
D10*
X148336000Y-162306000D03*
D11*
X150876000Y-162306000D03*
D10*
X149860000Y-28702000D03*
D11*
X147320000Y-28702000D03*
D10*
X171500000Y-96520000D03*
D11*
X171500000Y-93980000D03*
D18*
X101400000Y-95900000D03*
D19*
X98860000Y-95900000D03*
X96320000Y-95900000D03*
D17*
X152700000Y-91180000D03*
D15*
X150160000Y-91180000D03*
X147620000Y-91180000D03*
X145080000Y-91180000D03*
X145080000Y-98800000D03*
X147620000Y-98800000D03*
X150160000Y-98800000D03*
X152700000Y-98800000D03*
D20*
X144743500Y-162306000D02*
X148336000Y-162306000D01*
X82804000Y-97499500D02*
X82840500Y-97536000D01*
X142203500Y-27178000D02*
X148336000Y-27178000D01*
X82840500Y-97536000D02*
X88900000Y-97536000D01*
X148336000Y-27178000D02*
X149860000Y-28702000D01*
X142965500Y-164084000D02*
X144743500Y-162306000D01*
X160500000Y-97300000D02*
X167000000Y-97300000D01*
X96320000Y-95900000D02*
X95416000Y-94996000D01*
X95416000Y-94996000D02*
X88900000Y-94996000D01*
X109100000Y-95900000D02*
X109300000Y-95700000D01*
X83557500Y-93771000D02*
X99271000Y-93771000D01*
X99271000Y-93771000D02*
X101400000Y-95900000D01*
X101400000Y-95900000D02*
X109100000Y-95900000D01*
X82804000Y-94524500D02*
X83557500Y-93771000D01*
X148500000Y-153450000D02*
X148500000Y-159930000D01*
X148500000Y-159930000D02*
X150876000Y-162306000D01*
X147320000Y-28702000D02*
X147320000Y-35470000D01*
X147320000Y-35470000D02*
X147500000Y-35650000D01*
X147620000Y-91180000D02*
X157625000Y-101185000D01*
X151500000Y-103000000D02*
X139990500Y-114509500D01*
X139228500Y-27178000D02*
X139228500Y-82788500D01*
X157625000Y-102349133D02*
X156974133Y-103000000D01*
X139228500Y-82788500D02*
X147620000Y-91180000D01*
X156974133Y-103000000D02*
X151500000Y-103000000D01*
X157625000Y-101185000D02*
X157625000Y-102349133D01*
X139990500Y-114509500D02*
X139990500Y-164084000D01*
X167000000Y-92800000D02*
X170320000Y-92800000D01*
X170320000Y-92800000D02*
X171500000Y-93980000D01*
X167000000Y-92800000D02*
X160500000Y-92800000D01*
X135399999Y-98000001D02*
X144280001Y-98000001D01*
X131300000Y-102100000D02*
X135399999Y-98000001D01*
X144280001Y-98000001D02*
X145080000Y-98800000D01*
X144520000Y-95700000D02*
X147620000Y-98800000D01*
X122000000Y-95700000D02*
X144520000Y-95700000D01*
X147500000Y-88520000D02*
X150160000Y-91180000D01*
X147500000Y-48350000D02*
X147500000Y-88520000D01*
X155750000Y-101850000D02*
X156500000Y-101850000D01*
X151575000Y-99925000D02*
X152700000Y-98800000D01*
X138725000Y-99925000D02*
X151575000Y-99925000D01*
X138300000Y-99500000D02*
X138725000Y-99925000D01*
X152700000Y-98800000D02*
X155750000Y-101850000D01*
X152700000Y-98800000D02*
X153450000Y-98800000D01*
X154470000Y-91180000D02*
X156500000Y-89150000D01*
X152700000Y-91180000D02*
X154470000Y-91180000D01*
M02*
